<?xml version="1.0" encoding="UTF-8" standalone="no"?>
<!DOCTYPE svg PUBLIC "-//W3C//DTD SVG 1.1//EN"
 "http://www.w3.org/Graphics/SVG/1.1/DTD/svg11.dtd">
<!-- Generated by graphviz version 2.38.0 (20140413.2041)
 -->
<!-- Title: transition Pages: 1 -->
<svg width="4504pt" height="3885pt"
 viewBox="0.00 0.00 4503.73 3884.52" xmlns="http://www.w3.org/2000/svg" xmlns:xlink="http://www.w3.org/1999/xlink">
<g id="graph0" class="graph" transform="scale(1 1) rotate(0) translate(4 3880.52)">
<title>transition</title>
<polygon fill="white" stroke="none" points="-4,4 -4,-3880.52 4499.73,-3880.52 4499.73,4 -4,4"/>
<text text-anchor="middle" x="2247.86" y="-3861.32" font-family="Times,serif" font-size="14.00">US, Canada, UK (with threshold 1.50)</text>
<!-- The Ohio State University -->
<g id="node1" class="node"><title>The Ohio State University</title>
<polygon fill="none" stroke="black" points="377.162,-1735.4 217.162,-1735.4 217.162,-1699.4 377.162,-1699.4 377.162,-1735.4"/>
<text text-anchor="middle" x="297.162" y="-1713.7" font-family="Times,serif" font-size="14.00">The Ohio State University</text>
</g>
<!-- The Ohio State University&#45;&gt;The Ohio State University -->
<g id="edge48" class="edge"><title>The Ohio State University&#45;&gt;The Ohio State University</title>
<path fill="none" stroke="black" stroke-width="2.1" d="M377.522,-1723.35C388.128,-1722.33 395.162,-1720.35 395.162,-1717.4 395.162,-1715.27 391.528,-1713.65 385.546,-1712.53"/>
<polygon fill="black" stroke="black" stroke-width="2.1" points="377.522,-1711.44 385.933,-1708.95 381.56,-1711.44 385.523,-1711.97 385.45,-1712.52 385.376,-1713.06 381.412,-1712.53 384.967,-1716.09 377.522,-1711.44 377.522,-1711.44"/>
</g>
<!-- Iowa State University -->
<g id="node2" class="node"><title>Iowa State University</title>
<polygon fill="none" stroke="black" points="3818.18,-897.583 3683.18,-897.583 3683.18,-861.583 3818.18,-861.583 3818.18,-897.583"/>
<text text-anchor="middle" x="3750.68" y="-875.883" font-family="Times,serif" font-size="14.00">Iowa State University</text>
</g>
<!-- The Ohio State University&#45;&gt;Iowa State University -->
<g id="edge1" class="edge"><title>The Ohio State University&#45;&gt;Iowa State University</title>
<path fill="none" stroke="black" stroke-width="1.7" d="M371.697,-1699.32C826.008,-1589.1 3218.25,-1008.75 3675.21,-897.892"/>
<polygon fill="black" stroke="black" stroke-width="1.7" points="3683.09,-895.981 3676.16,-901.365 3679.28,-897.264 3675.39,-898.207 3675.31,-897.867 3675.23,-897.527 3679.12,-896.584 3674.46,-894.368 3683.09,-895.981 3683.09,-895.981"/>
</g>
<!-- Stanford University -->
<g id="node16" class="node"><title>Stanford University</title>
<polygon fill="none" stroke="black" points="4111.16,-1914.13 3987.16,-1914.13 3987.16,-1878.13 4111.16,-1878.13 4111.16,-1914.13"/>
<text text-anchor="middle" x="4049.16" y="-1892.43" font-family="Times,serif" font-size="14.00">Stanford University</text>
</g>
<!-- The Ohio State University&#45;&gt;Stanford University -->
<g id="edge33" class="edge"><title>The Ohio State University&#45;&gt;Stanford University</title>
<path fill="none" stroke="black" stroke-width="1.7" d="M377.264,-1721.21C872.701,-1744.81 3513.6,-1870.61 3979.06,-1892.79"/>
<polygon fill="black" stroke="black" stroke-width="1.7" points="3987.06,-1893.17 3978.9,-1896.38 3983.05,-1893.33 3979.05,-1893.14 3979.07,-1892.79 3979.09,-1892.44 3983.08,-1892.63 3979.24,-1889.19 3987.06,-1893.17 3987.06,-1893.17"/>
</g>
<!-- Iowa State University&#45;&gt;Iowa State University -->
<g id="edge22" class="edge"><title>Iowa State University&#45;&gt;Iowa State University</title>
<path fill="none" stroke="black" stroke-width="1.7" d="M3818.41,-885.769C3828.97,-884.845 3836.18,-882.783 3836.18,-879.583 3836.18,-877.284 3832.46,-875.572 3826.44,-874.448"/>
<polygon fill="black" stroke="black" stroke-width="1.7" points="3818.41,-873.397 3826.81,-870.865 3822.42,-873.569 3826.39,-874.088 3826.34,-874.435 3826.3,-874.782 3822.33,-874.263 3825.88,-878.004 3818.41,-873.397 3818.41,-873.397"/>
</g>
<!-- Harvard University -->
<g id="node3" class="node"><title>Harvard University</title>
<polygon fill="none" stroke="black" points="425.812,-1384.4 303.812,-1384.4 303.812,-1348.4 425.812,-1348.4 425.812,-1384.4"/>
<text text-anchor="middle" x="364.812" y="-1362.7" font-family="Times,serif" font-size="14.00">Harvard University</text>
</g>
<!-- Harvard University&#45;&gt;Harvard University -->
<g id="edge129" class="edge"><title>Harvard University&#45;&gt;Harvard University</title>
<path fill="none" stroke="black" stroke-width="5.1" d="M426.091,-1372.7C436.559,-1371.84 443.812,-1369.74 443.812,-1366.4 443.812,-1364 440.065,-1362.24 434.071,-1361.12"/>
<polygon fill="black" stroke="black" stroke-width="5.1" points="426.091,-1360.1 434.754,-1355.42 430.319,-1358.57 434.286,-1359.08 434.026,-1361.11 433.766,-1363.14 429.798,-1362.64 433.298,-1366.8 426.091,-1360.1 426.091,-1360.1"/>
</g>
<!-- Lehigh University -->
<g id="node4" class="node"><title>Lehigh University</title>
<polygon fill="none" stroke="black" points="298.078,-1347.77 182.078,-1347.77 182.078,-1311.77 298.078,-1311.77 298.078,-1347.77"/>
<text text-anchor="middle" x="240.078" y="-1326.07" font-family="Times,serif" font-size="14.00">Lehigh University</text>
</g>
<!-- Harvard University&#45;&gt;Lehigh University -->
<g id="edge2" class="edge"><title>Harvard University&#45;&gt;Lehigh University</title>
<path fill="none" stroke="black" stroke-width="1.7" d="M303.541,-1348.41C303.433,-1348.37 303.326,-1348.34 303.218,-1348.31"/>
<polygon fill="black" stroke="black" stroke-width="1.7" points="298.368,-1346.89 307.058,-1345.69 302.304,-1347.68 306.142,-1348.81 306.044,-1349.14 305.945,-1349.48 302.107,-1348.35 305.029,-1352.6 298.368,-1346.89 298.368,-1346.89"/>
</g>
<!-- University Of Illinois At Urbana&#45;Champaign -->
<g id="node7" class="node"><title>University Of Illinois At Urbana&#45;Champaign</title>
<polygon fill="none" stroke="black" points="1684.93,-3690.97 1422.93,-3690.97 1422.93,-3654.97 1684.93,-3654.97 1684.93,-3690.97"/>
<text text-anchor="middle" x="1553.93" y="-3669.27" font-family="Times,serif" font-size="14.00">University Of Illinois At Urbana&#45;Champaign</text>
</g>
<!-- Harvard University&#45;&gt;University Of Illinois At Urbana&#45;Champaign -->
<g id="edge96" class="edge"><title>Harvard University&#45;&gt;University Of Illinois At Urbana&#45;Champaign</title>
<path fill="none" stroke="black" stroke-width="3.2" d="M374.21,-1384.63C478.529,-1586.98 1418.47,-3410.2 1540.82,-3647.54"/>
<polygon fill="black" stroke="black" stroke-width="3.2" points="1544.52,-3654.71 1537.65,-3649.25 1541.71,-3651.66 1539.87,-3648.1 1540.85,-3647.6 1541.83,-3647.09 1543.66,-3650.65 1544.05,-3645.95 1544.52,-3654.71 1544.52,-3654.71"/>
</g>
<!-- University Of Michigan -->
<g id="node8" class="node"><title>University Of Michigan</title>
<polygon fill="none" stroke="black" points="3333.56,-382.515 3185.56,-382.515 3185.56,-346.515 3333.56,-346.515 3333.56,-382.515"/>
<text text-anchor="middle" x="3259.56" y="-360.815" font-family="Times,serif" font-size="14.00">University Of Michigan</text>
</g>
<!-- Harvard University&#45;&gt;University Of Michigan -->
<g id="edge106" class="edge"><title>Harvard University&#45;&gt;University Of Michigan</title>
<path fill="none" stroke="black" stroke-width="3.6" d="M416.904,-1348.37C770.998,-1225.81 2821.75,-516.044 3199.69,-385.235"/>
<polygon fill="black" stroke="black" stroke-width="3.6" points="3207.52,-382.525 3201.29,-388.969 3204.17,-385.062 3200.39,-386.371 3199.96,-385.142 3199.54,-383.914 3203.32,-382.605 3198.64,-381.315 3207.52,-382.525 3207.52,-382.525"/>
</g>
<!-- University Of Wisconsin&#45;Madison -->
<g id="node9" class="node"><title>University Of Wisconsin&#45;Madison</title>
<polygon fill="none" stroke="black" points="3632.71,-616.601 3426.71,-616.601 3426.71,-580.601 3632.71,-580.601 3632.71,-616.601"/>
<text text-anchor="middle" x="3529.71" y="-594.901" font-family="Times,serif" font-size="14.00">University Of Wisconsin&#45;Madison</text>
</g>
<!-- Harvard University&#45;&gt;University Of Wisconsin&#45;Madison -->
<g id="edge123" class="edge"><title>Harvard University&#45;&gt;University Of Wisconsin&#45;Madison</title>
<path fill="none" stroke="black" stroke-width="4.1" d="M426.039,-1353.64C822.583,-1263.84 3024.45,-729.737 3456.24,-618.726"/>
<polygon fill="black" stroke="black" stroke-width="4.1" points="3464.29,-616.651 3457.7,-623.113 3460.81,-619.15 3456.93,-620.148 3456.55,-618.647 3456.16,-617.146 3460.03,-616.148 3455.39,-614.18 3464.29,-616.651 3464.29,-616.651"/>
</g>
<!-- University Of Cincinnati -->
<g id="node10" class="node"><title>University Of Cincinnati</title>
<polygon fill="none" stroke="black" points="1013.6,-493.124 861.599,-493.124 861.599,-457.124 1013.6,-457.124 1013.6,-493.124"/>
<text text-anchor="middle" x="937.599" y="-471.424" font-family="Times,serif" font-size="14.00">University Of Cincinnati</text>
</g>
<!-- Harvard University&#45;&gt;University Of Cincinnati -->
<g id="edge105" class="edge"><title>Harvard University&#45;&gt;University Of Cincinnati</title>
<path fill="none" stroke="black" stroke-width="3.6" d="M376.513,-1348.19C449.074,-1235.28 837.248,-631.272 921.469,-500.221"/>
<polygon fill="black" stroke="black" stroke-width="3.6" points="925.916,-493.302 924.998,-502.222 924.847,-497.37 922.685,-500.735 921.591,-500.032 920.497,-499.329 922.66,-495.964 918.184,-497.843 925.916,-493.302 925.916,-493.302"/>
</g>
<!-- Rice University -->
<g id="node12" class="node"><title>Rice University</title>
<polygon fill="none" stroke="black" points="548.666,-2775.71 446.666,-2775.71 446.666,-2739.71 548.666,-2739.71 548.666,-2775.71"/>
<text text-anchor="middle" x="497.666" y="-2754.01" font-family="Times,serif" font-size="14.00">Rice University</text>
</g>
<!-- Harvard University&#45;&gt;Rice University -->
<g id="edge83" class="edge"><title>Harvard University&#45;&gt;Rice University</title>
<path fill="none" stroke="black" stroke-width="2.8" d="M366.54,-1384.5C380.755,-1533.36 478.271,-2554.59 495.172,-2731.59"/>
<polygon fill="black" stroke="black" stroke-width="2.8" points="495.937,-2739.6 491.593,-2731.98 494.661,-2735.71 494.281,-2731.72 495.177,-2731.64 496.073,-2731.55 496.453,-2735.54 498.76,-2731.3 495.937,-2739.6 495.937,-2739.6"/>
</g>
<!-- Brown University -->
<g id="node14" class="node"><title>Brown University</title>
<polygon fill="none" stroke="black" points="3971.47,-2612.95 3857.47,-2612.95 3857.47,-2576.95 3971.47,-2576.95 3971.47,-2612.95"/>
<text text-anchor="middle" x="3914.47" y="-2591.25" font-family="Times,serif" font-size="14.00">Brown University</text>
</g>
<!-- Harvard University&#45;&gt;Brown University -->
<g id="edge99" class="edge"><title>Harvard University&#45;&gt;Brown University</title>
<path fill="none" stroke="black" stroke-width="3.3" d="M417.05,-1384.48C819.644,-1523.82 3424.69,-2425.43 3854.48,-2574.18"/>
<polygon fill="black" stroke="black" stroke-width="3.3" points="3862.15,-2576.84 3853.38,-2577.73 3857.99,-2576.62 3854.21,-2575.31 3854.59,-2574.22 3854.97,-2573.13 3858.75,-2574.44 3855.81,-2570.71 3862.15,-2576.84 3862.15,-2576.84"/>
</g>
<!-- Yale University -->
<g id="node15" class="node"><title>Yale University</title>
<polygon fill="none" stroke="black" points="2663.69,-86.8718 2560.69,-86.8718 2560.69,-50.8718 2663.69,-50.8718 2663.69,-86.8718"/>
<text text-anchor="middle" x="2612.19" y="-65.1718" font-family="Times,serif" font-size="14.00">Yale University</text>
</g>
<!-- Harvard University&#45;&gt;Yale University -->
<g id="edge24" class="edge"><title>Harvard University&#45;&gt;Yale University</title>
<path fill="none" stroke="black" stroke-width="1.7" d="M396.153,-1348.3C645.072,-1204.59 2299.76,-249.253 2573.78,-91.0467"/>
<polygon fill="black" stroke="black" stroke-width="1.7" points="2580.75,-87.0274 2575.62,-94.1451 2577.46,-89.3305 2573.99,-91.3305 2573.82,-91.0274 2573.64,-90.7243 2577.11,-88.7243 2572.02,-87.9097 2580.75,-87.0274 2580.75,-87.0274"/>
</g>
<!-- Radcliffe College -->
<g id="node22" class="node"><title>Radcliffe College</title>
<polygon fill="none" stroke="black" points="1285.28,-285.777 1172.28,-285.777 1172.28,-249.777 1285.28,-249.777 1285.28,-285.777"/>
<text text-anchor="middle" x="1228.78" y="-264.077" font-family="Times,serif" font-size="14.00">Radcliffe College</text>
</g>
<!-- Harvard University&#45;&gt;Radcliffe College -->
<g id="edge45" class="edge"><title>Harvard University&#45;&gt;Radcliffe College</title>
<path fill="none" stroke="black" stroke-width="2.1" d="M379.087,-1348.25C480.485,-1219.31 1091.16,-442.776 1209.08,-292.829"/>
<polygon fill="black" stroke="black" stroke-width="2.1" points="1214.31,-286.168 1212.2,-294.681 1212.27,-289.652 1209.8,-292.796 1209.37,-292.456 1208.94,-292.116 1211.41,-288.972 1206.54,-290.231 1214.31,-286.168 1214.31,-286.168"/>
</g>
<!-- Columbia University -->
<g id="node25" class="node"><title>Columbia University</title>
<polygon fill="none" stroke="black" points="2323.87,-3792.25 2192.87,-3792.25 2192.87,-3756.25 2323.87,-3756.25 2323.87,-3792.25"/>
<text text-anchor="middle" x="2258.37" y="-3770.55" font-family="Times,serif" font-size="14.00">Columbia University</text>
</g>
<!-- Harvard University&#45;&gt;Columbia University -->
<g id="edge19" class="edge"><title>Harvard University&#45;&gt;Columbia University</title>
<path fill="none" stroke="black" stroke-width="1.7" d="M377.431,-1384.51C531.252,-1591.78 2040.85,-3511.52 2237.35,-3749.99"/>
<polygon fill="black" stroke="black" stroke-width="1.7" points="2242.52,-3756.25 2234.64,-3752.38 2239.7,-3753.39 2237.15,-3750.3 2237.42,-3750.08 2237.69,-3749.86 2240.24,-3752.94 2240.19,-3747.79 2242.52,-3756.25 2242.52,-3756.25"/>
</g>
<!-- University Of California, Berkeley -->
<g id="node31" class="node"><title>University Of California, Berkeley</title>
<polygon fill="none" stroke="black" points="2004.32,-3775.25 1798.32,-3775.25 1798.32,-3739.25 2004.32,-3739.25 2004.32,-3775.25"/>
<text text-anchor="middle" x="1901.32" y="-3753.55" font-family="Times,serif" font-size="14.00">University Of California, Berkeley</text>
</g>
<!-- Harvard University&#45;&gt;University Of California, Berkeley -->
<g id="edge115" class="edge"><title>Harvard University&#45;&gt;University Of California, Berkeley</title>
<path fill="none" stroke="black" stroke-width="3.8" d="M376.514,-1384.61C509.264,-1591.17 1729.64,-3490.12 1885.06,-3731.95"/>
<polygon fill="black" stroke="black" stroke-width="3.8" points="1889.55,-3738.93 1881.62,-3734.51 1886.21,-3736.32 1884.04,-3732.96 1885.22,-3732.2 1886.4,-3731.44 1888.56,-3734.81 1888.82,-3729.89 1889.55,-3738.93 1889.55,-3738.93"/>
</g>
<!-- University Of Virginia -->
<g id="node33" class="node"><title>University Of Virginia</title>
<polygon fill="none" stroke="black" points="760.923,-751.829 620.923,-751.829 620.923,-715.829 760.923,-715.829 760.923,-751.829"/>
<text text-anchor="middle" x="690.923" y="-730.129" font-family="Times,serif" font-size="14.00">University Of Virginia</text>
</g>
<!-- Harvard University&#45;&gt;University Of Virginia -->
<g id="edge73" class="edge"><title>Harvard University&#45;&gt;University Of Virginia</title>
<path fill="none" stroke="black" stroke-width="2.6" d="M374.22,-1348.15C420.526,-1258.33 624.154,-863.344 677.886,-759.119"/>
<polygon fill="black" stroke="black" stroke-width="2.6" points="681.633,-751.849 681.167,-760.61 680.512,-755.771 678.679,-759.327 677.968,-758.96 677.256,-758.594 679.089,-755.038 674.768,-757.311 681.633,-751.849 681.633,-751.849"/>
</g>
<!-- Bryn Mawr College -->
<g id="node35" class="node"><title>Bryn Mawr College</title>
<polygon fill="none" stroke="black" points="1616.93,-137.283 1490.93,-137.283 1490.93,-101.283 1616.93,-101.283 1616.93,-137.283"/>
<text text-anchor="middle" x="1553.93" y="-115.583" font-family="Times,serif" font-size="14.00">Bryn Mawr College</text>
</g>
<!-- Harvard University&#45;&gt;Bryn Mawr College -->
<g id="edge43" class="edge"><title>Harvard University&#45;&gt;Bryn Mawr College</title>
<path fill="none" stroke="black" stroke-width="2.1" d="M382.08,-1348.29C515.317,-1208.55 1378.6,-303.172 1530.97,-143.363"/>
<polygon fill="black" stroke="black" stroke-width="2.1" points="1536.49,-137.572 1533.58,-145.846 1534.13,-140.846 1531.37,-143.741 1530.97,-143.362 1530.58,-142.982 1533.34,-140.087 1528.37,-140.877 1536.49,-137.572 1536.49,-137.572"/>
</g>
<!-- University Of Texas At Austin -->
<g id="node38" class="node"><title>University Of Texas At Austin</title>
<polygon fill="none" stroke="black" points="590.166,-1052.54 405.166,-1052.54 405.166,-1016.54 590.166,-1016.54 590.166,-1052.54"/>
<text text-anchor="middle" x="497.666" y="-1030.84" font-family="Times,serif" font-size="14.00">University Of Texas At Austin</text>
</g>
<!-- Harvard University&#45;&gt;University Of Texas At Austin -->
<g id="edge50" class="edge"><title>Harvard University&#45;&gt;University Of Texas At Austin</title>
<path fill="none" stroke="black" stroke-width="2.1" d="M372.144,-1348.08C394.419,-1292.44 461.354,-1125.25 487.264,-1060.53"/>
<polygon fill="black" stroke="black" stroke-width="2.1" points="490.357,-1052.8 490.726,-1061.57 489.381,-1056.72 487.894,-1060.43 487.383,-1060.23 486.873,-1060.02 488.36,-1056.31 484.041,-1058.89 490.357,-1052.8 490.357,-1052.8"/>
</g>
<!-- Massachusetts Institute Of Technology -->
<g id="node39" class="node"><title>Massachusetts Institute Of Technology</title>
<polygon fill="none" stroke="black" points="4130.18,-2269.97 3900.18,-2269.97 3900.18,-2233.97 4130.18,-2233.97 4130.18,-2269.97"/>
<text text-anchor="middle" x="4015.18" y="-2248.27" font-family="Times,serif" font-size="14.00">Massachusetts Institute Of Technology</text>
</g>
<!-- Harvard University&#45;&gt;Massachusetts Institute Of Technology -->
<g id="edge113" class="edge"><title>Harvard University&#45;&gt;Massachusetts Institute Of Technology</title>
<path fill="none" stroke="black" stroke-width="3.8" d="M425.88,-1381.21C856.907,-1485.78 3438.08,-2111.96 3933.12,-2232.06"/>
<polygon fill="black" stroke="black" stroke-width="3.8" points="3940.95,-2233.96 3932.17,-2236.23 3936.74,-2234.38 3932.85,-2233.43 3933.18,-2232.07 3933.51,-2230.71 3937.4,-2231.66 3934.19,-2227.92 3940.95,-2233.96 3940.95,-2233.96"/>
</g>
<!-- The University Of Chicago -->
<g id="node5" class="node"><title>The University Of Chicago</title>
<polygon fill="none" stroke="black" points="1983.82,-53.0086 1818.82,-53.0086 1818.82,-17.0086 1983.82,-17.0086 1983.82,-53.0086"/>
<text text-anchor="middle" x="1901.32" y="-31.3086" font-family="Times,serif" font-size="14.00">The University Of Chicago</text>
</g>
<!-- The University Of Chicago&#45;&gt;The Ohio State University -->
<g id="edge111" class="edge"><title>The University Of Chicago&#45;&gt;The Ohio State University</title>
<path fill="none" stroke="black" stroke-width="3.8" d="M1884.12,-53.0457C1724.42,-220.534 502.287,-1502.27 319.9,-1693.55"/>
<polygon fill="black" stroke="black" stroke-width="3.8" points="314.329,-1699.39 316.756,-1690.65 316.076,-1695.53 318.836,-1692.64 319.85,-1693.6 320.863,-1694.57 318.103,-1697.46 322.944,-1696.55 314.329,-1699.39 314.329,-1699.39"/>
</g>
<!-- The University Of Chicago&#45;&gt;Iowa State University -->
<g id="edge84" class="edge"><title>The University Of Chicago&#45;&gt;Iowa State University</title>
<path fill="none" stroke="black" stroke-width="2.9" d="M1940.8,-53.0395C2180.93,-162.704 3443.61,-739.348 3703.77,-858.162"/>
<polygon fill="black" stroke="black" stroke-width="2.9" points="3711.17,-861.542 3702.4,-861.494 3707.14,-860.745 3703.5,-859.083 3703.9,-858.219 3704.29,-857.355 3707.93,-859.017 3705.39,-854.944 3711.17,-861.542 3711.17,-861.542"/>
</g>
<!-- The University Of Chicago&#45;&gt;Harvard University -->
<g id="edge107" class="edge"><title>The University Of Chicago&#45;&gt;Harvard University</title>
<path fill="none" stroke="black" stroke-width="3.7" d="M1880.47,-53.072C1712.55,-198.574 582.04,-1178.17 391.924,-1342.9"/>
<polygon fill="black" stroke="black" stroke-width="3.7" points="385.813,-1348.2 389.133,-1339.82 387.952,-1344.56 390.975,-1341.94 391.859,-1342.96 392.743,-1343.98 389.72,-1346.6 394.585,-1346.11 385.813,-1348.2 385.813,-1348.2"/>
</g>
<!-- The University Of Chicago&#45;&gt;The University Of Chicago -->
<g id="edge130" class="edge"><title>The University Of Chicago&#45;&gt;The University Of Chicago</title>
<path fill="none" stroke="black" stroke-width="5.8" d="M1984.11,-40.9243C1994.77,-39.8985 2001.82,-37.9266 2001.82,-35.0086 2001.82,-32.9113 1998.18,-31.3028 1992.17,-30.1829"/>
<polygon fill="black" stroke="black" stroke-width="5.8" points="1984.11,-29.0929 1992.92,-23.699 1988.4,-27.2507 1992.36,-27.7868 1992.04,-30.1651 1991.72,-32.5435 1987.76,-32.0074 1991.17,-36.6313 1984.11,-29.0929 1984.11,-29.0929"/>
</g>
<!-- University Of Missouri &#45; Columbia -->
<g id="node6" class="node"><title>University Of Missouri &#45; Columbia</title>
<polygon fill="none" stroke="black" points="2363.37,-36 2153.37,-36 2153.37,-0 2363.37,-0 2363.37,-36"/>
<text text-anchor="middle" x="2258.37" y="-14.3" font-family="Times,serif" font-size="14.00">University Of Missouri &#45; Columbia</text>
</g>
<!-- The University Of Chicago&#45;&gt;University Of Missouri &#45; Columbia -->
<g id="edge3" class="edge"><title>The University Of Chicago&#45;&gt;University Of Missouri &#45; Columbia</title>
<path fill="none" stroke="black" stroke-width="1.7" d="M1984.13,-31.0637C2031.94,-28.7862 2092.76,-25.8892 2144.96,-23.4023"/>
<polygon fill="black" stroke="black" stroke-width="1.7" points="2153.26,-23.0068 2145.44,-26.9835 2149.29,-23.5468 2145.29,-23.7372 2145.27,-23.3876 2145.26,-23.038 2149.25,-22.8476 2145.1,-19.7917 2153.26,-23.0068 2153.26,-23.0068"/>
</g>
<!-- The University Of Chicago&#45;&gt;University Of Michigan -->
<g id="edge116" class="edge"><title>The University Of Chicago&#45;&gt;University Of Michigan</title>
<path fill="none" stroke="black" stroke-width="3.9" d="M1975.79,-53.0758C2210.31,-109.969 2932.48,-285.165 3177.36,-344.574"/>
<polygon fill="black" stroke="black" stroke-width="3.9" points="3185.17,-346.468 3176.36,-348.845 3180.94,-346.934 3177.05,-345.991 3177.39,-344.582 3177.74,-343.172 3181.62,-344.115 3178.43,-340.318 3185.17,-346.468 3185.17,-346.468"/>
</g>
<!-- The University Of Chicago&#45;&gt;University Of Wisconsin&#45;Madison -->
<g id="edge124" class="edge"><title>The University Of Chicago&#45;&gt;University Of Wisconsin&#45;Madison</title>
<path fill="none" stroke="black" stroke-width="4.3" d="M1953.65,-53.122C2196.38,-137.132 3211.62,-488.51 3469.79,-577.863"/>
<polygon fill="black" stroke="black" stroke-width="4.3" points="3477.57,-580.555 3468.43,-582.51 3473.25,-580.806 3469.47,-579.498 3470.01,-577.939 3470.55,-576.379 3474.33,-577.688 3471.59,-573.367 3477.57,-580.555 3477.57,-580.555"/>
</g>
<!-- The University Of Chicago&#45;&gt;University Of Cincinnati -->
<g id="edge6" class="edge"><title>The University Of Chicago&#45;&gt;University Of Cincinnati</title>
<path fill="none" stroke="black" stroke-width="1.7" d="M1861.74,-53.0822C1708.07,-123.261 1151.24,-377.557 984.862,-453.539"/>
<polygon fill="black" stroke="black" stroke-width="1.7" points="977.238,-457.021 983.019,-450.423 980.731,-455.041 984.369,-453.379 984.515,-453.698 984.66,-454.016 981.022,-455.678 986.01,-456.972 977.238,-457.021 977.238,-457.021"/>
</g>
<!-- Cornell University -->
<g id="node11" class="node"><title>Cornell University</title>
<polygon fill="none" stroke="black" points="356.162,-2092.86 238.162,-2092.86 238.162,-2056.86 356.162,-2056.86 356.162,-2092.86"/>
<text text-anchor="middle" x="297.162" y="-2071.16" font-family="Times,serif" font-size="14.00">Cornell University</text>
</g>
<!-- The University Of Chicago&#45;&gt;Cornell University -->
<g id="edge63" class="edge"><title>The University Of Chicago&#45;&gt;Cornell University</title>
<path fill="none" stroke="black" stroke-width="2.4" d="M1886.96,-53.2663C1738.64,-241.867 487.736,-1832.52 316.545,-2050.21"/>
<polygon fill="black" stroke="black" stroke-width="2.4" points="311.353,-2056.81 313.468,-2048.3 313.275,-2053.23 315.748,-2050.09 316.298,-2050.52 316.848,-2050.96 314.376,-2054.1 319.128,-2052.75 311.353,-2056.81 311.353,-2056.81"/>
</g>
<!-- St. Louis University -->
<g id="node13" class="node"><title>St. Louis University</title>
<polygon fill="none" stroke="black" points="3013.49,-203.785 2886.49,-203.785 2886.49,-167.785 3013.49,-167.785 3013.49,-203.785"/>
<text text-anchor="middle" x="2949.99" y="-182.085" font-family="Times,serif" font-size="14.00">St. Louis University</text>
</g>
<!-- The University Of Chicago&#45;&gt;St. Louis University -->
<g id="edge9" class="edge"><title>The University Of Chicago&#45;&gt;St. Louis University</title>
<path fill="none" stroke="black" stroke-width="1.7" d="M1984.04,-46.9027C2183.84,-75.6293 2690.07,-148.414 2878.17,-175.458"/>
<polygon fill="black" stroke="black" stroke-width="1.7" points="2886.34,-176.634 2877.91,-179.059 2882.33,-176.411 2878.37,-175.842 2878.42,-175.495 2878.47,-175.149 2882.43,-175.718 2878.94,-171.932 2886.34,-176.634 2886.34,-176.634"/>
</g>
<!-- Princeton University -->
<g id="node20" class="node"><title>Princeton University</title>
<polygon fill="none" stroke="black" points="3815.18,-2930.67 3686.18,-2930.67 3686.18,-2894.67 3815.18,-2894.67 3815.18,-2930.67"/>
<text text-anchor="middle" x="3750.68" y="-2908.97" font-family="Times,serif" font-size="14.00">Princeton University</text>
</g>
<!-- The University Of Chicago&#45;&gt;Princeton University -->
<g id="edge36" class="edge"><title>The University Of Chicago&#45;&gt;Princeton University</title>
<path fill="none" stroke="black" stroke-width="2.1" d="M1912.89,-53.01C2059.91,-281.791 3561.83,-2618.82 3734.52,-2887.53"/>
<polygon fill="black" stroke="black" stroke-width="2.1" points="3739.02,-2894.53 3731.67,-2889.75 3736.4,-2891.47 3734.23,-2888.1 3734.7,-2887.8 3735.16,-2887.51 3737.32,-2890.87 3737.73,-2885.86 3739.02,-2894.53 3739.02,-2894.53"/>
</g>
<!-- University Of Iowa -->
<g id="node21" class="node"><title>University Of Iowa</title>
<polygon fill="none" stroke="black" points="425.812,-2443.86 303.812,-2443.86 303.812,-2407.86 425.812,-2407.86 425.812,-2443.86"/>
<text text-anchor="middle" x="364.812" y="-2422.16" font-family="Times,serif" font-size="14.00">University Of Iowa</text>
</g>
<!-- The University Of Chicago&#45;&gt;University Of Iowa -->
<g id="edge89" class="edge"><title>The University Of Chicago&#45;&gt;University Of Iowa</title>
<path fill="none" stroke="black" stroke-width="2.9" d="M1889.61,-53.2177C1756.86,-259.78 536.483,-2158.73 381.067,-2400.56"/>
<polygon fill="black" stroke="black" stroke-width="2.9" points="376.582,-2407.54 377.879,-2398.87 377.945,-2403.66 380.108,-2400.3 380.907,-2400.81 381.706,-2401.33 379.544,-2404.69 383.936,-2402.76 376.582,-2407.54 376.582,-2407.54"/>
</g>
<!-- The University Of Chicago&#45;&gt;Radcliffe College -->
<g id="edge17" class="edge"><title>The University Of Chicago&#45;&gt;Radcliffe College</title>
<path fill="none" stroke="black" stroke-width="1.7" d="M1849.1,-53.0799C1726.1,-95.6526 1418.7,-202.044 1288.52,-247.099"/>
<polygon fill="black" stroke="black" stroke-width="1.7" points="1280.96,-249.717 1287.34,-243.699 1284.62,-248.078 1288.4,-246.77 1288.52,-247.101 1288.63,-247.431 1284.85,-248.74 1289.69,-250.503 1280.96,-249.717 1280.96,-249.717"/>
</g>
<!-- The University Of Chicago&#45;&gt;University Of California, Berkeley -->
<g id="edge122" class="edge"><title>The University Of Chicago&#45;&gt;University Of California, Berkeley</title>
<path fill="none" stroke="black" stroke-width="4" d="M1901.32,-53.2805C1901.32,-319.663 1901.32,-3413.88 1901.32,-3731.04"/>
<polygon fill="black" stroke="black" stroke-width="4" points="1901.32,-3739.22 1896.82,-3731.22 1899.82,-3735.22 1899.82,-3731.22 1901.32,-3731.22 1902.82,-3731.22 1902.82,-3735.22 1905.82,-3731.22 1901.32,-3739.22 1901.32,-3739.22"/>
</g>
<!-- The University Of Chicago&#45;&gt;University Of Virginia -->
<g id="edge39" class="edge"><title>The University Of Chicago&#45;&gt;University Of Virginia</title>
<path fill="none" stroke="black" stroke-width="2.1" d="M1869.87,-53.1628C1702.15,-150 913.55,-605.296 729.429,-711.598"/>
<polygon fill="black" stroke="black" stroke-width="2.1" points="722.377,-715.67 727.505,-708.552 725.566,-713.193 729.03,-711.193 729.305,-711.67 729.58,-712.146 726.116,-714.146 731.105,-714.787 722.377,-715.67 722.377,-715.67"/>
</g>
<!-- The University Of Chicago&#45;&gt;Bryn Mawr College -->
<g id="edge72" class="edge"><title>The University Of Chicago&#45;&gt;Bryn Mawr College</title>
<path fill="none" stroke="black" stroke-width="2.6" d="M1826.79,-53.0876C1767.1,-67.5687 1683.91,-87.7508 1625.12,-102.014"/>
<polygon fill="black" stroke="black" stroke-width="2.6" points="1616.99,-103.986 1623.91,-98.6011 1620.69,-102.265 1624.57,-101.322 1624.76,-102.1 1624.95,-102.877 1621.06,-103.82 1625.61,-105.598 1616.99,-103.986 1616.99,-103.986"/>
</g>
<!-- The University Of Chicago&#45;&gt;University Of Texas At Austin -->
<g id="edge108" class="edge"><title>The University Of Chicago&#45;&gt;University Of Texas At Austin</title>
<path fill="none" stroke="black" stroke-width="3.7" d="M1872.4,-53.067C1690.53,-174.934 707.237,-875.106 526.28,-1011.54"/>
<polygon fill="black" stroke="black" stroke-width="3.7" points="519.701,-1016.52 523.567,-1008.38 522.075,-1013.03 525.264,-1010.62 526.079,-1011.69 526.894,-1012.77 523.705,-1015.18 528.592,-1015.01 519.701,-1016.52 519.701,-1016.52"/>
</g>
<!-- The University Of North Carolina At Chapel Hill -->
<g id="node46" class="node"><title>The University Of North Carolina At Chapel Hill</title>
<polygon fill="none" stroke="black" points="3672.71,-3211.65 3386.71,-3211.65 3386.71,-3175.65 3672.71,-3175.65 3672.71,-3211.65"/>
<text text-anchor="middle" x="3529.71" y="-3189.95" font-family="Times,serif" font-size="14.00">The University Of North Carolina At Chapel Hill</text>
</g>
<!-- The University Of Chicago&#45;&gt;The University Of North Carolina At Chapel Hill -->
<g id="edge82" class="edge"><title>The University Of Chicago&#45;&gt;The University Of North Carolina At Chapel Hill</title>
<path fill="none" stroke="black" stroke-width="2.8" d="M1910.68,-53.1632C2035.51,-295.315 3369.59,-2883.06 3516.58,-3168.18"/>
<polygon fill="black" stroke="black" stroke-width="2.8" points="3520.4,-3175.58 3513.53,-3170.12 3517.76,-3172.44 3515.93,-3168.89 3516.73,-3168.47 3517.53,-3168.06 3519.36,-3171.62 3519.93,-3166.82 3520.4,-3175.58 3520.4,-3175.58"/>
</g>
<!-- University Of Illinois At Urbana&#45;Champaign&#45;&gt;University Of Illinois At Urbana&#45;Champaign -->
<g id="edge59" class="edge"><title>University Of Illinois At Urbana&#45;Champaign&#45;&gt;University Of Illinois At Urbana&#45;Champaign</title>
<path fill="none" stroke="black" stroke-width="2.4" d="M1685.19,-3678.19C1696.13,-3677.07 1702.93,-3675.33 1702.93,-3672.97 1702.93,-3671.28 1699.42,-3669.9 1693.38,-3668.85"/>
<polygon fill="black" stroke="black" stroke-width="2.4" points="1685.19,-3667.75 1693.6,-3665.24 1689.25,-3667.59 1693.21,-3668.12 1693.12,-3668.81 1693.03,-3669.51 1689.06,-3668.98 1692.65,-3672.38 1685.19,-3667.75 1685.19,-3667.75"/>
</g>
<!-- University Of Illinois At Urbana&#45;Champaign&#45;&gt;University Of Michigan -->
<g id="edge4" class="edge"><title>University Of Illinois At Urbana&#45;Champaign&#45;&gt;University Of Michigan</title>
<path fill="none" stroke="black" stroke-width="1.7" d="M1563.32,-3654.77C1691.66,-3405.82 3095.76,-682.237 3246.47,-389.899"/>
<polygon fill="black" stroke="black" stroke-width="1.7" points="3250.19,-382.7 3249.72,-391.46 3248.66,-386.415 3246.83,-389.971 3246.52,-389.81 3246.21,-389.65 3248.04,-386.094 3243.32,-388.161 3250.19,-382.7 3250.19,-382.7"/>
</g>
<!-- University Of Illinois At Urbana&#45;Champaign&#45;&gt;University Of Wisconsin&#45;Madison -->
<g id="edge5" class="edge"><title>University Of Illinois At Urbana&#45;Champaign&#45;&gt;University Of Wisconsin&#45;Madison</title>
<path fill="none" stroke="black" stroke-width="1.7" d="M1565.54,-3654.92C1718.43,-3417 3333.91,-903.28 3513.51,-623.809"/>
<polygon fill="black" stroke="black" stroke-width="1.7" points="3517.95,-616.905 3516.65,-625.581 3516.08,-620.459 3513.92,-623.824 3513.62,-623.635 3513.33,-623.446 3515.49,-620.081 3510.59,-621.689 3517.95,-616.905 3517.95,-616.905"/>
</g>
<!-- Marquette University -->
<g id="node37" class="node"><title>Marquette University</title>
<polygon fill="none" stroke="black" points="1673.62,-3853.52 1539.62,-3853.52 1539.62,-3817.52 1673.62,-3817.52 1673.62,-3853.52"/>
<text text-anchor="middle" x="1606.62" y="-3831.82" font-family="Times,serif" font-size="14.00">Marquette University</text>
</g>
<!-- University Of Illinois At Urbana&#45;Champaign&#45;&gt;Marquette University -->
<g id="edge46" class="edge"><title>University Of Illinois At Urbana&#45;Champaign&#45;&gt;Marquette University</title>
<path fill="none" stroke="black" stroke-width="2.1" d="M1559.77,-3690.99C1569.11,-3719.79 1587.44,-3776.34 1598.2,-3809.52"/>
<polygon fill="black" stroke="black" stroke-width="2.1" points="1600.76,-3817.42 1594.86,-3810.92 1599,-3813.78 1597.77,-3809.98 1598.29,-3809.81 1598.81,-3809.64 1600.05,-3813.45 1601.71,-3808.7 1600.76,-3817.42 1600.76,-3817.42"/>
</g>
<!-- University Of Illinois At Urbana&#45;Champaign&#45;&gt;Massachusetts Institute Of Technology -->
<g id="edge74" class="edge"><title>University Of Illinois At Urbana&#45;Champaign&#45;&gt;Massachusetts Institute Of Technology</title>
<path fill="none" stroke="black" stroke-width="2.6" d="M1585.5,-3654.75C1849.43,-3502.37 3686.38,-2441.8 3976.61,-2274.24"/>
<polygon fill="black" stroke="black" stroke-width="2.6" points="3983.96,-2269.99 3978.83,-2277.11 3980.89,-2272.69 3977.43,-2274.69 3977.03,-2273.99 3976.63,-2273.3 3980.09,-2271.3 3975.23,-2270.88 3983.96,-2269.99 3983.96,-2269.99"/>
</g>
<!-- University Of Michigan&#45;&gt;Iowa State University -->
<g id="edge49" class="edge"><title>University Of Michigan&#45;&gt;Iowa State University</title>
<path fill="none" stroke="black" stroke-width="2.1" d="M3276.75,-382.545C3350.86,-460.269 3643.1,-766.758 3727.65,-855.431"/>
<polygon fill="black" stroke="black" stroke-width="2.1" points="3733.37,-861.433 3725.24,-858.128 3730.21,-858.918 3727.45,-856.023 3727.85,-855.643 3728.25,-855.264 3731.01,-858.159 3730.46,-853.159 3733.37,-861.433 3733.37,-861.433"/>
</g>
<!-- University Of Michigan&#45;&gt;University Of Michigan -->
<g id="edge126" class="edge"><title>University Of Michigan&#45;&gt;University Of Michigan</title>
<path fill="none" stroke="black" stroke-width="4.5" d="M3333.92,-370.573C3344.48,-369.593 3351.56,-367.574 3351.56,-364.515 3351.56,-362.317 3347.9,-360.655 3341.92,-359.531"/>
<polygon fill="black" stroke="black" stroke-width="4.5" points="3333.92,-358.458 3342.52,-354.504 3338.12,-357.255 3342.08,-357.787 3341.85,-359.521 3341.62,-361.256 3337.65,-360.724 3341.18,-364.539 3333.92,-358.458 3333.92,-358.458"/>
</g>
<!-- University Of Michigan&#45;&gt;Cornell University -->
<g id="edge21" class="edge"><title>University Of Michigan&#45;&gt;Cornell University</title>
<path fill="none" stroke="black" stroke-width="1.7" d="M3228.3,-382.566C2934.41,-552.239 660.577,-1865.04 335.74,-2052.58"/>
<polygon fill="black" stroke="black" stroke-width="1.7" points="328.431,-2056.8 333.559,-2049.69 331.72,-2054.5 335.184,-2052.5 335.359,-2052.8 335.534,-2053.11 332.07,-2055.11 337.159,-2055.92 328.431,-2056.8 328.431,-2056.8"/>
</g>
<!-- University Of Michigan&#45;&gt;St. Louis University -->
<g id="edge58" class="edge"><title>University Of Michigan&#45;&gt;St. Louis University</title>
<path fill="none" stroke="black" stroke-width="2.4" d="M3228.17,-346.394C3171.16,-313.476 3050.75,-243.96 2988.73,-208.15"/>
<polygon fill="black" stroke="black" stroke-width="2.4" points="2981.46,-203.954 2990.19,-204.837 2985.28,-205.348 2988.74,-207.348 2988.39,-207.954 2988.04,-208.561 2984.58,-206.561 2986.59,-211.072 2981.46,-203.954 2981.46,-203.954"/>
</g>
<!-- Purdue University -->
<g id="node47" class="node"><title>Purdue University</title>
<polygon fill="none" stroke="black" points="3392.97,-276.62 3276.97,-276.62 3276.97,-240.62 3392.97,-240.62 3392.97,-276.62"/>
<text text-anchor="middle" x="3334.97" y="-254.92" font-family="Times,serif" font-size="14.00">Purdue University</text>
</g>
<!-- University Of Michigan&#45;&gt;Purdue University -->
<g id="edge87" class="edge"><title>University Of Michigan&#45;&gt;Purdue University</title>
<path fill="none" stroke="black" stroke-width="2.9" d="M3272.7,-346.07C3285.02,-328.759 3303.55,-302.734 3317.2,-283.574"/>
<polygon fill="black" stroke="black" stroke-width="2.9" points="3321.98,-276.854 3320.28,-285.459 3320.44,-280.664 3318.12,-283.922 3317.34,-283.371 3316.57,-282.82 3318.89,-279.562 3314.41,-281.283 3321.98,-276.854 3321.98,-276.854"/>
</g>
<!-- University Of Wisconsin&#45;Madison&#45;&gt;Iowa State University -->
<g id="edge30" class="edge"><title>University Of Wisconsin&#45;Madison&#45;&gt;Iowa State University</title>
<path fill="none" stroke="black" stroke-width="1.7" d="M3543.87,-616.605C3582.13,-665.258 3687.64,-799.427 3731.34,-854.99"/>
<polygon fill="black" stroke="black" stroke-width="1.7" points="3736.35,-861.366 3728.58,-857.303 3733.6,-858.438 3731.13,-855.293 3731.41,-855.077 3731.68,-854.861 3734.15,-858.005 3734.24,-852.852 3736.35,-861.366 3736.35,-861.366"/>
</g>
<!-- University Of Wisconsin&#45;Madison&#45;&gt;Harvard University -->
<g id="edge109" class="edge"><title>University Of Wisconsin&#45;Madison&#45;&gt;Harvard University</title>
<path fill="none" stroke="black" stroke-width="3.7" d="M3445.31,-616.638C2991.61,-720.628 847.513,-1240.85 433.944,-1347.39"/>
<polygon fill="black" stroke="black" stroke-width="3.7" points="425.94,-1349.46 432.646,-1343.43 429.476,-1347.15 433.349,-1346.15 433.686,-1347.46 434.024,-1348.76 430.151,-1349.76 434.727,-1351.49 425.94,-1349.46 425.94,-1349.46"/>
</g>
<!-- University Of Wisconsin&#45;Madison&#45;&gt;University Of Wisconsin&#45;Madison -->
<g id="edge92" class="edge"><title>University Of Wisconsin&#45;Madison&#45;&gt;University Of Wisconsin&#45;Madison</title>
<path fill="none" stroke="black" stroke-width="3.1" d="M3632.98,-604.194C3643.79,-603.102 3650.71,-601.238 3650.71,-598.601 3650.71,-596.706 3647.13,-595.21 3641.11,-594.113"/>
<polygon fill="black" stroke="black" stroke-width="3.1" points="3632.98,-593.009 3641.39,-590.519 3637.09,-592.507 3641.05,-593.045 3640.91,-594.086 3640.77,-595.126 3636.8,-594.588 3640.42,-597.653 3632.98,-593.009 3632.98,-593.009"/>
</g>
<!-- Northwestern University -->
<g id="node48" class="node"><title>Northwestern University</title>
<polygon fill="none" stroke="black" points="3711.96,-514.815 3560.96,-514.815 3560.96,-478.815 3711.96,-478.815 3711.96,-514.815"/>
<text text-anchor="middle" x="3636.46" y="-493.115" font-family="Times,serif" font-size="14.00">Northwestern University</text>
</g>
<!-- University Of Wisconsin&#45;Madison&#45;&gt;Northwestern University -->
<g id="edge93" class="edge"><title>University Of Wisconsin&#45;Madison&#45;&gt;Northwestern University</title>
<path fill="none" stroke="black" stroke-width="3.1" d="M3548.8,-580.404C3566.33,-563.686 3592.42,-538.806 3611.58,-520.535"/>
<polygon fill="black" stroke="black" stroke-width="3.1" points="3617.54,-514.854 3614.24,-522.981 3615.37,-518.375 3612.48,-521.135 3611.75,-520.375 3611.03,-519.615 3613.92,-516.855 3609.27,-517.77 3617.54,-514.854 3617.54,-514.854"/>
</g>
<!-- Cornell University&#45;&gt;The Ohio State University -->
<g id="edge7" class="edge"><title>Cornell University&#45;&gt;The Ohio State University</title>
<path fill="none" stroke="black" stroke-width="1.7" d="M297.162,-2056.64C297.162,-1997.83 297.162,-1812.89 297.162,-1743.79"/>
<polygon fill="black" stroke="black" stroke-width="1.7" points="297.162,-1735.58 300.762,-1743.58 297.512,-1739.58 297.512,-1743.58 297.162,-1743.58 296.812,-1743.58 296.812,-1739.58 293.562,-1743.58 297.162,-1735.58 297.162,-1735.58"/>
</g>
<!-- Cornell University&#45;&gt;Harvard University -->
<g id="edge66" class="edge"><title>Cornell University&#45;&gt;Harvard University</title>
<path fill="none" stroke="black" stroke-width="2.4" d="M298.903,-2056.63C308.134,-1959.96 351.365,-1507.22 362.296,-1392.75"/>
<polygon fill="black" stroke="black" stroke-width="2.4" points="363.083,-1384.5 365.906,-1392.81 363.4,-1388.55 363.02,-1392.53 362.323,-1392.47 361.626,-1392.4 362.006,-1388.42 358.739,-1392.12 363.083,-1384.5 363.083,-1384.5"/>
</g>
<!-- Cornell University&#45;&gt;Cornell University -->
<g id="edge65" class="edge"><title>Cornell University&#45;&gt;Cornell University</title>
<path fill="none" stroke="black" stroke-width="2.4" d="M356.241,-2081.21C366.792,-2080.38 374.162,-2078.27 374.162,-2074.86 374.162,-2072.41 370.355,-2070.62 364.296,-2069.51"/>
<polygon fill="black" stroke="black" stroke-width="2.4" points="356.241,-2068.5 364.625,-2065.92 360.297,-2068.3 364.266,-2068.8 364.18,-2069.49 364.093,-2070.19 360.124,-2069.69 363.735,-2073.06 356.241,-2068.5 356.241,-2068.5"/>
</g>
<!-- Cornell University&#45;&gt;Brown University -->
<g id="edge79" class="edge"><title>Cornell University&#45;&gt;Brown University</title>
<path fill="none" stroke="black" stroke-width="2.8" d="M356.186,-2083.34C783.671,-2144.81 3401.29,-2521.16 3849.27,-2585.57"/>
<polygon fill="black" stroke="black" stroke-width="2.8" points="3857.28,-2586.72 3848.85,-2589.15 3853.19,-2587.05 3849.24,-2586.48 3849.36,-2585.59 3849.49,-2584.7 3853.45,-2585.26 3849.88,-2582.02 3857.28,-2586.72 3857.28,-2586.72"/>
</g>
<!-- Cornell University&#45;&gt;University Of Iowa -->
<g id="edge101" class="edge"><title>Cornell University&#45;&gt;University Of Iowa</title>
<path fill="none" stroke="black" stroke-width="3.3" d="M300.704,-2093.23C311.915,-2151.4 346.652,-2331.63 359.747,-2399.58"/>
<polygon fill="black" stroke="black" stroke-width="3.3" points="361.305,-2407.66 356.146,-2400.51 359.419,-2403.95 358.662,-2400.02 359.791,-2399.81 360.92,-2399.59 361.677,-2403.52 363.436,-2399.1 361.305,-2407.66 361.305,-2407.66"/>
</g>
<!-- University Of Minnesota&#45;Minneapolis -->
<g id="node50" class="node"><title>University Of Minnesota&#45;Minneapolis</title>
<polygon fill="none" stroke="black" points="226,-2110.44 -1.13687e-13,-2110.44 -1.13687e-13,-2074.44 226,-2074.44 226,-2110.44"/>
<text text-anchor="middle" x="113" y="-2088.74" font-family="Times,serif" font-size="14.00">University Of Minnesota&#45;Minneapolis</text>
</g>
<!-- Cornell University&#45;&gt;University Of Minnesota&#45;Minneapolis -->
<g id="edge100" class="edge"><title>Cornell University&#45;&gt;University Of Minnesota&#45;Minneapolis</title>
<path fill="none" stroke="black" stroke-width="3.3" d="M238.132,-2080.49C236.916,-2080.61 235.69,-2080.73 234.457,-2080.84"/>
<polygon fill="black" stroke="black" stroke-width="3.3" points="226.215,-2081.63 233.826,-2077.17 230.088,-2080.11 234.069,-2079.73 234.179,-2080.87 234.288,-2082.02 230.306,-2082.4 234.532,-2084.57 226.215,-2081.63 226.215,-2081.63"/>
</g>
<!-- Rice University&#45;&gt;The Ohio State University -->
<g id="edge8" class="edge"><title>Rice University&#45;&gt;The Ohio State University</title>
<path fill="none" stroke="black" stroke-width="1.7" d="M494.186,-2739.65C470.299,-2615.72 330.687,-1891.34 302.226,-1743.67"/>
<polygon fill="black" stroke="black" stroke-width="1.7" points="300.66,-1735.54 305.709,-1742.72 301.76,-1739.4 302.517,-1743.33 302.174,-1743.4 301.83,-1743.46 301.073,-1739.54 298.639,-1744.08 300.66,-1735.54 300.66,-1735.54"/>
</g>
<!-- California Institute Of Technology -->
<g id="node23" class="node"><title>California Institute Of Technology</title>
<polygon fill="none" stroke="black" points="1040.6,-3335.13 834.599,-3335.13 834.599,-3299.13 1040.6,-3299.13 1040.6,-3335.13"/>
<text text-anchor="middle" x="937.599" y="-3313.43" font-family="Times,serif" font-size="14.00">California Institute Of Technology</text>
</g>
<!-- Rice University&#45;&gt;California Institute Of Technology -->
<g id="edge117" class="edge"><title>Rice University&#45;&gt;California Institute Of Technology</title>
<path fill="none" stroke="black" stroke-width="3.9" d="M512.053,-2776.01C577.13,-2858.76 843.99,-3198.1 918.309,-3292.6"/>
<polygon fill="black" stroke="black" stroke-width="3.9" points="923.321,-3298.97 914.927,-3295.4 919.709,-3296.73 917.236,-3293.58 918.376,-3292.69 919.516,-3291.79 921.988,-3294.93 921.825,-3289.97 923.321,-3298.97 923.321,-3298.97"/>
</g>
<!-- University Of California, Los Angeles -->
<g id="node24" class="node"><title>University Of California, Los Angeles</title>
<polygon fill="none" stroke="black" points="803.923,-3076.42 577.923,-3076.42 577.923,-3040.42 803.923,-3040.42 803.923,-3076.42"/>
<text text-anchor="middle" x="690.923" y="-3054.72" font-family="Times,serif" font-size="14.00">University Of California, Los Angeles</text>
</g>
<!-- Rice University&#45;&gt;University Of California, Los Angeles -->
<g id="edge47" class="edge"><title>Rice University&#45;&gt;University Of California, Los Angeles</title>
<path fill="none" stroke="black" stroke-width="2.1" d="M509.464,-2776.07C542.697,-2827.78 637.117,-2974.7 674.954,-3033.58"/>
<polygon fill="black" stroke="black" stroke-width="2.1" points="679.28,-3040.31 671.926,-3035.52 676.654,-3037.24 674.492,-3033.87 674.954,-3033.58 675.417,-3033.28 677.58,-3036.64 677.983,-3031.63 679.28,-3040.31 679.28,-3040.31"/>
</g>
<!-- Brown University&#45;&gt;Yale University -->
<g id="edge10" class="edge"><title>Brown University&#45;&gt;Yale University</title>
<path fill="none" stroke="black" stroke-width="1.7" d="M3905.11,-2576.77C3795.24,-2363.67 2753.84,-343.634 2625.2,-94.1116"/>
<polygon fill="black" stroke="black" stroke-width="1.7" points="2621.5,-86.9304 2628.37,-92.3915 2623.65,-90.3254 2625.48,-93.8807 2625.17,-94.0411 2624.86,-94.2015 2623.02,-90.6461 2621.97,-95.6907 2621.5,-86.9304 2621.5,-86.9304"/>
</g>
<!-- Brown University&#45;&gt;University Of California, Berkeley -->
<g id="edge80" class="edge"><title>Brown University&#45;&gt;University Of California, Berkeley</title>
<path fill="none" stroke="black" stroke-width="2.8" d="M3883.26,-2612.97C3651.12,-2747 2195.75,-3587.25 1939.75,-3735.06"/>
<polygon fill="black" stroke="black" stroke-width="2.8" points="1932.53,-3739.23 1937.66,-3732.11 1935.54,-3736.45 1939.01,-3734.45 1939.46,-3735.23 1939.91,-3736 1936.44,-3738 1941.26,-3738.34 1932.53,-3739.23 1932.53,-3739.23"/>
</g>
<!-- Yale University&#45;&gt;University Of Missouri &#45; Columbia -->
<g id="edge56" class="edge"><title>Yale University&#45;&gt;University Of Missouri &#45; Columbia</title>
<path fill="none" stroke="black" stroke-width="2.4" d="M2560.36,-61.4201C2511.03,-54.3272 2435.13,-43.4145 2371.77,-34.304"/>
<polygon fill="black" stroke="black" stroke-width="2.4" points="2363.71,-33.1454 2372.14,-30.7206 2367.77,-33.0218 2371.73,-33.5911 2371.63,-34.284 2371.53,-34.9768 2367.57,-34.4075 2371.12,-37.8473 2363.71,-33.1454 2363.71,-33.1454"/>
</g>
<!-- Stanford University&#45;&gt;Brown University -->
<g id="edge11" class="edge"><title>Stanford University&#45;&gt;Brown University</title>
<path fill="none" stroke="black" stroke-width="1.7" d="M4045.63,-1914.46C4027.12,-2010.48 3941.38,-2455.35 3919.55,-2568.64"/>
<polygon fill="black" stroke="black" stroke-width="1.7" points="3917.97,-2576.81 3915.95,-2568.27 3918.38,-2572.81 3919.14,-2568.89 3919.49,-2568.95 3919.83,-2569.02 3919.07,-2572.95 3923.02,-2569.63 3917.97,-2576.81 3917.97,-2576.81"/>
</g>
<!-- Stanford University&#45;&gt;Stanford University -->
<g id="edge91" class="edge"><title>Stanford University&#45;&gt;Stanford University</title>
<path fill="none" stroke="black" stroke-width="2.9" d="M4111.22,-1902.43C4121.82,-1901.57 4129.16,-1899.47 4129.16,-1896.13 4129.16,-1893.73 4125.37,-1891.97 4119.3,-1890.85"/>
<polygon fill="black" stroke="black" stroke-width="2.9" points="4111.22,-1889.83 4119.6,-1887.26 4115.3,-1889.38 4119.27,-1889.89 4119.15,-1890.83 4119.03,-1891.77 4115.07,-1891.27 4118.7,-1894.4 4111.22,-1889.83 4111.22,-1889.83"/>
</g>
<!-- Polytechnic University -->
<g id="node30" class="node"><title>Polytechnic University</title>
<polygon fill="none" stroke="black" points="4487.67,-1914.13 4346.67,-1914.13 4346.67,-1878.13 4487.67,-1878.13 4487.67,-1914.13"/>
<text text-anchor="middle" x="4417.17" y="-1892.43" font-family="Times,serif" font-size="14.00">Polytechnic University</text>
</g>
<!-- Stanford University&#45;&gt;Polytechnic University -->
<g id="edge34" class="edge"><title>Stanford University&#45;&gt;Polytechnic University</title>
<path fill="none" stroke="black" stroke-width="1.7" d="M4111.17,-1896.13C4173.67,-1896.13 4270.34,-1896.13 4338.27,-1896.13"/>
<polygon fill="black" stroke="black" stroke-width="1.7" points="4346.4,-1896.13 4338.4,-1899.73 4342.4,-1896.48 4338.4,-1896.48 4338.4,-1896.13 4338.4,-1895.78 4342.4,-1895.78 4338.4,-1892.53 4346.4,-1896.13 4346.4,-1896.13"/>
</g>
<!-- University Of Washington -->
<g id="node17" class="node"><title>University Of Washington</title>
<polygon fill="none" stroke="black" points="4273.4,-293.127 4112.4,-293.127 4112.4,-257.127 4273.4,-257.127 4273.4,-293.127"/>
<text text-anchor="middle" x="4192.9" y="-271.427" font-family="Times,serif" font-size="14.00">University Of Washington</text>
</g>
<!-- University Of Washington&#45;&gt;University Of Washington -->
<g id="edge12" class="edge"><title>University Of Washington&#45;&gt;University Of Washington</title>
<path fill="none" stroke="black" stroke-width="1.7" d="M4273.67,-281.079C4284.33,-280.064 4291.4,-278.08 4291.4,-275.127 4291.4,-273.004 4287.75,-271.382 4281.74,-270.261"/>
<polygon fill="black" stroke="black" stroke-width="1.7" points="4273.67,-269.174 4282.08,-266.675 4277.69,-269.362 4281.65,-269.896 4281.6,-270.243 4281.56,-270.589 4277.59,-270.055 4281.12,-273.81 4273.67,-269.174 4273.67,-269.174"/>
</g>
<!-- The Johns Hopkins University -->
<g id="node18" class="node"><title>The Johns Hopkins University</title>
<polygon fill="none" stroke="black" points="1319.78,-3542.48 1137.78,-3542.48 1137.78,-3506.48 1319.78,-3506.48 1319.78,-3542.48"/>
<text text-anchor="middle" x="1228.78" y="-3520.78" font-family="Times,serif" font-size="14.00">The Johns Hopkins University</text>
</g>
<!-- The Johns Hopkins University&#45;&gt;University Of Missouri &#45; Columbia -->
<g id="edge71" class="edge"><title>The Johns Hopkins University&#45;&gt;University Of Missouri &#45; Columbia</title>
<path fill="none" stroke="black" stroke-width="2.6" d="M1234.07,-3506.45C1309.24,-3250.45 2160.97,-349.712 2250.73,-44.0221"/>
<polygon fill="black" stroke="black" stroke-width="2.6" points="2253.05,-36.1214 2254.25,-44.8116 2252.69,-40.1848 2251.56,-44.0227 2250.8,-43.7974 2250.03,-43.572 2251.16,-39.734 2247.34,-42.7831 2253.05,-36.1214 2253.05,-36.1214"/>
</g>
<!-- The Johns Hopkins University&#45;&gt;University Of Illinois At Urbana&#45;Champaign -->
<g id="edge118" class="edge"><title>The Johns Hopkins University&#45;&gt;University Of Illinois At Urbana&#45;Champaign</title>
<path fill="none" stroke="black" stroke-width="3.9" d="M1268.32,-3542.54C1328.42,-3569.98 1442.52,-3622.09 1506.82,-3651.46"/>
<polygon fill="black" stroke="black" stroke-width="3.9" points="1514.41,-3654.92 1505.31,-3655.59 1510.17,-3654.58 1506.53,-3652.92 1507.13,-3651.6 1507.73,-3650.28 1511.37,-3651.94 1508.95,-3647.61 1514.41,-3654.92 1514.41,-3654.92"/>
</g>
<!-- The Johns Hopkins University&#45;&gt;Cornell University -->
<g id="edge13" class="edge"><title>The Johns Hopkins University&#45;&gt;Cornell University</title>
<path fill="none" stroke="black" stroke-width="1.7" d="M1217.17,-3506.41C1119,-3353.67 428.72,-2279.56 313.463,-2100.22"/>
<polygon fill="black" stroke="black" stroke-width="1.7" points="309.005,-2093.28 316.359,-2098.07 311.462,-2096.46 313.625,-2099.83 313.33,-2100.01 313.036,-2100.2 310.873,-2096.84 310.302,-2101.96 309.005,-2093.28 309.005,-2093.28"/>
</g>
<!-- The Johns Hopkins University&#45;&gt;The Johns Hopkins University -->
<g id="edge42" class="edge"><title>The Johns Hopkins University&#45;&gt;The Johns Hopkins University</title>
<path fill="none" stroke="black" stroke-width="2.1" d="M1319.81,-3530.28C1330.68,-3529.22 1337.78,-3527.29 1337.78,-3524.48 1337.78,-3522.46 1334.11,-3520.89 1328.01,-3519.77"/>
<polygon fill="black" stroke="black" stroke-width="2.1" points="1319.81,-3518.68 1328.22,-3516.17 1323.85,-3518.66 1327.82,-3519.19 1327.74,-3519.74 1327.67,-3520.28 1323.71,-3519.75 1327.27,-3523.31 1319.81,-3518.68 1319.81,-3518.68"/>
</g>
<!-- West Virginia University -->
<g id="node19" class="node"><title>West Virginia University</title>
<polygon fill="none" stroke="black" points="1231.53,-3671.95 1076.53,-3671.95 1076.53,-3635.95 1231.53,-3635.95 1231.53,-3671.95"/>
<text text-anchor="middle" x="1154.03" y="-3650.25" font-family="Times,serif" font-size="14.00">West Virginia University</text>
</g>
<!-- The Johns Hopkins University&#45;&gt;West Virginia University -->
<g id="edge14" class="edge"><title>The Johns Hopkins University&#45;&gt;West Virginia University</title>
<path fill="none" stroke="black" stroke-width="1.7" d="M1218.38,-3542.48C1205.46,-3564.87 1183.31,-3603.22 1168.67,-3628.58"/>
<polygon fill="black" stroke="black" stroke-width="1.7" points="1164.57,-3635.68 1165.46,-3626.95 1166.27,-3632.04 1168.27,-3628.58 1168.57,-3628.75 1168.88,-3628.93 1166.88,-3632.39 1171.69,-3630.55 1164.57,-3635.68 1164.57,-3635.68"/>
</g>
<!-- The Johns Hopkins University&#45;&gt;Princeton University -->
<g id="edge51" class="edge"><title>The Johns Hopkins University&#45;&gt;Princeton University</title>
<path fill="none" stroke="black" stroke-width="2.1" d="M1303.23,-3506.42C1673.4,-3416.61 3312.5,-3018.97 3678.18,-2930.26"/>
<polygon fill="black" stroke="black" stroke-width="2.1" points="3686.06,-2928.35 3679.14,-2933.73 3682.31,-2929.82 3678.42,-2930.77 3678.29,-2930.23 3678.16,-2929.7 3682.05,-2928.75 3677.44,-2926.73 3686.06,-2928.35 3686.06,-2928.35"/>
</g>
<!-- The Johns Hopkins University&#45;&gt;California Institute Of Technology -->
<g id="edge38" class="edge"><title>The Johns Hopkins University&#45;&gt;California Institute Of Technology</title>
<path fill="none" stroke="black" stroke-width="2.1" d="M1203.45,-3506.44C1150.53,-3468.76 1028.33,-3381.74 969.881,-3340.12"/>
<polygon fill="black" stroke="black" stroke-width="2.1" points="963.078,-3335.27 971.683,-3336.98 966.656,-3337.15 969.914,-3339.47 969.595,-3339.91 969.276,-3340.36 966.018,-3338.04 967.507,-3342.85 963.078,-3335.27 963.078,-3335.27"/>
</g>
<!-- Princeton University&#45;&gt;Harvard University -->
<g id="edge28" class="edge"><title>Princeton University&#45;&gt;Harvard University</title>
<path fill="none" stroke="black" stroke-width="1.7" d="M3711.19,-2894.64C3361.1,-2734.76 792.606,-1561.76 411.917,-1387.91"/>
<polygon fill="black" stroke="black" stroke-width="1.7" points="404.369,-1384.46 413.141,-1384.51 408.153,-1385.81 411.791,-1387.47 411.646,-1387.79 411.5,-1388.1 407.862,-1386.44 410.15,-1391.06 404.369,-1384.46 404.369,-1384.46"/>
</g>
<!-- Princeton University&#45;&gt;University Of Illinois At Urbana&#45;Champaign -->
<g id="edge125" class="edge"><title>Princeton University&#45;&gt;University Of Illinois At Urbana&#45;Champaign</title>
<path fill="none" stroke="black" stroke-width="4.4" d="M3698.54,-2930.71C3401.99,-3033.35 1929.83,-3542.87 1613.76,-3652.26"/>
<polygon fill="black" stroke="black" stroke-width="4.4" points="1606.07,-3654.93 1612.01,-3647.63 1609.29,-3652.01 1613.07,-3650.7 1613.63,-3652.31 1614.18,-3653.92 1610.4,-3655.23 1615.25,-3656.99 1606.07,-3654.93 1606.07,-3654.93"/>
</g>
<!-- Princeton University&#45;&gt;University Of Wisconsin&#45;Madison -->
<g id="edge32" class="edge"><title>Princeton University&#45;&gt;University Of Wisconsin&#45;Madison</title>
<path fill="none" stroke="black" stroke-width="1.7" d="M3748.93,-2894.38C3729.56,-2691.57 3555.22,-865.754 3532.21,-624.807"/>
<polygon fill="black" stroke="black" stroke-width="1.7" points="3531.43,-616.606 3535.77,-624.228 3532.16,-620.555 3532.54,-624.537 3532.19,-624.57 3531.84,-624.603 3531.46,-620.621 3528.61,-624.912 3531.43,-616.606 3531.43,-616.606"/>
</g>
<!-- Princeton University&#45;&gt;Cornell University -->
<g id="edge15" class="edge"><title>Princeton University&#45;&gt;Cornell University</title>
<path fill="none" stroke="black" stroke-width="1.7" d="M3685.91,-2896.96C3254.65,-2792.34 802.383,-2197.42 364.175,-2091.11"/>
<polygon fill="black" stroke="black" stroke-width="1.7" points="356.331,-2089.21 364.954,-2087.6 360.301,-2089.81 364.188,-2090.76 364.106,-2091.1 364.023,-2091.44 360.136,-2090.49 363.257,-2094.6 356.331,-2089.21 356.331,-2089.21"/>
</g>
<!-- Princeton University&#45;&gt;Brown University -->
<g id="edge40" class="edge"><title>Princeton University&#45;&gt;Brown University</title>
<path fill="none" stroke="black" stroke-width="2.1" d="M3760.19,-2894.21C3788.02,-2840.24 3869.31,-2682.56 3901.31,-2620.48"/>
<polygon fill="black" stroke="black" stroke-width="2.1" points="3905.14,-2613.06 3904.67,-2621.82 3903.79,-2616.87 3901.96,-2620.42 3901.47,-2620.17 3900.98,-2619.92 3902.82,-2616.36 3898.27,-2618.52 3905.14,-2613.06 3905.14,-2613.06"/>
</g>
<!-- Princeton University&#45;&gt;Princeton University -->
<g id="edge121" class="edge"><title>Princeton University&#45;&gt;Princeton University</title>
<path fill="none" stroke="black" stroke-width="4" d="M3815.36,-2918.92C3825.92,-2918.02 3833.18,-2915.94 3833.18,-2912.67 3833.18,-2910.32 3829.43,-2908.58 3823.4,-2907.46"/>
<polygon fill="black" stroke="black" stroke-width="4" points="3815.36,-2906.42 3823.87,-2902.98 3819.52,-2905.45 3823.48,-2905.96 3823.29,-2907.45 3823.1,-2908.94 3819.13,-2908.42 3822.72,-2911.91 3815.36,-2906.42 3815.36,-2906.42"/>
</g>
<!-- Princeton University&#45;&gt;California Institute Of Technology -->
<g id="edge75" class="edge"><title>Princeton University&#45;&gt;California Institute Of Technology</title>
<path fill="none" stroke="black" stroke-width="2.6" d="M3685.96,-2921.97C3320.75,-2974.48 1517.18,-3233.8 1048.86,-3301.13"/>
<polygon fill="black" stroke="black" stroke-width="2.6" points="1040.72,-3302.3 1048.13,-3297.6 1044.57,-3300.94 1048.53,-3300.37 1048.64,-3301.16 1048.75,-3301.96 1044.79,-3302.53 1049.15,-3304.73 1040.72,-3302.3 1040.72,-3302.3"/>
</g>
<!-- Princeton University&#45;&gt;Columbia University -->
<g id="edge23" class="edge"><title>Princeton University&#45;&gt;Columbia University</title>
<path fill="none" stroke="black" stroke-width="1.7" d="M3719.16,-2930.86C3526.45,-3042.13 2508.23,-3630 2296.83,-3752.05"/>
<polygon fill="black" stroke="black" stroke-width="1.7" points="2289.65,-3756.19 2294.78,-3749.08 2292.94,-3753.89 2296.4,-3751.89 2296.58,-3752.19 2296.75,-3752.5 2293.29,-3754.5 2298.38,-3755.31 2289.65,-3756.19 2289.65,-3756.19"/>
</g>
<!-- Princeton University&#45;&gt;University Of California, Berkeley -->
<g id="edge61" class="edge"><title>Princeton University&#45;&gt;University Of California, Berkeley</title>
<path fill="none" stroke="black" stroke-width="2.4" d="M3705.39,-2930.86C3449.83,-3040.99 2190.62,-3616.06 1943.46,-3735.55"/>
<polygon fill="black" stroke="black" stroke-width="2.4" points="1936.1,-3739.11 1941.73,-3732.38 1939.4,-3736.74 1942.99,-3734.99 1943.3,-3735.62 1943.61,-3736.25 1940.01,-3738 1944.87,-3738.86 1936.1,-3739.11 1936.1,-3739.11"/>
</g>
<!-- University Of Pennsylvania -->
<g id="node36" class="node"><title>University Of Pennsylvania</title>
<polygon fill="none" stroke="black" points="3343.06,-3445.74 3176.06,-3445.74 3176.06,-3409.74 3343.06,-3409.74 3343.06,-3445.74"/>
<text text-anchor="middle" x="3259.56" y="-3424.04" font-family="Times,serif" font-size="14.00">University Of Pennsylvania</text>
</g>
<!-- Princeton University&#45;&gt;University Of Pennsylvania -->
<g id="edge44" class="edge"><title>Princeton University&#45;&gt;University Of Pennsylvania</title>
<path fill="none" stroke="black" stroke-width="2.1" d="M3733.49,-2930.7C3659.38,-3008.42 3367.14,-3314.91 3282.59,-3403.59"/>
<polygon fill="black" stroke="black" stroke-width="2.1" points="3276.87,-3409.59 3279.78,-3401.31 3279.23,-3406.31 3281.99,-3403.42 3282.39,-3403.8 3282.79,-3404.18 3280.03,-3407.07 3284.99,-3406.28 3276.87,-3409.59 3276.87,-3409.59"/>
</g>
<!-- Princeton University&#45;&gt;Massachusetts Institute Of Technology -->
<g id="edge104" class="edge"><title>Princeton University&#45;&gt;Massachusetts Institute Of Technology</title>
<path fill="none" stroke="black" stroke-width="3.6" d="M3757.89,-2894.66C3794.68,-2802.75 3961.43,-2386.24 4004.83,-2277.83"/>
<polygon fill="black" stroke="black" stroke-width="3.6" points="4007.85,-2270.28 4008.64,-2279.21 4007.57,-2274.47 4006.09,-2278.19 4004.88,-2277.7 4003.67,-2277.22 4005.16,-2273.51 4001.12,-2276.2 4007.85,-2270.28 4007.85,-2270.28"/>
</g>
<!-- Princeton University&#45;&gt;The University Of North Carolina At Chapel Hill -->
<g id="edge81" class="edge"><title>Princeton University&#45;&gt;The University Of North Carolina At Chapel Hill</title>
<path fill="none" stroke="black" stroke-width="2.8" d="M3736.52,-2930.67C3698.26,-2979.33 3592.75,-3113.5 3549.05,-3169.06"/>
<polygon fill="black" stroke="black" stroke-width="2.8" points="3544.04,-3175.43 3546.15,-3166.92 3545.8,-3171.73 3548.28,-3168.59 3548.98,-3169.15 3549.69,-3169.7 3547.22,-3172.85 3551.81,-3171.37 3544.04,-3175.43 3544.04,-3175.43"/>
</g>
<!-- University Of Iowa&#45;&gt;Princeton University -->
<g id="edge95" class="edge"><title>University Of Iowa&#45;&gt;Princeton University</title>
<path fill="none" stroke="black" stroke-width="3.1" d="M426.105,-2434.67C840.512,-2494.25 3229.46,-2837.73 3678.07,-2902.23"/>
<polygon fill="black" stroke="black" stroke-width="3.1" points="3686.12,-2903.39 3677.68,-2905.81 3682.01,-2903.86 3678.05,-2903.29 3678.2,-2902.25 3678.35,-2901.21 3682.31,-2901.78 3678.71,-2898.69 3686.12,-2903.39 3686.12,-2903.39"/>
</g>
<!-- University Of Iowa&#45;&gt;University Of Iowa -->
<g id="edge16" class="edge"><title>University Of Iowa&#45;&gt;University Of Iowa</title>
<path fill="none" stroke="black" stroke-width="1.7" d="M426.091,-2432.16C436.559,-2431.3 443.812,-2429.2 443.812,-2425.86 443.812,-2423.46 440.065,-2421.7 434.071,-2420.58"/>
<polygon fill="black" stroke="black" stroke-width="1.7" points="426.091,-2419.55 434.483,-2417 430.103,-2419.72 434.071,-2420.22 434.026,-2420.57 433.982,-2420.92 430.014,-2420.41 433.569,-2424.14 426.091,-2419.55 426.091,-2419.55"/>
</g>
<!-- The George Washington University -->
<g id="node40" class="node"><title>The George Washington University</title>
<polygon fill="none" stroke="black" points="300.022,-2494 88.0222,-2494 88.0222,-2458 300.022,-2458 300.022,-2494"/>
<text text-anchor="middle" x="194.022" y="-2472.3" font-family="Times,serif" font-size="14.00">The George Washington University</text>
</g>
<!-- University Of Iowa&#45;&gt;The George Washington University -->
<g id="edge54" class="edge"><title>University Of Iowa&#45;&gt;The George Washington University</title>
<path fill="none" stroke="black" stroke-width="2.1" d="M303.635,-2443.82C290.513,-2447.67 276.56,-2451.77 263.16,-2455.7"/>
<polygon fill="black" stroke="black" stroke-width="2.1" points="255.346,-2458 262.007,-2452.29 259.029,-2456.34 262.867,-2455.22 263.022,-2455.74 263.177,-2456.27 259.339,-2457.4 264.036,-2459.2 255.346,-2458 255.346,-2458"/>
</g>
<!-- California Institute Of Technology&#45;&gt;University Of Michigan -->
<g id="edge31" class="edge"><title>California Institute Of Technology&#45;&gt;University Of Michigan</title>
<path fill="none" stroke="black" stroke-width="1.7" d="M951.824,-3299.04C1134.94,-3066.19 3027.89,-659.114 3240.22,-389.106"/>
<polygon fill="black" stroke="black" stroke-width="1.7" points="3245.2,-382.778 3243.08,-391.292 3243,-386.138 3240.53,-389.283 3240.25,-389.066 3239.98,-388.85 3242.45,-385.706 3237.42,-386.841 3245.2,-382.778 3245.2,-382.778"/>
</g>
<!-- California Institute Of Technology&#45;&gt;California Institute Of Technology -->
<g id="edge114" class="edge"><title>California Institute Of Technology&#45;&gt;California Institute Of Technology</title>
<path fill="none" stroke="black" stroke-width="3.8" d="M1040.87,-3322.72C1051.68,-3321.63 1058.6,-3319.77 1058.6,-3317.13 1058.6,-3315.23 1055.02,-3313.74 1049,-3312.64"/>
<polygon fill="black" stroke="black" stroke-width="3.8" points="1040.87,-3311.54 1049.37,-3308.38 1045.02,-3310.69 1048.99,-3311.23 1048.8,-3312.61 1048.61,-3314 1044.65,-3313.46 1048.22,-3316.85 1040.87,-3311.54 1040.87,-3311.54"/>
</g>
<!-- California Institute Of Technology&#45;&gt;University Of California, Los Angeles -->
<g id="edge18" class="edge"><title>California Institute Of Technology&#45;&gt;University Of California, Los Angeles</title>
<path fill="none" stroke="black" stroke-width="1.7" d="M920.253,-3298.94C876.73,-3253.29 762.892,-3133.9 713.895,-3082.52"/>
<polygon fill="black" stroke="black" stroke-width="1.7" points="708.25,-3076.6 716.376,-3079.9 711.264,-3079.25 714.024,-3082.14 713.771,-3082.39 713.517,-3082.63 710.757,-3079.73 711.165,-3084.87 708.25,-3076.6 708.25,-3076.6"/>
</g>
<!-- University Of Nebraska&#45;Lincoln -->
<g id="node41" class="node"><title>University Of Nebraska&#45;Lincoln</title>
<polygon fill="none" stroke="black" points="923.755,-3462.47 730.755,-3462.47 730.755,-3426.47 923.755,-3426.47 923.755,-3462.47"/>
<text text-anchor="middle" x="827.255" y="-3440.77" font-family="Times,serif" font-size="14.00">University Of Nebraska&#45;Lincoln</text>
</g>
<!-- California Institute Of Technology&#45;&gt;University Of Nebraska&#45;Lincoln -->
<g id="edge55" class="edge"><title>California Institute Of Technology&#45;&gt;University Of Nebraska&#45;Lincoln</title>
<path fill="none" stroke="black" stroke-width="2.4" d="M921.789,-3335.38C902.533,-3357.6 869.93,-3395.22 848.496,-3419.96"/>
<polygon fill="black" stroke="black" stroke-width="2.4" points="843.035,-3426.26 845.553,-3417.86 845.125,-3422.78 847.745,-3419.76 848.274,-3420.22 848.803,-3420.67 846.183,-3423.7 850.995,-3422.57 843.035,-3426.26 843.035,-3426.26"/>
</g>
<!-- Columbia University&#45;&gt;Harvard University -->
<g id="edge69" class="edge"><title>Columbia University&#45;&gt;Harvard University</title>
<path fill="none" stroke="black" stroke-width="2.4" d="M2245.75,-3756.14C2091.93,-3548.88 582.331,-1629.13 385.838,-1390.66"/>
<polygon fill="black" stroke="black" stroke-width="2.4" points="380.665,-1384.4 388.538,-1388.28 383.754,-1387.04 386.303,-1390.12 385.764,-1390.57 385.224,-1391.02 382.675,-1387.93 382.99,-1392.86 380.665,-1384.4 380.665,-1384.4"/>
</g>
<!-- Columbia University&#45;&gt;California Institute Of Technology -->
<g id="edge97" class="edge"><title>Columbia University&#45;&gt;California Institute Of Technology</title>
<path fill="none" stroke="black" stroke-width="3.2" d="M2206.19,-3756.19C1996.99,-3683.79 1219.67,-3414.76 997.35,-3337.81"/>
<polygon fill="black" stroke="black" stroke-width="3.2" points="989.677,-3335.15 998.414,-3334.37 993.817,-3335.42 997.597,-3336.73 997.237,-3337.77 996.877,-3338.81 993.097,-3337.5 996.059,-3341.17 989.677,-3335.15 989.677,-3335.15"/>
</g>
<!-- Columbia University&#45;&gt;Columbia University -->
<g id="edge120" class="edge"><title>Columbia University&#45;&gt;Columbia University</title>
<path fill="none" stroke="black" stroke-width="4" d="M2324.18,-3780.47C2334.68,-3779.56 2341.87,-3777.49 2341.87,-3774.25 2341.87,-3771.93 2338.16,-3770.2 2332.17,-3769.08"/>
<polygon fill="black" stroke="black" stroke-width="4" points="2324.18,-3768.04 2332.69,-3764.61 2328.34,-3767.07 2332.31,-3767.59 2332.11,-3769.07 2331.92,-3770.56 2327.95,-3770.04 2331.53,-3773.54 2324.18,-3768.04 2324.18,-3768.04"/>
</g>
<!-- University Of Cambridge -->
<g id="node26" class="node"><title>University Of Cambridge</title>
<polygon fill="none" stroke="black" points="4093.18,-1558.29 3937.18,-1558.29 3937.18,-1522.29 4093.18,-1522.29 4093.18,-1558.29"/>
<text text-anchor="middle" x="4015.18" y="-1536.59" font-family="Times,serif" font-size="14.00">University Of Cambridge</text>
</g>
<!-- University Of Cambridge&#45;&gt;Iowa State University -->
<g id="edge67" class="edge"><title>University Of Cambridge&#45;&gt;Iowa State University</title>
<path fill="none" stroke="black" stroke-width="2.4" d="M4007.97,-1522.27C3971.18,-1430.36 3804.43,-1013.86 3761.03,-905.444"/>
<polygon fill="black" stroke="black" stroke-width="2.4" points="3758.01,-897.893 3764.32,-903.982 3760.14,-901.347 3761.63,-905.06 3760.98,-905.32 3760.33,-905.581 3758.84,-901.867 3757.64,-906.658 3758.01,-897.893 3758.01,-897.893"/>
</g>
<!-- University Of Cambridge&#45;&gt;The University Of Chicago -->
<g id="edge25" class="edge"><title>University Of Cambridge&#45;&gt;The University Of Chicago</title>
<path fill="none" stroke="black" stroke-width="1.7" d="M3989.6,-1522.07C3768.26,-1364.45 2179.75,-233.282 1933.39,-57.8452"/>
<polygon fill="black" stroke="black" stroke-width="1.7" points="1926.82,-53.1698 1935.43,-54.8778 1930.28,-55.2049 1933.54,-57.5252 1933.34,-57.8103 1933.13,-58.0954 1929.88,-55.7751 1931.25,-60.7427 1926.82,-53.1698 1926.82,-53.1698"/>
</g>
<!-- University Of Cambridge&#45;&gt;Yale University -->
<g id="edge27" class="edge"><title>University Of Cambridge&#45;&gt;Yale University</title>
<path fill="none" stroke="black" stroke-width="1.7" d="M3997.95,-1522.21C3850.62,-1367.69 2804.19,-270.235 2635.21,-93.0109"/>
<polygon fill="black" stroke="black" stroke-width="1.7" points="2629.57,-87.0977 2637.7,-90.4033 2632.58,-89.7512 2635.34,-92.6461 2635.09,-92.8876 2634.84,-93.1292 2632.08,-90.2342 2632.49,-95.3719 2629.57,-87.0977 2629.57,-87.0977"/>
</g>
<!-- University Of Cambridge&#45;&gt;University Of Cambridge -->
<g id="edge128" class="edge"><title>University Of Cambridge&#45;&gt;University Of Cambridge</title>
<path fill="none" stroke="black" stroke-width="4.8" d="M4093.53,-1546.27C4104.13,-1545.27 4111.18,-1543.27 4111.18,-1540.29 4111.18,-1538.14 4107.54,-1536.5 4101.55,-1535.38"/>
<polygon fill="black" stroke="black" stroke-width="4.8" points="4093.53,-1534.3 4102.18,-1530.02 4097.75,-1532.95 4101.71,-1533.48 4101.46,-1535.37 4101.2,-1537.25 4097.24,-1536.72 4100.74,-1540.72 4093.53,-1534.3 4093.53,-1534.3"/>
</g>
<!-- University Of London -->
<g id="node27" class="node"><title>University Of London</title>
<polygon fill="none" stroke="black" points="4403.21,-1274.53 4266.21,-1274.53 4266.21,-1238.53 4403.21,-1238.53 4403.21,-1274.53"/>
<text text-anchor="middle" x="4334.71" y="-1252.83" font-family="Times,serif" font-size="14.00">University Of London</text>
</g>
<!-- University Of Cambridge&#45;&gt;University Of London -->
<g id="edge20" class="edge"><title>University Of Cambridge&#45;&gt;University Of London</title>
<path fill="none" stroke="black" stroke-width="1.7" d="M4035.66,-1522.1C4091.45,-1472.55 4246.16,-1335.17 4308.33,-1279.95"/>
<polygon fill="black" stroke="black" stroke-width="1.7" points="4314.4,-1274.56 4310.81,-1282.56 4311.65,-1277.48 4308.66,-1280.13 4308.42,-1279.87 4308.19,-1279.61 4311.18,-1276.95 4306.03,-1277.18 4314.4,-1274.56 4314.4,-1274.56"/>
</g>
<!-- University Of Oxford -->
<g id="node29" class="node"><title>University Of Oxford</title>
<polygon fill="none" stroke="black" points="4451.26,-1475.95 4317.26,-1475.95 4317.26,-1439.95 4451.26,-1439.95 4451.26,-1475.95"/>
<text text-anchor="middle" x="4384.26" y="-1454.25" font-family="Times,serif" font-size="14.00">University Of Oxford</text>
</g>
<!-- University Of Cambridge&#45;&gt;University Of Oxford -->
<g id="edge29" class="edge"><title>University Of Cambridge&#45;&gt;University Of Oxford</title>
<path fill="none" stroke="black" stroke-width="1.7" d="M4093.45,-1522.82C4157.17,-1508.61 4246.53,-1488.68 4309.33,-1474.67"/>
<polygon fill="black" stroke="black" stroke-width="1.7" points="4317.23,-1472.9 4310.21,-1478.16 4313.41,-1474.11 4309.5,-1474.99 4309.43,-1474.64 4309.35,-1474.3 4313.25,-1473.43 4308.64,-1471.13 4317.23,-1472.9 4317.23,-1472.9"/>
</g>
<!-- University Of Toronto -->
<g id="node32" class="node"><title>University Of Toronto</title>
<polygon fill="none" stroke="black" points="3983.97,-1215.31 3844.97,-1215.31 3844.97,-1179.31 3983.97,-1179.31 3983.97,-1215.31"/>
<text text-anchor="middle" x="3914.47" y="-1193.61" font-family="Times,serif" font-size="14.00">University Of Toronto</text>
</g>
<!-- University Of Cambridge&#45;&gt;University Of Toronto -->
<g id="edge60" class="edge"><title>University Of Cambridge&#45;&gt;University Of Toronto</title>
<path fill="none" stroke="black" stroke-width="2.4" d="M4009.77,-1521.85C3992.96,-1464.6 3941.64,-1289.81 3922.12,-1223.34"/>
<polygon fill="black" stroke="black" stroke-width="2.4" points="3919.79,-1215.42 3925.5,-1222.08 3921.59,-1219.06 3922.72,-1222.9 3922.05,-1223.1 3921.38,-1223.29 3920.25,-1219.46 3918.59,-1224.11 3919.79,-1215.42 3919.79,-1215.42"/>
</g>
<!-- University Of Manchester -->
<g id="node44" class="node"><title>University Of Manchester</title>
<polygon fill="none" stroke="black" points="4495.73,-1692.01 4336.73,-1692.01 4336.73,-1656.01 4495.73,-1656.01 4495.73,-1692.01"/>
<text text-anchor="middle" x="4416.23" y="-1670.31" font-family="Times,serif" font-size="14.00">University Of Manchester</text>
</g>
<!-- University Of Cambridge&#45;&gt;University Of Manchester -->
<g id="edge68" class="edge"><title>University Of Cambridge&#45;&gt;University Of Manchester</title>
<path fill="none" stroke="black" stroke-width="2.4" d="M4069.27,-1558.32C4143.37,-1583.03 4276.14,-1627.3 4354.19,-1653.33"/>
<polygon fill="black" stroke="black" stroke-width="2.4" points="4362.04,-1655.94 4353.31,-1656.83 4358.02,-1655.34 4354.23,-1654.08 4354.45,-1653.41 4354.67,-1652.75 4358.46,-1654.01 4355.59,-1650 4362.04,-1655.94 4362.04,-1655.94"/>
</g>
<!-- New York University -->
<g id="node28" class="node"><title>New York University</title>
<polygon fill="none" stroke="black" points="2679.19,-3741.38 2545.19,-3741.38 2545.19,-3705.38 2679.19,-3705.38 2679.19,-3741.38"/>
<text text-anchor="middle" x="2612.19" y="-3719.68" font-family="Times,serif" font-size="14.00">New York University</text>
</g>
<!-- New York University&#45;&gt;Columbia University -->
<g id="edge26" class="edge"><title>New York University&#45;&gt;Columbia University</title>
<path fill="none" stroke="black" stroke-width="1.7" d="M2544.81,-3733.07C2484.08,-3741.8 2394.95,-3754.62 2332.28,-3763.63"/>
<polygon fill="black" stroke="black" stroke-width="1.7" points="2324.01,-3764.82 2331.41,-3760.11 2327.92,-3763.9 2331.88,-3763.33 2331.93,-3763.68 2331.98,-3764.02 2328.02,-3764.59 2332.44,-3767.24 2324.01,-3764.82 2324.01,-3764.82"/>
</g>
<!-- University Of California, Berkeley&#45;&gt;University Of Illinois At Urbana&#45;Champaign -->
<g id="edge110" class="edge"><title>University Of California, Berkeley&#45;&gt;University Of Illinois At Urbana&#45;Champaign</title>
<path fill="none" stroke="black" stroke-width="3.8" d="M1826.79,-3739.17C1770.81,-3725.59 1694.17,-3706.99 1636.36,-3692.97"/>
<polygon fill="black" stroke="black" stroke-width="3.8" points="1628.33,-3691.02 1637.11,-3688.75 1632.55,-3690.6 1636.44,-3691.55 1636.11,-3692.91 1635.78,-3694.27 1631.89,-3693.32 1635.1,-3697.06 1628.33,-3691.02 1628.33,-3691.02"/>
</g>
<!-- University Of California, Berkeley&#45;&gt;Princeton University -->
<g id="edge52" class="edge"><title>University Of California, Berkeley&#45;&gt;Princeton University</title>
<path fill="none" stroke="black" stroke-width="2.1" d="M1946.6,-3739.05C2202.17,-3628.93 3461.37,-3053.86 3708.54,-2934.37"/>
<polygon fill="black" stroke="black" stroke-width="2.1" points="3715.89,-2930.8 3710.26,-2937.53 3712.53,-2933.04 3708.93,-2934.79 3708.69,-2934.29 3708.45,-2933.8 3712.05,-2932.05 3707.12,-2931.05 3715.89,-2930.8 3715.89,-2930.8"/>
</g>
<!-- University Of California, Berkeley&#45;&gt;Columbia University -->
<g id="edge35" class="edge"><title>University Of California, Berkeley&#45;&gt;Columbia University</title>
<path fill="none" stroke="black" stroke-width="1.7" d="M2004.59,-3762.16C2062.17,-3764.91 2132.52,-3768.26 2184.54,-3770.74"/>
<polygon fill="black" stroke="black" stroke-width="1.7" points="2192.73,-3771.13 2184.57,-3774.34 2188.72,-3771.29 2184.72,-3771.1 2184.74,-3770.75 2184.75,-3770.4 2188.75,-3770.59 2184.91,-3767.15 2192.73,-3771.13 2192.73,-3771.13"/>
</g>
<!-- University Of California, Berkeley&#45;&gt;University Of California, Berkeley -->
<g id="edge90" class="edge"><title>University Of California, Berkeley&#45;&gt;University Of California, Berkeley</title>
<path fill="none" stroke="black" stroke-width="2.9" d="M2004.59,-3762.84C2015.39,-3761.75 2022.32,-3759.88 2022.32,-3757.25 2022.32,-3755.35 2018.74,-3753.85 2012.72,-3752.76"/>
<polygon fill="black" stroke="black" stroke-width="2.9" points="2004.59,-3751.65 2013,-3749.16 2008.68,-3751.25 2012.64,-3751.79 2012.52,-3752.73 2012.39,-3753.67 2008.42,-3753.13 2012.03,-3756.3 2004.59,-3751.65 2004.59,-3751.65"/>
</g>
<!-- University Of Toronto&#45;&gt;University Of Michigan -->
<g id="edge57" class="edge"><title>University Of Toronto&#45;&gt;University Of Michigan</title>
<path fill="none" stroke="black" stroke-width="2.4" d="M3900.19,-1179.14C3815.28,-1071.17 3377.4,-514.358 3279.14,-389.418"/>
<polygon fill="black" stroke="black" stroke-width="2.4" points="3273.94,-382.801 3281.72,-386.864 3276.96,-385.512 3279.44,-388.656 3278.89,-389.089 3278.34,-389.522 3275.86,-386.378 3276.06,-391.314 3273.94,-382.801 3273.94,-382.801"/>
</g>
<!-- University Of Toronto&#45;&gt;University Of Wisconsin&#45;Madison -->
<g id="edge37" class="edge"><title>University Of Toronto&#45;&gt;University Of Wisconsin&#45;Madison</title>
<path fill="none" stroke="black" stroke-width="2.1" d="M3902.75,-1179.06C3847.15,-1092.55 3610.11,-723.701 3545.84,-623.698"/>
<polygon fill="black" stroke="black" stroke-width="2.1" points="3541.34,-616.704 3548.7,-621.488 3543.97,-619.771 3546.13,-623.137 3545.67,-623.434 3545.21,-623.731 3543.04,-620.366 3542.64,-625.38 3541.34,-616.704 3541.34,-616.704"/>
</g>
<!-- University Of Toronto&#45;&gt;University Of Toronto -->
<g id="edge76" class="edge"><title>University Of Toronto&#45;&gt;University Of Toronto</title>
<path fill="none" stroke="black" stroke-width="2.6" d="M3984.15,-1203.46C3994.76,-1202.52 4001.97,-1200.47 4001.97,-1197.31 4001.97,-1195.03 3998.25,-1193.33 3992.21,-1192.21"/>
<polygon fill="black" stroke="black" stroke-width="2.6" points="3984.15,-1191.15 3992.55,-1188.62 3988.22,-1190.88 3992.18,-1191.4 3992.08,-1192.19 3991.98,-1192.98 3988.01,-1192.46 3991.61,-1195.76 3984.15,-1191.15 3984.15,-1191.15"/>
</g>
<!-- University Of Edinburgh -->
<g id="node34" class="node"><title>University Of Edinburgh</title>
<polygon fill="none" stroke="black" points="3997.89,-2934.35 3845.89,-2934.35 3845.89,-2898.35 3997.89,-2898.35 3997.89,-2934.35"/>
<text text-anchor="middle" x="3921.89" y="-2912.65" font-family="Times,serif" font-size="14.00">University Of Edinburgh</text>
</g>
<!-- University Of Edinburgh&#45;&gt;Princeton University -->
<g id="edge41" class="edge"><title>University Of Edinburgh&#45;&gt;Princeton University</title>
<path fill="none" stroke="black" stroke-width="2.1" d="M3845.8,-2914.71C3838.32,-2914.55 3830.75,-2914.39 3823.31,-2914.23"/>
<polygon fill="black" stroke="black" stroke-width="2.1" points="3815.29,-2914.06 3823.37,-2910.63 3819.31,-2913.6 3823.3,-2913.68 3823.29,-2914.23 3823.28,-2914.78 3819.28,-2914.69 3823.22,-2917.83 3815.29,-2914.06 3815.29,-2914.06"/>
</g>
<!-- University Of Edinburgh&#45;&gt;University Of Edinburgh -->
<g id="edge119" class="edge"><title>University Of Edinburgh&#45;&gt;University Of Edinburgh</title>
<path fill="none" stroke="black" stroke-width="3.9" d="M3998.24,-2922.37C4008.82,-2921.38 4015.89,-2919.37 4015.89,-2916.35 4015.89,-2914.18 4012.24,-2912.53 4006.26,-2911.4"/>
<polygon fill="black" stroke="black" stroke-width="3.9" points="3998.24,-2910.33 4006.75,-2907.04 4002.4,-2909.42 4006.36,-2909.96 4006.17,-2911.39 4005.98,-2912.83 4002.01,-2912.3 4005.58,-2915.74 3998.24,-2910.33 3998.24,-2910.33"/>
</g>
<!-- University Of Pennsylvania&#45;&gt;University Of Michigan -->
<g id="edge78" class="edge"><title>University Of Pennsylvania&#45;&gt;University Of Michigan</title>
<path fill="none" stroke="black" stroke-width="2.8" d="M3259.56,-3409.36C3259.56,-3170.34 3259.56,-675.178 3259.56,-390.854"/>
<polygon fill="black" stroke="black" stroke-width="2.8" points="3259.56,-382.734 3263.16,-390.734 3260.46,-386.734 3260.46,-390.734 3259.56,-390.734 3258.66,-390.734 3258.66,-386.734 3255.96,-390.734 3259.56,-382.734 3259.56,-382.734"/>
</g>
<!-- University Of Pennsylvania&#45;&gt;The Johns Hopkins University -->
<g id="edge102" class="edge"><title>University Of Pennsylvania&#45;&gt;The Johns Hopkins University</title>
<path fill="none" stroke="black" stroke-width="3.3" d="M3175.85,-3431.73C2851.49,-3447.18 1678.22,-3503.07 1328.09,-3519.75"/>
<polygon fill="black" stroke="black" stroke-width="3.3" points="1319.97,-3520.13 1327.79,-3516.04 1323.91,-3518.79 1327.91,-3518.6 1327.96,-3519.75 1328.02,-3520.9 1324.02,-3521.09 1328.14,-3523.46 1319.97,-3520.13 1319.97,-3520.13"/>
</g>
<!-- University Of Pennsylvania&#45;&gt;New York University -->
<g id="edge62" class="edge"><title>University Of Pennsylvania&#45;&gt;New York University</title>
<path fill="none" stroke="black" stroke-width="2.4" d="M3220.04,-3445.79C3106.84,-3497.48 2781.69,-3645.98 2659.43,-3701.81"/>
<polygon fill="black" stroke="black" stroke-width="2.4" points="2652.02,-3705.19 2657.8,-3698.6 2655.37,-3702.9 2659.01,-3701.23 2659.3,-3701.87 2659.59,-3702.51 2655.95,-3704.17 2660.79,-3705.14 2652.02,-3705.19 2652.02,-3705.19"/>
</g>
<!-- University Of Pennsylvania&#45;&gt;University Of Pennsylvania -->
<g id="edge103" class="edge"><title>University Of Pennsylvania&#45;&gt;University Of Pennsylvania</title>
<path fill="none" stroke="black" stroke-width="3.3" d="M3343.18,-3433.65C3353.95,-3432.63 3361.06,-3430.66 3361.06,-3427.74 3361.06,-3425.64 3357.39,-3424.03 3351.32,-3422.91"/>
<polygon fill="black" stroke="black" stroke-width="3.3" points="3343.18,-3421.82 3351.6,-3419.21 3347.3,-3421.21 3351.26,-3421.74 3351.11,-3422.88 3350.96,-3424.02 3346.99,-3423.49 3350.62,-3426.56 3343.18,-3421.82 3343.18,-3421.82"/>
</g>
<!-- Duke University -->
<g id="node45" class="node"><title>Duke University</title>
<polygon fill="none" stroke="black" points="3003.49,-3624.47 2896.49,-3624.47 2896.49,-3588.47 3003.49,-3588.47 3003.49,-3624.47"/>
<text text-anchor="middle" x="2949.99" y="-3602.77" font-family="Times,serif" font-size="14.00">Duke University</text>
</g>
<!-- University Of Pennsylvania&#45;&gt;Duke University -->
<g id="edge88" class="edge"><title>University Of Pennsylvania&#45;&gt;Duke University</title>
<path fill="none" stroke="black" stroke-width="2.9" d="M3228.17,-3445.86C3171.16,-3478.78 3050.75,-3548.29 2988.73,-3584.1"/>
<polygon fill="black" stroke="black" stroke-width="2.9" points="2981.46,-3588.3 2986.59,-3581.18 2984.45,-3585.48 2987.91,-3583.48 2988.39,-3584.3 2988.86,-3585.12 2985.4,-3587.12 2990.19,-3587.42 2981.46,-3588.3 2981.46,-3588.3"/>
</g>
<!-- University Of Texas At Austin&#45;&gt;The University Of Chicago -->
<g id="edge86" class="edge"><title>University Of Texas At Austin&#45;&gt;The University Of Chicago</title>
<path fill="none" stroke="black" stroke-width="2.9" d="M526.588,-1016.49C708.451,-894.618 1691.75,-194.446 1872.7,-58.0104"/>
<polygon fill="black" stroke="black" stroke-width="2.9" points="1879.28,-53.0294 1875.08,-60.7285 1876.67,-56.2012 1873.48,-58.6157 1872.9,-57.8583 1872.33,-57.1009 1875.52,-54.6864 1870.73,-54.9881 1879.28,-53.0294 1879.28,-53.0294"/>
</g>
<!-- University Of Texas At Austin&#45;&gt;University Of Michigan -->
<g id="edge85" class="edge"><title>University Of Texas At Austin&#45;&gt;University Of Michigan</title>
<path fill="none" stroke="black" stroke-width="2.9" d="M571.897,-1016.54C961.686,-921.974 2769.48,-483.408 3177.56,-384.408"/>
<polygon fill="black" stroke="black" stroke-width="2.9" points="3185.5,-382.483 3178.57,-387.867 3181.83,-384.349 3177.95,-385.292 3177.72,-384.369 3177.5,-383.446 3181.39,-382.503 3176.87,-380.87 3185.5,-382.483 3185.5,-382.483"/>
</g>
<!-- University Of Texas At Austin&#45;&gt;The Johns Hopkins University -->
<g id="edge70" class="edge"><title>University Of Texas At Austin&#45;&gt;The Johns Hopkins University</title>
<path fill="none" stroke="black" stroke-width="2.6" d="M503.028,-1052.8C565.153,-1264.38 1147.58,-3247.95 1221.15,-3498.5"/>
<polygon fill="black" stroke="black" stroke-width="2.6" points="1223.46,-3506.37 1217.75,-3499.7 1221.56,-3502.75 1220.44,-3498.92 1221.2,-3498.69 1221.97,-3498.46 1223.1,-3502.3 1224.66,-3497.68 1223.46,-3506.37 1223.46,-3506.37"/>
</g>
<!-- University Of Texas At Austin&#45;&gt;University Of Virginia -->
<g id="edge94" class="edge"><title>University Of Texas At Austin&#45;&gt;University Of Virginia</title>
<path fill="none" stroke="black" stroke-width="3.1" d="M509.464,-1016.19C542.697,-964.474 637.117,-817.554 674.954,-758.679"/>
<polygon fill="black" stroke="black" stroke-width="3.1" points="679.28,-751.947 677.983,-760.624 678,-755.88 675.838,-759.245 674.954,-758.677 674.071,-758.11 676.234,-754.745 671.926,-756.731 679.28,-751.947 679.28,-751.947"/>
</g>
<!-- University Of Texas At Austin&#45;&gt;Duke University -->
<g id="edge77" class="edge"><title>University Of Texas At Austin&#45;&gt;Duke University</title>
<path fill="none" stroke="black" stroke-width="2.8" d="M514.971,-1052.69C720.445,-1268.19 2690.83,-3334.67 2926.9,-3582.25"/>
<polygon fill="black" stroke="black" stroke-width="2.8" points="2932.76,-3588.4 2924.64,-3585.09 2929.35,-3586.13 2926.59,-3583.23 2927.24,-3582.61 2927.89,-3581.99 2930.65,-3584.88 2929.85,-3580.13 2932.76,-3588.4 2932.76,-3588.4"/>
</g>
<!-- Massachusetts Institute Of Technology&#45;&gt;Stanford University -->
<g id="edge53" class="edge"><title>Massachusetts Institute Of Technology&#45;&gt;Stanford University</title>
<path fill="none" stroke="black" stroke-width="2.1" d="M4016.91,-2233.83C4022.5,-2175.29 4040.08,-1991.19 4046.65,-1922.4"/>
<polygon fill="black" stroke="black" stroke-width="2.1" points="4047.43,-1914.23 4050.26,-1922.53 4047.6,-1918.26 4047.22,-1922.24 4046.67,-1922.19 4046.13,-1922.14 4046.51,-1918.16 4043.09,-1921.85 4047.43,-1914.23 4047.43,-1914.23"/>
</g>
<!-- Massachusetts Institute Of Technology&#45;&gt;Massachusetts Institute Of Technology -->
<g id="edge127" class="edge"><title>Massachusetts Institute Of Technology&#45;&gt;Massachusetts Institute Of Technology</title>
<path fill="none" stroke="black" stroke-width="4.5" d="M4130.56,-2257.38C4141.36,-2256.27 4148.18,-2254.46 4148.18,-2251.97 4148.18,-2250.17 4144.66,-2248.74 4138.67,-2247.66"/>
<polygon fill="black" stroke="black" stroke-width="4.5" points="4130.56,-2246.56 4139.17,-2242.62 4134.76,-2245.36 4138.72,-2245.9 4138.49,-2247.63 4138.25,-2249.37 4134.29,-2248.83 4137.8,-2252.65 4130.56,-2246.56 4130.56,-2246.56"/>
</g>
<!-- University Of Glasgow -->
<g id="node42" class="node"><title>University Of Glasgow</title>
<polygon fill="none" stroke="black" points="3998.4,-3634.13 3855.4,-3634.13 3855.4,-3598.13 3998.4,-3598.13 3998.4,-3634.13"/>
<text text-anchor="middle" x="3926.9" y="-3612.43" font-family="Times,serif" font-size="14.00">University Of Glasgow</text>
</g>
<!-- North Carolina State University -->
<g id="node43" class="node"><title>North Carolina State University</title>
<polygon fill="none" stroke="black" points="4260.4,-3634.13 4070.4,-3634.13 4070.4,-3598.13 4260.4,-3598.13 4260.4,-3634.13"/>
<text text-anchor="middle" x="4165.4" y="-3612.43" font-family="Times,serif" font-size="14.00">North Carolina State University</text>
</g>
<!-- University Of Glasgow&#45;&gt;North Carolina State University -->
<g id="edge64" class="edge"><title>University Of Glasgow&#45;&gt;North Carolina State University</title>
<path fill="none" stroke="black" stroke-width="2.4" d="M3998.46,-3616.13C4018.42,-3616.13 4040.5,-3616.13 4061.9,-3616.13"/>
<polygon fill="black" stroke="black" stroke-width="2.4" points="4070.06,-3616.13 4062.06,-3619.73 4066.06,-3616.83 4062.06,-3616.83 4062.06,-3616.13 4062.06,-3615.43 4066.06,-3615.43 4062.06,-3612.53 4070.06,-3616.13 4070.06,-3616.13"/>
</g>
<!-- University Of Kansas -->
<g id="node49" class="node"><title>University Of Kansas</title>
<polygon fill="none" stroke="black" points="1479.04,-3786.17 1345.04,-3786.17 1345.04,-3750.17 1479.04,-3750.17 1479.04,-3786.17"/>
<text text-anchor="middle" x="1412.04" y="-3764.47" font-family="Times,serif" font-size="14.00">University Of Kansas</text>
</g>
<!-- University Of Kansas&#45;&gt;University Of Illinois At Urbana&#45;Champaign -->
<g id="edge98" class="edge"><title>University Of Kansas&#45;&gt;University Of Illinois At Urbana&#45;Champaign</title>
<path fill="none" stroke="black" stroke-width="3.2" d="M1439.06,-3750.04C1462.14,-3734.56 1495.44,-3712.21 1520.25,-3695.57"/>
<polygon fill="black" stroke="black" stroke-width="3.2" points="1527.01,-3691.03 1522.37,-3698.48 1524.3,-3694.18 1520.98,-3696.4 1520.37,-3695.49 1519.75,-3694.58 1523.08,-3692.35 1518.36,-3692.5 1527.01,-3691.03 1527.01,-3691.03"/>
</g>
<!-- Clark University -->
<g id="node51" class="node"><title>Clark University</title>
<polygon fill="none" stroke="black" points="3865.56,-3103.19 3758.56,-3103.19 3758.56,-3067.19 3865.56,-3067.19 3865.56,-3103.19"/>
<text text-anchor="middle" x="3812.06" y="-3081.49" font-family="Times,serif" font-size="14.00">Clark University</text>
</g>
<!-- Clark University&#45;&gt;Princeton University -->
<g id="edge112" class="edge"><title>Clark University&#45;&gt;Princeton University</title>
<path fill="none" stroke="black" stroke-width="3.8" d="M3805.61,-3067.05C3794.69,-3036.38 3772.55,-2974.15 3759.97,-2938.78"/>
<polygon fill="black" stroke="black" stroke-width="3.8" points="3757.14,-2930.82 3763.85,-2936.93 3759.8,-2934.12 3761.14,-2937.89 3759.82,-2938.36 3758.5,-2938.83 3757.16,-2935.06 3755.79,-2939.79 3757.14,-2930.82 3757.14,-2930.82"/>
</g>
</g>
</svg>
