<?xml version="1.0" encoding="UTF-8" standalone="no"?>
<!DOCTYPE svg PUBLIC "-//W3C//DTD SVG 1.1//EN"
 "http://www.w3.org/Graphics/SVG/1.1/DTD/svg11.dtd">
<!-- Generated by graphviz version 2.38.0 (20140413.2041)
 -->
<!-- Title: transition Pages: 1 -->
<svg width="2880pt" height="2338pt"
 viewBox="0.00 0.00 2880.14 2338.05" xmlns="http://www.w3.org/2000/svg" xmlns:xlink="http://www.w3.org/1999/xlink">
<g id="graph0" class="graph" transform="scale(1 1) rotate(0) translate(4 2334.05)">
<title>transition</title>
<polygon fill="white" stroke="none" points="-4,4 -4,-2334.05 2876.14,-2334.05 2876.14,4 -4,4"/>
<text text-anchor="middle" x="1436.07" y="-2314.85" font-family="Times,serif" font-size="14.00">US, Canada, UK (with threshold 1.50)</text>
<!-- University Of Texas At Austin -->
<g id="node1" class="node"><title>University Of Texas At Austin</title>
<polygon fill="none" stroke="black" points="1028.6,-1928.05 843.598,-1928.05 843.598,-1892.05 1028.6,-1892.05 1028.6,-1928.05"/>
<text text-anchor="middle" x="936.098" y="-1906.35" font-family="Times,serif" font-size="14.00">University Of Texas At Austin</text>
</g>
<!-- University Of Michigan -->
<g id="node2" class="node"><title>University Of Michigan</title>
<polygon fill="none" stroke="black" points="805.884,-1665.67 657.884,-1665.67 657.884,-1629.67 805.884,-1629.67 805.884,-1665.67"/>
<text text-anchor="middle" x="731.884" y="-1643.97" font-family="Times,serif" font-size="14.00">University Of Michigan</text>
</g>
<!-- University Of Texas At Austin&#45;&gt;University Of Michigan -->
<g id="edge1" class="edge"><title>University Of Texas At Austin&#45;&gt;University Of Michigan</title>
<path fill="none" stroke="black" stroke-width="1.7" d="M922.062,-1892.01C886.285,-1846.05 791.641,-1724.45 750.937,-1672.15"/>
<polygon fill="black" stroke="black" stroke-width="1.7" points="746.019,-1665.84 753.774,-1669.94 748.752,-1668.78 751.209,-1671.93 750.933,-1672.15 750.657,-1672.36 748.2,-1669.21 748.092,-1674.36 746.019,-1665.84 746.019,-1665.84"/>
</g>
<!-- University Of Michigan&#45;&gt;University Of Michigan -->
<g id="edge49" class="edge"><title>University Of Michigan&#45;&gt;University Of Michigan</title>
<path fill="none" stroke="black" stroke-width="3.2" d="M806.245,-1653.73C816.801,-1652.75 823.884,-1650.73 823.884,-1647.67 823.884,-1645.48 820.225,-1643.82 814.247,-1642.69"/>
<polygon fill="black" stroke="black" stroke-width="3.2" points="806.245,-1641.62 814.652,-1639.11 810.355,-1641.06 814.32,-1641.59 814.174,-1642.68 814.027,-1643.77 810.063,-1643.24 813.695,-1646.25 806.245,-1641.62 806.245,-1641.62"/>
</g>
<!-- The Johns Hopkins University -->
<g id="node10" class="node"><title>The Johns Hopkins University</title>
<polygon fill="none" stroke="black" points="714.928,-1018.73 532.928,-1018.73 532.928,-982.729 714.928,-982.729 714.928,-1018.73"/>
<text text-anchor="middle" x="623.928" y="-997.029" font-family="Times,serif" font-size="14.00">The Johns Hopkins University</text>
</g>
<!-- University Of Michigan&#45;&gt;The Johns Hopkins University -->
<g id="edge46" class="edge"><title>University Of Michigan&#45;&gt;The Johns Hopkins University</title>
<path fill="none" stroke="black" stroke-width="2.9" d="M728.827,-1629.36C713.627,-1538.26 646.199,-1134.19 628.302,-1026.94"/>
<polygon fill="black" stroke="black" stroke-width="2.9" points="626.959,-1018.89 631.826,-1026.19 628.554,-1022.68 629.213,-1026.62 628.276,-1026.78 627.338,-1026.94 626.68,-1022.99 624.725,-1027.37 626.959,-1018.89 626.959,-1018.89"/>
</g>
<!-- University Of Illinois At Urbana&#45;Champaign -->
<g id="node3" class="node"><title>University Of Illinois At Urbana&#45;Champaign</title>
<polygon fill="none" stroke="black" points="1667.75,-178.422 1405.75,-178.422 1405.75,-142.422 1667.75,-142.422 1667.75,-178.422"/>
<text text-anchor="middle" x="1536.75" y="-156.722" font-family="Times,serif" font-size="14.00">University Of Illinois At Urbana&#45;Champaign</text>
</g>
<!-- University Of Kansas -->
<g id="node4" class="node"><title>University Of Kansas</title>
<polygon fill="none" stroke="black" points="1499.01,-51.4801 1365.01,-51.4801 1365.01,-15.4801 1499.01,-15.4801 1499.01,-51.4801"/>
<text text-anchor="middle" x="1432.01" y="-29.7801" font-family="Times,serif" font-size="14.00">University Of Kansas</text>
</g>
<!-- University Of Illinois At Urbana&#45;Champaign&#45;&gt;University Of Kansas -->
<g id="edge2" class="edge"><title>University Of Illinois At Urbana&#45;Champaign&#45;&gt;University Of Kansas</title>
<path fill="none" stroke="black" stroke-width="1.7" d="M1527.65,-142.192C1512.48,-119.968 1482.08,-82.5311 1459.53,-57.8659"/>
<polygon fill="black" stroke="black" stroke-width="1.7" points="1453.98,-51.8872 1462.06,-55.3019 1456.96,-54.581 1459.68,-57.5128 1459.43,-57.7509 1459.17,-57.989 1456.45,-55.0572 1456.79,-60.1999 1453.98,-51.8872 1453.98,-51.8872"/>
</g>
<!-- University Of Kansas&#45;&gt;University Of Illinois At Urbana&#45;Champaign -->
<g id="edge28" class="edge"><title>University Of Kansas&#45;&gt;University Of Illinois At Urbana&#45;Champaign</title>
<path fill="none" stroke="black" stroke-width="2.4" d="M1441.11,-51.7099C1456.28,-73.9343 1486.68,-111.371 1509.22,-136.036"/>
<polygon fill="black" stroke="black" stroke-width="2.4" points="1514.77,-142.015 1506.69,-138.6 1511.54,-139.559 1508.82,-136.627 1509.33,-136.151 1509.84,-135.675 1512.56,-138.607 1511.97,-133.702 1514.77,-142.015 1514.77,-142.015"/>
</g>
<!-- University Of Oxford -->
<g id="node5" class="node"><title>University Of Oxford</title>
<polygon fill="none" stroke="black" points="2825.8,-1395.79 2691.8,-1395.79 2691.8,-1359.79 2825.8,-1359.79 2825.8,-1395.79"/>
<text text-anchor="middle" x="2758.8" y="-1374.09" font-family="Times,serif" font-size="14.00">University Of Oxford</text>
</g>
<!-- University Of Oxford&#45;&gt;University Of Oxford -->
<g id="edge25" class="edge"><title>University Of Oxford&#45;&gt;University Of Oxford</title>
<path fill="none" stroke="black" stroke-width="2.1" d="M2826.13,-1383.97C2836.64,-1383.05 2843.8,-1380.99 2843.8,-1377.79 2843.8,-1375.49 2840.1,-1373.78 2834.12,-1372.65"/>
<polygon fill="black" stroke="black" stroke-width="2.1" points="2826.13,-1371.6 2834.53,-1369.08 2830.17,-1371.58 2834.14,-1372.1 2834.06,-1372.64 2833.99,-1373.19 2830.03,-1372.67 2833.6,-1376.21 2826.13,-1371.6 2826.13,-1371.6"/>
</g>
<!-- University Of Cambridge -->
<g id="node6" class="node"><title>University Of Cambridge</title>
<polygon fill="none" stroke="black" points="2708.15,-1184.97 2552.15,-1184.97 2552.15,-1148.97 2708.15,-1148.97 2708.15,-1184.97"/>
<text text-anchor="middle" x="2630.15" y="-1163.27" font-family="Times,serif" font-size="14.00">University Of Cambridge</text>
</g>
<!-- University Of Oxford&#45;&gt;University Of Cambridge -->
<g id="edge3" class="edge"><title>University Of Oxford&#45;&gt;University Of Cambridge</title>
<path fill="none" stroke="black" stroke-width="1.7" d="M2752.17,-1359.61C2733.28,-1321.75 2680.48,-1234.66 2650.77,-1191.73"/>
<polygon fill="black" stroke="black" stroke-width="1.7" points="2646.04,-1184.99 2653.58,-1189.47 2648.62,-1188.06 2650.92,-1191.33 2650.64,-1191.53 2650.35,-1191.74 2648.05,-1188.46 2647.69,-1193.6 2646.04,-1184.99 2646.04,-1184.99"/>
</g>
<!-- University Of Cambridge&#45;&gt;University Of Oxford -->
<g id="edge33" class="edge"><title>University Of Cambridge&#45;&gt;University Of Oxford</title>
<path fill="none" stroke="black" stroke-width="2.4" d="M2636.78,-1185.15C2655.67,-1223 2708.47,-1310.1 2738.17,-1353.03"/>
<polygon fill="black" stroke="black" stroke-width="2.4" points="2742.91,-1359.77 2735.36,-1355.29 2740.03,-1356.9 2737.74,-1353.62 2738.31,-1353.22 2738.88,-1352.82 2741.18,-1356.09 2741.25,-1351.15 2742.91,-1359.77 2742.91,-1359.77"/>
</g>
<!-- University Of Cambridge&#45;&gt;University Of Cambridge -->
<g id="edge60" class="edge"><title>University Of Cambridge&#45;&gt;University Of Cambridge</title>
<path fill="none" stroke="black" stroke-width="5" d="M2708.49,-1172.96C2719.09,-1171.95 2726.15,-1169.96 2726.15,-1166.97 2726.15,-1164.82 2722.5,-1163.19 2716.52,-1162.06"/>
<polygon fill="black" stroke="black" stroke-width="5" points="2708.49,-1160.98 2717.18,-1156.48 2712.73,-1159.53 2716.69,-1160.07 2716.42,-1162.05 2716.16,-1164.03 2712.19,-1163.5 2715.67,-1167.63 2708.49,-1160.98 2708.49,-1160.98"/>
</g>
<!-- University Of Cambridge&#45;&gt;The Johns Hopkins University -->
<g id="edge59" class="edge"><title>University Of Cambridge&#45;&gt;The Johns Hopkins University</title>
<path fill="none" stroke="black" stroke-width="4.9" d="M2552.12,-1160.5C2238.77,-1134.54 1072.05,-1037.86 723.12,-1008.95"/>
<polygon fill="black" stroke="black" stroke-width="4.9" points="715.03,-1008.28 723.458,-1003.45 719.177,-1006.67 723.164,-1007 723.003,-1008.94 722.842,-1010.88 718.855,-1010.55 722.547,-1014.43 715.03,-1008.28 715.03,-1008.28"/>
</g>
<!-- University Of Leeds -->
<g id="node14" class="node"><title>University Of Leeds</title>
<polygon fill="none" stroke="black" points="2822.25,-971.202 2694.25,-971.202 2694.25,-935.202 2822.25,-935.202 2822.25,-971.202"/>
<text text-anchor="middle" x="2758.25" y="-949.502" font-family="Times,serif" font-size="14.00">University Of Leeds</text>
</g>
<!-- University Of Cambridge&#45;&gt;University Of Leeds -->
<g id="edge9" class="edge"><title>University Of Cambridge&#45;&gt;University Of Leeds</title>
<path fill="none" stroke="black" stroke-width="1.7" d="M2641.07,-1148.74C2663.95,-1110.57 2716.94,-1022.13 2743.09,-978.487"/>
<polygon fill="black" stroke="black" stroke-width="1.7" points="2747.35,-971.382 2746.33,-980.095 2745.6,-974.993 2743.54,-978.424 2743.24,-978.244 2742.94,-978.064 2745,-974.633 2740.15,-976.394 2747.35,-971.382 2747.35,-971.382"/>
</g>
<!-- Yale University -->
<g id="node19" class="node"><title>Yale University</title>
<polygon fill="none" stroke="black" points="2626.92,-1512.91 2523.92,-1512.91 2523.92,-1476.91 2626.92,-1476.91 2626.92,-1512.91"/>
<text text-anchor="middle" x="2575.42" y="-1491.21" font-family="Times,serif" font-size="14.00">Yale University</text>
</g>
<!-- University Of Cambridge&#45;&gt;Yale University -->
<g id="edge42" class="edge"><title>University Of Cambridge&#45;&gt;Yale University</title>
<path fill="none" stroke="black" stroke-width="2.8" d="M2627.13,-1185.07C2617.97,-1239.94 2590.49,-1404.61 2579.77,-1468.85"/>
<polygon fill="black" stroke="black" stroke-width="2.8" points="2578.43,-1476.87 2576.2,-1468.39 2578.2,-1472.78 2578.86,-1468.83 2579.75,-1468.98 2580.64,-1469.13 2579.98,-1473.07 2583.3,-1469.57 2578.43,-1476.87 2578.43,-1476.87"/>
</g>
<!-- Bryn Mawr College -->
<g id="node21" class="node"><title>Bryn Mawr College</title>
<polygon fill="none" stroke="black" points="2638.42,-857.024 2512.42,-857.024 2512.42,-821.024 2638.42,-821.024 2638.42,-857.024"/>
<text text-anchor="middle" x="2575.42" y="-835.324" font-family="Times,serif" font-size="14.00">Bryn Mawr College</text>
</g>
<!-- University Of Cambridge&#45;&gt;Bryn Mawr College -->
<g id="edge45" class="edge"><title>University Of Cambridge&#45;&gt;Bryn Mawr College</title>
<path fill="none" stroke="black" stroke-width="2.9" d="M2627.13,-1148.87C2617.97,-1094 2590.49,-929.333 2579.77,-865.093"/>
<polygon fill="black" stroke="black" stroke-width="2.9" points="2578.43,-857.067 2583.3,-864.365 2580.03,-860.856 2580.69,-864.801 2579.75,-864.958 2578.81,-865.114 2578.16,-861.169 2576.2,-865.55 2578.43,-857.067 2578.43,-857.067"/>
</g>
<!-- University Of Edinburgh -->
<g id="node24" class="node"><title>University Of Edinburgh</title>
<polygon fill="none" stroke="black" points="2854.14,-1181.97 2702.14,-1181.97 2702.14,-1145.97 2854.14,-1145.97 2854.14,-1181.97"/>
<text text-anchor="middle" x="2778.14" y="-1160.27" font-family="Times,serif" font-size="14.00">University Of Edinburgh</text>
</g>
<!-- University Of Cambridge&#45;&gt;University Of Edinburgh -->
<g id="edge19" class="edge"><title>University Of Cambridge&#45;&gt;University Of Edinburgh</title>
<path fill="none" stroke="black" stroke-width="2.1" d="M2708.48,-1165.38C2708.55,-1165.38 2708.62,-1165.38 2708.69,-1165.38"/>
<polygon fill="black" stroke="black" stroke-width="2.1" points="2708.9,-1165.37 2700.97,-1169.14 2704.91,-1166.01 2700.91,-1166.09 2700.9,-1165.54 2700.89,-1164.99 2704.88,-1164.91 2700.82,-1161.94 2708.9,-1165.37 2708.9,-1165.37"/>
</g>
<!-- Harvard University -->
<g id="node7" class="node"><title>Harvard University</title>
<polygon fill="none" stroke="black" points="792.884,-704.264 670.884,-704.264 670.884,-668.264 792.884,-668.264 792.884,-704.264"/>
<text text-anchor="middle" x="731.884" y="-682.564" font-family="Times,serif" font-size="14.00">Harvard University</text>
</g>
<!-- Harvard University&#45;&gt;University Of Texas At Austin -->
<g id="edge32" class="edge"><title>Harvard University&#45;&gt;University Of Texas At Austin</title>
<path fill="none" stroke="black" stroke-width="2.4" d="M734.93,-704.513C757.937,-842.388 904.276,-1719.35 931.68,-1883.57"/>
<polygon fill="black" stroke="black" stroke-width="2.4" points="933.035,-1891.69 928.167,-1884.4 931.686,-1887.86 931.028,-1883.92 931.718,-1883.8 932.409,-1883.69 933.067,-1887.63 935.269,-1883.21 933.035,-1891.69 933.035,-1891.69"/>
</g>
<!-- Harvard University&#45;&gt;University Of Michigan -->
<g id="edge43" class="edge"><title>Harvard University&#45;&gt;University Of Michigan</title>
<path fill="none" stroke="black" stroke-width="2.9" d="M731.884,-704.611C731.884,-823.23 731.884,-1481.24 731.884,-1621.41"/>
<polygon fill="black" stroke="black" stroke-width="2.9" points="731.884,-1629.52 728.285,-1621.52 730.935,-1625.52 730.935,-1621.52 731.885,-1621.52 732.835,-1621.52 732.835,-1625.52 735.485,-1621.52 731.884,-1629.52 731.884,-1629.52"/>
</g>
<!-- Harvard University&#45;&gt;Harvard University -->
<g id="edge54" class="edge"><title>Harvard University&#45;&gt;Harvard University</title>
<path fill="none" stroke="black" stroke-width="3.9" d="M793.163,-692.565C803.632,-691.704 810.884,-689.604 810.884,-686.264 810.884,-683.863 807.138,-682.103 801.143,-680.983"/>
<polygon fill="black" stroke="black" stroke-width="3.9" points="793.163,-679.962 801.655,-676.625 797.315,-679.032 801.283,-679.539 801.099,-680.977 800.915,-682.416 796.947,-681.908 800.542,-685.33 793.163,-679.962 793.163,-679.962"/>
</g>
<!-- Columbia University -->
<g id="node8" class="node"><title>Columbia University</title>
<polygon fill="none" stroke="black" points="1279.94,-2109.9 1148.94,-2109.9 1148.94,-2073.9 1279.94,-2073.9 1279.94,-2109.9"/>
<text text-anchor="middle" x="1214.44" y="-2088.2" font-family="Times,serif" font-size="14.00">Columbia University</text>
</g>
<!-- Harvard University&#45;&gt;Columbia University -->
<g id="edge4" class="edge"><title>Harvard University&#45;&gt;Columbia University</title>
<path fill="none" stroke="black" stroke-width="1.7" d="M738.074,-704.292C789.434,-853.9 1144.62,-1888.53 1205.55,-2066.02"/>
<polygon fill="black" stroke="black" stroke-width="1.7" points="1208.15,-2073.59 1202.15,-2067.19 1206.52,-2069.92 1205.22,-2066.13 1205.55,-2066.02 1205.89,-2065.91 1207.18,-2069.69 1208.96,-2064.85 1208.15,-2073.59 1208.15,-2073.59"/>
</g>
<!-- Princeton University -->
<g id="node12" class="node"><title>Princeton University</title>
<polygon fill="none" stroke="black" points="1278.94,-260.041 1149.94,-260.041 1149.94,-224.041 1278.94,-224.041 1278.94,-260.041"/>
<text text-anchor="middle" x="1214.44" y="-238.341" font-family="Times,serif" font-size="14.00">Princeton University</text>
</g>
<!-- Harvard University&#45;&gt;Princeton University -->
<g id="edge8" class="edge"><title>Harvard University&#45;&gt;Princeton University</title>
<path fill="none" stroke="black" stroke-width="1.7" d="M751.701,-668.022C828.004,-597.78 1102.81,-344.8 1188.64,-265.789"/>
<polygon fill="black" stroke="black" stroke-width="1.7" points="1194.72,-260.19 1191.28,-268.257 1192.02,-263.157 1189.08,-265.866 1188.84,-265.608 1188.6,-265.351 1191.54,-262.642 1186.4,-262.96 1194.72,-260.19 1194.72,-260.19"/>
</g>
<!-- Massachusetts Institute Of Technology -->
<g id="node13" class="node"><title>Massachusetts Institute Of Technology</title>
<polygon fill="none" stroke="black" points="1051.1,-441.89 821.098,-441.89 821.098,-405.89 1051.1,-405.89 1051.1,-441.89"/>
<text text-anchor="middle" x="936.098" y="-420.19" font-family="Times,serif" font-size="14.00">Massachusetts Institute Of Technology</text>
</g>
<!-- Harvard University&#45;&gt;Massachusetts Institute Of Technology -->
<g id="edge22" class="edge"><title>Harvard University&#45;&gt;Massachusetts Institute Of Technology</title>
<path fill="none" stroke="black" stroke-width="2.1" d="M745.921,-668.23C781.697,-622.264 876.341,-500.666 917.045,-448.369"/>
<polygon fill="black" stroke="black" stroke-width="2.1" points="921.963,-442.05 919.891,-450.575 919.941,-445.545 917.484,-448.701 917.05,-448.364 916.616,-448.026 919.072,-444.869 914.209,-446.152 921.963,-442.05 921.963,-442.05"/>
</g>
<!-- Cornell University -->
<g id="node16" class="node"><title>Cornell University</title>
<polygon fill="none" stroke="black" points="2231.57,-339.434 2113.57,-339.434 2113.57,-303.434 2231.57,-303.434 2231.57,-339.434"/>
<text text-anchor="middle" x="2172.57" y="-317.734" font-family="Times,serif" font-size="14.00">Cornell University</text>
</g>
<!-- Harvard University&#45;&gt;Cornell University -->
<g id="edge11" class="edge"><title>Harvard University&#45;&gt;Cornell University</title>
<path fill="none" stroke="black" stroke-width="1.7" d="M793.328,-670.704C1027.25,-611.466 1861.3,-400.257 2105.15,-338.506"/>
<polygon fill="black" stroke="black" stroke-width="1.7" points="2113.23,-336.46 2106.36,-341.914 2109.44,-337.781 2105.56,-338.763 2105.47,-338.424 2105.39,-338.085 2109.26,-337.103 2104.59,-334.934 2113.23,-336.46 2113.23,-336.46"/>
</g>
<!-- Rice University -->
<g id="node27" class="node"><title>Rice University</title>
<polygon fill="none" stroke="black" points="405.851,-500.223 303.851,-500.223 303.851,-464.223 405.851,-464.223 405.851,-500.223"/>
<text text-anchor="middle" x="354.851" y="-478.523" font-family="Times,serif" font-size="14.00">Rice University</text>
</g>
<!-- Harvard University&#45;&gt;Rice University -->
<g id="edge24" class="edge"><title>Harvard University&#45;&gt;Rice University</title>
<path fill="none" stroke="black" stroke-width="2.1" d="M698.425,-668.157C629.252,-630.722 470.712,-544.924 395.665,-504.311"/>
<polygon fill="black" stroke="black" stroke-width="2.1" points="388.235,-500.29 396.984,-500.931 392.015,-501.71 395.532,-503.614 395.271,-504.098 395.009,-504.581 391.491,-502.677 393.557,-507.264 388.235,-500.29 388.235,-500.29"/>
</g>
<!-- Columbia University&#45;&gt;Columbia University -->
<g id="edge48" class="edge"><title>Columbia University&#45;&gt;Columbia University</title>
<path fill="none" stroke="black" stroke-width="3.1" d="M1280.25,-2098.11C1290.75,-2097.2 1297.94,-2095.13 1297.94,-2091.9 1297.94,-2089.57 1294.23,-2087.85 1288.24,-2086.73"/>
<polygon fill="black" stroke="black" stroke-width="3.1" points="1280.25,-2085.68 1288.65,-2083.15 1284.35,-2085.16 1288.32,-2085.68 1288.18,-2086.72 1288.04,-2087.76 1284.08,-2087.24 1287.71,-2090.29 1280.25,-2085.68 1280.25,-2085.68"/>
</g>
<!-- The University Of Chicago -->
<g id="node15" class="node"><title>The University Of Chicago</title>
<polygon fill="none" stroke="black" points="2255.07,-2030.51 2090.07,-2030.51 2090.07,-1994.51 2255.07,-1994.51 2255.07,-2030.51"/>
<text text-anchor="middle" x="2172.57" y="-2008.81" font-family="Times,serif" font-size="14.00">The University Of Chicago</text>
</g>
<!-- Columbia University&#45;&gt;The University Of Chicago -->
<g id="edge10" class="edge"><title>Columbia University&#45;&gt;The University Of Chicago</title>
<path fill="none" stroke="black" stroke-width="1.7" d="M1280.3,-2086.44C1447.75,-2072.57 1890.06,-2035.91 2081.79,-2020.03"/>
<polygon fill="black" stroke="black" stroke-width="1.7" points="2089.89,-2019.36 2082.22,-2023.6 2085.94,-2020.03 2081.95,-2020.37 2081.92,-2020.02 2081.89,-2019.67 2085.88,-2019.34 2081.62,-2016.43 2089.89,-2019.36 2089.89,-2019.36"/>
</g>
<!-- California Institute Of Technology -->
<g id="node30" class="node"><title>California Institute Of Technology</title>
<polygon fill="none" stroke="black" points="1339.36,-2306.09 1133.36,-2306.09 1133.36,-2270.09 1339.36,-2270.09 1339.36,-2306.09"/>
<text text-anchor="middle" x="1236.36" y="-2284.39" font-family="Times,serif" font-size="14.00">California Institute Of Technology</text>
</g>
<!-- Columbia University&#45;&gt;California Institute Of Technology -->
<g id="edge38" class="edge"><title>Columbia University&#45;&gt;California Institute Of Technology</title>
<path fill="none" stroke="black" stroke-width="2.6" d="M1216.46,-2110C1220.36,-2144.9 1228.93,-2221.57 1233.44,-2261.99"/>
<polygon fill="black" stroke="black" stroke-width="2.6" points="1234.34,-2270.03 1229.87,-2262.48 1233.1,-2266.15 1232.66,-2262.17 1233.45,-2262.08 1234.25,-2261.99 1234.69,-2265.97 1237.03,-2261.68 1234.34,-2270.03 1234.34,-2270.03"/>
</g>
<!-- Syracuse University -->
<g id="node9" class="node"><title>Syracuse University</title>
<polygon fill="none" stroke="black" points="1083.41,-2206.99 957.413,-2206.99 957.413,-2170.99 1083.41,-2170.99 1083.41,-2206.99"/>
<text text-anchor="middle" x="1020.41" y="-2185.29" font-family="Times,serif" font-size="14.00">Syracuse University</text>
</g>
<!-- Syracuse University&#45;&gt;Columbia University -->
<g id="edge5" class="edge"><title>Syracuse University&#45;&gt;Columbia University</title>
<path fill="none" stroke="black" stroke-width="1.7" d="M1056.45,-2170.96C1088.75,-2154.8 1136.21,-2131.04 1170.68,-2113.8"/>
<polygon fill="black" stroke="black" stroke-width="1.7" points="1178.26,-2110 1172.72,-2116.8 1174.84,-2112.1 1171.27,-2113.89 1171.11,-2113.58 1170.95,-2113.27 1174.53,-2111.48 1169.5,-2110.36 1178.26,-2110 1178.26,-2110"/>
</g>
<!-- The Johns Hopkins University&#45;&gt;University Of Illinois At Urbana&#45;Champaign -->
<g id="edge40" class="edge"><title>The Johns Hopkins University&#45;&gt;University Of Illinois At Urbana&#45;Champaign</title>
<path fill="none" stroke="black" stroke-width="2.8" d="M643.843,-982.397C762.672,-873.007 1377.48,-307.037 1511.1,-184.032"/>
<polygon fill="black" stroke="black" stroke-width="2.8" points="1517.09,-178.513 1513.65,-186.58 1514.76,-181.884 1511.82,-184.593 1511.21,-183.931 1510.6,-183.269 1513.54,-180.56 1508.77,-181.283 1517.09,-178.513 1517.09,-178.513"/>
</g>
<!-- The Johns Hopkins University&#45;&gt;Harvard University -->
<g id="edge36" class="edge"><title>The Johns Hopkins University&#45;&gt;Harvard University</title>
<path fill="none" stroke="black" stroke-width="2.4" d="M630.199,-982.463C648.46,-929.272 701.647,-774.344 722.929,-712.351"/>
<polygon fill="black" stroke="black" stroke-width="2.4" points="725.596,-704.58 726.404,-713.316 724.96,-708.591 723.661,-712.374 722.999,-712.147 722.337,-711.92 723.635,-708.136 719.594,-710.978 725.596,-704.58 725.596,-704.58"/>
</g>
<!-- The Johns Hopkins University&#45;&gt;The Johns Hopkins University -->
<g id="edge35" class="edge"><title>The Johns Hopkins University&#45;&gt;The Johns Hopkins University</title>
<path fill="none" stroke="black" stroke-width="2.4" d="M714.966,-1006.53C725.832,-1005.48 732.928,-1003.54 732.928,-1000.73 732.928,-998.708 729.262,-997.14 723.165,-996.027"/>
<polygon fill="black" stroke="black" stroke-width="2.4" points="714.966,-994.928 723.373,-992.423 719.023,-994.766 722.988,-995.297 722.895,-995.991 722.802,-996.685 718.837,-996.153 722.417,-999.559 714.966,-994.928 714.966,-994.928"/>
</g>
<!-- The Catholic University Of America -->
<g id="node11" class="node"><title>The Catholic University Of America</title>
<polygon fill="none" stroke="black" points="217,-1199.01 -1.13687e-13,-1199.01 -1.13687e-13,-1163.01 217,-1163.01 217,-1199.01"/>
<text text-anchor="middle" x="108.5" y="-1177.31" font-family="Times,serif" font-size="14.00">The Catholic University Of America</text>
</g>
<!-- The Johns Hopkins University&#45;&gt;The Catholic University Of America -->
<g id="edge6" class="edge"><title>The Johns Hopkins University&#45;&gt;The Catholic University Of America</title>
<path fill="none" stroke="black" stroke-width="1.7" d="M572.147,-1018.84C475.861,-1052.52 269.825,-1124.58 167.99,-1160.2"/>
<polygon fill="black" stroke="black" stroke-width="1.7" points="160.247,-1162.91 166.61,-1156.87 163.907,-1161.26 167.683,-1159.94 167.798,-1160.27 167.914,-1160.6 164.138,-1161.92 168.987,-1163.67 160.247,-1162.91 160.247,-1162.91"/>
</g>
<!-- The Johns Hopkins University&#45;&gt;Princeton University -->
<g id="edge44" class="edge"><title>The Johns Hopkins University&#45;&gt;Princeton University</title>
<path fill="none" stroke="black" stroke-width="2.9" d="M637.943,-982.723C716.715,-881.517 1104.05,-383.869 1195.2,-266.755"/>
<polygon fill="black" stroke="black" stroke-width="2.9" points="1200.29,-260.215 1198.22,-268.739 1198.59,-263.955 1196.13,-267.112 1195.38,-266.528 1194.63,-265.945 1197.09,-262.788 1192.54,-264.317 1200.29,-260.215 1200.29,-260.215"/>
</g>
<!-- University Of Nebraska&#45;Lincoln -->
<g id="node18" class="node"><title>University Of Nebraska&#45;Lincoln</title>
<polygon fill="none" stroke="black" points="227.747,-923.336 34.7475,-923.336 34.7475,-887.336 227.747,-887.336 227.747,-923.336"/>
<text text-anchor="middle" x="131.247" y="-901.636" font-family="Times,serif" font-size="14.00">University Of Nebraska&#45;Lincoln</text>
</g>
<!-- The Johns Hopkins University&#45;&gt;University Of Nebraska&#45;Lincoln -->
<g id="edge13" class="edge"><title>The Johns Hopkins University&#45;&gt;University Of Nebraska&#45;Lincoln</title>
<path fill="none" stroke="black" stroke-width="2.1" d="M532.701,-983.066C447.512,-966.571 320.599,-941.998 232.357,-924.913"/>
<polygon fill="black" stroke="black" stroke-width="2.1" points="224.475,-923.387 233.013,-921.373 228.507,-923.607 232.434,-924.367 232.329,-924.907 232.225,-925.447 228.297,-924.687 231.645,-928.442 224.475,-923.387 224.475,-923.387"/>
</g>
<!-- Clark University -->
<g id="node28" class="node"><title>Clark University</title>
<polygon fill="none" stroke="black" points="1590.25,-2191.52 1483.25,-2191.52 1483.25,-2155.52 1590.25,-2155.52 1590.25,-2191.52"/>
<text text-anchor="middle" x="1536.75" y="-2169.82" font-family="Times,serif" font-size="14.00">Clark University</text>
</g>
<!-- The Johns Hopkins University&#45;&gt;Clark University -->
<g id="edge41" class="edge"><title>The Johns Hopkins University&#45;&gt;Clark University</title>
<path fill="none" stroke="black" stroke-width="2.8" d="M638.267,-1019.15C743.532,-1154.4 1396.19,-1992.94 1517.39,-2148.65"/>
<polygon fill="black" stroke="black" stroke-width="2.8" points="1522.44,-2155.14 1514.68,-2151.03 1519.27,-2152.53 1516.82,-2149.38 1517.53,-2148.82 1518.24,-2148.27 1520.69,-2151.43 1520.37,-2146.61 1522.44,-2155.14 1522.44,-2155.14"/>
</g>
<!-- Princeton University&#45;&gt;University Of Illinois At Urbana&#45;Champaign -->
<g id="edge53" class="edge"><title>Princeton University&#45;&gt;University Of Illinois At Urbana&#45;Champaign</title>
<path fill="none" stroke="black" stroke-width="3.9" d="M1279.28,-225.622C1330.7,-212.6 1402.79,-194.344 1457.61,-180.461"/>
<polygon fill="black" stroke="black" stroke-width="3.9" points="1465.57,-178.445 1458.89,-184.662 1462.05,-180.833 1458.17,-181.815 1457.82,-180.409 1457.46,-179.004 1461.34,-178.022 1456.74,-176.156 1465.57,-178.445 1465.57,-178.445"/>
</g>
<!-- Princeton University&#45;&gt;Princeton University -->
<g id="edge39" class="edge"><title>Princeton University&#45;&gt;Princeton University</title>
<path fill="none" stroke="black" stroke-width="2.6" d="M1279.12,-248.286C1289.68,-247.392 1296.94,-245.31 1296.94,-242.041 1296.94,-239.691 1293.19,-237.954 1287.16,-236.832"/>
<polygon fill="black" stroke="black" stroke-width="2.6" points="1279.12,-235.795 1287.51,-233.248 1283.19,-235.513 1287.16,-236.025 1287.05,-236.818 1286.95,-237.612 1282.98,-237.1 1286.59,-240.389 1279.12,-235.795 1279.12,-235.795"/>
</g>
<!-- Princeton University&#45;&gt;Massachusetts Institute Of Technology -->
<g id="edge7" class="edge"><title>Princeton University&#45;&gt;Massachusetts Institute Of Technology</title>
<path fill="none" stroke="black" stroke-width="1.7" d="M1186.73,-260.142C1135.57,-293.569 1026.4,-364.893 970.556,-401.378"/>
<polygon fill="black" stroke="black" stroke-width="1.7" points="963.692,-405.862 968.42,-398.473 966.849,-403.381 970.198,-401.194 970.389,-401.487 970.581,-401.78 967.232,-403.967 972.358,-404.5 963.692,-405.862 963.692,-405.862"/>
</g>
<!-- University Of Pennsylvania -->
<g id="node17" class="node"><title>University Of Pennsylvania</title>
<polygon fill="none" stroke="black" points="707.428,-1351.21 540.428,-1351.21 540.428,-1315.21 707.428,-1315.21 707.428,-1351.21"/>
<text text-anchor="middle" x="623.928" y="-1329.51" font-family="Times,serif" font-size="14.00">University Of Pennsylvania</text>
</g>
<!-- Princeton University&#45;&gt;University Of Pennsylvania -->
<g id="edge20" class="edge"><title>Princeton University&#45;&gt;University Of Pennsylvania</title>
<path fill="none" stroke="black" stroke-width="2.1" d="M1204.68,-260.07C1135.45,-388.006 718.819,-1157.87 637.635,-1307.88"/>
<polygon fill="black" stroke="black" stroke-width="2.1" points="633.813,-1314.94 634.455,-1306.19 635.233,-1311.16 637.137,-1307.65 637.621,-1307.91 638.105,-1308.17 636.201,-1311.69 640.787,-1309.62 633.813,-1314.94 633.813,-1314.94"/>
</g>
<!-- The University Of Chicago&#45;&gt;University Of Texas At Austin -->
<g id="edge27" class="edge"><title>The University Of Chicago&#45;&gt;University Of Texas At Austin</title>
<path fill="none" stroke="black" stroke-width="2.4" d="M2090,-2005.66C1870.92,-1987.51 1275.35,-1938.16 1036.85,-1918.4"/>
<polygon fill="black" stroke="black" stroke-width="2.4" points="1028.86,-1917.73 1037.13,-1914.81 1032.9,-1917.37 1036.89,-1917.7 1036.83,-1918.4 1036.77,-1919.09 1032.79,-1918.76 1036.53,-1921.98 1028.86,-1917.73 1028.86,-1917.73"/>
</g>
<!-- The University Of Chicago&#45;&gt;Harvard University -->
<g id="edge57" class="edge"><title>The University Of Chicago&#45;&gt;Harvard University</title>
<path fill="none" stroke="black" stroke-width="4.2" d="M2152.75,-1994.26C1994.43,-1848.52 936.406,-874.539 757.544,-709.885"/>
<polygon fill="black" stroke="black" stroke-width="4.2" points="751.556,-704.372 760.642,-706.314 755.582,-705.904 758.525,-708.613 757.441,-709.791 756.358,-710.968 753.415,-708.259 754.241,-713.267 751.556,-704.372 751.556,-704.372"/>
</g>
<!-- The University Of Chicago&#45;&gt;Princeton University -->
<g id="edge51" class="edge"><title>The University Of Chicago&#45;&gt;Princeton University</title>
<path fill="none" stroke="black" stroke-width="3.6" d="M2162.77,-1994.41C2069.42,-1821.91 1337.93,-470.225 1228.2,-267.462"/>
<polygon fill="black" stroke="black" stroke-width="3.6" points="1224.27,-260.215 1231.64,-265.323 1227.32,-263.114 1229.23,-266.632 1228.08,-267.251 1226.94,-267.869 1225.04,-264.351 1224.52,-269.178 1224.27,-260.215 1224.27,-260.215"/>
</g>
<!-- The University Of Chicago&#45;&gt;The University Of Chicago -->
<g id="edge61" class="edge"><title>The University Of Chicago&#45;&gt;The University Of Chicago</title>
<path fill="none" stroke="black" stroke-width="5.2" d="M2255.36,-2018.42C2266.02,-2017.4 2273.07,-2015.42 2273.07,-2012.51 2273.07,-2010.41 2269.43,-2008.8 2263.42,-2007.68"/>
<polygon fill="black" stroke="black" stroke-width="5.2" points="2255.36,-2006.59 2264.08,-2001.86 2259.61,-2005.04 2263.57,-2005.58 2263.29,-2007.66 2263.01,-2009.74 2259.05,-2009.21 2262.51,-2013.46 2255.36,-2006.59 2255.36,-2006.59"/>
</g>
<!-- The University Of Chicago&#45;&gt;University Of Pennsylvania -->
<g id="edge12" class="edge"><title>The University Of Chicago&#45;&gt;University Of Pennsylvania</title>
<path fill="none" stroke="black" stroke-width="2.1" d="M2131.14,-1994.34C1913.8,-1899 906.225,-1457.04 672.458,-1354.5"/>
<polygon fill="black" stroke="black" stroke-width="2.1" points="665.118,-1351.28 673.891,-1351.19 669.002,-1352.38 672.665,-1353.99 672.444,-1354.49 672.224,-1354.99 668.56,-1353.39 670.998,-1357.79 665.118,-1351.28 665.118,-1351.28"/>
</g>
<!-- University Of Missouri &#45; Columbia -->
<g id="node20" class="node"><title>University Of Missouri &#45; Columbia</title>
<polygon fill="none" stroke="black" points="2522.18,-1805.32 2312.18,-1805.32 2312.18,-1769.32 2522.18,-1769.32 2522.18,-1805.32"/>
<text text-anchor="middle" x="2417.18" y="-1783.62" font-family="Times,serif" font-size="14.00">University Of Missouri &#45; Columbia</text>
</g>
<!-- The University Of Chicago&#45;&gt;University Of Missouri &#45; Columbia -->
<g id="edge15" class="edge"><title>The University Of Chicago&#45;&gt;University Of Missouri &#45; Columbia</title>
<path fill="none" stroke="black" stroke-width="2.1" d="M2192.17,-1994.46C2236.09,-1954.02 2342.38,-1856.18 2391.5,-1810.96"/>
<polygon fill="black" stroke="black" stroke-width="2.1" points="2397.48,-1805.46 2394.04,-1813.52 2394.91,-1808.57 2391.97,-1811.28 2391.6,-1810.87 2391.22,-1810.47 2394.17,-1807.76 2389.16,-1808.23 2397.48,-1805.46 2397.48,-1805.46"/>
</g>
<!-- The University Of Chicago&#45;&gt;Bryn Mawr College -->
<g id="edge16" class="edge"><title>The University Of Chicago&#45;&gt;Bryn Mawr College</title>
<path fill="none" stroke="black" stroke-width="2.1" d="M2178.89,-1994.07C2225.21,-1859.15 2511.68,-1024.7 2566.4,-865.315"/>
<polygon fill="black" stroke="black" stroke-width="2.1" points="2569.11,-857.416 2569.92,-866.151 2568.33,-861.378 2567.03,-865.161 2566.51,-864.982 2565.99,-864.804 2567.29,-861.02 2563.11,-863.813 2569.11,-857.416 2569.11,-857.416"/>
</g>
<!-- University Of Wisconsin&#45;Madison -->
<g id="node23" class="node"><title>University Of Wisconsin&#45;Madison</title>
<polygon fill="none" stroke="black" points="1971.09,-2164.06 1765.09,-2164.06 1765.09,-2128.06 1971.09,-2128.06 1971.09,-2164.06"/>
<text text-anchor="middle" x="1868.09" y="-2142.36" font-family="Times,serif" font-size="14.00">University Of Wisconsin&#45;Madison</text>
</g>
<!-- The University Of Chicago&#45;&gt;University Of Wisconsin&#45;Madison -->
<g id="edge18" class="edge"><title>The University Of Chicago&#45;&gt;University Of Wisconsin&#45;Madison</title>
<path fill="none" stroke="black" stroke-width="2.1" d="M2131.5,-2030.52C2075.78,-2054.96 1976.35,-2098.58 1916.88,-2124.66"/>
<polygon fill="black" stroke="black" stroke-width="2.1" points="1909.48,-2127.91 1915.36,-2121.4 1912.92,-2125.8 1916.58,-2124.19 1916.8,-2124.69 1917.02,-2125.2 1913.36,-2126.8 1918.25,-2127.99 1909.48,-2127.91 1909.48,-2127.91"/>
</g>
<!-- University Of Iowa -->
<g id="node26" class="node"><title>University Of Iowa</title>
<polygon fill="none" stroke="black" points="1929.09,-205.878 1807.09,-205.878 1807.09,-169.878 1929.09,-169.878 1929.09,-205.878"/>
<text text-anchor="middle" x="1868.09" y="-184.178" font-family="Times,serif" font-size="14.00">University Of Iowa</text>
</g>
<!-- The University Of Chicago&#45;&gt;University Of Iowa -->
<g id="edge23" class="edge"><title>The University Of Chicago&#45;&gt;University Of Iowa</title>
<path fill="none" stroke="black" stroke-width="2.1" d="M2169.55,-1994.45C2140.31,-1819.22 1907.39,-423.366 1872.47,-214.096"/>
<polygon fill="black" stroke="black" stroke-width="2.1" points="1871.13,-206.084 1876,-213.383 1872.33,-209.939 1872.99,-213.885 1872.45,-213.975 1871.9,-214.066 1871.24,-210.12 1868.89,-214.568 1871.13,-206.084 1871.13,-206.084"/>
</g>
<!-- University Of California, Berkeley -->
<g id="node32" class="node"><title>University Of California, Berkeley</title>
<polygon fill="none" stroke="black" points="2371.28,-2177.01 2165.28,-2177.01 2165.28,-2141.01 2371.28,-2141.01 2371.28,-2177.01"/>
<text text-anchor="middle" x="2268.28" y="-2155.31" font-family="Times,serif" font-size="14.00">University Of California, Berkeley</text>
</g>
<!-- The University Of Chicago&#45;&gt;University Of California, Berkeley -->
<g id="edge56" class="edge"><title>The University Of Chicago&#45;&gt;University Of California, Berkeley</title>
<path fill="none" stroke="black" stroke-width="4" d="M2184.5,-2030.76C2201.5,-2056.79 2232.75,-2104.63 2251.91,-2133.95"/>
<polygon fill="black" stroke="black" stroke-width="4" points="2256.5,-2140.98 2248.36,-2136.74 2253.06,-2138.45 2250.87,-2135.1 2252.13,-2134.28 2253.38,-2133.46 2255.57,-2136.81 2255.9,-2131.82 2256.5,-2140.98 2256.5,-2140.98"/>
</g>
<!-- Cornell University&#45;&gt;University Of Iowa -->
<g id="edge31" class="edge"><title>Cornell University&#45;&gt;University Of Iowa</title>
<path fill="none" stroke="black" stroke-width="2.4" d="M2131.5,-303.422C2075.78,-278.977 1976.35,-235.363 1916.88,-209.279"/>
<polygon fill="black" stroke="black" stroke-width="2.4" points="1909.48,-206.031 1918.25,-205.948 1913.42,-206.997 1917.08,-208.603 1916.8,-209.244 1916.52,-209.885 1912.86,-208.279 1915.36,-212.541 1909.48,-206.031 1909.48,-206.031"/>
</g>
<!-- University Of Pennsylvania&#45;&gt;The Johns Hopkins University -->
<g id="edge37" class="edge"><title>University Of Pennsylvania&#45;&gt;The Johns Hopkins University</title>
<path fill="none" stroke="black" stroke-width="2.6" d="M623.928,-1314.86C623.928,-1259.23 623.928,-1092.29 623.928,-1027.16"/>
<polygon fill="black" stroke="black" stroke-width="2.6" points="623.928,-1019.02 627.528,-1027.02 624.728,-1023.02 624.728,-1027.02 623.928,-1027.02 623.128,-1027.02 623.128,-1023.02 620.328,-1027.02 623.928,-1019.02 623.928,-1019.02"/>
</g>
<!-- University Of Pennsylvania&#45;&gt;University Of Pennsylvania -->
<g id="edge55" class="edge"><title>University Of Pennsylvania&#45;&gt;University Of Pennsylvania</title>
<path fill="none" stroke="black" stroke-width="4" d="M707.549,-1339.13C718.315,-1338.1 725.428,-1336.13 725.428,-1333.21 725.428,-1331.11 721.754,-1329.5 715.689,-1328.38"/>
<polygon fill="black" stroke="black" stroke-width="4" points="707.549,-1327.29 716.075,-1323.9 711.712,-1326.34 715.677,-1326.87 715.478,-1328.36 715.279,-1329.84 711.314,-1329.31 714.881,-1332.82 707.549,-1327.29 707.549,-1327.29"/>
</g>
<!-- Yale University&#45;&gt;The University Of Chicago -->
<g id="edge58" class="edge"><title>Yale University&#45;&gt;The University Of Chicago</title>
<path fill="none" stroke="black" stroke-width="4.4" d="M2561.32,-1513.03C2500.65,-1590.98 2261.77,-1897.9 2191.88,-1987.7"/>
<polygon fill="black" stroke="black" stroke-width="4.4" points="2186.76,-1994.27 2187.77,-1984.91 2187.88,-1990.07 2190.33,-1986.91 2191.68,-1987.95 2193.02,-1989 2190.56,-1992.15 2195.58,-1990.99 2186.76,-1994.27 2186.76,-1994.27"/>
</g>
<!-- Yale University&#45;&gt;Yale University -->
<g id="edge52" class="edge"><title>Yale University&#45;&gt;Yale University</title>
<path fill="none" stroke="black" stroke-width="3.6" d="M2626.95,-1501.41C2637.42,-1500.7 2644.92,-1498.54 2644.92,-1494.91 2644.92,-1492.31 2641.05,-1490.46 2634.98,-1489.36"/>
<polygon fill="black" stroke="black" stroke-width="3.6" points="2626.95,-1488.42 2635.37,-1485.33 2631.07,-1487.6 2635.05,-1488.06 2634.89,-1489.35 2634.74,-1490.65 2630.77,-1490.18 2634.42,-1493.38 2626.95,-1488.42 2626.95,-1488.42"/>
</g>
<!-- Yale University&#45;&gt;University Of Missouri &#45; Columbia -->
<g id="edge14" class="edge"><title>Yale University&#45;&gt;University Of Missouri &#45; Columbia</title>
<path fill="none" stroke="black" stroke-width="2.1" d="M2565.52,-1513.21C2538.33,-1563.46 2462.4,-1703.76 2431.02,-1761.74"/>
<polygon fill="black" stroke="black" stroke-width="2.1" points="2427.08,-1769.04 2427.72,-1760.29 2428.5,-1765.26 2430.4,-1761.74 2430.88,-1762 2431.37,-1762.26 2429.46,-1765.78 2434.05,-1763.72 2427.08,-1769.04 2427.08,-1769.04"/>
</g>
<!-- Northwestern University -->
<g id="node22" class="node"><title>Northwestern University</title>
<polygon fill="none" stroke="black" points="1979.8,-2307.05 1828.8,-2307.05 1828.8,-2271.05 1979.8,-2271.05 1979.8,-2307.05"/>
<text text-anchor="middle" x="1904.3" y="-2285.35" font-family="Times,serif" font-size="14.00">Northwestern University</text>
</g>
<!-- Northwestern University&#45;&gt;University Of Wisconsin&#45;Madison -->
<g id="edge17" class="edge"><title>Northwestern University&#45;&gt;University Of Wisconsin&#45;Madison</title>
<path fill="none" stroke="black" stroke-width="2.1" d="M1899.71,-2270.94C1893.41,-2246.04 1882.02,-2201.08 1874.77,-2172.44"/>
<polygon fill="black" stroke="black" stroke-width="2.1" points="1872.75,-2164.47 1878.21,-2171.35 1874.27,-2168.22 1875.25,-2172.1 1874.72,-2172.23 1874.18,-2172.37 1873.2,-2168.49 1871.23,-2173.11 1872.75,-2164.47 1872.75,-2164.47"/>
</g>
<!-- University Of Edinburgh&#45;&gt;University Of Edinburgh -->
<g id="edge34" class="edge"><title>University Of Edinburgh&#45;&gt;University Of Edinburgh</title>
<path fill="none" stroke="black" stroke-width="2.4" d="M2854.49,-1169.99C2865.07,-1169 2872.14,-1166.99 2872.14,-1163.97 2872.14,-1161.8 2868.49,-1160.15 2862.51,-1159.02"/>
<polygon fill="black" stroke="black" stroke-width="2.4" points="2854.49,-1157.95 2862.9,-1155.44 2858.55,-1157.79 2862.51,-1158.32 2862.42,-1159.01 2862.33,-1159.71 2858.36,-1159.17 2861.94,-1162.58 2854.49,-1157.95 2854.49,-1157.95"/>
</g>
<!-- Cumberland University -->
<g id="node25" class="node"><title>Cumberland University</title>
<polygon fill="none" stroke="black" points="2489.68,-564.616 2344.68,-564.616 2344.68,-528.616 2489.68,-528.616 2489.68,-564.616"/>
<text text-anchor="middle" x="2417.18" y="-542.916" font-family="Times,serif" font-size="14.00">Cumberland University</text>
</g>
<!-- Cumberland University&#45;&gt;University Of Illinois At Urbana&#45;Champaign -->
<g id="edge50" class="edge"><title>Cumberland University&#45;&gt;University Of Illinois At Urbana&#45;Champaign</title>
<path fill="none" stroke="black" stroke-width="3.3" d="M2375.9,-528.507C2230.46,-464.715 1742.27,-250.571 1585.59,-181.846"/>
<polygon fill="black" stroke="black" stroke-width="3.3" points="1577.94,-178.492 1586.76,-178.305 1582.07,-179.045 1585.73,-180.652 1585.27,-181.705 1584.8,-182.758 1581.14,-181.151 1583.78,-185.105 1577.94,-178.492 1577.94,-178.492"/>
</g>
<!-- Cumberland University&#45;&gt;Cornell University -->
<g id="edge21" class="edge"><title>Cumberland University&#45;&gt;Cornell University</title>
<path fill="none" stroke="black" stroke-width="2.1" d="M2397.58,-528.569C2353.65,-488.135 2247.36,-390.289 2198.24,-345.071"/>
<polygon fill="black" stroke="black" stroke-width="2.1" points="2192.26,-339.566 2200.59,-342.336 2195.58,-341.871 2198.52,-344.58 2198.15,-344.985 2197.78,-345.389 2194.83,-342.68 2195.71,-347.633 2192.26,-339.566 2192.26,-339.566"/>
</g>
<!-- Clark University&#45;&gt;Columbia University -->
<g id="edge26" class="edge"><title>Clark University&#45;&gt;Columbia University</title>
<path fill="none" stroke="black" stroke-width="2.1" d="M1483.16,-2159.95C1429.8,-2146.43 1347.47,-2125.59 1288.01,-2110.53"/>
<polygon fill="black" stroke="black" stroke-width="2.1" points="1280.14,-2108.54 1288.78,-2107.01 1284.15,-2108.98 1288.03,-2109.97 1287.89,-2110.5 1287.76,-2111.03 1283.88,-2110.05 1287.01,-2113.99 1280.14,-2108.54 1280.14,-2108.54"/>
</g>
<!-- Clark University&#45;&gt;University Of Wisconsin&#45;Madison -->
<g id="edge30" class="edge"><title>Clark University&#45;&gt;University Of Wisconsin&#45;Madison</title>
<path fill="none" stroke="black" stroke-width="2.4" d="M1590.35,-2169.08C1635.22,-2165.36 1700.72,-2159.93 1756.85,-2155.28"/>
<polygon fill="black" stroke="black" stroke-width="2.4" points="1765.06,-2154.6 1757.39,-2158.85 1761.13,-2155.63 1757.15,-2155.96 1757.09,-2155.26 1757.03,-2154.56 1761.02,-2154.23 1756.79,-2151.67 1765.06,-2154.6 1765.06,-2154.6"/>
</g>
<!-- Purdue University -->
<g id="node29" class="node"><title>Purdue University</title>
<polygon fill="none" stroke="black" points="1686.16,-36 1570.16,-36 1570.16,-0 1686.16,-0 1686.16,-36"/>
<text text-anchor="middle" x="1628.16" y="-14.3" font-family="Times,serif" font-size="14.00">Purdue University</text>
</g>
<!-- Purdue University&#45;&gt;University Of Illinois At Urbana&#45;Champaign -->
<g id="edge29" class="edge"><title>Purdue University&#45;&gt;University Of Illinois At Urbana&#45;Champaign</title>
<path fill="none" stroke="black" stroke-width="2.4" d="M1616.58,-36.0378C1600.46,-61.155 1571.18,-106.777 1552.91,-135.238"/>
<polygon fill="black" stroke="black" stroke-width="2.4" points="1548.52,-142.081 1549.81,-133.403 1550.09,-138.336 1552.25,-134.97 1552.84,-135.348 1553.43,-135.726 1551.27,-139.092 1555.87,-137.293 1548.52,-142.081 1548.52,-142.081"/>
</g>
<!-- Rensselaer Polytechnic Institute -->
<g id="node31" class="node"><title>Rensselaer Polytechnic Institute</title>
<polygon fill="none" stroke="black" points="294.853,-668.619 103.853,-668.619 103.853,-632.619 294.853,-632.619 294.853,-668.619"/>
<text text-anchor="middle" x="199.353" y="-646.919" font-family="Times,serif" font-size="14.00">Rensselaer Polytechnic Institute</text>
</g>
<!-- Rensselaer Polytechnic Institute&#45;&gt;The Johns Hopkins University -->
<g id="edge47" class="edge"><title>Rensselaer Polytechnic Institute&#45;&gt;The Johns Hopkins University</title>
<path fill="none" stroke="black" stroke-width="2.9" d="M221.286,-668.705C292.306,-727.269 515.976,-911.711 595.512,-977.297"/>
<polygon fill="black" stroke="black" stroke-width="2.9" points="601.872,-982.541 593.409,-980.229 598.181,-980.729 595.095,-978.184 595.7,-977.451 596.304,-976.719 599.39,-979.263 597.99,-974.674 601.872,-982.541 601.872,-982.541"/>
</g>
</g>
</svg>
