<?xml version="1.0" encoding="UTF-8" standalone="no"?>
<!DOCTYPE svg PUBLIC "-//W3C//DTD SVG 1.1//EN"
 "http://www.w3.org/Graphics/SVG/1.1/DTD/svg11.dtd">
<!-- Generated by graphviz version 2.38.0 (20140413.2041)
 -->
<!-- Title: transition Pages: 1 -->
<svg width="2052pt" height="2268pt"
 viewBox="0.00 0.00 2051.95 2268.07" xmlns="http://www.w3.org/2000/svg" xmlns:xlink="http://www.w3.org/1999/xlink">
<g id="graph0" class="graph" transform="scale(1 1) rotate(0) translate(4 2264.07)">
<title>transition</title>
<polygon fill="white" stroke="none" points="-4,4 -4,-2264.07 2047.95,-2264.07 2047.95,4 -4,4"/>
<text text-anchor="middle" x="1021.97" y="-2244.87" font-family="Times,serif" font-size="14.00">Hiring network of Mathematics Ph.D.&#39;s between 1940 and 1985 (with threshold 3.00)</text>
<!-- Czechrepublic -->
<g id="node1" class="node"><title>Czechrepublic</title>
<polygon fill="none" stroke="black" points="468.466,-1009.74 373.466,-1009.74 373.466,-973.744 468.466,-973.744 468.466,-1009.74"/>
<text text-anchor="middle" x="420.966" y="-988.044" font-family="Times,serif" font-size="14.00">Czechrepublic</text>
</g>
<!-- Czechrepublic&#45;&gt;Czechrepublic -->
<g id="edge64" class="edge"><title>Czechrepublic&#45;&gt;Czechrepublic</title>
<path fill="none" stroke="black" stroke-width="4.4" d="M468.656,-998.294C478.979,-997.654 486.466,-995.47 486.466,-991.744 486.466,-989.124 482.764,-987.266 476.978,-986.172"/>
<polygon fill="black" stroke="black" stroke-width="4.4" points="468.656,-985.193 477.179,-981.211 472.827,-983.972 476.8,-984.439 476.601,-986.127 476.403,-987.816 472.43,-987.349 476.023,-991.044 468.656,-985.193 468.656,-985.193"/>
</g>
<!-- Germany -->
<g id="node2" class="node"><title>Germany</title>
<polygon fill="none" stroke="black" points="780.516,-903.966 712.516,-903.966 712.516,-867.966 780.516,-867.966 780.516,-903.966"/>
<text text-anchor="middle" x="746.516" y="-882.266" font-family="Times,serif" font-size="14.00">Germany</text>
</g>
<!-- Czechrepublic&#45;&gt;Germany -->
<g id="edge1" class="edge"><title>Czechrepublic&#45;&gt;Germany</title>
<path fill="none" stroke="black" stroke-width="3.1" d="M468.652,-976.25C532.204,-955.6 643.677,-919.38 704.32,-899.676"/>
<polygon fill="black" stroke="black" stroke-width="3.1" points="712.172,-897.125 705.676,-903.021 708.692,-899.36 704.888,-900.596 704.563,-899.597 704.239,-898.599 708.043,-897.363 703.451,-896.174 712.172,-897.125 712.172,-897.125"/>
</g>
<!-- Canada -->
<g id="node8" class="node"><title>Canada</title>
<polygon fill="none" stroke="black" points="248.264,-1286.67 191.264,-1286.67 191.264,-1250.67 248.264,-1250.67 248.264,-1286.67"/>
<text text-anchor="middle" x="219.764" y="-1264.97" font-family="Times,serif" font-size="14.00">Canada</text>
</g>
<!-- Czechrepublic&#45;&gt;Canada -->
<g id="edge27" class="edge"><title>Czechrepublic&#45;&gt;Canada</title>
<path fill="none" stroke="black" stroke-width="3.5" d="M407.764,-1009.91C372.803,-1058.03 277.768,-1188.84 237.828,-1243.81"/>
<polygon fill="black" stroke="black" stroke-width="3.5" points="233.014,-1250.44 234.531,-1241.65 234.354,-1246.47 236.705,-1243.23 237.717,-1243.96 238.728,-1244.7 236.377,-1247.94 240.902,-1246.28 233.014,-1250.44 233.014,-1250.44"/>
</g>
<!-- Unitedstates -->
<g id="node16" class="node"><title>Unitedstates</title>
<polygon fill="none" stroke="black" points="462.466,-1905.91 379.466,-1905.91 379.466,-1869.91 462.466,-1869.91 462.466,-1905.91"/>
<text text-anchor="middle" x="420.966" y="-1884.21" font-family="Times,serif" font-size="14.00">Unitedstates</text>
</g>
<!-- Czechrepublic&#45;&gt;Unitedstates -->
<g id="edge62" class="edge"><title>Czechrepublic&#45;&gt;Unitedstates</title>
<path fill="none" stroke="black" stroke-width="4.3" d="M420.966,-1010.05C420.966,-1123.24 420.966,-1727.28 420.966,-1861.48"/>
<polygon fill="black" stroke="black" stroke-width="4.3" points="420.966,-1869.63 416.128,-1861.63 419.316,-1865.63 419.316,-1861.63 420.966,-1861.63 422.616,-1861.63 422.616,-1865.63 425.803,-1861.63 420.966,-1869.63 420.966,-1869.63"/>
</g>
<!-- Germany&#45;&gt;Germany -->
<g id="edge126" class="edge"><title>Germany&#45;&gt;Germany</title>
<path fill="none" stroke="black" stroke-width="8.6" d="M780.524,-892.701C790.643,-892.5 798.516,-890.255 798.516,-885.966 798.516,-882.95 794.623,-880.945 788.795,-879.95"/>
<polygon fill="black" stroke="black" stroke-width="8.6" points="780.524,-879.231 789.333,-870.286 784.839,-875.792 788.824,-876.139 788.494,-879.924 788.165,-883.71 784.18,-883.363 787.656,-889.563 780.524,-879.231 780.524,-879.231"/>
</g>
<!-- Bulgaria -->
<g id="node3" class="node"><title>Bulgaria</title>
<polygon fill="none" stroke="black" points="949.168,-931.074 886.168,-931.074 886.168,-895.074 949.168,-895.074 949.168,-931.074"/>
<text text-anchor="middle" x="917.668" y="-909.374" font-family="Times,serif" font-size="14.00">Bulgaria</text>
</g>
<!-- Germany&#45;&gt;Bulgaria -->
<g id="edge2" class="edge"><title>Germany&#45;&gt;Bulgaria</title>
<path fill="none" stroke="black" stroke-width="3.1" d="M780.74,-891.387C808.828,-895.835 848.628,-902.139 878.085,-906.805"/>
<polygon fill="black" stroke="black" stroke-width="3.1" points="886.101,-908.074 877.636,-910.378 881.986,-908.485 878.035,-907.86 878.199,-906.823 878.363,-905.786 882.314,-906.411 878.762,-903.267 886.101,-908.074 886.101,-908.074"/>
</g>
<!-- Austria -->
<g id="node7" class="node"><title>Austria</title>
<polygon fill="none" stroke="black" points="326.434,-1132.28 270.434,-1132.28 270.434,-1096.28 326.434,-1096.28 326.434,-1132.28"/>
<text text-anchor="middle" x="298.434" y="-1110.58" font-family="Times,serif" font-size="14.00">Austria</text>
</g>
<!-- Germany&#45;&gt;Austria -->
<g id="edge40" class="edge"><title>Germany&#45;&gt;Austria</title>
<path fill="none" stroke="black" stroke-width="3.6" d="M712.241,-899.254C628.931,-937.237 416.649,-1045.33 333.02,-1092.28"/>
<polygon fill="black" stroke="black" stroke-width="3.6" points="326.042,-1096.22 331.012,-1088.76 328.884,-1093.12 332.366,-1091.15 333.006,-1092.29 333.646,-1093.42 330.164,-1095.39 334.999,-1095.81 326.042,-1096.22 326.042,-1096.22"/>
</g>
<!-- Germany&#45;&gt;Canada -->
<g id="edge79" class="edge"><title>Germany&#45;&gt;Canada</title>
<path fill="none" stroke="black" stroke-width="4.8" d="M715.892,-904.159C621.222,-967.215 334.608,-1175.46 246.068,-1245.54"/>
<polygon fill="black" stroke="black" stroke-width="4.8" points="239.799,-1250.53 242.689,-1241.32 241.743,-1246.55 244.871,-1244.06 246.055,-1245.55 247.239,-1247.03 244.111,-1249.53 249.421,-1249.77 239.799,-1250.53 239.799,-1250.53"/>
</g>
<!-- Switzerland -->
<g id="node11" class="node"><title>Switzerland</title>
<polygon fill="none" stroke="black" points="1235.1,-1783.38 1154.1,-1783.38 1154.1,-1747.38 1235.1,-1747.38 1235.1,-1783.38"/>
<text text-anchor="middle" x="1194.6" y="-1761.68" font-family="Times,serif" font-size="14.00">Switzerland</text>
</g>
<!-- Germany&#45;&gt;Switzerland -->
<g id="edge60" class="edge"><title>Germany&#45;&gt;Switzerland</title>
<path fill="none" stroke="black" stroke-width="4.3" d="M753.434,-904.071C803.457,-1015.69 1105.8,-1609.41 1178.84,-1739.98"/>
<polygon fill="black" stroke="black" stroke-width="4.3" points="1182.92,-1747.23 1174.78,-1742.64 1179.52,-1744.55 1177.56,-1741.07 1178.99,-1740.26 1180.43,-1739.45 1182.4,-1742.93 1183.21,-1737.88 1182.92,-1747.23 1182.92,-1747.23"/>
</g>
<!-- Brazil -->
<g id="node12" class="node"><title>Brazil</title>
<polygon fill="none" stroke="black" points="602.364,-931.074 548.364,-931.074 548.364,-895.074 602.364,-895.074 602.364,-931.074"/>
<text text-anchor="middle" x="575.364" y="-909.374" font-family="Times,serif" font-size="14.00">Brazil</text>
</g>
<!-- Germany&#45;&gt;Brazil -->
<g id="edge8" class="edge"><title>Germany&#45;&gt;Brazil</title>
<path fill="none" stroke="black" stroke-width="3.1" d="M712.292,-891.387C682.777,-896.061 640.33,-902.784 610.541,-907.502"/>
<polygon fill="black" stroke="black" stroke-width="3.1" points="602.496,-908.777 609.834,-903.969 606.283,-907.114 610.233,-906.488 610.398,-907.525 610.562,-908.562 606.611,-909.188 610.961,-911.081 602.496,-908.777 602.496,-908.777"/>
</g>
<!-- Unitedkingdom -->
<g id="node13" class="node"><title>Unitedkingdom</title>
<polygon fill="none" stroke="black" points="968.668,-1984.58 866.668,-1984.58 866.668,-1948.58 968.668,-1948.58 968.668,-1984.58"/>
<text text-anchor="middle" x="917.668" y="-1962.88" font-family="Times,serif" font-size="14.00">Unitedkingdom</text>
</g>
<!-- Germany&#45;&gt;Unitedkingdom -->
<g id="edge9" class="edge"><title>Germany&#45;&gt;Unitedkingdom</title>
<path fill="none" stroke="black" stroke-width="3.1" d="M749.415,-904.269C769.636,-1031.94 889.503,-1788.75 913.491,-1940.2"/>
<polygon fill="black" stroke="black" stroke-width="3.1" points="914.809,-1948.52 910.001,-1941.19 913.146,-1944.74 912.52,-1940.79 913.557,-1940.62 914.594,-1940.46 915.22,-1944.41 917.113,-1940.06 914.809,-1948.52 914.809,-1948.52"/>
</g>
<!-- Greece -->
<g id="node14" class="node"><title>Greece</title>
<polygon fill="none" stroke="black" points="602.864,-1984.58 547.864,-1984.58 547.864,-1948.58 602.864,-1948.58 602.864,-1984.58"/>
<text text-anchor="middle" x="575.364" y="-1962.88" font-family="Times,serif" font-size="14.00">Greece</text>
</g>
<!-- Germany&#45;&gt;Greece -->
<g id="edge10" class="edge"><title>Germany&#45;&gt;Greece</title>
<path fill="none" stroke="black" stroke-width="3.1" d="M743.617,-904.269C723.396,-1031.94 603.529,-1788.75 579.541,-1940.2"/>
<polygon fill="black" stroke="black" stroke-width="3.1" points="578.223,-1948.52 575.919,-1940.06 577.812,-1944.41 578.438,-1940.46 579.475,-1940.62 580.512,-1940.79 579.886,-1944.74 583.03,-1941.19 578.223,-1948.52 578.223,-1948.52"/>
</g>
<!-- Netherlands -->
<g id="node15" class="node"><title>Netherlands</title>
<polygon fill="none" stroke="black" points="260.764,-1628.98 178.764,-1628.98 178.764,-1592.98 260.764,-1592.98 260.764,-1628.98"/>
<text text-anchor="middle" x="219.764" y="-1607.28" font-family="Times,serif" font-size="14.00">Netherlands</text>
</g>
<!-- Germany&#45;&gt;Netherlands -->
<g id="edge17" class="edge"><title>Germany&#45;&gt;Netherlands</title>
<path fill="none" stroke="black" stroke-width="3.2" d="M733.232,-904.25C661.495,-1002.99 320.554,-1472.25 237.862,-1586.07"/>
<polygon fill="black" stroke="black" stroke-width="3.2" points="233.013,-1592.74 234.803,-1584.15 234.474,-1588.86 236.825,-1585.62 237.715,-1586.27 238.605,-1586.92 236.254,-1590.15 240.628,-1588.39 233.013,-1592.74 233.013,-1592.74"/>
</g>
<!-- Germany&#45;&gt;Unitedstates -->
<g id="edge116" class="edge"><title>Germany&#45;&gt;Unitedstates</title>
<path fill="none" stroke="black" stroke-width="6.6" d="M738.533,-904.025C692.686,-1025.03 467.631,-1717.34 427.07,-1861.58"/>
<polygon fill="black" stroke="black" stroke-width="6.6" points="424.868,-1869.54 419.845,-1859.85 423.236,-1864.94 424.302,-1861.08 427.001,-1861.83 429.7,-1862.58 428.633,-1866.43 434.157,-1863.81 424.868,-1869.54 424.868,-1869.54"/>
</g>
<!-- Bulgaria&#45;&gt;Bulgaria -->
<g id="edge47" class="edge"><title>Bulgaria&#45;&gt;Bulgaria</title>
<path fill="none" stroke="black" stroke-width="3.8" d="M949.566,-919.817C959.425,-919.681 967.168,-917.433 967.168,-913.074 967.168,-910.009 963.34,-907.987 957.64,-907.01"/>
<polygon fill="black" stroke="black" stroke-width="3.8" points="949.566,-906.331 957.896,-902.742 953.669,-905.271 957.655,-905.607 957.538,-907.002 957.42,-908.397 953.434,-908.061 957.179,-911.262 949.566,-906.331 949.566,-906.331"/>
</g>
<!-- Ukraine -->
<g id="node4" class="node"><title>Ukraine</title>
<polygon fill="none" stroke="black" points="1224.6,-1132.28 1164.6,-1132.28 1164.6,-1096.28 1224.6,-1096.28 1224.6,-1132.28"/>
<text text-anchor="middle" x="1194.6" y="-1110.58" font-family="Times,serif" font-size="14.00">Ukraine</text>
</g>
<!-- Ukraine&#45;&gt;Germany -->
<g id="edge3" class="edge"><title>Ukraine&#45;&gt;Germany</title>
<path fill="none" stroke="black" stroke-width="3.1" d="M1164.5,-1098.94C1086.44,-1059.17 877.344,-952.626 787.963,-907.084"/>
<polygon fill="black" stroke="black" stroke-width="3.1" points="780.714,-903.391 789.476,-903.815 784.755,-904.271 788.319,-906.087 787.842,-907.023 787.365,-907.958 783.801,-906.142 786.208,-910.231 780.714,-903.391 780.714,-903.391"/>
</g>
<!-- Ukraine&#45;&gt;Ukraine -->
<g id="edge110" class="edge"><title>Ukraine&#45;&gt;Ukraine</title>
<path fill="none" stroke="black" stroke-width="6" d="M1224.6,-1121.03C1234.6,-1121.03 1242.6,-1118.78 1242.6,-1114.28 1242.6,-1111.11 1238.64,-1109.06 1232.82,-1108.12"/>
<polygon fill="black" stroke="black" stroke-width="6" points="1224.6,-1107.53 1233.06,-1101.37 1228.77,-1105.32 1232.76,-1105.61 1232.58,-1108.1 1232.4,-1110.6 1228.41,-1110.31 1232.09,-1114.83 1224.6,-1107.53 1224.6,-1107.53"/>
</g>
<!-- Russia -->
<g id="node5" class="node"><title>Russia</title>
<polygon fill="none" stroke="black" points="1099.07,-1009.74 1045.07,-1009.74 1045.07,-973.744 1099.07,-973.744 1099.07,-1009.74"/>
<text text-anchor="middle" x="1072.07" y="-988.044" font-family="Times,serif" font-size="14.00">Russia</text>
</g>
<!-- Ukraine&#45;&gt;Russia -->
<g id="edge85" class="edge"><title>Ukraine&#45;&gt;Russia</title>
<path fill="none" stroke="black" stroke-width="5.1" d="M1183.06,-1096.25C1164.97,-1074.74 1129.74,-1038.95 1103.74,-1015.29"/>
<polygon fill="black" stroke="black" stroke-width="5.1" points="1097.68,-1009.85 1107.47,-1010.93 1102.03,-1011 1105.01,-1013.67 1103.64,-1015.2 1102.27,-1016.72 1099.29,-1014.05 1099.8,-1019.46 1097.68,-1009.85 1097.68,-1009.85"/>
</g>
<!-- Russia&#45;&gt;Germany -->
<g id="edge81" class="edge"><title>Russia&#45;&gt;Germany</title>
<path fill="none" stroke="black" stroke-width="4.9" d="M1044.87,-982.907C988.04,-964.442 856.365,-921.658 788.551,-899.624"/>
<polygon fill="black" stroke="black" stroke-width="4.9" points="780.607,-897.043 789.919,-894.273 785.014,-896.425 788.818,-897.661 788.216,-899.515 787.613,-901.37 783.809,-900.134 786.512,-904.758 780.607,-897.043 780.607,-897.043"/>
</g>
<!-- Russia&#45;&gt;Bulgaria -->
<g id="edge19" class="edge"><title>Russia&#45;&gt;Bulgaria</title>
<path fill="none" stroke="black" stroke-width="3.2" d="M1044.82,-977.86C1020.34,-965.389 984.124,-946.935 956.597,-932.909"/>
<polygon fill="black" stroke="black" stroke-width="3.2" points="949.44,-929.263 958.202,-929.687 953.503,-930.099 957.067,-931.914 956.568,-932.895 956.069,-933.875 952.504,-932.059 954.934,-936.102 949.44,-929.263 949.44,-929.263"/>
</g>
<!-- Russia&#45;&gt;Ukraine -->
<g id="edge100" class="edge"><title>Russia&#45;&gt;Ukraine</title>
<path fill="none" stroke="black" stroke-width="5.6" d="M1083.6,-1009.77C1101.69,-1031.28 1136.93,-1067.07 1162.92,-1090.73"/>
<polygon fill="black" stroke="black" stroke-width="5.6" points="1168.98,-1096.17 1158.82,-1095.51 1164.47,-1095.21 1161.49,-1092.53 1163.03,-1090.82 1164.56,-1089.11 1167.54,-1091.79 1167.24,-1086.14 1168.98,-1096.17 1168.98,-1096.17"/>
</g>
<!-- Russia&#45;&gt;Russia -->
<g id="edge123" class="edge"><title>Russia&#45;&gt;Russia</title>
<path fill="none" stroke="black" stroke-width="7.9" d="M1099.31,-998.487C1109.09,-998.632 1117.07,-996.384 1117.07,-991.744 1117.07,-988.481 1113.12,-986.401 1107.38,-985.504"/>
<polygon fill="black" stroke="black" stroke-width="7.9" points="1099.31,-985 1107.84,-976.628 1103.51,-981.806 1107.51,-982.055 1107.29,-985.498 1107.08,-988.942 1103.08,-988.693 1106.74,-994.369 1099.31,-985 1099.31,-985"/>
</g>
<!-- Tajikistan -->
<g id="node6" class="node"><title>Tajikistan</title>
<polygon fill="none" stroke="black" points="1396.93,-36 1325.93,-36 1325.93,1.27898e-13 1396.93,1.27898e-13 1396.93,-36"/>
<text text-anchor="middle" x="1361.43" y="-14.3" font-family="Times,serif" font-size="14.00">Tajikistan</text>
</g>
<!-- Russia&#45;&gt;Tajikistan -->
<g id="edge4" class="edge"><title>Russia&#45;&gt;Tajikistan</title>
<path fill="none" stroke="black" stroke-width="3.1" d="M1077.46,-973.589C1112.89,-854.379 1312.06,-184.142 1353.77,-43.7788"/>
<polygon fill="black" stroke="black" stroke-width="3.1" points="1356.07,-36.0299 1357.24,-44.724 1355.94,-40.1633 1354.8,-43.9976 1353.79,-43.6985 1352.79,-43.3994 1353.93,-39.5651 1350.34,-42.6729 1356.07,-36.0299 1356.07,-36.0299"/>
</g>
<!-- Russia&#45;&gt;Canada -->
<g id="edge15" class="edge"><title>Russia&#45;&gt;Canada</title>
<path fill="none" stroke="black" stroke-width="3.2" d="M1044.67,-1000.64C919.114,-1041.44 398.618,-1210.56 256.026,-1256.89"/>
<polygon fill="black" stroke="black" stroke-width="3.2" points="248.349,-1259.39 254.845,-1253.49 251.813,-1257.1 255.617,-1255.87 255.957,-1256.91 256.297,-1257.96 252.493,-1259.2 257.07,-1260.34 248.349,-1259.39 248.349,-1259.39"/>
</g>
<!-- Russia&#45;&gt;Unitedstates -->
<g id="edge69" class="edge"><title>Russia&#45;&gt;Unitedstates</title>
<path fill="none" stroke="black" stroke-width="4.5" d="M1058.77,-1010.05C976.201,-1123.69 534.158,-1732.11 439.015,-1863.06"/>
<polygon fill="black" stroke="black" stroke-width="4.5" points="434.245,-1869.63 434.852,-1860.18 435.181,-1865.36 437.532,-1862.13 438.948,-1863.16 440.364,-1864.19 438.012,-1867.42 443.043,-1866.13 434.245,-1869.63 434.245,-1869.63"/>
</g>
<!-- Romania -->
<g id="node31" class="node"><title>Romania</title>
<polygon fill="none" stroke="black" points="1520.68,-97.539 1454.68,-97.539 1454.68,-61.539 1520.68,-61.539 1520.68,-97.539"/>
<text text-anchor="middle" x="1487.68" y="-75.839" font-family="Times,serif" font-size="14.00">Romania</text>
</g>
<!-- Russia&#45;&gt;Romania -->
<g id="edge35" class="edge"><title>Russia&#45;&gt;Romania</title>
<path fill="none" stroke="black" stroke-width="3.6" d="M1080.37,-973.522C1132.53,-859.039 1414.76,-239.578 1475.97,-105.246"/>
<polygon fill="black" stroke="black" stroke-width="3.6" points="1479.36,-97.804 1479.73,-106.763 1478.88,-101.983 1477.23,-105.623 1476.04,-105.084 1474.86,-104.545 1476.52,-100.905 1472.36,-103.405 1479.36,-97.804 1479.36,-97.804"/>
</g>
<!-- Lithuania -->
<g id="node40" class="node"><title>Lithuania</title>
<polygon fill="none" stroke="black" points="1640.59,-169.427 1572.59,-169.427 1572.59,-133.427 1640.59,-133.427 1640.59,-169.427"/>
<text text-anchor="middle" x="1606.59" y="-147.727" font-family="Times,serif" font-size="14.00">Lithuania</text>
</g>
<!-- Russia&#45;&gt;Lithuania -->
<g id="edge98" class="edge"><title>Russia&#45;&gt;Lithuania</title>
<path fill="none" stroke="black" stroke-width="5.6" d="M1083.73,-973.411C1153.04,-864.454 1510.48,-302.528 1590.63,-176.522"/>
<polygon fill="black" stroke="black" stroke-width="5.6" points="1595.09,-169.518 1596.11,-179.65 1594.88,-174.128 1592.73,-177.503 1590.79,-176.268 1588.85,-175.034 1591,-171.659 1585.48,-172.887 1595.09,-169.518 1595.09,-169.518"/>
</g>
<!-- Armenia -->
<g id="node42" class="node"><title>Armenia</title>
<polygon fill="none" stroke="black" points="1750.7,-251.367 1685.7,-251.367 1685.7,-215.367 1750.7,-215.367 1750.7,-251.367"/>
<text text-anchor="middle" x="1718.2" y="-229.667" font-family="Times,serif" font-size="14.00">Armenia</text>
</g>
<!-- Russia&#45;&gt;Armenia -->
<g id="edge73" class="edge"><title>Russia&#45;&gt;Armenia</title>
<path fill="none" stroke="black" stroke-width="4.7" d="M1087.72,-973.373C1174.73,-871.25 1598.5,-373.86 1697.49,-257.672"/>
<polygon fill="black" stroke="black" stroke-width="4.7" points="1702.75,-251.496 1701.59,-261.015 1701.57,-255.741 1698.97,-258.785 1697.56,-257.586 1696.15,-256.386 1698.75,-253.341 1693.54,-254.157 1702.75,-251.496 1702.75,-251.496"/>
</g>
<!-- Moldova -->
<g id="node45" class="node"><title>Moldova</title>
<polygon fill="none" stroke="black" points="1854.32,-342.251 1788.32,-342.251 1788.32,-306.251 1854.32,-306.251 1854.32,-342.251"/>
<text text-anchor="middle" x="1821.32" y="-320.551" font-family="Times,serif" font-size="14.00">Moldova</text>
</g>
<!-- Russia&#45;&gt;Moldova -->
<g id="edge86" class="edge"><title>Russia&#45;&gt;Moldova</title>
<path fill="none" stroke="black" stroke-width="5.1" d="M1092.5,-973.544C1197.56,-879.94 1676.74,-453.057 1794.91,-347.774"/>
<polygon fill="black" stroke="black" stroke-width="5.1" points="1800.91,-342.435 1798.75,-352.04 1799.28,-346.626 1796.3,-349.287 1794.93,-347.756 1793.57,-346.226 1796.56,-343.565 1791.12,-343.472 1800.91,-342.435 1800.91,-342.435"/>
</g>
<!-- Austria&#45;&gt;Germany -->
<g id="edge96" class="edge"><title>Austria&#45;&gt;Germany</title>
<path fill="none" stroke="black" stroke-width="5.5" d="M326.671,-1103.72C405.229,-1068.49 626.037,-956.17 711.836,-908.016"/>
<polygon fill="black" stroke="black" stroke-width="5.5" points="718.988,-903.972 715.069,-913.296 716.613,-907.899 713.131,-909.868 712.024,-907.91 710.916,-905.951 714.398,-903.982 708.978,-902.524 718.988,-903.972 718.988,-903.972"/>
</g>
<!-- Austria&#45;&gt;Austria -->
<g id="edge111" class="edge"><title>Austria&#45;&gt;Austria</title>
<path fill="none" stroke="black" stroke-width="6.1" d="M326.734,-1121.02C336.526,-1121.09 344.434,-1118.85 344.434,-1114.28 344.434,-1111.06 340.525,-1109 334.799,-1108.08"/>
<polygon fill="black" stroke="black" stroke-width="6.1" points="326.734,-1107.53 335.182,-1101.22 330.898,-1105.25 334.889,-1105.53 334.715,-1108.07 334.542,-1110.62 330.551,-1110.34 334.248,-1114.92 326.734,-1107.53 326.734,-1107.53"/>
</g>
<!-- Austria&#45;&gt;Canada -->
<g id="edge5" class="edge"><title>Austria&#45;&gt;Canada</title>
<path fill="none" stroke="black" stroke-width="3.1" d="M289.256,-1132.29C275.356,-1159.57 248.9,-1211.49 232.945,-1242.81"/>
<polygon fill="black" stroke="black" stroke-width="3.1" points="229.128,-1250.3 229.553,-1241.53 230.009,-1246.26 231.825,-1242.69 232.76,-1243.17 233.696,-1243.64 231.88,-1247.21 235.968,-1244.8 229.128,-1250.3 229.128,-1250.3"/>
</g>
<!-- Austria&#45;&gt;Unitedstates -->
<g id="edge72" class="edge"><title>Austria&#45;&gt;Unitedstates</title>
<path fill="none" stroke="black" stroke-width="4.7" d="M301.342,-1132.64C317.64,-1235.54 397.594,-1740.34 416.808,-1861.66"/>
<polygon fill="black" stroke="black" stroke-width="4.7" points="418.085,-1869.72 411.611,-1862.64 415.632,-1866.06 415.006,-1862.11 416.833,-1861.82 418.66,-1861.53 419.286,-1865.48 422.056,-1860.99 418.085,-1869.72 418.085,-1869.72"/>
</g>
<!-- Canada&#45;&gt;Germany -->
<g id="edge57" class="edge"><title>Canada&#45;&gt;Germany</title>
<path fill="none" stroke="black" stroke-width="4.2" d="M248.483,-1251.75C341.154,-1190.26 631.089,-979.64 720.221,-909.097"/>
<polygon fill="black" stroke="black" stroke-width="4.2" points="726.529,-904.068 723.219,-912.75 724.399,-907.813 721.271,-910.306 720.273,-909.055 719.276,-907.804 722.404,-905.31 717.328,-905.36 726.529,-904.068 726.529,-904.068"/>
</g>
<!-- Canada&#45;&gt;Canada -->
<g id="edge114" class="edge"><title>Canada&#45;&gt;Canada</title>
<path fill="none" stroke="black" stroke-width="6.4" d="M248.371,-1275.42C258.27,-1275.49 266.264,-1273.24 266.264,-1268.67 266.264,-1265.46 262.312,-1263.39 256.525,-1262.48"/>
<polygon fill="black" stroke="black" stroke-width="6.4" points="248.371,-1261.93 256.838,-1255.28 252.544,-1259.5 256.535,-1259.77 256.353,-1262.46 256.172,-1265.16 252.181,-1264.89 255.869,-1269.65 248.371,-1261.93 248.371,-1261.93"/>
</g>
<!-- Canada&#45;&gt;Unitedstates -->
<g id="edge106" class="edge"><title>Canada&#45;&gt;Unitedstates</title>
<path fill="none" stroke="black" stroke-width="5.8" d="M223.139,-1286.96C246.045,-1375.48 370.551,-1759.22 409.556,-1862.33"/>
<polygon fill="black" stroke="black" stroke-width="5.8" points="412.427,-1869.81 403.468,-1864.68 408.753,-1866.93 407.319,-1863.2 409.56,-1862.34 411.8,-1861.48 413.234,-1865.21 415.651,-1860 412.427,-1869.81 412.427,-1869.81"/>
</g>
<!-- Southafrica -->
<g id="node9" class="node"><title>Southafrica</title>
<polygon fill="none" stroke="black" points="232.157,-1457.83 153.157,-1457.83 153.157,-1421.83 232.157,-1421.83 232.157,-1457.83"/>
<text text-anchor="middle" x="192.657" y="-1436.13" font-family="Times,serif" font-size="14.00">Southafrica</text>
</g>
<!-- Southafrica&#45;&gt;Canada -->
<g id="edge6" class="edge"><title>Southafrica&#45;&gt;Canada</title>
<path fill="none" stroke="black" stroke-width="3.1" d="M195.558,-1421.51C200.368,-1391.14 210.013,-1330.24 215.566,-1295.18"/>
<polygon fill="black" stroke="black" stroke-width="3.1" points="216.884,-1286.86 219.188,-1295.32 217.296,-1290.97 216.67,-1294.92 215.633,-1294.76 214.596,-1294.6 215.221,-1290.64 212.077,-1294.2 216.884,-1286.86 216.884,-1286.86"/>
</g>
<!-- Southafrica&#45;&gt;Southafrica -->
<g id="edge65" class="edge"><title>Southafrica&#45;&gt;Southafrica</title>
<path fill="none" stroke="black" stroke-width="4.4" d="M232.162,-1446.51C242.421,-1446.1 250.157,-1443.87 250.157,-1439.83 250.157,-1436.98 246.332,-1435.04 240.496,-1433.99"/>
<polygon fill="black" stroke="black" stroke-width="4.4" points="232.162,-1433.14 240.621,-1429.03 236.314,-1431.86 240.293,-1432.26 240.121,-1433.95 239.95,-1435.64 235.97,-1435.24 239.622,-1438.88 232.162,-1433.14 232.162,-1433.14"/>
</g>
<!-- Southafrica&#45;&gt;Unitedstates -->
<g id="edge12" class="edge"><title>Southafrica&#45;&gt;Unitedstates</title>
<path fill="none" stroke="black" stroke-width="3.2" d="M201.889,-1457.95C237.53,-1527.89 366.223,-1780.47 407.866,-1862.2"/>
<polygon fill="black" stroke="black" stroke-width="3.2" points="411.618,-1869.56 404.778,-1864.07 408.822,-1866.5 407.006,-1862.93 407.986,-1862.43 408.966,-1861.93 410.782,-1865.5 411.194,-1860.8 411.618,-1869.56 411.618,-1869.56"/>
</g>
<!-- India -->
<g id="node10" class="node"><title>India</title>
<polygon fill="none" stroke="black" points="1099.07,-1905.91 1045.07,-1905.91 1045.07,-1869.91 1099.07,-1869.91 1099.07,-1905.91"/>
<text text-anchor="middle" x="1072.07" y="-1884.21" font-family="Times,serif" font-size="14.00">India</text>
</g>
<!-- India&#45;&gt;Canada -->
<g id="edge38" class="edge"><title>India&#45;&gt;Canada</title>
<path fill="none" stroke="black" stroke-width="3.6" d="M1047.02,-1869.71C924.394,-1780.62 387.748,-1390.72 251.373,-1291.64"/>
<polygon fill="black" stroke="black" stroke-width="3.6" points="244.812,-1286.87 253.665,-1288.3 248.812,-1288.17 252.048,-1290.52 251.284,-1291.57 250.52,-1292.63 247.284,-1290.27 248.904,-1294.85 244.812,-1286.87 244.812,-1286.87"/>
</g>
<!-- India&#45;&gt;India -->
<g id="edge101" class="edge"><title>India&#45;&gt;India</title>
<path fill="none" stroke="black" stroke-width="5.7" d="M1099.31,-1894.65C1109.09,-1894.8 1117.07,-1892.55 1117.07,-1887.91 1117.07,-1884.64 1113.12,-1882.56 1107.38,-1881.67"/>
<polygon fill="black" stroke="black" stroke-width="5.7" points="1099.31,-1881.16 1107.69,-1875.26 1103.45,-1879.07 1107.44,-1879.32 1107.29,-1881.66 1107.15,-1884.01 1103.15,-1883.76 1106.89,-1888.06 1099.31,-1881.16 1099.31,-1881.16"/>
</g>
<!-- India&#45;&gt;Switzerland -->
<g id="edge7" class="edge"><title>India&#45;&gt;Switzerland</title>
<path fill="none" stroke="black" stroke-width="3.1" d="M1090.15,-1869.83C1111.5,-1848.47 1147.1,-1812.87 1170.71,-1789.26"/>
<polygon fill="black" stroke="black" stroke-width="3.1" points="1176.44,-1783.53 1173.33,-1791.73 1174.36,-1787.1 1171.53,-1789.93 1170.79,-1789.19 1170.04,-1788.44 1172.87,-1785.62 1168.24,-1786.64 1176.44,-1783.53 1176.44,-1783.53"/>
</g>
<!-- India&#45;&gt;Unitedkingdom -->
<g id="edge13" class="edge"><title>India&#45;&gt;Unitedkingdom</title>
<path fill="none" stroke="black" stroke-width="3.2" d="M1044.94,-1895.99C1018.06,-1907.47 977.01,-1928.18 948.821,-1944.32"/>
<polygon fill="black" stroke="black" stroke-width="3.2" points="941.591,-1948.52 946.695,-1941.39 944.495,-1945.56 947.952,-1943.55 948.506,-1944.5 949.059,-1945.45 945.602,-1947.46 950.316,-1947.61 941.591,-1948.52 941.591,-1948.52"/>
</g>
<!-- India&#45;&gt;Unitedstates -->
<g id="edge108" class="edge"><title>India&#45;&gt;Unitedstates</title>
<path fill="none" stroke="black" stroke-width="5.9" d="M1044.92,-1884.99C945.535,-1880.19 600.603,-1879.9 470.843,-1884.1"/>
<polygon fill="black" stroke="black" stroke-width="5.9" points="462.611,-1884.39 470.378,-1877.48 466.525,-1881.8 470.522,-1881.66 470.607,-1884.11 470.691,-1886.56 466.693,-1886.7 470.835,-1890.74 462.611,-1884.39 462.611,-1884.39"/>
</g>
<!-- Switzerland&#45;&gt;Germany -->
<g id="edge66" class="edge"><title>Switzerland&#45;&gt;Germany</title>
<path fill="none" stroke="black" stroke-width="4.4" d="M1187.68,-1747.27C1137.66,-1635.65 835.31,-1041.93 762.277,-911.359"/>
<polygon fill="black" stroke="black" stroke-width="4.4" points="758.189,-904.115 766.432,-908.649 761.635,-906.763 763.601,-910.247 762.121,-911.082 760.64,-911.918 758.674,-908.434 757.81,-913.515 758.189,-904.115 758.189,-904.115"/>
</g>
<!-- Switzerland&#45;&gt;Switzerland -->
<g id="edge122" class="edge"><title>Switzerland&#45;&gt;Switzerland</title>
<path fill="none" stroke="black" stroke-width="7.5" d="M1235.33,-1772.03C1245.5,-1771.57 1253.1,-1769.35 1253.1,-1765.38 1253.1,-1762.58 1249.34,-1760.66 1243.58,-1759.6"/>
<polygon fill="black" stroke="black" stroke-width="7.5" points="1235.33,-1758.72 1244.18,-1751.18 1239.65,-1755.91 1243.63,-1756.33 1243.29,-1759.57 1242.94,-1762.8 1238.97,-1762.37 1242.39,-1767.96 1235.33,-1758.72 1235.33,-1758.72"/>
</g>
<!-- Switzerland&#45;&gt;Unitedstates -->
<g id="edge107" class="edge"><title>Switzerland&#45;&gt;Unitedstates</title>
<path fill="none" stroke="black" stroke-width="5.9" d="M1153.86,-1768.57C1022.99,-1784.64 613.498,-1849.39 470.69,-1876.44"/>
<polygon fill="black" stroke="black" stroke-width="5.9" points="462.478,-1878.01 469.088,-1869.99 465.946,-1874.86 469.875,-1874.1 470.335,-1876.51 470.796,-1878.92 466.867,-1879.67 471.583,-1883.03 462.478,-1878.01 462.478,-1878.01"/>
</g>
<!-- Belgium -->
<g id="node18" class="node"><title>Belgium</title>
<polygon fill="none" stroke="black" points="330.434,-1783.38 266.434,-1783.38 266.434,-1747.38 330.434,-1747.38 330.434,-1783.38"/>
<text text-anchor="middle" x="298.434" y="-1761.68" font-family="Times,serif" font-size="14.00">Belgium</text>
</g>
<!-- Switzerland&#45;&gt;Belgium -->
<g id="edge68" class="edge"><title>Switzerland&#45;&gt;Belgium</title>
<path fill="none" stroke="black" stroke-width="4.4" d="M1154.06,-1765.38C1004.91,-1765.38 487.633,-1765.38 338.79,-1765.38"/>
<polygon fill="black" stroke="black" stroke-width="4.4" points="330.748,-1765.38 338.748,-1760.43 334.748,-1763.68 338.748,-1763.68 338.748,-1765.38 338.748,-1767.08 334.748,-1767.08 338.748,-1770.33 330.748,-1765.38 330.748,-1765.38"/>
</g>
<!-- Brazil&#45;&gt;Brazil -->
<g id="edge58" class="edge"><title>Brazil&#45;&gt;Brazil</title>
<path fill="none" stroke="black" stroke-width="4.2" d="M602.605,-919.817C612.388,-919.962 620.364,-917.715 620.364,-913.074 620.364,-909.811 616.421,-907.731 610.679,-906.834"/>
<polygon fill="black" stroke="black" stroke-width="4.2" points="602.605,-906.331 610.883,-902.113 606.697,-904.983 610.689,-905.232 610.589,-906.829 610.49,-908.425 606.497,-908.176 610.295,-911.544 602.605,-906.331 602.605,-906.331"/>
</g>
<!-- Unitedkingdom&#45;&gt;Canada -->
<g id="edge99" class="edge"><title>Unitedkingdom&#45;&gt;Canada</title>
<path fill="none" stroke="black" stroke-width="5.6" d="M899.359,-1948.27C802.792,-1851.7 352.932,-1401.84 243.706,-1292.62"/>
<polygon fill="black" stroke="black" stroke-width="5.6" points="237.881,-1286.79 247.993,-1287.99 242.336,-1287.99 245.164,-1290.82 243.538,-1292.45 241.912,-1294.07 239.083,-1291.25 239.083,-1296.9 237.881,-1286.79 237.881,-1286.79"/>
</g>
<!-- Unitedkingdom&#45;&gt;India -->
<g id="edge89" class="edge"><title>Unitedkingdom&#45;&gt;India</title>
<path fill="none" stroke="black" stroke-width="5.3" d="M966.828,-1948.54C991.038,-1937.12 1019.5,-1922.42 1040.72,-1910.28"/>
<polygon fill="black" stroke="black" stroke-width="5.3" points="1047.91,-1906.1 1043.99,-1915.27 1045.53,-1909.97 1042.07,-1911.98 1040.99,-1910.12 1039.91,-1908.26 1043.37,-1906.25 1038,-1904.96 1047.91,-1906.1 1047.91,-1906.1"/>
</g>
<!-- Unitedkingdom&#45;&gt;Unitedkingdom -->
<g id="edge125" class="edge"><title>Unitedkingdom&#45;&gt;Unitedkingdom</title>
<path fill="none" stroke="black" stroke-width="8.4" d="M968.822,-1973.07C979.221,-1972.36 986.668,-1970.2 986.668,-1966.58 986.668,-1963.97 982.821,-1962.12 976.796,-1961.03"/>
<polygon fill="black" stroke="black" stroke-width="8.4" points="968.822,-1960.08 977.876,-1951.64 973.229,-1956.88 977.201,-1957.35 976.767,-1961.02 976.333,-1964.7 972.36,-1964.23 975.658,-1970.41 968.822,-1960.08 968.822,-1960.08"/>
</g>
<!-- Unitedkingdom&#45;&gt;Greece -->
<g id="edge24" class="edge"><title>Unitedkingdom&#45;&gt;Greece</title>
<path fill="none" stroke="black" stroke-width="3.3" d="M866.421,-1966.58C796.239,-1966.58 671.999,-1966.58 611.072,-1966.58"/>
<polygon fill="black" stroke="black" stroke-width="3.3" points="602.908,-1966.58 610.908,-1962.86 606.908,-1965.43 610.908,-1965.43 610.908,-1966.58 610.908,-1967.73 606.908,-1967.73 610.908,-1970.29 602.908,-1966.58 602.908,-1966.58"/>
</g>
<!-- Unitedkingdom&#45;&gt;Netherlands -->
<g id="edge59" class="edge"><title>Unitedkingdom&#45;&gt;Netherlands</title>
<path fill="none" stroke="black" stroke-width="4.3" d="M888.581,-1948.42C780.82,-1888.11 403.779,-1695.76 268.512,-1631.77"/>
<polygon fill="black" stroke="black" stroke-width="4.3" points="261.103,-1628.28 270.401,-1627.31 265.424,-1628.49 269.043,-1630.2 268.34,-1631.69 267.637,-1633.18 264.018,-1631.48 266.279,-1636.07 261.103,-1628.28 261.103,-1628.28"/>
</g>
<!-- Unitedkingdom&#45;&gt;Unitedstates -->
<g id="edge120" class="edge"><title>Unitedkingdom&#45;&gt;Unitedstates</title>
<path fill="none" stroke="black" stroke-width="7.4" d="M866.594,-1954.11C770.772,-1935.62 565.194,-1903.1 470.535,-1891.48"/>
<polygon fill="black" stroke="black" stroke-width="7.4" points="462.546,-1890.52 471.484,-1883.21 466.9,-1887.82 470.871,-1888.3 470.489,-1891.48 470.106,-1894.65 466.135,-1894.17 469.494,-1899.74 462.546,-1890.52 462.546,-1890.52"/>
</g>
<!-- France -->
<g id="node25" class="node"><title>France</title>
<polygon fill="none" stroke="black" points="1300.27,-1286.67 1246.27,-1286.67 1246.27,-1250.67 1300.27,-1250.67 1300.27,-1286.67"/>
<text text-anchor="middle" x="1273.27" y="-1264.97" font-family="Times,serif" font-size="14.00">France</text>
</g>
<!-- Unitedkingdom&#45;&gt;France -->
<g id="edge32" class="edge"><title>Unitedkingdom&#45;&gt;France</title>
<path fill="none" stroke="black" stroke-width="3.6" d="M926.996,-1948.27C976.004,-1852.09 1203.59,-1405.42 1260.4,-1293.94"/>
<polygon fill="black" stroke="black" stroke-width="3.6" points="1264.04,-1286.79 1264.01,-1295.76 1263.38,-1290.94 1261.56,-1294.51 1260.4,-1293.92 1259.25,-1293.33 1261.06,-1289.76 1256.8,-1292.08 1264.04,-1286.79 1264.04,-1286.79"/>
</g>
<!-- Australia -->
<g id="node30" class="node"><title>Australia</title>
<polygon fill="none" stroke="black" points="779.516,-2011.68 713.516,-2011.68 713.516,-1975.68 779.516,-1975.68 779.516,-2011.68"/>
<text text-anchor="middle" x="746.516" y="-1989.98" font-family="Times,serif" font-size="14.00">Australia</text>
</g>
<!-- Unitedkingdom&#45;&gt;Australia -->
<g id="edge105" class="edge"><title>Unitedkingdom&#45;&gt;Australia</title>
<path fill="none" stroke="black" stroke-width="5.8" d="M866.27,-1968.42C841.182,-1971.59 811.407,-1976.4 787.821,-1981.16"/>
<polygon fill="black" stroke="black" stroke-width="5.8" points="779.754,-1982.83 786.26,-1974.82 783.183,-1979.67 787.099,-1978.85 787.587,-1981.2 788.075,-1983.55 784.159,-1984.37 788.914,-1987.59 779.754,-1982.83 779.754,-1982.83"/>
</g>
<!-- Netherlands&#45;&gt;Canada -->
<g id="edge46" class="edge"><title>Netherlands&#45;&gt;Canada</title>
<path fill="none" stroke="black" stroke-width="3.8" d="M219.764,-1592.57C219.764,-1535.56 219.764,-1361.71 219.764,-1295.06"/>
<polygon fill="black" stroke="black" stroke-width="3.8" points="219.764,-1286.75 224.04,-1294.75 221.165,-1290.75 221.165,-1294.75 219.765,-1294.75 218.365,-1294.75 218.365,-1290.75 215.49,-1294.75 219.764,-1286.75 219.764,-1286.75"/>
</g>
<!-- Netherlands&#45;&gt;Southafrica -->
<g id="edge42" class="edge"><title>Netherlands&#45;&gt;Southafrica</title>
<path fill="none" stroke="black" stroke-width="3.6" d="M216.863,-1592.66C212.054,-1562.29 202.409,-1501.4 196.855,-1466.33"/>
<polygon fill="black" stroke="black" stroke-width="3.6" points="195.537,-1458.01 200.789,-1465.28 197.447,-1461.76 198.072,-1465.71 196.788,-1465.91 195.504,-1466.11 194.879,-1462.16 192.788,-1466.55 195.537,-1458.01 195.537,-1458.01"/>
</g>
<!-- Netherlands&#45;&gt;Unitedkingdom -->
<g id="edge11" class="edge"><title>Netherlands&#45;&gt;Unitedkingdom</title>
<path fill="none" stroke="black" stroke-width="3.1" d="M248.852,-1629.13C356.108,-1689.16 730.127,-1880 867.004,-1944.88"/>
<polygon fill="black" stroke="black" stroke-width="3.1" points="874.509,-1948.42 865.738,-1948.26 870.444,-1947.66 866.827,-1945.95 867.275,-1945 867.723,-1944.05 871.34,-1945.76 868.812,-1941.75 874.509,-1948.42 874.509,-1948.42"/>
</g>
<!-- Netherlands&#45;&gt;Netherlands -->
<g id="edge124" class="edge"><title>Netherlands&#45;&gt;Netherlands</title>
<path fill="none" stroke="black" stroke-width="7.9" d="M260.848,-1617.63C271.101,-1617.17 278.764,-1614.95 278.764,-1610.98 278.764,-1608.18 274.976,-1606.26 269.162,-1605.2"/>
<polygon fill="black" stroke="black" stroke-width="7.9" points="260.848,-1604.32 269.737,-1596.32 265.188,-1601.31 269.166,-1601.73 268.803,-1605.16 268.441,-1608.59 264.463,-1608.17 267.87,-1614 260.848,-1604.32 260.848,-1604.32"/>
</g>
<!-- Netherlands&#45;&gt;Unitedstates -->
<g id="edge94" class="edge"><title>Netherlands&#45;&gt;Unitedstates</title>
<path fill="none" stroke="black" stroke-width="5.5" d="M228.721,-1629.05C258.527,-1677.22 353.469,-1808.37 397.866,-1863.28"/>
<polygon fill="black" stroke="black" stroke-width="5.5" points="403.021,-1869.59 393.168,-1867.31 398.748,-1867.92 396.217,-1864.82 397.959,-1863.4 399.701,-1861.97 402.232,-1865.07 402.749,-1859.48 403.021,-1869.59 403.021,-1869.59"/>
</g>
<!-- Netherlands&#45;&gt;Belgium -->
<g id="edge52" class="edge"><title>Netherlands&#45;&gt;Belgium</title>
<path fill="none" stroke="black" stroke-width="4" d="M224.169,-1629.18C235.002,-1656.7 261.217,-1708.88 279.567,-1740.07"/>
<polygon fill="black" stroke="black" stroke-width="4" points="283.816,-1747.15 275.839,-1742.61 280.471,-1744.49 278.411,-1741.06 279.697,-1740.29 280.983,-1739.52 283.042,-1742.95 283.554,-1737.97 283.816,-1747.15 283.816,-1747.15"/>
</g>
<!-- Unitedstates&#45;&gt;Germany -->
<g id="edge91" class="edge"><title>Unitedstates&#45;&gt;Germany</title>
<path fill="none" stroke="black" stroke-width="5.5" d="M428.948,-1869.85C474.795,-1748.84 699.851,-1056.54 740.412,-912.291"/>
<polygon fill="black" stroke="black" stroke-width="5.5" points="742.613,-904.332 746.444,-913.692 743.715,-908.787 742.649,-912.642 740.481,-912.043 738.312,-911.443 739.378,-907.587 734.517,-910.393 742.613,-904.332 742.613,-904.332"/>
</g>
<!-- Unitedstates&#45;&gt;Canada -->
<g id="edge118" class="edge"><title>Unitedstates&#45;&gt;Canada</title>
<path fill="none" stroke="black" stroke-width="7.1" d="M417.591,-1869.62C394.685,-1781.1 270.179,-1397.36 231.174,-1294.25"/>
<polygon fill="black" stroke="black" stroke-width="7.1" points="228.303,-1286.77 238.627,-1291.38 232.584,-1289.41 234.018,-1293.15 231.17,-1294.24 228.323,-1295.34 226.889,-1291.6 223.714,-1297.1 228.303,-1286.77 228.303,-1286.77"/>
</g>
<!-- Unitedstates&#45;&gt;India -->
<g id="edge90" class="edge"><title>Unitedstates&#45;&gt;India</title>
<path fill="none" stroke="black" stroke-width="5.4" d="M462.685,-1891.43C582.362,-1895.81 925.342,-1895.73 1036.69,-1891.18"/>
<polygon fill="black" stroke="black" stroke-width="5.4" points="1044.91,-1890.82 1037.19,-1897.24 1041.02,-1893.2 1037.02,-1893.37 1036.92,-1891.17 1036.82,-1888.98 1040.82,-1888.8 1036.65,-1885.11 1044.91,-1890.82 1044.91,-1890.82"/>
</g>
<!-- Unitedstates&#45;&gt;Switzerland -->
<g id="edge78" class="edge"><title>Unitedstates&#45;&gt;Switzerland</title>
<path fill="none" stroke="black" stroke-width="4.8" d="M462.521,-1884.61C594.477,-1868.35 1003.62,-1803.64 1145.53,-1776.72"/>
<polygon fill="black" stroke="black" stroke-width="4.8" points="1153.69,-1775.15 1146.85,-1781.96 1150.12,-1777.77 1146.19,-1778.52 1145.83,-1776.66 1145.47,-1774.79 1149.4,-1774.04 1144.82,-1771.35 1153.69,-1775.15 1153.69,-1775.15"/>
</g>
<!-- Unitedstates&#45;&gt;Brazil -->
<g id="edge83" class="edge"><title>Unitedstates&#45;&gt;Brazil</title>
<path fill="none" stroke="black" stroke-width="5" d="M423.844,-1869.73C442.728,-1750.51 548.809,-1080.74 571.21,-939.303"/>
<polygon fill="black" stroke="black" stroke-width="5" points="572.505,-931.124 576.809,-939.905 573.855,-935.388 573.229,-939.338 571.254,-939.025 569.278,-938.713 569.904,-934.762 565.698,-938.145 572.505,-931.124 572.505,-931.124"/>
</g>
<!-- Unitedstates&#45;&gt;Unitedkingdom -->
<g id="edge102" class="edge"><title>Unitedstates&#45;&gt;Unitedkingdom</title>
<path fill="none" stroke="black" stroke-width="5.7" d="M462.692,-1898.54C550.885,-1916.05 756.462,-1948.8 858.311,-1961.78"/>
<polygon fill="black" stroke="black" stroke-width="5.7" points="866.353,-1962.79 857.616,-1968.15 862.091,-1964.62 858.122,-1964.12 858.415,-1961.79 858.708,-1959.46 862.677,-1959.96 859.214,-1955.43 866.353,-1962.79 866.353,-1962.79"/>
</g>
<!-- Unitedstates&#45;&gt;Greece -->
<g id="edge33" class="edge"><title>Unitedstates&#45;&gt;Greece</title>
<path fill="none" stroke="black" stroke-width="3.6" d="M456.388,-1905.96C481.67,-1918.84 515.506,-1936.08 540.63,-1948.88"/>
<polygon fill="black" stroke="black" stroke-width="3.6" points="547.8,-1952.53 538.833,-1952.51 543.645,-1951.87 540.081,-1950.06 540.672,-1948.9 541.262,-1947.74 544.826,-1949.56 542.51,-1945.29 547.8,-1952.53 547.8,-1952.53"/>
</g>
<!-- Unitedstates&#45;&gt;Netherlands -->
<g id="edge93" class="edge"><title>Unitedstates&#45;&gt;Netherlands</title>
<path fill="none" stroke="black" stroke-width="5.5" d="M412.01,-1869.84C382.203,-1821.67 287.261,-1690.51 242.864,-1635.6"/>
<polygon fill="black" stroke="black" stroke-width="5.5" points="237.709,-1629.29 247.562,-1631.57 241.982,-1630.97 244.514,-1634.06 242.771,-1635.49 241.029,-1636.91 238.498,-1633.82 237.981,-1639.4 237.709,-1629.29 237.709,-1629.29"/>
</g>
<!-- Unitedstates&#45;&gt;Unitedstates -->
<g id="edge127" class="edge"><title>Unitedstates&#45;&gt;Unitedstates</title>
<path fill="none" stroke="black" stroke-width="8.6" d="M462.671,-1894.55C472.873,-1894.06 480.466,-1891.84 480.466,-1887.91 480.466,-1885.14 476.712,-1883.22 470.937,-1882.16"/>
<polygon fill="black" stroke="black" stroke-width="8.6" points="462.671,-1881.26 471.665,-1872.5 467.056,-1877.91 471.033,-1878.34 470.624,-1882.12 470.216,-1885.9 466.239,-1885.47 469.584,-1891.74 462.671,-1881.26 462.671,-1881.26"/>
</g>
<!-- Unitedstates&#45;&gt;Belgium -->
<g id="edge61" class="edge"><title>Unitedstates&#45;&gt;Belgium</title>
<path fill="none" stroke="black" stroke-width="4.3" d="M402.886,-1869.83C381.529,-1848.47 345.927,-1812.87 322.317,-1789.26"/>
<polygon fill="black" stroke="black" stroke-width="4.3" points="316.588,-1783.53 325.666,-1785.77 320.584,-1785.19 323.412,-1788.02 322.245,-1789.19 321.079,-1790.35 318.25,-1787.52 318.825,-1792.61 316.588,-1783.53 316.588,-1783.53"/>
</g>
<!-- Newzealand -->
<g id="node19" class="node"><title>Newzealand</title>
<polygon fill="none" stroke="black" points="1047.36,-2128.27 964.36,-2128.27 964.36,-2092.27 1047.36,-2092.27 1047.36,-2128.27"/>
<text text-anchor="middle" x="1005.86" y="-2106.57" font-family="Times,serif" font-size="14.00">Newzealand</text>
</g>
<!-- Unitedstates&#45;&gt;Newzealand -->
<g id="edge18" class="edge"><title>Unitedstates&#45;&gt;Newzealand</title>
<path fill="none" stroke="black" stroke-width="3.2" d="M462.561,-1903.72C567.672,-1943.68 843.591,-2048.58 956.56,-2091.53"/>
<polygon fill="black" stroke="black" stroke-width="3.2" points="964.085,-2094.39 955.328,-2094.91 959.956,-2094 956.217,-2092.58 956.608,-2091.55 956.998,-2090.52 960.737,-2091.94 957.887,-2088.18 964.085,-2094.39 964.085,-2094.39"/>
</g>
<!-- Poland -->
<g id="node20" class="node"><title>Poland</title>
<polygon fill="none" stroke="black" points="826.883,-2108.5 772.883,-2108.5 772.883,-2072.5 826.883,-2072.5 826.883,-2108.5"/>
<text text-anchor="middle" x="799.883" y="-2086.8" font-family="Times,serif" font-size="14.00">Poland</text>
</g>
<!-- Unitedstates&#45;&gt;Poland -->
<g id="edge55" class="edge"><title>Unitedstates&#45;&gt;Poland</title>
<path fill="none" stroke="black" stroke-width="4.2" d="M446.767,-1905.92C513.236,-1945.93 690.197,-2040.65 765.366,-2076.58"/>
<polygon fill="black" stroke="black" stroke-width="4.2" points="772.742,-2080.07 763.49,-2080.92 768.442,-2079.8 764.826,-2078.09 765.511,-2076.65 766.195,-2075.2 769.811,-2076.91 767.531,-2072.37 772.742,-2080.07 772.742,-2080.07"/>
</g>
<!-- Ireland -->
<g id="node22" class="node"><title>Ireland</title>
<polygon fill="none" stroke="black" points="641.112,-2164.29 586.112,-2164.29 586.112,-2128.29 641.112,-2128.29 641.112,-2164.29"/>
<text text-anchor="middle" x="613.612" y="-2142.59" font-family="Times,serif" font-size="14.00">Ireland</text>
</g>
<!-- Unitedstates&#45;&gt;Ireland -->
<g id="edge23" class="edge"><title>Unitedstates&#45;&gt;Ireland</title>
<path fill="none" stroke="black" stroke-width="3.3" d="M434.512,-1906.08C468.364,-1951.48 556.685,-2069.94 595.203,-2121.6"/>
<polygon fill="black" stroke="black" stroke-width="3.3" points="600.081,-2128.14 592.323,-2123.95 596.768,-2125.62 594.377,-2122.42 595.299,-2121.73 596.221,-2121.04 598.612,-2124.25 598.275,-2119.51 600.081,-2128.14 600.081,-2128.14"/>
</g>
<!-- Mexico -->
<g id="node23" class="node"><title>Mexico</title>
<polygon fill="none" stroke="black" points="519.15,-2129.23 460.15,-2129.23 460.15,-2093.23 519.15,-2093.23 519.15,-2129.23"/>
<text text-anchor="middle" x="489.65" y="-2107.53" font-family="Times,serif" font-size="14.00">Mexico</text>
</g>
<!-- Unitedstates&#45;&gt;Mexico -->
<g id="edge25" class="edge"><title>Unitedstates&#45;&gt;Mexico</title>
<path fill="none" stroke="black" stroke-width="3.4" d="M426.586,-1906.18C438.767,-1945.78 467.628,-2039.63 481.683,-2085.32"/>
<polygon fill="black" stroke="black" stroke-width="3.4" points="484.048,-2093.01 478.04,-2086.49 481.725,-2089.54 480.549,-2085.72 481.696,-2085.36 482.843,-2085.01 484.019,-2088.84 485.352,-2084.24 484.048,-2093.01 484.048,-2093.01"/>
</g>
<!-- Unitedstates&#45;&gt;France -->
<g id="edge84" class="edge"><title>Unitedstates&#45;&gt;France</title>
<path fill="none" stroke="black" stroke-width="5" d="M450.372,-1869.77C582.272,-1780.74 1118.09,-1391.47 1245.85,-1291.88"/>
<polygon fill="black" stroke="black" stroke-width="5" points="1252.31,-1286.82 1249.48,-1296.18 1250.39,-1290.86 1247.25,-1293.32 1246.01,-1291.75 1244.78,-1290.18 1247.93,-1287.71 1242.54,-1287.32 1252.31,-1286.82 1252.31,-1286.82"/>
</g>
<!-- Israel -->
<g id="node26" class="node"><title>Israel</title>
<polygon fill="none" stroke="black" points="1300.27,-1628.98 1246.27,-1628.98 1246.27,-1592.98 1300.27,-1592.98 1300.27,-1628.98"/>
<text text-anchor="middle" x="1273.27" y="-1607.28" font-family="Times,serif" font-size="14.00">Israel</text>
</g>
<!-- Unitedstates&#45;&gt;Israel -->
<g id="edge104" class="edge"><title>Unitedstates&#45;&gt;Israel</title>
<path fill="none" stroke="black" stroke-width="5.8" d="M462.745,-1877.59C609.954,-1834.94 1102.91,-1674.71 1238.5,-1625.34"/>
<polygon fill="black" stroke="black" stroke-width="5.8" points="1246.17,-1622.53 1240.91,-1631.41 1243.24,-1626.16 1239.49,-1627.54 1238.66,-1625.28 1237.83,-1623.03 1241.59,-1621.65 1236.41,-1619.16 1246.17,-1622.53 1246.17,-1622.53"/>
</g>
<!-- Spain -->
<g id="node28" class="node"><title>Spain</title>
<polygon fill="none" stroke="black" points="1327.38,-1457.83 1273.38,-1457.83 1273.38,-1421.83 1327.38,-1421.83 1327.38,-1457.83"/>
<text text-anchor="middle" x="1300.38" y="-1436.13" font-family="Times,serif" font-size="14.00">Spain</text>
</g>
<!-- Unitedstates&#45;&gt;Spain -->
<g id="edge39" class="edge"><title>Unitedstates&#45;&gt;Spain</title>
<path fill="none" stroke="black" stroke-width="3.6" d="M456.529,-1869.79C598.745,-1797.32 1125.63,-1528.86 1265.89,-1457.4"/>
<polygon fill="black" stroke="black" stroke-width="3.6" points="1273.04,-1453.75 1267.75,-1460.99 1270.07,-1456.73 1266.5,-1458.54 1265.91,-1457.38 1265.32,-1456.23 1268.89,-1454.41 1264.07,-1453.78 1273.04,-1453.75 1273.04,-1453.75"/>
</g>
<!-- Unitedstates&#45;&gt;Australia -->
<g id="edge76" class="edge"><title>Unitedstates&#45;&gt;Australia</title>
<path fill="none" stroke="black" stroke-width="4.8" d="M461.406,-1905.99C523.791,-1929.17 642.81,-1967.8 705.526,-1985.2"/>
<polygon fill="black" stroke="black" stroke-width="4.8" points="713.255,-1987.31 704.114,-1990.41 708.896,-1988.09 705.037,-1987.04 705.538,-1985.2 706.039,-1983.37 709.898,-1984.43 706.962,-1980 713.255,-1987.31 713.255,-1987.31"/>
</g>
<!-- Argentina -->
<g id="node36" class="node"><title>Argentina</title>
<polygon fill="none" stroke="black" points="402.618,-2068.41 331.618,-2068.41 331.618,-2032.41 402.618,-2032.41 402.618,-2068.41"/>
<text text-anchor="middle" x="367.118" y="-2046.71" font-family="Times,serif" font-size="14.00">Argentina</text>
</g>
<!-- Unitedstates&#45;&gt;Argentina -->
<g id="edge49" class="edge"><title>Unitedstates&#45;&gt;Argentina</title>
<path fill="none" stroke="black" stroke-width="3.9" d="M414.997,-1905.92C405.455,-1934.72 386.723,-1991.25 375.731,-2024.42"/>
<polygon fill="black" stroke="black" stroke-width="3.9" points="373.113,-2032.32 371.465,-2023.35 372.995,-2028.07 374.253,-2024.27 375.63,-2024.73 377.006,-2025.18 375.748,-2028.98 379.795,-2026.11 373.113,-2032.32 373.113,-2032.32"/>
</g>
<!-- Georgia -->
<g id="node17" class="node"><title>Georgia</title>
<polygon fill="none" stroke="black" points="840.427,-2237.07 780.427,-2237.07 780.427,-2201.07 840.427,-2201.07 840.427,-2237.07"/>
<text text-anchor="middle" x="810.427" y="-2215.37" font-family="Times,serif" font-size="14.00">Georgia</text>
</g>
<!-- Georgia&#45;&gt;Georgia -->
<g id="edge14" class="edge"><title>Georgia&#45;&gt;Georgia</title>
<path fill="none" stroke="black" stroke-width="3.2" d="M840.427,-2225.82C850.427,-2225.82 858.427,-2223.57 858.427,-2219.07 858.427,-2215.9 854.472,-2213.85 848.648,-2212.91"/>
<polygon fill="black" stroke="black" stroke-width="3.2" points="840.427,-2212.32 848.667,-2209.3 844.496,-2211.51 848.486,-2211.8 848.407,-2212.9 848.327,-2213.99 844.338,-2213.7 848.147,-2216.49 840.427,-2212.32 840.427,-2212.32"/>
</g>
<!-- Georgia&#45;&gt;Poland -->
<g id="edge20" class="edge"><title>Georgia&#45;&gt;Poland</title>
<path fill="none" stroke="black" stroke-width="3.3" d="M808.939,-2200.92C807.133,-2178.91 804.076,-2141.63 802.019,-2116.55"/>
<polygon fill="black" stroke="black" stroke-width="3.3" points="801.364,-2108.56 805.718,-2116.23 802.837,-2112.45 803.164,-2116.43 802.018,-2116.53 800.871,-2116.62 800.544,-2112.64 798.317,-2116.83 801.364,-2108.56 801.364,-2108.56"/>
</g>
<!-- Belgium&#45;&gt;Germany -->
<g id="edge16" class="edge"><title>Belgium&#45;&gt;Germany</title>
<path fill="none" stroke="black" stroke-width="3.2" d="M307.793,-1747.01C364.968,-1634.8 666.918,-1042.19 733.513,-911.486"/>
<polygon fill="black" stroke="black" stroke-width="3.2" points="737.209,-904.233 736.784,-912.995 736.373,-908.296 734.557,-911.86 733.577,-911.361 732.596,-910.861 734.412,-907.297 730.369,-909.726 737.209,-904.233 737.209,-904.233"/>
</g>
<!-- Belgium&#45;&gt;Netherlands -->
<g id="edge21" class="edge"><title>Belgium&#45;&gt;Netherlands</title>
<path fill="none" stroke="black" stroke-width="3.3" d="M294.03,-1747.17C283.197,-1719.65 256.982,-1667.48 238.632,-1636.28"/>
<polygon fill="black" stroke="black" stroke-width="3.3" points="234.383,-1629.21 241.685,-1634.15 237.428,-1632.04 239.488,-1635.47 238.502,-1636.06 237.516,-1636.66 235.457,-1633.23 235.319,-1637.98 234.383,-1629.21 234.383,-1629.21"/>
</g>
<!-- Belgium&#45;&gt;Belgium -->
<g id="edge113" class="edge"><title>Belgium&#45;&gt;Belgium</title>
<path fill="none" stroke="black" stroke-width="6.3" d="M330.655,-1772.12C340.614,-1771.98 348.434,-1769.73 348.434,-1765.38 348.434,-1762.31 344.568,-1760.29 338.81,-1759.31"/>
<polygon fill="black" stroke="black" stroke-width="6.3" points="330.655,-1758.63 339.216,-1752.23 334.861,-1756.32 338.847,-1756.66 338.627,-1759.3 338.407,-1761.94 334.421,-1761.61 338.038,-1766.36 330.655,-1758.63 330.655,-1758.63"/>
</g>
<!-- Poland&#45;&gt;Unitedstates -->
<g id="edge70" class="edge"><title>Poland&#45;&gt;Unitedstates</title>
<path fill="none" stroke="black" stroke-width="4.6" d="M774.081,-2072.49C711.65,-2034.9 551.747,-1949.06 470.263,-1909"/>
<polygon fill="black" stroke="black" stroke-width="4.6" points="462.628,-1905.27 472.088,-1904.14 467.012,-1905.41 470.606,-1907.17 469.816,-1908.78 469.025,-1910.4 465.431,-1908.65 467.544,-1913.43 462.628,-1905.27 462.628,-1905.27"/>
</g>
<!-- Poland&#45;&gt;Poland -->
<g id="edge119" class="edge"><title>Poland&#45;&gt;Poland</title>
<path fill="none" stroke="black" stroke-width="7.2" d="M827.123,-2097.24C836.907,-2097.39 844.883,-2095.14 844.883,-2090.5 844.883,-2087.24 840.939,-2085.16 835.197,-2084.26"/>
<polygon fill="black" stroke="black" stroke-width="7.2" points="827.123,-2083.76 835.612,-2076.17 831.309,-2080.91 835.301,-2081.16 835.108,-2084.25 834.915,-2087.35 830.923,-2087.1 834.604,-2092.34 827.123,-2083.76 827.123,-2083.76"/>
</g>
<!-- Italy -->
<g id="node21" class="node"><title>Italy</title>
<polygon fill="none" stroke="black" points="287.163,-1987.18 233.163,-1987.18 233.163,-1951.18 287.163,-1951.18 287.163,-1987.18"/>
<text text-anchor="middle" x="260.163" y="-1965.48" font-family="Times,serif" font-size="14.00">Italy</text>
</g>
<!-- Italy&#45;&gt;Unitedstates -->
<g id="edge22" class="edge"><title>Italy&#45;&gt;Unitedstates</title>
<path fill="none" stroke="black" stroke-width="3.3" d="M287.441,-1955.4C312.117,-1942.92 348.878,-1924.34 377.584,-1909.83"/>
<polygon fill="black" stroke="black" stroke-width="3.3" points="385.072,-1906.05 379.607,-1912.97 382.021,-1908.88 378.451,-1910.68 377.932,-1909.66 377.414,-1908.63 380.984,-1906.83 376.258,-1906.34 385.072,-1906.05 385.072,-1906.05"/>
</g>
<!-- Italy&#45;&gt;Italy -->
<g id="edge75" class="edge"><title>Italy&#45;&gt;Italy</title>
<path fill="none" stroke="black" stroke-width="4.7" d="M287.404,-1975.93C297.187,-1976.07 305.163,-1973.82 305.163,-1969.18 305.163,-1965.92 301.22,-1963.84 295.478,-1962.94"/>
<polygon fill="black" stroke="black" stroke-width="4.7" points="287.404,-1962.44 295.718,-1957.66 291.511,-1960.84 295.504,-1961.09 295.388,-1962.94 295.273,-1964.78 291.281,-1964.54 295.059,-1968.21 287.404,-1962.44 287.404,-1962.44"/>
</g>
<!-- Croatia -->
<g id="node24" class="node"><title>Croatia</title>
<polygon fill="none" stroke="black" points="774.516,-706.897 718.516,-706.897 718.516,-670.897 774.516,-670.897 774.516,-706.897"/>
<text text-anchor="middle" x="746.516" y="-685.197" font-family="Times,serif" font-size="14.00">Croatia</text>
</g>
<!-- Croatia&#45;&gt;Germany -->
<g id="edge26" class="edge"><title>Croatia&#45;&gt;Germany</title>
<path fill="none" stroke="black" stroke-width="3.4" d="M746.516,-707.084C746.516,-742.133 746.516,-819.15 746.516,-859.743"/>
<polygon fill="black" stroke="black" stroke-width="3.4" points="746.516,-867.824 742.691,-859.824 745.316,-863.824 745.316,-859.824 746.516,-859.824 747.716,-859.824 747.716,-863.824 750.341,-859.824 746.516,-867.824 746.516,-867.824"/>
</g>
<!-- Croatia&#45;&gt;Croatia -->
<g id="edge36" class="edge"><title>Croatia&#45;&gt;Croatia</title>
<path fill="none" stroke="black" stroke-width="3.6" d="M774.815,-695.645C784.608,-695.717 792.516,-693.467 792.516,-688.897 792.516,-685.684 788.606,-683.617 782.881,-682.699"/>
<polygon fill="black" stroke="black" stroke-width="3.6" points="774.815,-682.149 783.072,-678.653 778.894,-681.124 782.885,-681.396 782.797,-682.693 782.708,-683.99 778.718,-683.718 782.521,-686.734 774.815,-682.149 774.815,-682.149"/>
</g>
<!-- France&#45;&gt;Switzerland -->
<g id="edge54" class="edge"><title>France&#45;&gt;Switzerland</title>
<path fill="none" stroke="black" stroke-width="4.1" d="M1270.37,-1286.94C1258.41,-1362.48 1212.77,-1650.61 1198.73,-1739.26"/>
<polygon fill="black" stroke="black" stroke-width="4.1" points="1197.48,-1747.21 1194.17,-1738.58 1196.57,-1743.01 1197.2,-1739.06 1198.73,-1739.3 1200.26,-1739.55 1199.63,-1743.5 1203.28,-1740.03 1197.48,-1747.21 1197.48,-1747.21"/>
</g>
<!-- France&#45;&gt;Unitedstates -->
<g id="edge87" class="edge"><title>France&#45;&gt;Unitedstates</title>
<path fill="none" stroke="black" stroke-width="5.2" d="M1245.81,-1285.5C1117.41,-1371.88 577.451,-1764.13 448.624,-1864.52"/>
<polygon fill="black" stroke="black" stroke-width="5.2" points="442.109,-1869.62 444.798,-1860.08 443.962,-1865.5 447.111,-1863.03 448.406,-1864.69 449.701,-1866.34 446.553,-1868.81 452.014,-1869.29 442.109,-1869.62 442.109,-1869.62"/>
</g>
<!-- France&#45;&gt;France -->
<g id="edge121" class="edge"><title>France&#45;&gt;France</title>
<path fill="none" stroke="black" stroke-width="7.5" d="M1300.51,-1275.42C1310.29,-1275.56 1318.27,-1273.31 1318.27,-1268.67 1318.27,-1265.41 1314.32,-1263.33 1308.58,-1262.43"/>
<polygon fill="black" stroke="black" stroke-width="7.5" points="1300.51,-1261.93 1309.02,-1254.01 1304.7,-1258.94 1308.69,-1259.18 1308.49,-1262.43 1308.29,-1265.67 1304.3,-1265.42 1307.97,-1270.85 1300.51,-1261.93 1300.51,-1261.93"/>
</g>
<!-- France&#45;&gt;Israel -->
<g id="edge28" class="edge"><title>France&#45;&gt;Israel</title>
<path fill="none" stroke="black" stroke-width="3.5" d="M1273.27,-1287.08C1273.27,-1344.09 1273.27,-1517.94 1273.27,-1584.59"/>
<polygon fill="black" stroke="black" stroke-width="3.5" points="1273.27,-1592.9 1269.33,-1584.9 1272.02,-1588.9 1272.02,-1584.9 1273.27,-1584.9 1274.52,-1584.9 1274.52,-1588.9 1277.2,-1584.9 1273.27,-1592.9 1273.27,-1592.9"/>
</g>
<!-- France&#45;&gt;Spain -->
<g id="edge41" class="edge"><title>France&#45;&gt;Spain</title>
<path fill="none" stroke="black" stroke-width="3.6" d="M1276.17,-1286.99C1280.98,-1317.36 1290.62,-1378.25 1296.18,-1413.32"/>
<polygon fill="black" stroke="black" stroke-width="3.6" points="1297.49,-1421.64 1292.24,-1414.37 1295.59,-1417.89 1294.96,-1413.94 1296.24,-1413.74 1297.53,-1413.54 1298.15,-1417.49 1300.24,-1413.11 1297.49,-1421.64 1297.49,-1421.64"/>
</g>
<!-- Israel&#45;&gt;Canada -->
<g id="edge29" class="edge"><title>Israel&#45;&gt;Canada</title>
<path fill="none" stroke="black" stroke-width="3.5" d="M1246.17,-1602.17C1101.74,-1555.25 422.956,-1334.69 256.625,-1280.65"/>
<polygon fill="black" stroke="black" stroke-width="3.5" points="248.644,-1278.06 257.469,-1276.78 252.835,-1278.1 256.639,-1279.34 256.252,-1280.53 255.866,-1281.72 252.062,-1280.48 255.036,-1284.27 248.644,-1278.06 248.644,-1278.06"/>
</g>
<!-- Israel&#45;&gt;Unitedstates -->
<g id="edge88" class="edge"><title>Israel&#45;&gt;Unitedstates</title>
<path fill="none" stroke="black" stroke-width="5.3" d="M1246.04,-1617.15C1124.34,-1651.11 629.402,-1811.63 470.397,-1868.27"/>
<polygon fill="black" stroke="black" stroke-width="5.3" points="462.635,-1871.04 468.158,-1862.73 465.677,-1867.67 469.443,-1866.32 470.167,-1868.35 470.892,-1870.37 467.126,-1871.72 472.177,-1873.96 462.635,-1871.04 462.635,-1871.04"/>
</g>
<!-- Israel&#45;&gt;Israel -->
<g id="edge95" class="edge"><title>Israel&#45;&gt;Israel</title>
<path fill="none" stroke="black" stroke-width="5.5" d="M1300.51,-1617.72C1310.29,-1617.87 1318.27,-1615.62 1318.27,-1610.98 1318.27,-1607.71 1314.32,-1605.63 1308.58,-1604.74"/>
<polygon fill="black" stroke="black" stroke-width="5.5" points="1300.51,-1604.23 1308.88,-1598.56 1304.64,-1602.24 1308.63,-1602.49 1308.49,-1604.73 1308.35,-1606.98 1304.36,-1606.73 1308.11,-1610.91 1300.51,-1604.23 1300.51,-1604.23"/>
</g>
<!-- Catalonia -->
<g id="node27" class="node"><title>Catalonia</title>
<polygon fill="none" stroke="black" points="1440.38,-1457.83 1372.38,-1457.83 1372.38,-1421.83 1440.38,-1421.83 1440.38,-1457.83"/>
<text text-anchor="middle" x="1406.38" y="-1436.13" font-family="Times,serif" font-size="14.00">Catalonia</text>
</g>
<!-- Catalonia&#45;&gt;Spain -->
<g id="edge30" class="edge"><title>Catalonia&#45;&gt;Spain</title>
<path fill="none" stroke="black" stroke-width="3.5" d="M1372.25,-1433.47C1360.56,-1432.96 1347.47,-1432.94 1335.69,-1433.42"/>
<polygon fill="black" stroke="black" stroke-width="3.5" points="1327.38,-1433.86 1335.16,-1429.51 1331.31,-1432.4 1335.3,-1432.19 1335.37,-1433.44 1335.43,-1434.69 1331.44,-1434.9 1335.58,-1437.37 1327.38,-1433.86 1327.38,-1433.86"/>
</g>
<!-- Spain&#45;&gt;Catalonia -->
<g id="edge50" class="edge"><title>Spain&#45;&gt;Catalonia</title>
<path fill="none" stroke="black" stroke-width="4" d="M1327.4,-1445.8C1338.46,-1446.52 1351.53,-1446.74 1363.82,-1446.46"/>
<polygon fill="black" stroke="black" stroke-width="4" points="1372.17,-1446.18 1364.32,-1450.94 1368.22,-1447.81 1364.23,-1447.95 1364.18,-1446.45 1364.13,-1444.95 1368.12,-1444.82 1364.03,-1441.95 1372.17,-1446.18 1372.17,-1446.18"/>
</g>
<!-- Spain&#45;&gt;Spain -->
<g id="edge117" class="edge"><title>Spain&#45;&gt;Spain</title>
<path fill="none" stroke="black" stroke-width="6.9" d="M1327.62,-1446.57C1337.4,-1446.71 1345.38,-1444.47 1345.38,-1439.83 1345.38,-1436.56 1341.43,-1434.48 1335.69,-1433.59"/>
<polygon fill="black" stroke="black" stroke-width="6.9" points="1327.62,-1433.08 1336.08,-1425.83 1331.79,-1430.39 1335.78,-1430.64 1335.6,-1433.58 1335.42,-1436.52 1331.42,-1436.28 1335.12,-1441.33 1327.62,-1433.08 1327.62,-1433.08"/>
</g>
<!-- Slovakia -->
<g id="node29" class="node"><title>Slovakia</title>
<polygon fill="none" stroke="black" points="1073.52,-742.825 1009.52,-742.825 1009.52,-706.825 1073.52,-706.825 1073.52,-742.825"/>
<text text-anchor="middle" x="1041.52" y="-721.125" font-family="Times,serif" font-size="14.00">Slovakia</text>
</g>
<!-- Slovakia&#45;&gt;Slovakia -->
<g id="edge31" class="edge"><title>Slovakia&#45;&gt;Slovakia</title>
<path fill="none" stroke="black" stroke-width="3.5" d="M1073.74,-731.569C1083.7,-731.433 1091.52,-729.185 1091.52,-724.825 1091.52,-721.76 1087.65,-719.739 1081.89,-718.762"/>
<polygon fill="black" stroke="black" stroke-width="3.5" points="1073.74,-718.082 1082.04,-714.822 1077.83,-717.168 1081.81,-717.501 1081.71,-718.746 1081.6,-719.992 1077.62,-719.66 1081.38,-722.67 1073.74,-718.082 1073.74,-718.082"/>
</g>
<!-- Australia&#45;&gt;Unitedkingdom -->
<g id="edge34" class="edge"><title>Australia&#45;&gt;Unitedkingdom</title>
<path fill="none" stroke="black" stroke-width="3.6" d="M779.555,-1993.93C801.871,-1991.7 831.96,-1987.3 858.358,-1982.53"/>
<polygon fill="black" stroke="black" stroke-width="3.6" points="866.419,-1981.04 859.287,-1986.48 862.721,-1983.05 858.788,-1983.78 858.552,-1982.5 858.316,-1981.22 862.249,-1980.49 857.816,-1978.51 866.419,-1981.04 866.419,-1981.04"/>
</g>
<!-- Australia&#45;&gt;Unitedstates -->
<g id="edge48" class="edge"><title>Australia&#45;&gt;Unitedstates</title>
<path fill="none" stroke="black" stroke-width="3.8" d="M713.33,-1978.32C655.911,-1956.53 537.78,-1917.94 470.575,-1898.81"/>
<polygon fill="black" stroke="black" stroke-width="3.8" points="462.639,-1896.58 471.499,-1894.63 466.869,-1896.32 470.72,-1897.4 470.34,-1898.75 469.961,-1900.1 466.111,-1899.01 469.182,-1902.86 462.639,-1896.58 462.639,-1896.58"/>
</g>
<!-- Australia&#45;&gt;Australia -->
<g id="edge97" class="edge"><title>Australia&#45;&gt;Australia</title>
<path fill="none" stroke="black" stroke-width="5.6" d="M779.87,-2000.42C789.794,-2000.22 797.516,-1997.97 797.516,-1993.68 797.516,-1990.67 793.698,-1988.66 787.982,-1987.67"/>
<polygon fill="black" stroke="black" stroke-width="5.6" points="779.87,-1986.95 788.396,-1981.38 784.058,-1985.01 788.042,-1985.37 787.839,-1987.66 787.636,-1989.95 783.651,-1989.59 787.282,-1993.93 779.87,-1986.95 779.87,-1986.95"/>
</g>
<!-- Romania&#45;&gt;Romania -->
<g id="edge92" class="edge"><title>Romania&#45;&gt;Romania</title>
<path fill="none" stroke="black" stroke-width="5.5" d="M1521.04,-86.2741C1530.96,-86.0731 1538.68,-83.828 1538.68,-79.539 1538.68,-76.5232 1534.86,-74.518 1529.15,-73.5233"/>
<polygon fill="black" stroke="black" stroke-width="5.5" points="1521.04,-72.8038 1529.55,-67.3474 1525.22,-70.916 1529.2,-71.2695 1529,-73.5107 1528.81,-75.7519 1524.82,-75.3984 1528.46,-79.674 1521.04,-72.8038 1521.04,-72.8038"/>
</g>
<!-- Estonia -->
<g id="node32" class="node"><title>Estonia</title>
<polygon fill="none" stroke="black" points="1941.85,-438.902 1884.85,-438.902 1884.85,-402.902 1941.85,-402.902 1941.85,-438.902"/>
<text text-anchor="middle" x="1913.35" y="-417.202" font-family="Times,serif" font-size="14.00">Estonia</text>
</g>
<!-- Estonia&#45;&gt;Russia -->
<g id="edge37" class="edge"><title>Estonia&#45;&gt;Russia</title>
<path fill="none" stroke="black" stroke-width="3.6" d="M1886.78,-438.929C1763.03,-522.898 1243.34,-875.527 1105.66,-968.95"/>
<polygon fill="black" stroke="black" stroke-width="3.6" points="1098.64,-973.713 1102.99,-965.869 1101.22,-970.391 1104.53,-968.145 1105.26,-969.221 1105.99,-970.296 1102.68,-972.542 1107.53,-972.572 1098.64,-973.713 1098.64,-973.713"/>
</g>
<!-- Estonia&#45;&gt;Estonia -->
<g id="edge67" class="edge"><title>Estonia&#45;&gt;Estonia</title>
<path fill="none" stroke="black" stroke-width="4.4" d="M1941.96,-427.651C1951.86,-427.722 1959.85,-425.472 1959.85,-420.902 1959.85,-417.689 1955.9,-415.623 1950.11,-414.704"/>
<polygon fill="black" stroke="black" stroke-width="4.4" points="1941.96,-414.154 1950.27,-409.754 1946.06,-412.727 1950.05,-412.996 1949.94,-414.692 1949.82,-416.389 1945.83,-416.119 1949.61,-419.631 1941.96,-414.154 1941.96,-414.154"/>
</g>
<!-- Azerbaijan -->
<g id="node33" class="node"><title>Azerbaijan</title>
<polygon fill="none" stroke="black" points="1489.52,-1247.83 1413.52,-1247.83 1413.52,-1211.83 1489.52,-1211.83 1489.52,-1247.83"/>
<text text-anchor="middle" x="1451.52" y="-1226.13" font-family="Times,serif" font-size="14.00">Azerbaijan</text>
</g>
<!-- Azerbaijan&#45;&gt;Azerbaijan -->
<g id="edge43" class="edge"><title>Azerbaijan&#45;&gt;Azerbaijan</title>
<path fill="none" stroke="black" stroke-width="3.7" d="M1489.73,-1236.52C1499.85,-1236.13 1507.52,-1233.9 1507.52,-1229.83 1507.52,-1226.96 1503.73,-1225 1497.96,-1223.96"/>
<polygon fill="black" stroke="black" stroke-width="3.7" points="1489.73,-1223.13 1498.11,-1219.8 1493.85,-1222.19 1497.82,-1222.59 1497.69,-1223.94 1497.55,-1225.28 1493.57,-1224.88 1497.27,-1228.08 1489.73,-1223.13 1489.73,-1223.13"/>
</g>
<!-- Turkey -->
<g id="node34" class="node"><title>Turkey</title>
<polygon fill="none" stroke="black" points="661.516,-742.825 605.516,-742.825 605.516,-706.825 661.516,-706.825 661.516,-742.825"/>
<text text-anchor="middle" x="633.516" y="-721.125" font-family="Times,serif" font-size="14.00">Turkey</text>
</g>
<!-- Turkey&#45;&gt;Turkey -->
<g id="edge44" class="edge"><title>Turkey&#45;&gt;Turkey</title>
<path fill="none" stroke="black" stroke-width="3.7" d="M661.815,-731.574C671.608,-731.645 679.516,-729.396 679.516,-724.825 679.516,-721.612 675.606,-719.546 669.881,-718.627"/>
<polygon fill="black" stroke="black" stroke-width="3.7" points="661.815,-718.077 670.08,-714.469 665.898,-717.002 669.889,-717.275 669.797,-718.621 669.705,-719.968 665.714,-719.696 669.513,-722.774 661.815,-718.077 661.815,-718.077"/>
</g>
<!-- Serbia -->
<g id="node35" class="node"><title>Serbia</title>
<polygon fill="none" stroke="black" points="202.305,-1894.26 148.305,-1894.26 148.305,-1858.26 202.305,-1858.26 202.305,-1894.26"/>
<text text-anchor="middle" x="175.305" y="-1872.56" font-family="Times,serif" font-size="14.00">Serbia</text>
</g>
<!-- Serbia&#45;&gt;Unitedstates -->
<g id="edge45" class="edge"><title>Serbia&#45;&gt;Unitedstates</title>
<path fill="none" stroke="black" stroke-width="3.8" d="M202.533,-1877.55C243.122,-1879.48 320.161,-1883.13 371.042,-1885.54"/>
<polygon fill="black" stroke="black" stroke-width="3.8" points="379.286,-1885.93 371.093,-1889.82 375.224,-1887.14 371.229,-1886.95 371.295,-1885.55 371.361,-1884.15 375.357,-1884.34 371.497,-1881.28 379.286,-1885.93 379.286,-1885.93"/>
</g>
<!-- Serbia&#45;&gt;Serbia -->
<g id="edge103" class="edge"><title>Serbia&#45;&gt;Serbia</title>
<path fill="none" stroke="black" stroke-width="5.8" d="M202.545,-1883C212.329,-1883.15 220.305,-1880.9 220.305,-1876.26 220.305,-1873 216.361,-1870.92 210.619,-1870.02"/>
<polygon fill="black" stroke="black" stroke-width="5.8" points="202.545,-1869.52 210.936,-1863.5 206.687,-1867.37 210.679,-1867.62 210.53,-1870.02 210.381,-1872.41 206.388,-1872.16 210.124,-1876.53 202.545,-1869.52 202.545,-1869.52"/>
</g>
<!-- Argentina&#45;&gt;Argentina -->
<g id="edge74" class="edge"><title>Argentina&#45;&gt;Argentina</title>
<path fill="none" stroke="black" stroke-width="4.7" d="M402.871,-2057.13C412.911,-2056.83 420.618,-2054.6 420.618,-2050.41 420.618,-2047.47 416.808,-2045.49 411.056,-2044.47"/>
<polygon fill="black" stroke="black" stroke-width="4.7" points="402.871,-2043.7 411.335,-2039.19 407.028,-2042.23 411.01,-2042.61 410.836,-2044.45 410.661,-2046.29 406.679,-2045.91 410.336,-2049.71 402.871,-2043.7 402.871,-2043.7"/>
</g>
<!-- Slovenia -->
<g id="node37" class="node"><title>Slovenia</title>
<polygon fill="none" stroke="black" points="1578.52,-1651.83 1514.52,-1651.83 1514.52,-1615.83 1578.52,-1615.83 1578.52,-1651.83"/>
<text text-anchor="middle" x="1546.52" y="-1630.13" font-family="Times,serif" font-size="14.00">Slovenia</text>
</g>
<!-- Slovenia&#45;&gt;Slovenia -->
<g id="edge51" class="edge"><title>Slovenia&#45;&gt;Slovenia</title>
<path fill="none" stroke="black" stroke-width="4" d="M1578.74,-1640.57C1588.7,-1640.43 1596.52,-1638.18 1596.52,-1633.83 1596.52,-1630.76 1592.65,-1628.74 1586.89,-1627.76"/>
<polygon fill="black" stroke="black" stroke-width="4" points="1578.74,-1627.08 1587.08,-1623.26 1582.85,-1625.92 1586.83,-1626.25 1586.71,-1627.75 1586.58,-1629.24 1582.6,-1628.91 1586.33,-1632.23 1578.74,-1627.08 1578.74,-1627.08"/>
</g>
<!-- Uzbekistan -->
<g id="node38" class="node"><title>Uzbekistan</title>
<polygon fill="none" stroke="black" points="2043.95,-543.158 1966.95,-543.158 1966.95,-507.158 2043.95,-507.158 2043.95,-543.158"/>
<text text-anchor="middle" x="2005.45" y="-521.458" font-family="Times,serif" font-size="14.00">Uzbekistan</text>
</g>
<!-- Uzbekistan&#45;&gt;Ukraine -->
<g id="edge53" class="edge"><title>Uzbekistan&#45;&gt;Ukraine</title>
<path fill="none" stroke="black" stroke-width="4.1" d="M1980.29,-543.435C1861.59,-629.676 1357.79,-995.71 1226.16,-1091.34"/>
<polygon fill="black" stroke="black" stroke-width="4.1" points="1219.46,-1096.21 1223.22,-1087.78 1221.79,-1092.61 1225.02,-1090.25 1225.93,-1091.51 1226.84,-1092.76 1223.61,-1095.11 1228.64,-1095.24 1219.46,-1096.21 1219.46,-1096.21"/>
</g>
<!-- Japan -->
<g id="node39" class="node"><title>Japan</title>
<polygon fill="none" stroke="black" points="134.95,-1787.97 80.9503,-1787.97 80.9503,-1751.97 134.95,-1751.97 134.95,-1787.97"/>
<text text-anchor="middle" x="107.95" y="-1766.27" font-family="Times,serif" font-size="14.00">Japan</text>
</g>
<!-- Japan&#45;&gt;Unitedstates -->
<g id="edge112" class="edge"><title>Japan&#45;&gt;Unitedstates</title>
<path fill="none" stroke="black" stroke-width="6.3" d="M135.181,-1780.23C187.922,-1800.1 304.681,-1844.09 371.491,-1869.27"/>
<polygon fill="black" stroke="black" stroke-width="6.3" points="379.383,-1872.24 369.398,-1876.05 374.706,-1873.31 370.963,-1871.9 371.897,-1869.42 372.831,-1866.94 376.574,-1868.35 374.396,-1862.79 379.383,-1872.24 379.383,-1872.24"/>
</g>
<!-- Japan&#45;&gt;Japan -->
<g id="edge56" class="edge"><title>Japan&#45;&gt;Japan</title>
<path fill="none" stroke="black" stroke-width="4.2" d="M135.191,-1776.71C144.974,-1776.85 152.95,-1774.61 152.95,-1769.97 152.95,-1766.7 149.007,-1764.62 143.265,-1763.73"/>
<polygon fill="black" stroke="black" stroke-width="4.2" points="135.191,-1763.22 143.47,-1759 139.283,-1761.87 143.275,-1762.12 143.176,-1763.72 143.076,-1765.32 139.084,-1765.07 142.881,-1768.44 135.191,-1763.22 135.191,-1763.22"/>
</g>
<!-- Lithuania&#45;&gt;Lithuania -->
<g id="edge63" class="edge"><title>Lithuania&#45;&gt;Lithuania</title>
<path fill="none" stroke="black" stroke-width="4.3" d="M1640.6,-158.162C1650.72,-157.961 1658.59,-155.716 1658.59,-151.427 1658.59,-148.411 1654.7,-146.406 1648.87,-145.411"/>
<polygon fill="black" stroke="black" stroke-width="4.3" points="1640.6,-144.692 1648.99,-140.566 1644.73,-143.394 1648.72,-143.741 1648.57,-145.385 1648.43,-147.029 1644.44,-146.682 1648.15,-150.204 1640.6,-144.692 1640.6,-144.692"/>
</g>
<!-- Finland -->
<g id="node41" class="node"><title>Finland</title>
<polygon fill="none" stroke="black" points="88.5719,-1669.64 30.5719,-1669.64 30.5719,-1633.64 88.5719,-1633.64 88.5719,-1669.64"/>
<text text-anchor="middle" x="59.5719" y="-1647.94" font-family="Times,serif" font-size="14.00">Finland</text>
</g>
<!-- Finland&#45;&gt;Unitedstates -->
<g id="edge71" class="edge"><title>Finland&#45;&gt;Unitedstates</title>
<path fill="none" stroke="black" stroke-width="4.6" d="M87.3298,-1669.79C152.366,-1712.31 314.495,-1818.3 386.067,-1865.09"/>
<polygon fill="black" stroke="black" stroke-width="4.6" points="393.113,-1869.7 383.585,-1869.65 388.78,-1869.02 385.432,-1866.83 386.417,-1865.32 387.402,-1863.81 390.75,-1866 389.249,-1860.99 393.113,-1869.7 393.113,-1869.7"/>
</g>
<!-- Finland&#45;&gt;Finland -->
<g id="edge109" class="edge"><title>Finland&#45;&gt;Finland</title>
<path fill="none" stroke="black" stroke-width="6" d="M88.9469,-1658.39C98.7386,-1658.39 106.572,-1656.14 106.572,-1651.64 106.572,-1648.48 102.699,-1646.43 96.9961,-1645.49"/>
<polygon fill="black" stroke="black" stroke-width="6" points="88.9469,-1644.89 97.4228,-1638.75 93.1204,-1642.69 97.1095,-1642.99 96.9252,-1645.48 96.7409,-1647.98 92.7518,-1647.68 96.4276,-1652.21 88.9469,-1644.89 88.9469,-1644.89"/>
</g>
<!-- Hungary -->
<g id="node43" class="node"><title>Hungary</title>
<polygon fill="none" stroke="black" points="64.3294,-1539.66 0.32945,-1539.66 0.32945,-1503.66 64.3294,-1503.66 64.3294,-1539.66"/>
<text text-anchor="middle" x="32.3294" y="-1517.96" font-family="Times,serif" font-size="14.00">Hungary</text>
</g>
<!-- Hungary&#45;&gt;Unitedstates -->
<g id="edge77" class="edge"><title>Hungary&#45;&gt;Unitedstates</title>
<path fill="none" stroke="black" stroke-width="4.8" d="M51.602,-1539.82C115.829,-1600.35 322.622,-1795.23 395.364,-1863.78"/>
<polygon fill="black" stroke="black" stroke-width="4.8" points="401.577,-1869.63 392.051,-1868.08 397.363,-1868.27 394.452,-1865.53 395.755,-1864.15 397.058,-1862.77 399.969,-1865.51 399.458,-1860.22 401.577,-1869.63 401.577,-1869.63"/>
</g>
<!-- Hungary&#45;&gt;Hungary -->
<g id="edge80" class="edge"><title>Hungary&#45;&gt;Hungary</title>
<path fill="none" stroke="black" stroke-width="4.9" d="M64.5497,-1528.4C74.5088,-1528.26 82.3294,-1526.02 82.3294,-1521.66 82.3294,-1518.59 78.463,-1516.57 72.7054,-1515.59"/>
<polygon fill="black" stroke="black" stroke-width="4.9" points="64.5497,-1514.91 72.9799,-1510.08 68.6979,-1513.3 72.684,-1513.63 72.5221,-1515.58 72.3601,-1517.52 68.3739,-1517.19 72.0642,-1521.07 64.5497,-1514.91 64.5497,-1514.91"/>
</g>
<!-- Sweden -->
<g id="node44" class="node"><title>Sweden</title>
<polygon fill="none" stroke="black" points="59,-1406.38 -5.68434e-14,-1406.38 -5.68434e-14,-1370.38 59,-1370.38 59,-1406.38"/>
<text text-anchor="middle" x="29.5" y="-1384.68" font-family="Times,serif" font-size="14.00">Sweden</text>
</g>
<!-- Sweden&#45;&gt;Unitedstates -->
<g id="edge82" class="edge"><title>Sweden&#45;&gt;Unitedstates</title>
<path fill="none" stroke="black" stroke-width="5" d="M43.6637,-1406.45C103.246,-1482.48 333.605,-1776.43 401.825,-1863.48"/>
<polygon fill="black" stroke="black" stroke-width="5" points="406.821,-1869.86 397.459,-1867.03 402.779,-1867.94 400.312,-1864.79 401.886,-1863.56 403.46,-1862.33 405.928,-1865.48 406.314,-1860.09 406.821,-1869.86 406.821,-1869.86"/>
</g>
<!-- Sweden&#45;&gt;Sweden -->
<g id="edge115" class="edge"><title>Sweden&#45;&gt;Sweden</title>
<path fill="none" stroke="black" stroke-width="6.4" d="M59.1875,-1395.13C69.0833,-1395.13 77,-1392.88 77,-1388.38 77,-1385.21 73.0861,-1383.16 67.3223,-1382.22"/>
<polygon fill="black" stroke="black" stroke-width="6.4" points="59.1875,-1381.63 67.6914,-1375.03 63.3738,-1379.23 67.3632,-1379.52 67.1662,-1382.21 66.9692,-1384.9 62.9799,-1384.61 66.641,-1389.39 59.1875,-1381.63 59.1875,-1381.63"/>
</g>
</g>
</svg>
