<?xml version="1.0" encoding="UTF-8" standalone="no"?>
<!DOCTYPE svg PUBLIC "-//W3C//DTD SVG 1.1//EN"
 "http://www.w3.org/Graphics/SVG/1.1/DTD/svg11.dtd">
<!-- Generated by graphviz version 2.38.0 (20140413.2041)
 -->
<!-- Title: transition Pages: 1 -->
<svg width="1484pt" height="1095pt"
 viewBox="0.00 0.00 1484.43 1095.20" xmlns="http://www.w3.org/2000/svg" xmlns:xlink="http://www.w3.org/1999/xlink">
<g id="graph0" class="graph" transform="scale(1 1) rotate(0) translate(4 1091.2)">
<title>transition</title>
<polygon fill="white" stroke="none" points="-4,4 -4,-1091.2 1480.43,-1091.2 1480.43,4 -4,4"/>
<text text-anchor="middle" x="738.217" y="-1072" font-family="Times,serif" font-size="14.00">Hiring network of Mathematics Ph.D.&#39;s between 1985 and 2005 (with threshold 3.50)</text>
<!-- India -->
<g id="node1" class="node"><title>India</title>
<polygon fill="none" stroke="black" points="54,-492.601 0,-492.601 0,-456.601 54,-456.601 54,-492.601"/>
<text text-anchor="middle" x="27" y="-470.901" font-family="Times,serif" font-size="14.00">India</text>
</g>
<!-- India&#45;&gt;India -->
<g id="edge61" class="edge"><title>India&#45;&gt;India</title>
<path fill="none" stroke="black" stroke-width="5.2" d="M54.2408,-481.344C64.0239,-481.489 72,-479.241 72,-474.601 72,-471.338 68.0568,-469.258 62.3147,-468.361"/>
<polygon fill="black" stroke="black" stroke-width="5.2" points="54.2408,-467.857 62.5894,-462.517 58.3637,-466.01 62.356,-466.259 62.2253,-468.355 62.0945,-470.451 58.1023,-470.202 61.8611,-474.194 54.2408,-467.857 54.2408,-467.857"/>
</g>
<!-- Unitedstates -->
<g id="node2" class="node"><title>Unitedstates</title>
<polygon fill="none" stroke="black" points="1168.12,-736.238 1085.12,-736.238 1085.12,-700.238 1168.12,-700.238 1168.12,-736.238"/>
<text text-anchor="middle" x="1126.62" y="-714.538" font-family="Times,serif" font-size="14.00">Unitedstates</text>
</g>
<!-- India&#45;&gt;Unitedstates -->
<g id="edge1" class="edge"><title>India&#45;&gt;Unitedstates</title>
<path fill="none" stroke="black" stroke-width="3.6" d="M54.231,-483.006C199.7,-521.048 885.624,-673.258 1076.96,-710.309"/>
<polygon fill="black" stroke="black" stroke-width="3.6" points="1084.9,-711.833 1076.28,-714.301 1080.72,-712.355 1076.79,-711.601 1077.04,-710.324 1077.29,-709.047 1081.21,-709.802 1077.8,-706.347 1084.9,-711.833 1084.9,-711.833"/>
</g>
<!-- Unitedstates&#45;&gt;India -->
<g id="edge47" class="edge"><title>Unitedstates&#45;&gt;India</title>
<path fill="none" stroke="black" stroke-width="4.7" d="M1084.8,-706.089C908.358,-661.541 226.418,-510.528 62.5516,-479.838"/>
<polygon fill="black" stroke="black" stroke-width="4.7" points="54.2591,-478.308 63.0859,-474.56 58.5284,-477.214 62.462,-477.94 62.1262,-479.76 61.7904,-481.579 57.8569,-480.853 61.1665,-484.959 54.2591,-478.308 54.2591,-478.308"/>
</g>
<!-- Unitedstates&#45;&gt;Unitedstates -->
<g id="edge85" class="edge"><title>Unitedstates&#45;&gt;Unitedstates</title>
<path fill="none" stroke="black" stroke-width="8.6" d="M1168.33,-724.882C1178.53,-724.39 1186.12,-722.175 1186.12,-718.238 1186.12,-715.469 1182.37,-713.552 1176.6,-712.487"/>
<polygon fill="black" stroke="black" stroke-width="8.6" points="1168.33,-711.593 1177.32,-702.834 1172.72,-708.245 1176.69,-708.675 1176.28,-712.453 1175.87,-716.231 1171.9,-715.801 1175.24,-722.072 1168.33,-711.593 1168.33,-711.593"/>
</g>
<!-- Germany -->
<g id="node3" class="node"><title>Germany</title>
<polygon fill="none" stroke="black" points="535.635,-485.991 467.635,-485.991 467.635,-449.991 535.635,-449.991 535.635,-485.991"/>
<text text-anchor="middle" x="501.635" y="-464.291" font-family="Times,serif" font-size="14.00">Germany</text>
</g>
<!-- Unitedstates&#45;&gt;Germany -->
<g id="edge66" class="edge"><title>Unitedstates&#45;&gt;Germany</title>
<path fill="none" stroke="black" stroke-width="5.3" d="M1090.67,-700.165C982.231,-651.997 658.881,-522.484 543.284,-480.861"/>
<polygon fill="black" stroke="black" stroke-width="5.3" points="535.65,-478.133 545.19,-475.21 540.14,-477.454 543.907,-478.8 543.183,-480.825 542.46,-482.849 538.693,-481.503 541.177,-486.439 535.65,-478.133 535.65,-478.133"/>
</g>
<!-- Taiwan -->
<g id="node4" class="node"><title>Taiwan</title>
<polygon fill="none" stroke="black" points="574.436,-319.472 517.436,-319.472 517.436,-283.472 574.436,-283.472 574.436,-319.472"/>
<text text-anchor="middle" x="545.936" y="-297.772" font-family="Times,serif" font-size="14.00">Taiwan</text>
</g>
<!-- Unitedstates&#45;&gt;Taiwan -->
<g id="edge57" class="edge"><title>Unitedstates&#45;&gt;Taiwan</title>
<path fill="none" stroke="black" stroke-width="5" d="M1101.3,-700.062C1007.73,-632.905 681.57,-398.818 577.858,-324.383"/>
<polygon fill="black" stroke="black" stroke-width="5" points="571.067,-319.509 580.846,-319.604 575.483,-320.216 578.733,-322.549 577.567,-324.174 576.4,-325.798 573.151,-323.466 574.287,-328.743 571.067,-319.509 571.067,-319.509"/>
</g>
<!-- Canada -->
<g id="node7" class="node"><title>Canada</title>
<polygon fill="none" stroke="black" points="691.049,-192.615 634.049,-192.615 634.049,-156.615 691.049,-156.615 691.049,-192.615"/>
<text text-anchor="middle" x="662.549" y="-170.915" font-family="Times,serif" font-size="14.00">Canada</text>
</g>
<!-- Unitedstates&#45;&gt;Canada -->
<g id="edge78" class="edge"><title>Unitedstates&#45;&gt;Canada</title>
<path fill="none" stroke="black" stroke-width="6.5" d="M1114.4,-700.031C1052.3,-618.926 772.768,-291.174 687.346,-198.869"/>
<polygon fill="black" stroke="black" stroke-width="6.5" points="681.77,-192.885 692.574,-193.753 686.509,-193.936 689.236,-196.863 687.224,-198.738 685.212,-200.612 682.485,-197.686 681.874,-203.723 681.77,-192.885 681.77,-192.885"/>
</g>
<!-- Unitedkingdom -->
<g id="node8" class="node"><title>Unitedkingdom</title>
<polygon fill="none" stroke="black" points="875.757,-134.481 773.757,-134.481 773.757,-98.4807 875.757,-98.4807 875.757,-134.481"/>
<text text-anchor="middle" x="824.757" y="-112.781" font-family="Times,serif" font-size="14.00">Unitedkingdom</text>
</g>
<!-- Unitedstates&#45;&gt;Unitedkingdom -->
<g id="edge62" class="edge"><title>Unitedstates&#45;&gt;Unitedkingdom</title>
<path fill="none" stroke="black" stroke-width="5.2" d="M1120.26,-700.102C1083.01,-613.456 896.9,-242.051 840.693,-141.595"/>
<polygon fill="black" stroke="black" stroke-width="5.2" points="836.722,-134.571 845.752,-138.655 840.519,-137.019 842.487,-140.501 840.659,-141.535 838.831,-142.568 836.863,-139.086 835.567,-144.414 836.722,-134.571 836.722,-134.571"/>
</g>
<!-- Netherlands -->
<g id="node10" class="node"><title>Netherlands</title>
<polygon fill="none" stroke="black" points="1024.04,-831.502 942.042,-831.502 942.042,-795.502 1024.04,-795.502 1024.04,-831.502"/>
<text text-anchor="middle" x="983.042" y="-809.802" font-family="Times,serif" font-size="14.00">Netherlands</text>
</g>
<!-- Unitedstates&#45;&gt;Netherlands -->
<g id="edge42" class="edge"><title>Unitedstates&#45;&gt;Netherlands</title>
<path fill="none" stroke="black" stroke-width="4.5" d="M1088.62,-736.4C1063.09,-751.798 1030.21,-773.774 1007.95,-790.406"/>
<polygon fill="black" stroke="black" stroke-width="4.5" points="1001.4,-795.383 1004.71,-786.512 1003.53,-791.569 1006.71,-789.149 1007.77,-790.542 1008.83,-791.935 1005.64,-794.356 1010.83,-794.572 1001.4,-795.383 1001.4,-795.383"/>
</g>
<!-- France -->
<g id="node11" class="node"><title>France</title>
<polygon fill="none" stroke="black" points="678.67,-785.077 624.67,-785.077 624.67,-749.077 678.67,-749.077 678.67,-785.077"/>
<text text-anchor="middle" x="651.67" y="-763.377" font-family="Times,serif" font-size="14.00">France</text>
</g>
<!-- Unitedstates&#45;&gt;France -->
<g id="edge60" class="edge"><title>Unitedstates&#45;&gt;France</title>
<path fill="none" stroke="black" stroke-width="5.1" d="M1084.9,-718.494C992.67,-724.231 772.887,-746.912 686.959,-759.656"/>
<polygon fill="black" stroke="black" stroke-width="5.1" points="678.83,-760.895 685.874,-754.018 682.475,-758.266 686.429,-757.663 686.738,-759.69 687.047,-761.716 683.093,-762.319 687.603,-765.362 678.83,-760.895 678.83,-760.895"/>
</g>
<!-- Sweden -->
<g id="node12" class="node"><title>Sweden</title>
<polygon fill="none" stroke="black" points="1443.28,-340.74 1384.28,-340.74 1384.28,-304.74 1443.28,-304.74 1443.28,-340.74"/>
<text text-anchor="middle" x="1413.78" y="-319.04" font-family="Times,serif" font-size="14.00">Sweden</text>
</g>
<!-- Unitedstates&#45;&gt;Sweden -->
<g id="edge39" class="edge"><title>Unitedstates&#45;&gt;Sweden</title>
<path fill="none" stroke="black" stroke-width="4.4" d="M1139.71,-700.216C1186.05,-636.389 1342.45,-420.981 1395.79,-347.524"/>
<polygon fill="black" stroke="black" stroke-width="4.4" points="1400.62,-340.868 1399.92,-350.25 1399.64,-345.103 1397.29,-348.34 1395.92,-347.341 1394.54,-346.342 1396.89,-343.106 1391.91,-344.433 1400.62,-340.868 1400.62,-340.868"/>
</g>
<!-- Singapore -->
<g id="node13" class="node"><title>Singapore</title>
<polygon fill="none" stroke="black" points="1418.24,-255.159 1347.24,-255.159 1347.24,-219.159 1418.24,-219.159 1418.24,-255.159"/>
<text text-anchor="middle" x="1382.74" y="-233.459" font-family="Times,serif" font-size="14.00">Singapore</text>
</g>
<!-- Unitedstates&#45;&gt;Singapore -->
<g id="edge19" class="edge"><title>Unitedstates&#45;&gt;Singapore</title>
<path fill="none" stroke="black" stroke-width="3.9" d="M1136.35,-699.966C1175.78,-625.912 1323.74,-347.99 1369.3,-262.405"/>
<polygon fill="black" stroke="black" stroke-width="3.9" points="1373.14,-255.192 1373.25,-264.315 1372.54,-259.404 1370.66,-262.935 1369.38,-262.254 1368.1,-261.572 1369.98,-258.041 1365.51,-260.192 1373.14,-255.192 1373.14,-255.192"/>
</g>
<!-- Spain -->
<g id="node14" class="node"><title>Spain</title>
<polygon fill="none" stroke="black" points="838.634,-849.127 784.634,-849.127 784.634,-813.127 838.634,-813.127 838.634,-849.127"/>
<text text-anchor="middle" x="811.634" y="-827.427" font-family="Times,serif" font-size="14.00">Spain</text>
</g>
<!-- Unitedstates&#45;&gt;Spain -->
<g id="edge43" class="edge"><title>Unitedstates&#45;&gt;Spain</title>
<path fill="none" stroke="black" stroke-width="4.5" d="M1085.12,-733.112C1022.58,-755.528 905.268,-797.57 846.728,-818.55"/>
<polygon fill="black" stroke="black" stroke-width="4.5" points="838.87,-821.367 844.693,-813.902 842.045,-818.37 845.81,-817.02 846.401,-818.667 846.991,-820.315 843.226,-821.664 848.109,-823.433 838.87,-821.367 838.87,-821.367"/>
</g>
<!-- Japan -->
<g id="node18" class="node"><title>Japan</title>
<polygon fill="none" stroke="black" points="1456.91,-438.565 1402.91,-438.565 1402.91,-402.565 1456.91,-402.565 1456.91,-438.565"/>
<text text-anchor="middle" x="1429.91" y="-416.865" font-family="Times,serif" font-size="14.00">Japan</text>
</g>
<!-- Unitedstates&#45;&gt;Japan -->
<g id="edge13" class="edge"><title>Unitedstates&#45;&gt;Japan</title>
<path fill="none" stroke="black" stroke-width="3.7" d="M1145.14,-700.065C1197.49,-648.687 1346.57,-502.362 1405.5,-444.518"/>
<polygon fill="black" stroke="black" stroke-width="3.7" points="1411.25,-438.878 1408.46,-447.453 1409.34,-442.644 1406.49,-445.446 1405.54,-444.482 1404.59,-443.519 1407.45,-440.717 1402.62,-441.512 1411.25,-438.878 1411.25,-438.878"/>
</g>
<!-- Portugal -->
<g id="node19" class="node"><title>Portugal</title>
<polygon fill="none" stroke="black" points="1458.43,-568.261 1396.43,-568.261 1396.43,-532.261 1458.43,-532.261 1458.43,-568.261"/>
<text text-anchor="middle" x="1427.43" y="-546.561" font-family="Times,serif" font-size="14.00">Portugal</text>
</g>
<!-- Unitedstates&#45;&gt;Portugal -->
<g id="edge15" class="edge"><title>Unitedstates&#45;&gt;Portugal</title>
<path fill="none" stroke="black" stroke-width="3.7" d="M1159.1,-700.102C1215.01,-668.879 1329.19,-605.12 1388.98,-571.733"/>
<polygon fill="black" stroke="black" stroke-width="3.7" points="1396,-567.816 1391.04,-575.351 1393.16,-570.945 1389.67,-572.895 1389.01,-571.716 1388.35,-570.538 1391.85,-568.588 1386.98,-568.082 1396,-567.816 1396,-567.816"/>
</g>
<!-- Mexico -->
<g id="node20" class="node"><title>Mexico</title>
<polygon fill="none" stroke="black" points="1424.36,-696.388 1365.36,-696.388 1365.36,-660.388 1424.36,-660.388 1424.36,-696.388"/>
<text text-anchor="middle" x="1394.86" y="-674.688" font-family="Times,serif" font-size="14.00">Mexico</text>
</g>
<!-- Unitedstates&#45;&gt;Mexico -->
<g id="edge16" class="edge"><title>Unitedstates&#45;&gt;Mexico</title>
<path fill="none" stroke="black" stroke-width="3.8" d="M1168.24,-712.055C1219.96,-704.372 1307.45,-691.374 1357.23,-683.977"/>
<polygon fill="black" stroke="black" stroke-width="3.8" points="1365.19,-682.796 1357.9,-688.2 1361.44,-684.769 1357.48,-685.356 1357.27,-683.972 1357.07,-682.587 1361.02,-681.999 1356.64,-679.743 1365.19,-682.796 1365.19,-682.796"/>
</g>
<!-- Brazil -->
<g id="node21" class="node"><title>Brazil</title>
<polygon fill="none" stroke="black" points="1236.49,-585.159 1182.49,-585.159 1182.49,-549.159 1236.49,-549.159 1236.49,-585.159"/>
<text text-anchor="middle" x="1209.49" y="-563.459" font-family="Times,serif" font-size="14.00">Brazil</text>
</g>
<!-- Unitedstates&#45;&gt;Brazil -->
<g id="edge67" class="edge"><title>Unitedstates&#45;&gt;Brazil</title>
<path fill="none" stroke="black" stroke-width="5.4" d="M1136.62,-700.014C1151.3,-673.245 1178.76,-623.179 1195.46,-592.738"/>
<polygon fill="black" stroke="black" stroke-width="5.4" points="1199.46,-585.448 1200.94,-595.383 1199.46,-590.013 1197.54,-593.52 1195.61,-592.462 1193.68,-591.404 1195.61,-587.897 1190.28,-589.54 1199.46,-585.448 1199.46,-585.448"/>
</g>
<!-- China -->
<g id="node22" class="node"><title>China</title>
<polygon fill="none" stroke="black" points="1239.65,-412.877 1185.65,-412.877 1185.65,-376.877 1239.65,-376.877 1239.65,-412.877"/>
<text text-anchor="middle" x="1212.65" y="-391.177" font-family="Times,serif" font-size="14.00">China</text>
</g>
<!-- Unitedstates&#45;&gt;China -->
<g id="edge37" class="edge"><title>Unitedstates&#45;&gt;China</title>
<path fill="none" stroke="black" stroke-width="4.4" d="M1131.5,-699.926C1145.99,-645.456 1188.86,-484.313 1205.72,-420.917"/>
<polygon fill="black" stroke="black" stroke-width="4.4" points="1207.83,-412.988 1210.56,-421.992 1208.45,-417.291 1207.42,-421.156 1205.78,-420.719 1204.13,-420.282 1205.16,-416.416 1200.99,-419.446 1207.83,-412.988 1207.83,-412.988"/>
</g>
<!-- Denmark -->
<g id="node23" class="node"><title>Denmark</title>
<polygon fill="none" stroke="black" points="1365.99,-816.062 1297.99,-816.062 1297.99,-780.062 1365.99,-780.062 1365.99,-816.062"/>
<text text-anchor="middle" x="1331.99" y="-794.362" font-family="Times,serif" font-size="14.00">Denmark</text>
</g>
<!-- Unitedstates&#45;&gt;Denmark -->
<g id="edge24" class="edge"><title>Unitedstates&#45;&gt;Denmark</title>
<path fill="none" stroke="black" stroke-width="4.1" d="M1168.18,-734.391C1203.71,-748.199 1254.57,-767.97 1290.17,-781.806"/>
<polygon fill="black" stroke="black" stroke-width="4.1" points="1297.97,-784.839 1288.84,-786.24 1293.68,-784.834 1289.95,-783.385 1290.52,-781.941 1291.08,-780.496 1294.81,-781.945 1292.19,-777.641 1297.97,-784.839 1297.97,-784.839"/>
</g>
<!-- Australia -->
<g id="node25" class="node"><title>Australia</title>
<polygon fill="none" stroke="black" points="1168.39,-258.859 1102.39,-258.859 1102.39,-222.859 1168.39,-222.859 1168.39,-258.859"/>
<text text-anchor="middle" x="1135.39" y="-237.159" font-family="Times,serif" font-size="14.00">Australia</text>
</g>
<!-- Unitedstates&#45;&gt;Australia -->
<g id="edge41" class="edge"><title>Unitedstates&#45;&gt;Australia</title>
<path fill="none" stroke="black" stroke-width="4.5" d="M1126.96,-700.107C1128.3,-627 1133.32,-353.67 1134.91,-267.236"/>
<polygon fill="black" stroke="black" stroke-width="4.5" points="1135.06,-259.007 1139.97,-267.099 1136.73,-263.039 1136.66,-267.038 1134.91,-267.006 1133.16,-266.974 1133.23,-262.975 1129.85,-266.913 1135.06,-259.007 1135.06,-259.007"/>
</g>
<!-- Switzerland -->
<g id="node26" class="node"><title>Switzerland</title>
<polygon fill="none" stroke="black" points="580.293,-654.024 499.293,-654.024 499.293,-618.024 580.293,-618.024 580.293,-654.024"/>
<text text-anchor="middle" x="539.793" y="-632.324" font-family="Times,serif" font-size="14.00">Switzerland</text>
</g>
<!-- Unitedstates&#45;&gt;Switzerland -->
<g id="edge33" class="edge"><title>Unitedstates&#45;&gt;Switzerland</title>
<path fill="none" stroke="black" stroke-width="4.3" d="M1084.93,-708.658C979.344,-689.839 701.758,-650.875 588.731,-638.918"/>
<polygon fill="black" stroke="black" stroke-width="4.3" points="580.56,-638.071 589.016,-634.084 584.708,-636.842 588.687,-637.254 588.517,-638.896 588.347,-640.537 584.368,-640.125 588.019,-643.707 580.56,-638.071 580.56,-638.071"/>
</g>
<!-- Italy -->
<g id="node30" class="node"><title>Italy</title>
<polygon fill="none" stroke="black" points="1271.61,-915.927 1217.61,-915.927 1217.61,-879.927 1271.61,-879.927 1271.61,-915.927"/>
<text text-anchor="middle" x="1244.61" y="-894.227" font-family="Times,serif" font-size="14.00">Italy</text>
</g>
<!-- Unitedstates&#45;&gt;Italy -->
<g id="edge48" class="edge"><title>Unitedstates&#45;&gt;Italy</title>
<path fill="none" stroke="black" stroke-width="4.7" d="M1138.59,-736.456C1159.79,-768.744 1203.98,-836.053 1228.07,-872.749"/>
<polygon fill="black" stroke="black" stroke-width="4.7" points="1232.61,-879.66 1223.8,-875.875 1228.87,-877.332 1226.68,-873.988 1228.22,-872.973 1229.77,-871.957 1231.96,-875.301 1232.64,-870.071 1232.61,-879.66 1232.61,-879.66"/>
</g>
<!-- Israel -->
<g id="node32" class="node"><title>Israel</title>
<polygon fill="none" stroke="black" points="1169.64,-989.51 1115.64,-989.51 1115.64,-953.51 1169.64,-953.51 1169.64,-989.51"/>
<text text-anchor="middle" x="1142.64" y="-967.81" font-family="Times,serif" font-size="14.00">Israel</text>
</g>
<!-- Unitedstates&#45;&gt;Israel -->
<g id="edge50" class="edge"><title>Unitedstates&#45;&gt;Israel</title>
<path fill="none" stroke="black" stroke-width="4.9" d="M1124.09,-736.279C1123,-780.361 1129.94,-893.691 1136.64,-945.259"/>
<polygon fill="black" stroke="black" stroke-width="4.9" points="1137.75,-953.275 1131.19,-946.111 1135.27,-949.581 1134.72,-945.62 1136.65,-945.351 1138.58,-945.082 1139.13,-949.044 1142.11,-944.591 1137.75,-953.275 1137.75,-953.275"/>
</g>
<!-- Hongkong -->
<g id="node35" class="node"><title>Hongkong</title>
<polygon fill="none" stroke="black" points="1054.44,-1041.8 980.443,-1041.8 980.443,-1005.8 1054.44,-1005.8 1054.44,-1041.8"/>
<text text-anchor="middle" x="1017.44" y="-1020.1" font-family="Times,serif" font-size="14.00">Hongkong</text>
</g>
<!-- Unitedstates&#45;&gt;Hongkong -->
<g id="edge56" class="edge"><title>Unitedstates&#45;&gt;Hongkong</title>
<path fill="none" stroke="black" stroke-width="5" d="M1120.12,-736.437C1101.54,-788.449 1048.15,-937.861 1026.61,-998.134"/>
<polygon fill="black" stroke="black" stroke-width="5" points="1023.91,-1005.7 1021.31,-996.27 1023.37,-1001.26 1024.72,-997.49 1026.6,-998.163 1028.49,-998.836 1027.14,-1002.6 1031.9,-1000.06 1023.91,-1005.7 1023.91,-1005.7"/>
</g>
<!-- Southkorea -->
<g id="node37" class="node"><title>Southkorea</title>
<polygon fill="none" stroke="black" points="910.446,-1063.4 832.446,-1063.4 832.446,-1027.4 910.446,-1027.4 910.446,-1063.4"/>
<text text-anchor="middle" x="871.446" y="-1041.7" font-family="Times,serif" font-size="14.00">Southkorea</text>
</g>
<!-- Unitedstates&#45;&gt;Southkorea -->
<g id="edge75" class="edge"><title>Unitedstates&#45;&gt;Southkorea</title>
<path fill="none" stroke="black" stroke-width="5.8" d="M1112.54,-736.293C1069.5,-791.483 939.619,-957.998 890.523,-1020.94"/>
<polygon fill="black" stroke="black" stroke-width="5.8" points="885.486,-1027.4 885.261,-1017.08 886.053,-1022.77 888.514,-1019.62 890.406,-1021.09 892.298,-1022.57 889.838,-1025.72 895.551,-1025.11 885.486,-1027.4 885.486,-1027.4"/>
</g>
<!-- Germany&#45;&gt;Unitedstates -->
<g id="edge69" class="edge"><title>Germany&#45;&gt;Unitedstates</title>
<path fill="none" stroke="black" stroke-width="5.5" d="M535.787,-485.262C640.03,-531.722 954.358,-657.752 1076.93,-702.453"/>
<polygon fill="black" stroke="black" stroke-width="5.5" points="1084.73,-705.278 1075.1,-708.368 1080.2,-706.03 1076.44,-704.667 1077.2,-702.551 1077.97,-700.436 1081.73,-701.799 1079.31,-696.734 1084.73,-705.278 1084.73,-705.278"/>
</g>
<!-- Germany&#45;&gt;Germany -->
<g id="edge84" class="edge"><title>Germany&#45;&gt;Germany</title>
<path fill="none" stroke="black" stroke-width="7.7" d="M535.643,-474.726C545.762,-474.525 553.635,-472.28 553.635,-467.991 553.635,-464.976 549.743,-462.97 543.914,-461.976"/>
<polygon fill="black" stroke="black" stroke-width="7.7" points="535.643,-461.256 544.364,-453.32 539.919,-458.265 543.904,-458.612 543.613,-461.95 543.323,-465.287 539.338,-464.94 542.862,-470.579 535.643,-461.256 535.643,-461.256"/>
</g>
<!-- Germany&#45;&gt;Taiwan -->
<g id="edge2" class="edge"><title>Germany&#45;&gt;Taiwan</title>
<path fill="none" stroke="black" stroke-width="3.6" d="M506.46,-449.854C514.316,-420.325 529.902,-361.741 538.963,-327.685"/>
<polygon fill="black" stroke="black" stroke-width="3.6" points="541.117,-319.587 542.974,-328.36 541.345,-323.787 540.316,-327.653 539.06,-327.318 537.804,-326.984 538.832,-323.119 535.146,-326.277 541.117,-319.587 541.117,-319.587"/>
</g>
<!-- Germany&#45;&gt;Unitedkingdom -->
<g id="edge27" class="edge"><title>Germany&#45;&gt;Unitedkingdom</title>
<path fill="none" stroke="black" stroke-width="4.1" d="M522.889,-449.858C582.681,-391.389 751.005,-208.348 806.706,-141.317"/>
<polygon fill="black" stroke="black" stroke-width="4.1" points="812.037,-134.831 810.52,-143.94 810.694,-138.906 808.154,-141.996 806.957,-141.011 805.76,-140.027 808.3,-136.937 803.394,-138.083 812.037,-134.831 812.037,-134.831"/>
</g>
<!-- Germany&#45;&gt;France -->
<g id="edge21" class="edge"><title>Germany&#45;&gt;France</title>
<path fill="none" stroke="black" stroke-width="3.9" d="M510.794,-486.25C536.489,-537.472 609.302,-682.62 638.911,-741.644"/>
<polygon fill="black" stroke="black" stroke-width="3.9" points="642.63,-749.057 635.121,-743.874 639.54,-746.132 637.747,-742.557 639.043,-741.907 640.339,-741.257 642.132,-744.832 642.964,-739.939 642.63,-749.057 642.63,-749.057"/>
</g>
<!-- Germany&#45;&gt;Switzerland -->
<g id="edge51" class="edge"><title>Germany&#45;&gt;Switzerland</title>
<path fill="none" stroke="black" stroke-width="4.9" d="M501.374,-486.295C505.148,-516.295 518.428,-575.978 528.7,-610.244"/>
<polygon fill="black" stroke="black" stroke-width="4.9" points="531.106,-617.967 523.463,-611.969 528.054,-614.728 526.864,-610.909 528.726,-610.329 530.588,-609.749 531.778,-613.568 533.989,-608.689 531.106,-617.967 531.106,-617.967"/>
</g>
<!-- Belgium -->
<g id="node5" class="node"><title>Belgium</title>
<polygon fill="none" stroke="black" points="483.339,-1064.2 419.339,-1064.2 419.339,-1028.2 483.339,-1028.2 483.339,-1064.2"/>
<text text-anchor="middle" x="451.339" y="-1042.5" font-family="Times,serif" font-size="14.00">Belgium</text>
</g>
<!-- Belgium&#45;&gt;Belgium -->
<g id="edge70" class="edge"><title>Belgium&#45;&gt;Belgium</title>
<path fill="none" stroke="black" stroke-width="5.6" d="M483.559,-1052.95C493.518,-1052.81 501.339,-1050.56 501.339,-1046.2 501.339,-1043.14 497.472,-1041.12 491.715,-1040.14"/>
<polygon fill="black" stroke="black" stroke-width="5.6" points="483.559,-1039.46 492.055,-1033.85 487.736,-1037.5 491.722,-1037.83 491.531,-1040.12 491.34,-1042.42 487.354,-1042.08 491.008,-1046.4 483.559,-1039.46 483.559,-1039.46"/>
</g>
<!-- Morocco -->
<g id="node6" class="node"><title>Morocco</title>
<polygon fill="none" stroke="black" points="564.221,-952.902 498.221,-952.902 498.221,-916.902 564.221,-916.902 564.221,-952.902"/>
<text text-anchor="middle" x="531.221" y="-931.202" font-family="Times,serif" font-size="14.00">Morocco</text>
</g>
<!-- Belgium&#45;&gt;Morocco -->
<g id="edge3" class="edge"><title>Belgium&#45;&gt;Morocco</title>
<path fill="none" stroke="black" stroke-width="3.6" d="M464.53,-1027.82C477.907,-1009.18 498.693,-980.222 513.502,-959.59"/>
<polygon fill="black" stroke="black" stroke-width="3.6" points="518.275,-952.939 516.901,-961.799 516.999,-956.946 514.667,-960.196 513.61,-959.438 512.554,-958.68 514.887,-955.43 510.32,-957.077 518.275,-952.939 518.275,-952.939"/>
</g>
<!-- Canada&#45;&gt;Unitedstates -->
<g id="edge77" class="edge"><title>Canada&#45;&gt;Unitedstates</title>
<path fill="none" stroke="black" stroke-width="6.1" d="M674.769,-192.822C736.868,-273.926 1016.4,-601.679 1101.83,-693.984"/>
<polygon fill="black" stroke="black" stroke-width="6.1" points="1107.4,-699.968 1096.93,-698.793 1102.81,-698.78 1100.08,-695.853 1101.95,-694.115 1103.82,-692.376 1106.54,-695.303 1106.97,-689.437 1107.4,-699.968 1107.4,-699.968"/>
</g>
<!-- Canada&#45;&gt;Canada -->
<g id="edge79" class="edge"><title>Canada&#45;&gt;Canada</title>
<path fill="none" stroke="black" stroke-width="6.8" d="M691.156,-181.363C701.054,-181.435 709.049,-179.185 709.049,-174.615 709.049,-171.401 705.096,-169.335 699.309,-168.417"/>
<polygon fill="black" stroke="black" stroke-width="6.8" points="691.156,-167.867 699.652,-160.772 695.342,-165.242 699.333,-165.512 699.137,-168.405 698.942,-171.299 694.951,-171.029 698.622,-176.038 691.156,-167.867 691.156,-167.867"/>
</g>
<!-- Canada&#45;&gt;Unitedkingdom -->
<g id="edge4" class="edge"><title>Canada&#45;&gt;Unitedkingdom</title>
<path fill="none" stroke="black" stroke-width="3.6" d="M691.077,-169.879C716.783,-162.539 754.85,-149.205 783.801,-137.574"/>
<polygon fill="black" stroke="black" stroke-width="3.6" points="791.329,-134.502 785.452,-141.274 788.116,-137.217 784.413,-138.728 783.922,-137.524 783.43,-136.321 787.134,-134.809 782.391,-133.775 791.329,-134.502 791.329,-134.502"/>
</g>
<!-- Unitedkingdom&#45;&gt;Unitedstates -->
<g id="edge76" class="edge"><title>Unitedkingdom&#45;&gt;Unitedstates</title>
<path fill="none" stroke="black" stroke-width="6.1" d="M831.122,-134.616C868.371,-221.263 1054.48,-592.668 1110.69,-693.124"/>
<polygon fill="black" stroke="black" stroke-width="6.1" points="1114.66,-700.148 1104.75,-696.561 1110.47,-697.921 1108.5,-694.439 1110.72,-693.184 1112.94,-691.929 1114.91,-695.411 1116.7,-689.806 1114.66,-700.148 1114.66,-700.148"/>
</g>
<!-- Unitedkingdom&#45;&gt;Germany -->
<g id="edge36" class="edge"><title>Unitedkingdom&#45;&gt;Germany</title>
<path fill="none" stroke="black" stroke-width="4.4" d="M803.503,-134.614C743.711,-193.083 575.387,-376.124 519.686,-443.155"/>
<polygon fill="black" stroke="black" stroke-width="4.4" points="514.355,-449.641 515.611,-440.317 515.582,-445.471 518.122,-442.381 519.435,-443.46 520.748,-444.54 518.208,-447.63 523.259,-446.604 514.355,-449.641 514.355,-449.641"/>
</g>
<!-- Unitedkingdom&#45;&gt;Canada -->
<g id="edge28" class="edge"><title>Unitedkingdom&#45;&gt;Canada</title>
<path fill="none" stroke="black" stroke-width="4.1" d="M773.537,-128.188C749.253,-136.068 720.819,-146.411 698.805,-155.428"/>
<polygon fill="black" stroke="black" stroke-width="4.1" points="691.303,-158.556 696.912,-151.22 694.398,-155.586 698.09,-154.047 698.687,-155.477 699.283,-156.908 695.591,-158.448 700.462,-159.735 691.303,-158.556 691.303,-158.556"/>
</g>
<!-- Unitedkingdom&#45;&gt;Unitedkingdom -->
<g id="edge82" class="edge"><title>Unitedkingdom&#45;&gt;Unitedkingdom</title>
<path fill="none" stroke="black" stroke-width="7.2" d="M875.912,-122.973C886.311,-122.266 893.757,-120.102 893.757,-116.481 893.757,-113.878 889.91,-112.028 883.885,-110.931"/>
<polygon fill="black" stroke="black" stroke-width="7.2" points="875.912,-109.988 884.807,-102.883 880.248,-107.379 884.22,-107.849 883.856,-110.927 883.492,-114.006 879.52,-113.536 882.905,-118.971 875.912,-109.988 875.912,-109.988"/>
</g>
<!-- Unitedkingdom&#45;&gt;Brazil -->
<g id="edge44" class="edge"><title>Unitedkingdom&#45;&gt;Brazil</title>
<path fill="none" stroke="black" stroke-width="4.6" d="M840.316,-134.706C900.616,-205.343 1118.99,-461.15 1188.26,-542.286"/>
<polygon fill="black" stroke="black" stroke-width="4.6" points="1193.74,-548.707 1184.61,-545.983 1189.77,-546.834 1187.17,-543.791 1188.54,-542.623 1189.91,-541.454 1192.51,-544.496 1192.48,-539.263 1193.74,-548.707 1193.74,-548.707"/>
</g>
<!-- Unitedkingdom&#45;&gt;China -->
<g id="edge20" class="edge"><title>Unitedkingdom&#45;&gt;China</title>
<path fill="none" stroke="black" stroke-width="3.9" d="M849.909,-134.533C917.891,-183.324 1105.24,-317.786 1180.62,-371.887"/>
<polygon fill="black" stroke="black" stroke-width="3.9" points="1187.56,-376.866 1178.5,-375.766 1183.46,-375.712 1180.21,-373.379 1181.06,-372.201 1181.9,-371.023 1185.15,-373.356 1183.62,-368.637 1187.56,-376.866 1187.56,-376.866"/>
</g>
<!-- Unitedkingdom&#45;&gt;Australia -->
<g id="edge26" class="edge"><title>Unitedkingdom&#45;&gt;Australia</title>
<path fill="none" stroke="black" stroke-width="4.1" d="M869.926,-134.566C930.315,-158.746 1036.48,-201.253 1094.57,-224.514"/>
<polygon fill="black" stroke="black" stroke-width="4.1" points="1102.1,-227.527 1092.95,-228.835 1097.81,-227.479 1094.09,-225.992 1094.67,-224.553 1095.24,-223.114 1098.96,-224.601 1096.38,-220.271 1102.1,-227.527 1102.1,-227.527"/>
</g>
<!-- Russia -->
<g id="node9" class="node"><title>Russia</title>
<polygon fill="none" stroke="black" points="1022.4,-158.387 968.402,-158.387 968.402,-122.387 1022.4,-122.387 1022.4,-158.387"/>
<text text-anchor="middle" x="995.402" y="-136.687" font-family="Times,serif" font-size="14.00">Russia</text>
</g>
<!-- Russia&#45;&gt;Unitedstates -->
<g id="edge59" class="edge"><title>Russia&#45;&gt;Unitedstates</title>
<path fill="none" stroke="black" stroke-width="5.1" d="M999.546,-158.636C1018.64,-242.706 1098.14,-592.82 1120.66,-691.968"/>
<polygon fill="black" stroke="black" stroke-width="5.1" points="1122.48,-699.985 1115.11,-693.454 1119.59,-696.538 1118.71,-692.638 1120.71,-692.184 1122.71,-691.73 1123.59,-695.63 1126.3,-690.913 1122.48,-699.985 1122.48,-699.985"/>
</g>
<!-- Russia&#45;&gt;Unitedkingdom -->
<g id="edge5" class="edge"><title>Russia&#45;&gt;Unitedkingdom</title>
<path fill="none" stroke="black" stroke-width="3.6" d="M968.363,-136.599C945.77,-133.434 912.735,-128.806 884.043,-124.786"/>
<polygon fill="black" stroke="black" stroke-width="3.6" points="876.078,-123.671 884.563,-120.77 880.22,-122.938 884.181,-123.493 884.001,-124.781 883.82,-126.068 879.859,-125.513 883.439,-128.791 876.078,-123.671 876.078,-123.671"/>
</g>
<!-- Russia&#45;&gt;Russia -->
<g id="edge65" class="edge"><title>Russia&#45;&gt;Russia</title>
<path fill="none" stroke="black" stroke-width="5.3" d="M1022.64,-147.131C1032.43,-147.276 1040.4,-145.028 1040.4,-140.387 1040.4,-137.125 1036.46,-135.045 1030.72,-134.148"/>
<polygon fill="black" stroke="black" stroke-width="5.3" points="1022.64,-133.644 1031,-128.191 1026.77,-131.747 1030.76,-131.996 1030.63,-134.142 1030.49,-136.288 1026.5,-136.039 1030.26,-140.093 1022.64,-133.644 1022.64,-133.644"/>
</g>
<!-- Netherlands&#45;&gt;Unitedstates -->
<g id="edge63" class="edge"><title>Netherlands&#45;&gt;Unitedstates</title>
<path fill="none" stroke="black" stroke-width="5.3" d="M1021.05,-795.339C1046.58,-779.941 1079.46,-757.965 1101.72,-741.333"/>
<polygon fill="black" stroke="black" stroke-width="5.3" points="1108.27,-736.356 1105.5,-745.944 1106.38,-740.488 1103.2,-742.909 1101.9,-741.197 1100.6,-739.486 1103.78,-737.065 1098.29,-736.45 1108.27,-736.356 1108.27,-736.356"/>
</g>
<!-- Netherlands&#45;&gt;Germany -->
<g id="edge14" class="edge"><title>Netherlands&#45;&gt;Germany</title>
<path fill="none" stroke="black" stroke-width="3.7" d="M957.837,-795.412C876.855,-737.29 623.356,-555.352 533.559,-490.903"/>
<polygon fill="black" stroke="black" stroke-width="3.7" points="526.88,-486.11 535.806,-487.393 530.917,-487.345 534.166,-489.678 533.379,-490.774 532.592,-491.871 529.342,-489.539 530.952,-494.156 526.88,-486.11 526.88,-486.11"/>
</g>
<!-- Netherlands&#45;&gt;Unitedkingdom -->
<g id="edge12" class="edge"><title>Netherlands&#45;&gt;Unitedkingdom</title>
<path fill="none" stroke="black" stroke-width="3.7" d="M978.89,-795.216C957.119,-699.347 856.175,-254.832 830.639,-142.382"/>
<polygon fill="black" stroke="black" stroke-width="3.7" points="828.866,-134.575 834.697,-141.454 831.068,-138.176 831.954,-142.077 830.638,-142.376 829.321,-142.675 828.435,-138.774 826.579,-143.298 828.866,-134.575 828.866,-134.575"/>
</g>
<!-- Netherlands&#45;&gt;Netherlands -->
<g id="edge80" class="edge"><title>Netherlands&#45;&gt;Netherlands</title>
<path fill="none" stroke="black" stroke-width="7.1" d="M1024.13,-820.159C1034.38,-819.693 1042.04,-817.474 1042.04,-813.502 1042.04,-810.708 1038.25,-808.782 1032.44,-807.723"/>
<polygon fill="black" stroke="black" stroke-width="7.1" points="1024.13,-806.844 1032.92,-799.741 1028.42,-804.231 1032.4,-804.652 1032.08,-807.685 1031.76,-810.718 1027.78,-810.298 1031.24,-815.628 1024.13,-806.844 1024.13,-806.844"/>
</g>
<!-- Netherlands&#45;&gt;France -->
<g id="edge6" class="edge"><title>Netherlands&#45;&gt;France</title>
<path fill="none" stroke="black" stroke-width="3.6" d="M941.743,-807.716C876.125,-798.523 749.166,-780.736 687.297,-772.069"/>
<polygon fill="black" stroke="black" stroke-width="3.6" points="679.012,-770.908 687.496,-768.007 683.153,-770.175 687.115,-770.731 686.934,-772.018 686.754,-773.305 682.793,-772.75 686.372,-776.029 679.012,-770.908 679.012,-770.908"/>
</g>
<!-- France&#45;&gt;Unitedstates -->
<g id="edge22" class="edge"><title>France&#45;&gt;Unitedstates</title>
<path fill="none" stroke="black" stroke-width="4" d="M678.907,-767.632C756.066,-763.9 976.95,-741.527 1076.69,-727.751"/>
<polygon fill="black" stroke="black" stroke-width="4" points="1084.81,-726.61 1077.51,-732.179 1081.05,-728.652 1077.09,-729.208 1076.88,-727.723 1076.67,-726.238 1080.64,-725.681 1076.26,-723.267 1084.81,-726.61 1084.81,-726.61"/>
</g>
<!-- France&#45;&gt;Morocco -->
<g id="edge23" class="edge"><title>France&#45;&gt;Morocco</title>
<path fill="none" stroke="black" stroke-width="4" d="M638.55,-785.357C616.862,-815.575 573.507,-875.983 549.057,-910.049"/>
<polygon fill="black" stroke="black" stroke-width="4" points="544.142,-916.899 545.15,-907.775 545.255,-912.774 547.588,-909.525 548.806,-910.399 550.025,-911.274 547.692,-914.523 552.462,-913.023 544.142,-916.899 544.142,-916.899"/>
</g>
<!-- France&#45;&gt;France -->
<g id="edge83" class="edge"><title>France&#45;&gt;France</title>
<path fill="none" stroke="black" stroke-width="7.5" d="M678.91,-773.821C688.693,-773.966 696.67,-771.718 696.67,-767.077 696.67,-763.814 692.726,-761.734 686.984,-760.837"/>
<polygon fill="black" stroke="black" stroke-width="7.5" points="678.91,-760.334 687.42,-752.411 683.105,-757.339 687.097,-757.588 686.895,-760.832 686.692,-764.076 682.7,-763.827 686.37,-769.253 678.91,-760.334 678.91,-760.334"/>
</g>
<!-- France&#45;&gt;Spain -->
<g id="edge8" class="edge"><title>France&#45;&gt;Spain</title>
<path fill="none" stroke="black" stroke-width="3.6" d="M678.805,-777.943C705.89,-788.787 747.608,-805.491 777.053,-817.281"/>
<polygon fill="black" stroke="black" stroke-width="3.6" points="784.633,-820.316 775.701,-821.102 780.436,-820.036 776.723,-818.549 777.206,-817.342 777.689,-816.135 781.403,-817.622 778.712,-813.582 784.633,-820.316 784.633,-820.316"/>
</g>
<!-- France&#45;&gt;Brazil -->
<g id="edge18" class="edge"><title>France&#45;&gt;Brazil</title>
<path fill="none" stroke="black" stroke-width="3.8" d="M678.952,-757.3C771.26,-724.217 1071.83,-616.497 1174.63,-579.651"/>
<polygon fill="black" stroke="black" stroke-width="3.8" points="1182.26,-576.918 1176.17,-583.642 1178.97,-579.586 1175.2,-580.935 1174.73,-579.617 1174.26,-578.3 1178.02,-576.95 1173.29,-575.593 1182.26,-576.918 1182.26,-576.918"/>
</g>
<!-- Sweden&#45;&gt;Sweden -->
<g id="edge72" class="edge"><title>Sweden&#45;&gt;Sweden</title>
<path fill="none" stroke="black" stroke-width="5.7" d="M1443.47,-329.49C1453.36,-329.49 1461.28,-327.24 1461.28,-322.74 1461.28,-319.576 1457.37,-317.525 1451.6,-316.585"/>
<polygon fill="black" stroke="black" stroke-width="5.7" points="1443.47,-315.99 1451.91,-310.179 1447.63,-313.938 1451.62,-314.23 1451.45,-316.574 1451.28,-318.918 1447.29,-318.626 1450.98,-322.969 1443.47,-315.99 1443.47,-315.99"/>
</g>
<!-- Sweden&#45;&gt;Singapore -->
<g id="edge7" class="edge"><title>Sweden&#45;&gt;Singapore</title>
<path fill="none" stroke="black" stroke-width="3.6" d="M1407.2,-304.591C1402.79,-292.45 1396.94,-276.295 1392.06,-262.841"/>
<polygon fill="black" stroke="black" stroke-width="3.6" points="1389.31,-255.282 1395.85,-261.422 1391.9,-258.599 1393.26,-262.36 1392.04,-262.803 1390.82,-263.246 1389.46,-259.486 1388.23,-264.184 1389.31,-255.282 1389.31,-255.282"/>
</g>
<!-- Spain&#45;&gt;Spain -->
<g id="edge81" class="edge"><title>Spain&#45;&gt;Spain</title>
<path fill="none" stroke="black" stroke-width="7.2" d="M838.875,-837.871C848.658,-838.016 856.634,-835.768 856.634,-831.127 856.634,-827.865 852.691,-825.785 846.949,-824.888"/>
<polygon fill="black" stroke="black" stroke-width="7.2" points="838.875,-824.384 847.364,-816.798 843.06,-821.539 847.053,-821.788 846.86,-824.882 846.667,-827.976 842.675,-827.727 846.355,-832.966 838.875,-824.384 838.875,-824.384"/>
</g>
<!-- Czechrepublic -->
<g id="node15" class="node"><title>Czechrepublic</title>
<polygon fill="none" stroke="black" points="762.12,-1044.25 667.12,-1044.25 667.12,-1008.25 762.12,-1008.25 762.12,-1044.25"/>
<text text-anchor="middle" x="714.62" y="-1022.55" font-family="Times,serif" font-size="14.00">Czechrepublic</text>
</g>
<!-- Czechrepublic&#45;&gt;Unitedstates -->
<g id="edge9" class="edge"><title>Czechrepublic&#45;&gt;Unitedstates</title>
<path fill="none" stroke="black" stroke-width="3.6" d="M738.855,-1008.13C809.765,-955.119 1016.79,-800.349 1095.64,-741.402"/>
<polygon fill="black" stroke="black" stroke-width="3.6" points="1102.42,-736.332 1098.44,-744.366 1100,-739.769 1096.79,-742.164 1096.01,-741.122 1095.23,-740.081 1098.44,-737.686 1093.59,-737.879 1102.42,-736.332 1102.42,-736.332"/>
</g>
<!-- Czechrepublic&#45;&gt;Czechrepublic -->
<g id="edge17" class="edge"><title>Czechrepublic&#45;&gt;Czechrepublic</title>
<path fill="none" stroke="black" stroke-width="3.8" d="M762.311,-1032.8C772.634,-1032.16 780.12,-1029.97 780.12,-1026.25 780.12,-1023.63 776.419,-1021.77 770.633,-1020.68"/>
<polygon fill="black" stroke="black" stroke-width="3.8" points="762.311,-1019.7 770.755,-1016.39 766.447,-1018.77 770.419,-1019.24 770.256,-1020.63 770.092,-1022.02 766.12,-1021.55 769.757,-1024.88 762.311,-1019.7 762.311,-1019.7"/>
</g>
<!-- Serbia -->
<g id="node16" class="node"><title>Serbia</title>
<polygon fill="none" stroke="black" points="841.63,-36 787.63,-36 787.63,6.39488e-14 841.63,6.39488e-14 841.63,-36"/>
<text text-anchor="middle" x="814.63" y="-14.3" font-family="Times,serif" font-size="14.00">Serbia</text>
</g>
<!-- Serbia&#45;&gt;Unitedkingdom -->
<g id="edge10" class="edge"><title>Serbia&#45;&gt;Unitedkingdom</title>
<path fill="none" stroke="black" stroke-width="3.6" d="M816.488,-36.0629C818.048,-51.2377 820.299,-73.1237 822.058,-90.2335"/>
<polygon fill="black" stroke="black" stroke-width="3.6" points="822.877,-98.1988 818.03,-90.6551 821.175,-94.3528 820.766,-90.3738 822.059,-90.2408 823.352,-90.1078 823.761,-94.0868 826.088,-89.8265 822.877,-98.1988 822.877,-98.1988"/>
</g>
<!-- Serbia&#45;&gt;Serbia -->
<g id="edge31" class="edge"><title>Serbia&#45;&gt;Serbia</title>
<path fill="none" stroke="black" stroke-width="4.2" d="M841.871,-24.7434C851.654,-24.8884 859.63,-22.6406 859.63,-18 859.63,-14.7371 855.687,-12.6571 849.945,-11.7601"/>
<polygon fill="black" stroke="black" stroke-width="4.2" points="841.871,-11.2566 850.15,-7.03878 845.963,-9.90871 849.955,-10.1577 849.856,-11.7546 849.756,-13.3515 845.764,-13.1025 849.561,-16.4705 841.871,-11.2566 841.871,-11.2566"/>
</g>
<!-- Newzealand -->
<g id="node17" class="node"><title>Newzealand</title>
<polygon fill="none" stroke="black" points="545.083,-833.601 462.083,-833.601 462.083,-797.601 545.083,-797.601 545.083,-833.601"/>
<text text-anchor="middle" x="503.583" y="-811.901" font-family="Times,serif" font-size="14.00">Newzealand</text>
</g>
<!-- Newzealand&#45;&gt;Newzealand -->
<g id="edge11" class="edge"><title>Newzealand&#45;&gt;Newzealand</title>
<path fill="none" stroke="black" stroke-width="3.7" d="M545.288,-822.245C555.49,-821.753 563.083,-819.538 563.083,-815.601 563.083,-812.832 559.329,-810.915 553.554,-809.85"/>
<polygon fill="black" stroke="black" stroke-width="3.7" points="545.288,-808.956 553.689,-805.678 549.41,-808.044 553.387,-808.474 553.242,-809.816 553.096,-811.159 549.12,-810.728 552.794,-813.955 545.288,-808.956 545.288,-808.956"/>
</g>
<!-- Portugal&#45;&gt;Portugal -->
<g id="edge29" class="edge"><title>Portugal&#45;&gt;Portugal</title>
<path fill="none" stroke="black" stroke-width="4.2" d="M1458.54,-557.009C1468.52,-556.94 1476.43,-554.691 1476.43,-550.261 1476.43,-547.146 1472.52,-545.11 1466.73,-544.151"/>
<polygon fill="black" stroke="black" stroke-width="4.2" points="1458.54,-543.513 1466.88,-539.423 1462.65,-542.228 1466.64,-542.539 1466.51,-544.134 1466.39,-545.729 1462.4,-545.419 1466.14,-548.845 1458.54,-543.513 1458.54,-543.513"/>
</g>
<!-- Mexico&#45;&gt;Mexico -->
<g id="edge34" class="edge"><title>Mexico&#45;&gt;Mexico</title>
<path fill="none" stroke="black" stroke-width="4.4" d="M1424.55,-685.138C1434.44,-685.138 1442.36,-682.888 1442.36,-678.388 1442.36,-675.224 1438.44,-673.172 1432.68,-672.233"/>
<polygon fill="black" stroke="black" stroke-width="4.4" points="1424.55,-671.638 1432.89,-667.284 1428.66,-670.234 1432.65,-670.526 1432.52,-672.221 1432.4,-673.917 1428.41,-673.625 1432.16,-677.158 1424.55,-671.638 1424.55,-671.638"/>
</g>
<!-- Brazil&#45;&gt;Brazil -->
<g id="edge74" class="edge"><title>Brazil&#45;&gt;Brazil</title>
<path fill="none" stroke="black" stroke-width="5.8" d="M1236.73,-573.903C1246.51,-574.048 1254.49,-571.8 1254.49,-567.159 1254.49,-563.896 1250.55,-561.816 1244.8,-560.919"/>
<polygon fill="black" stroke="black" stroke-width="5.8" points="1236.73,-560.416 1245.12,-554.402 1240.87,-558.27 1244.86,-558.519 1244.71,-560.914 1244.57,-563.309 1240.57,-563.06 1244.31,-567.426 1236.73,-560.416 1236.73,-560.416"/>
</g>
<!-- China&#45;&gt;China -->
<g id="edge38" class="edge"><title>China&#45;&gt;China</title>
<path fill="none" stroke="black" stroke-width="4.4" d="M1239.89,-401.62C1249.68,-401.765 1257.65,-399.518 1257.65,-394.877 1257.65,-391.614 1253.71,-389.534 1247.97,-388.637"/>
<polygon fill="black" stroke="black" stroke-width="4.4" points="1239.89,-388.134 1248.19,-383.691 1243.99,-386.686 1247.98,-386.935 1247.88,-388.632 1247.77,-390.328 1243.78,-390.079 1247.57,-393.572 1239.89,-388.134 1239.89,-388.134"/>
</g>
<!-- Denmark&#45;&gt;Denmark -->
<g id="edge45" class="edge"><title>Denmark&#45;&gt;Denmark</title>
<path fill="none" stroke="black" stroke-width="4.7" d="M1366,-804.797C1376.12,-804.596 1383.99,-802.351 1383.99,-798.062 1383.99,-795.047 1380.1,-793.041 1374.27,-792.047"/>
<polygon fill="black" stroke="black" stroke-width="4.7" points="1366,-791.327 1374.43,-786.753 1370.15,-789.831 1374.13,-790.177 1373.97,-792.021 1373.81,-793.864 1369.83,-793.517 1373.51,-797.288 1366,-791.327 1366,-791.327"/>
</g>
<!-- Southafrica -->
<g id="node24" class="node"><title>Southafrica</title>
<polygon fill="none" stroke="black" points="456.083,-371.601 377.083,-371.601 377.083,-335.601 456.083,-335.601 456.083,-371.601"/>
<text text-anchor="middle" x="416.583" y="-349.901" font-family="Times,serif" font-size="14.00">Southafrica</text>
</g>
<!-- Southafrica&#45;&gt;Southafrica -->
<g id="edge25" class="edge"><title>Southafrica&#45;&gt;Southafrica</title>
<path fill="none" stroke="black" stroke-width="4.1" d="M456.088,-360.281C466.347,-359.871 474.083,-357.644 474.083,-353.601 474.083,-350.758 470.258,-348.813 464.422,-347.766"/>
<polygon fill="black" stroke="black" stroke-width="4.1" points="456.088,-346.92 464.513,-343.139 460.225,-345.782 464.204,-346.186 464.048,-347.728 463.891,-349.27 459.911,-348.866 463.582,-352.317 456.088,-346.92 456.088,-346.92"/>
</g>
<!-- Australia&#45;&gt;Australia -->
<g id="edge68" class="edge"><title>Australia&#45;&gt;Australia</title>
<path fill="none" stroke="black" stroke-width="5.5" d="M1168.74,-247.594C1178.67,-247.393 1186.39,-245.148 1186.39,-240.859 1186.39,-237.843 1182.57,-235.838 1176.86,-234.843"/>
<polygon fill="black" stroke="black" stroke-width="5.5" points="1168.74,-234.123 1177.26,-228.667 1172.93,-232.236 1176.91,-232.589 1176.71,-234.83 1176.51,-237.071 1172.53,-236.718 1176.17,-240.994 1168.74,-234.123 1168.74,-234.123"/>
</g>
<!-- Switzerland&#45;&gt;Unitedstates -->
<g id="edge40" class="edge"><title>Switzerland&#45;&gt;Unitedstates</title>
<path fill="none" stroke="black" stroke-width="4.5" d="M580.549,-645.437C685.109,-664.135 962.632,-703.114 1076.65,-715.234"/>
<polygon fill="black" stroke="black" stroke-width="4.5" points="1084.9,-716.093 1076.42,-720.3 1080.74,-717.419 1076.76,-717.005 1076.94,-715.265 1077.12,-713.524 1081.1,-713.938 1077.46,-710.229 1084.9,-716.093 1084.9,-716.093"/>
</g>
<!-- Switzerland&#45;&gt;Germany -->
<g id="edge55" class="edge"><title>Switzerland&#45;&gt;Germany</title>
<path fill="none" stroke="black" stroke-width="5" d="M540.054,-617.721C536.28,-587.721 523,-528.038 512.728,-493.772"/>
<polygon fill="black" stroke="black" stroke-width="5" points="510.322,-486.049 518.072,-492.014 513.421,-489.273 514.611,-493.092 512.702,-493.687 510.792,-494.282 509.603,-490.463 507.331,-495.36 510.322,-486.049 510.322,-486.049"/>
</g>
<!-- Switzerland&#45;&gt;France -->
<g id="edge30" class="edge"><title>Switzerland&#45;&gt;France</title>
<path fill="none" stroke="black" stroke-width="4.2" d="M555.349,-654.247C575.054,-677.329 609.072,-717.179 630.959,-742.817"/>
<polygon fill="black" stroke="black" stroke-width="4.2" points="636.246,-749.01 627.458,-745.993 632.432,-747.006 629.835,-743.964 631.052,-742.925 632.268,-741.886 634.866,-744.929 634.645,-739.857 636.246,-749.01 636.246,-749.01"/>
</g>
<!-- Switzerland&#45;&gt;Switzerland -->
<g id="edge73" class="edge"><title>Switzerland&#45;&gt;Switzerland</title>
<path fill="none" stroke="black" stroke-width="5.7" d="M580.528,-642.682C590.694,-642.216 598.293,-639.997 598.293,-636.024 598.293,-633.231 594.536,-631.305 588.772,-630.245"/>
<polygon fill="black" stroke="black" stroke-width="5.7" points="580.528,-629.367 589.163,-623.838 584.755,-627.454 588.732,-627.878 588.483,-630.215 588.234,-632.551 584.257,-632.128 587.804,-636.591 580.528,-629.367 580.528,-629.367"/>
</g>
<!-- Slovenia -->
<g id="node27" class="node"><title>Slovenia</title>
<polygon fill="none" stroke="black" points="483.583,-245.601 419.583,-245.601 419.583,-209.601 483.583,-209.601 483.583,-245.601"/>
<text text-anchor="middle" x="451.583" y="-223.901" font-family="Times,serif" font-size="14.00">Slovenia</text>
</g>
<!-- Slovenia&#45;&gt;Slovenia -->
<g id="edge32" class="edge"><title>Slovenia&#45;&gt;Slovenia</title>
<path fill="none" stroke="black" stroke-width="4.3" d="M483.803,-234.344C493.762,-234.208 501.583,-231.96 501.583,-227.601 501.583,-224.536 497.716,-222.514 491.959,-221.537"/>
<polygon fill="black" stroke="black" stroke-width="4.3" points="483.803,-220.857 492.177,-216.701 487.926,-219.545 491.912,-219.878 491.775,-221.522 491.638,-223.166 487.652,-222.834 491.374,-226.343 483.803,-220.857 483.803,-220.857"/>
</g>
<!-- Norway -->
<g id="node28" class="node"><title>Norway</title>
<polygon fill="none" stroke="black" points="437.583,-959.601 377.583,-959.601 377.583,-923.601 437.583,-923.601 437.583,-959.601"/>
<text text-anchor="middle" x="407.583" y="-937.901" font-family="Times,serif" font-size="14.00">Norway</text>
</g>
<!-- Norway&#45;&gt;Norway -->
<g id="edge35" class="edge"><title>Norway&#45;&gt;Norway</title>
<path fill="none" stroke="black" stroke-width="4.4" d="M437.583,-948.351C447.583,-948.351 455.583,-946.101 455.583,-941.601 455.583,-938.437 451.628,-936.385 445.803,-935.446"/>
<polygon fill="black" stroke="black" stroke-width="4.4" points="437.583,-934.851 445.919,-930.491 441.695,-933.444 445.685,-933.733 445.562,-935.428 445.439,-937.124 441.45,-936.835 445.204,-940.365 437.583,-934.851 437.583,-934.851"/>
</g>
<!-- Ukraine -->
<g id="node29" class="node"><title>Ukraine</title>
<polygon fill="none" stroke="black" points="437.583,-707.601 377.583,-707.601 377.583,-671.601 437.583,-671.601 437.583,-707.601"/>
<text text-anchor="middle" x="407.583" y="-685.901" font-family="Times,serif" font-size="14.00">Ukraine</text>
</g>
<!-- Ukraine&#45;&gt;Ukraine -->
<g id="edge46" class="edge"><title>Ukraine&#45;&gt;Ukraine</title>
<path fill="none" stroke="black" stroke-width="4.7" d="M437.583,-696.351C447.583,-696.351 455.583,-694.101 455.583,-689.601 455.583,-686.437 451.628,-684.385 445.803,-683.446"/>
<polygon fill="black" stroke="black" stroke-width="4.7" points="437.583,-682.851 445.944,-678.155 441.706,-681.294 445.695,-681.583 445.562,-683.428 445.428,-685.273 441.439,-684.985 445.18,-688.702 437.583,-682.851 437.583,-682.851"/>
</g>
<!-- Italy&#45;&gt;Italy -->
<g id="edge53" class="edge"><title>Italy&#45;&gt;Italy</title>
<path fill="none" stroke="black" stroke-width="4.9" d="M1271.85,-904.67C1281.63,-904.815 1289.61,-902.567 1289.61,-897.927 1289.61,-894.664 1285.66,-892.584 1279.92,-891.687"/>
<polygon fill="black" stroke="black" stroke-width="4.9" points="1271.85,-891.183 1280.18,-886.18 1275.96,-889.486 1279.95,-889.735 1279.83,-891.681 1279.71,-893.628 1275.72,-893.379 1279.49,-897.183 1271.85,-891.183 1271.85,-891.183"/>
</g>
<!-- Argentina -->
<g id="node31" class="node"><title>Argentina</title>
<polygon fill="none" stroke="black" points="743.083,-917.601 672.083,-917.601 672.083,-881.601 743.083,-881.601 743.083,-917.601"/>
<text text-anchor="middle" x="707.583" y="-895.901" font-family="Times,serif" font-size="14.00">Argentina</text>
</g>
<!-- Argentina&#45;&gt;Argentina -->
<g id="edge49" class="edge"><title>Argentina&#45;&gt;Argentina</title>
<path fill="none" stroke="black" stroke-width="4.7" d="M743.336,-906.317C753.376,-906.023 761.083,-903.784 761.083,-899.601 761.083,-896.659 757.273,-894.679 751.52,-893.66"/>
<polygon fill="black" stroke="black" stroke-width="4.7" points="743.336,-892.884 751.799,-888.376 747.493,-891.42 751.475,-891.798 751.3,-893.64 751.125,-895.481 747.143,-895.104 750.801,-898.903 743.336,-892.884 743.336,-892.884"/>
</g>
<!-- Israel&#45;&gt;Unitedstates -->
<g id="edge64" class="edge"><title>Israel&#45;&gt;Unitedstates</title>
<path fill="none" stroke="black" stroke-width="5.3" d="M1145.17,-953.469C1146.27,-909.387 1139.33,-796.056 1132.63,-744.489"/>
<polygon fill="black" stroke="black" stroke-width="5.3" points="1131.51,-736.473 1138.52,-743.575 1134.19,-740.139 1134.74,-744.101 1132.61,-744.397 1130.48,-744.693 1129.93,-740.731 1126.71,-745.219 1131.51,-736.473 1131.51,-736.473"/>
</g>
<!-- Israel&#45;&gt;Israel -->
<g id="edge71" class="edge"><title>Israel&#45;&gt;Israel</title>
<path fill="none" stroke="black" stroke-width="5.7" d="M1169.88,-978.254C1179.66,-978.399 1187.64,-976.151 1187.64,-971.51 1187.64,-968.247 1183.7,-966.167 1177.95,-965.27"/>
<polygon fill="black" stroke="black" stroke-width="5.7" points="1169.88,-964.767 1178.26,-958.865 1174.02,-962.67 1178.01,-962.919 1177.87,-965.265 1177.72,-967.61 1173.73,-967.361 1177.47,-971.665 1169.88,-964.767 1169.88,-964.767"/>
</g>
<!-- Finland -->
<g id="node33" class="node"><title>Finland</title>
<polygon fill="none" stroke="black" points="1149.58,-161.601 1091.58,-161.601 1091.58,-125.601 1149.58,-125.601 1149.58,-161.601"/>
<text text-anchor="middle" x="1120.58" y="-139.901" font-family="Times,serif" font-size="14.00">Finland</text>
</g>
<!-- Finland&#45;&gt;Finland -->
<g id="edge52" class="edge"><title>Finland&#45;&gt;Finland</title>
<path fill="none" stroke="black" stroke-width="4.9" d="M1149.96,-150.351C1159.75,-150.351 1167.58,-148.101 1167.58,-143.601 1167.58,-140.437 1163.71,-138.385 1158.01,-137.446"/>
<polygon fill="black" stroke="black" stroke-width="4.9" points="1149.96,-136.851 1158.34,-131.943 1154.09,-135.201 1158.08,-135.496 1157.94,-137.441 1157.79,-139.385 1153.8,-139.09 1157.53,-142.938 1149.96,-136.851 1149.96,-136.851"/>
</g>
<!-- Poland -->
<g id="node34" class="node"><title>Poland</title>
<polygon fill="none" stroke="black" points="389.583,-833.601 335.583,-833.601 335.583,-797.601 389.583,-797.601 389.583,-833.601"/>
<text text-anchor="middle" x="362.583" y="-811.901" font-family="Times,serif" font-size="14.00">Poland</text>
</g>
<!-- Poland&#45;&gt;Poland -->
<g id="edge54" class="edge"><title>Poland&#45;&gt;Poland</title>
<path fill="none" stroke="black" stroke-width="5" d="M389.823,-822.344C399.607,-822.489 407.583,-820.241 407.583,-815.601 407.583,-812.338 403.639,-810.258 397.897,-809.361"/>
<polygon fill="black" stroke="black" stroke-width="5" points="389.823,-808.857 398.158,-803.741 393.94,-807.11 397.932,-807.359 397.808,-809.355 397.683,-811.352 393.691,-811.102 397.458,-814.969 389.823,-808.857 389.823,-808.857"/>
</g>
<!-- Austria -->
<g id="node36" class="node"><title>Austria</title>
<polygon fill="none" stroke="black" points="391.583,-497.601 335.583,-497.601 335.583,-461.601 391.583,-461.601 391.583,-497.601"/>
<text text-anchor="middle" x="363.583" y="-475.901" font-family="Times,serif" font-size="14.00">Austria</text>
</g>
<!-- Austria&#45;&gt;Austria -->
<g id="edge58" class="edge"><title>Austria&#45;&gt;Austria</title>
<path fill="none" stroke="black" stroke-width="5.1" d="M391.882,-486.349C401.675,-486.421 409.583,-484.171 409.583,-479.601 409.583,-476.387 405.673,-474.321 399.948,-473.402"/>
<polygon fill="black" stroke="black" stroke-width="5.1" points="391.882,-472.852 400.254,-467.673 396.012,-471.079 400.003,-471.352 399.864,-473.397 399.724,-475.442 395.733,-475.17 399.473,-479.121 391.882,-472.852 391.882,-472.852"/>
</g>
</g>
</svg>
