<?xml version="1.0" encoding="UTF-8" standalone="no"?>
<!DOCTYPE svg PUBLIC "-//W3C//DTD SVG 1.1//EN"
 "http://www.w3.org/Graphics/SVG/1.1/DTD/svg11.dtd">
<!-- Generated by graphviz version 2.38.0 (20140413.2041)
 -->
<!-- Title: transition Pages: 1 -->
<svg width="576pt" height="601pt"
 viewBox="0.00 0.00 576.27 600.77" xmlns="http://www.w3.org/2000/svg" xmlns:xlink="http://www.w3.org/1999/xlink">
<g id="graph0" class="graph" transform="scale(1 1) rotate(0) translate(4 596.768)">
<title>transition</title>
<polygon fill="white" stroke="none" points="-4,4 -4,-596.768 572.268,-596.768 572.268,4 -4,4"/>
<text text-anchor="middle" x="284.134" y="-577.568" font-family="Times,serif" font-size="14.00">Hiring network of Mathematics Ph.D.&#39;s prior to 1800 (with threshold 1.00)</text>
<!-- Belgium -->
<g id="node1" class="node"><title>Belgium</title>
<polygon fill="none" stroke="black" points="72.5,-309.099 8.5,-309.099 8.5,-273.099 72.5,-273.099 72.5,-309.099"/>
<text text-anchor="middle" x="40.5" y="-287.399" font-family="Times,serif" font-size="14.00">Belgium</text>
</g>
<!-- Belgium&#45;&gt;Belgium -->
<g id="edge26" class="edge"><title>Belgium&#45;&gt;Belgium</title>
<path fill="none" stroke="black" stroke-width="3.3" d="M72.7203,-297.843C82.6794,-297.706 90.5,-295.459 90.5,-291.099 90.5,-288.034 86.6336,-286.013 80.876,-285.035"/>
<polygon fill="black" stroke="black" stroke-width="3.3" points="72.7203,-284.356 81.001,-281.321 76.802,-283.542 80.7881,-283.874 80.6926,-285.02 80.5971,-286.166 76.6109,-285.834 80.3843,-288.72 72.7203,-284.356 72.7203,-284.356"/>
</g>
<!-- Unitedkingdom -->
<g id="node2" class="node"><title>Unitedkingdom</title>
<polygon fill="none" stroke="black" points="223.018,-413.981 121.018,-413.981 121.018,-377.981 223.018,-377.981 223.018,-413.981"/>
<text text-anchor="middle" x="172.018" y="-392.281" font-family="Times,serif" font-size="14.00">Unitedkingdom</text>
</g>
<!-- Belgium&#45;&gt;Unitedkingdom -->
<g id="edge1" class="edge"><title>Belgium&#45;&gt;Unitedkingdom</title>
<path fill="none" stroke="black" stroke-width="1.7" d="M63.1087,-309.129C85.1278,-326.689 118.704,-353.464 142.751,-372.642"/>
<polygon fill="black" stroke="black" stroke-width="1.7" points="149.264,-377.835 140.765,-375.662 145.918,-375.615 142.791,-373.121 143.009,-372.847 143.227,-372.574 146.355,-375.068 145.254,-370.033 149.264,-377.835 149.264,-377.835"/>
</g>
<!-- Italy -->
<g id="node4" class="node"><title>Italy</title>
<polygon fill="none" stroke="black" points="436.004,-224.99 382.004,-224.99 382.004,-188.99 436.004,-188.99 436.004,-224.99"/>
<text text-anchor="middle" x="409.004" y="-203.29" font-family="Times,serif" font-size="14.00">Italy</text>
</g>
<!-- Belgium&#45;&gt;Italy -->
<g id="edge3" class="edge"><title>Belgium&#45;&gt;Italy</title>
<path fill="none" stroke="black" stroke-width="1.7" d="M72.5577,-283.782C141.35,-268.081 302.658,-231.263 374.004,-214.979"/>
<polygon fill="black" stroke="black" stroke-width="1.7" points="381.842,-213.19 374.843,-218.48 378.02,-214.421 374.12,-215.312 374.042,-214.97 373.964,-214.629 377.864,-213.739 373.241,-211.461 381.842,-213.19 381.842,-213.19"/>
</g>
<!-- France -->
<g id="node7" class="node"><title>France</title>
<polygon fill="none" stroke="black" points="363.017,-73.4319 309.017,-73.4319 309.017,-37.4319 363.017,-37.4319 363.017,-73.4319"/>
<text text-anchor="middle" x="336.017" y="-51.7319" font-family="Times,serif" font-size="14.00">France</text>
</g>
<!-- Belgium&#45;&gt;France -->
<g id="edge5" class="edge"><title>Belgium&#45;&gt;France</title>
<path fill="none" stroke="black" stroke-width="1.7" d="M63.1981,-272.998C116.165,-230.759 247.885,-125.715 306.767,-78.758"/>
<polygon fill="black" stroke="black" stroke-width="1.7" points="313.242,-73.5947 309.232,-81.3972 310.333,-76.3623 307.206,-78.8563 306.987,-78.5826 306.769,-78.309 309.896,-75.815 304.743,-75.768 313.242,-73.5947 313.242,-73.5947"/>
</g>
<!-- Germany -->
<g id="node8" class="node"><title>Germany</title>
<polygon fill="none" stroke="black" points="206.018,-36 138.018,-36 138.018,-0 206.018,-0 206.018,-36"/>
<text text-anchor="middle" x="172.018" y="-14.3" font-family="Times,serif" font-size="14.00">Germany</text>
</g>
<!-- Belgium&#45;&gt;Germany -->
<g id="edge9" class="edge"><title>Belgium&#45;&gt;Germany</title>
<path fill="none" stroke="black" stroke-width="1.7" d="M49.3335,-272.756C72.1693,-225.337 133.212,-98.5804 159.591,-43.8044"/>
<polygon fill="black" stroke="black" stroke-width="1.7" points="163.223,-36.263 162.995,-45.0328 161.802,-40.0188 160.067,-43.6227 159.751,-43.4708 159.436,-43.3189 161.172,-39.715 156.508,-41.9088 163.223,-36.263 163.223,-36.263"/>
</g>
<!-- Unitedkingdom&#45;&gt;Unitedkingdom -->
<g id="edge28" class="edge"><title>Unitedkingdom&#45;&gt;Unitedkingdom</title>
<path fill="none" stroke="black" stroke-width="3.6" d="M223.172,-402.473C233.571,-401.766 241.018,-399.602 241.018,-395.981 241.018,-393.378 237.171,-391.528 231.146,-390.431"/>
<polygon fill="black" stroke="black" stroke-width="3.6" points="223.172,-389.488 231.592,-386.406 227.297,-388.667 231.27,-389.137 231.117,-390.428 230.964,-391.719 226.992,-391.249 230.641,-394.45 223.172,-389.488 223.172,-389.488"/>
</g>
<!-- Unitedstates -->
<g id="node3" class="node"><title>Unitedstates</title>
<polygon fill="none" stroke="black" points="188.261,-524.635 105.261,-524.635 105.261,-488.635 188.261,-488.635 188.261,-524.635"/>
<text text-anchor="middle" x="146.761" y="-502.935" font-family="Times,serif" font-size="14.00">Unitedstates</text>
</g>
<!-- Unitedkingdom&#45;&gt;Unitedstates -->
<g id="edge2" class="edge"><title>Unitedkingdom&#45;&gt;Unitedstates</title>
<path fill="none" stroke="black" stroke-width="1.7" d="M167.847,-414.253C163.734,-432.273 157.406,-459.998 152.755,-480.376"/>
<polygon fill="black" stroke="black" stroke-width="1.7" points="150.938,-488.336 149.209,-479.735 151.487,-484.358 152.377,-480.459 152.718,-480.536 153.06,-480.614 152.17,-484.514 156.228,-481.338 150.938,-488.336 150.938,-488.336"/>
</g>
<!-- Netherlands -->
<g id="node5" class="node"><title>Netherlands</title>
<polygon fill="none" stroke="black" points="377.017,-376.549 295.017,-376.549 295.017,-340.549 377.017,-340.549 377.017,-376.549"/>
<text text-anchor="middle" x="336.017" y="-354.849" font-family="Times,serif" font-size="14.00">Netherlands</text>
</g>
<!-- Unitedkingdom&#45;&gt;Netherlands -->
<g id="edge21" class="edge"><title>Unitedkingdom&#45;&gt;Netherlands</title>
<path fill="none" stroke="black" stroke-width="2.4" d="M223.458,-384.24C243.776,-379.603 267.014,-374.299 287.08,-369.719"/>
<polygon fill="black" stroke="black" stroke-width="2.4" points="294.889,-367.936 287.89,-373.226 291.145,-369.509 287.245,-370.399 287.089,-369.717 286.934,-369.034 290.833,-368.144 286.288,-366.207 294.889,-367.936 294.889,-367.936"/>
</g>
<!-- Unitedstates&#45;&gt;Unitedstates -->
<g id="edge10" class="edge"><title>Unitedstates&#45;&gt;Unitedstates</title>
<path fill="none" stroke="black" stroke-width="1.7" d="M188.467,-513.28C198.669,-512.788 206.261,-510.573 206.261,-506.635 206.261,-503.867 202.508,-501.95 196.733,-500.885"/>
<polygon fill="black" stroke="black" stroke-width="1.7" points="188.467,-499.991 196.807,-497.272 192.481,-500.073 196.458,-500.503 196.42,-500.851 196.383,-501.199 192.406,-500.769 196.033,-504.43 188.467,-499.991 188.467,-499.991"/>
</g>
<!-- Italy&#45;&gt;Italy -->
<g id="edge30" class="edge"><title>Italy&#45;&gt;Italy</title>
<path fill="none" stroke="black" stroke-width="3.8" d="M436.245,-213.734C446.028,-213.879 454.004,-211.631 454.004,-206.99 454.004,-203.728 450.061,-201.648 444.319,-200.751"/>
<polygon fill="black" stroke="black" stroke-width="3.8" points="436.245,-200.247 444.496,-196.478 440.324,-199.099 444.317,-199.348 444.229,-200.745 444.142,-202.142 440.15,-201.893 443.963,-205.012 436.245,-200.247 436.245,-200.247"/>
</g>
<!-- Italy&#45;&gt;Netherlands -->
<g id="edge24" class="edge"><title>Italy&#45;&gt;Netherlands</title>
<path fill="none" stroke="black" stroke-width="2.8" d="M400.2,-225.272C387.268,-252.126 363.081,-302.351 348.375,-332.889"/>
<polygon fill="black" stroke="black" stroke-width="2.8" points="344.853,-340.203 345.08,-331.433 345.777,-336.208 347.513,-332.604 348.324,-332.995 349.135,-333.385 347.399,-336.989 351.567,-334.557 344.853,-340.203 344.853,-340.203"/>
</g>
<!-- Italy&#45;&gt;France -->
<g id="edge7" class="edge"><title>Italy&#45;&gt;France</title>
<path fill="none" stroke="black" stroke-width="1.7" d="M400.2,-188.709C387.268,-161.855 363.081,-111.63 348.375,-81.0918"/>
<polygon fill="black" stroke="black" stroke-width="1.7" points="344.853,-73.7782 351.567,-79.424 346.903,-77.2302 348.639,-80.8341 348.324,-80.986 348.008,-81.1378 346.273,-77.534 345.08,-82.548 344.853,-73.7782 344.853,-73.7782"/>
</g>
<!-- Italy&#45;&gt;Germany -->
<g id="edge6" class="edge"><title>Italy&#45;&gt;Germany</title>
<path fill="none" stroke="black" stroke-width="1.7" d="M386.281,-188.869C343.018,-154.368 248.881,-79.2968 201.097,-41.19"/>
<polygon fill="black" stroke="black" stroke-width="1.7" points="194.672,-36.0663 203.171,-38.2397 198.018,-38.2867 201.145,-40.7807 200.927,-41.0543 200.709,-41.3279 197.581,-38.834 198.682,-43.8689 194.672,-36.0663 194.672,-36.0663"/>
</g>
<!-- Switzerland -->
<g id="node11" class="node"><title>Switzerland</title>
<polygon fill="none" stroke="black" points="81,-140.882 0,-140.882 0,-104.882 81,-104.882 81,-140.882"/>
<text text-anchor="middle" x="40.5" y="-119.182" font-family="Times,serif" font-size="14.00">Switzerland</text>
</g>
<!-- Italy&#45;&gt;Switzerland -->
<g id="edge18" class="edge"><title>Italy&#45;&gt;Switzerland</title>
<path fill="none" stroke="black" stroke-width="2.4" d="M381.907,-200.806C320.04,-186.685 167.689,-151.912 89.1129,-133.977"/>
<polygon fill="black" stroke="black" stroke-width="2.4" points="81.2849,-132.191 89.8854,-130.461 85.3403,-132.398 89.24,-133.288 89.0843,-133.971 88.9285,-134.653 85.0288,-133.763 88.2832,-137.481 81.2849,-132.191 81.2849,-132.191"/>
</g>
<!-- Netherlands&#45;&gt;Netherlands -->
<g id="edge32" class="edge"><title>Netherlands&#45;&gt;Netherlands</title>
<path fill="none" stroke="black" stroke-width="5.9" d="M377.101,-365.206C387.354,-364.741 395.017,-362.522 395.017,-358.549 395.017,-355.756 391.229,-353.829 385.415,-352.77"/>
<polygon fill="black" stroke="black" stroke-width="5.9" points="377.101,-351.892 385.754,-346.131 381.336,-349.876 385.314,-350.296 385.056,-352.732 384.799,-355.169 380.821,-354.748 384.359,-359.333 377.101,-351.892 377.101,-351.892"/>
</g>
<!-- Austria -->
<g id="node6" class="node"><title>Austria</title>
<polygon fill="none" stroke="black" points="464.733,-417.995 408.733,-417.995 408.733,-381.995 464.733,-381.995 464.733,-417.995"/>
<text text-anchor="middle" x="436.733" y="-396.295" font-family="Times,serif" font-size="14.00">Austria</text>
</g>
<!-- Netherlands&#45;&gt;Austria -->
<g id="edge4" class="edge"><title>Netherlands&#45;&gt;Austria</title>
<path fill="none" stroke="black" stroke-width="1.7" d="M377.273,-375.526C385.177,-378.779 393.391,-382.159 401.099,-385.332"/>
<polygon fill="black" stroke="black" stroke-width="1.7" points="408.61,-388.422 399.842,-388.707 404.778,-387.224 401.079,-385.701 401.212,-385.378 401.345,-385.054 405.044,-386.576 402.582,-382.049 408.61,-388.422 408.61,-388.422"/>
</g>
<!-- Netherlands&#45;&gt;France -->
<g id="edge23" class="edge"><title>Netherlands&#45;&gt;France</title>
<path fill="none" stroke="black" stroke-width="2.8" d="M339.43,-340.495C343.664,-289.232 343.869,-142.587 340.047,-82.0582"/>
<polygon fill="black" stroke="black" stroke-width="2.8" points="339.454,-73.7741 343.616,-81.4966 340.637,-77.6996 340.923,-81.6894 340.025,-81.7537 339.128,-81.818 338.842,-77.8282 336.435,-82.0108 339.454,-73.7741 339.454,-73.7741"/>
</g>
<!-- Netherlands&#45;&gt;Germany -->
<g id="edge27" class="edge"><title>Netherlands&#45;&gt;Germany</title>
<path fill="none" stroke="black" stroke-width="3.4" d="M330.721,-340.295C308.315,-283.266 224.45,-108.582 188.376,-43.1037"/>
<polygon fill="black" stroke="black" stroke-width="3.4" points="184.424,-36.0329 191.666,-41.1503 187.423,-38.9392 189.374,-42.4309 188.327,-43.0163 187.279,-43.6017 185.328,-40.11 184.988,-44.8824 184.424,-36.0329 184.424,-36.0329"/>
</g>
<!-- Sweden -->
<g id="node12" class="node"><title>Sweden</title>
<polygon fill="none" stroke="black" points="354.49,-569.768 295.49,-569.768 295.49,-533.768 354.49,-533.768 354.49,-569.768"/>
<text text-anchor="middle" x="324.99" y="-548.068" font-family="Times,serif" font-size="14.00">Sweden</text>
</g>
<!-- Netherlands&#45;&gt;Sweden -->
<g id="edge20" class="edge"><title>Netherlands&#45;&gt;Sweden</title>
<path fill="none" stroke="black" stroke-width="2.4" d="M334.98,-376.727C333.022,-411.035 328.775,-485.458 326.5,-525.313"/>
<polygon fill="black" stroke="black" stroke-width="2.4" points="326.033,-533.498 322.895,-525.306 325.562,-529.465 325.79,-525.471 326.489,-525.511 327.188,-525.551 326.96,-529.545 330.083,-525.717 326.033,-533.498 326.033,-533.498"/>
</g>
<!-- Austria&#45;&gt;Austria -->
<g id="edge16" class="edge"><title>Austria&#45;&gt;Austria</title>
<path fill="none" stroke="black" stroke-width="2.4" d="M465.032,-406.744C474.825,-406.815 482.733,-404.566 482.733,-399.995 482.733,-396.782 478.823,-394.716 473.098,-393.797"/>
<polygon fill="black" stroke="black" stroke-width="2.4" points="465.032,-393.247 473.259,-390.2 469.07,-392.821 473.061,-393.093 473.014,-393.791 472.966,-394.49 468.975,-394.218 472.769,-397.383 465.032,-393.247 465.032,-393.247"/>
</g>
<!-- Slovenia -->
<g id="node10" class="node"><title>Slovenia</title>
<polygon fill="none" stroke="black" points="568.268,-504.695 504.268,-504.695 504.268,-468.695 568.268,-468.695 568.268,-504.695"/>
<text text-anchor="middle" x="536.268" y="-482.995" font-family="Times,serif" font-size="14.00">Slovenia</text>
</g>
<!-- Austria&#45;&gt;Slovenia -->
<g id="edge11" class="edge"><title>Austria&#45;&gt;Slovenia</title>
<path fill="none" stroke="black" stroke-width="1.7" d="M457.842,-418.382C472.854,-431.459 493.145,-449.133 509.326,-463.227"/>
<polygon fill="black" stroke="black" stroke-width="1.7" points="515.531,-468.632 507.134,-466.092 512.285,-466.268 509.268,-463.641 509.498,-463.377 509.728,-463.113 512.744,-465.741 511.863,-460.663 515.531,-468.632 515.531,-468.632"/>
</g>
<!-- France&#45;&gt;Netherlands -->
<g id="edge14" class="edge"><title>France&#45;&gt;Netherlands</title>
<path fill="none" stroke="black" stroke-width="2.1" d="M332.605,-73.4855C328.371,-124.749 328.166,-271.394 331.988,-331.923"/>
<polygon fill="black" stroke="black" stroke-width="2.1" points="332.581,-340.207 328.419,-332.484 331.746,-336.256 331.461,-332.267 332.009,-332.227 332.558,-332.188 332.844,-336.178 335.6,-331.97 332.581,-340.207 332.581,-340.207"/>
</g>
<!-- France&#45;&gt;France -->
<g id="edge31" class="edge"><title>France&#45;&gt;France</title>
<path fill="none" stroke="black" stroke-width="3.8" d="M363.258,-62.1753C373.041,-62.3203 381.017,-60.0725 381.017,-55.4319 381.017,-52.1689 377.074,-50.089 371.332,-49.192"/>
<polygon fill="black" stroke="black" stroke-width="3.8" points="363.258,-48.6885 371.509,-44.9198 367.338,-47.5402 371.33,-47.7892 371.243,-49.1865 371.156,-50.5838 367.163,-50.3348 370.977,-53.4532 363.258,-48.6885 363.258,-48.6885"/>
</g>
<!-- France&#45;&gt;Germany -->
<g id="edge17" class="edge"><title>France&#45;&gt;Germany</title>
<path fill="none" stroke="black" stroke-width="2.4" d="M308.991,-43.8865C283.262,-36.2243 244.156,-27.0619 214.303,-21.5644"/>
<polygon fill="black" stroke="black" stroke-width="2.4" points="206.147,-20.1153 214.653,-17.9703 210.208,-20.1258 214.146,-20.8256 214.023,-21.5148 213.901,-22.204 209.963,-21.5042 213.394,-25.0593 206.147,-20.1153 206.147,-20.1153"/>
</g>
<!-- France&#45;&gt;Switzerland -->
<g id="edge15" class="edge"><title>France&#45;&gt;Switzerland</title>
<path fill="none" stroke="black" stroke-width="2.1" d="M309.009,-61.5964C259.067,-72.9953 151.665,-97.5092 88.8814,-111.839"/>
<polygon fill="black" stroke="black" stroke-width="2.1" points="81.0786,-113.62 88.0769,-108.33 84.8559,-112.194 88.7556,-111.304 88.878,-111.84 89.0004,-112.376 85.1007,-113.266 89.6791,-115.35 81.0786,-113.62 81.0786,-113.62"/>
</g>
<!-- Germany&#45;&gt;Netherlands -->
<g id="edge25" class="edge"><title>Germany&#45;&gt;Netherlands</title>
<path fill="none" stroke="black" stroke-width="3.1" d="M177.314,-36.2539C199.72,-93.2831 283.585,-267.967 319.659,-333.445"/>
<polygon fill="black" stroke="black" stroke-width="3.1" points="323.611,-340.516 316.566,-335.289 320.743,-337.537 318.792,-334.045 319.708,-333.533 320.625,-333.021 322.576,-336.512 322.851,-331.776 323.611,-340.516 323.611,-340.516"/>
</g>
<!-- Germany&#45;&gt;France -->
<g id="edge12" class="edge"><title>Germany&#45;&gt;France</title>
<path fill="none" stroke="black" stroke-width="2.1" d="M206.34,-31.6582C234.053,-39.4786 272.892,-48.3133 300.833,-53.1356"/>
<polygon fill="black" stroke="black" stroke-width="2.1" points="308.768,-54.4415 300.289,-56.6944 304.732,-54.3346 300.785,-53.6849 300.874,-53.1422 300.963,-52.5995 304.91,-53.2492 301.459,-49.59 308.768,-54.4415 308.768,-54.4415"/>
</g>
<!-- Germany&#45;&gt;Germany -->
<g id="edge33" class="edge"><title>Germany&#45;&gt;Germany</title>
<path fill="none" stroke="black" stroke-width="6.2" d="M206.026,-24.7352C216.144,-24.5341 224.018,-22.2891 224.018,-18 224.018,-14.9843 220.125,-12.979 214.297,-11.9843"/>
<polygon fill="black" stroke="black" stroke-width="6.2" points="206.026,-11.2648 214.601,-5.0095 210.236,-9.02132 214.221,-9.36803 213.996,-11.9583 213.771,-14.5485 209.786,-14.2018 213.391,-18.907 206.026,-11.2648 206.026,-11.2648"/>
</g>
<!-- Greece -->
<g id="node9" class="node"><title>Greece</title>
<polygon fill="none" stroke="black" points="536.004,-224.99 481.004,-224.99 481.004,-188.99 536.004,-188.99 536.004,-224.99"/>
<text text-anchor="middle" x="508.504" y="-203.29" font-family="Times,serif" font-size="14.00">Greece</text>
</g>
<!-- Greece&#45;&gt;Italy -->
<g id="edge8" class="edge"><title>Greece&#45;&gt;Italy</title>
<path fill="none" stroke="black" stroke-width="1.7" d="M480.788,-206.99C469.481,-206.99 456.272,-206.99 444.289,-206.99"/>
<polygon fill="black" stroke="black" stroke-width="1.7" points="436.228,-206.99 444.228,-203.391 440.228,-206.641 444.228,-206.641 444.228,-206.991 444.228,-207.341 440.228,-207.341 444.228,-210.591 436.228,-206.99 436.228,-206.99"/>
</g>
<!-- Switzerland&#45;&gt;Netherlands -->
<g id="edge19" class="edge"><title>Switzerland&#45;&gt;Netherlands</title>
<path fill="none" stroke="black" stroke-width="2.4" d="M63.1981,-140.983C116.165,-183.222 247.885,-288.266 306.767,-335.223"/>
<polygon fill="black" stroke="black" stroke-width="2.4" points="313.242,-340.386 304.743,-338.213 309.678,-338.44 306.551,-335.946 306.987,-335.398 307.424,-334.851 310.551,-337.345 309.232,-332.584 313.242,-340.386 313.242,-340.386"/>
</g>
<!-- Switzerland&#45;&gt;Germany -->
<g id="edge13" class="edge"><title>Switzerland&#45;&gt;Germany</title>
<path fill="none" stroke="black" stroke-width="2.1" d="M63.1087,-104.852C85.1278,-87.2923 118.704,-60.5165 142.751,-41.3391"/>
<polygon fill="black" stroke="black" stroke-width="2.1" points="149.264,-36.1455 145.254,-43.9481 146.479,-39.0695 143.352,-41.5635 143.009,-41.1335 142.666,-40.7035 145.794,-38.2095 140.765,-38.3189 149.264,-36.1455 149.264,-36.1455"/>
</g>
<!-- Switzerland&#45;&gt;Switzerland -->
<g id="edge29" class="edge"><title>Switzerland&#45;&gt;Switzerland</title>
<path fill="none" stroke="black" stroke-width="3.6" d="M81.235,-129.539C91.4013,-129.074 99,-126.854 99,-122.882 99,-120.089 95.2433,-118.162 89.4788,-117.103"/>
<polygon fill="black" stroke="black" stroke-width="3.6" points="81.235,-116.225 89.6191,-113.045 85.3502,-115.356 89.3277,-115.779 89.19,-117.072 89.0522,-118.365 85.0747,-117.941 88.7609,-121.099 81.235,-116.225 81.235,-116.225"/>
</g>
<!-- Sweden&#45;&gt;Sweden -->
<g id="edge22" class="edge"><title>Sweden&#45;&gt;Sweden</title>
<path fill="none" stroke="black" stroke-width="2.6" d="M354.678,-558.518C364.573,-558.518 372.49,-556.268 372.49,-551.768 372.49,-548.604 368.576,-546.553 362.812,-545.613"/>
<polygon fill="black" stroke="black" stroke-width="2.6" points="354.678,-545.018 362.919,-542.012 358.725,-544.512 362.715,-544.804 362.656,-545.602 362.598,-546.4 358.609,-546.108 362.394,-549.192 354.678,-545.018 354.678,-545.018"/>
</g>
</g>
</svg>
