<?xml version="1.0" encoding="UTF-8" standalone="no"?>
<!DOCTYPE svg PUBLIC "-//W3C//DTD SVG 1.1//EN"
 "http://www.w3.org/Graphics/SVG/1.1/DTD/svg11.dtd">
<!-- Generated by graphviz version 2.38.0 (20140413.2041)
 -->
<!-- Title: transition Pages: 1 -->
<svg width="1114pt" height="627pt"
 viewBox="0.00 0.00 1113.52 627.13" xmlns="http://www.w3.org/2000/svg" xmlns:xlink="http://www.w3.org/1999/xlink">
<g id="graph0" class="graph" transform="scale(1 1) rotate(0) translate(4 623.133)">
<title>transition</title>
<polygon fill="white" stroke="none" points="-4,4 -4,-623.133 1109.52,-623.133 1109.52,4 -4,4"/>
<text text-anchor="middle" x="552.761" y="-603.933" font-family="Times,serif" font-size="14.00">Hiring network of Mathematics Ph.D.&#39;s between 1910 and 1940 (with threshold 1.00)</text>
<!-- Ireland -->
<g id="node1" class="node"><title>Ireland</title>
<polygon fill="none" stroke="black" points="55,-349.227 -4.9738e-14,-349.227 -4.9738e-14,-313.227 55,-313.227 55,-349.227"/>
<text text-anchor="middle" x="27.5" y="-327.527" font-family="Times,serif" font-size="14.00">Ireland</text>
</g>
<!-- Canada -->
<g id="node2" class="node"><title>Canada</title>
<polygon fill="none" stroke="black" points="184,-349.227 127,-349.227 127,-313.227 184,-313.227 184,-349.227"/>
<text text-anchor="middle" x="155.5" y="-327.527" font-family="Times,serif" font-size="14.00">Canada</text>
</g>
<!-- Ireland&#45;&gt;Canada -->
<g id="edge1" class="edge"><title>Ireland&#45;&gt;Canada</title>
<path fill="none" stroke="black" stroke-width="1.7" d="M55.2741,-331.227C73.8856,-331.227 98.5915,-331.227 118.817,-331.227"/>
<polygon fill="black" stroke="black" stroke-width="1.7" points="126.894,-331.227 118.894,-334.827 122.894,-331.577 118.894,-331.577 118.894,-331.227 118.894,-330.877 122.894,-330.877 118.894,-327.627 126.894,-331.227 126.894,-331.227"/>
</g>
<!-- Canada&#45;&gt;Canada -->
<g id="edge13" class="edge"><title>Canada&#45;&gt;Canada</title>
<path fill="none" stroke="black" stroke-width="2.1" d="M184.107,-337.976C194.006,-338.047 202,-335.798 202,-331.227 202,-328.014 198.048,-325.948 192.26,-325.029"/>
<polygon fill="black" stroke="black" stroke-width="2.1" points="184.107,-324.479 192.331,-321.426 188.135,-324.2 192.126,-324.469 192.089,-325.018 192.052,-325.566 188.061,-325.297 191.847,-328.609 184.107,-324.479 184.107,-324.479"/>
</g>
<!-- Russia -->
<g id="node3" class="node"><title>Russia</title>
<polygon fill="none" stroke="black" points="974.997,-516.507 920.997,-516.507 920.997,-480.507 974.997,-480.507 974.997,-516.507"/>
<text text-anchor="middle" x="947.997" y="-494.807" font-family="Times,serif" font-size="14.00">Russia</text>
</g>
<!-- Russia&#45;&gt;Russia -->
<g id="edge37" class="edge"><title>Russia&#45;&gt;Russia</title>
<path fill="none" stroke="black" stroke-width="4.9" d="M975.238,-505.25C985.021,-505.395 992.997,-503.147 992.997,-498.507 992.997,-495.244 989.054,-493.164 983.312,-492.267"/>
<polygon fill="black" stroke="black" stroke-width="4.9" points="975.238,-491.763 983.566,-486.76 979.352,-490.066 983.344,-490.315 983.223,-492.261 983.101,-494.208 979.109,-493.959 982.879,-497.763 975.238,-491.763 975.238,-491.763"/>
</g>
<!-- Unitedkingdom -->
<g id="node4" class="node"><title>Unitedkingdom</title>
<polygon fill="none" stroke="black" points="1063.3,-358.609 961.297,-358.609 961.297,-322.609 1063.3,-322.609 1063.3,-358.609"/>
<text text-anchor="middle" x="1012.3" y="-336.909" font-family="Times,serif" font-size="14.00">Unitedkingdom</text>
</g>
<!-- Russia&#45;&gt;Unitedkingdom -->
<g id="edge2" class="edge"><title>Russia&#45;&gt;Unitedkingdom</title>
<path fill="none" stroke="black" stroke-width="1.7" d="M955.373,-480.394C966.747,-452.465 988.615,-398.762 1001.69,-366.663"/>
<polygon fill="black" stroke="black" stroke-width="1.7" points="1004.81,-358.997 1005.13,-367.764 1003.62,-362.833 1002.12,-366.538 1001.79,-366.406 1001.47,-366.274 1002.98,-362.569 998.457,-365.048 1004.81,-358.997 1004.81,-358.997"/>
</g>
<!-- Unitedstates -->
<g id="node6" class="node"><title>Unitedstates</title>
<polygon fill="none" stroke="black" points="1001.56,-196.321 918.558,-196.321 918.558,-160.321 1001.56,-160.321 1001.56,-196.321"/>
<text text-anchor="middle" x="960.058" y="-174.621" font-family="Times,serif" font-size="14.00">Unitedstates</text>
</g>
<!-- Russia&#45;&gt;Unitedstates -->
<g id="edge34" class="edge"><title>Russia&#45;&gt;Unitedstates</title>
<path fill="none" stroke="black" stroke-width="4.6" d="M948.68,-480.375C950.703,-426.677 956.67,-268.276 959.055,-204.937"/>
<polygon fill="black" stroke="black" stroke-width="4.6" points="959.368,-196.651 964.238,-204.84 961.016,-200.716 960.865,-204.713 959.066,-204.646 957.268,-204.578 957.418,-200.581 953.895,-204.451 959.368,-196.651 959.368,-196.651"/>
</g>
<!-- Unitedkingdom&#45;&gt;Unitedkingdom -->
<g id="edge36" class="edge"><title>Unitedkingdom&#45;&gt;Unitedkingdom</title>
<path fill="none" stroke="black" stroke-width="4.8" d="M1063.45,-347.101C1073.85,-346.394 1081.3,-344.23 1081.3,-340.609 1081.3,-338.006 1077.45,-336.156 1071.42,-335.059"/>
<polygon fill="black" stroke="black" stroke-width="4.8" points="1063.45,-334.116 1072.03,-329.693 1067.65,-332.699 1071.62,-333.169 1071.4,-335.056 1071.17,-336.942 1067.2,-336.473 1070.76,-340.418 1063.45,-334.116 1063.45,-334.116"/>
</g>
<!-- Unitedkingdom&#45;&gt;Unitedstates -->
<g id="edge21" class="edge"><title>Unitedkingdom&#45;&gt;Unitedstates</title>
<path fill="none" stroke="black" stroke-width="2.6" d="M1011,-322.533C1004.77,-293.594 986.805,-236.835 973.706,-203.799"/>
<polygon fill="black" stroke="black" stroke-width="2.6" points="970.658,-196.338 977.016,-202.382 972.911,-199.738 974.424,-203.441 973.684,-203.744 972.943,-204.047 971.43,-200.344 970.351,-205.105 970.658,-196.338 970.658,-196.338"/>
</g>
<!-- Finland -->
<g id="node5" class="node"><title>Finland</title>
<polygon fill="none" stroke="black" points="1024.47,-85.7238 966.472,-85.7238 966.472,-49.7238 1024.47,-49.7238 1024.47,-85.7238"/>
<text text-anchor="middle" x="995.472" y="-64.0238" font-family="Times,serif" font-size="14.00">Finland</text>
</g>
<!-- Finland&#45;&gt;Finland -->
<g id="edge12" class="edge"><title>Finland&#45;&gt;Finland</title>
<path fill="none" stroke="black" stroke-width="2.1" d="M1024.85,-74.4738C1034.64,-74.4738 1042.47,-72.2238 1042.47,-67.7238 1042.47,-64.5598 1038.6,-62.5081 1032.9,-61.5688"/>
<polygon fill="black" stroke="black" stroke-width="2.1" points="1024.85,-60.9738 1033.09,-57.9734 1028.88,-60.7202 1032.87,-61.0151 1032.82,-61.5636 1032.78,-62.1121 1028.8,-61.8172 1032.56,-65.1538 1024.85,-60.9738 1024.85,-60.9738"/>
</g>
<!-- Finland&#45;&gt;Unitedstates -->
<g id="edge3" class="edge"><title>Finland&#45;&gt;Unitedstates</title>
<path fill="none" stroke="black" stroke-width="1.7" d="M989.624,-85.9868C983.831,-104.077 974.905,-131.955 968.375,-152.347"/>
<polygon fill="black" stroke="black" stroke-width="1.7" points="965.914,-160.031 964.926,-151.314 966.801,-156.115 968.021,-152.306 968.354,-152.412 968.687,-152.519 967.468,-156.329 971.783,-153.51 965.914,-160.031 965.914,-160.031"/>
</g>
<!-- Unitedstates&#45;&gt;Unitedkingdom -->
<g id="edge9" class="edge"><title>Unitedstates&#45;&gt;Unitedkingdom</title>
<path fill="none" stroke="black" stroke-width="1.7" d="M961.352,-196.397C967.587,-225.336 985.549,-282.096 998.648,-315.131"/>
<polygon fill="black" stroke="black" stroke-width="1.7" points="1001.7,-322.592 995.338,-316.548 999.86,-319.022 998.347,-315.319 998.671,-315.186 998.995,-315.054 1000.51,-318.757 1002,-313.825 1001.7,-322.592 1001.7,-322.592"/>
</g>
<!-- Unitedstates&#45;&gt;Unitedstates -->
<g id="edge41" class="edge"><title>Unitedstates&#45;&gt;Unitedstates</title>
<path fill="none" stroke="black" stroke-width="7.2" d="M1001.76,-184.966C1011.97,-184.474 1019.56,-182.259 1019.56,-178.321 1019.56,-175.553 1015.8,-173.636 1010.03,-172.571"/>
<polygon fill="black" stroke="black" stroke-width="7.2" points="1001.76,-171.677 1010.59,-164.484 1006.07,-169.025 1010.05,-169.455 1009.72,-172.537 1009.38,-175.619 1005.41,-175.189 1008.85,-180.59 1001.76,-171.677 1001.76,-171.677"/>
</g>
<!-- Switzerland -->
<g id="node10" class="node"><title>Switzerland</title>
<polygon fill="none" stroke="black" points="572.905,-255.228 491.905,-255.228 491.905,-219.228 572.905,-219.228 572.905,-255.228"/>
<text text-anchor="middle" x="532.405" y="-233.528" font-family="Times,serif" font-size="14.00">Switzerland</text>
</g>
<!-- Unitedstates&#45;&gt;Switzerland -->
<g id="edge6" class="edge"><title>Unitedstates&#45;&gt;Switzerland</title>
<path fill="none" stroke="black" stroke-width="1.7" d="M918.274,-184.077C838.745,-195.032 666.004,-218.826 581.269,-230.497"/>
<polygon fill="black" stroke="black" stroke-width="1.7" points="573.103,-231.622 580.537,-226.964 577.018,-230.73 580.981,-230.184 581.029,-230.53 581.076,-230.877 577.114,-231.423 581.52,-234.097 573.103,-231.622 573.103,-231.622"/>
</g>
<!-- Hungary -->
<g id="node7" class="node"><title>Hungary</title>
<polygon fill="none" stroke="black" points="678.831,-128.844 614.831,-128.844 614.831,-92.8444 678.831,-92.8444 678.831,-128.844"/>
<text text-anchor="middle" x="646.831" y="-107.144" font-family="Times,serif" font-size="14.00">Hungary</text>
</g>
<!-- Hungary&#45;&gt;Unitedstates -->
<g id="edge27" class="edge"><title>Hungary&#45;&gt;Unitedstates</title>
<path fill="none" stroke="black" stroke-width="3.3" d="M678.88,-117.748C733.606,-129.538 845.438,-153.629 910.362,-167.616"/>
<polygon fill="black" stroke="black" stroke-width="3.3" points="918.427,-169.353 909.825,-171.297 914.275,-169.635 910.364,-168.792 910.607,-167.668 910.849,-166.544 914.759,-167.386 911.388,-164.039 918.427,-169.353 918.427,-169.353"/>
</g>
<!-- Germany -->
<g id="node8" class="node"><title>Germany</title>
<polygon fill="none" stroke="black" points="559.988,-425.595 491.988,-425.595 491.988,-389.595 559.988,-389.595 559.988,-425.595"/>
<text text-anchor="middle" x="525.988" y="-403.895" font-family="Times,serif" font-size="14.00">Germany</text>
</g>
<!-- Hungary&#45;&gt;Germany -->
<g id="edge4" class="edge"><title>Hungary&#45;&gt;Germany</title>
<path fill="none" stroke="black" stroke-width="1.7" d="M639.454,-128.961C618.849,-179.559 560.629,-322.53 536.581,-381.582"/>
<polygon fill="black" stroke="black" stroke-width="1.7" points="533.422,-389.339 533.106,-380.572 534.607,-385.502 536.116,-381.798 536.44,-381.93 536.764,-382.062 535.255,-385.766 539.774,-383.287 533.422,-389.339 533.422,-389.339"/>
</g>
<!-- Hungary&#45;&gt;Switzerland -->
<g id="edge30" class="edge"><title>Hungary&#45;&gt;Switzerland</title>
<path fill="none" stroke="black" stroke-width="4" d="M630.437,-128.952C610.384,-151.101 576.372,-188.667 554.149,-213.212"/>
<polygon fill="black" stroke="black" stroke-width="4" points="548.769,-219.154 550.803,-210.203 550.342,-215.182 553.027,-212.217 554.139,-213.224 555.251,-214.23 552.566,-217.196 557.475,-216.244 548.769,-219.154 548.769,-219.154"/>
</g>
<!-- Sweden -->
<g id="node14" class="node"><title>Sweden</title>
<polygon fill="none" stroke="black" points="845.224,-105.58 786.224,-105.58 786.224,-69.5802 845.224,-69.5802 845.224,-105.58"/>
<text text-anchor="middle" x="815.724" y="-83.8802" font-family="Times,serif" font-size="14.00">Sweden</text>
</g>
<!-- Hungary&#45;&gt;Sweden -->
<g id="edge15" class="edge"><title>Hungary&#45;&gt;Sweden</title>
<path fill="none" stroke="black" stroke-width="2.4" d="M678.996,-106.414C707.253,-102.522 748.387,-96.8556 778.15,-92.7559"/>
<polygon fill="black" stroke="black" stroke-width="2.4" points="786.223,-91.6439 778.789,-96.3019 782.356,-92.8832 778.394,-93.4291 778.298,-92.7356 778.203,-92.0421 782.165,-91.4963 777.807,-89.1693 786.223,-91.6439 786.223,-91.6439"/>
</g>
<!-- Germany&#45;&gt;Canada -->
<g id="edge11" class="edge"><title>Germany&#45;&gt;Canada</title>
<path fill="none" stroke="black" stroke-width="2.1" d="M491.798,-400.548C422.112,-386.184 264.185,-353.63 192.331,-338.819"/>
<polygon fill="black" stroke="black" stroke-width="2.1" points="184.417,-337.188 192.979,-335.277 188.446,-337.457 192.364,-338.265 192.253,-338.803 192.142,-339.342 188.224,-338.534 191.526,-342.329 184.417,-337.188 184.417,-337.188"/>
</g>
<!-- Germany&#45;&gt;Unitedkingdom -->
<g id="edge10" class="edge"><title>Germany&#45;&gt;Unitedkingdom</title>
<path fill="none" stroke="black" stroke-width="1.7" d="M560.184,-402.885C642.068,-391.606 850.206,-362.936 953.002,-348.776"/>
<polygon fill="black" stroke="black" stroke-width="1.7" points="961.117,-347.659 953.683,-352.317 957.202,-348.551 953.239,-349.097 953.192,-348.75 953.144,-348.404 957.106,-347.858 952.7,-345.184 961.117,-347.659 961.117,-347.659"/>
</g>
<!-- Germany&#45;&gt;Unitedstates -->
<g id="edge38" class="edge"><title>Germany&#45;&gt;Unitedstates</title>
<path fill="none" stroke="black" stroke-width="5" d="M560.049,-389.605C638.797,-348.01 833.238,-245.307 918.669,-200.183"/>
<polygon fill="black" stroke="black" stroke-width="5" points="925.856,-196.387 921.409,-205.097 923.253,-200.023 919.716,-201.892 918.782,-200.123 917.848,-198.355 921.385,-196.487 916.155,-195.149 925.856,-196.387 925.856,-196.387"/>
</g>
<!-- Germany&#45;&gt;Germany -->
<g id="edge40" class="edge"><title>Germany&#45;&gt;Germany</title>
<path fill="none" stroke="black" stroke-width="6.7" d="M559.997,-414.33C570.115,-414.129 577.988,-411.884 577.988,-407.595 577.988,-404.58 574.096,-402.574 568.267,-401.58"/>
<polygon fill="black" stroke="black" stroke-width="6.7" points="559.997,-400.86 568.62,-394.044 564.229,-398.368 568.214,-398.714 567.967,-401.554 567.719,-404.393 563.735,-404.046 567.313,-409.063 559.997,-400.86 559.997,-400.86"/>
</g>
<!-- Germany&#45;&gt;Switzerland -->
<g id="edge35" class="edge"><title>Germany&#45;&gt;Switzerland</title>
<path fill="none" stroke="black" stroke-width="4.6" d="M526.675,-389.363C527.814,-359.134 530.097,-298.517 531.412,-263.615"/>
<polygon fill="black" stroke="black" stroke-width="4.6" points="531.724,-255.329 536.594,-263.519 533.372,-259.394 533.221,-263.391 531.422,-263.324 529.624,-263.256 529.774,-259.259 526.251,-263.129 531.724,-255.329 531.724,-255.329"/>
</g>
<!-- Poland -->
<g id="node12" class="node"><title>Poland</title>
<polygon fill="none" stroke="black" points="458.75,-455.93 404.75,-455.93 404.75,-419.93 458.75,-419.93 458.75,-455.93"/>
<text text-anchor="middle" x="431.75" y="-434.23" font-family="Times,serif" font-size="14.00">Poland</text>
</g>
<!-- Germany&#45;&gt;Poland -->
<g id="edge25" class="edge"><title>Germany&#45;&gt;Poland</title>
<path fill="none" stroke="black" stroke-width="2.9" d="M491.966,-418.547C483.736,-421.196 474.926,-424.032 466.656,-426.694"/>
<polygon fill="black" stroke="black" stroke-width="2.9" points="458.929,-429.181 465.441,-423.303 462.445,-427.051 466.253,-425.825 466.544,-426.73 466.835,-427.634 463.027,-428.86 467.647,-430.157 458.929,-429.181 458.929,-429.181"/>
</g>
<!-- Belgium -->
<g id="node9" class="node"><title>Belgium</title>
<polygon fill="none" stroke="black" points="454.237,-309.227 390.237,-309.227 390.237,-273.227 454.237,-273.227 454.237,-309.227"/>
<text text-anchor="middle" x="422.237" y="-287.527" font-family="Times,serif" font-size="14.00">Belgium</text>
</g>
<!-- Belgium&#45;&gt;Belgium -->
<g id="edge5" class="edge"><title>Belgium&#45;&gt;Belgium</title>
<path fill="none" stroke="black" stroke-width="1.7" d="M454.457,-297.971C464.416,-297.835 472.237,-295.587 472.237,-291.227 472.237,-288.162 468.37,-286.141 462.613,-285.164"/>
<polygon fill="black" stroke="black" stroke-width="1.7" points="454.457,-284.484 462.728,-281.561 458.472,-284.467 462.458,-284.8 462.429,-285.148 462.4,-285.497 458.414,-285.165 462.13,-288.736 454.457,-284.484 454.457,-284.484"/>
</g>
<!-- Switzerland&#45;&gt;Switzerland -->
<g id="edge31" class="edge"><title>Switzerland&#45;&gt;Switzerland</title>
<path fill="none" stroke="black" stroke-width="4.2" d="M573.14,-243.885C583.307,-243.42 590.905,-241.201 590.905,-237.228 590.905,-234.435 587.149,-232.509 581.384,-231.449"/>
<polygon fill="black" stroke="black" stroke-width="4.2" points="573.14,-230.571 581.596,-226.72 577.287,-229.404 581.265,-229.827 581.095,-231.418 580.926,-233.009 576.948,-232.586 580.595,-236.117 573.14,-230.571 573.14,-230.571"/>
</g>
<!-- Ukraine -->
<g id="node11" class="node"><title>Ukraine</title>
<polygon fill="none" stroke="black" points="338.955,-495.456 278.955,-495.456 278.955,-459.456 338.955,-459.456 338.955,-495.456"/>
<text text-anchor="middle" x="308.955" y="-473.756" font-family="Times,serif" font-size="14.00">Ukraine</text>
</g>
<!-- Ukraine&#45;&gt;Ukraine -->
<g id="edge14" class="edge"><title>Ukraine&#45;&gt;Ukraine</title>
<path fill="none" stroke="black" stroke-width="2.1" d="M338.955,-484.206C348.955,-484.206 356.955,-481.956 356.955,-477.456 356.955,-474.292 353,-472.24 347.175,-471.301"/>
<polygon fill="black" stroke="black" stroke-width="2.1" points="338.955,-470.706 347.194,-467.693 342.984,-470.446 346.974,-470.735 346.934,-471.284 346.894,-471.832 342.905,-471.543 346.674,-474.874 338.955,-470.706 338.955,-470.706"/>
</g>
<!-- Ukraine&#45;&gt;Poland -->
<g id="edge7" class="edge"><title>Ukraine&#45;&gt;Poland</title>
<path fill="none" stroke="black" stroke-width="1.7" d="M338.994,-467.787C356.357,-462.198 378.295,-455.136 396.476,-449.284"/>
<polygon fill="black" stroke="black" stroke-width="1.7" points="404.535,-446.69 398.023,-452.568 400.834,-448.249 397.027,-449.474 396.919,-449.141 396.812,-448.808 400.62,-447.582 395.816,-445.714 404.535,-446.69 404.535,-446.69"/>
</g>
<!-- Poland&#45;&gt;Poland -->
<g id="edge32" class="edge"><title>Poland&#45;&gt;Poland</title>
<path fill="none" stroke="black" stroke-width="4.2" d="M458.991,-444.673C468.774,-444.818 476.75,-442.57 476.75,-437.93 476.75,-434.667 472.807,-432.587 467.065,-431.69"/>
<polygon fill="black" stroke="black" stroke-width="4.2" points="458.991,-431.186 467.269,-426.968 463.083,-429.838 467.075,-430.087 466.975,-431.684 466.876,-433.281 462.883,-433.032 466.681,-436.4 458.991,-431.186 458.991,-431.186"/>
</g>
<!-- Romania -->
<g id="node13" class="node"><title>Romania</title>
<polygon fill="none" stroke="black" points="630.791,-36 564.791,-36 564.791,-0 630.791,-0 630.791,-36"/>
<text text-anchor="middle" x="597.791" y="-14.3" font-family="Times,serif" font-size="14.00">Romania</text>
</g>
<!-- Romania&#45;&gt;Hungary -->
<g id="edge8" class="edge"><title>Romania&#45;&gt;Hungary</title>
<path fill="none" stroke="black" stroke-width="1.7" d="M607.48,-36.3431C614.868,-50.331 625.134,-69.7672 633.328,-85.2802"/>
<polygon fill="black" stroke="black" stroke-width="1.7" points="637.163,-92.5394 630.243,-87.1469 634.985,-89.1659 633.117,-85.629 633.426,-85.4655 633.736,-85.3021 635.604,-88.839 636.609,-83.7841 637.163,-92.5394 637.163,-92.5394"/>
</g>
<!-- Sweden&#45;&gt;Unitedstates -->
<g id="edge22" class="edge"><title>Sweden&#45;&gt;Unitedstates</title>
<path fill="none" stroke="black" stroke-width="2.8" d="M844.586,-105.725C867.497,-120.129 899.65,-140.344 924.211,-155.785"/>
<polygon fill="black" stroke="black" stroke-width="2.8" points="931.247,-160.208 922.558,-158.998 927.381,-158.841 923.995,-156.712 924.474,-155.95 924.953,-155.188 928.339,-157.317 926.39,-152.902 931.247,-160.208 931.247,-160.208"/>
</g>
<!-- Sweden&#45;&gt;Sweden -->
<g id="edge20" class="edge"><title>Sweden&#45;&gt;Sweden</title>
<path fill="none" stroke="black" stroke-width="2.6" d="M845.412,-94.3302C855.308,-94.3302 863.224,-92.0802 863.224,-87.5802 863.224,-84.4162 859.311,-82.3645 853.547,-81.4251"/>
<polygon fill="black" stroke="black" stroke-width="2.6" points="845.412,-80.8302 853.653,-77.8234 849.46,-80.3242 853.449,-80.6159 853.391,-81.4138 853.332,-82.2117 849.343,-81.9199 853.128,-85.0042 845.412,-80.8302 845.412,-80.8302"/>
</g>
<!-- Netherlands -->
<g id="node15" class="node"><title>Netherlands</title>
<polygon fill="none" stroke="black" points="671.582,-560.229 589.582,-560.229 589.582,-524.229 671.582,-524.229 671.582,-560.229"/>
<text text-anchor="middle" x="630.582" y="-538.529" font-family="Times,serif" font-size="14.00">Netherlands</text>
</g>
<!-- Netherlands&#45;&gt;Unitedstates -->
<g id="edge26" class="edge"><title>Netherlands&#45;&gt;Unitedstates</title>
<path fill="none" stroke="black" stroke-width="2.9" d="M646.921,-524.183C701.262,-464.163 875.979,-271.186 937.98,-202.706"/>
<polygon fill="black" stroke="black" stroke-width="2.9" points="943.621,-196.476 940.92,-204.823 941.64,-200.079 938.955,-203.045 938.251,-202.407 937.547,-201.769 940.232,-198.804 935.583,-199.991 943.621,-196.476 943.621,-196.476"/>
</g>
<!-- Netherlands&#45;&gt;Germany -->
<g id="edge16" class="edge"><title>Netherlands&#45;&gt;Germany</title>
<path fill="none" stroke="black" stroke-width="2.4" d="M616.476,-524.072C598.073,-500.383 565.797,-458.838 545.18,-432.299"/>
<polygon fill="black" stroke="black" stroke-width="2.4" points="540.205,-425.895 547.956,-430.004 543.211,-428.624 545.666,-431.783 545.113,-432.212 544.56,-432.642 542.106,-429.483 542.27,-434.421 540.205,-425.895 540.205,-425.895"/>
</g>
<!-- Netherlands&#45;&gt;Netherlands -->
<g id="edge39" class="edge"><title>Netherlands&#45;&gt;Netherlands</title>
<path fill="none" stroke="black" stroke-width="6" d="M671.665,-548.886C681.918,-548.421 689.582,-546.202 689.582,-542.229 689.582,-539.436 685.793,-537.509 679.979,-536.45"/>
<polygon fill="black" stroke="black" stroke-width="6" points="671.665,-535.572 680.33,-529.699 675.906,-533.506 679.884,-533.926 679.621,-536.412 679.358,-538.898 675.38,-538.478 678.912,-543.125 671.665,-535.572 671.665,-535.572"/>
</g>
<!-- Italy -->
<g id="node16" class="node"><title>Italy</title>
<polygon fill="none" stroke="black" points="444.237,-192.227 390.237,-192.227 390.237,-156.227 444.237,-156.227 444.237,-192.227"/>
<text text-anchor="middle" x="417.237" y="-170.527" font-family="Times,serif" font-size="14.00">Italy</text>
</g>
<!-- Italy&#45;&gt;Italy -->
<g id="edge17" class="edge"><title>Italy&#45;&gt;Italy</title>
<path fill="none" stroke="black" stroke-width="2.4" d="M444.477,-180.971C454.261,-181.116 462.237,-178.868 462.237,-174.227 462.237,-170.964 458.293,-168.884 452.551,-167.988"/>
<polygon fill="black" stroke="black" stroke-width="2.4" points="444.477,-167.484 452.686,-164.389 448.513,-167.034 452.505,-167.283 452.462,-167.982 452.418,-168.681 448.426,-168.432 452.238,-171.575 444.477,-167.484 444.477,-167.484"/>
</g>
<!-- Austria -->
<g id="node17" class="node"><title>Austria</title>
<polygon fill="none" stroke="black" points="825.247,-596.133 769.247,-596.133 769.247,-560.133 825.247,-560.133 825.247,-596.133"/>
<text text-anchor="middle" x="797.247" y="-574.433" font-family="Times,serif" font-size="14.00">Austria</text>
</g>
<!-- Austria&#45;&gt;Unitedstates -->
<g id="edge18" class="edge"><title>Austria&#45;&gt;Unitedstates</title>
<path fill="none" stroke="black" stroke-width="2.6" d="M804.665,-559.915C830.835,-495.652 918.902,-279.388 949.487,-204.28"/>
<polygon fill="black" stroke="black" stroke-width="2.6" points="952.596,-196.646 952.913,-205.413 951.828,-200.653 950.319,-204.357 949.578,-204.056 948.837,-203.754 950.346,-200.049 946.244,-202.698 952.596,-196.646 952.596,-196.646"/>
</g>
<!-- Austria&#45;&gt;Germany -->
<g id="edge33" class="edge"><title>Austria&#45;&gt;Germany</title>
<path fill="none" stroke="black" stroke-width="4.5" d="M769.239,-560.525C719.622,-529.331 616.377,-464.422 561.718,-430.058"/>
<polygon fill="black" stroke="black" stroke-width="4.5" points="554.659,-425.62 564.126,-425.592 558.976,-426.268 562.363,-428.397 561.431,-429.878 560.5,-431.36 557.114,-429.231 558.737,-434.164 554.659,-425.62 554.659,-425.62"/>
</g>
<!-- Austria&#45;&gt;Netherlands -->
<g id="edge23" class="edge"><title>Austria&#45;&gt;Netherlands</title>
<path fill="none" stroke="black" stroke-width="2.8" d="M768.974,-572.042C744.611,-566.794 708.882,-559.097 679.83,-552.838"/>
<polygon fill="black" stroke="black" stroke-width="2.8" points="671.829,-551.114 680.407,-549.28 675.928,-551.077 679.839,-551.92 679.649,-552.799 679.46,-553.679 675.549,-552.837 678.891,-556.319 671.829,-551.114 671.829,-551.114"/>
</g>
<!-- Austria&#45;&gt;Austria -->
<g id="edge29" class="edge"><title>Austria&#45;&gt;Austria</title>
<path fill="none" stroke="black" stroke-width="4" d="M825.546,-584.881C835.338,-584.952 843.247,-582.703 843.247,-578.133 843.247,-574.919 839.337,-572.853 833.612,-571.934"/>
<polygon fill="black" stroke="black" stroke-width="4" points="825.546,-571.384 833.834,-567.439 829.639,-570.16 833.629,-570.432 833.527,-571.929 833.425,-573.425 829.435,-573.153 833.221,-576.418 825.546,-571.384 825.546,-571.384"/>
</g>
<!-- Norway -->
<g id="node18" class="node"><title>Norway</title>
<polygon fill="none" stroke="black" points="1105.52,-188.462 1045.52,-188.462 1045.52,-152.462 1105.52,-152.462 1105.52,-188.462"/>
<text text-anchor="middle" x="1075.52" y="-166.762" font-family="Times,serif" font-size="14.00">Norway</text>
</g>
<!-- Norway&#45;&gt;Unitedstates -->
<g id="edge19" class="edge"><title>Norway&#45;&gt;Unitedstates</title>
<path fill="none" stroke="black" stroke-width="2.6" d="M1045.49,-172.506C1034.63,-173.245 1022.06,-174.101 1009.95,-174.925"/>
<polygon fill="black" stroke="black" stroke-width="2.6" points="1001.68,-175.488 1009.41,-171.353 1005.61,-174.418 1009.6,-174.147 1009.66,-174.945 1009.71,-175.743 1005.72,-176.015 1009.9,-178.537 1001.68,-175.488 1001.68,-175.488"/>
</g>
<!-- Czechrepublic -->
<g id="node19" class="node"><title>Czechrepublic</title>
<polygon fill="none" stroke="black" points="524.737,-543.227 429.737,-543.227 429.737,-507.227 524.737,-507.227 524.737,-543.227"/>
<text text-anchor="middle" x="477.237" y="-521.527" font-family="Times,serif" font-size="14.00">Czechrepublic</text>
</g>
<!-- Czechrepublic&#45;&gt;Czechrepublic -->
<g id="edge24" class="edge"><title>Czechrepublic&#45;&gt;Czechrepublic</title>
<path fill="none" stroke="black" stroke-width="2.8" d="M524.927,-531.778C535.25,-531.137 542.737,-528.954 542.737,-525.227 542.737,-522.607 539.035,-520.75 533.249,-519.655"/>
<polygon fill="black" stroke="black" stroke-width="2.8" points="524.927,-518.677 533.292,-516.036 529.005,-518.25 532.977,-518.717 532.872,-519.611 532.767,-520.505 528.794,-520.038 532.452,-523.186 524.927,-518.677 524.927,-518.677"/>
</g>
<!-- France -->
<g id="node20" class="node"><title>France</title>
<polygon fill="none" stroke="black" points="561.237,-153.227 507.237,-153.227 507.237,-117.227 561.237,-117.227 561.237,-153.227"/>
<text text-anchor="middle" x="534.237" y="-131.527" font-family="Times,serif" font-size="14.00">France</text>
</g>
<!-- France&#45;&gt;France -->
<g id="edge28" class="edge"><title>France&#45;&gt;France</title>
<path fill="none" stroke="black" stroke-width="3.4" d="M561.477,-141.971C571.261,-142.116 579.237,-139.868 579.237,-135.227 579.237,-131.964 575.293,-129.884 569.551,-128.988"/>
<polygon fill="black" stroke="black" stroke-width="3.4" points="561.477,-128.484 569.7,-125.164 565.544,-127.535 569.537,-127.784 569.462,-128.982 569.387,-130.18 565.395,-129.931 569.224,-132.8 561.477,-128.484 561.477,-128.484"/>
</g>
</g>
</svg>
