<?xml version="1.0" encoding="UTF-8" standalone="no"?>
<!DOCTYPE svg PUBLIC "-//W3C//DTD SVG 1.1//EN"
 "http://www.w3.org/Graphics/SVG/1.1/DTD/svg11.dtd">
<!-- Generated by graphviz version 2.38.0 (20140413.2041)
 -->
<!-- Title: transition Pages: 1 -->
<svg width="2046pt" height="1968pt"
 viewBox="0.00 0.00 2045.59 1968.34" xmlns="http://www.w3.org/2000/svg" xmlns:xlink="http://www.w3.org/1999/xlink">
<g id="graph0" class="graph" transform="scale(1 1) rotate(0) translate(4 1964.34)">
<title>transition</title>
<polygon fill="white" stroke="none" points="-4,4 -4,-1964.34 2041.59,-1964.34 2041.59,4 -4,4"/>
<text text-anchor="middle" x="1018.79" y="-1945.14" font-family="Times,serif" font-size="14.00">Hiring network of Mathematics Ph.D.&#39;s after 2005 (with threshold .50)</text>
<!-- Sweden -->
<g id="node1" class="node"><title>Sweden</title>
<polygon fill="none" stroke="black" points="1620.43,-474.968 1561.43,-474.968 1561.43,-438.968 1620.43,-438.968 1620.43,-474.968"/>
<text text-anchor="middle" x="1590.93" y="-453.268" font-family="Times,serif" font-size="14.00">Sweden</text>
</g>
<!-- Sweden&#45;&gt;Sweden -->
<g id="edge125" class="edge"><title>Sweden&#45;&gt;Sweden</title>
<path fill="none" stroke="black" stroke-width="3.9" d="M1620.62,-463.718C1630.51,-463.718 1638.43,-461.468 1638.43,-456.968 1638.43,-453.804 1634.52,-451.752 1628.75,-450.813"/>
<polygon fill="black" stroke="black" stroke-width="3.9" points="1620.62,-450.218 1628.92,-446.426 1624.71,-449.064 1628.7,-449.356 1628.6,-450.802 1628.49,-452.248 1624.5,-451.956 1628.28,-455.178 1620.62,-450.218 1620.62,-450.218"/>
</g>
<!-- Portugal -->
<g id="node2" class="node"><title>Portugal</title>
<polygon fill="none" stroke="black" points="1529.55,-327.947 1467.55,-327.947 1467.55,-291.947 1529.55,-291.947 1529.55,-327.947"/>
<text text-anchor="middle" x="1498.55" y="-306.247" font-family="Times,serif" font-size="14.00">Portugal</text>
</g>
<!-- Sweden&#45;&gt;Portugal -->
<g id="edge1" class="edge"><title>Sweden&#45;&gt;Portugal</title>
<path fill="none" stroke="black" d="M1579.6,-438.941C1563.26,-412.928 1532.99,-364.754 1514.42,-335.208"/>
<polygon fill="black" stroke="black" points="1509.97,-328.122 1517.28,-332.981 1512.1,-331.509 1514.23,-334.896 1514.23,-334.896 1514.23,-334.896 1512.1,-331.509 1511.18,-336.811 1509.97,-328.122 1509.97,-328.122"/>
</g>
<!-- Unitedstates -->
<g id="node8" class="node"><title>Unitedstates</title>
<polygon fill="none" stroke="black" points="597.382,-1510.02 514.382,-1510.02 514.382,-1474.02 597.382,-1474.02 597.382,-1510.02"/>
<text text-anchor="middle" x="555.882" y="-1488.32" font-family="Times,serif" font-size="14.00">Unitedstates</text>
</g>
<!-- Sweden&#45;&gt;Unitedstates -->
<g id="edge88" class="edge"><title>Sweden&#45;&gt;Unitedstates</title>
<path fill="none" stroke="black" stroke-width="2.1" d="M1572.53,-475.373C1447.32,-600.58 721.417,-1326.48 579.823,-1468.08"/>
<polygon fill="black" stroke="black" stroke-width="2.1" points="573.899,-1474 577.01,-1465.8 576.338,-1470.78 579.167,-1467.95 579.556,-1468.34 579.945,-1468.73 577.116,-1471.56 582.101,-1470.89 573.899,-1474 573.899,-1474"/>
</g>
<!-- Finland -->
<g id="node19" class="node"><title>Finland</title>
<polygon fill="none" stroke="black" points="1677.28,-638.86 1619.28,-638.86 1619.28,-602.86 1677.28,-602.86 1677.28,-638.86"/>
<text text-anchor="middle" x="1648.28" y="-617.16" font-family="Times,serif" font-size="14.00">Finland</text>
</g>
<!-- Sweden&#45;&gt;Finland -->
<g id="edge19" class="edge"><title>Sweden&#45;&gt;Finland</title>
<path fill="none" stroke="black" d="M1597.29,-475.134C1607.45,-504.176 1627.4,-561.189 1639.11,-594.646"/>
<polygon fill="black" stroke="black" points="1641.89,-602.613 1635.85,-596.251 1640.57,-598.837 1639.25,-595.062 1639.25,-595.062 1639.25,-595.062 1640.57,-598.837 1642.65,-593.873 1641.89,-602.613 1641.89,-602.613"/>
</g>
<!-- Portugal&#45;&gt;Portugal -->
<g id="edge103" class="edge"><title>Portugal&#45;&gt;Portugal</title>
<path fill="none" stroke="black" stroke-width="2.8" d="M1529.65,-316.695C1539.64,-316.626 1547.55,-314.377 1547.55,-309.947 1547.55,-306.832 1543.64,-304.796 1537.85,-303.837"/>
<polygon fill="black" stroke="black" stroke-width="2.8" points="1529.65,-303.199 1537.91,-300.231 1533.71,-302.612 1537.7,-302.923 1537.63,-303.82 1537.56,-304.717 1533.57,-304.407 1537.35,-307.409 1529.65,-303.199 1529.65,-303.199"/>
</g>
<!-- Brazil -->
<g id="node3" class="node"><title>Brazil</title>
<polygon fill="none" stroke="black" points="919.317,-1586.81 865.317,-1586.81 865.317,-1550.81 919.317,-1550.81 919.317,-1586.81"/>
<text text-anchor="middle" x="892.317" y="-1565.11" font-family="Times,serif" font-size="14.00">Brazil</text>
</g>
<!-- Brazil&#45;&gt;Portugal -->
<g id="edge54" class="edge"><title>Brazil&#45;&gt;Portugal</title>
<path fill="none" stroke="black" d="M901.12,-1550.52C968.917,-1409.74 1407.48,-499.06 1486.4,-335.188"/>
<polygon fill="black" stroke="black" points="1489.88,-327.955 1489.65,-336.725 1488.14,-331.559 1486.41,-335.163 1486.41,-335.163 1486.41,-335.163 1488.14,-331.559 1483.16,-333.601 1489.88,-327.955 1489.88,-327.955"/>
</g>
<!-- Brazil&#45;&gt;Brazil -->
<g id="edge124" class="edge"><title>Brazil&#45;&gt;Brazil</title>
<path fill="none" stroke="black" stroke-width="3.7" d="M919.558,-1575.55C929.341,-1575.69 937.317,-1573.45 937.317,-1568.81 937.317,-1565.54 933.374,-1563.46 927.631,-1562.57"/>
<polygon fill="black" stroke="black" stroke-width="3.7" points="919.558,-1562.06 927.801,-1558.41 923.634,-1560.96 927.626,-1561.21 927.542,-1562.56 927.458,-1563.91 923.466,-1563.66 927.283,-1566.71 919.558,-1562.06 919.558,-1562.06"/>
</g>
<!-- Chile -->
<g id="node4" class="node"><title>Chile</title>
<polygon fill="none" stroke="black" points="1091.86,-55.441 1037.86,-55.441 1037.86,-19.441 1091.86,-19.441 1091.86,-55.441"/>
<text text-anchor="middle" x="1064.86" y="-33.741" font-family="Times,serif" font-size="14.00">Chile</text>
</g>
<!-- Brazil&#45;&gt;Chile -->
<g id="edge2" class="edge"><title>Brazil&#45;&gt;Chile</title>
<path fill="none" stroke="black" d="M894.375,-1550.54C912.227,-1392.1 1040.71,-251.748 1061.9,-63.6719"/>
<polygon fill="black" stroke="black" points="1062.8,-55.682 1065.49,-64.0348 1062.36,-59.6568 1061.91,-63.6317 1061.91,-63.6317 1061.91,-63.6317 1062.36,-59.6568 1058.33,-63.2285 1062.8,-55.682 1062.8,-55.682"/>
</g>
<!-- Chile&#45;&gt;Chile -->
<g id="edge79" class="edge"><title>Chile&#45;&gt;Chile</title>
<path fill="none" stroke="black" stroke-width="1.7" d="M1092.1,-44.1844C1101.88,-44.3294 1109.86,-42.0816 1109.86,-37.441 1109.86,-34.178 1105.92,-32.0981 1100.17,-31.2011"/>
<polygon fill="black" stroke="black" stroke-width="1.7" points="1092.1,-30.6976 1100.31,-27.6026 1096.11,-30.5973 1100.11,-30.8463 1100.09,-31.1956 1100.06,-31.5449 1096.07,-31.2959 1099.86,-34.7886 1092.1,-30.6976 1092.1,-30.6976"/>
</g>
<!-- Colombia -->
<g id="node23" class="node"><title>Colombia</title>
<polygon fill="none" stroke="black" points="927.817,-36 856.817,-36 856.817,-0 927.817,-0 927.817,-36"/>
<text text-anchor="middle" x="892.317" y="-14.3" font-family="Times,serif" font-size="14.00">Colombia</text>
</g>
<!-- Chile&#45;&gt;Colombia -->
<g id="edge52" class="edge"><title>Chile&#45;&gt;Colombia</title>
<path fill="none" stroke="black" d="M1037.52,-34.3605C1010.3,-31.294 968.101,-26.5388 936.194,-22.9437"/>
<polygon fill="black" stroke="black" points="927.904,-22.0098 936.257,-19.3282 931.879,-22.4577 935.854,-22.9056 935.854,-22.9056 935.854,-22.9056 931.879,-22.4577 935.451,-26.4829 927.904,-22.0098 927.904,-22.0098"/>
</g>
<!-- Czechrepublic -->
<g id="node5" class="node"><title>Czechrepublic</title>
<polygon fill="none" stroke="black" points="939.817,-1937.34 844.817,-1937.34 844.817,-1901.34 939.817,-1901.34 939.817,-1937.34"/>
<text text-anchor="middle" x="892.317" y="-1915.64" font-family="Times,serif" font-size="14.00">Czechrepublic</text>
</g>
<!-- Czechrepublic&#45;&gt;Brazil -->
<g id="edge3" class="edge"><title>Czechrepublic&#45;&gt;Brazil</title>
<path fill="none" stroke="black" d="M892.317,-1900.99C892.317,-1842.9 892.317,-1662.91 892.317,-1595.05"/>
<polygon fill="black" stroke="black" points="892.317,-1586.98 895.917,-1594.98 892.317,-1590.98 892.317,-1594.98 892.317,-1594.98 892.317,-1594.98 892.317,-1590.98 888.717,-1594.98 892.317,-1586.98 892.317,-1586.98"/>
</g>
<!-- Switzerland -->
<g id="node6" class="node"><title>Switzerland</title>
<polygon fill="none" stroke="black" points="596.382,-112.789 515.382,-112.789 515.382,-76.789 596.382,-76.789 596.382,-112.789"/>
<text text-anchor="middle" x="555.882" y="-91.089" font-family="Times,serif" font-size="14.00">Switzerland</text>
</g>
<!-- Switzerland&#45;&gt;Switzerland -->
<g id="edge112" class="edge"><title>Switzerland&#45;&gt;Switzerland</title>
<path fill="none" stroke="black" stroke-width="3.1" d="M596.617,-101.446C606.783,-100.981 614.382,-98.7617 614.382,-94.789 614.382,-91.9958 610.625,-90.0694 604.861,-89.01"/>
<polygon fill="black" stroke="black" stroke-width="3.1" points="596.617,-88.1317 604.953,-85.3996 600.706,-87.5114 604.683,-87.9352 604.572,-88.9793 604.461,-90.0234 600.483,-89.5996 604.191,-92.5591 596.617,-88.1317 596.617,-88.1317"/>
</g>
<!-- Ireland -->
<g id="node7" class="node"><title>Ireland</title>
<polygon fill="none" stroke="black" points="436.361,-205.168 381.361,-205.168 381.361,-169.168 436.361,-169.168 436.361,-205.168"/>
<text text-anchor="middle" x="408.861" y="-183.468" font-family="Times,serif" font-size="14.00">Ireland</text>
</g>
<!-- Switzerland&#45;&gt;Ireland -->
<g id="edge4" class="edge"><title>Switzerland&#45;&gt;Ireland</title>
<path fill="none" stroke="black" d="M527.186,-112.82C503.201,-127.891 468.924,-149.429 443.431,-165.447"/>
<polygon fill="black" stroke="black" points="436.489,-169.809 441.347,-162.504 439.876,-167.681 443.263,-165.552 443.263,-165.552 443.263,-165.552 439.876,-167.681 445.178,-168.601 436.489,-169.809 436.489,-169.809"/>
</g>
<!-- Germany -->
<g id="node13" class="node"><title>Germany</title>
<polygon fill="none" stroke="black" points="1624.93,-1147.84 1556.93,-1147.84 1556.93,-1111.84 1624.93,-1111.84 1624.93,-1147.84"/>
<text text-anchor="middle" x="1590.93" y="-1126.14" font-family="Times,serif" font-size="14.00">Germany</text>
</g>
<!-- Switzerland&#45;&gt;Germany -->
<g id="edge73" class="edge"><title>Switzerland&#45;&gt;Germany</title>
<path fill="none" stroke="black" stroke-width="1.7" d="M571.232,-112.794C686.38,-236.93 1413.34,-964.086 1563.75,-1105.9"/>
<polygon fill="black" stroke="black" stroke-width="1.7" points="1569.67,-1111.45 1561.37,-1108.6 1566.51,-1108.97 1563.59,-1106.23 1563.83,-1105.98 1564.07,-1105.72 1566.99,-1108.46 1566.3,-1103.35 1569.67,-1111.45 1569.67,-1111.45"/>
</g>
<!-- Ireland&#45;&gt;Ireland -->
<g id="edge60" class="edge"><title>Ireland&#45;&gt;Ireland</title>
<path fill="none" stroke="black" d="M436.404,-193.912C446.296,-194.057 454.361,-191.809 454.361,-187.168 454.361,-183.906 450.374,-181.826 444.568,-180.929"/>
<polygon fill="black" stroke="black" points="436.404,-180.425 444.611,-177.324 440.397,-180.671 444.389,-180.918 444.389,-180.918 444.389,-180.918 440.397,-180.671 444.168,-184.511 436.404,-180.425 436.404,-180.425"/>
</g>
<!-- Canada -->
<g id="node39" class="node"><title>Canada</title>
<polygon fill="none" stroke="black" points="314.582,-327.947 257.582,-327.947 257.582,-291.947 314.582,-291.947 314.582,-327.947"/>
<text text-anchor="middle" x="286.082" y="-306.247" font-family="Times,serif" font-size="14.00">Canada</text>
</g>
<!-- Ireland&#45;&gt;Canada -->
<g id="edge68" class="edge"><title>Ireland&#45;&gt;Canada</title>
<path fill="none" stroke="black" stroke-width="1.7" d="M390.745,-205.285C369.345,-226.685 333.671,-262.358 310.013,-286.016"/>
<polygon fill="black" stroke="black" stroke-width="1.7" points="304.273,-291.756 307.384,-283.554 306.854,-288.68 309.683,-285.852 309.93,-286.099 310.178,-286.347 307.349,-289.175 312.476,-288.645 304.273,-291.756 304.273,-291.756"/>
</g>
<!-- Unitedstates&#45;&gt;Brazil -->
<g id="edge87" class="edge"><title>Unitedstates&#45;&gt;Brazil</title>
<path fill="none" stroke="black" stroke-width="2.1" d="M597.473,-1501.51C664.27,-1516.76 794.293,-1546.43 856.922,-1560.73"/>
<polygon fill="black" stroke="black" stroke-width="2.1" points="864.938,-1562.56 856.338,-1564.29 860.916,-1562.2 857.016,-1561.31 857.139,-1560.78 857.261,-1560.24 861.161,-1561.13 857.94,-1557.27 864.938,-1562.56 864.938,-1562.56"/>
</g>
<!-- Unitedstates&#45;&gt;Switzerland -->
<g id="edge117" class="edge"><title>Unitedstates&#45;&gt;Switzerland</title>
<path fill="none" stroke="black" stroke-width="3.3" d="M555.882,-1473.84C555.882,-1324.35 555.882,-298.77 555.882,-121.017"/>
<polygon fill="black" stroke="black" stroke-width="3.3" points="555.882,-112.973 559.595,-120.973 557.032,-116.973 557.032,-120.973 555.882,-120.973 554.732,-120.973 554.732,-116.973 552.17,-120.973 555.882,-112.973 555.882,-112.973"/>
</g>
<!-- Unitedstates&#45;&gt;Unitedstates -->
<g id="edge128" class="edge"><title>Unitedstates&#45;&gt;Unitedstates</title>
<path fill="none" stroke="black" stroke-width="6.9" d="M597.587,-1498.66C607.79,-1498.17 615.382,-1495.95 615.382,-1492.02 615.382,-1489.25 611.629,-1487.33 605.853,-1486.27"/>
<polygon fill="black" stroke="black" stroke-width="6.9" points="597.587,-1485.37 606.376,-1478.51 601.881,-1482.87 605.858,-1483.3 605.541,-1486.23 605.224,-1489.17 601.247,-1488.74 604.706,-1493.95 597.587,-1485.37 597.587,-1485.37"/>
</g>
<!-- Thailand -->
<g id="node9" class="node"><title>Thailand</title>
<polygon fill="none" stroke="black" points="773.044,-1930.24 708.044,-1930.24 708.044,-1894.24 773.044,-1894.24 773.044,-1930.24"/>
<text text-anchor="middle" x="740.544" y="-1908.54" font-family="Times,serif" font-size="14.00">Thailand</text>
</g>
<!-- Unitedstates&#45;&gt;Thailand -->
<g id="edge5" class="edge"><title>Unitedstates&#45;&gt;Thailand</title>
<path fill="none" stroke="black" d="M563.817,-1510.07C593.05,-1576.6 694.816,-1808.18 729.139,-1886.29"/>
<polygon fill="black" stroke="black" points="732.431,-1893.78 725.917,-1887.9 730.822,-1890.12 729.213,-1886.46 729.213,-1886.46 729.213,-1886.46 730.822,-1890.12 732.509,-1885.01 732.431,-1893.78 732.431,-1893.78"/>
</g>
<!-- Southkorea -->
<g id="node10" class="node"><title>Southkorea</title>
<polygon fill="none" stroke="black" points="638.953,-1901.98 560.953,-1901.98 560.953,-1865.98 638.953,-1865.98 638.953,-1901.98"/>
<text text-anchor="middle" x="599.953" y="-1880.28" font-family="Times,serif" font-size="14.00">Southkorea</text>
</g>
<!-- Unitedstates&#45;&gt;Southkorea -->
<g id="edge6" class="edge"><title>Unitedstates&#45;&gt;Southkorea</title>
<path fill="none" stroke="black" d="M557.919,-1510.14C565.01,-1573.2 588.631,-1783.28 596.99,-1857.63"/>
<polygon fill="black" stroke="black" points="597.887,-1865.6 593.415,-1858.05 597.44,-1861.63 596.993,-1857.65 596.993,-1857.65 596.993,-1857.65 597.44,-1861.63 600.57,-1857.25 597.887,-1865.6 597.887,-1865.6"/>
</g>
<!-- Netherlands -->
<g id="node12" class="node"><title>Netherlands</title>
<polygon fill="none" stroke="black" points="1105.86,-1567.36 1023.86,-1567.36 1023.86,-1531.36 1105.86,-1531.36 1105.86,-1567.36"/>
<text text-anchor="middle" x="1064.86" y="-1545.66" font-family="Times,serif" font-size="14.00">Netherlands</text>
</g>
<!-- Unitedstates&#45;&gt;Netherlands -->
<g id="edge20" class="edge"><title>Unitedstates&#45;&gt;Netherlands</title>
<path fill="none" stroke="black" d="M597.527,-1500.66C690.706,-1514.86 915.645,-1540.29 1015.59,-1548.02"/>
<polygon fill="black" stroke="black" points="1023.71,-1548.63 1015.47,-1551.62 1019.72,-1548.33 1015.73,-1548.03 1015.73,-1548.03 1015.73,-1548.03 1019.72,-1548.33 1016,-1544.44 1023.71,-1548.63 1023.71,-1548.63"/>
</g>
<!-- Unitedstates&#45;&gt;Germany -->
<g id="edge113" class="edge"><title>Unitedstates&#45;&gt;Germany</title>
<path fill="none" stroke="black" stroke-width="3.2" d="M597.417,-1477.48C763.903,-1419.23 1381.99,-1202.95 1549.07,-1144.49"/>
<polygon fill="black" stroke="black" stroke-width="3.2" points="1556.68,-1141.82 1550.32,-1147.86 1553.27,-1144.18 1549.49,-1145.5 1549.13,-1144.46 1548.77,-1143.43 1552.54,-1142.11 1547.94,-1141.07 1556.68,-1141.82 1556.68,-1141.82"/>
</g>
<!-- Singapore -->
<g id="node14" class="node"><title>Singapore</title>
<polygon fill="none" stroke="black" points="1411.27,-1417.64 1340.27,-1417.64 1340.27,-1381.64 1411.27,-1381.64 1411.27,-1417.64"/>
<text text-anchor="middle" x="1375.77" y="-1395.94" font-family="Times,serif" font-size="14.00">Singapore</text>
</g>
<!-- Unitedstates&#45;&gt;Singapore -->
<g id="edge104" class="edge"><title>Unitedstates&#45;&gt;Singapore</title>
<path fill="none" stroke="black" stroke-width="2.8" d="M597.385,-1487.34C737.021,-1471.61 1189.04,-1420.68 1332,-1404.57"/>
<polygon fill="black" stroke="black" stroke-width="2.8" points="1340.17,-1403.65 1332.63,-1408.12 1336.3,-1404.99 1332.32,-1405.44 1332.22,-1404.54 1332.12,-1403.65 1336.1,-1403.2 1331.82,-1400.97 1340.17,-1403.65 1340.17,-1403.65"/>
</g>
<!-- Cyprus -->
<g id="node16" class="node"><title>Cyprus</title>
<polygon fill="none" stroke="black" points="496.246,-1857.83 440.246,-1857.83 440.246,-1821.83 496.246,-1821.83 496.246,-1857.83"/>
<text text-anchor="middle" x="468.246" y="-1836.13" font-family="Times,serif" font-size="14.00">Cyprus</text>
</g>
<!-- Unitedstates&#45;&gt;Cyprus -->
<g id="edge10" class="edge"><title>Unitedstates&#45;&gt;Cyprus</title>
<path fill="none" stroke="black" d="M551.294,-1510.23C536.771,-1567.86 491.771,-1746.46 474.807,-1813.79"/>
<polygon fill="black" stroke="black" points="472.789,-1821.8 471.252,-1813.16 473.766,-1817.92 474.743,-1814.04 474.743,-1814.04 474.743,-1814.04 473.766,-1817.92 478.234,-1814.92 472.789,-1821.8 472.789,-1821.8"/>
</g>
<!-- Australia -->
<g id="node17" class="node"><title>Australia</title>
<polygon fill="none" stroke="black" points="319.082,-1294.86 253.082,-1294.86 253.082,-1258.86 319.082,-1258.86 319.082,-1294.86"/>
<text text-anchor="middle" x="286.082" y="-1273.16" font-family="Times,serif" font-size="14.00">Australia</text>
</g>
<!-- Unitedstates&#45;&gt;Australia -->
<g id="edge41" class="edge"><title>Unitedstates&#45;&gt;Australia</title>
<path fill="none" stroke="black" d="M532.879,-1473.67C483.898,-1434.61 369.366,-1343.27 315.311,-1300.17"/>
<polygon fill="black" stroke="black" points="309.027,-1295.16 317.526,-1297.33 312.155,-1297.65 315.282,-1300.14 315.282,-1300.14 315.282,-1300.14 312.155,-1297.65 313.037,-1302.96 309.027,-1295.16 309.027,-1295.16"/>
</g>
<!-- Turkey -->
<g id="node18" class="node"><title>Turkey</title>
<polygon fill="none" stroke="black" points="436.861,-1417.64 380.861,-1417.64 380.861,-1381.64 436.861,-1381.64 436.861,-1417.64"/>
<text text-anchor="middle" x="408.861" y="-1395.94" font-family="Times,serif" font-size="14.00">Turkey</text>
</g>
<!-- Unitedstates&#45;&gt;Turkey -->
<g id="edge61" class="edge"><title>Unitedstates&#45;&gt;Turkey</title>
<path fill="none" stroke="black" d="M527.186,-1473.99C503.354,-1459.01 469.36,-1437.65 443.919,-1421.67"/>
<polygon fill="black" stroke="black" points="436.985,-1417.31 445.674,-1418.52 440.372,-1419.44 443.759,-1421.57 443.759,-1421.57 443.759,-1421.57 440.372,-1419.44 441.844,-1424.61 436.985,-1417.31 436.985,-1417.31"/>
</g>
<!-- Belgium -->
<g id="node21" class="node"><title>Belgium</title>
<polygon fill="none" stroke="black" points="1260.75,-1510.02 1196.75,-1510.02 1196.75,-1474.02 1260.75,-1474.02 1260.75,-1510.02"/>
<text text-anchor="middle" x="1228.75" y="-1488.32" font-family="Times,serif" font-size="14.00">Belgium</text>
</g>
<!-- Unitedstates&#45;&gt;Belgium -->
<g id="edge15" class="edge"><title>Unitedstates&#45;&gt;Belgium</title>
<path fill="none" stroke="black" d="M597.465,-1492.02C718.343,-1492.02 1068.62,-1492.02 1188.19,-1492.02"/>
<polygon fill="black" stroke="black" points="1196.4,-1492.02 1188.4,-1495.62 1192.4,-1492.02 1188.4,-1492.02 1188.4,-1492.02 1188.4,-1492.02 1192.4,-1492.02 1188.4,-1488.42 1196.4,-1492.02 1196.4,-1492.02"/>
</g>
<!-- India -->
<g id="node22" class="node"><title>India</title>
<polygon fill="none" stroke="black" points="1525.55,-1294.86 1471.55,-1294.86 1471.55,-1258.86 1525.55,-1258.86 1525.55,-1294.86"/>
<text text-anchor="middle" x="1498.55" y="-1273.16" font-family="Times,serif" font-size="14.00">India</text>
</g>
<!-- Unitedstates&#45;&gt;India -->
<g id="edge94" class="edge"><title>Unitedstates&#45;&gt;India</title>
<path fill="none" stroke="black" stroke-width="2.4" d="M597.604,-1482.49C755.846,-1446.38 1317.42,-1318.2 1463.57,-1284.84"/>
<polygon fill="black" stroke="black" stroke-width="2.4" points="1471.41,-1283.05 1464.41,-1288.34 1467.67,-1284.63 1463.77,-1285.52 1463.61,-1284.83 1463.45,-1284.15 1467.35,-1283.26 1462.81,-1281.32 1471.41,-1283.05 1471.41,-1283.05"/>
</g>
<!-- Unitedstates&#45;&gt;Colombia -->
<g id="edge17" class="edge"><title>Unitedstates&#45;&gt;Colombia</title>
<path fill="none" stroke="black" d="M560.015,-1473.91C595.205,-1319.73 844.295,-228.396 886.307,-44.3301"/>
<polygon fill="black" stroke="black" points="888.149,-36.2582 889.879,-44.8587 887.259,-40.1579 886.369,-44.0576 886.369,-44.0576 886.369,-44.0576 887.259,-40.1579 882.86,-43.2565 888.149,-36.2582 888.149,-36.2582"/>
</g>
<!-- Jamaica -->
<g id="node26" class="node"><title>Jamaica</title>
<polygon fill="none" stroke="black" points="380.898,-1801.94 319.898,-1801.94 319.898,-1765.94 380.898,-1765.94 380.898,-1801.94"/>
<text text-anchor="middle" x="350.398" y="-1780.24" font-family="Times,serif" font-size="14.00">Jamaica</text>
</g>
<!-- Unitedstates&#45;&gt;Jamaica -->
<g id="edge22" class="edge"><title>Unitedstates&#45;&gt;Jamaica</title>
<path fill="none" stroke="black" d="M543.028,-1510.28C507.568,-1560.66 408.318,-1701.66 367.879,-1759.11"/>
<polygon fill="black" stroke="black" points="363.247,-1765.69 364.908,-1757.07 365.55,-1762.41 367.852,-1759.14 367.852,-1759.14 367.852,-1759.14 365.55,-1762.41 370.796,-1761.22 363.247,-1765.69 363.247,-1765.69"/>
</g>
<!-- France -->
<g id="node32" class="node"><title>France</title>
<polygon fill="none" stroke="black" points="746.773,-55.441 692.773,-55.441 692.773,-19.441 746.773,-19.441 746.773,-55.441"/>
<text text-anchor="middle" x="719.773" y="-33.741" font-family="Times,serif" font-size="14.00">France</text>
</g>
<!-- Unitedstates&#45;&gt;France -->
<g id="edge82" class="edge"><title>Unitedstates&#45;&gt;France</title>
<path fill="none" stroke="black" stroke-width="1.7" d="M559.618,-1473.81C583.606,-1320.46 704.815,-245.591 718.809,-63.5915"/>
<polygon fill="black" stroke="black" stroke-width="1.7" points="719.393,-55.607 722.399,-63.8485 719.45,-59.6219 719.158,-63.6112 718.809,-63.5856 718.46,-63.5601 718.752,-59.5708 715.219,-63.3228 719.393,-55.607 719.393,-55.607"/>
</g>
<!-- Trinidadtobago -->
<g id="node33" class="node"><title>Trinidadtobago</title>
<polygon fill="none" stroke="black" points="271.954,-1719.95 171.954,-1719.95 171.954,-1683.95 271.954,-1683.95 271.954,-1719.95"/>
<text text-anchor="middle" x="221.954" y="-1698.25" font-family="Times,serif" font-size="14.00">Trinidadtobago</text>
</g>
<!-- Unitedstates&#45;&gt;Trinidadtobago -->
<g id="edge30" class="edge"><title>Unitedstates&#45;&gt;Trinidadtobago</title>
<path fill="none" stroke="black" d="M527.123,-1510.1C466.219,-1548.38 324.374,-1637.56 257.739,-1679.45"/>
<polygon fill="black" stroke="black" points="250.762,-1683.84 255.619,-1676.53 254.149,-1681.71 257.535,-1679.58 257.535,-1679.58 257.535,-1679.58 254.149,-1681.71 259.451,-1682.63 250.762,-1683.84 250.762,-1683.84"/>
</g>
<!-- Unitedkingdom -->
<g id="node37" class="node"><title>Unitedkingdom</title>
<polygon fill="none" stroke="black" points="187.355,-983.946 85.3549,-983.946 85.3549,-947.946 187.355,-947.946 187.355,-983.946"/>
<text text-anchor="middle" x="136.355" y="-962.246" font-family="Times,serif" font-size="14.00">Unitedkingdom</text>
</g>
<!-- Unitedstates&#45;&gt;Unitedkingdom -->
<g id="edge120" class="edge"><title>Unitedstates&#45;&gt;Unitedkingdom</title>
<path fill="none" stroke="black" stroke-width="3.4" d="M544.641,-1473.8C488.315,-1394.55 238,-1080.36 159.734,-990.202"/>
<polygon fill="black" stroke="black" stroke-width="3.4" points="154.401,-984.104 162.547,-987.608 157.938,-986.325 160.571,-989.336 159.668,-990.126 158.765,-990.916 156.131,-987.905 156.789,-992.644 154.401,-984.104 154.401,-984.104"/>
</g>
<!-- Spain -->
<g id="node38" class="node"><title>Spain</title>
<polygon fill="none" stroke="black" points="220.703,-1147.84 166.703,-1147.84 166.703,-1111.84 220.703,-1111.84 220.703,-1147.84"/>
<text text-anchor="middle" x="193.703" y="-1126.14" font-family="Times,serif" font-size="14.00">Spain</text>
</g>
<!-- Unitedstates&#45;&gt;Spain -->
<g id="edge77" class="edge"><title>Unitedstates&#45;&gt;Spain</title>
<path fill="none" stroke="black" stroke-width="1.7" d="M537.424,-1473.56C477.115,-1413.25 285.861,-1222 217.931,-1154.07"/>
<polygon fill="black" stroke="black" stroke-width="1.7" points="212.124,-1148.26 220.327,-1151.37 215.2,-1150.84 218.029,-1153.67 217.781,-1153.92 217.534,-1154.16 214.705,-1151.33 215.236,-1156.46 212.124,-1148.26 212.124,-1148.26"/>
</g>
<!-- Unitedstates&#45;&gt;Canada -->
<g id="edge121" class="edge"><title>Unitedstates&#45;&gt;Canada</title>
<path fill="none" stroke="black" stroke-width="3.6" d="M553.624,-1473.99C529.585,-1339.66 337.126,-495.863 294.292,-336.05"/>
<polygon fill="black" stroke="black" stroke-width="3.6" points="292.139,-328.137 298.147,-334.792 294.444,-331.655 295.494,-335.515 294.24,-335.856 292.985,-336.197 291.935,-332.338 290.332,-336.92 292.139,-328.137 292.139,-328.137"/>
</g>
<!-- Hongkong -->
<g id="node43" class="node"><title>Hongkong</title>
<polygon fill="none" stroke="black" points="173.355,-638.86 99.3549,-638.86 99.3549,-602.86 173.355,-602.86 173.355,-638.86"/>
<text text-anchor="middle" x="136.355" y="-617.16" font-family="Times,serif" font-size="14.00">Hongkong</text>
</g>
<!-- Unitedstates&#45;&gt;Hongkong -->
<g id="edge44" class="edge"><title>Unitedstates&#45;&gt;Hongkong</title>
<path fill="none" stroke="black" d="M547.12,-1473.82C493.642,-1362.77 211.443,-776.782 148.716,-646.528"/>
<polygon fill="black" stroke="black" points="145.069,-638.955 151.784,-644.601 146.805,-642.559 148.54,-646.163 148.54,-646.163 148.54,-646.163 146.805,-642.559 145.297,-647.725 145.069,-638.955 145.069,-638.955"/>
</g>
<!-- Thailand&#45;&gt;Thailand -->
<g id="edge110" class="edge"><title>Thailand&#45;&gt;Thailand</title>
<path fill="none" stroke="black" stroke-width="3.1" d="M773.087,-1918.99C783.146,-1918.85 791.044,-1916.6 791.044,-1912.24 791.044,-1909.18 787.139,-1907.16 781.324,-1906.18"/>
<polygon fill="black" stroke="black" stroke-width="3.1" points="773.087,-1905.5 781.356,-1902.57 777.16,-1904.78 781.146,-1905.11 781.06,-1906.16 780.973,-1907.2 776.987,-1906.88 780.764,-1909.75 773.087,-1905.5 773.087,-1905.5"/>
</g>
<!-- Argentina -->
<g id="node11" class="node"><title>Argentina</title>
<polygon fill="none" stroke="black" points="755.273,-1567.36 684.273,-1567.36 684.273,-1531.36 755.273,-1531.36 755.273,-1567.36"/>
<text text-anchor="middle" x="719.773" y="-1545.66" font-family="Times,serif" font-size="14.00">Argentina</text>
</g>
<!-- Argentina&#45;&gt;Argentina -->
<g id="edge105" class="edge"><title>Argentina&#45;&gt;Argentina</title>
<path fill="none" stroke="black" stroke-width="2.8" d="M755.527,-1556.08C765.567,-1555.79 773.273,-1553.55 773.273,-1549.36 773.273,-1546.42 769.463,-1544.44 763.711,-1543.42"/>
<polygon fill="black" stroke="black" stroke-width="2.8" points="755.527,-1542.65 763.831,-1539.82 759.594,-1542.13 763.576,-1542.51 763.491,-1543.4 763.406,-1544.3 759.424,-1543.92 763.151,-1546.99 755.527,-1542.65 755.527,-1542.65"/>
</g>
<!-- Argentina&#45;&gt;Netherlands -->
<g id="edge7" class="edge"><title>Argentina&#45;&gt;Netherlands</title>
<path fill="none" stroke="black" d="M755.404,-1549.36C817.376,-1549.36 945.112,-1549.36 1015.55,-1549.36"/>
<polygon fill="black" stroke="black" points="1023.85,-1549.36 1015.85,-1552.96 1019.85,-1549.36 1015.85,-1549.36 1015.85,-1549.36 1015.85,-1549.36 1019.85,-1549.36 1015.85,-1545.76 1023.85,-1549.36 1023.85,-1549.36"/>
</g>
<!-- Netherlands&#45;&gt;Brazil -->
<g id="edge27" class="edge"><title>Netherlands&#45;&gt;Brazil</title>
<path fill="none" stroke="black" d="M1023.53,-1554.02C994.258,-1557.32 955.406,-1561.7 927.589,-1564.83"/>
<polygon fill="black" stroke="black" points="919.333,-1565.76 926.88,-1561.29 923.308,-1565.31 927.283,-1564.87 927.283,-1564.87 927.283,-1564.87 923.308,-1565.31 927.686,-1568.44 919.333,-1565.76 919.333,-1565.76"/>
</g>
<!-- Netherlands&#45;&gt;Unitedstates -->
<g id="edge71" class="edge"><title>Netherlands&#45;&gt;Unitedstates</title>
<path fill="none" stroke="black" stroke-width="1.7" d="M1023.65,-1540.78C930.88,-1526.62 705.971,-1501.19 605.637,-1493.4"/>
<polygon fill="black" stroke="black" stroke-width="1.7" points="597.476,-1492.79 605.724,-1489.8 601.491,-1492.74 605.48,-1493.04 605.454,-1493.39 605.428,-1493.74 601.439,-1493.44 605.184,-1496.98 597.476,-1492.79 597.476,-1492.79"/>
</g>
<!-- Netherlands&#45;&gt;Netherlands -->
<g id="edge118" class="edge"><title>Netherlands&#45;&gt;Netherlands</title>
<path fill="none" stroke="black" stroke-width="3.3" d="M1105.94,-1556.02C1116.2,-1555.56 1123.86,-1553.34 1123.86,-1549.36 1123.86,-1546.57 1120.07,-1544.65 1114.26,-1543.59"/>
<polygon fill="black" stroke="black" stroke-width="3.3" points="1105.94,-1542.71 1114.29,-1539.86 1110.04,-1541.98 1114.02,-1542.4 1113.9,-1543.55 1113.78,-1544.69 1109.8,-1544.27 1113.51,-1547.24 1105.94,-1542.71 1105.94,-1542.71"/>
</g>
<!-- Netherlands&#45;&gt;Germany -->
<g id="edge14" class="edge"><title>Netherlands&#45;&gt;Germany</title>
<path fill="none" stroke="black" d="M1092.54,-1531.29C1184.6,-1464.04 1479.19,-1229.13 1566.42,-1153.44"/>
<polygon fill="black" stroke="black" points="1572.57,-1148.06 1568.91,-1156.04 1569.56,-1150.7 1566.54,-1153.33 1566.54,-1153.33 1566.54,-1153.33 1569.56,-1150.7 1564.18,-1150.62 1572.57,-1148.06 1572.57,-1148.06"/>
</g>
<!-- Netherlands&#45;&gt;France -->
<g id="edge49" class="edge"><title>Netherlands&#45;&gt;France</title>
<path fill="none" stroke="black" d="M1060.74,-1531.33C1025.06,-1374.98 768.336,-250.208 725.751,-63.6318"/>
<polygon fill="black" stroke="black" points="723.941,-55.7009 729.231,-62.6993 724.831,-59.6006 725.721,-63.5004 725.721,-63.5004 725.721,-63.5004 724.831,-59.6006 722.212,-64.3015 723.941,-55.7009 723.941,-55.7009"/>
</g>
<!-- Netherlands&#45;&gt;Unitedkingdom -->
<g id="edge75" class="edge"><title>Netherlands&#45;&gt;Unitedkingdom</title>
<path fill="none" stroke="black" stroke-width="1.7" d="M1036.05,-1531.26C900.01,-1445.78 322.21,-1082.73 172.105,-988.409"/>
<polygon fill="black" stroke="black" stroke-width="1.7" points="165.284,-984.123 173.973,-985.332 168.857,-985.955 172.244,-988.083 172.058,-988.38 171.871,-988.676 168.484,-986.548 170.142,-991.428 165.284,-984.123 165.284,-984.123"/>
</g>
<!-- Germany&#45;&gt;Switzerland -->
<g id="edge72" class="edge"><title>Germany&#45;&gt;Switzerland</title>
<path fill="none" stroke="black" stroke-width="1.7" d="M1575.58,-1111.83C1460.43,-987.697 733.472,-260.54 583.065,-118.73"/>
<polygon fill="black" stroke="black" stroke-width="1.7" points="577.146,-113.173 585.443,-116.024 580.302,-115.656 583.219,-118.393 582.979,-118.648 582.739,-118.904 579.823,-116.166 580.515,-121.273 577.146,-113.173 577.146,-113.173"/>
</g>
<!-- Germany&#45;&gt;Netherlands -->
<g id="edge12" class="edge"><title>Germany&#45;&gt;Netherlands</title>
<path fill="none" stroke="black" d="M1563.25,-1147.91C1471.2,-1215.16 1176.61,-1450.07 1089.38,-1525.76"/>
<polygon fill="black" stroke="black" points="1083.22,-1531.14 1086.88,-1523.16 1086.23,-1528.51 1089.25,-1525.87 1089.25,-1525.87 1089.25,-1525.87 1086.23,-1528.51 1091.62,-1528.58 1083.22,-1531.14 1083.22,-1531.14"/>
</g>
<!-- Germany&#45;&gt;Germany -->
<g id="edge127" class="edge"><title>Germany&#45;&gt;Germany</title>
<path fill="none" stroke="black" stroke-width="4.8" d="M1624.94,-1136.57C1635.06,-1136.37 1642.93,-1134.13 1642.93,-1129.84 1642.93,-1126.82 1639.04,-1124.82 1633.21,-1123.82"/>
<polygon fill="black" stroke="black" stroke-width="4.8" points="1624.94,-1123.1 1633.38,-1118.42 1629.09,-1121.56 1633.07,-1121.9 1632.91,-1123.8 1632.74,-1125.69 1628.76,-1125.34 1632.44,-1129.18 1624.94,-1123.1 1624.94,-1123.1"/>
</g>
<!-- Germany&#45;&gt;Singapore -->
<g id="edge8" class="edge"><title>Germany&#45;&gt;Singapore</title>
<path fill="none" stroke="black" d="M1576.48,-1147.96C1538.89,-1195.09 1438.03,-1321.57 1395.31,-1375.13"/>
<polygon fill="black" stroke="black" points="1390.16,-1381.59 1392.33,-1373.1 1392.65,-1378.47 1395.15,-1375.34 1395.15,-1375.34 1395.15,-1375.34 1392.65,-1378.47 1397.96,-1377.58 1390.16,-1381.59 1390.16,-1381.59"/>
</g>
<!-- Austria -->
<g id="node15" class="node"><title>Austria</title>
<polygon fill="none" stroke="black" points="1873.45,-1069.96 1817.45,-1069.96 1817.45,-1033.96 1873.45,-1033.96 1873.45,-1069.96"/>
<text text-anchor="middle" x="1845.45" y="-1048.26" font-family="Times,serif" font-size="14.00">Austria</text>
</g>
<!-- Germany&#45;&gt;Austria -->
<g id="edge55" class="edge"><title>Germany&#45;&gt;Austria</title>
<path fill="none" stroke="black" d="M1625.06,-1124.31C1673.24,-1112.34 1760.77,-1085.65 1809.78,-1068.04"/>
<polygon fill="black" stroke="black" points="1817.3,-1065.3 1811.02,-1071.42 1813.54,-1066.67 1809.78,-1068.04 1809.78,-1068.04 1809.78,-1068.04 1813.54,-1066.67 1808.55,-1064.65 1817.3,-1065.3 1817.3,-1065.3"/>
</g>
<!-- Germany&#45;&gt;Australia -->
<g id="edge109" class="edge"><title>Germany&#45;&gt;Australia</title>
<path fill="none" stroke="black" stroke-width="2.9" d="M1556.7,-1133.69C1375.14,-1154.15 525.663,-1249.86 327.489,-1272.19"/>
<polygon fill="black" stroke="black" stroke-width="2.9" points="319.357,-1273.11 326.904,-1268.64 323.226,-1271.72 327.2,-1271.27 327.307,-1272.21 327.413,-1273.16 323.438,-1273.61 327.71,-1275.79 319.357,-1273.11 319.357,-1273.11"/>
</g>
<!-- Estonia -->
<g id="node20" class="node"><title>Estonia</title>
<polygon fill="none" stroke="black" points="1676.78,-983.946 1619.78,-983.946 1619.78,-947.946 1676.78,-947.946 1676.78,-983.946"/>
<text text-anchor="middle" x="1648.28" y="-962.246" font-family="Times,serif" font-size="14.00">Estonia</text>
</g>
<!-- Germany&#45;&gt;Estonia -->
<g id="edge67" class="edge"><title>Germany&#45;&gt;Estonia</title>
<path fill="none" stroke="black" stroke-width="1.7" d="M1597.29,-1111.67C1607.45,-1082.63 1627.4,-1025.62 1639.11,-992.16"/>
<polygon fill="black" stroke="black" stroke-width="1.7" points="1641.89,-984.193 1642.65,-992.933 1640.9,-988.084 1639.58,-991.86 1639.25,-991.744 1638.92,-991.629 1640.24,-987.853 1635.85,-990.555 1641.89,-984.193 1641.89,-984.193"/>
</g>
<!-- Germany&#45;&gt;Unitedkingdom -->
<g id="edge89" class="edge"><title>Germany&#45;&gt;Unitedkingdom</title>
<path fill="none" stroke="black" stroke-width="2.1" d="M1556.66,-1123.71C1366.42,-1096.46 439.902,-991.854 195.537,-969.722"/>
<polygon fill="black" stroke="black" stroke-width="2.1" points="187.477,-969 195.766,-966.128 191.51,-968.809 195.494,-969.166 195.445,-969.714 195.396,-970.262 191.412,-969.905 195.124,-973.299 187.477,-969 187.477,-969"/>
</g>
<!-- Taiwan -->
<g id="node51" class="node"><title>Taiwan</title>
<polygon fill="none" stroke="black" points="1874.9,-1280.3 1817.9,-1280.3 1817.9,-1244.3 1874.9,-1244.3 1874.9,-1280.3"/>
<text text-anchor="middle" x="1846.4" y="-1258.6" font-family="Times,serif" font-size="14.00">Taiwan</text>
</g>
<!-- Germany&#45;&gt;Taiwan -->
<g id="edge96" class="edge"><title>Germany&#45;&gt;Taiwan</title>
<path fill="none" stroke="black" stroke-width="2.4" d="M1625.12,-1147.56C1673.36,-1172.58 1761,-1218.02 1810.27,-1243.57"/>
<polygon fill="black" stroke="black" stroke-width="2.4" points="1817.54,-1247.34 1808.79,-1246.85 1813.67,-1246.12 1810.12,-1244.28 1810.44,-1243.65 1810.76,-1243.03 1814.32,-1244.87 1812.1,-1240.46 1817.54,-1247.34 1817.54,-1247.34"/>
</g>
<!-- Singapore&#45;&gt;Singapore -->
<g id="edge81" class="edge"><title>Singapore&#45;&gt;Singapore</title>
<path fill="none" stroke="black" stroke-width="1.7" d="M1411.53,-1406.35C1421.57,-1406.06 1429.27,-1403.82 1429.27,-1399.64 1429.27,-1396.7 1425.46,-1394.72 1419.71,-1393.7"/>
<polygon fill="black" stroke="black" stroke-width="1.7" points="1411.53,-1392.92 1419.83,-1390.09 1415.54,-1392.95 1419.52,-1393.33 1419.49,-1393.68 1419.46,-1394.02 1415.47,-1393.65 1419.15,-1397.26 1411.53,-1392.92 1411.53,-1392.92"/>
</g>
<!-- Austria&#45;&gt;Germany -->
<g id="edge9" class="edge"><title>Austria&#45;&gt;Germany</title>
<path fill="none" stroke="black" d="M1817.43,-1056C1772.76,-1066.66 1685.19,-1093.14 1632.98,-1111.5"/>
<polygon fill="black" stroke="black" points="1625.23,-1114.26 1631.56,-1108.18 1629,-1112.92 1632.77,-1111.57 1632.77,-1111.57 1632.77,-1111.57 1629,-1112.92 1633.98,-1114.96 1625.23,-1114.26 1625.23,-1114.26"/>
</g>
<!-- Austria&#45;&gt;Austria -->
<g id="edge57" class="edge"><title>Austria&#45;&gt;Austria</title>
<path fill="none" stroke="black" d="M1873.75,-1058.71C1883.54,-1058.78 1891.45,-1056.54 1891.45,-1051.96 1891.45,-1048.75 1887.54,-1046.69 1881.82,-1045.77"/>
<polygon fill="black" stroke="black" points="1873.75,-1045.22 1881.98,-1042.17 1877.74,-1045.49 1881.73,-1045.76 1881.73,-1045.76 1881.73,-1045.76 1877.74,-1045.49 1881.49,-1049.35 1873.75,-1045.22 1873.75,-1045.22"/>
</g>
<!-- Southafrica -->
<g id="node45" class="node"><title>Southafrica</title>
<polygon fill="none" stroke="black" points="2019.59,-1106.49 1940.59,-1106.49 1940.59,-1070.49 2019.59,-1070.49 2019.59,-1106.49"/>
<text text-anchor="middle" x="1980.09" y="-1084.79" font-family="Times,serif" font-size="14.00">Southafrica</text>
</g>
<!-- Austria&#45;&gt;Southafrica -->
<g id="edge62" class="edge"><title>Austria&#45;&gt;Southafrica</title>
<path fill="none" stroke="black" d="M1873.68,-1059.62C1890.69,-1064.24 1912.79,-1070.23 1932.45,-1075.56"/>
<polygon fill="black" stroke="black" points="1940.41,-1077.72 1931.75,-1079.1 1936.55,-1076.68 1932.69,-1075.63 1932.69,-1075.63 1932.69,-1075.63 1936.55,-1076.68 1933.63,-1072.16 1940.41,-1077.72 1940.41,-1077.72"/>
</g>
<!-- Australia&#45;&gt;Australia -->
<g id="edge111" class="edge"><title>Australia&#45;&gt;Australia</title>
<path fill="none" stroke="black" stroke-width="3.1" d="M319.437,-1283.59C329.361,-1283.39 337.082,-1281.15 337.082,-1276.86 337.082,-1273.84 333.265,-1271.84 327.549,-1270.84"/>
<polygon fill="black" stroke="black" stroke-width="3.1" points="319.437,-1270.12 327.724,-1267.24 323.514,-1269.43 327.498,-1269.78 327.406,-1270.83 327.313,-1271.88 323.328,-1271.52 327.088,-1274.42 319.437,-1270.12 319.437,-1270.12"/>
</g>
<!-- Australia&#45;&gt;Turkey -->
<g id="edge11" class="edge"><title>Australia&#45;&gt;Turkey</title>
<path fill="none" stroke="black" d="M304.199,-1294.98C325.599,-1316.37 361.272,-1352.05 384.93,-1375.71"/>
<polygon fill="black" stroke="black" points="390.67,-1381.45 382.468,-1378.34 387.842,-1378.62 385.013,-1375.79 385.013,-1375.79 385.013,-1375.79 387.842,-1378.62 387.559,-1373.24 390.67,-1381.45 390.67,-1381.45"/>
</g>
<!-- Australia&#45;&gt;France -->
<g id="edge58" class="edge"><title>Australia&#45;&gt;France</title>
<path fill="none" stroke="black" d="M292.55,-1258.38C341.511,-1118.45 653.471,-226.922 710.746,-63.24"/>
<polygon fill="black" stroke="black" points="713.426,-55.5797 714.182,-64.3198 712.105,-59.3553 710.784,-63.1308 710.784,-63.1308 710.784,-63.1308 712.105,-59.3553 707.386,-61.9418 713.426,-55.5797 713.426,-55.5797"/>
</g>
<!-- Australia&#45;&gt;Spain -->
<g id="edge66" class="edge"><title>Australia&#45;&gt;Spain</title>
<path fill="none" stroke="black" d="M274.755,-1258.83C258.41,-1232.82 228.141,-1184.64 209.575,-1155.1"/>
<polygon fill="black" stroke="black" points="205.123,-1148.01 212.428,-1152.87 207.251,-1151.4 209.379,-1154.79 209.379,-1154.79 209.379,-1154.79 207.251,-1151.4 206.331,-1156.7 205.123,-1148.01 205.123,-1148.01"/>
</g>
<!-- Finland&#45;&gt;Finland -->
<g id="edge116" class="edge"><title>Finland&#45;&gt;Finland</title>
<path fill="none" stroke="black" stroke-width="3.3" d="M1677.65,-627.61C1687.45,-627.61 1695.28,-625.36 1695.28,-620.86 1695.28,-617.695 1691.41,-615.644 1685.7,-614.704"/>
<polygon fill="black" stroke="black" stroke-width="3.3" points="1677.65,-614.11 1685.91,-610.997 1681.73,-613.258 1685.72,-613.552 1685.63,-614.699 1685.55,-615.846 1681.56,-615.551 1685.36,-618.402 1677.65,-614.11 1677.65,-614.11"/>
</g>
<!-- Finland&#45;&gt;Estonia -->
<g id="edge13" class="edge"><title>Finland&#45;&gt;Estonia</title>
<path fill="none" stroke="black" d="M1648.28,-638.927C1648.28,-695.864 1648.28,-871.768 1648.28,-939.231"/>
<polygon fill="black" stroke="black" points="1648.28,-947.641 1644.68,-939.641 1648.28,-943.641 1648.28,-939.641 1648.28,-939.641 1648.28,-939.641 1648.28,-943.641 1651.88,-939.641 1648.28,-947.641 1648.28,-947.641"/>
</g>
<!-- Russia -->
<g id="node31" class="node"><title>Russia</title>
<polygon fill="none" stroke="black" points="1694.72,-811.403 1640.72,-811.403 1640.72,-775.403 1694.72,-775.403 1694.72,-811.403"/>
<text text-anchor="middle" x="1667.72" y="-789.703" font-family="Times,serif" font-size="14.00">Russia</text>
</g>
<!-- Finland&#45;&gt;Russia -->
<g id="edge48" class="edge"><title>Finland&#45;&gt;Russia</title>
<path fill="none" stroke="black" d="M1650.32,-638.999C1653.78,-669.677 1660.79,-731.916 1664.78,-767.289"/>
<polygon fill="black" stroke="black" points="1665.67,-775.248 1661.2,-767.701 1665.23,-771.273 1664.78,-767.298 1664.78,-767.298 1664.78,-767.298 1665.23,-771.273 1668.36,-766.895 1665.67,-775.248 1665.67,-775.248"/>
</g>
<!-- Belgium&#45;&gt;Netherlands -->
<g id="edge38" class="edge"><title>Belgium&#45;&gt;Netherlands</title>
<path fill="none" stroke="black" d="M1196.37,-1503.35C1172.77,-1511.61 1140.38,-1522.94 1113.65,-1532.29"/>
<polygon fill="black" stroke="black" points="1105.91,-1535 1112.27,-1528.96 1109.69,-1533.68 1113.46,-1532.36 1113.46,-1532.36 1113.46,-1532.36 1109.69,-1533.68 1114.65,-1535.76 1105.91,-1535 1105.91,-1535"/>
</g>
<!-- Belgium&#45;&gt;Germany -->
<g id="edge28" class="edge"><title>Belgium&#45;&gt;Germany</title>
<path fill="none" stroke="black" d="M1247.21,-1473.56C1307.52,-1413.25 1498.77,-1222 1566.7,-1154.07"/>
<polygon fill="black" stroke="black" points="1572.51,-1148.26 1569.4,-1156.46 1569.68,-1151.09 1566.85,-1153.92 1566.85,-1153.92 1566.85,-1153.92 1569.68,-1151.09 1564.31,-1151.37 1572.51,-1148.26 1572.51,-1148.26"/>
</g>
<!-- Belgium&#45;&gt;Australia -->
<g id="edge43" class="edge"><title>Belgium&#45;&gt;Australia</title>
<path fill="none" stroke="black" d="M1196.58,-1484.67C1054.87,-1452.33 486.443,-1322.59 327.537,-1286.32"/>
<polygon fill="black" stroke="black" points="319.406,-1284.46 328.006,-1282.74 323.306,-1285.35 327.205,-1286.24 327.205,-1286.24 327.205,-1286.24 323.306,-1285.35 326.404,-1289.75 319.406,-1284.46 319.406,-1284.46"/>
</g>
<!-- Belgium&#45;&gt;Belgium -->
<g id="edge92" class="edge"><title>Belgium&#45;&gt;Belgium</title>
<path fill="none" stroke="black" stroke-width="2.1" d="M1260.97,-1498.76C1270.93,-1498.62 1278.75,-1496.38 1278.75,-1492.02 1278.75,-1488.95 1274.89,-1486.93 1269.13,-1485.95"/>
<polygon fill="black" stroke="black" stroke-width="2.1" points="1260.97,-1485.27 1269.24,-1482.35 1265,-1485.06 1268.99,-1485.39 1268.94,-1485.94 1268.9,-1486.49 1264.91,-1486.15 1268.65,-1489.53 1260.97,-1485.27 1260.97,-1485.27"/>
</g>
<!-- India&#45;&gt;Germany -->
<g id="edge16" class="edge"><title>India&#45;&gt;Germany</title>
<path fill="none" stroke="black" d="M1509.88,-1258.83C1526.22,-1232.82 1556.49,-1184.64 1575.06,-1155.1"/>
<polygon fill="black" stroke="black" points="1579.51,-1148.01 1578.3,-1156.7 1577.38,-1151.4 1575.25,-1154.79 1575.25,-1154.79 1575.25,-1154.79 1577.38,-1151.4 1572.21,-1152.87 1579.51,-1148.01 1579.51,-1148.01"/>
</g>
<!-- India&#45;&gt;India -->
<g id="edge123" class="edge"><title>India&#45;&gt;India</title>
<path fill="none" stroke="black" stroke-width="3.6" d="M1525.79,-1283.6C1535.58,-1283.75 1543.55,-1281.5 1543.55,-1276.86 1543.55,-1273.6 1539.61,-1271.52 1533.87,-1270.62"/>
<polygon fill="black" stroke="black" stroke-width="3.6" points="1525.79,-1270.12 1534.03,-1266.57 1529.87,-1269.07 1533.86,-1269.32 1533.78,-1270.61 1533.7,-1271.91 1529.7,-1271.66 1533.52,-1274.66 1525.79,-1270.12 1525.79,-1270.12"/>
</g>
<!-- Morocco -->
<g id="node24" class="node"><title>Morocco</title>
<polygon fill="none" stroke="black" points="1377.32,-1071.4 1311.32,-1071.4 1311.32,-1035.4 1377.32,-1035.4 1377.32,-1071.4"/>
<text text-anchor="middle" x="1344.32" y="-1049.7" font-family="Times,serif" font-size="14.00">Morocco</text>
</g>
<!-- Morocco&#45;&gt;Morocco -->
<g id="edge18" class="edge"><title>Morocco&#45;&gt;Morocco</title>
<path fill="none" stroke="black" d="M1377.67,-1060.14C1387.6,-1059.94 1395.32,-1057.69 1395.32,-1053.4 1395.32,-1050.39 1391.5,-1048.38 1385.78,-1047.39"/>
<polygon fill="black" stroke="black" points="1377.67,-1046.67 1385.96,-1043.79 1381.66,-1047.02 1385.64,-1047.37 1385.64,-1047.37 1385.64,-1047.37 1381.66,-1047.02 1385.32,-1050.96 1377.67,-1046.67 1377.67,-1046.67"/>
</g>
<!-- Slovenia -->
<g id="node25" class="node"><title>Slovenia</title>
<polygon fill="none" stroke="black" points="1812.71,-1395.27 1748.71,-1395.27 1748.71,-1359.27 1812.71,-1359.27 1812.71,-1395.27"/>
<text text-anchor="middle" x="1780.71" y="-1373.57" font-family="Times,serif" font-size="14.00">Slovenia</text>
</g>
<!-- Slovenia&#45;&gt;Germany -->
<g id="edge21" class="edge"><title>Slovenia&#45;&gt;Germany</title>
<path fill="none" stroke="black" d="M1766.76,-1359.08C1733.24,-1315.37 1648.14,-1204.43 1609.97,-1154.66"/>
<polygon fill="black" stroke="black" points="1604.91,-1148.06 1612.63,-1152.22 1607.34,-1151.23 1609.77,-1154.41 1609.77,-1154.41 1609.77,-1154.41 1607.34,-1151.23 1606.92,-1156.6 1604.91,-1148.06 1604.91,-1148.06"/>
</g>
<!-- Slovenia&#45;&gt;Slovenia -->
<g id="edge107" class="edge"><title>Slovenia&#45;&gt;Slovenia</title>
<path fill="none" stroke="black" stroke-width="2.8" d="M1812.93,-1384.01C1822.89,-1383.88 1830.71,-1381.63 1830.71,-1377.27 1830.71,-1374.21 1826.85,-1372.18 1821.09,-1371.21"/>
<polygon fill="black" stroke="black" stroke-width="2.8" points="1812.93,-1370.53 1821.2,-1367.6 1816.99,-1369.96 1820.98,-1370.3 1820.9,-1371.19 1820.83,-1372.09 1816.84,-1371.76 1820.61,-1374.78 1812.93,-1370.53 1812.93,-1370.53"/>
</g>
<!-- Israel -->
<g id="node27" class="node"><title>Israel</title>
<polygon fill="none" stroke="black" points="135.234,-1623.84 81.234,-1623.84 81.234,-1587.84 135.234,-1587.84 135.234,-1623.84"/>
<text text-anchor="middle" x="108.234" y="-1602.14" font-family="Times,serif" font-size="14.00">Israel</text>
</g>
<!-- Israel&#45;&gt;Unitedstates -->
<g id="edge23" class="edge"><title>Israel&#45;&gt;Unitedstates</title>
<path fill="none" stroke="black" d="M135.563,-1598.89C209.066,-1580.2 411.796,-1528.65 506.249,-1504.64"/>
<polygon fill="black" stroke="black" points="514.226,-1502.61 507.36,-1508.07 510.349,-1503.59 506.473,-1504.58 506.473,-1504.58 506.473,-1504.58 510.349,-1503.59 505.586,-1501.09 514.226,-1502.61 514.226,-1502.61"/>
</g>
<!-- Israel&#45;&gt;Israel -->
<g id="edge31" class="edge"><title>Israel&#45;&gt;Israel</title>
<path fill="none" stroke="black" d="M135.475,-1612.58C145.258,-1612.73 153.234,-1610.48 153.234,-1605.84 153.234,-1602.58 149.291,-1600.5 143.549,-1599.6"/>
<polygon fill="black" stroke="black" points="135.475,-1599.1 143.683,-1596 139.467,-1599.34 143.459,-1599.59 143.459,-1599.59 143.459,-1599.59 139.467,-1599.34 143.235,-1603.19 135.475,-1599.1 135.475,-1599.1"/>
</g>
<!-- China -->
<g id="node28" class="node"><title>China</title>
<polygon fill="none" stroke="black" points="143.914,-811.403 89.9139,-811.403 89.9139,-775.403 143.914,-775.403 143.914,-811.403"/>
<text text-anchor="middle" x="116.914" y="-789.703" font-family="Times,serif" font-size="14.00">China</text>
</g>
<!-- China&#45;&gt;Unitedstates -->
<g id="edge24" class="edge"><title>China&#45;&gt;Unitedstates</title>
<path fill="none" stroke="black" d="M128.43,-811.73C188.988,-908.107 470.435,-1356.03 540.202,-1467.06"/>
<polygon fill="black" stroke="black" points="544.487,-1473.88 537.182,-1469.02 542.359,-1470.49 540.231,-1467.11 540.231,-1467.11 540.231,-1467.11 542.359,-1470.49 543.279,-1465.19 544.487,-1473.88 544.487,-1473.88"/>
</g>
<!-- China&#45;&gt;China -->
<g id="edge86" class="edge"><title>China&#45;&gt;China</title>
<path fill="none" stroke="black" stroke-width="1.7" d="M144.155,-800.146C153.938,-800.291 161.914,-798.044 161.914,-793.403 161.914,-790.14 157.971,-788.06 152.229,-787.163"/>
<polygon fill="black" stroke="black" stroke-width="1.7" points="144.155,-786.659 152.363,-783.564 148.169,-786.559 152.161,-786.808 152.139,-787.158 152.117,-787.507 148.125,-787.258 151.915,-790.751 144.155,-786.659 144.155,-786.659"/>
</g>
<!-- Bosniaherzegovina -->
<g id="node29" class="node"><title>Bosniaherzegovina</title>
<polygon fill="none" stroke="black" points="1500.32,-1554.4 1380.32,-1554.4 1380.32,-1518.4 1500.32,-1518.4 1500.32,-1554.4"/>
<text text-anchor="middle" x="1440.32" y="-1532.7" font-family="Times,serif" font-size="14.00">Bosniaherzegovina</text>
</g>
<!-- Bosnia -->
<g id="node30" class="node"><title>Bosnia</title>
<polygon fill="none" stroke="black" points="1626.32,-1554.4 1572.32,-1554.4 1572.32,-1518.4 1626.32,-1518.4 1626.32,-1554.4"/>
<text text-anchor="middle" x="1599.32" y="-1532.7" font-family="Times,serif" font-size="14.00">Bosnia</text>
</g>
<!-- Bosniaherzegovina&#45;&gt;Bosnia -->
<g id="edge25" class="edge"><title>Bosniaherzegovina&#45;&gt;Bosnia</title>
<path fill="none" stroke="black" d="M1500.43,-1536.4C1521.78,-1536.4 1545.12,-1536.4 1563.76,-1536.4"/>
<polygon fill="black" stroke="black" points="1571.97,-1536.4 1563.97,-1540 1567.97,-1536.4 1563.97,-1536.4 1563.97,-1536.4 1563.97,-1536.4 1567.97,-1536.4 1563.97,-1532.8 1571.97,-1536.4 1571.97,-1536.4"/>
</g>
<!-- Russia&#45;&gt;Sweden -->
<g id="edge59" class="edge"><title>Russia&#45;&gt;Sweden</title>
<path fill="none" stroke="black" d="M1663.59,-775.315C1650.8,-719.295 1611.82,-548.508 1596.86,-482.961"/>
<polygon fill="black" stroke="black" points="1595.08,-475.146 1600.37,-482.144 1595.97,-479.046 1596.86,-482.945 1596.86,-482.945 1596.86,-482.945 1595.97,-479.046 1593.35,-483.746 1595.08,-475.146 1595.08,-475.146"/>
</g>
<!-- Russia&#45;&gt;Netherlands -->
<g id="edge26" class="edge"><title>Russia&#45;&gt;Netherlands</title>
<path fill="none" stroke="black" d="M1653.12,-811.715C1572.02,-913.412 1177.33,-1408.33 1084.46,-1524.79"/>
<polygon fill="black" stroke="black" points="1079.27,-1531.29 1081.44,-1522.79 1081.77,-1528.17 1084.26,-1525.04 1084.26,-1525.04 1084.26,-1525.04 1081.77,-1528.17 1087.07,-1527.28 1079.27,-1531.29 1079.27,-1531.29"/>
</g>
<!-- Russia&#45;&gt;Russia -->
<g id="edge115" class="edge"><title>Russia&#45;&gt;Russia</title>
<path fill="none" stroke="black" stroke-width="3.3" d="M1694.96,-800.146C1704.74,-800.291 1712.72,-798.044 1712.72,-793.403 1712.72,-790.14 1708.78,-788.06 1703.03,-787.163"/>
<polygon fill="black" stroke="black" stroke-width="3.3" points="1694.96,-786.659 1703.18,-783.452 1699.02,-785.761 1703.02,-786.01 1702.94,-787.158 1702.87,-788.305 1698.88,-788.056 1702.71,-790.863 1694.96,-786.659 1694.96,-786.659"/>
</g>
<!-- Serbia -->
<g id="node42" class="node"><title>Serbia</title>
<polygon fill="none" stroke="black" points="1900.64,-742.958 1846.64,-742.958 1846.64,-706.958 1900.64,-706.958 1900.64,-742.958"/>
<text text-anchor="middle" x="1873.64" y="-721.258" font-family="Times,serif" font-size="14.00">Serbia</text>
</g>
<!-- Russia&#45;&gt;Serbia -->
<g id="edge40" class="edge"><title>Russia&#45;&gt;Serbia</title>
<path fill="none" stroke="black" d="M1695.06,-784.314C1732.09,-772.007 1798.19,-750.036 1838.75,-736.554"/>
<polygon fill="black" stroke="black" points="1846.51,-733.976 1840.05,-739.915 1842.71,-735.237 1838.92,-736.499 1838.92,-736.499 1838.92,-736.499 1842.71,-735.237 1837.78,-733.083 1846.51,-733.976 1846.51,-733.976"/>
</g>
<!-- Armenia -->
<g id="node50" class="node"><title>Armenia</title>
<polygon fill="none" stroke="black" points="1906.51,-874.36 1841.51,-874.36 1841.51,-838.36 1906.51,-838.36 1906.51,-874.36"/>
<text text-anchor="middle" x="1874.01" y="-852.66" font-family="Times,serif" font-size="14.00">Armenia</text>
</g>
<!-- Russia&#45;&gt;Armenia -->
<g id="edge93" class="edge"><title>Russia&#45;&gt;Armenia</title>
<path fill="none" stroke="black" stroke-width="2.1" d="M1695.11,-801.763C1730.56,-812.582 1792.61,-831.519 1833.51,-844.001"/>
<polygon fill="black" stroke="black" stroke-width="2.1" points="1841.39,-846.407 1832.69,-847.515 1837.41,-845.765 1833.58,-844.597 1833.74,-844.071 1833.9,-843.545 1837.73,-844.713 1834.79,-840.628 1841.39,-846.407 1841.39,-846.407"/>
</g>
<!-- France&#45;&gt;Chile -->
<g id="edge29" class="edge"><title>France&#45;&gt;Chile</title>
<path fill="none" stroke="black" d="M746.852,-37.441C808.688,-37.441 960.257,-37.441 1029.42,-37.441"/>
<polygon fill="black" stroke="black" points="1037.43,-37.441 1029.43,-41.0411 1033.43,-37.441 1029.43,-37.4411 1029.43,-37.4411 1029.43,-37.4411 1033.43,-37.441 1029.43,-33.8411 1037.43,-37.441 1037.43,-37.441"/>
</g>
<!-- France&#45;&gt;Switzerland -->
<g id="edge101" class="edge"><title>France&#45;&gt;Switzerland</title>
<path fill="none" stroke="black" stroke-width="2.6" d="M692.71,-46.9108C668.674,-55.3215 632.978,-67.8119 604.073,-77.9263"/>
<polygon fill="black" stroke="black" stroke-width="2.6" points="596.5,-80.5763 602.862,-74.536 600.011,-78.5 603.787,-77.1789 604.051,-77.934 604.315,-78.6891 600.54,-80.0102 605.24,-81.332 596.5,-80.5763 596.5,-80.5763"/>
</g>
<!-- France&#45;&gt;Unitedstates -->
<g id="edge65" class="edge"><title>France&#45;&gt;Unitedstates</title>
<path fill="none" stroke="black" d="M716.038,-55.6448C692.049,-208.993 570.841,-1283.87 556.847,-1465.87"/>
<polygon fill="black" stroke="black" points="556.262,-1473.85 553.256,-1465.61 556.555,-1469.86 556.847,-1465.87 556.847,-1465.87 556.847,-1465.87 556.555,-1469.86 560.437,-1466.13 556.262,-1473.85 556.262,-1473.85"/>
</g>
<!-- France&#45;&gt;France -->
<g id="edge122" class="edge"><title>France&#45;&gt;France</title>
<path fill="none" stroke="black" stroke-width="3.6" d="M747.014,-44.1844C756.797,-44.3294 764.773,-42.0816 764.773,-37.441 764.773,-34.178 760.83,-32.0981 755.088,-31.2011"/>
<polygon fill="black" stroke="black" stroke-width="3.6" points="747.014,-30.6976 755.251,-27.1534 751.087,-29.6491 755.08,-29.8981 754.999,-31.1956 754.918,-32.4931 750.926,-32.2441 754.747,-35.2377 747.014,-30.6976 747.014,-30.6976"/>
</g>
<!-- France&#45;&gt;Unitedkingdom -->
<g id="edge45" class="edge"><title>France&#45;&gt;Unitedkingdom</title>
<path fill="none" stroke="black" d="M708.381,-55.5719C635.707,-171.231 237.271,-805.338 152.299,-940.571"/>
<polygon fill="black" stroke="black" points="147.82,-947.699 149.028,-939.01 149.948,-944.312 152.077,-940.925 152.077,-940.925 152.077,-940.925 149.948,-944.312 155.125,-942.841 147.82,-947.699 147.82,-947.699"/>
</g>
<!-- France&#45;&gt;Canada -->
<g id="edge51" class="edge"><title>France&#45;&gt;Canada</title>
<path fill="none" stroke="black" d="M692.644,-54.4874C617.34,-101.804 405.737,-234.763 321.412,-287.748"/>
<polygon fill="black" stroke="black" points="314.607,-292.024 319.466,-284.719 317.994,-289.895 321.381,-287.767 321.381,-287.767 321.381,-287.767 317.994,-289.895 323.297,-290.816 314.607,-292.024 314.607,-292.024"/>
</g>
<!-- Poland -->
<g id="node34" class="node"><title>Poland</title>
<polygon fill="none" stroke="black" points="1729.21,-1500.04 1675.21,-1500.04 1675.21,-1464.04 1729.21,-1464.04 1729.21,-1500.04"/>
<text text-anchor="middle" x="1702.21" y="-1478.34" font-family="Times,serif" font-size="14.00">Poland</text>
</g>
<!-- Poland&#45;&gt;Germany -->
<g id="edge32" class="edge"><title>Poland&#45;&gt;Germany</title>
<path fill="none" stroke="black" d="M1696.38,-1463.6C1677.9,-1405.12 1620.57,-1223.65 1599.13,-1155.79"/>
<polygon fill="black" stroke="black" points="1596.7,-1148.1 1602.54,-1154.64 1597.9,-1151.91 1599.11,-1155.72 1599.11,-1155.72 1599.11,-1155.72 1597.9,-1151.91 1595.68,-1156.81 1596.7,-1148.1 1596.7,-1148.1"/>
</g>
<!-- Cuba -->
<g id="node35" class="node"><title>Cuba</title>
<polygon fill="none" stroke="black" points="1298.71,-1599.21 1244.71,-1599.21 1244.71,-1563.21 1298.71,-1563.21 1298.71,-1599.21"/>
<text text-anchor="middle" x="1271.71" y="-1577.51" font-family="Times,serif" font-size="14.00">Cuba</text>
</g>
<!-- Cuba&#45;&gt;Belgium -->
<g id="edge33" class="edge"><title>Cuba&#45;&gt;Belgium</title>
<path fill="none" stroke="black" d="M1263.01,-1563.16C1256.67,-1549.98 1247.98,-1531.94 1240.94,-1517.33"/>
<polygon fill="black" stroke="black" points="1237.43,-1510.04 1244.15,-1515.69 1239.17,-1513.64 1240.9,-1517.25 1240.9,-1517.25 1240.9,-1517.25 1239.17,-1513.64 1237.66,-1518.81 1237.43,-1510.04 1237.43,-1510.04"/>
</g>
<!-- Cuba&#45;&gt;Cuba -->
<g id="edge47" class="edge"><title>Cuba&#45;&gt;Cuba</title>
<path fill="none" stroke="black" d="M1298.95,-1587.96C1308.73,-1588.1 1316.71,-1585.85 1316.71,-1581.21 1316.71,-1577.95 1312.76,-1575.87 1307.02,-1574.97"/>
<polygon fill="black" stroke="black" points="1298.95,-1574.47 1307.16,-1571.37 1302.94,-1574.72 1306.93,-1574.97 1306.93,-1574.97 1306.93,-1574.97 1302.94,-1574.72 1306.71,-1578.56 1298.95,-1574.47 1298.95,-1574.47"/>
</g>
<!-- Denmark -->
<g id="node36" class="node"><title>Denmark</title>
<polygon fill="none" stroke="black" points="1409.77,-205.168 1341.77,-205.168 1341.77,-169.168 1409.77,-169.168 1409.77,-205.168"/>
<text text-anchor="middle" x="1375.77" y="-183.468" font-family="Times,serif" font-size="14.00">Denmark</text>
</g>
<!-- Denmark&#45;&gt;Germany -->
<g id="edge34" class="edge"><title>Denmark&#45;&gt;Germany</title>
<path fill="none" stroke="black" d="M1379.97,-205.576C1406.75,-322.892 1553.44,-965.598 1584.96,-1103.7"/>
<polygon fill="black" stroke="black" points="1586.79,-1111.7 1581.5,-1104.7 1585.9,-1107.8 1585.01,-1103.9 1585.01,-1103.9 1585.01,-1103.9 1585.9,-1107.8 1588.52,-1103.1 1586.79,-1111.7 1586.79,-1111.7"/>
</g>
<!-- Denmark&#45;&gt;Denmark -->
<g id="edge42" class="edge"><title>Denmark&#45;&gt;Denmark</title>
<path fill="none" stroke="black" d="M1409.78,-193.904C1419.9,-193.703 1427.77,-191.458 1427.77,-187.168 1427.77,-184.153 1423.88,-182.148 1418.05,-181.153"/>
<polygon fill="black" stroke="black" points="1409.78,-180.433 1418.06,-177.54 1413.77,-180.78 1417.75,-181.127 1417.75,-181.127 1417.75,-181.127 1413.77,-180.78 1417.44,-184.713 1409.78,-180.433 1409.78,-180.433"/>
</g>
<!-- Italy -->
<g id="node41" class="node"><title>Italy</title>
<polygon fill="none" stroke="black" points="1255.75,-112.789 1201.75,-112.789 1201.75,-76.789 1255.75,-76.789 1255.75,-112.789"/>
<text text-anchor="middle" x="1228.75" y="-91.089" font-family="Times,serif" font-size="14.00">Italy</text>
</g>
<!-- Denmark&#45;&gt;Italy -->
<g id="edge56" class="edge"><title>Denmark&#45;&gt;Italy</title>
<path fill="none" stroke="black" d="M1347.08,-169.138C1322.94,-153.971 1288.38,-132.254 1262.83,-116.205"/>
<polygon fill="black" stroke="black" points="1255.89,-111.839 1264.58,-113.047 1259.27,-113.967 1262.66,-116.095 1262.66,-116.095 1262.66,-116.095 1259.27,-113.967 1260.74,-119.143 1255.89,-111.839 1255.89,-111.839"/>
</g>
<!-- Unitedkingdom&#45;&gt;Unitedstates -->
<g id="edge95" class="edge"><title>Unitedkingdom&#45;&gt;Unitedstates</title>
<path fill="none" stroke="black" stroke-width="2.4" d="M147.596,-984.161C203.922,-1063.41 454.237,-1377.61 532.503,-1467.76"/>
<polygon fill="black" stroke="black" stroke-width="2.4" points="537.836,-1473.86 529.859,-1470.21 534.675,-1471.31 532.042,-1468.3 532.569,-1467.84 533.096,-1467.38 535.729,-1470.39 535.279,-1465.47 537.836,-1473.86 537.836,-1473.86"/>
</g>
<!-- Unitedkingdom&#45;&gt;Germany -->
<g id="edge91" class="edge"><title>Unitedkingdom&#45;&gt;Germany</title>
<path fill="none" stroke="black" stroke-width="2.1" d="M187.394,-974.416C415.525,-1005.63 1339.72,-1109.68 1548.76,-1127.56"/>
<polygon fill="black" stroke="black" stroke-width="2.1" points="1556.76,-1128.23 1548.48,-1131.15 1552.72,-1128.45 1548.74,-1128.11 1548.78,-1127.57 1548.83,-1127.02 1552.82,-1127.35 1549.08,-1123.98 1556.76,-1128.23 1556.76,-1128.23"/>
</g>
<!-- Unitedkingdom&#45;&gt;Unitedkingdom -->
<g id="edge126" class="edge"><title>Unitedkingdom&#45;&gt;Unitedkingdom</title>
<path fill="none" stroke="black" stroke-width="4.1" d="M187.509,-972.439C197.908,-971.732 205.355,-969.567 205.355,-965.946 205.355,-963.344 201.508,-961.494 195.483,-960.396"/>
<polygon fill="black" stroke="black" stroke-width="4.1" points="187.509,-959.454 195.996,-955.812 191.664,-958.384 195.636,-958.854 195.454,-960.393 195.272,-961.932 191.3,-961.463 194.913,-964.974 187.509,-959.454 187.509,-959.454"/>
</g>
<!-- Unitedkingdom&#45;&gt;Spain -->
<g id="edge35" class="edge"><title>Unitedkingdom&#45;&gt;Spain</title>
<path fill="none" stroke="black" d="M142.711,-984.112C152.874,-1013.15 172.823,-1070.17 184.53,-1103.62"/>
<polygon fill="black" stroke="black" points="187.318,-1111.59 181.278,-1105.23 185.997,-1107.82 184.676,-1104.04 184.676,-1104.04 184.676,-1104.04 185.997,-1107.82 188.074,-1102.85 187.318,-1111.59 187.318,-1111.59"/>
</g>
<!-- Iran -->
<g id="node40" class="node"><title>Iran</title>
<polygon fill="none" stroke="black" points="220.703,-474.968 166.703,-474.968 166.703,-438.968 220.703,-438.968 220.703,-474.968"/>
<text text-anchor="middle" x="193.703" y="-453.268" font-family="Times,serif" font-size="14.00">Iran</text>
</g>
<!-- Unitedkingdom&#45;&gt;Iran -->
<g id="edge37" class="edge"><title>Unitedkingdom&#45;&gt;Iran</title>
<path fill="none" stroke="black" d="M138.396,-947.831C147.027,-871.233 180.548,-573.72 190.744,-483.228"/>
<polygon fill="black" stroke="black" points="191.656,-475.131 194.338,-483.484 191.209,-479.106 190.761,-483.081 190.761,-483.081 190.761,-483.081 191.209,-479.106 187.183,-482.678 191.656,-475.131 191.656,-475.131"/>
</g>
<!-- Spain&#45;&gt;Chile -->
<g id="edge78" class="edge"><title>Spain&#45;&gt;Chile</title>
<path fill="none" stroke="black" stroke-width="1.7" d="M208.097,-1111.79C310.339,-983.581 926.093,-211.449 1044.99,-62.3514"/>
<polygon fill="black" stroke="black" stroke-width="1.7" points="1050.28,-55.7275 1048.1,-64.2268 1048.06,-59.0731 1045.56,-62.2004 1045.29,-61.9822 1045.02,-61.764 1047.51,-58.6366 1042.47,-59.7376 1050.28,-55.7275 1050.28,-55.7275"/>
</g>
<!-- Spain&#45;&gt;Argentina -->
<g id="edge63" class="edge"><title>Spain&#45;&gt;Argentina</title>
<path fill="none" stroke="black" d="M216.308,-1147.86C300.525,-1215.02 596.052,-1450.7 690.51,-1526.03"/>
<polygon fill="black" stroke="black" points="696.958,-1531.17 688.458,-1529 693.83,-1528.68 690.703,-1526.18 690.703,-1526.18 690.703,-1526.18 693.83,-1528.68 692.948,-1523.37 696.958,-1531.17 696.958,-1531.17"/>
</g>
<!-- Spain&#45;&gt;Spain -->
<g id="edge114" class="edge"><title>Spain&#45;&gt;Spain</title>
<path fill="none" stroke="black" stroke-width="3.2" d="M220.944,-1136.58C230.727,-1136.73 238.703,-1134.48 238.703,-1129.84 238.703,-1126.57 234.76,-1124.49 229.018,-1123.6"/>
<polygon fill="black" stroke="black" stroke-width="3.2" points="220.944,-1123.09 229.152,-1120 225.004,-1122.25 228.997,-1122.49 228.928,-1123.59 228.86,-1124.69 224.867,-1124.44 228.704,-1127.19 220.944,-1123.09 220.944,-1123.09"/>
</g>
<!-- Spain&#45;&gt;Italy -->
<g id="edge39" class="edge"><title>Spain&#45;&gt;Italy</title>
<path fill="none" stroke="black" d="M214.893,-1111.52C348.743,-986.507 1074.73,-260.579 1207.82,-118.775"/>
<polygon fill="black" stroke="black" points="1213.36,-112.842 1210.53,-121.147 1210.63,-115.766 1207.9,-118.69 1207.9,-118.69 1207.9,-118.69 1210.63,-115.766 1205.27,-116.233 1213.36,-112.842 1213.36,-112.842"/>
</g>
<!-- Canada&#45;&gt;Chile -->
<g id="edge84" class="edge"><title>Canada&#45;&gt;Chile</title>
<path fill="none" stroke="black" stroke-width="1.7" d="M314.723,-299.925C434.872,-257.883 898.084,-95.7985 1029.76,-49.7223"/>
<polygon fill="black" stroke="black" stroke-width="1.7" points="1037.59,-46.9829 1031.23,-53.0232 1033.93,-48.6344 1030.16,-49.9556 1030.04,-49.6252 1029.92,-49.2949 1033.7,-47.9737 1028.85,-46.2272 1037.59,-46.9829 1037.59,-46.9829"/>
</g>
<!-- Canada&#45;&gt;Unitedstates -->
<g id="edge99" class="edge"><title>Canada&#45;&gt;Unitedstates</title>
<path fill="none" stroke="black" stroke-width="2.4" d="M288.341,-327.977C312.379,-462.306 504.838,-1306.1 547.672,-1465.91"/>
<polygon fill="black" stroke="black" stroke-width="2.4" points="549.826,-1473.83 544.251,-1467.05 548.1,-1470.15 547.049,-1466.29 547.725,-1466.11 548.4,-1465.92 549.451,-1469.78 551.199,-1465.16 549.826,-1473.83 549.826,-1473.83"/>
</g>
<!-- Canada&#45;&gt;Australia -->
<g id="edge46" class="edge"><title>Canada&#45;&gt;Australia</title>
<path fill="none" stroke="black" d="M286.082,-327.975C286.082,-446.104 286.082,-1109.14 286.082,-1250.39"/>
<polygon fill="black" stroke="black" points="286.082,-1258.57 282.483,-1250.57 286.082,-1254.57 286.083,-1250.57 286.083,-1250.57 286.083,-1250.57 286.082,-1254.57 289.683,-1250.57 286.082,-1258.57 286.082,-1258.57"/>
</g>
<!-- Canada&#45;&gt;China -->
<g id="edge76" class="edge"><title>Canada&#45;&gt;China</title>
<path fill="none" stroke="black" stroke-width="1.7" d="M279.76,-328.017C253.931,-401.832 156.361,-680.67 125.993,-767.457"/>
<polygon fill="black" stroke="black" stroke-width="1.7" points="123.269,-775.242 122.513,-766.502 124.259,-771.351 125.58,-767.576 125.911,-767.691 126.241,-767.807 124.92,-771.583 129.309,-768.88 123.269,-775.242 123.269,-775.242"/>
</g>
<!-- Canada&#45;&gt;Unitedkingdom -->
<g id="edge80" class="edge"><title>Canada&#45;&gt;Unitedkingdom</title>
<path fill="none" stroke="black" stroke-width="1.7" d="M281.922,-328.177C260.954,-420.041 166.911,-832.072 142.277,-940"/>
<polygon fill="black" stroke="black" stroke-width="1.7" points="140.496,-947.805 138.766,-939.204 141.045,-943.827 141.935,-939.927 142.276,-940.005 142.617,-940.083 141.727,-943.983 145.786,-940.806 140.496,-947.805 140.496,-947.805"/>
</g>
<!-- Canada&#45;&gt;Canada -->
<g id="edge97" class="edge"><title>Canada&#45;&gt;Canada</title>
<path fill="none" stroke="black" stroke-width="2.4" d="M314.689,-316.695C324.588,-316.767 332.582,-314.517 332.582,-309.947 332.582,-306.734 328.63,-304.667 322.843,-303.749"/>
<polygon fill="black" stroke="black" stroke-width="2.4" points="314.689,-303.199 322.914,-300.145 318.727,-302.77 322.718,-303.039 322.671,-303.737 322.624,-304.436 318.633,-304.166 322.429,-307.329 314.689,-303.199 314.689,-303.199"/>
</g>
<!-- Canada&#45;&gt;Iran -->
<g id="edge36" class="edge"><title>Canada&#45;&gt;Iran</title>
<path fill="none" stroke="black" d="M274.755,-327.975C258.41,-353.988 228.141,-402.161 209.575,-431.707"/>
<polygon fill="black" stroke="black" points="205.123,-438.793 206.331,-430.104 207.251,-435.406 209.379,-432.019 209.379,-432.019 209.379,-432.019 207.251,-435.406 212.428,-433.935 205.123,-438.793 205.123,-438.793"/>
</g>
<!-- Canada&#45;&gt;Hongkong -->
<g id="edge90" class="edge"><title>Canada&#45;&gt;Hongkong</title>
<path fill="none" stroke="black" stroke-width="2.1" d="M277.385,-328.007C252.007,-380.704 177.991,-534.4 148.596,-595.441"/>
<polygon fill="black" stroke="black" stroke-width="2.1" points="145.076,-602.75 145.304,-593.98 146.316,-598.907 148.052,-595.303 148.547,-595.542 149.043,-595.781 147.307,-599.385 151.791,-597.104 145.076,-602.75 145.076,-602.75"/>
</g>
<!-- Iran&#45;&gt;Iran -->
<g id="edge108" class="edge"><title>Iran&#45;&gt;Iran</title>
<path fill="none" stroke="black" stroke-width="2.9" d="M220.944,-463.712C230.727,-463.857 238.703,-461.609 238.703,-456.968 238.703,-453.705 234.76,-451.625 229.018,-450.728"/>
<polygon fill="black" stroke="black" stroke-width="2.9" points="220.944,-450.225 229.152,-447.13 224.995,-449.526 228.987,-449.775 228.928,-450.723 228.869,-451.671 224.877,-451.422 228.704,-454.316 220.944,-450.225 220.944,-450.225"/>
</g>
<!-- Italy&#45;&gt;Portugal -->
<g id="edge70" class="edge"><title>Italy&#45;&gt;Portugal</title>
<path fill="none" stroke="black" stroke-width="1.7" d="M1251.75,-113.133C1300.74,-152.195 1415.27,-243.531 1469.32,-286.638"/>
<polygon fill="black" stroke="black" stroke-width="1.7" points="1475.61,-291.649 1467.11,-289.476 1472.26,-289.429 1469.13,-286.935 1469.35,-286.661 1469.57,-286.388 1472.7,-288.882 1471.6,-283.847 1475.61,-291.649 1475.61,-291.649"/>
</g>
<!-- Italy&#45;&gt;Unitedstates -->
<g id="edge98" class="edge"><title>Italy&#45;&gt;Unitedstates</title>
<path fill="none" stroke="black" stroke-width="2.4" d="M1220,-112.966C1147.9,-262.682 652.643,-1291.09 568.133,-1466.58"/>
<polygon fill="black" stroke="black" stroke-width="2.4" points="564.639,-1473.83 564.867,-1465.06 565.744,-1469.92 567.48,-1466.32 568.11,-1466.62 568.741,-1466.93 567.005,-1470.53 571.354,-1468.19 564.639,-1473.83 564.639,-1473.83"/>
</g>
<!-- Italy&#45;&gt;Spain -->
<g id="edge53" class="edge"><title>Italy&#45;&gt;Spain</title>
<path fill="none" stroke="black" d="M1207.56,-113.104C1073.71,-238.119 347.724,-964.048 214.636,-1105.85"/>
<polygon fill="black" stroke="black" points="209.097,-1111.78 211.925,-1103.48 211.827,-1108.86 214.556,-1105.94 214.556,-1105.94 214.556,-1105.94 211.827,-1108.86 217.188,-1108.39 209.097,-1111.78 209.097,-1111.78"/>
</g>
<!-- Italy&#45;&gt;Italy -->
<g id="edge102" class="edge"><title>Italy&#45;&gt;Italy</title>
<path fill="none" stroke="black" stroke-width="2.6" d="M1255.99,-101.532C1265.78,-101.677 1273.75,-99.4297 1273.75,-94.789 1273.75,-91.5261 1269.81,-89.4461 1264.07,-88.5491"/>
<polygon fill="black" stroke="black" stroke-width="2.6" points="1255.99,-88.0456 1264.2,-84.9506 1260.03,-87.4962 1264.03,-87.7452 1263.98,-88.5436 1263.93,-89.3421 1259.93,-89.0931 1263.75,-92.1367 1255.99,-88.0456 1255.99,-88.0456"/>
</g>
<!-- Serbia&#45;&gt;Serbia -->
<g id="edge83" class="edge"><title>Serbia&#45;&gt;Serbia</title>
<path fill="none" stroke="black" stroke-width="1.7" d="M1900.88,-731.702C1910.66,-731.847 1918.64,-729.599 1918.64,-724.958 1918.64,-721.695 1914.7,-719.615 1908.96,-718.718"/>
<polygon fill="black" stroke="black" stroke-width="1.7" points="1900.88,-718.215 1909.09,-715.12 1904.9,-718.115 1908.89,-718.364 1908.87,-718.713 1908.84,-719.062 1904.85,-718.813 1908.64,-722.306 1900.88,-718.215 1900.88,-718.215"/>
</g>
<!-- Croatia -->
<g id="node44" class="node"><title>Croatia</title>
<polygon fill="none" stroke="black" points="1091.32,-933.403 1035.32,-933.403 1035.32,-897.403 1091.32,-897.403 1091.32,-933.403"/>
<text text-anchor="middle" x="1063.32" y="-911.703" font-family="Times,serif" font-size="14.00">Croatia</text>
</g>
<!-- Croatia&#45;&gt;Croatia -->
<g id="edge50" class="edge"><title>Croatia&#45;&gt;Croatia</title>
<path fill="none" stroke="black" d="M1091.62,-922.151C1101.41,-922.223 1109.32,-919.973 1109.32,-915.403 1109.32,-912.189 1105.41,-910.123 1099.68,-909.205"/>
<polygon fill="black" stroke="black" points="1091.62,-908.655 1099.84,-905.607 1095.61,-908.927 1099.6,-909.199 1099.6,-909.199 1099.6,-909.199 1095.61,-908.927 1099.35,-912.791 1091.62,-908.655 1091.62,-908.655"/>
</g>
<!-- Southafrica&#45;&gt;Southafrica -->
<g id="edge100" class="edge"><title>Southafrica&#45;&gt;Southafrica</title>
<path fill="none" stroke="black" stroke-width="2.4" d="M2019.59,-1095.17C2029.85,-1094.76 2037.59,-1092.53 2037.59,-1088.49 2037.59,-1085.65 2033.76,-1083.7 2027.93,-1082.65"/>
<polygon fill="black" stroke="black" stroke-width="2.4" points="2019.59,-1081.81 2027.91,-1079.03 2023.64,-1081.51 2027.62,-1081.92 2027.55,-1082.62 2027.48,-1083.31 2023.5,-1082.91 2027.19,-1086.2 2019.59,-1081.81 2019.59,-1081.81"/>
</g>
<!-- Venezuela -->
<g id="node46" class="node"><title>Venezuela</title>
<polygon fill="none" stroke="black" points="1247.32,-588.403 1173.32,-588.403 1173.32,-552.403 1247.32,-552.403 1247.32,-588.403"/>
<text text-anchor="middle" x="1210.32" y="-566.703" font-family="Times,serif" font-size="14.00">Venezuela</text>
</g>
<!-- Venezuela&#45;&gt;Venezuela -->
<g id="edge64" class="edge"><title>Venezuela&#45;&gt;Venezuela</title>
<path fill="none" stroke="black" d="M1247.33,-577.112C1257.53,-576.788 1265.32,-574.551 1265.32,-570.403 1265.32,-567.486 1261.47,-565.514 1255.63,-564.488"/>
<polygon fill="black" stroke="black" points="1247.33,-563.694 1255.64,-560.872 1251.31,-564.075 1255.3,-564.456 1255.3,-564.456 1255.3,-564.456 1251.31,-564.075 1254.95,-568.04 1247.33,-563.694 1247.33,-563.694"/>
</g>
<!-- Malaysia -->
<g id="node47" class="node"><title>Malaysia</title>
<polygon fill="none" stroke="black" points="67,-1007.42 -7.10543e-14,-1007.42 -7.10543e-14,-971.422 67,-971.422 67,-1007.42"/>
<text text-anchor="middle" x="33.5" y="-985.722" font-family="Times,serif" font-size="14.00">Malaysia</text>
</g>
<!-- Malaysia&#45;&gt;Unitedkingdom -->
<g id="edge69" class="edge"><title>Malaysia&#45;&gt;Unitedkingdom</title>
<path fill="none" stroke="black" stroke-width="1.7" d="M67.1785,-981.735C70.4082,-980.998 73.7443,-980.237 77.1264,-979.465"/>
<polygon fill="black" stroke="black" stroke-width="1.7" points="85.0734,-977.651 78.0751,-982.941 81.2516,-978.882 77.3519,-979.772 77.274,-979.431 77.1961,-979.09 81.0958,-978.2 76.4729,-975.921 85.0734,-977.651 85.0734,-977.651"/>
</g>
<!-- Norway -->
<g id="node48" class="node"><title>Norway</title>
<polygon fill="none" stroke="black" points="1164.32,-795.403 1104.32,-795.403 1104.32,-759.403 1164.32,-759.403 1164.32,-795.403"/>
<text text-anchor="middle" x="1134.32" y="-773.703" font-family="Times,serif" font-size="14.00">Norway</text>
</g>
<!-- Norway&#45;&gt;Norway -->
<g id="edge74" class="edge"><title>Norway&#45;&gt;Norway</title>
<path fill="none" stroke="black" stroke-width="1.7" d="M1164.32,-784.153C1174.32,-784.153 1182.32,-781.903 1182.32,-777.403 1182.32,-774.239 1178.36,-772.187 1172.54,-771.248"/>
<polygon fill="black" stroke="black" stroke-width="1.7" points="1164.32,-770.653 1172.56,-767.64 1168.33,-770.593 1172.32,-770.881 1172.3,-771.23 1172.27,-771.58 1168.28,-771.291 1172.04,-774.821 1164.32,-770.653 1164.32,-770.653"/>
</g>
<!-- Algeria -->
<g id="node49" class="node"><title>Algeria</title>
<polygon fill="none" stroke="black" points="1506.82,-864.403 1449.82,-864.403 1449.82,-828.403 1506.82,-828.403 1506.82,-864.403"/>
<text text-anchor="middle" x="1478.32" y="-842.703" font-family="Times,serif" font-size="14.00">Algeria</text>
</g>
<!-- Algeria&#45;&gt;Algeria -->
<g id="edge85" class="edge"><title>Algeria&#45;&gt;Algeria</title>
<path fill="none" stroke="black" stroke-width="1.7" d="M1506.92,-853.151C1516.82,-853.223 1524.82,-850.973 1524.82,-846.403 1524.82,-843.189 1520.86,-841.123 1515.08,-840.205"/>
<polygon fill="black" stroke="black" stroke-width="1.7" points="1506.92,-839.655 1515.15,-836.601 1510.94,-839.575 1514.93,-839.844 1514.91,-840.193 1514.88,-840.542 1510.89,-840.273 1514.66,-843.785 1506.92,-839.655 1506.92,-839.655"/>
</g>
<!-- Mexico -->
<g id="node52" class="node"><title>Mexico</title>
<polygon fill="none" stroke="black" points="1232.82,-450.403 1173.82,-450.403 1173.82,-414.403 1232.82,-414.403 1232.82,-450.403"/>
<text text-anchor="middle" x="1203.32" y="-428.703" font-family="Times,serif" font-size="14.00">Mexico</text>
</g>
<!-- Mexico&#45;&gt;Mexico -->
<g id="edge106" class="edge"><title>Mexico&#45;&gt;Mexico</title>
<path fill="none" stroke="black" stroke-width="2.8" d="M1233,-439.153C1242.9,-439.153 1250.82,-436.903 1250.82,-432.403 1250.82,-429.239 1246.9,-427.187 1241.14,-426.248"/>
<polygon fill="black" stroke="black" stroke-width="2.8" points="1233,-425.653 1241.25,-422.646 1237.06,-425.047 1241.05,-425.339 1240.98,-426.236 1240.92,-427.134 1236.93,-426.842 1240.72,-429.827 1233,-425.653 1233,-425.653"/>
</g>
<!-- Ukraine -->
<g id="node53" class="node"><title>Ukraine</title>
<polygon fill="none" stroke="black" points="1371.32,-450.403 1311.32,-450.403 1311.32,-414.403 1371.32,-414.403 1371.32,-450.403"/>
<text text-anchor="middle" x="1341.32" y="-428.703" font-family="Times,serif" font-size="14.00">Ukraine</text>
</g>
<!-- Ukraine&#45;&gt;Ukraine -->
<g id="edge119" class="edge"><title>Ukraine&#45;&gt;Ukraine</title>
<path fill="none" stroke="black" stroke-width="3.4" d="M1371.32,-439.153C1381.32,-439.153 1389.32,-436.903 1389.32,-432.403 1389.32,-429.239 1385.36,-427.187 1379.54,-426.248"/>
<polygon fill="black" stroke="black" stroke-width="3.4" points="1371.32,-425.653 1379.57,-422.415 1375.39,-424.745 1379.38,-425.034 1379.3,-426.23 1379.21,-427.427 1375.22,-427.139 1379.02,-430.045 1371.32,-425.653 1371.32,-425.653"/>
</g>
</g>
</svg>
