<?xml version="1.0" encoding="UTF-8" standalone="no"?>
<!DOCTYPE svg PUBLIC "-//W3C//DTD SVG 1.1//EN"
 "http://www.w3.org/Graphics/SVG/1.1/DTD/svg11.dtd">
<!-- Generated by graphviz version 2.38.0 (20140413.2041)
 -->
<!-- Title: transition Pages: 1 -->
<svg width="736pt" height="795pt"
 viewBox="0.00 0.00 736.49 795.47" xmlns="http://www.w3.org/2000/svg" xmlns:xlink="http://www.w3.org/1999/xlink">
<g id="graph0" class="graph" transform="scale(1 1) rotate(0) translate(4 791.472)">
<title>transition</title>
<polygon fill="white" stroke="none" points="-4,4 -4,-791.472 732.494,-791.472 732.494,4 -4,4"/>
<text text-anchor="middle" x="364.247" y="-772.272" font-family="Times,serif" font-size="14.00">Hiring network of Mathematics Ph.D.&#39;s between 1800 and 1910 (with threshold 1.00)</text>
<!-- Netherlands -->
<g id="node1" class="node"><title>Netherlands</title>
<polygon fill="none" stroke="black" points="156.889,-243.212 74.8886,-243.212 74.8886,-207.212 156.889,-207.212 156.889,-243.212"/>
<text text-anchor="middle" x="115.889" y="-221.512" font-family="Times,serif" font-size="14.00">Netherlands</text>
</g>
<!-- Netherlands&#45;&gt;Netherlands -->
<g id="edge39" class="edge"><title>Netherlands&#45;&gt;Netherlands</title>
<path fill="none" stroke="black" stroke-width="6.6" d="M156.972,-231.869C167.225,-231.404 174.889,-229.185 174.889,-225.212 174.889,-222.419 171.1,-220.492 165.286,-219.433"/>
<polygon fill="black" stroke="black" stroke-width="6.6" points="156.972,-218.555 165.708,-212.011 161.244,-216.19 165.222,-216.611 164.928,-219.395 164.633,-222.18 160.655,-221.759 164.147,-226.779 156.972,-218.555 156.972,-218.555"/>
</g>
<!-- Unitedkingdom -->
<g id="node2" class="node"><title>Unitedkingdom</title>
<polygon fill="none" stroke="black" points="102,-399.867 -1.42109e-14,-399.867 -1.42109e-14,-363.867 102,-363.867 102,-399.867"/>
<text text-anchor="middle" x="51" y="-378.167" font-family="Times,serif" font-size="14.00">Unitedkingdom</text>
</g>
<!-- Netherlands&#45;&gt;Unitedkingdom -->
<g id="edge1" class="edge"><title>Netherlands&#45;&gt;Unitedkingdom</title>
<path fill="none" stroke="black" stroke-width="1.7" d="M108.318,-243.489C96.7916,-271.316 74.797,-324.416 61.6597,-356.132"/>
<polygon fill="black" stroke="black" stroke-width="1.7" points="58.5223,-363.707 58.2579,-354.938 59.7297,-359.877 61.2605,-356.182 61.5839,-356.316 61.9072,-356.449 60.3764,-360.145 64.9098,-357.693 58.5223,-363.707 58.5223,-363.707"/>
</g>
<!-- Unitedkingdom&#45;&gt;Unitedkingdom -->
<g id="edge34" class="edge"><title>Unitedkingdom&#45;&gt;Unitedkingdom</title>
<path fill="none" stroke="black" stroke-width="4.5" d="M102.155,-388.36C112.553,-387.652 120,-385.488 120,-381.867 120,-379.264 116.153,-377.414 110.128,-376.317"/>
<polygon fill="black" stroke="black" stroke-width="4.5" points="102.155,-375.375 110.694,-371.286 106.332,-374.106 110.305,-374.576 110.099,-376.314 109.894,-378.052 105.921,-377.582 109.505,-381.341 102.155,-375.375 102.155,-375.375"/>
</g>
<!-- Unitedstates -->
<g id="node5" class="node"><title>Unitedstates</title>
<polygon fill="none" stroke="black" points="157.389,-556.522 74.3886,-556.522 74.3886,-520.522 157.389,-520.522 157.389,-556.522"/>
<text text-anchor="middle" x="115.889" y="-534.822" font-family="Times,serif" font-size="14.00">Unitedstates</text>
</g>
<!-- Unitedkingdom&#45;&gt;Unitedstates -->
<g id="edge31" class="edge"><title>Unitedkingdom&#45;&gt;Unitedstates</title>
<path fill="none" stroke="black" stroke-width="4" d="M58.5705,-400.144C70.0971,-427.971 92.0916,-481.071 105.229,-512.787"/>
<polygon fill="black" stroke="black" stroke-width="4" points="108.366,-520.362 101.147,-514.693 105.45,-517.24 103.919,-513.545 105.305,-512.971 106.691,-512.397 108.221,-516.092 109.462,-511.248 108.366,-520.362 108.366,-520.362"/>
</g>
<!-- Finland -->
<g id="node3" class="node"><title>Finland</title>
<polygon fill="none" stroke="black" points="653.095,-692.447 595.095,-692.447 595.095,-656.447 653.095,-656.447 653.095,-692.447"/>
<text text-anchor="middle" x="624.095" y="-670.747" font-family="Times,serif" font-size="14.00">Finland</text>
</g>
<!-- Finland&#45;&gt;Finland -->
<g id="edge2" class="edge"><title>Finland&#45;&gt;Finland</title>
<path fill="none" stroke="black" stroke-width="1.7" d="M653.47,-681.197C663.262,-681.197 671.095,-678.947 671.095,-674.447 671.095,-671.283 667.223,-669.231 661.52,-668.292"/>
<polygon fill="black" stroke="black" stroke-width="1.7" points="653.47,-667.697 661.714,-664.696 657.485,-667.642 661.474,-667.937 661.449,-668.286 661.423,-668.635 657.434,-668.341 661.183,-671.877 653.47,-667.697 653.47,-667.697"/>
</g>
<!-- France -->
<g id="node4" class="node"><title>France</title>
<polygon fill="none" stroke="black" points="299.544,-621.411 245.544,-621.411 245.544,-585.411 299.544,-585.411 299.544,-621.411"/>
<text text-anchor="middle" x="272.544" y="-599.711" font-family="Times,serif" font-size="14.00">France</text>
</g>
<!-- France&#45;&gt;France -->
<g id="edge36" class="edge"><title>France&#45;&gt;France</title>
<path fill="none" stroke="black" stroke-width="4.6" d="M299.784,-610.154C309.568,-610.299 317.544,-608.051 317.544,-603.411 317.544,-600.148 313.6,-598.068 307.858,-597.171"/>
<polygon fill="black" stroke="black" stroke-width="4.6" points="299.784,-596.667 308.091,-592 303.889,-595.12 307.881,-595.369 307.769,-597.165 307.657,-598.962 303.665,-598.713 307.447,-602.33 299.784,-596.667 299.784,-596.667"/>
</g>
<!-- France&#45;&gt;Unitedstates -->
<g id="edge3" class="edge"><title>France&#45;&gt;Unitedstates</title>
<path fill="none" stroke="black" stroke-width="1.7" d="M245.256,-592.108C223.236,-582.987 191.682,-569.917 165.25,-558.968"/>
<polygon fill="black" stroke="black" stroke-width="1.7" points="157.586,-555.794 166.355,-555.529 161.416,-557.001 165.111,-558.532 164.977,-558.855 164.844,-559.179 161.148,-557.648 163.6,-562.181 157.586,-555.794 157.586,-555.794"/>
</g>
<!-- Poland -->
<g id="node12" class="node"><title>Poland</title>
<polygon fill="none" stroke="black" points="456.199,-556.522 402.199,-556.522 402.199,-520.522 456.199,-520.522 456.199,-556.522"/>
<text text-anchor="middle" x="429.199" y="-534.822" font-family="Times,serif" font-size="14.00">Poland</text>
</g>
<!-- France&#45;&gt;Poland -->
<g id="edge13" class="edge"><title>France&#45;&gt;Poland</title>
<path fill="none" stroke="black" stroke-width="2.1" d="M299.831,-592.108C326.033,-581.255 365.731,-564.811 394.239,-553.003"/>
<polygon fill="black" stroke="black" stroke-width="2.1" points="401.962,-549.804 395.948,-556.191 398.477,-551.843 394.781,-553.374 394.571,-552.865 394.36,-552.357 398.056,-550.827 393.193,-549.54 401.962,-549.804 401.962,-549.804"/>
</g>
<!-- Belgium -->
<g id="node13" class="node"><title>Belgium</title>
<polygon fill="none" stroke="black" points="304.544,-728.625 240.544,-728.625 240.544,-692.625 304.544,-692.625 304.544,-728.625"/>
<text text-anchor="middle" x="272.544" y="-706.925" font-family="Times,serif" font-size="14.00">Belgium</text>
</g>
<!-- France&#45;&gt;Belgium -->
<g id="edge14" class="edge"><title>France&#45;&gt;Belgium</title>
<path fill="none" stroke="black" stroke-width="2.1" d="M272.544,-621.598C272.544,-638.772 272.544,-664.725 272.544,-684.185"/>
<polygon fill="black" stroke="black" stroke-width="2.1" points="272.544,-692.348 268.944,-684.348 271.994,-688.348 271.994,-684.348 272.544,-684.348 273.094,-684.348 273.094,-688.348 276.144,-684.348 272.544,-692.348 272.544,-692.348"/>
</g>
<!-- Unitedstates&#45;&gt;Unitedstates -->
<g id="edge38" class="edge"><title>Unitedstates&#45;&gt;Unitedstates</title>
<path fill="none" stroke="black" stroke-width="5.4" d="M157.594,-545.167C167.796,-544.674 175.389,-542.46 175.389,-538.522 175.389,-535.754 171.635,-533.837 165.86,-532.771"/>
<polygon fill="black" stroke="black" stroke-width="5.4" points="157.594,-531.878 166.201,-526.698 161.807,-530.12 165.784,-530.55 165.547,-532.738 165.311,-534.925 161.334,-534.495 164.894,-538.777 157.594,-531.878 157.594,-531.878"/>
</g>
<!-- Germany -->
<g id="node6" class="node"><title>Germany</title>
<polygon fill="none" stroke="black" points="528.087,-399.867 460.087,-399.867 460.087,-363.867 528.087,-363.867 528.087,-399.867"/>
<text text-anchor="middle" x="494.087" y="-378.167" font-family="Times,serif" font-size="14.00">Germany</text>
</g>
<!-- Germany&#45;&gt;Netherlands -->
<g id="edge11" class="edge"><title>Germany&#45;&gt;Netherlands</title>
<path fill="none" stroke="black" stroke-width="1.7" d="M459.858,-367.689C392.529,-339.8 242.679,-277.73 164.883,-245.506"/>
<polygon fill="black" stroke="black" stroke-width="1.7" points="157.129,-242.294 165.898,-242.03 160.959,-243.502 164.654,-245.033 164.52,-245.356 164.386,-245.679 160.691,-244.148 163.142,-248.682 157.129,-242.294 157.129,-242.294"/>
</g>
<!-- Germany&#45;&gt;Unitedkingdom -->
<g id="edge9" class="edge"><title>Germany&#45;&gt;Unitedkingdom</title>
<path fill="none" stroke="black" stroke-width="1.7" d="M460.055,-381.867C385.01,-381.867 204.528,-381.867 110.391,-381.867"/>
<polygon fill="black" stroke="black" stroke-width="1.7" points="102.109,-381.867 110.109,-378.267 106.109,-381.517 110.109,-381.517 110.109,-381.867 110.109,-382.217 106.109,-382.217 110.109,-385.467 102.109,-381.867 102.109,-381.867"/>
</g>
<!-- Germany&#45;&gt;France -->
<g id="edge19" class="edge"><title>Germany&#45;&gt;France</title>
<path fill="none" stroke="black" stroke-width="2.4" d="M475.958,-399.997C436.1,-439.854 340.865,-535.089 296.3,-579.654"/>
<polygon fill="black" stroke="black" stroke-width="2.4" points="290.613,-585.341 293.725,-577.139 292.947,-582.018 295.775,-579.189 296.27,-579.684 296.765,-580.179 293.937,-583.008 298.816,-582.23 290.613,-585.341 290.613,-585.341"/>
</g>
<!-- Germany&#45;&gt;Unitedstates -->
<g id="edge37" class="edge"><title>Germany&#45;&gt;Unitedstates</title>
<path fill="none" stroke="black" stroke-width="5.2" d="M459.858,-396.045C392.617,-423.897 243.07,-485.842 165.188,-518.102"/>
<polygon fill="black" stroke="black" stroke-width="5.2" points="157.424,-521.318 162.576,-512.851 160.316,-517.847 164.011,-516.316 164.815,-518.256 165.619,-520.196 161.923,-521.727 167.054,-523.661 157.424,-521.318 157.424,-521.318"/>
</g>
<!-- Germany&#45;&gt;Germany -->
<g id="edge40" class="edge"><title>Germany&#45;&gt;Germany</title>
<path fill="none" stroke="black" stroke-width="8.2" d="M528.096,-388.602C538.214,-388.401 546.087,-386.156 546.087,-381.867 546.087,-378.851 542.195,-376.846 536.367,-375.851"/>
<polygon fill="black" stroke="black" stroke-width="8.2" points="528.096,-375.132 536.865,-366.635 532.393,-371.892 536.378,-372.239 536.066,-375.825 535.754,-379.412 531.769,-379.065 535.266,-385.016 528.096,-375.132 528.096,-375.132"/>
</g>
<!-- Czechrepublic -->
<g id="node7" class="node"><title>Czechrepublic</title>
<polygon fill="none" stroke="black" points="476.699,-243.212 381.699,-243.212 381.699,-207.212 476.699,-207.212 476.699,-243.212"/>
<text text-anchor="middle" x="429.199" y="-221.512" font-family="Times,serif" font-size="14.00">Czechrepublic</text>
</g>
<!-- Germany&#45;&gt;Czechrepublic -->
<g id="edge4" class="edge"><title>Germany&#45;&gt;Czechrepublic</title>
<path fill="none" stroke="black" stroke-width="1.7" d="M486.517,-363.59C474.99,-335.763 452.996,-282.663 439.858,-250.947"/>
<polygon fill="black" stroke="black" stroke-width="1.7" points="436.721,-243.373 443.109,-249.386 438.575,-246.934 440.106,-250.63 439.783,-250.764 439.459,-250.897 437.928,-247.202 436.457,-252.141 436.721,-243.373 436.721,-243.373"/>
</g>
<!-- Hungary -->
<g id="node8" class="node"><title>Hungary</title>
<polygon fill="none" stroke="black" points="450.031,-36 386.031,-36 386.031,-0 450.031,-0 450.031,-36"/>
<text text-anchor="middle" x="418.031" y="-14.3" font-family="Times,serif" font-size="14.00">Hungary</text>
</g>
<!-- Germany&#45;&gt;Hungary -->
<g id="edge5" class="edge"><title>Germany&#45;&gt;Hungary</title>
<path fill="none" stroke="black" stroke-width="1.7" d="M490.316,-363.823C477.873,-304.294 438.088,-113.958 423.478,-44.063"/>
<polygon fill="black" stroke="black" stroke-width="1.7" points="421.825,-36.1531 426.986,-43.2473 422.986,-39.9969 423.804,-43.9123 423.462,-43.9839 423.119,-44.0555 422.301,-40.1401 419.938,-44.7205 421.825,-36.1531 421.825,-36.1531"/>
</g>
<!-- Austria -->
<g id="node9" class="node"><title>Austria</title>
<polygon fill="none" stroke="black" points="300.544,-178.323 244.544,-178.323 244.544,-142.323 300.544,-142.323 300.544,-178.323"/>
<text text-anchor="middle" x="272.544" y="-156.623" font-family="Times,serif" font-size="14.00">Austria</text>
</g>
<!-- Germany&#45;&gt;Austria -->
<g id="edge29" class="edge"><title>Germany&#45;&gt;Austria</title>
<path fill="none" stroke="black" stroke-width="3.7" d="M481.102,-363.695C446.459,-323.721 351.838,-228.658 302.79,-184.061"/>
<polygon fill="black" stroke="black" stroke-width="3.7" points="296.755,-178.624 305.485,-180.886 300.631,-180.298 303.602,-182.975 302.699,-183.978 301.795,-184.981 298.823,-182.304 299.913,-187.071 296.755,-178.624 296.755,-178.624"/>
</g>
<!-- Estonia -->
<g id="node10" class="node"><title>Estonia</title>
<polygon fill="none" stroke="black" points="558.992,-104.862 501.992,-104.862 501.992,-68.8618 558.992,-68.8618 558.992,-104.862"/>
<text text-anchor="middle" x="530.492" y="-83.1618" font-family="Times,serif" font-size="14.00">Estonia</text>
</g>
<!-- Germany&#45;&gt;Estonia -->
<g id="edge7" class="edge"><title>Germany&#45;&gt;Estonia</title>
<path fill="none" stroke="black" stroke-width="1.7" d="M499.825,-363.84C510.222,-313.615 527.882,-171.944 531.307,-113.046"/>
<polygon fill="black" stroke="black" stroke-width="1.7" points="531.706,-104.978 534.906,-113.146 531.858,-108.991 531.66,-112.986 531.311,-112.968 530.961,-112.951 531.159,-108.956 527.715,-112.79 531.706,-104.978 531.706,-104.978"/>
</g>
<!-- Germany&#45;&gt;Poland -->
<g id="edge16" class="edge"><title>Germany&#45;&gt;Poland</title>
<path fill="none" stroke="black" stroke-width="2.4" d="M486.517,-400.144C474.99,-427.971 452.996,-481.071 439.858,-512.787"/>
<polygon fill="black" stroke="black" stroke-width="2.4" points="436.721,-520.362 436.457,-511.593 437.605,-516.398 439.136,-512.703 439.783,-512.971 440.429,-513.238 438.899,-516.934 443.109,-514.348 436.721,-520.362 436.721,-520.362"/>
</g>
<!-- Russia -->
<g id="node14" class="node"><title>Russia</title>
<polygon fill="none" stroke="black" points="604.697,-285.517 550.697,-285.517 550.697,-249.517 604.697,-249.517 604.697,-285.517"/>
<text text-anchor="middle" x="577.697" y="-263.817" font-family="Times,serif" font-size="14.00">Russia</text>
</g>
<!-- Germany&#45;&gt;Russia -->
<g id="edge15" class="edge"><title>Germany&#45;&gt;Russia</title>
<path fill="none" stroke="black" stroke-width="2.1" d="M507.336,-363.748C521.462,-344.427 543.923,-313.709 559.657,-292.189"/>
<polygon fill="black" stroke="black" stroke-width="2.1" points="564.511,-285.552 562.695,-294.134 562.594,-289.105 560.233,-292.334 559.789,-292.01 559.345,-291.685 561.706,-288.456 556.883,-289.885 564.511,-285.552 564.511,-285.552"/>
</g>
<!-- Switzerland -->
<g id="node17" class="node"><title>Switzerland</title>
<polygon fill="none" stroke="black" points="699.54,-464.569 618.54,-464.569 618.54,-428.569 699.54,-428.569 699.54,-464.569"/>
<text text-anchor="middle" x="659.04" y="-442.869" font-family="Times,serif" font-size="14.00">Switzerland</text>
</g>
<!-- Germany&#45;&gt;Switzerland -->
<g id="edge32" class="edge"><title>Germany&#45;&gt;Switzerland</title>
<path fill="none" stroke="black" stroke-width="4.2" d="M525.054,-399.95C549.207,-410.927 583.169,-424.463 610.863,-434.249"/>
<polygon fill="black" stroke="black" stroke-width="4.2" points="618.494,-436.905 609.386,-438.738 614.191,-437.101 610.413,-435.787 610.939,-434.276 611.465,-432.765 615.242,-434.079 612.492,-429.813 618.494,-436.905 618.494,-436.905"/>
</g>
<!-- Czechrepublic&#45;&gt;Austria -->
<g id="edge26" class="edge"><title>Czechrepublic&#45;&gt;Austria</title>
<path fill="none" stroke="black" stroke-width="3.2" d="M399.989,-207.131C374.101,-194.695 336.242,-178.962 308.503,-169.084"/>
<polygon fill="black" stroke="black" stroke-width="3.2" points="300.605,-166.338 309.344,-165.565 304.745,-166.613 308.523,-167.926 308.162,-168.965 307.8,-170.004 304.022,-168.691 306.98,-172.366 300.605,-166.338 300.605,-166.338"/>
</g>
<!-- Austria&#45;&gt;Unitedstates -->
<g id="edge30" class="edge"><title>Austria&#45;&gt;Unitedstates</title>
<path fill="none" stroke="black" stroke-width="3.8" d="M264.988,-178.565C239.447,-240.226 156.272,-441.029 126.559,-512.761"/>
<polygon fill="black" stroke="black" stroke-width="3.8" points="123.369,-520.464 122.481,-511.437 123.606,-516.233 125.137,-512.537 126.43,-513.073 127.724,-513.609 126.193,-517.304 130.38,-514.709 123.369,-520.464 123.369,-520.464"/>
</g>
<!-- Austria&#45;&gt;Germany -->
<g id="edge6" class="edge"><title>Austria&#45;&gt;Germany</title>
<path fill="none" stroke="black" stroke-width="1.7" d="M285.529,-178.495C320.172,-218.47 414.793,-313.532 463.841,-358.13"/>
<polygon fill="black" stroke="black" stroke-width="1.7" points="469.876,-363.567 461.523,-360.887 466.67,-361.149 463.698,-358.472 463.932,-358.212 464.167,-357.952 467.138,-360.629 466.342,-355.537 469.876,-363.567 469.876,-363.567"/>
</g>
<!-- Austria&#45;&gt;Czechrepublic -->
<g id="edge8" class="edge"><title>Austria&#45;&gt;Czechrepublic</title>
<path fill="none" stroke="black" stroke-width="1.7" d="M300.66,-177.877C321.032,-187.72 349.22,-199.742 374.014,-209.301"/>
<polygon fill="black" stroke="black" stroke-width="1.7" points="381.587,-212.184 372.83,-212.703 377.724,-211.088 373.986,-209.665 374.11,-209.338 374.235,-209.011 377.973,-210.434 375.391,-205.973 381.587,-212.184 381.587,-212.184"/>
</g>
<!-- Austria&#45;&gt;Austria -->
<g id="edge35" class="edge"><title>Austria&#45;&gt;Austria</title>
<path fill="none" stroke="black" stroke-width="4.6" d="M300.843,-167.072C310.636,-167.143 318.544,-164.894 318.544,-160.323 318.544,-157.11 314.634,-155.044 308.909,-154.125"/>
<polygon fill="black" stroke="black" stroke-width="4.6" points="300.843,-153.575 309.177,-148.956 304.956,-152.051 308.947,-152.324 308.825,-154.119 308.702,-155.915 304.711,-155.643 308.472,-159.282 300.843,-153.575 300.843,-153.575"/>
</g>
<!-- Estonia&#45;&gt;Germany -->
<g id="edge18" class="edge"><title>Estonia&#45;&gt;Germany</title>
<path fill="none" stroke="black" stroke-width="2.4" d="M524.755,-104.889C514.358,-155.114 496.697,-296.785 493.273,-355.682"/>
<polygon fill="black" stroke="black" stroke-width="2.4" points="492.873,-363.751 489.673,-355.583 492.372,-359.721 492.57,-355.726 493.269,-355.761 493.968,-355.795 493.77,-359.79 496.865,-355.939 492.873,-363.751 492.873,-363.751"/>
</g>
<!-- Sweden -->
<g id="node11" class="node"><title>Sweden</title>
<polygon fill="none" stroke="black" points="553.289,-608.967 494.289,-608.967 494.289,-572.967 553.289,-572.967 553.289,-608.967"/>
<text text-anchor="middle" x="523.789" y="-587.267" font-family="Times,serif" font-size="14.00">Sweden</text>
</g>
<!-- Sweden&#45;&gt;Finland -->
<g id="edge10" class="edge"><title>Sweden&#45;&gt;Finland</title>
<path fill="none" stroke="black" stroke-width="1.7" d="M545.554,-609.081C560.407,-621.442 580.213,-637.926 596.22,-651.247"/>
<polygon fill="black" stroke="black" stroke-width="1.7" points="602.373,-656.368 593.921,-654.018 599.075,-654.078 596,-651.52 596.224,-651.251 596.448,-650.981 599.522,-653.54 598.527,-648.483 602.373,-656.368 602.373,-656.368"/>
</g>
<!-- Sweden&#45;&gt;Germany -->
<g id="edge12" class="edge"><title>Sweden&#45;&gt;Germany</title>
<path fill="none" stroke="black" stroke-width="1.7" d="M521.205,-572.776C515.939,-535.702 503.946,-451.274 497.828,-408.201"/>
<polygon fill="black" stroke="black" stroke-width="1.7" points="496.686,-400.164 501.376,-407.578 497.596,-404.075 498.158,-408.036 497.812,-408.085 497.465,-408.134 496.902,-404.174 494.247,-408.591 496.686,-400.164 496.686,-400.164"/>
</g>
<!-- Sweden&#45;&gt;Sweden -->
<g id="edge23" class="edge"><title>Sweden&#45;&gt;Sweden</title>
<path fill="none" stroke="black" stroke-width="3.1" d="M553.477,-597.717C563.373,-597.717 571.289,-595.467 571.289,-590.967 571.289,-587.803 567.375,-585.751 561.612,-584.812"/>
<polygon fill="black" stroke="black" stroke-width="3.1" points="553.477,-584.217 561.718,-581.21 557.543,-583.461 561.532,-583.753 561.455,-584.8 561.379,-585.847 557.389,-585.556 561.193,-588.391 553.477,-584.217 553.477,-584.217"/>
</g>
<!-- Belgium&#45;&gt;Belgium -->
<g id="edge20" class="edge"><title>Belgium&#45;&gt;Belgium</title>
<path fill="none" stroke="black" stroke-width="2.6" d="M304.764,-717.368C314.723,-717.232 322.544,-714.984 322.544,-710.625 322.544,-707.559 318.677,-705.538 312.92,-704.561"/>
<polygon fill="black" stroke="black" stroke-width="2.6" points="304.764,-703.881 313.035,-700.958 308.817,-703.416 312.803,-703.748 312.736,-704.546 312.67,-705.343 308.684,-705.011 312.437,-708.133 304.764,-703.881 304.764,-703.881"/>
</g>
<!-- Russia&#45;&gt;Russia -->
<g id="edge28" class="edge"><title>Russia&#45;&gt;Russia</title>
<path fill="none" stroke="black" stroke-width="3.6" d="M604.937,-274.261C614.721,-274.406 622.697,-272.158 622.697,-267.517 622.697,-264.254 618.753,-262.174 613.011,-261.277"/>
<polygon fill="black" stroke="black" stroke-width="3.6" points="604.937,-260.774 613.174,-257.23 609.011,-259.725 613.003,-259.974 612.922,-261.272 612.841,-262.569 608.849,-262.32 612.67,-265.314 604.937,-260.774 604.937,-260.774"/>
</g>
<!-- Ukraine -->
<g id="node15" class="node"><title>Ukraine</title>
<polygon fill="none" stroke="black" points="728.494,-240.251 668.494,-240.251 668.494,-204.251 728.494,-204.251 728.494,-240.251"/>
<text text-anchor="middle" x="698.494" y="-218.551" font-family="Times,serif" font-size="14.00">Ukraine</text>
</g>
<!-- Russia&#45;&gt;Ukraine -->
<g id="edge17" class="edge"><title>Russia&#45;&gt;Ukraine</title>
<path fill="none" stroke="black" stroke-width="2.4" d="M604.806,-257.359C621.24,-251.201 642.455,-243.251 660.54,-236.473"/>
<polygon fill="black" stroke="black" stroke-width="2.4" points="668.076,-233.649 661.848,-239.828 664.576,-235.709 660.831,-237.112 660.585,-236.457 660.339,-235.801 664.085,-234.398 659.322,-233.086 668.076,-233.649 668.076,-233.649"/>
</g>
<!-- Spain -->
<g id="node16" class="node"><title>Spain</title>
<polygon fill="none" stroke="black" points="664.544,-599.867 610.544,-599.867 610.544,-563.867 664.544,-563.867 664.544,-599.867"/>
<text text-anchor="middle" x="637.544" y="-578.167" font-family="Times,serif" font-size="14.00">Spain</text>
</g>
<!-- Spain&#45;&gt;Spain -->
<g id="edge21" class="edge"><title>Spain&#45;&gt;Spain</title>
<path fill="none" stroke="black" stroke-width="2.6" d="M664.784,-588.61C674.568,-588.755 682.544,-586.508 682.544,-581.867 682.544,-578.604 678.6,-576.524 672.858,-575.627"/>
<polygon fill="black" stroke="black" stroke-width="2.6" points="664.784,-575.124 672.993,-572.029 668.827,-574.574 672.819,-574.823 672.769,-575.622 672.719,-576.42 668.727,-576.171 672.545,-579.215 664.784,-575.124 664.784,-575.124"/>
</g>
<!-- Switzerland&#45;&gt;Germany -->
<g id="edge22" class="edge"><title>Switzerland&#45;&gt;Germany</title>
<path fill="none" stroke="black" stroke-width="3.1" d="M628.074,-428.487C602.069,-416.668 564.694,-401.884 536.013,-392.005"/>
<polygon fill="black" stroke="black" stroke-width="3.1" points="528.171,-389.356 536.903,-388.506 532.297,-389.642 536.087,-390.922 535.751,-391.917 535.414,-392.911 531.625,-391.631 534.598,-395.327 528.171,-389.356 528.171,-389.356"/>
</g>
<!-- Switzerland&#45;&gt;Switzerland -->
<g id="edge24" class="edge"><title>Switzerland&#45;&gt;Switzerland</title>
<path fill="none" stroke="black" stroke-width="3.1" d="M699.775,-453.227C709.941,-452.761 717.54,-450.542 717.54,-446.569 717.54,-443.776 713.783,-441.85 708.019,-440.79"/>
<polygon fill="black" stroke="black" stroke-width="3.1" points="699.775,-439.912 708.111,-437.18 703.864,-439.292 707.841,-439.716 707.73,-440.76 707.619,-441.804 703.641,-441.38 707.348,-444.339 699.775,-439.912 699.775,-439.912"/>
</g>
<!-- Ireland -->
<g id="node18" class="node"><title>Ireland</title>
<polygon fill="none" stroke="black" points="73.0315,-626.879 18.0315,-626.879 18.0315,-590.879 73.0315,-590.879 73.0315,-626.879"/>
<text text-anchor="middle" x="45.5315" y="-605.179" font-family="Times,serif" font-size="14.00">Ireland</text>
</g>
<!-- Ireland&#45;&gt;Unitedstates -->
<g id="edge25" class="edge"><title>Ireland&#45;&gt;Unitedstates</title>
<path fill="none" stroke="black" stroke-width="3.2" d="M63.6502,-590.761C72.2005,-582.21 82.5248,-571.886 91.7296,-562.681"/>
<polygon fill="black" stroke="black" stroke-width="3.2" points="97.5868,-556.824 94.4755,-565.026 95.5362,-560.43 92.7077,-563.259 91.9299,-562.481 91.1521,-561.703 93.9805,-558.875 89.3843,-559.935 97.5868,-556.824 97.5868,-556.824"/>
</g>
<!-- Norway -->
<g id="node19" class="node"><title>Norway</title>
<polygon fill="none" stroke="black" points="446.172,-764.472 386.172,-764.472 386.172,-728.472 446.172,-728.472 446.172,-764.472"/>
<text text-anchor="middle" x="416.172" y="-742.772" font-family="Times,serif" font-size="14.00">Norway</text>
</g>
<!-- Norway&#45;&gt;Germany -->
<g id="edge27" class="edge"><title>Norway&#45;&gt;Germany</title>
<path fill="none" stroke="black" stroke-width="3.4" d="M420.035,-728.391C432.783,-668.741 473.54,-478.02 488.506,-407.983"/>
<polygon fill="black" stroke="black" stroke-width="3.4" points="490.2,-400.057 492.269,-408.68 490.538,-404.219 489.702,-408.131 488.528,-407.88 487.355,-407.63 488.191,-403.718 484.788,-407.081 490.2,-400.057 490.2,-400.057"/>
</g>
<!-- Italy -->
<g id="node20" class="node"><title>Italy</title>
<polygon fill="none" stroke="black" points="194.544,-176.867 140.544,-176.867 140.544,-140.867 194.544,-140.867 194.544,-176.867"/>
<text text-anchor="middle" x="167.544" y="-155.167" font-family="Times,serif" font-size="14.00">Italy</text>
</g>
<!-- Italy&#45;&gt;Italy -->
<g id="edge33" class="edge"><title>Italy&#45;&gt;Italy</title>
<path fill="none" stroke="black" stroke-width="4.4" d="M194.784,-165.61C204.568,-165.755 212.544,-163.508 212.544,-158.867 212.544,-155.604 208.6,-153.524 202.858,-152.627"/>
<polygon fill="black" stroke="black" stroke-width="4.4" points="194.784,-152.124 203.077,-147.681 198.883,-150.676 202.875,-150.925 202.769,-152.622 202.663,-154.318 198.671,-154.069 202.461,-157.562 194.784,-152.124 194.784,-152.124"/>
</g>
</g>
</svg>
