<?xml version="1.0" encoding="UTF-8" standalone="no"?>
<!DOCTYPE svg PUBLIC "-//W3C//DTD SVG 1.1//EN"
 "http://www.w3.org/Graphics/SVG/1.1/DTD/svg11.dtd">
<!-- Generated by graphviz version 2.38.0 (20140413.2041)
 -->
<!-- Title: transition Pages: 1 -->
<svg width="858pt" height="656pt"
 viewBox="0.00 0.00 858.18 655.81" xmlns="http://www.w3.org/2000/svg" xmlns:xlink="http://www.w3.org/1999/xlink">
<g id="graph0" class="graph" transform="scale(1 1) rotate(0) translate(4 651.808)">
<title>transition</title>
<polygon fill="white" stroke="none" points="-4,4 -4,-651.808 854.185,-651.808 854.185,4 -4,4"/>
<text text-anchor="middle" x="425.092" y="-632.608" font-family="Times,serif" font-size="14.00">Hiring network of Mathematics Ph.D.&#39;s between 1985 and 2005 (US removed, with threshold 3.50)</text>
<!-- Germany -->
<g id="node1" class="node"><title>Germany</title>
<polygon fill="none" stroke="black" points="349.97,-418.705 281.97,-418.705 281.97,-382.705 349.97,-382.705 349.97,-418.705"/>
<text text-anchor="middle" x="315.97" y="-397.005" font-family="Times,serif" font-size="14.00">Germany</text>
</g>
<!-- Germany&#45;&gt;Germany -->
<g id="edge52" class="edge"><title>Germany&#45;&gt;Germany</title>
<path fill="none" stroke="black" stroke-width="7.7" d="M349.978,-407.44C360.097,-407.239 367.97,-404.994 367.97,-400.705 367.97,-397.689 364.077,-395.684 358.249,-394.689"/>
<polygon fill="black" stroke="black" stroke-width="7.7" points="349.978,-393.97 358.699,-386.033 354.254,-390.979 358.238,-391.326 357.948,-394.663 357.658,-398 353.673,-397.654 357.197,-403.293 349.978,-393.97 349.978,-393.97"/>
</g>
<!-- Taiwan -->
<g id="node2" class="node"><title>Taiwan</title>
<polygon fill="none" stroke="black" points="245.325,-590.428 188.325,-590.428 188.325,-554.428 245.325,-554.428 245.325,-590.428"/>
<text text-anchor="middle" x="216.825" y="-568.728" font-family="Times,serif" font-size="14.00">Taiwan</text>
</g>
<!-- Germany&#45;&gt;Taiwan -->
<g id="edge1" class="edge"><title>Germany&#45;&gt;Taiwan</title>
<path fill="none" stroke="black" stroke-width="3.6" d="M305.547,-418.758C287.77,-449.548 251.551,-512.281 231.319,-547.324"/>
<polygon fill="black" stroke="black" stroke-width="3.6" points="227.257,-554.36 227.75,-545.406 228.131,-550.246 230.131,-546.781 231.257,-547.431 232.383,-548.081 230.383,-551.546 234.765,-549.456 227.257,-554.36 227.257,-554.36"/>
</g>
<!-- Unitedkingdom -->
<g id="node6" class="node"><title>Unitedkingdom</title>
<polygon fill="none" stroke="black" points="283.891,-274.808 181.891,-274.808 181.891,-238.808 283.891,-238.808 283.891,-274.808"/>
<text text-anchor="middle" x="232.891" y="-253.108" font-family="Times,serif" font-size="14.00">Unitedkingdom</text>
</g>
<!-- Germany&#45;&gt;Unitedkingdom -->
<g id="edge19" class="edge"><title>Germany&#45;&gt;Unitedkingdom</title>
<path fill="none" stroke="black" stroke-width="4.1" d="M310.6,-382.539C298.992,-357.042 272.628,-310.691 253.7,-281.921"/>
<polygon fill="black" stroke="black" stroke-width="4.1" points="249.062,-275.009 257.349,-279.082 252.578,-277.467 254.807,-280.788 253.519,-281.652 252.232,-282.515 250.003,-279.194 249.689,-284.222 249.062,-275.009 249.062,-275.009"/>
</g>
<!-- France -->
<g id="node9" class="node"><title>France</title>
<polygon fill="none" stroke="black" points="592.206,-274.808 538.206,-274.808 538.206,-238.808 592.206,-238.808 592.206,-274.808"/>
<text text-anchor="middle" x="565.206" y="-253.108" font-family="Times,serif" font-size="14.00">France</text>
</g>
<!-- Germany&#45;&gt;France -->
<g id="edge15" class="edge"><title>Germany&#45;&gt;France</title>
<path fill="none" stroke="black" stroke-width="3.9" d="M347.283,-382.626C394.166,-355.558 482.275,-304.689 530.865,-276.635"/>
<polygon fill="black" stroke="black" stroke-width="3.9" points="538.024,-272.502 533.29,-280.301 535.285,-275.757 531.821,-277.757 531.096,-276.502 530.371,-275.246 533.835,-273.246 528.902,-272.702 538.024,-272.502 538.024,-272.502"/>
</g>
<!-- Switzerland -->
<g id="node21" class="node"><title>Switzerland</title>
<polygon fill="none" stroke="black" points="522.628,-418.705 441.628,-418.705 441.628,-382.705 522.628,-382.705 522.628,-418.705"/>
<text text-anchor="middle" x="482.128" y="-397.005" font-family="Times,serif" font-size="14.00">Switzerland</text>
</g>
<!-- Germany&#45;&gt;Switzerland -->
<g id="edge33" class="edge"><title>Germany&#45;&gt;Switzerland</title>
<path fill="none" stroke="black" stroke-width="4.9" d="M349.995,-406.276C374.001,-407.593 406.521,-407.806 433.291,-406.917"/>
<polygon fill="black" stroke="black" stroke-width="4.9" points="441.398,-406.605 433.616,-412.421 437.476,-408.708 433.479,-408.861 433.404,-406.913 433.33,-404.964 437.327,-404.811 433.193,-401.404 441.398,-406.605 441.398,-406.605"/>
</g>
<!-- Belgium -->
<g id="node3" class="node"><title>Belgium</title>
<polygon fill="none" stroke="black" points="832.185,-199.426 768.185,-199.426 768.185,-163.426 832.185,-163.426 832.185,-199.426"/>
<text text-anchor="middle" x="800.185" y="-177.726" font-family="Times,serif" font-size="14.00">Belgium</text>
</g>
<!-- Belgium&#45;&gt;Belgium -->
<g id="edge42" class="edge"><title>Belgium&#45;&gt;Belgium</title>
<path fill="none" stroke="black" stroke-width="5.6" d="M832.405,-188.17C842.364,-188.033 850.185,-185.786 850.185,-181.426 850.185,-178.361 846.319,-176.34 840.561,-175.362"/>
<polygon fill="black" stroke="black" stroke-width="5.6" points="832.405,-174.683 840.901,-169.069 836.582,-172.723 840.569,-173.055 840.378,-175.347 840.187,-177.639 836.2,-177.307 839.854,-181.625 832.405,-174.683 832.405,-174.683"/>
</g>
<!-- Morocco -->
<g id="node4" class="node"><title>Morocco</title>
<polygon fill="none" stroke="black" points="698.542,-224.728 632.542,-224.728 632.542,-188.728 698.542,-188.728 698.542,-224.728"/>
<text text-anchor="middle" x="665.542" y="-203.028" font-family="Times,serif" font-size="14.00">Morocco</text>
</g>
<!-- Belgium&#45;&gt;Morocco -->
<g id="edge2" class="edge"><title>Belgium&#45;&gt;Morocco</title>
<path fill="none" stroke="black" stroke-width="3.6" d="M767.935,-187.487C749.609,-190.93 726.474,-195.278 706.833,-198.969"/>
<polygon fill="black" stroke="black" stroke-width="3.6" points="698.935,-200.453 706.049,-194.995 702.626,-198.437 706.557,-197.698 706.797,-198.976 707.038,-200.253 703.106,-200.992 707.546,-202.956 698.935,-200.453 698.935,-200.453"/>
</g>
<!-- Canada -->
<g id="node5" class="node"><title>Canada</title>
<polygon fill="none" stroke="black" points="57,-268.808 -2.13163e-14,-268.808 -2.13163e-14,-232.808 57,-232.808 57,-268.808"/>
<text text-anchor="middle" x="28.5" y="-247.108" font-family="Times,serif" font-size="14.00">Canada</text>
</g>
<!-- Canada&#45;&gt;Canada -->
<g id="edge47" class="edge"><title>Canada&#45;&gt;Canada</title>
<path fill="none" stroke="black" stroke-width="6.8" d="M57.107,-257.557C67.0059,-257.628 75,-255.379 75,-250.808 75,-247.595 71.0478,-245.529 65.2603,-244.61"/>
<polygon fill="black" stroke="black" stroke-width="6.8" points="57.107,-244.06 65.6039,-236.966 61.2932,-241.436 65.2841,-241.705 65.0889,-244.598 64.8936,-247.492 60.9027,-247.223 64.5738,-252.231 57.107,-244.06 57.107,-244.06"/>
</g>
<!-- Canada&#45;&gt;Unitedkingdom -->
<g id="edge3" class="edge"><title>Canada&#45;&gt;Unitedkingdom</title>
<path fill="none" stroke="black" stroke-width="3.6" d="M57.2077,-256.526C87.2516,-259.345 135.282,-261.193 173.535,-261.256"/>
<polygon fill="black" stroke="black" stroke-width="3.6" points="181.539,-261.242 173.546,-265.306 177.541,-262.549 173.541,-262.556 173.539,-261.256 173.537,-259.956 177.537,-259.949 173.532,-257.206 181.539,-261.242 181.539,-261.242"/>
</g>
<!-- Unitedkingdom&#45;&gt;Germany -->
<g id="edge27" class="edge"><title>Unitedkingdom&#45;&gt;Germany</title>
<path fill="none" stroke="black" stroke-width="4.4" d="M238.26,-274.974C249.869,-300.471 276.232,-346.821 295.16,-375.592"/>
<polygon fill="black" stroke="black" stroke-width="4.4" points="299.799,-382.504 291.231,-378.619 296.158,-380.13 293.93,-376.808 295.341,-375.861 296.753,-374.914 298.982,-378.235 299.451,-373.103 299.799,-382.504 299.799,-382.504"/>
</g>
<!-- Unitedkingdom&#45;&gt;Canada -->
<g id="edge20" class="edge"><title>Unitedkingdom&#45;&gt;Canada</title>
<path fill="none" stroke="black" stroke-width="4.1" d="M181.753,-249.361C145.642,-247.051 98.0859,-245.857 65.5851,-246.559"/>
<polygon fill="black" stroke="black" stroke-width="4.1" points="57.2517,-246.793 65.119,-241.957 61.2066,-245.131 65.205,-245.019 65.2486,-246.568 65.2921,-248.118 61.2937,-248.23 65.3781,-251.179 57.2517,-246.793 57.2517,-246.793"/>
</g>
<!-- Unitedkingdom&#45;&gt;Unitedkingdom -->
<g id="edge50" class="edge"><title>Unitedkingdom&#45;&gt;Unitedkingdom</title>
<path fill="none" stroke="black" stroke-width="7.2" d="M284.045,-263.3C294.444,-262.593 301.891,-260.429 301.891,-256.808 301.891,-254.205 298.044,-252.355 292.019,-251.258"/>
<polygon fill="black" stroke="black" stroke-width="7.2" points="284.045,-250.315 292.941,-243.211 288.382,-247.706 292.354,-248.176 291.99,-251.255 291.626,-254.333 287.654,-253.864 291.039,-259.299 284.045,-250.315 284.045,-250.315"/>
</g>
<!-- Brazil -->
<g id="node16" class="node"><title>Brazil</title>
<polygon fill="none" stroke="black" points="509.128,-130.911 455.128,-130.911 455.128,-94.9111 509.128,-94.9111 509.128,-130.911"/>
<text text-anchor="middle" x="482.128" y="-109.211" font-family="Times,serif" font-size="14.00">Brazil</text>
</g>
<!-- Unitedkingdom&#45;&gt;Brazil -->
<g id="edge29" class="edge"><title>Unitedkingdom&#45;&gt;Brazil</title>
<path fill="none" stroke="black" stroke-width="4.6" d="M264.204,-238.729C311.087,-211.661 399.196,-160.792 447.786,-132.738"/>
<polygon fill="black" stroke="black" stroke-width="4.6" points="454.945,-128.605 450.605,-137.086 452.381,-132.164 448.917,-134.164 448.017,-132.605 447.117,-131.046 450.581,-129.046 445.43,-128.123 454.945,-128.605 454.945,-128.605"/>
</g>
<!-- China -->
<g id="node17" class="node"><title>China</title>
<polygon fill="none" stroke="black" points="142.653,-513.616 88.6531,-513.616 88.6531,-477.616 142.653,-477.616 142.653,-513.616"/>
<text text-anchor="middle" x="115.653" y="-491.916" font-family="Times,serif" font-size="14.00">China</text>
</g>
<!-- Unitedkingdom&#45;&gt;China -->
<g id="edge14" class="edge"><title>Unitedkingdom&#45;&gt;China</title>
<path fill="none" stroke="black" stroke-width="3.9" d="M223.886,-275.15C203.121,-317.449 151.844,-421.898 128.094,-470.273"/>
<polygon fill="black" stroke="black" stroke-width="3.9" points="124.528,-477.538 124.115,-468.423 124.989,-473.308 126.752,-469.718 128.054,-470.357 129.355,-470.996 127.592,-474.586 131.992,-472.29 124.528,-477.538 124.528,-477.538"/>
</g>
<!-- Australia -->
<g id="node19" class="node"><title>Australia</title>
<polygon fill="none" stroke="black" points="83.1685,-399.808 17.1685,-399.808 17.1685,-363.808 83.1685,-363.808 83.1685,-399.808"/>
<text text-anchor="middle" x="50.1685" y="-378.108" font-family="Times,serif" font-size="14.00">Australia</text>
</g>
<!-- Unitedkingdom&#45;&gt;Australia -->
<g id="edge18" class="edge"><title>Unitedkingdom&#45;&gt;Australia</title>
<path fill="none" stroke="black" stroke-width="4.1" d="M206.321,-274.984C173.844,-297.202 118.86,-334.816 83.5558,-358.967"/>
<polygon fill="black" stroke="black" stroke-width="4.1" points="76.7699,-363.61 80.7684,-355.286 79.1962,-360.072 82.4976,-357.813 83.3728,-359.093 84.2479,-360.372 80.9465,-362.63 85.9771,-362.9 76.7699,-363.61 76.7699,-363.61"/>
</g>
<!-- Russia -->
<g id="node7" class="node"><title>Russia</title>
<polygon fill="none" stroke="black" points="79.2378,-144.177 25.2378,-144.177 25.2378,-108.177 79.2378,-108.177 79.2378,-144.177"/>
<text text-anchor="middle" x="52.2378" y="-122.477" font-family="Times,serif" font-size="14.00">Russia</text>
</g>
<!-- Russia&#45;&gt;Unitedkingdom -->
<g id="edge4" class="edge"><title>Russia&#45;&gt;Unitedkingdom</title>
<path fill="none" stroke="black" stroke-width="3.6" d="M77.3569,-144.34C109.714,-167.738 165.976,-208.421 201.228,-233.912"/>
<polygon fill="black" stroke="black" stroke-width="3.6" points="207.985,-238.798 199.129,-237.393 203.982,-237.508 200.741,-235.164 201.502,-234.111 202.264,-233.057 205.506,-235.401 203.876,-230.829 207.985,-238.798 207.985,-238.798"/>
</g>
<!-- Russia&#45;&gt;Russia -->
<g id="edge40" class="edge"><title>Russia&#45;&gt;Russia</title>
<path fill="none" stroke="black" stroke-width="5.3" d="M79.4786,-132.92C89.2618,-133.065 97.2378,-130.817 97.2378,-126.177 97.2378,-122.914 93.2946,-120.834 87.5525,-119.937"/>
<polygon fill="black" stroke="black" stroke-width="5.3" points="79.4786,-119.433 87.8343,-113.98 83.6047,-117.536 87.597,-117.785 87.4631,-119.931 87.3293,-122.077 83.337,-121.828 87.0919,-125.882 79.4786,-119.433 79.4786,-119.433"/>
</g>
<!-- Netherlands -->
<g id="node8" class="node"><title>Netherlands</title>
<polygon fill="none" stroke="black" points="356.97,-130.911 274.97,-130.911 274.97,-94.9111 356.97,-94.9111 356.97,-130.911"/>
<text text-anchor="middle" x="315.97" y="-109.211" font-family="Times,serif" font-size="14.00">Netherlands</text>
</g>
<!-- Netherlands&#45;&gt;Germany -->
<g id="edge11" class="edge"><title>Netherlands&#45;&gt;Germany</title>
<path fill="none" stroke="black" stroke-width="3.7" d="M315.97,-130.914C315.97,-179.957 315.97,-316.118 315.97,-374.056"/>
<polygon fill="black" stroke="black" stroke-width="3.7" points="315.97,-382.338 311.807,-374.338 314.62,-378.338 314.62,-374.338 315.97,-374.338 317.32,-374.338 317.32,-378.338 320.132,-374.338 315.97,-382.338 315.97,-382.338"/>
</g>
<!-- Netherlands&#45;&gt;Unitedkingdom -->
<g id="edge10" class="edge"><title>Netherlands&#45;&gt;Unitedkingdom</title>
<path fill="none" stroke="black" stroke-width="3.7" d="M305.448,-131.136C290.778,-156.544 264.118,-202.721 247.52,-231.469"/>
<polygon fill="black" stroke="black" stroke-width="3.7" points="243.327,-238.731 243.723,-229.722 244.158,-234.592 246.158,-231.128 247.327,-231.803 248.497,-232.478 246.497,-235.942 250.932,-233.884 243.327,-238.731 243.327,-238.731"/>
</g>
<!-- Netherlands&#45;&gt;Netherlands -->
<g id="edge48" class="edge"><title>Netherlands&#45;&gt;Netherlands</title>
<path fill="none" stroke="black" stroke-width="7.1" d="M357.053,-119.568C367.306,-119.103 374.97,-116.884 374.97,-112.911 374.97,-110.118 371.181,-108.191 365.367,-107.132"/>
<polygon fill="black" stroke="black" stroke-width="7.1" points="357.053,-106.254 365.848,-99.151 361.351,-103.641 365.329,-104.061 365.009,-107.094 364.688,-110.127 360.71,-109.707 364.169,-115.038 357.053,-106.254 357.053,-106.254"/>
</g>
<!-- Netherlands&#45;&gt;France -->
<g id="edge5" class="edge"><title>Netherlands&#45;&gt;France</title>
<path fill="none" stroke="black" stroke-width="3.6" d="M347.283,-130.99C394.166,-158.058 482.275,-208.927 530.865,-236.981"/>
<polygon fill="black" stroke="black" stroke-width="3.6" points="538.024,-241.114 529.071,-240.622 533.91,-240.24 530.446,-238.24 531.096,-237.114 531.746,-235.989 535.21,-237.989 533.121,-233.607 538.024,-241.114 538.024,-241.114"/>
</g>
<!-- France&#45;&gt;Morocco -->
<g id="edge16" class="edge"><title>France&#45;&gt;Morocco</title>
<path fill="none" stroke="black" stroke-width="4" d="M592.359,-243.256C602.355,-238.266 613.909,-232.499 624.84,-227.043"/>
<polygon fill="black" stroke="black" stroke-width="4" points="632.282,-223.329 627.133,-230.928 629.373,-226.458 625.794,-228.244 625.124,-226.902 624.454,-225.56 628.033,-223.773 623.114,-222.876 632.282,-223.329 632.282,-223.329"/>
</g>
<!-- France&#45;&gt;France -->
<g id="edge51" class="edge"><title>France&#45;&gt;France</title>
<path fill="none" stroke="black" stroke-width="7.5" d="M592.447,-263.551C602.23,-263.696 610.206,-261.449 610.206,-256.808 610.206,-253.545 606.263,-251.465 600.521,-250.568"/>
<polygon fill="black" stroke="black" stroke-width="7.5" points="592.447,-250.065 600.957,-242.141 596.642,-247.07 600.634,-247.319 600.432,-250.563 600.229,-253.806 596.237,-253.557 599.906,-258.984 592.447,-250.065 592.447,-250.065"/>
</g>
<!-- Spain -->
<g id="node12" class="node"><title>Spain</title>
<polygon fill="none" stroke="black" points="737.911,-408.113 683.911,-408.113 683.911,-372.113 737.911,-372.113 737.911,-408.113"/>
<text text-anchor="middle" x="710.911" y="-386.413" font-family="Times,serif" font-size="14.00">Spain</text>
</g>
<!-- France&#45;&gt;Spain -->
<g id="edge7" class="edge"><title>France&#45;&gt;Spain</title>
<path fill="none" stroke="black" stroke-width="3.6" d="M585.16,-275.064C611.101,-298.797 656.454,-340.29 685.02,-366.425"/>
<polygon fill="black" stroke="black" stroke-width="3.6" points="691.198,-372.077 682.561,-369.665 687.369,-370.336 684.418,-367.636 685.295,-366.677 686.173,-365.718 689.124,-368.418 688.029,-363.689 691.198,-372.077 691.198,-372.077"/>
</g>
<!-- France&#45;&gt;Brazil -->
<g id="edge13" class="edge"><title>France&#45;&gt;Brazil</title>
<path fill="none" stroke="black" stroke-width="3.8" d="M554.684,-238.583C540.015,-213.175 513.354,-166.998 496.757,-138.25"/>
<polygon fill="black" stroke="black" stroke-width="3.8" points="492.564,-130.988 500.266,-135.778 495.777,-133.752 497.777,-137.216 496.564,-137.916 495.352,-138.616 493.352,-135.152 492.862,-140.054 492.564,-130.988 492.564,-130.988"/>
</g>
<!-- Sweden -->
<g id="node10" class="node"><title>Sweden</title>
<polygon fill="none" stroke="black" points="610.049,-472.808 551.049,-472.808 551.049,-436.808 610.049,-436.808 610.049,-472.808"/>
<text text-anchor="middle" x="580.549" y="-451.108" font-family="Times,serif" font-size="14.00">Sweden</text>
</g>
<!-- Sweden&#45;&gt;Sweden -->
<g id="edge44" class="edge"><title>Sweden&#45;&gt;Sweden</title>
<path fill="none" stroke="black" stroke-width="5.7" d="M610.236,-461.558C620.132,-461.558 628.049,-459.308 628.049,-454.808 628.049,-451.644 624.135,-449.592 618.371,-448.653"/>
<polygon fill="black" stroke="black" stroke-width="5.7" points="610.236,-448.058 618.683,-442.246 614.397,-446.006 618.386,-446.298 618.215,-448.642 618.043,-450.985 614.054,-450.693 617.747,-455.037 610.236,-448.058 610.236,-448.058"/>
</g>
<!-- Singapore -->
<g id="node11" class="node"><title>Singapore</title>
<polygon fill="none" stroke="black" points="753.049,-472.808 682.049,-472.808 682.049,-436.808 753.049,-436.808 753.049,-472.808"/>
<text text-anchor="middle" x="717.549" y="-451.108" font-family="Times,serif" font-size="14.00">Singapore</text>
</g>
<!-- Sweden&#45;&gt;Singapore -->
<g id="edge6" class="edge"><title>Sweden&#45;&gt;Singapore</title>
<path fill="none" stroke="black" stroke-width="3.6" d="M610.276,-454.808C628.756,-454.808 652.85,-454.808 673.521,-454.808"/>
<polygon fill="black" stroke="black" stroke-width="3.6" points="681.551,-454.808 673.551,-458.858 677.551,-456.108 673.551,-456.108 673.551,-454.808 673.551,-453.508 677.551,-453.508 673.551,-450.758 681.551,-454.808 681.551,-454.808"/>
</g>
<!-- Spain&#45;&gt;Spain -->
<g id="edge49" class="edge"><title>Spain&#45;&gt;Spain</title>
<path fill="none" stroke="black" stroke-width="7.2" d="M738.151,-396.856C747.934,-397.001 755.911,-394.753 755.911,-390.113 755.911,-386.85 751.967,-384.77 746.225,-383.873"/>
<polygon fill="black" stroke="black" stroke-width="7.2" points="738.151,-383.369 746.64,-375.783 742.337,-380.524 746.329,-380.773 746.136,-383.867 745.943,-386.961 741.951,-386.712 745.632,-391.951 738.151,-383.369 738.151,-383.369"/>
</g>
<!-- Serbia -->
<g id="node13" class="node"><title>Serbia</title>
<polygon fill="none" stroke="black" points="142.653,-36 88.6531,-36 88.6531,-0 142.653,-0 142.653,-36"/>
<text text-anchor="middle" x="115.653" y="-14.3" font-family="Times,serif" font-size="14.00">Serbia</text>
</g>
<!-- Serbia&#45;&gt;Unitedkingdom -->
<g id="edge8" class="edge"><title>Serbia&#45;&gt;Unitedkingdom</title>
<path fill="none" stroke="black" stroke-width="3.6" d="M124.658,-36.3423C145.423,-78.6406 196.7,-183.09 220.45,-231.466"/>
<polygon fill="black" stroke="black" stroke-width="3.6" points="224.016,-238.73 216.855,-233.334 221.086,-235.712 219.323,-232.122 220.49,-231.549 221.657,-230.976 223.42,-234.566 224.126,-229.764 224.016,-238.73 224.016,-238.73"/>
</g>
<!-- Serbia&#45;&gt;Serbia -->
<g id="edge23" class="edge"><title>Serbia&#45;&gt;Serbia</title>
<path fill="none" stroke="black" stroke-width="4.2" d="M142.894,-24.7434C152.677,-24.8884 160.653,-22.6406 160.653,-18 160.653,-14.7371 156.71,-12.6571 150.968,-11.7601"/>
<polygon fill="black" stroke="black" stroke-width="4.2" points="142.894,-11.2566 151.172,-7.03878 146.986,-9.90871 150.978,-10.1577 150.878,-11.7546 150.779,-13.3515 146.786,-13.1025 150.584,-16.4705 142.894,-11.2566 142.894,-11.2566"/>
</g>
<!-- Newzealand -->
<g id="node14" class="node"><title>Newzealand</title>
<polygon fill="none" stroke="black" points="463.549,-301.808 380.549,-301.808 380.549,-265.808 463.549,-265.808 463.549,-301.808"/>
<text text-anchor="middle" x="422.049" y="-280.108" font-family="Times,serif" font-size="14.00">Newzealand</text>
</g>
<!-- Newzealand&#45;&gt;Newzealand -->
<g id="edge9" class="edge"><title>Newzealand&#45;&gt;Newzealand</title>
<path fill="none" stroke="black" stroke-width="3.7" d="M463.754,-290.452C473.956,-289.96 481.549,-287.745 481.549,-283.808 481.549,-281.039 477.795,-279.122 472.02,-278.057"/>
<polygon fill="black" stroke="black" stroke-width="3.7" points="463.754,-277.163 472.155,-273.885 467.876,-276.251 471.853,-276.681 471.707,-278.024 471.562,-279.366 467.585,-278.936 471.26,-282.162 463.754,-277.163 463.754,-277.163"/>
</g>
<!-- Czechrepublic -->
<g id="node15" class="node"><title>Czechrepublic</title>
<polygon fill="none" stroke="black" points="513.549,-491.808 418.549,-491.808 418.549,-455.808 513.549,-455.808 513.549,-491.808"/>
<text text-anchor="middle" x="466.049" y="-470.108" font-family="Times,serif" font-size="14.00">Czechrepublic</text>
</g>
<!-- Czechrepublic&#45;&gt;Czechrepublic -->
<g id="edge12" class="edge"><title>Czechrepublic&#45;&gt;Czechrepublic</title>
<path fill="none" stroke="black" stroke-width="3.8" d="M513.739,-480.359C524.062,-479.718 531.549,-477.535 531.549,-473.808 531.549,-471.188 527.847,-469.33 522.061,-468.236"/>
<polygon fill="black" stroke="black" stroke-width="3.8" points="513.739,-467.257 522.183,-463.946 517.875,-466.334 521.848,-466.801 521.684,-468.192 521.521,-469.582 517.548,-469.115 521.185,-472.437 513.739,-467.257 513.739,-467.257"/>
</g>
<!-- Brazil&#45;&gt;Brazil -->
<g id="edge46" class="edge"><title>Brazil&#45;&gt;Brazil</title>
<path fill="none" stroke="black" stroke-width="5.8" d="M509.368,-119.655C519.151,-119.8 527.128,-117.552 527.128,-112.911 527.128,-109.648 523.184,-107.568 517.442,-106.671"/>
<polygon fill="black" stroke="black" stroke-width="5.8" points="509.368,-106.168 517.759,-100.153 513.51,-104.021 517.502,-104.27 517.353,-106.666 517.203,-109.061 513.211,-108.812 516.947,-113.178 509.368,-106.168 509.368,-106.168"/>
</g>
<!-- China&#45;&gt;China -->
<g id="edge28" class="edge"><title>China&#45;&gt;China</title>
<path fill="none" stroke="black" stroke-width="4.4" d="M142.894,-502.359C152.677,-502.504 160.653,-500.257 160.653,-495.616 160.653,-492.353 156.71,-490.273 150.968,-489.376"/>
<polygon fill="black" stroke="black" stroke-width="4.4" points="142.894,-488.872 151.186,-484.43 146.992,-487.425 150.984,-487.674 150.878,-489.371 150.772,-491.067 146.78,-490.818 150.57,-494.311 142.894,-488.872 142.894,-488.872"/>
</g>
<!-- Southafrica -->
<g id="node18" class="node"><title>Southafrica</title>
<polygon fill="none" stroke="black" points="629.549,-396.808 550.549,-396.808 550.549,-360.808 629.549,-360.808 629.549,-396.808"/>
<text text-anchor="middle" x="590.049" y="-375.108" font-family="Times,serif" font-size="14.00">Southafrica</text>
</g>
<!-- Southafrica&#45;&gt;Southafrica -->
<g id="edge17" class="edge"><title>Southafrica&#45;&gt;Southafrica</title>
<path fill="none" stroke="black" stroke-width="4.1" d="M629.554,-385.488C639.813,-385.078 647.549,-382.851 647.549,-378.808 647.549,-375.965 643.724,-374.02 637.888,-372.973"/>
<polygon fill="black" stroke="black" stroke-width="4.1" points="629.554,-372.128 637.979,-368.347 633.69,-370.99 637.67,-371.394 637.513,-372.936 637.357,-374.478 633.377,-374.074 637.048,-377.525 629.554,-372.128 629.554,-372.128"/>
</g>
<!-- Australia&#45;&gt;Australia -->
<g id="edge41" class="edge"><title>Australia&#45;&gt;Australia</title>
<path fill="none" stroke="black" stroke-width="5.5" d="M83.5229,-388.543C93.4467,-388.342 101.168,-386.097 101.168,-381.808 101.168,-378.792 97.3509,-376.787 91.6346,-375.792"/>
<polygon fill="black" stroke="black" stroke-width="5.5" points="83.5229,-375.072 92.0384,-369.616 87.7061,-373.185 91.6905,-373.538 91.4916,-375.779 91.2928,-378.021 87.3085,-377.667 90.9449,-381.943 83.5229,-375.072 83.5229,-375.072"/>
</g>
<!-- Portugal -->
<g id="node20" class="node"><title>Portugal</title>
<polygon fill="none" stroke="black" points="385.049,-491.808 323.049,-491.808 323.049,-455.808 385.049,-455.808 385.049,-491.808"/>
<text text-anchor="middle" x="354.049" y="-470.108" font-family="Times,serif" font-size="14.00">Portugal</text>
</g>
<!-- Portugal&#45;&gt;Portugal -->
<g id="edge21" class="edge"><title>Portugal&#45;&gt;Portugal</title>
<path fill="none" stroke="black" stroke-width="4.2" d="M385.151,-480.556C395.135,-480.487 403.049,-478.238 403.049,-473.808 403.049,-470.693 399.136,-468.657 393.343,-467.698"/>
<polygon fill="black" stroke="black" stroke-width="4.2" points="385.151,-467.06 393.493,-462.97 389.263,-465.775 393.251,-466.086 393.126,-467.681 393.002,-469.276 389.014,-468.965 392.759,-472.392 385.151,-467.06 385.151,-467.06"/>
</g>
<!-- Switzerland&#45;&gt;Germany -->
<g id="edge37" class="edge"><title>Switzerland&#45;&gt;Germany</title>
<path fill="none" stroke="black" stroke-width="5" d="M441.481,-394.808C416.166,-393.692 383.667,-393.671 358.082,-394.745"/>
<polygon fill="black" stroke="black" stroke-width="5" points="350.036,-395.132 357.756,-389.129 353.935,-392.942 357.931,-392.75 358.027,-394.747 358.123,-396.745 354.128,-396.937 358.297,-400.366 350.036,-395.132 350.036,-395.132"/>
</g>
<!-- Switzerland&#45;&gt;France -->
<g id="edge22" class="edge"><title>Switzerland&#45;&gt;France</title>
<path fill="none" stroke="black" stroke-width="4.2" d="M492.65,-382.48C507.319,-357.072 533.98,-310.894 550.577,-282.147"/>
<polygon fill="black" stroke="black" stroke-width="4.2" points="554.77,-274.885 554.862,-284.175 554.155,-279.149 552.155,-282.613 550.77,-281.813 549.384,-281.013 551.384,-277.549 546.678,-279.45 554.77,-274.885 554.77,-274.885"/>
</g>
<!-- Switzerland&#45;&gt;Switzerland -->
<g id="edge45" class="edge"><title>Switzerland&#45;&gt;Switzerland</title>
<path fill="none" stroke="black" stroke-width="5.7" d="M522.862,-407.362C533.029,-406.897 540.628,-404.677 540.628,-400.705 540.628,-397.912 536.871,-395.985 531.106,-394.926"/>
<polygon fill="black" stroke="black" stroke-width="5.7" points="522.862,-394.047 531.497,-388.519 527.089,-392.135 531.066,-392.558 530.817,-394.895 530.568,-397.232 526.591,-396.808 530.138,-401.271 522.862,-394.047 522.862,-394.047"/>
</g>
<!-- Slovenia -->
<g id="node22" class="node"><title>Slovenia</title>
<polygon fill="none" stroke="black" points="615.049,-149.808 551.049,-149.808 551.049,-113.808 615.049,-113.808 615.049,-149.808"/>
<text text-anchor="middle" x="583.049" y="-128.108" font-family="Times,serif" font-size="14.00">Slovenia</text>
</g>
<!-- Slovenia&#45;&gt;Slovenia -->
<g id="edge24" class="edge"><title>Slovenia&#45;&gt;Slovenia</title>
<path fill="none" stroke="black" stroke-width="4.3" d="M615.269,-138.551C625.228,-138.415 633.049,-136.167 633.049,-131.808 633.049,-128.743 629.182,-126.722 623.425,-125.744"/>
<polygon fill="black" stroke="black" stroke-width="4.3" points="615.269,-125.065 623.643,-120.908 619.392,-123.752 623.378,-124.085 623.241,-125.729 623.104,-127.373 619.118,-127.041 622.839,-130.55 615.269,-125.065 615.269,-125.065"/>
</g>
<!-- Mexico -->
<g id="node23" class="node"><title>Mexico</title>
<polygon fill="none" stroke="black" points="705.549,-301.808 646.549,-301.808 646.549,-265.808 705.549,-265.808 705.549,-301.808"/>
<text text-anchor="middle" x="676.049" y="-280.108" font-family="Times,serif" font-size="14.00">Mexico</text>
</g>
<!-- Mexico&#45;&gt;Mexico -->
<g id="edge25" class="edge"><title>Mexico&#45;&gt;Mexico</title>
<path fill="none" stroke="black" stroke-width="4.4" d="M705.736,-290.558C715.632,-290.558 723.549,-288.308 723.549,-283.808 723.549,-280.644 719.635,-278.592 713.871,-277.653"/>
<polygon fill="black" stroke="black" stroke-width="4.4" points="705.736,-277.058 714.076,-272.705 709.849,-275.654 713.839,-275.946 713.715,-277.642 713.591,-279.337 709.601,-279.045 713.354,-282.578 705.736,-277.058 705.736,-277.058"/>
</g>
<!-- Norway -->
<g id="node24" class="node"><title>Norway</title>
<polygon fill="none" stroke="black" points="592.049,-567.808 532.049,-567.808 532.049,-531.808 592.049,-531.808 592.049,-567.808"/>
<text text-anchor="middle" x="562.049" y="-546.108" font-family="Times,serif" font-size="14.00">Norway</text>
</g>
<!-- Norway&#45;&gt;Norway -->
<g id="edge26" class="edge"><title>Norway&#45;&gt;Norway</title>
<path fill="none" stroke="black" stroke-width="4.4" d="M592.049,-556.558C602.049,-556.558 610.049,-554.308 610.049,-549.808 610.049,-546.644 606.094,-544.592 600.269,-543.653"/>
<polygon fill="black" stroke="black" stroke-width="4.4" points="592.049,-543.058 600.385,-538.698 596.161,-541.651 600.15,-541.94 600.028,-543.635 599.905,-545.331 595.915,-545.042 599.67,-548.573 592.049,-543.058 592.049,-543.058"/>
</g>
<!-- Denmark -->
<g id="node25" class="node"><title>Denmark</title>
<polygon fill="none" stroke="black" points="695.049,-548.808 627.049,-548.808 627.049,-512.808 695.049,-512.808 695.049,-548.808"/>
<text text-anchor="middle" x="661.049" y="-527.108" font-family="Times,serif" font-size="14.00">Denmark</text>
</g>
<!-- Denmark&#45;&gt;Denmark -->
<g id="edge30" class="edge"><title>Denmark&#45;&gt;Denmark</title>
<path fill="none" stroke="black" stroke-width="4.7" d="M695.057,-537.543C705.175,-537.342 713.049,-535.097 713.049,-530.808 713.049,-527.792 709.156,-525.787 703.328,-524.792"/>
<polygon fill="black" stroke="black" stroke-width="4.7" points="695.057,-524.073 703.485,-519.499 699.202,-522.576 703.187,-522.923 703.027,-524.766 702.867,-526.609 698.882,-526.263 702.569,-530.034 695.057,-524.073 695.057,-524.073"/>
</g>
<!-- Ukraine -->
<g id="node26" class="node"><title>Ukraine</title>
<polygon fill="none" stroke="black" points="497.049,-567.808 437.049,-567.808 437.049,-531.808 497.049,-531.808 497.049,-567.808"/>
<text text-anchor="middle" x="467.049" y="-546.108" font-family="Times,serif" font-size="14.00">Ukraine</text>
</g>
<!-- Ukraine&#45;&gt;Ukraine -->
<g id="edge31" class="edge"><title>Ukraine&#45;&gt;Ukraine</title>
<path fill="none" stroke="black" stroke-width="4.7" d="M497.049,-556.558C507.049,-556.558 515.049,-554.308 515.049,-549.808 515.049,-546.644 511.094,-544.592 505.269,-543.653"/>
<polygon fill="black" stroke="black" stroke-width="4.7" points="497.049,-543.058 505.409,-538.362 501.172,-541.502 505.161,-541.79 505.028,-543.635 504.894,-545.481 500.905,-545.192 504.646,-548.909 497.049,-543.058 497.049,-543.058"/>
</g>
<!-- Argentina -->
<g id="node27" class="node"><title>Argentina</title>
<polygon fill="none" stroke="black" points="717.549,-111.808 646.549,-111.808 646.549,-75.808 717.549,-75.808 717.549,-111.808"/>
<text text-anchor="middle" x="682.049" y="-90.108" font-family="Times,serif" font-size="14.00">Argentina</text>
</g>
<!-- Argentina&#45;&gt;Argentina -->
<g id="edge32" class="edge"><title>Argentina&#45;&gt;Argentina</title>
<path fill="none" stroke="black" stroke-width="4.7" d="M717.802,-100.525C727.842,-100.23 735.549,-97.9915 735.549,-93.808 735.549,-90.8664 731.738,-88.8862 725.986,-87.8675"/>
<polygon fill="black" stroke="black" stroke-width="4.7" points="717.802,-87.0913 726.265,-82.5828 721.959,-85.6273 725.941,-86.005 725.766,-87.8467 725.591,-89.6885 721.609,-89.3108 725.267,-93.1106 717.802,-87.0913 717.802,-87.0913"/>
</g>
<!-- Finland -->
<g id="node28" class="node"><title>Finland</title>
<polygon fill="none" stroke="black" points="400.049,-567.808 342.049,-567.808 342.049,-531.808 400.049,-531.808 400.049,-567.808"/>
<text text-anchor="middle" x="371.049" y="-546.108" font-family="Times,serif" font-size="14.00">Finland</text>
</g>
<!-- Finland&#45;&gt;Finland -->
<g id="edge34" class="edge"><title>Finland&#45;&gt;Finland</title>
<path fill="none" stroke="black" stroke-width="4.9" d="M400.424,-556.558C410.215,-556.558 418.049,-554.308 418.049,-549.808 418.049,-546.644 414.176,-544.592 408.473,-543.653"/>
<polygon fill="black" stroke="black" stroke-width="4.9" points="400.424,-543.058 408.808,-538.15 404.556,-541.408 408.546,-541.703 408.402,-543.648 408.258,-545.592 404.269,-545.298 407.995,-549.145 400.424,-543.058 400.424,-543.058"/>
</g>
<!-- Italy -->
<g id="node29" class="node"><title>Italy</title>
<polygon fill="none" stroke="black" points="244.049,-472.808 190.049,-472.808 190.049,-436.808 244.049,-436.808 244.049,-472.808"/>
<text text-anchor="middle" x="217.049" y="-451.108" font-family="Times,serif" font-size="14.00">Italy</text>
</g>
<!-- Italy&#45;&gt;Italy -->
<g id="edge35" class="edge"><title>Italy&#45;&gt;Italy</title>
<path fill="none" stroke="black" stroke-width="4.9" d="M244.289,-461.551C254.073,-461.696 262.049,-459.449 262.049,-454.808 262.049,-451.545 258.105,-449.465 252.363,-448.568"/>
<polygon fill="black" stroke="black" stroke-width="4.9" points="244.289,-448.065 252.617,-443.061 248.403,-446.367 252.395,-446.616 252.274,-448.563 252.152,-450.509 248.16,-450.26 251.931,-454.064 244.289,-448.065 244.289,-448.065"/>
</g>
<!-- Poland -->
<g id="node30" class="node"><title>Poland</title>
<polygon fill="none" stroke="black" points="244.049,-92.808 190.049,-92.808 190.049,-56.808 244.049,-56.808 244.049,-92.808"/>
<text text-anchor="middle" x="217.049" y="-71.108" font-family="Times,serif" font-size="14.00">Poland</text>
</g>
<!-- Poland&#45;&gt;Poland -->
<g id="edge36" class="edge"><title>Poland&#45;&gt;Poland</title>
<path fill="none" stroke="black" stroke-width="5" d="M244.289,-81.5514C254.073,-81.6964 262.049,-79.4486 262.049,-74.808 262.049,-71.545 258.105,-69.465 252.363,-68.5681"/>
<polygon fill="black" stroke="black" stroke-width="5" points="244.289,-68.0645 252.624,-62.9485 248.406,-66.3174 252.398,-66.5665 252.274,-68.5626 252.149,-70.5587 248.157,-70.3097 251.924,-74.1767 244.289,-68.0645 244.289,-68.0645"/>
</g>
<!-- Austria -->
<g id="node31" class="node"><title>Austria</title>
<polygon fill="none" stroke="black" points="607.049,-73.808 551.049,-73.808 551.049,-37.808 607.049,-37.808 607.049,-73.808"/>
<text text-anchor="middle" x="579.049" y="-52.108" font-family="Times,serif" font-size="14.00">Austria</text>
</g>
<!-- Austria&#45;&gt;Austria -->
<g id="edge38" class="edge"><title>Austria&#45;&gt;Austria</title>
<path fill="none" stroke="black" stroke-width="5.1" d="M607.348,-62.5563C617.141,-62.6277 625.049,-60.3783 625.049,-55.808 625.049,-52.5945 621.139,-50.5283 615.414,-49.6096"/>
<polygon fill="black" stroke="black" stroke-width="5.1" points="607.348,-49.0596 615.72,-43.8798 611.478,-47.2865 615.469,-47.5588 615.329,-49.604 615.19,-51.6492 611.199,-51.377 614.939,-55.3282 607.348,-49.0596 607.348,-49.0596"/>
</g>
<!-- India -->
<g id="node32" class="node"><title>India</title>
<polygon fill="none" stroke="black" points="472.049,-54.808 418.049,-54.808 418.049,-18.808 472.049,-18.808 472.049,-54.808"/>
<text text-anchor="middle" x="445.049" y="-33.108" font-family="Times,serif" font-size="14.00">India</text>
</g>
<!-- India&#45;&gt;India -->
<g id="edge39" class="edge"><title>India&#45;&gt;India</title>
<path fill="none" stroke="black" stroke-width="5.2" d="M472.289,-43.5514C482.073,-43.6964 490.049,-41.4486 490.049,-36.808 490.049,-33.545 486.105,-31.465 480.363,-30.5681"/>
<polygon fill="black" stroke="black" stroke-width="5.2" points="472.289,-30.0645 480.638,-24.7239 476.412,-28.2176 480.405,-28.4666 480.274,-30.5626 480.143,-32.6585 476.151,-32.4095 479.91,-36.4012 472.289,-30.0645 472.289,-30.0645"/>
</g>
<!-- Israel -->
<g id="node33" class="node"><title>Israel</title>
<polygon fill="none" stroke="black" points="757.049,-624.808 703.049,-624.808 703.049,-588.808 757.049,-588.808 757.049,-624.808"/>
<text text-anchor="middle" x="730.049" y="-603.108" font-family="Times,serif" font-size="14.00">Israel</text>
</g>
<!-- Israel&#45;&gt;Israel -->
<g id="edge43" class="edge"><title>Israel&#45;&gt;Israel</title>
<path fill="none" stroke="black" stroke-width="5.7" d="M757.289,-613.551C767.073,-613.696 775.049,-611.449 775.049,-606.808 775.049,-603.545 771.105,-601.465 765.363,-600.568"/>
<polygon fill="black" stroke="black" stroke-width="5.7" points="757.289,-600.065 765.673,-594.163 761.428,-597.968 765.42,-598.217 765.274,-600.563 765.128,-602.908 761.135,-602.659 764.875,-606.963 757.289,-600.065 757.289,-600.065"/>
</g>
</g>
</svg>
