<?xml version="1.0" encoding="UTF-8" standalone="no"?>
<!DOCTYPE svg PUBLIC "-//W3C//DTD SVG 1.1//EN"
 "http://www.w3.org/Graphics/SVG/1.1/DTD/svg11.dtd">
<!-- Generated by graphviz version 2.38.0 (20140413.2041)
 -->
<!-- Title: transition Pages: 1 -->
<svg width="3787pt" height="4491pt"
 viewBox="0.00 0.00 3786.57 4490.90" xmlns="http://www.w3.org/2000/svg" xmlns:xlink="http://www.w3.org/1999/xlink">
<g id="graph0" class="graph" transform="scale(1 1) rotate(0) translate(4 4486.9)">
<title>transition</title>
<polygon fill="white" stroke="none" points="-4,4 -4,-4486.9 3782.57,-4486.9 3782.57,4 -4,4"/>
<text text-anchor="middle" x="1889.28" y="-4467.7" font-family="Times,serif" font-size="14.00">Transitions between 1600 and 1700 (with threshold .75)</text>
<!-- Friedrich&#45;Schiller&#45;Universität Jena -->
<g id="node1" class="node"><title>Friedrich&#45;Schiller&#45;Universität Jena</title>
<polygon fill="none" stroke="black" points="253,-2222.06 48,-2222.06 48,-2186.06 253,-2186.06 253,-2222.06"/>
<text text-anchor="middle" x="150.5" y="-2200.36" font-family="Times,serif" font-size="14.00">Friedrich&#45;Schiller&#45;Universität Jena</text>
</g>
<!-- Friedrich&#45;Schiller&#45;Universität Jena&#45;&gt;Friedrich&#45;Schiller&#45;Universität Jena -->
<g id="edge66" class="edge"><title>Friedrich&#45;Schiller&#45;Universität Jena&#45;&gt;Friedrich&#45;Schiller&#45;Universität Jena</title>
<path fill="none" stroke="black" stroke-width="2.1" d="M253.345,-2209.65C264.105,-2208.56 271,-2206.7 271,-2204.06 271,-2202.16 267.438,-2200.67 261.439,-2199.57"/>
<polygon fill="black" stroke="black" stroke-width="2.1" points="253.345,-2198.47 261.758,-2195.98 257.383,-2198.46 261.346,-2199 261.271,-2199.55 261.197,-2200.09 257.234,-2199.55 260.785,-2203.12 253.345,-2198.47 253.345,-2198.47"/>
</g>
<!-- Universität Altdorf -->
<g id="node2" class="node"><title>Universität Altdorf</title>
<polygon fill="none" stroke="black" points="2382.56,-3694.75 2262.56,-3694.75 2262.56,-3658.75 2382.56,-3658.75 2382.56,-3694.75"/>
<text text-anchor="middle" x="2322.56" y="-3673.05" font-family="Times,serif" font-size="14.00">Universität Altdorf</text>
</g>
<!-- Friedrich&#45;Schiller&#45;Universität Jena&#45;&gt;Universität Altdorf -->
<g id="edge1" class="edge"><title>Friedrich&#45;Schiller&#45;Universität Jena&#45;&gt;Universität Altdorf</title>
<path fill="none" stroke="black" stroke-width="1.4" d="M177.179,-2222.15C405.839,-2377.18 2033.32,-3480.65 2288.84,-3653.89"/>
<polygon fill="black" stroke="black" stroke-width="1.4" points="2295.65,-3658.51 2287.01,-3657 2292.23,-3656.43 2288.92,-3654.19 2289.03,-3654.02 2289.14,-3653.85 2292.46,-3656.1 2291.05,-3651.04 2295.65,-3658.51 2295.65,-3658.51"/>
</g>
<!-- Universiteit Leiden -->
<g id="node3" class="node"><title>Universiteit Leiden</title>
<polygon fill="none" stroke="black" points="1644.47,-3734.82 1522.47,-3734.82 1522.47,-3698.82 1644.47,-3698.82 1644.47,-3734.82"/>
<text text-anchor="middle" x="1583.47" y="-3713.12" font-family="Times,serif" font-size="14.00">Universiteit Leiden</text>
</g>
<!-- Friedrich&#45;Schiller&#45;Universität Jena&#45;&gt;Universiteit Leiden -->
<g id="edge2" class="edge"><title>Friedrich&#45;Schiller&#45;Universität Jena&#45;&gt;Universiteit Leiden</title>
<path fill="none" stroke="black" stroke-width="0.7" d="M165.444,-2222.14C305.088,-2379.41 1378.84,-3513.12 1558.14,-3692.86"/>
<polygon fill="black" stroke="black" stroke-width="0.7" points="1563.9,-3698.61 1555.69,-3695.51 1561.07,-3695.79 1558.24,-3692.96 1558.24,-3692.96 1558.24,-3692.96 1561.07,-3695.79 1560.78,-3690.41 1563.9,-3698.61 1563.9,-3698.61"/>
</g>
<!-- Universität Basel -->
<g id="node5" class="node"><title>Universität Basel</title>
<polygon fill="none" stroke="black" points="441.84,-2923.49 331.84,-2923.49 331.84,-2887.49 441.84,-2887.49 441.84,-2923.49"/>
<text text-anchor="middle" x="386.84" y="-2901.79" font-family="Times,serif" font-size="14.00">Universität Basel</text>
</g>
<!-- Friedrich&#45;Schiller&#45;Universität Jena&#45;&gt;Universität Basel -->
<g id="edge114" class="edge"><title>Friedrich&#45;Schiller&#45;Universität Jena&#45;&gt;Universität Basel</title>
<path fill="none" stroke="black" stroke-width="0.7" d="M154.168,-2222.13C180.389,-2318.02 331.483,-2766.98 375.219,-2879.75"/>
<polygon fill="black" stroke="black" stroke-width="0.7" points="378.179,-2887.28 371.901,-2881.15 376.715,-2883.55 375.252,-2879.83 375.252,-2879.83 375.252,-2879.83 376.715,-2883.55 378.602,-2878.51 378.179,-2887.28 378.179,-2887.28"/>
</g>
<!-- Martin&#45;Luther&#45;Universität Halle&#45;Wittenberg -->
<g id="node7" class="node"><title>Martin&#45;Luther&#45;Universität Halle&#45;Wittenberg</title>
<polygon fill="none" stroke="black" points="741.128,-851.995 483.128,-851.995 483.128,-815.995 741.128,-815.995 741.128,-851.995"/>
<text text-anchor="middle" x="612.128" y="-830.295" font-family="Times,serif" font-size="14.00">Martin&#45;Luther&#45;Universität Halle&#45;Wittenberg</text>
</g>
<!-- Friedrich&#45;Schiller&#45;Universität Jena&#45;&gt;Martin&#45;Luther&#45;Universität Halle&#45;Wittenberg -->
<g id="edge87" class="edge"><title>Friedrich&#45;Schiller&#45;Universität Jena&#45;&gt;Martin&#45;Luther&#45;Universität Halle&#45;Wittenberg</title>
<path fill="none" stroke="black" stroke-width="1.1" d="M158.403,-2186.02C214.989,-2038.75 553.254,-1035.1 605.477,-860.017"/>
<polygon fill="black" stroke="black" stroke-width="1.1" points="607.745,-852.312 608.939,-861.003 606.663,-856.164 605.533,-860.001 605.485,-859.987 605.437,-859.972 606.567,-856.135 602.032,-858.97 607.745,-852.312 607.745,-852.312"/>
</g>
<!-- Eberhard&#45;Karls&#45;Universität Tübingen -->
<g id="node10" class="node"><title>Eberhard&#45;Karls&#45;Universität Tübingen</title>
<polygon fill="none" stroke="black" points="340.527,-2585.63 120.527,-2585.63 120.527,-2549.63 340.527,-2549.63 340.527,-2585.63"/>
<text text-anchor="middle" x="230.527" y="-2563.93" font-family="Times,serif" font-size="14.00">Eberhard&#45;Karls&#45;Universität Tübingen</text>
</g>
<!-- Friedrich&#45;Schiller&#45;Universität Jena&#45;&gt;Eberhard&#45;Karls&#45;Universität Tübingen -->
<g id="edge54" class="edge"><title>Friedrich&#45;Schiller&#45;Universität Jena&#45;&gt;Eberhard&#45;Karls&#45;Universität Tübingen</title>
<path fill="none" stroke="black" stroke-width="1.1" d="M154.469,-2222.09C167.561,-2281.57 209.423,-2471.75 224.795,-2541.59"/>
<polygon fill="black" stroke="black" stroke-width="1.1" points="226.535,-2549.49 221.299,-2542.45 225.626,-2545.59 224.766,-2541.69 224.815,-2541.68 224.864,-2541.67 225.724,-2545.57 228.331,-2540.9 226.535,-2549.49 226.535,-2549.49"/>
</g>
<!-- Universiteit Leiden&#45;&gt;Friedrich&#45;Schiller&#45;Universität Jena -->
<g id="edge22" class="edge"><title>Universiteit Leiden&#45;&gt;Friedrich&#45;Schiller&#45;Universität Jena</title>
<path fill="none" stroke="black" stroke-width="1.6" d="M1568.52,-3698.75C1428.88,-3541.47 355.131,-2407.77 175.83,-2228.02"/>
<polygon fill="black" stroke="black" stroke-width="1.6" points="170.069,-2222.27 178.274,-2225.38 173.111,-2224.88 175.942,-2227.71 175.73,-2227.92 175.518,-2228.13 172.687,-2225.31 173.186,-2230.47 170.069,-2222.27 170.069,-2222.27"/>
</g>
<!-- Universiteit Leiden&#45;&gt;Universität Altdorf -->
<g id="edge82" class="edge"><title>Universiteit Leiden&#45;&gt;Universität Altdorf</title>
<path fill="none" stroke="black" stroke-width="1.1" d="M1644.58,-3713.51C1781.24,-3706.1 2110.75,-3688.24 2254.07,-3680.46"/>
<polygon fill="black" stroke="black" stroke-width="1.1" points="2262.41,-3680.01 2254.62,-3684.04 2258.42,-3680.28 2254.42,-3680.5 2254.42,-3680.45 2254.42,-3680.4 2258.41,-3680.18 2254.23,-3676.85 2262.41,-3680.01 2262.41,-3680.01"/>
</g>
<!-- Universiteit Leiden&#45;&gt;Universiteit Leiden -->
<g id="edge15" class="edge"><title>Universiteit Leiden&#45;&gt;Universiteit Leiden</title>
<path fill="none" stroke="black" stroke-width="4" d="M1644.75,-3723.13C1655.21,-3722.26 1662.47,-3720.16 1662.47,-3716.82 1662.47,-3714.42 1658.72,-3712.66 1652.73,-3711.54"/>
<polygon fill="black" stroke="black" stroke-width="4" points="1644.75,-3710.52 1653.25,-3707.07 1648.9,-3709.54 1652.87,-3710.05 1652.68,-3711.54 1652.49,-3713.03 1648.52,-3712.52 1652.11,-3716 1644.75,-3710.52 1644.75,-3710.52"/>
</g>
<!-- Universität Leipzig -->
<g id="node4" class="node"><title>Universität Leipzig</title>
<polygon fill="none" stroke="black" points="2016.19,-3754.98 1894.19,-3754.98 1894.19,-3718.98 2016.19,-3718.98 2016.19,-3754.98"/>
<text text-anchor="middle" x="1955.19" y="-3733.28" font-family="Times,serif" font-size="14.00">Universität Leipzig</text>
</g>
<!-- Universiteit Leiden&#45;&gt;Universität Leipzig -->
<g id="edge81" class="edge"><title>Universiteit Leiden&#45;&gt;Universität Leipzig</title>
<path fill="none" stroke="black" stroke-width="0.7" d="M1644.85,-3720.15C1711.13,-3723.75 1816.51,-3729.46 1885.76,-3733.21"/>
<polygon fill="black" stroke="black" stroke-width="0.7" points="1894.03,-3733.66 1885.84,-3736.82 1890.03,-3733.45 1886.04,-3733.23 1886.04,-3733.23 1886.04,-3733.23 1890.03,-3733.45 1886.23,-3729.63 1894.03,-3733.66 1894.03,-3733.66"/>
</g>
<!-- Universiteit Leiden&#45;&gt;Universität Basel -->
<g id="edge61" class="edge"><title>Universiteit Leiden&#45;&gt;Universität Basel</title>
<path fill="none" stroke="black" stroke-width="0.7" d="M1560.46,-3698.71C1413.64,-3591.82 608.351,-3045.65 424.297,-2927.85"/>
<polygon fill="black" stroke="black" stroke-width="0.7" points="417.508,-2923.52 426.189,-2924.79 420.881,-2925.67 424.253,-2927.82 424.253,-2927.82 424.253,-2927.82 420.881,-2925.67 422.317,-2930.86 417.508,-2923.52 417.508,-2923.52"/>
</g>
<!-- Académie Royale Des Sciences De Paris -->
<g id="node6" class="node"><title>Académie Royale Des Sciences De Paris</title>
<polygon fill="none" stroke="black" points="3703.57,-2035.92 3463.57,-2035.92 3463.57,-1999.92 3703.57,-1999.92 3703.57,-2035.92"/>
<text text-anchor="middle" x="3583.57" y="-2014.22" font-family="Times,serif" font-size="14.00">Académie Royale Des Sciences De Paris</text>
</g>
<!-- Universiteit Leiden&#45;&gt;Académie Royale Des Sciences De Paris -->
<g id="edge83" class="edge"><title>Universiteit Leiden&#45;&gt;Académie Royale Des Sciences De Paris</title>
<path fill="none" stroke="black" stroke-width="0.7" d="M1604.91,-3698.61C1804.22,-3529.31 3330.82,-2232.61 3555.89,-2041.44"/>
<polygon fill="black" stroke="black" stroke-width="0.7" points="3562.16,-2036.1 3558.4,-2044.03 3559.11,-2038.69 3556.06,-2041.28 3556.06,-2041.28 3556.06,-2041.28 3559.11,-2038.69 3553.73,-2038.54 3562.16,-2036.1 3562.16,-2036.1"/>
</g>
<!-- Universiteit Leiden&#45;&gt;Martin&#45;Luther&#45;Universität Halle&#45;Wittenberg -->
<g id="edge132" class="edge"><title>Universiteit Leiden&#45;&gt;Martin&#45;Luther&#45;Universität Halle&#45;Wittenberg</title>
<path fill="none" stroke="black" stroke-width="0.7" d="M1578.64,-3698.78C1509.22,-3469.77 721.933,-1132.94 622.396,-859.97"/>
<polygon fill="black" stroke="black" stroke-width="0.7" points="619.525,-852.156 625.663,-858.424 620.904,-855.91 622.283,-859.665 622.283,-859.665 622.283,-859.665 620.904,-855.91 618.904,-860.906 619.525,-852.156 619.525,-852.156"/>
</g>
<!-- Universiteit Utrecht -->
<g id="node11" class="node"><title>Universiteit Utrecht</title>
<polygon fill="none" stroke="black" points="674.628,-3219.85 549.628,-3219.85 549.628,-3183.85 674.628,-3183.85 674.628,-3219.85"/>
<text text-anchor="middle" x="612.128" y="-3198.15" font-family="Times,serif" font-size="14.00">Universiteit Utrecht</text>
</g>
<!-- Universiteit Leiden&#45;&gt;Universiteit Utrecht -->
<g id="edge20" class="edge"><title>Universiteit Leiden&#45;&gt;Universiteit Utrecht</title>
<path fill="none" stroke="black" stroke-width="2.6" d="M1554.79,-3698.75C1417.97,-3620.07 831.366,-3308.86 659.566,-3223.51"/>
<polygon fill="black" stroke="black" stroke-width="2.6" points="652.182,-3219.86 660.949,-3220.18 656.122,-3220.91 659.707,-3222.69 659.352,-3223.41 658.997,-3224.12 655.412,-3222.35 657.754,-3226.63 652.182,-3219.86 652.182,-3219.86"/>
</g>
<!-- Universiteit Harderwijk -->
<g id="node12" class="node"><title>Universiteit Harderwijk</title>
<polygon fill="none" stroke="black" points="968.859,-3460.86 822.859,-3460.86 822.859,-3424.86 968.859,-3424.86 968.859,-3460.86"/>
<text text-anchor="middle" x="895.859" y="-3439.16" font-family="Times,serif" font-size="14.00">Universiteit Harderwijk</text>
</g>
<!-- Universiteit Leiden&#45;&gt;Universiteit Harderwijk -->
<g id="edge14" class="edge"><title>Universiteit Leiden&#45;&gt;Universiteit Harderwijk</title>
<path fill="none" stroke="black" stroke-width="1.1" d="M1538.08,-3698.74C1415.69,-3649.97 1079.24,-3515.92 948.648,-3463.89"/>
<polygon fill="black" stroke="black" stroke-width="1.1" points="941.092,-3460.88 949.856,-3460.5 944.826,-3462.31 948.542,-3463.79 948.524,-3463.84 948.505,-3463.89 944.789,-3462.41 947.191,-3467.18 941.092,-3460.88 941.092,-3460.88"/>
</g>
<!-- Université D&#39;Angers -->
<g id="node13" class="node"><title>Université D&#39;Angers</title>
<polygon fill="none" stroke="black" points="3607.32,-2406.01 3479.32,-2406.01 3479.32,-2370.01 3607.32,-2370.01 3607.32,-2406.01"/>
<text text-anchor="middle" x="3543.32" y="-2384.31" font-family="Times,serif" font-size="14.00">Université D&#39;Angers</text>
</g>
<!-- Universiteit Leiden&#45;&gt;Université D&#39;Angers -->
<g id="edge21" class="edge"><title>Universiteit Leiden&#45;&gt;Université D&#39;Angers</title>
<path fill="none" stroke="black" stroke-width="1.6" d="M1610.06,-3698.8C1824.56,-3553.36 3270.51,-2572.98 3509.8,-2410.73"/>
<polygon fill="black" stroke="black" stroke-width="1.6" points="3516.53,-2406.17 3511.93,-2413.64 3513.39,-2408.67 3510.08,-2410.91 3509.91,-2410.66 3509.74,-2410.42 3513.05,-2408.17 3507.89,-2407.68 3516.53,-2406.17 3516.53,-2406.17"/>
</g>
<!-- University Of St. Andrews -->
<g id="node17" class="node"><title>University Of St. Andrews</title>
<polygon fill="none" stroke="black" points="3505.95,-1313.05 3342.95,-1313.05 3342.95,-1277.05 3505.95,-1277.05 3505.95,-1313.05"/>
<text text-anchor="middle" x="3424.45" y="-1291.35" font-family="Times,serif" font-size="14.00">University Of St. Andrews</text>
</g>
<!-- Universiteit Leiden&#45;&gt;University Of St. Andrews -->
<g id="edge90" class="edge"><title>Universiteit Leiden&#45;&gt;University Of St. Andrews</title>
<path fill="none" stroke="black" stroke-width="0.7" d="M1599.08,-3698.49C1766.87,-3489.61 3231.95,-1562.42 3407.32,-1320.05"/>
<polygon fill="black" stroke="black" stroke-width="0.7" points="3412.13,-1313.37 3410.38,-1321.97 3409.8,-1316.62 3407.46,-1319.86 3407.46,-1319.86 3407.46,-1319.86 3409.8,-1316.62 3404.54,-1317.76 3412.13,-1313.37 3412.13,-1313.37"/>
</g>
<!-- Università Di Padova -->
<g id="node18" class="node"><title>Università Di Padova</title>
<polygon fill="none" stroke="black" points="1650.47,-337.024 1516.47,-337.024 1516.47,-301.024 1650.47,-301.024 1650.47,-337.024"/>
<text text-anchor="middle" x="1583.47" y="-315.324" font-family="Times,serif" font-size="14.00">Università Di Padova</text>
</g>
<!-- Universiteit Leiden&#45;&gt;Università Di Padova -->
<g id="edge29" class="edge"><title>Universiteit Leiden&#45;&gt;Università Di Padova</title>
<path fill="none" stroke="black" stroke-width="1.4" d="M1584.58,-3698.54C1592.02,-3445.61 1592.1,-648.305 1584.8,-345.549"/>
<polygon fill="black" stroke="black" stroke-width="1.4" points="1584.58,-337.325 1588.39,-345.226 1584.88,-341.318 1584.99,-345.316 1584.79,-345.322 1584.59,-345.327 1584.48,-341.328 1581.19,-345.417 1584.58,-337.325 1584.58,-337.325"/>
</g>
<!-- Universität Helmstedt -->
<g id="node19" class="node"><title>Universität Helmstedt</title>
<polygon fill="none" stroke="black" points="2736.89,-514.888 2599.89,-514.888 2599.89,-478.888 2736.89,-478.888 2736.89,-514.888"/>
<text text-anchor="middle" x="2668.39" y="-493.188" font-family="Times,serif" font-size="14.00">Universität Helmstedt</text>
</g>
<!-- Universiteit Leiden&#45;&gt;Universität Helmstedt -->
<g id="edge91" class="edge"><title>Universiteit Leiden&#45;&gt;Universität Helmstedt</title>
<path fill="none" stroke="black" stroke-width="0.7" d="M1590.79,-3698.68C1681.03,-3454.07 2570.82,-813.457 2661.06,-522.817"/>
<polygon fill="black" stroke="black" stroke-width="0.7" points="2663.5,-514.909 2664.59,-523.614 2662.32,-518.731 2661.15,-522.554 2661.15,-522.554 2661.15,-522.554 2662.32,-518.731 2657.71,-521.495 2663.5,-514.909 2663.5,-514.909"/>
</g>
<!-- Universiteit Franeker -->
<g id="node20" class="node"><title>Universiteit Franeker</title>
<polygon fill="none" stroke="black" points="1290.76,-436.617 1158.76,-436.617 1158.76,-400.617 1290.76,-400.617 1290.76,-436.617"/>
<text text-anchor="middle" x="1224.76" y="-414.917" font-family="Times,serif" font-size="14.00">Universiteit Franeker</text>
</g>
<!-- Universiteit Leiden&#45;&gt;Universiteit Franeker -->
<g id="edge70" class="edge"><title>Universiteit Leiden&#45;&gt;Universiteit Franeker</title>
<path fill="none" stroke="black" stroke-width="1.1" d="M1582.61,-3698.56C1563.03,-3449.82 1268.37,-739.77 1228.94,-444.646"/>
<polygon fill="black" stroke="black" stroke-width="1.1" points="1227.85,-436.624 1232.5,-444.066 1228.44,-440.581 1228.98,-444.544 1228.93,-444.551 1228.88,-444.558 1228.34,-440.594 1225.36,-445.036 1227.85,-436.624 1227.85,-436.624"/>
</g>
<!-- Athenaeum Illustre Amsterdam -->
<g id="node21" class="node"><title>Athenaeum Illustre Amsterdam</title>
<polygon fill="none" stroke="black" points="1319.76,-3635.23 1129.76,-3635.23 1129.76,-3599.23 1319.76,-3599.23 1319.76,-3635.23"/>
<text text-anchor="middle" x="1224.76" y="-3613.53" font-family="Times,serif" font-size="14.00">Athenaeum Illustre Amsterdam</text>
</g>
<!-- Universiteit Leiden&#45;&gt;Athenaeum Illustre Amsterdam -->
<g id="edge43" class="edge"><title>Universiteit Leiden&#45;&gt;Athenaeum Illustre Amsterdam</title>
<path fill="none" stroke="black" stroke-width="0.7" d="M1536.37,-3698.78C1481.51,-3681.35 1389.5,-3655.39 1319.65,-3637.34"/>
<polygon fill="black" stroke="black" stroke-width="0.7" points="1311.67,-3635.29 1320.32,-3633.8 1315.55,-3636.29 1319.42,-3637.28 1319.42,-3637.28 1319.42,-3637.28 1315.55,-3636.29 1318.53,-3640.77 1311.67,-3635.29 1311.67,-3635.29"/>
</g>
<!-- Université De Poitiers -->
<g id="node32" class="node"><title>Université De Poitiers</title>
<polygon fill="none" stroke="black" points="3301.02,-3077.78 3164.02,-3077.78 3164.02,-3041.78 3301.02,-3041.78 3301.02,-3077.78"/>
<text text-anchor="middle" x="3232.52" y="-3056.08" font-family="Times,serif" font-size="14.00">Université De Poitiers</text>
</g>
<!-- Universiteit Leiden&#45;&gt;Université De Poitiers -->
<g id="edge73" class="edge"><title>Universiteit Leiden&#45;&gt;Université De Poitiers</title>
<path fill="none" stroke="black" stroke-width="1.1" d="M1628.86,-3698.74C1862.61,-3605.6 2929.22,-3180.63 3179.74,-3080.81"/>
<polygon fill="black" stroke="black" stroke-width="1.1" points="3187.26,-3077.81 3181.16,-3084.12 3183.56,-3079.34 3179.85,-3080.82 3179.83,-3080.78 3179.81,-3080.73 3183.53,-3079.25 3178.5,-3077.43 3187.26,-3077.81 3187.26,-3077.81"/>
</g>
<!-- Universität Erfurt -->
<g id="node33" class="node"><title>Universität Erfurt</title>
<polygon fill="none" stroke="black" points="287.027,-1486.22 174.027,-1486.22 174.027,-1450.22 287.027,-1450.22 287.027,-1486.22"/>
<text text-anchor="middle" x="230.527" y="-1464.52" font-family="Times,serif" font-size="14.00">Universität Erfurt</text>
</g>
<!-- Universiteit Leiden&#45;&gt;Universität Erfurt -->
<g id="edge78" class="edge"><title>Universiteit Leiden&#45;&gt;Universität Erfurt</title>
<path fill="none" stroke="black" stroke-width="0.7" d="M1572.58,-3698.72C1452.96,-3499.92 385.608,-1725.97 245.644,-1493.35"/>
<polygon fill="black" stroke="black" stroke-width="0.7" points="241.415,-1486.32 248.624,-1491.32 243.478,-1489.74 245.54,-1493.17 245.54,-1493.17 245.54,-1493.17 243.478,-1489.74 242.455,-1495.03 241.415,-1486.32 241.415,-1486.32"/>
</g>
<!-- Académie Protestante De Saumur -->
<g id="node35" class="node"><title>Académie Protestante De Saumur</title>
<polygon fill="none" stroke="black" points="2354.27,-4428.8 2152.27,-4428.8 2152.27,-4392.8 2354.27,-4392.8 2354.27,-4428.8"/>
<text text-anchor="middle" x="2253.27" y="-4407.1" font-family="Times,serif" font-size="14.00">Académie Protestante De Saumur</text>
</g>
<!-- Universiteit Leiden&#45;&gt;Académie Protestante De Saumur -->
<g id="edge80" class="edge"><title>Universiteit Leiden&#45;&gt;Académie Protestante De Saumur</title>
<path fill="none" stroke="black" stroke-width="1.1" d="M1601.04,-3735.03C1693.72,-3831.05 2125.46,-4278.38 2230.29,-4386.99"/>
<polygon fill="black" stroke="black" stroke-width="1.1" points="2235.88,-4392.79 2227.74,-4389.53 2233.07,-4389.94 2230.29,-4387.06 2230.33,-4387.03 2230.36,-4386.99 2233.14,-4389.87 2232.92,-4384.53 2235.88,-4392.79 2235.88,-4392.79"/>
</g>
<!-- Europa&#45;Universität Viadrina Frankfurt An Der Oder -->
<g id="node39" class="node"><title>Europa&#45;Universität Viadrina Frankfurt An Der Oder</title>
<polygon fill="none" stroke="black" points="301,-1849.79 -1.98952e-13,-1849.79 -1.98952e-13,-1813.79 301,-1813.79 301,-1849.79"/>
<text text-anchor="middle" x="150.5" y="-1828.09" font-family="Times,serif" font-size="14.00">Europa&#45;Universität Viadrina Frankfurt An Der Oder</text>
</g>
<!-- Universiteit Leiden&#45;&gt;Europa&#45;Universität Viadrina Frankfurt An Der Oder -->
<g id="edge133" class="edge"><title>Universiteit Leiden&#45;&gt;Europa&#45;Universität Viadrina Frankfurt An Der Oder</title>
<path fill="none" stroke="black" stroke-width="0.7" d="M1569.74,-3698.77C1433.66,-3519.76 328.067,-2065.37 169.428,-1856.69"/>
<polygon fill="black" stroke="black" stroke-width="0.7" points="164.392,-1850.06 172.1,-1854.25 166.813,-1853.25 169.234,-1856.43 169.234,-1856.43 169.234,-1856.43 166.813,-1853.25 166.368,-1858.61 164.392,-1850.06 164.392,-1850.06"/>
</g>
<!-- Uppsala Universitet -->
<g id="node44" class="node"><title>Uppsala Universitet</title>
<polygon fill="none" stroke="black" points="2081.88,-4455.47 1956.88,-4455.47 1956.88,-4419.47 2081.88,-4419.47 2081.88,-4455.47"/>
<text text-anchor="middle" x="2019.38" y="-4433.77" font-family="Times,serif" font-size="14.00">Uppsala Universitet</text>
</g>
<!-- Universiteit Leiden&#45;&gt;Uppsala Universitet -->
<g id="edge127" class="edge"><title>Universiteit Leiden&#45;&gt;Uppsala Universitet</title>
<path fill="none" stroke="black" stroke-width="0.7" d="M1594.46,-3735C1653.77,-3833.04 1935.41,-4298.65 2004.2,-4412.37"/>
<polygon fill="black" stroke="black" stroke-width="0.7" points="2008.42,-4419.34 2001.19,-4414.36 2006.34,-4415.92 2004.27,-4412.5 2004.27,-4412.5 2004.27,-4412.5 2006.34,-4415.92 2007.35,-4410.63 2008.42,-4419.34 2008.42,-4419.34"/>
</g>
<!-- Universität Leipzig&#45;&gt;Friedrich&#45;Schiller&#45;Universität Jena -->
<g id="edge5" class="edge"><title>Universität Leipzig&#45;&gt;Friedrich&#45;Schiller&#45;Universität Jena</title>
<path fill="none" stroke="black" stroke-width="1.9" d="M1933.98,-3718.96C1747.46,-3560.53 388.52,-2406.24 177.895,-2227.33"/>
<polygon fill="black" stroke="black" stroke-width="1.9" points="171.721,-2222.09 180.149,-2224.52 175.061,-2224.33 178.11,-2226.92 177.819,-2227.26 177.527,-2227.61 174.479,-2225.02 175.488,-2230.01 171.721,-2222.09 171.721,-2222.09"/>
</g>
<!-- Universität Leipzig&#45;&gt;Universität Altdorf -->
<g id="edge6" class="edge"><title>Universität Leipzig&#45;&gt;Universität Altdorf</title>
<path fill="none" stroke="black" stroke-width="1.4" d="M2016.27,-3726.97C2081.95,-3716.2 2186.12,-3699.12 2254.41,-3687.92"/>
<polygon fill="black" stroke="black" stroke-width="1.4" points="2262.56,-3686.59 2255.25,-3691.44 2258.64,-3687.43 2254.7,-3688.08 2254.66,-3687.88 2254.63,-3687.69 2258.58,-3687.04 2254.08,-3684.33 2262.56,-3686.59 2262.56,-3686.59"/>
</g>
<!-- Universität Leipzig&#45;&gt;Universität Leipzig -->
<g id="edge3" class="edge"><title>Universität Leipzig&#45;&gt;Universität Leipzig</title>
<path fill="none" stroke="black" stroke-width="2.6" d="M2016.47,-3743.28C2026.94,-3742.42 2034.19,-3740.32 2034.19,-3736.98 2034.19,-3734.58 2030.44,-3732.82 2024.45,-3731.7"/>
<polygon fill="black" stroke="black" stroke-width="2.6" points="2016.47,-3730.68 2024.86,-3728.12 2020.54,-3730.39 2024.51,-3730.9 2024.41,-3731.69 2024.3,-3732.49 2020.34,-3731.98 2023.95,-3735.26 2016.47,-3730.68 2016.47,-3730.68"/>
</g>
<!-- Universität Leipzig&#45;&gt;Académie Royale Des Sciences De Paris -->
<g id="edge7" class="edge"><title>Universität Leipzig&#45;&gt;Académie Royale Des Sciences De Paris</title>
<path fill="none" stroke="black" stroke-width="1.4" d="M1972.38,-3718.84C2133.44,-3548.8 3376.43,-2236.59 3560.75,-2042.01"/>
<polygon fill="black" stroke="black" stroke-width="1.4" points="3566.38,-2036.07 3563.49,-2044.35 3563.77,-2039.11 3561.02,-2042.01 3560.88,-2041.88 3560.73,-2041.74 3563.48,-2038.84 3558.26,-2039.4 3566.38,-2036.07 3566.38,-2036.07"/>
</g>
<!-- Universität Leipzig&#45;&gt;Martin&#45;Luther&#45;Universität Halle&#45;Wittenberg -->
<g id="edge8" class="edge"><title>Universität Leipzig&#45;&gt;Martin&#45;Luther&#45;Universität Halle&#45;Wittenberg</title>
<path fill="none" stroke="black" stroke-width="1.1" d="M1946.79,-3718.82C1840.07,-3488.14 750.348,-1132.75 624.047,-859.756"/>
<polygon fill="black" stroke="black" stroke-width="1.1" points="620.593,-852.291 627.22,-858.04 622.318,-855.9 623.998,-859.531 623.952,-859.552 623.907,-859.573 622.227,-855.942 620.685,-861.063 620.593,-852.291 620.593,-852.291"/>
</g>
<!-- Universität Leipzig&#45;&gt;Universität Helmstedt -->
<g id="edge103" class="edge"><title>Universität Leipzig&#45;&gt;Universität Helmstedt</title>
<path fill="none" stroke="black" stroke-width="0.7" d="M1959.2,-3718.76C2013.33,-3472.83 2598.21,-815.704 2662.64,-523.023"/>
<polygon fill="black" stroke="black" stroke-width="0.7" points="2664.39,-515.058 2666.19,-523.645 2663.53,-518.964 2662.67,-522.871 2662.67,-522.871 2662.67,-522.871 2663.53,-518.964 2659.15,-522.097 2664.39,-515.058 2664.39,-515.058"/>
</g>
<!-- Universität Leipzig&#45;&gt;Europa&#45;Universität Viadrina Frankfurt An Der Oder -->
<g id="edge124" class="edge"><title>Universität Leipzig&#45;&gt;Europa&#45;Universität Viadrina Frankfurt An Der Oder</title>
<path fill="none" stroke="black" stroke-width="1.1" d="M1937.91,-3718.73C1766.27,-3537.54 369.926,-2063.43 173.443,-1856.01"/>
<polygon fill="black" stroke="black" stroke-width="1.1" points="167.725,-1849.97 175.84,-1853.31 170.512,-1852.84 173.263,-1855.75 173.227,-1855.78 173.19,-1855.82 170.439,-1852.91 170.613,-1858.26 167.725,-1849.97 167.725,-1849.97"/>
</g>
<!-- Universität Basel&#45;&gt;Friedrich&#45;Schiller&#45;Universität Jena -->
<g id="edge19" class="edge"><title>Universität Basel&#45;&gt;Friedrich&#45;Schiller&#45;Universität Jena</title>
<path fill="none" stroke="black" stroke-width="1.1" d="M383.171,-2887.42C356.951,-2791.53 205.856,-2342.58 162.121,-2229.8"/>
<polygon fill="black" stroke="black" stroke-width="1.1" points="159.161,-2222.27 165.438,-2228.4 160.671,-2225.98 162.135,-2229.7 162.088,-2229.72 162.042,-2229.74 160.578,-2226.01 158.738,-2231.04 159.161,-2222.27 159.161,-2222.27"/>
</g>
<!-- Universität Basel&#45;&gt;Universiteit Leiden -->
<g id="edge17" class="edge"><title>Universität Basel&#45;&gt;Universiteit Leiden</title>
<path fill="none" stroke="black" stroke-width="2.6" d="M409.841,-2923.61C556.662,-3030.49 1361.96,-3576.66 1546.01,-3694.46"/>
<polygon fill="black" stroke="black" stroke-width="2.6" points="1552.8,-3698.79 1544.12,-3697.53 1549,-3697.32 1545.62,-3695.17 1546.05,-3694.49 1546.48,-3693.82 1549.86,-3695.97 1547.99,-3691.46 1552.8,-3698.79 1552.8,-3698.79"/>
</g>
<!-- Universität Basel&#45;&gt;Universität Basel -->
<g id="edge4" class="edge"><title>Universität Basel&#45;&gt;Universität Basel</title>
<path fill="none" stroke="black" stroke-width="2.8" d="M441.913,-2911.92C452.414,-2911.15 459.84,-2909.01 459.84,-2905.49 459.84,-2902.96 456.003,-2901.15 449.947,-2900.04"/>
<polygon fill="black" stroke="black" stroke-width="2.8" points="441.913,-2899.06 450.288,-2896.45 445.992,-2898.65 449.963,-2899.13 449.855,-2900.03 449.746,-2900.92 445.775,-2900.44 449.421,-2903.6 441.913,-2899.06 441.913,-2899.06"/>
</g>
<!-- Universität Basel&#45;&gt;Eberhard&#45;Karls&#45;Universität Tübingen -->
<g id="edge55" class="edge"><title>Universität Basel&#45;&gt;Eberhard&#45;Karls&#45;Universität Tübingen</title>
<path fill="none" stroke="black" stroke-width="1.1" d="M381.945,-2887.41C360.862,-2831.02 281.264,-2658.39 246.551,-2593.03"/>
<polygon fill="black" stroke="black" stroke-width="1.1" points="242.743,-2585.97 249.707,-2591.3 244.685,-2589.46 246.582,-2592.99 246.538,-2593.01 246.494,-2593.03 244.597,-2589.51 243.369,-2594.72 242.743,-2585.97 242.743,-2585.97"/>
</g>
<!-- Universität Basel&#45;&gt;Universiteit Utrecht -->
<g id="edge16" class="edge"><title>Universität Basel&#45;&gt;Universiteit Utrecht</title>
<path fill="none" stroke="black" stroke-width="1.1" d="M400.593,-2923.58C439.242,-2974.43 548.882,-3118.65 593.197,-3176.95"/>
<polygon fill="black" stroke="black" stroke-width="1.1" points="598.269,-3183.62 590.561,-3179.43 595.808,-3180.47 593.387,-3177.28 593.427,-3177.25 593.467,-3177.22 595.888,-3180.41 596.293,-3175.07 598.269,-3183.62 598.269,-3183.62"/>
</g>
<!-- Universität Basel&#45;&gt;Université D&#39;Angers -->
<g id="edge18" class="edge"><title>Universität Basel&#45;&gt;Université D&#39;Angers</title>
<path fill="none" stroke="black" stroke-width="0.7" d="M441.96,-2896.45C821.093,-2834.3 3040.49,-2470.45 3471,-2399.87"/>
<polygon fill="black" stroke="black" stroke-width="0.7" points="3479.03,-2398.55 3471.72,-2403.4 3475.08,-2399.2 3471.14,-2399.85 3471.14,-2399.85 3471.14,-2399.85 3475.08,-2399.2 3470.55,-2396.29 3479.03,-2398.55 3479.03,-2398.55"/>
</g>
<!-- Université De Paris -->
<g id="node14" class="node"><title>Université De Paris</title>
<polygon fill="none" stroke="black" points="3778.57,-2035.92 3655.57,-2035.92 3655.57,-1999.92 3778.57,-1999.92 3778.57,-2035.92"/>
<text text-anchor="middle" x="3717.07" y="-2014.22" font-family="Times,serif" font-size="14.00">Université De Paris</text>
</g>
<!-- Académie Royale Des Sciences De Paris&#45;&gt;Université De Paris -->
<g id="edge23" class="edge"><title>Académie Royale Des Sciences De Paris&#45;&gt;Université De Paris</title>
<path fill="none" stroke="black" stroke-width="0.7" d="M3703.78,-2017.92C3703.84,-2017.92 3703.91,-2017.92 3703.97,-2017.92"/>
<polygon fill="black" stroke="black" stroke-width="0.7" points="3704.16,-2017.92 3696.16,-2021.53 3700.16,-2017.93 3696.16,-2017.93 3696.16,-2017.93 3696.16,-2017.93 3700.16,-2017.93 3696.16,-2014.33 3704.16,-2017.92 3704.16,-2017.92"/>
</g>
<!-- Martin&#45;Luther&#45;Universität Halle&#45;Wittenberg&#45;&gt;Friedrich&#45;Schiller&#45;Universität Jena -->
<g id="edge68" class="edge"><title>Martin&#45;Luther&#45;Universität Halle&#45;Wittenberg&#45;&gt;Friedrich&#45;Schiller&#45;Universität Jena</title>
<path fill="none" stroke="black" stroke-width="1.6" d="M604.225,-852.031C547.64,-999.301 209.374,-2002.95 157.152,-2178.04"/>
<polygon fill="black" stroke="black" stroke-width="1.6" points="154.884,-2185.74 153.69,-2177.05 155.726,-2181.82 156.855,-2177.98 157.143,-2178.07 157.431,-2178.15 156.301,-2181.99 160.596,-2179.08 154.884,-2185.74 154.884,-2185.74"/>
</g>
<!-- Martin&#45;Luther&#45;Universität Halle&#45;Wittenberg&#45;&gt;Universität Altdorf -->
<g id="edge95" class="edge"><title>Martin&#45;Luther&#45;Universität Halle&#45;Wittenberg&#45;&gt;Universität Altdorf</title>
<path fill="none" stroke="black" stroke-width="1.6" d="M623.051,-852.148C760.254,-1080.18 2146.65,-3384.39 2307.39,-3651.53"/>
<polygon fill="black" stroke="black" stroke-width="1.6" points="2311.58,-3658.5 2304.37,-3653.5 2309.26,-3655.23 2307.19,-3651.8 2307.45,-3651.64 2307.71,-3651.49 2309.77,-3654.92 2310.54,-3649.79 2311.58,-3658.5 2311.58,-3658.5"/>
</g>
<!-- Martin&#45;Luther&#45;Universität Halle&#45;Wittenberg&#45;&gt;Universiteit Leiden -->
<g id="edge69" class="edge"><title>Martin&#45;Luther&#45;Universität Halle&#45;Wittenberg&#45;&gt;Universiteit Leiden</title>
<path fill="none" stroke="black" stroke-width="0.7" d="M616.959,-852.035C686.379,-1081.05 1473.66,-3417.88 1573.2,-3690.85"/>
<polygon fill="black" stroke="black" stroke-width="0.7" points="1576.07,-3698.66 1569.93,-3692.4 1574.69,-3694.91 1573.31,-3691.15 1573.31,-3691.15 1573.31,-3691.15 1574.69,-3694.91 1576.69,-3689.91 1576.07,-3698.66 1576.07,-3698.66"/>
</g>
<!-- Martin&#45;Luther&#45;Universität Halle&#45;Wittenberg&#45;&gt;Martin&#45;Luther&#45;Universität Halle&#45;Wittenberg -->
<g id="edge88" class="edge"><title>Martin&#45;Luther&#45;Universität Halle&#45;Wittenberg&#45;&gt;Martin&#45;Luther&#45;Universität Halle&#45;Wittenberg</title>
<path fill="none" stroke="black" stroke-width="3.1" d="M741.14,-839.262C752.214,-838.141 759.128,-836.386 759.128,-833.995 759.128,-832.277 755.556,-830.887 749.435,-829.825"/>
<polygon fill="black" stroke="black" stroke-width="3.1" points="741.14,-828.728 749.543,-826.208 745.243,-828.211 749.208,-828.736 749.071,-829.776 748.933,-830.817 744.968,-830.293 748.599,-833.345 741.14,-828.728 741.14,-828.728"/>
</g>
<!-- Martin&#45;Luther&#45;Universität Halle&#45;Wittenberg&#45;&gt;Università Di Padova -->
<g id="edge89" class="edge"><title>Martin&#45;Luther&#45;Universität Halle&#45;Wittenberg&#45;&gt;Università Di Padova</title>
<path fill="none" stroke="black" stroke-width="0.7" d="M652.448,-815.86C811.838,-737.245 1396.47,-427.267 1547.62,-341.201"/>
<polygon fill="black" stroke="black" stroke-width="0.7" points="1554.9,-337.036 1549.74,-344.134 1551.43,-339.022 1547.96,-341.009 1547.96,-341.009 1547.96,-341.009 1551.43,-339.022 1546.17,-337.884 1554.9,-337.036 1554.9,-337.036"/>
</g>
<!-- Martin&#45;Luther&#45;Universität Halle&#45;Wittenberg&#45;&gt;Universität Helmstedt -->
<g id="edge98" class="edge"><title>Martin&#45;Luther&#45;Universität Halle&#45;Wittenberg&#45;&gt;Universität Helmstedt</title>
<path fill="none" stroke="black" stroke-width="1.1" d="M741.321,-816.348C1130.32,-757.212 2282.69,-568.051 2591.52,-512.309"/>
<polygon fill="black" stroke="black" stroke-width="1.1" points="2599.53,-510.857 2592.3,-515.825 2595.61,-511.619 2591.67,-512.332 2591.66,-512.283 2591.65,-512.234 2595.59,-511.521 2591.02,-508.74 2599.53,-510.857 2599.53,-510.857"/>
</g>
<!-- Martin&#45;Luther&#45;Universität Halle&#45;Wittenberg&#45;&gt;Universität Erfurt -->
<g id="edge116" class="edge"><title>Martin&#45;Luther&#45;Universität Halle&#45;Wittenberg&#45;&gt;Universität Erfurt</title>
<path fill="none" stroke="black" stroke-width="0.7" d="M598.335,-852.02C538.021,-941.519 299.626,-1337.56 242.678,-1442.6"/>
<polygon fill="black" stroke="black" stroke-width="0.7" points="238.749,-1449.93 239.355,-1441.18 240.638,-1446.4 242.528,-1442.88 242.528,-1442.88 242.528,-1442.88 240.638,-1446.4 245.701,-1444.58 238.749,-1449.93 238.749,-1449.93"/>
</g>
<!-- University Of Cambridge -->
<g id="node8" class="node"><title>University Of Cambridge</title>
<polygon fill="none" stroke="black" points="2033.19,-316.87 1877.19,-316.87 1877.19,-280.87 2033.19,-280.87 2033.19,-316.87"/>
<text text-anchor="middle" x="1955.19" y="-295.17" font-family="Times,serif" font-size="14.00">University Of Cambridge</text>
</g>
<!-- University Of Cambridge&#45;&gt;University Of Cambridge -->
<g id="edge9" class="edge"><title>University Of Cambridge&#45;&gt;University Of Cambridge</title>
<path fill="none" stroke="black" stroke-width="1.1" d="M2033.54,-304.858C2044.14,-303.854 2051.19,-301.858 2051.19,-298.87 2051.19,-296.722 2047.55,-295.087 2041.56,-293.964"/>
<polygon fill="black" stroke="black" stroke-width="1.1" points="2033.54,-292.882 2041.95,-290.384 2037.51,-293.367 2041.47,-293.902 2041.47,-293.952 2041.46,-294.001 2037.5,-293.466 2040.99,-297.519 2033.54,-292.882 2033.54,-292.882"/>
</g>
<!-- University Of Cambridge&#45;&gt;Universiteit Franeker -->
<g id="edge118" class="edge"><title>University Of Cambridge&#45;&gt;Universiteit Franeker</title>
<path fill="none" stroke="black" stroke-width="1.1" d="M1877.02,-311.685C1735.3,-334.919 1437.8,-383.692 1299.01,-406.445"/>
<polygon fill="black" stroke="black" stroke-width="1.1" points="1290.91,-407.774 1298.22,-402.927 1294.85,-407.077 1298.8,-406.43 1298.8,-406.479 1298.81,-406.529 1294.86,-407.176 1299.39,-410.032 1290.91,-407.774 1290.91,-407.774"/>
</g>
<!-- Universität Rostock -->
<g id="node9" class="node"><title>Universität Rostock</title>
<polygon fill="none" stroke="black" points="449.34,-1148.36 324.34,-1148.36 324.34,-1112.36 449.34,-1112.36 449.34,-1148.36"/>
<text text-anchor="middle" x="386.84" y="-1126.66" font-family="Times,serif" font-size="14.00">Universität Rostock</text>
</g>
<!-- Universität Rostock&#45;&gt;Universiteit Leiden -->
<g id="edge77" class="edge"><title>Universität Rostock&#45;&gt;Universiteit Leiden</title>
<path fill="none" stroke="black" stroke-width="0.7" d="M395.284,-1148.61C495.398,-1365 1454.17,-3437.35 1571.68,-3691.35"/>
<polygon fill="black" stroke="black" stroke-width="0.7" points="1575.06,-3698.65 1568.43,-3692.9 1573.38,-3695.02 1571.7,-3691.39 1571.7,-3691.39 1571.7,-3691.39 1573.38,-3695.02 1574.97,-3689.88 1575.06,-3698.65 1575.06,-3698.65"/>
</g>
<!-- Universität Rostock&#45;&gt;Martin&#45;Luther&#45;Universität Halle&#45;Wittenberg -->
<g id="edge10" class="edge"><title>Universität Rostock&#45;&gt;Martin&#45;Luther&#45;Universität Halle&#45;Wittenberg</title>
<path fill="none" stroke="black" stroke-width="1.1" d="M400.593,-1112.26C439.242,-1061.42 548.882,-917.194 593.197,-858.899"/>
<polygon fill="black" stroke="black" stroke-width="1.1" points="598.269,-852.228 596.293,-860.775 595.888,-855.442 593.467,-858.627 593.427,-858.596 593.387,-858.566 595.808,-855.382 590.561,-856.418 598.269,-852.228 598.269,-852.228"/>
</g>
<!-- Eberhard&#45;Karls&#45;Universität Tübingen&#45;&gt;Universität Basel -->
<g id="edge125" class="edge"><title>Eberhard&#45;Karls&#45;Universität Tübingen&#45;&gt;Universität Basel</title>
<path fill="none" stroke="black" stroke-width="0.7" d="M235.421,-2585.7C256.505,-2642.1 336.102,-2814.73 370.816,-2880.08"/>
<polygon fill="black" stroke="black" stroke-width="0.7" points="374.624,-2887.15 367.66,-2881.82 372.726,-2883.63 370.829,-2880.11 370.829,-2880.11 370.829,-2880.11 372.726,-2883.63 373.998,-2878.4 374.624,-2887.15 374.624,-2887.15"/>
</g>
<!-- Eberhard&#45;Karls&#45;Universität Tübingen&#45;&gt;Eberhard&#45;Karls&#45;Universität Tübingen -->
<g id="edge11" class="edge"><title>Eberhard&#45;Karls&#45;Universität Tübingen&#45;&gt;Eberhard&#45;Karls&#45;Universität Tübingen</title>
<path fill="none" stroke="black" stroke-width="1.1" d="M340.679,-2573.13C351.588,-2572.03 358.527,-2570.19 358.527,-2567.63 358.527,-2565.78 354.943,-2564.32 348.875,-2563.23"/>
<polygon fill="black" stroke="black" stroke-width="1.1" points="340.679,-2562.12 349.088,-2559.62 344.65,-2562.61 348.614,-2563.14 348.607,-2563.19 348.601,-2563.24 344.636,-2562.71 348.127,-2566.76 340.679,-2562.12 340.679,-2562.12"/>
</g>
<!-- Universiteit Utrecht&#45;&gt;Friedrich&#45;Schiller&#45;Universität Jena -->
<g id="edge38" class="edge"><title>Universiteit Utrecht&#45;&gt;Friedrich&#45;Schiller&#45;Universität Jena</title>
<path fill="none" stroke="black" stroke-width="0.7" d="M603.722,-3183.68C547.654,-3062.49 228.105,-2371.8 162.336,-2229.64"/>
<polygon fill="black" stroke="black" stroke-width="0.7" points="158.881,-2222.18 165.508,-2227.92 160.561,-2225.81 162.24,-2229.44 162.24,-2229.44 162.24,-2229.44 160.561,-2225.81 158.973,-2230.95 158.881,-2222.18 158.881,-2222.18"/>
</g>
<!-- Universiteit Utrecht&#45;&gt;Universiteit Leiden -->
<g id="edge13" class="edge"><title>Universiteit Utrecht&#45;&gt;Universiteit Leiden</title>
<path fill="none" stroke="black" stroke-width="2.6" d="M640.808,-3219.93C777.627,-3298.61 1364.23,-3609.81 1536.03,-3695.16"/>
<polygon fill="black" stroke="black" stroke-width="2.6" points="1543.41,-3698.82 1534.65,-3698.5 1539.47,-3697.76 1535.89,-3695.99 1536.24,-3695.27 1536.6,-3694.55 1540.18,-3696.33 1537.84,-3692.04 1543.41,-3698.82 1543.41,-3698.82"/>
</g>
<!-- Universiteit Utrecht&#45;&gt;Universiteit Utrecht -->
<g id="edge26" class="edge"><title>Universiteit Utrecht&#45;&gt;Universiteit Utrecht</title>
<path fill="none" stroke="black" stroke-width="2.8" d="M674.907,-3208.13C685.393,-3207.25 692.628,-3205.16 692.628,-3201.85 692.628,-3199.48 688.89,-3197.73 682.894,-3196.61"/>
<polygon fill="black" stroke="black" stroke-width="2.8" points="674.907,-3195.58 683.301,-3193.03 678.989,-3195.2 682.956,-3195.71 682.841,-3196.6 682.726,-3197.49 678.759,-3196.98 682.381,-3200.17 674.907,-3195.58 674.907,-3195.58"/>
</g>
<!-- Universiteit Utrecht&#45;&gt;Universiteit Harderwijk -->
<g id="edge12" class="edge"><title>Universiteit Utrecht&#45;&gt;Universiteit Harderwijk</title>
<path fill="none" stroke="black" stroke-width="0.7" d="M633.454,-3219.97C684.085,-3262.97 811.509,-3371.21 868.07,-3419.25"/>
<polygon fill="black" stroke="black" stroke-width="0.7" points="874.286,-3424.53 865.858,-3422.1 871.237,-3421.94 868.188,-3419.35 868.188,-3419.35 868.188,-3419.35 871.237,-3421.94 870.519,-3416.61 874.286,-3424.53 874.286,-3424.53"/>
</g>
<!-- Rijksuniversiteit Groningen -->
<g id="node16" class="node"><title>Rijksuniversiteit Groningen</title>
<polygon fill="none" stroke="black" points="582.736,-3326.79 415.736,-3326.79 415.736,-3290.79 582.736,-3290.79 582.736,-3326.79"/>
<text text-anchor="middle" x="499.236" y="-3305.09" font-family="Times,serif" font-size="14.00">Rijksuniversiteit Groningen</text>
</g>
<!-- Universiteit Utrecht&#45;&gt;Rijksuniversiteit Groningen -->
<g id="edge126" class="edge"><title>Universiteit Utrecht&#45;&gt;Rijksuniversiteit Groningen</title>
<path fill="none" stroke="black" stroke-width="0.7" d="M584.891,-3219.95C563.745,-3237.78 535.148,-3264.95 516.882,-3284.6"/>
<polygon fill="black" stroke="black" stroke-width="0.7" points="511.337,-3290.7 514.056,-3282.36 514.028,-3287.74 516.719,-3284.78 516.719,-3284.78 516.719,-3284.78 514.028,-3287.74 519.383,-3287.21 511.337,-3290.7 511.337,-3290.7"/>
</g>
<!-- Université D&#39;Angers&#45;&gt;Universität Altdorf -->
<g id="edge85" class="edge"><title>Université D&#39;Angers&#45;&gt;Universität Altdorf</title>
<path fill="none" stroke="black" stroke-width="0.7" d="M3526.06,-2406.23C3390.58,-2549.25 2499.16,-3490.31 2345.19,-3652.86"/>
<polygon fill="black" stroke="black" stroke-width="0.7" points="2339.62,-3658.74 2342.51,-3650.45 2342.37,-3655.83 2345.12,-3652.93 2345.12,-3652.93 2345.12,-3652.93 2342.37,-3655.83 2347.74,-3655.41 2339.62,-3658.74 2339.62,-3658.74"/>
</g>
<!-- Université D&#39;Angers&#45;&gt;Universität Leipzig -->
<g id="edge84" class="edge"><title>Université D&#39;Angers&#45;&gt;Universität Leipzig</title>
<path fill="none" stroke="black" stroke-width="0.7" d="M3522.07,-2406.06C3349.47,-2552.67 2178.71,-3547.12 1982.93,-3713.41"/>
<polygon fill="black" stroke="black" stroke-width="0.7" points="1976.64,-3718.76 1980.41,-3710.84 1979.69,-3716.17 1982.74,-3713.58 1982.74,-3713.58 1982.74,-3713.58 1979.69,-3716.17 1985.07,-3716.32 1976.64,-3718.76 1976.64,-3718.76"/>
</g>
<!-- Université D&#39;Angers&#45;&gt;Académie Royale Des Sciences De Paris -->
<g id="edge86" class="edge"><title>Université D&#39;Angers&#45;&gt;Académie Royale Des Sciences De Paris</title>
<path fill="none" stroke="black" stroke-width="0.7" d="M3545.29,-2369.91C3551.85,-2309.53 3573.03,-2114.83 3580.73,-2044"/>
<polygon fill="black" stroke="black" stroke-width="0.7" points="3581.6,-2035.99 3584.32,-2044.33 3581.17,-2039.97 3580.74,-2043.94 3580.74,-2043.94 3580.74,-2043.94 3581.17,-2039.97 3577.16,-2043.55 3581.6,-2035.99 3581.6,-2035.99"/>
</g>
<!-- Université De Montpellier -->
<g id="node15" class="node"><title>Université De Montpellier</title>
<polygon fill="none" stroke="black" points="1884.99,-4459.9 1723.99,-4459.9 1723.99,-4423.9 1884.99,-4423.9 1884.99,-4459.9"/>
<text text-anchor="middle" x="1804.49" y="-4438.2" font-family="Times,serif" font-size="14.00">Université De Montpellier</text>
</g>
<!-- Université De Montpellier&#45;&gt;Universiteit Leiden -->
<g id="edge24" class="edge"><title>Université De Montpellier&#45;&gt;Universiteit Leiden</title>
<path fill="none" stroke="black" stroke-width="0.7" d="M1798.92,-4423.61C1768.91,-4325.16 1626.61,-3858.37 1591.37,-3742.77"/>
<polygon fill="black" stroke="black" stroke-width="0.7" points="1589.03,-3735.06 1594.8,-3741.66 1590.19,-3738.89 1591.36,-3742.71 1591.36,-3742.71 1591.36,-3742.71 1590.19,-3738.89 1587.91,-3743.76 1589.03,-3735.06 1589.03,-3735.06"/>
</g>
<!-- Université De Montpellier&#45;&gt;Université De Montpellier -->
<g id="edge135" class="edge"><title>Université De Montpellier&#45;&gt;Université De Montpellier</title>
<path fill="none" stroke="black" stroke-width="0.7" d="M1885.26,-4447.85C1895.92,-4446.84 1902.99,-4444.85 1902.99,-4441.9 1902.99,-4439.78 1899.34,-4438.15 1893.33,-4437.03"/>
<polygon fill="black" stroke="black" stroke-width="0.7" points="1885.26,-4435.95 1893.67,-4433.45 1889.23,-4436.48 1893.19,-4437.02 1893.19,-4437.02 1893.19,-4437.02 1889.23,-4436.48 1892.71,-4440.58 1885.26,-4435.95 1885.26,-4435.95"/>
</g>
<!-- Rijksuniversiteit Groningen&#45;&gt;Universiteit Utrecht -->
<g id="edge25" class="edge"><title>Rijksuniversiteit Groningen&#45;&gt;Universiteit Utrecht</title>
<path fill="none" stroke="black" stroke-width="1.4" d="M526.474,-3290.69C547.619,-3272.86 576.217,-3245.7 594.483,-3226.04"/>
<polygon fill="black" stroke="black" stroke-width="1.4" points="600.028,-3219.94 597.309,-3228.28 597.485,-3223.04 594.793,-3225.99 594.645,-3225.86 594.497,-3225.73 597.189,-3222.77 591.982,-3223.44 600.028,-3219.94 600.028,-3219.94"/>
</g>
<!-- University Of St. Andrews&#45;&gt;Universiteit Leiden -->
<g id="edge27" class="edge"><title>University Of St. Andrews&#45;&gt;Universiteit Leiden</title>
<path fill="none" stroke="black" stroke-width="1.4" d="M3408.83,-1313.38C3241.05,-1522.26 1775.97,-3449.46 1600.59,-3691.83"/>
<polygon fill="black" stroke="black" stroke-width="1.4" points="1595.78,-3698.5 1597.54,-3689.91 1597.96,-3695.14 1600.3,-3691.9 1600.46,-3692.01 1600.62,-3692.13 1598.28,-3695.38 1603.38,-3694.12 1595.78,-3698.5 1595.78,-3698.5"/>
</g>
<!-- University Of St. Andrews&#45;&gt;Università Di Padova -->
<g id="edge28" class="edge"><title>University Of St. Andrews&#45;&gt;Università Di Padova</title>
<path fill="none" stroke="black" stroke-width="0.7" d="M3390.13,-1276.85C3162.61,-1156.23 1873.5,-472.793 1624.94,-341.013"/>
<polygon fill="black" stroke="black" stroke-width="0.7" points="1617.55,-337.096 1626.31,-337.663 1621.09,-338.97 1624.62,-340.844 1624.62,-340.844 1624.62,-340.844 1621.09,-338.97 1622.94,-344.024 1617.55,-337.096 1617.55,-337.096"/>
</g>
<!-- Università Di Padova&#45;&gt;Friedrich&#45;Schiller&#45;Universität Jena -->
<g id="edge67" class="edge"><title>Università Di Padova&#45;&gt;Friedrich&#45;Schiller&#45;Universität Jena</title>
<path fill="none" stroke="black" stroke-width="1.4" d="M1569.74,-337.077C1433.66,-516.086 328.067,-1970.47 169.428,-2179.16"/>
<polygon fill="black" stroke="black" stroke-width="1.4" points="164.392,-2185.78 166.368,-2177.24 166.654,-2182.48 169.074,-2179.29 169.234,-2179.42 169.393,-2179.54 166.972,-2182.72 172.1,-2181.59 164.392,-2185.78 164.392,-2185.78"/>
</g>
<!-- Università Di Padova&#45;&gt;Universiteit Leiden -->
<g id="edge35" class="edge"><title>Università Di Padova&#45;&gt;Universiteit Leiden</title>
<path fill="none" stroke="black" stroke-width="2.5" d="M1582.36,-337.305C1574.91,-590.241 1574.84,-3387.54 1582.14,-3690.3"/>
<polygon fill="black" stroke="black" stroke-width="2.5" points="1582.36,-3698.52 1578.54,-3690.62 1581.5,-3694.55 1581.39,-3690.55 1582.14,-3690.53 1582.89,-3690.51 1583,-3694.51 1585.74,-3690.43 1582.36,-3698.52 1582.36,-3698.52"/>
</g>
<!-- Università Di Padova&#45;&gt;Universität Basel -->
<g id="edge62" class="edge"><title>Università Di Padova&#45;&gt;Universität Basel</title>
<path fill="none" stroke="black" stroke-width="0.7" d="M1575.02,-337.276C1474.91,-553.669 516.14,-2626.01 398.626,-2880.02"/>
<polygon fill="black" stroke="black" stroke-width="0.7" points="395.246,-2887.32 395.338,-2878.55 396.926,-2883.69 398.605,-2880.06 398.605,-2880.06 398.605,-2880.06 396.926,-2883.69 401.873,-2881.57 395.246,-2887.32 395.246,-2887.32"/>
</g>
<!-- Università Di Padova&#45;&gt;Martin&#45;Luther&#45;Universität Halle&#45;Wittenberg -->
<g id="edge57" class="edge"><title>Università Di Padova&#45;&gt;Martin&#45;Luther&#45;Universität Halle&#45;Wittenberg</title>
<path fill="none" stroke="black" stroke-width="0.7" d="M1543.15,-337.159C1383.76,-415.775 799.121,-725.752 647.975,-811.818"/>
<polygon fill="black" stroke="black" stroke-width="0.7" points="640.695,-815.984 645.851,-808.886 644.167,-813.997 647.639,-812.011 647.639,-812.011 647.639,-812.011 644.167,-813.997 649.427,-815.135 640.695,-815.984 640.695,-815.984"/>
</g>
<!-- Università Di Padova&#45;&gt;Universiteit Utrecht -->
<g id="edge36" class="edge"><title>Università Di Padova&#45;&gt;Universiteit Utrecht</title>
<path fill="none" stroke="black" stroke-width="1.1" d="M1577.39,-337.058C1500.24,-566.023 712.87,-2902.86 620.884,-3175.87"/>
<polygon fill="black" stroke="black" stroke-width="1.1" points="618.25,-3183.68 617.393,-3174.95 619.48,-3179.88 620.757,-3176.09 620.805,-3176.1 620.852,-3176.12 619.575,-3179.91 624.216,-3177.25 618.25,-3183.68 618.25,-3183.68"/>
</g>
<!-- Università Di Padova&#45;&gt;Università Di Padova -->
<g id="edge37" class="edge"><title>Università Di Padova&#45;&gt;Università Di Padova</title>
<path fill="none" stroke="black" stroke-width="1.9" d="M1650.8,-325.21C1661.31,-324.286 1668.47,-322.224 1668.47,-319.024 1668.47,-316.725 1664.77,-315.013 1658.79,-313.888"/>
<polygon fill="black" stroke="black" stroke-width="1.9" points="1650.8,-312.838 1659.2,-310.312 1654.83,-312.914 1658.79,-313.436 1658.74,-313.882 1658.68,-314.328 1654.71,-313.806 1658.27,-317.451 1650.8,-312.838 1650.8,-312.838"/>
</g>
<!-- Università Di Padova&#45;&gt;Universiteit Franeker -->
<g id="edge56" class="edge"><title>Università Di Padova&#45;&gt;Universiteit Franeker</title>
<path fill="none" stroke="black" stroke-width="0.7" d="M1516.24,-332.123C1447.93,-349.075 1343.4,-378.198 1279.83,-398.06"/>
<polygon fill="black" stroke="black" stroke-width="0.7" points="1271.91,-400.556 1278.46,-394.719 1275.72,-399.355 1279.54,-398.153 1279.54,-398.153 1279.54,-398.153 1275.72,-399.355 1280.62,-401.587 1271.91,-400.556 1271.91,-400.556"/>
</g>
<!-- Universität Zu Köln -->
<g id="node27" class="node"><title>Universität Zu Köln</title>
<polygon fill="none" stroke="black" points="2731.39,-3556.96 2605.39,-3556.96 2605.39,-3520.96 2731.39,-3520.96 2731.39,-3556.96"/>
<text text-anchor="middle" x="2668.39" y="-3535.26" font-family="Times,serif" font-size="14.00">Universität Zu Köln</text>
</g>
<!-- Università Di Padova&#45;&gt;Universität Zu Köln -->
<g id="edge113" class="edge"><title>Università Di Padova&#45;&gt;Universität Zu Köln</title>
<path fill="none" stroke="black" stroke-width="0.7" d="M1589.57,-337.133C1671.91,-581.525 2561.64,-3222.13 2659.64,-3512.99"/>
<polygon fill="black" stroke="black" stroke-width="0.7" points="2662.31,-3520.9 2656.34,-3514.47 2661.03,-3517.11 2659.75,-3513.32 2659.75,-3513.32 2659.75,-3513.32 2661.03,-3517.11 2663.16,-3512.17 2662.31,-3520.9 2662.31,-3520.9"/>
</g>
<!-- Université Catholique De Louvain -->
<g id="node28" class="node"><title>Université Catholique De Louvain</title>
<polygon fill="none" stroke="black" points="997.859,-610.992 793.859,-610.992 793.859,-574.992 997.859,-574.992 997.859,-610.992"/>
<text text-anchor="middle" x="895.859" y="-589.292" font-family="Times,serif" font-size="14.00">Université Catholique De Louvain</text>
</g>
<!-- Università Di Padova&#45;&gt;Université Catholique De Louvain -->
<g id="edge63" class="edge"><title>Università Di Padova&#45;&gt;Université Catholique De Louvain</title>
<path fill="none" stroke="black" stroke-width="0.7" d="M1527.8,-337.058C1394.76,-385.807 1060.57,-519.063 940.048,-571.54"/>
<polygon fill="black" stroke="black" stroke-width="0.7" points="932.423,-574.878 938.308,-568.372 936.087,-573.273 939.751,-571.669 939.751,-571.669 939.751,-571.669 936.087,-573.273 941.195,-574.967 932.423,-574.878 932.423,-574.878"/>
</g>
<!-- Università Di Pisa -->
<g id="node40" class="node"><title>Università Di Pisa</title>
<polygon fill="none" stroke="black" points="2380.56,-377.097 2264.56,-377.097 2264.56,-341.097 2380.56,-341.097 2380.56,-377.097"/>
<text text-anchor="middle" x="2322.56" y="-355.397" font-family="Times,serif" font-size="14.00">Università Di Pisa</text>
</g>
<!-- Università Di Padova&#45;&gt;Università Di Pisa -->
<g id="edge123" class="edge"><title>Università Di Padova&#45;&gt;Università Di Pisa</title>
<path fill="none" stroke="black" stroke-width="0.7" d="M1650.79,-326.777C1791.76,-337.977 2116.45,-355.567 2256.39,-359.571"/>
<polygon fill="black" stroke="black" stroke-width="0.7" points="2264.53,-359.794 2256.44,-363.174 2260.53,-359.685 2256.54,-359.575 2256.54,-359.575 2256.54,-359.575 2260.53,-359.685 2256.63,-355.977 2264.53,-359.794 2264.53,-359.794"/>
</g>
<!-- Universität Helmstedt&#45;&gt;Friedrich&#45;Schiller&#45;Universität Jena -->
<g id="edge99" class="edge"><title>Universität Helmstedt&#45;&gt;Friedrich&#45;Schiller&#45;Universität Jena</title>
<path fill="none" stroke="black" stroke-width="0.7" d="M2641.82,-514.906C2392.28,-684.098 463.187,-1992.05 184.109,-2181.27"/>
<polygon fill="black" stroke="black" stroke-width="0.7" points="177.077,-2186.04 181.678,-2178.57 180.387,-2183.8 183.698,-2181.55 183.698,-2181.55 183.698,-2181.55 180.387,-2183.8 185.719,-2184.53 177.077,-2186.04 177.077,-2186.04"/>
</g>
<!-- Universität Helmstedt&#45;&gt;Universiteit Leiden -->
<g id="edge30" class="edge"><title>Universität Helmstedt&#45;&gt;Universiteit Leiden</title>
<path fill="none" stroke="black" stroke-width="1.6" d="M2661.07,-515.029C2570.83,-759.646 1681.04,-3400.26 1590.79,-3690.9"/>
<polygon fill="black" stroke="black" stroke-width="1.6" points="1588.36,-3698.8 1587.27,-3690.1 1589.25,-3694.89 1590.42,-3691.07 1590.71,-3691.16 1591,-3691.25 1589.82,-3695.07 1594.15,-3692.22 1588.36,-3698.8 1588.36,-3698.8"/>
</g>
<!-- Universität Helmstedt&#45;&gt;Martin&#45;Luther&#45;Universität Halle&#45;Wittenberg -->
<g id="edge100" class="edge"><title>Universität Helmstedt&#45;&gt;Martin&#45;Luther&#45;Universität Halle&#45;Wittenberg</title>
<path fill="none" stroke="black" stroke-width="1.8" d="M2599.84,-505.466C2296.14,-549.855 1071.1,-750.522 711.705,-814.507"/>
<polygon fill="black" stroke="black" stroke-width="1.8" points="703.634,-815.946 710.877,-810.997 707.502,-814.85 711.439,-814.147 711.51,-814.541 711.58,-814.935 707.642,-815.638 712.142,-818.085 703.634,-815.946 703.634,-815.946"/>
</g>
<!-- Universität Helmstedt&#45;&gt;University Of St. Andrews -->
<g id="edge111" class="edge"><title>Universität Helmstedt&#45;&gt;University Of St. Andrews</title>
<path fill="none" stroke="black" stroke-width="0.7" d="M2685.6,-515.059C2785.26,-620.265 3287.79,-1150.78 3401.54,-1270.86"/>
<polygon fill="black" stroke="black" stroke-width="0.7" points="3407.26,-1276.91 3399.15,-1273.58 3404.51,-1274.01 3401.76,-1271.1 3401.76,-1271.1 3401.76,-1271.1 3404.51,-1274.01 3404.38,-1268.63 3407.26,-1276.91 3407.26,-1276.91"/>
</g>
<!-- Universität Helmstedt&#45;&gt;Università Di Padova -->
<g id="edge31" class="edge"><title>Universität Helmstedt&#45;&gt;Università Di Padova</title>
<path fill="none" stroke="black" stroke-width="0.7" d="M2599.7,-485.627C2406.51,-453.955 1859.46,-364.271 1658.62,-331.345"/>
<polygon fill="black" stroke="black" stroke-width="0.7" points="1650.47,-330.009 1658.94,-327.75 1654.41,-330.656 1658.36,-331.303 1658.36,-331.303 1658.36,-331.303 1654.41,-330.656 1657.78,-334.855 1650.47,-330.009 1650.47,-330.009"/>
</g>
<!-- Universität Helmstedt&#45;&gt;Universität Helmstedt -->
<g id="edge102" class="edge"><title>Universität Helmstedt&#45;&gt;Universität Helmstedt</title>
<path fill="none" stroke="black" stroke-width="1.4" d="M2736.91,-503.074C2747.6,-502.15 2754.89,-500.088 2754.89,-496.888 2754.89,-494.589 2751.12,-492.877 2745.04,-491.753"/>
<polygon fill="black" stroke="black" stroke-width="1.4" points="2736.91,-490.702 2745.31,-488.158 2740.91,-491.017 2744.87,-491.53 2744.85,-491.728 2744.82,-491.926 2740.86,-491.414 2744.39,-495.298 2736.91,-490.702 2736.91,-490.702"/>
</g>
<!-- Universiteit Franeker&#45;&gt;Universiteit Leiden -->
<g id="edge32" class="edge"><title>Universiteit Franeker&#45;&gt;Universiteit Leiden</title>
<path fill="none" stroke="black" stroke-width="1.6" d="M1225.62,-436.883C1245.2,-685.618 1539.86,-3395.67 1579.29,-3690.8"/>
<polygon fill="black" stroke="black" stroke-width="1.6" points="1580.38,-3698.82 1575.73,-3691.38 1579.54,-3694.89 1579,-3690.93 1579.3,-3690.89 1579.6,-3690.85 1580.14,-3694.81 1582.87,-3690.4 1580.38,-3698.82 1580.38,-3698.82"/>
</g>
<!-- Universiteit Franeker&#45;&gt;Universiteit Utrecht -->
<g id="edge33" class="edge"><title>Universiteit Franeker&#45;&gt;Universiteit Utrecht</title>
<path fill="none" stroke="black" stroke-width="1.1" d="M1220.77,-436.757C1171.27,-661.661 677.046,-2906.93 617.906,-3175.6"/>
<polygon fill="black" stroke="black" stroke-width="1.1" points="616.135,-3183.65 614.339,-3175.06 616.946,-3179.73 617.806,-3175.83 617.855,-3175.84 617.904,-3175.85 617.044,-3179.76 621.371,-3176.61 616.135,-3183.65 616.135,-3183.65"/>
</g>
<!-- Universiteit Franeker&#45;&gt;Università Di Padova -->
<g id="edge34" class="edge"><title>Universiteit Franeker&#45;&gt;Università Di Padova</title>
<path fill="none" stroke="black" stroke-width="0.7" d="M1291.15,-405.727C1359.44,-388.806 1464.57,-359.524 1528.4,-339.58"/>
<polygon fill="black" stroke="black" stroke-width="0.7" points="1536.36,-337.074 1529.81,-342.911 1532.54,-338.276 1528.73,-339.478 1528.73,-339.478 1528.73,-339.478 1532.54,-338.276 1527.65,-336.044 1536.36,-337.074 1536.36,-337.074"/>
</g>
<!-- Universiteit Franeker&#45;&gt;Universiteit Franeker -->
<g id="edge117" class="edge"><title>Universiteit Franeker&#45;&gt;Universiteit Franeker</title>
<path fill="none" stroke="black" stroke-width="0.7" d="M1290.97,-424.833C1301.53,-423.924 1308.76,-421.852 1308.76,-418.617 1308.76,-416.293 1305.03,-414.568 1299,-413.445"/>
<polygon fill="black" stroke="black" stroke-width="0.7" points="1290.97,-412.401 1299.36,-409.861 1294.93,-412.916 1298.9,-413.431 1298.9,-413.431 1298.9,-413.431 1294.93,-412.916 1298.44,-417.001 1290.97,-412.401 1290.97,-412.401"/>
</g>
<!-- Universiteit Franeker&#45;&gt;Universität Erfurt -->
<g id="edge129" class="edge"><title>Universiteit Franeker&#45;&gt;Universität Erfurt</title>
<path fill="none" stroke="black" stroke-width="0.7" d="M1207.51,-436.835C1088.47,-562.502 389.857,-1300.02 253.571,-1443.89"/>
<polygon fill="black" stroke="black" stroke-width="0.7" points="247.869,-1449.91 250.757,-1441.63 250.62,-1447.01 253.371,-1444.11 253.371,-1444.11 253.371,-1444.11 250.62,-1447.01 255.985,-1446.58 247.869,-1449.91 247.869,-1449.91"/>
</g>
<!-- Athenaeum Illustre Amsterdam&#45;&gt;Universiteit Leiden -->
<g id="edge40" class="edge"><title>Athenaeum Illustre Amsterdam&#45;&gt;Universiteit Leiden</title>
<path fill="none" stroke="black" stroke-width="0.7" d="M1271.86,-3635.28C1333.74,-3654.93 1442.87,-3685.45 1514.18,-3703.21"/>
<polygon fill="black" stroke="black" stroke-width="0.7" points="1522.25,-3705.21 1513.62,-3706.78 1518.36,-3704.25 1514.48,-3703.29 1514.48,-3703.29 1514.48,-3703.29 1518.36,-3704.25 1515.35,-3699.79 1522.25,-3705.21 1522.25,-3705.21"/>
</g>
<!-- Athenaeum Illustre Amsterdam&#45;&gt;Universiteit Harderwijk -->
<g id="edge39" class="edge"><title>Athenaeum Illustre Amsterdam&#45;&gt;Universiteit Harderwijk</title>
<path fill="none" stroke="black" stroke-width="0.7" d="M1190.81,-3599.23C1130.12,-3567.05 1003.26,-3499.8 937.456,-3464.91"/>
<polygon fill="black" stroke="black" stroke-width="0.7" points="930.127,-3461.02 938.881,-3461.59 933.661,-3462.9 937.195,-3464.77 937.195,-3464.77 937.195,-3464.77 933.661,-3462.9 935.509,-3467.95 930.127,-3461.02 930.127,-3461.02"/>
</g>
<!-- Université De Genève -->
<g id="node22" class="node"><title>Université De Genève</title>
<polygon fill="none" stroke="black" points="1652.6,-4444.6 1515.6,-4444.6 1515.6,-4408.6 1652.6,-4408.6 1652.6,-4444.6"/>
<text text-anchor="middle" x="1584.1" y="-4422.9" font-family="Times,serif" font-size="14.00">Université De Genève</text>
</g>
<!-- Université De Genève&#45;&gt;Universiteit Leiden -->
<g id="edge41" class="edge"><title>Université De Genève&#45;&gt;Universiteit Leiden</title>
<path fill="none" stroke="black" stroke-width="1.1" d="M1584.09,-4408.35C1584,-4311.49 1583.59,-3857.91 1583.49,-3743.22"/>
<polygon fill="black" stroke="black" stroke-width="1.1" points="1583.48,-3734.96 1587.09,-3742.96 1583.54,-3738.96 1583.54,-3742.96 1583.49,-3742.96 1583.44,-3742.96 1583.44,-3738.96 1579.89,-3742.97 1583.48,-3734.96 1583.48,-3734.96"/>
</g>
<!-- Ruprecht&#45;Karls&#45;Universität Heidelberg -->
<g id="node23" class="node"><title>Ruprecht&#45;Karls&#45;Universität Heidelberg</title>
<polygon fill="none" stroke="black" points="3090.51,-3348.05 2862.51,-3348.05 2862.51,-3312.05 3090.51,-3312.05 3090.51,-3348.05"/>
<text text-anchor="middle" x="2976.51" y="-3326.35" font-family="Times,serif" font-size="14.00">Ruprecht&#45;Karls&#45;Universität Heidelberg</text>
</g>
<!-- Ruprecht&#45;Karls&#45;Universität Heidelberg&#45;&gt;Universiteit Leiden -->
<g id="edge42" class="edge"><title>Ruprecht&#45;Karls&#45;Universität Heidelberg&#45;&gt;Universiteit Leiden</title>
<path fill="none" stroke="black" stroke-width="1.8" d="M2911.66,-3348.05C2679.57,-3412.49 1891.53,-3631.29 1652.66,-3697.61"/>
<polygon fill="black" stroke="black" stroke-width="1.8" points="1644.74,-3699.81 1651.48,-3694.2 1648.48,-3698.36 1652.34,-3697.29 1652.45,-3697.67 1652.55,-3698.06 1648.7,-3699.13 1653.41,-3701.14 1644.74,-3699.81 1644.74,-3699.81"/>
</g>
<!-- Université De Caen -->
<g id="node31" class="node"><title>Université De Caen</title>
<polygon fill="none" stroke="black" points="3486.45,-2758.8 3362.45,-2758.8 3362.45,-2722.8 3486.45,-2722.8 3486.45,-2758.8"/>
<text text-anchor="middle" x="3424.45" y="-2737.1" font-family="Times,serif" font-size="14.00">Université De Caen</text>
</g>
<!-- Ruprecht&#45;Karls&#45;Universität Heidelberg&#45;&gt;Université De Caen -->
<g id="edge72" class="edge"><title>Ruprecht&#45;Karls&#45;Universität Heidelberg&#45;&gt;Université De Caen</title>
<path fill="none" stroke="black" stroke-width="0.7" d="M2990.41,-3311.77C3055.59,-3226.02 3330.99,-2863.75 3405.69,-2765.48"/>
<polygon fill="black" stroke="black" stroke-width="0.7" points="3410.71,-2758.86 3408.74,-2767.41 3408.29,-2762.05 3405.87,-2765.23 3405.87,-2765.23 3405.87,-2765.23 3408.29,-2762.05 3403.01,-2763.05 3410.71,-2758.86 3410.71,-2758.86"/>
</g>
<!-- University Of Aberdeen -->
<g id="node24" class="node"><title>University Of Aberdeen</title>
<polygon fill="none" stroke="black" points="3449.51,-3846.3 3301.51,-3846.3 3301.51,-3810.3 3449.51,-3810.3 3449.51,-3846.3"/>
<text text-anchor="middle" x="3375.51" y="-3824.6" font-family="Times,serif" font-size="14.00">University Of Aberdeen</text>
</g>
<!-- University Of Aberdeen&#45;&gt;University Of Aberdeen -->
<g id="edge44" class="edge"><title>University Of Aberdeen&#45;&gt;University Of Aberdeen</title>
<path fill="none" stroke="black" stroke-width="0.7" d="M3449.87,-3834.36C3460.43,-3833.38 3467.51,-3831.36 3467.51,-3828.3 3467.51,-3826.1 3463.85,-3824.44 3457.87,-3823.32"/>
<polygon fill="black" stroke="black" stroke-width="0.7" points="3449.87,-3822.24 3458.28,-3819.74 3453.84,-3822.78 3457.8,-3823.31 3457.8,-3823.31 3457.8,-3823.31 3453.84,-3822.78 3457.32,-3826.88 3449.87,-3822.24 3449.87,-3822.24"/>
</g>
<!-- University Of Oxford -->
<g id="node25" class="node"><title>University Of Oxford</title>
<polygon fill="none" stroke="black" points="3442.51,-4031.55 3308.51,-4031.55 3308.51,-3995.55 3442.51,-3995.55 3442.51,-4031.55"/>
<text text-anchor="middle" x="3375.51" y="-4009.85" font-family="Times,serif" font-size="14.00">University Of Oxford</text>
</g>
<!-- University Of Aberdeen&#45;&gt;University Of Oxford -->
<g id="edge45" class="edge"><title>University Of Aberdeen&#45;&gt;University Of Oxford</title>
<path fill="none" stroke="black" stroke-width="0.7" d="M3371.3,-3846.4C3368.15,-3879.33 3367.93,-3949.13 3370.63,-3987.29"/>
<polygon fill="black" stroke="black" stroke-width="0.7" points="3371.29,-3995.37 3367.05,-3987.7 3370.97,-3991.39 3370.64,-3987.4 3370.64,-3987.4 3370.64,-3987.4 3370.97,-3991.39 3374.23,-3987.11 3371.29,-3995.37 3371.29,-3995.37"/>
</g>
<!-- University Of Edinburgh -->
<g id="node26" class="node"><title>University Of Edinburgh</title>
<polygon fill="none" stroke="black" points="3611.94,-3938.92 3459.94,-3938.92 3459.94,-3902.92 3611.94,-3902.92 3611.94,-3938.92"/>
<text text-anchor="middle" x="3535.94" y="-3917.22" font-family="Times,serif" font-size="14.00">University Of Edinburgh</text>
</g>
<!-- University Of Aberdeen&#45;&gt;University Of Edinburgh -->
<g id="edge46" class="edge"><title>University Of Aberdeen&#45;&gt;University Of Edinburgh</title>
<path fill="none" stroke="black" stroke-width="0.7" d="M3406.82,-3846.38C3432.77,-3861.36 3469.76,-3882.72 3497.5,-3898.73"/>
<polygon fill="black" stroke="black" stroke-width="0.7" points="3504.71,-3902.89 3495.98,-3902.01 3501.24,-3900.89 3497.78,-3898.89 3497.78,-3898.89 3497.78,-3898.89 3501.24,-3900.89 3499.58,-3895.77 3504.71,-3902.89 3504.71,-3902.89"/>
</g>
<!-- University Of Oxford&#45;&gt;University Of Aberdeen -->
<g id="edge47" class="edge"><title>University Of Oxford&#45;&gt;University Of Aberdeen</title>
<path fill="none" stroke="black" stroke-width="0.7" d="M3379.72,-3995.45C3382.87,-3962.52 3383.09,-3892.72 3380.39,-3854.56"/>
<polygon fill="black" stroke="black" stroke-width="0.7" points="3379.73,-3846.47 3383.97,-3854.15 3380.06,-3850.46 3380.38,-3854.45 3380.38,-3854.45 3380.38,-3854.45 3380.06,-3850.46 3376.79,-3854.74 3379.73,-3846.47 3379.73,-3846.47"/>
</g>
<!-- University Of Oxford&#45;&gt;University Of Oxford -->
<g id="edge48" class="edge"><title>University Of Oxford&#45;&gt;University Of Oxford</title>
<path fill="none" stroke="black" stroke-width="0.7" d="M3442.85,-4019.73C3453.35,-4018.81 3460.51,-4016.75 3460.51,-4013.55 3460.51,-4011.25 3456.81,-4009.54 3450.83,-4008.41"/>
<polygon fill="black" stroke="black" stroke-width="0.7" points="3442.85,-4007.36 3451.25,-4004.84 3446.81,-4007.88 3450.78,-4008.4 3450.78,-4008.4 3450.78,-4008.4 3446.81,-4007.88 3450.31,-4011.97 3442.85,-4007.36 3442.85,-4007.36"/>
</g>
<!-- University Of Oxford&#45;&gt;University Of Edinburgh -->
<g id="edge49" class="edge"><title>University Of Oxford&#45;&gt;University Of Edinburgh</title>
<path fill="none" stroke="black" stroke-width="0.7" d="M3406.82,-3995.47C3432.77,-3980.49 3469.76,-3959.13 3497.5,-3943.11"/>
<polygon fill="black" stroke="black" stroke-width="0.7" points="3504.71,-3938.96 3499.58,-3946.07 3501.24,-3940.96 3497.78,-3942.96 3497.78,-3942.96 3497.78,-3942.96 3501.24,-3940.96 3495.98,-3939.84 3504.71,-3938.96 3504.71,-3938.96"/>
</g>
<!-- Universität Zu Köln&#45;&gt;Universität Altdorf -->
<g id="edge112" class="edge"><title>Universität Zu Köln&#45;&gt;Universität Altdorf</title>
<path fill="none" stroke="black" stroke-width="0.7" d="M2623.18,-3556.97C2559.36,-3582.4 2443.1,-3628.72 2375.39,-3655.7"/>
<polygon fill="black" stroke="black" stroke-width="0.7" points="2367.78,-3658.73 2373.88,-3652.43 2371.5,-3657.25 2375.21,-3655.77 2375.21,-3655.77 2375.21,-3655.77 2371.5,-3657.25 2376.55,-3659.12 2367.78,-3658.73 2367.78,-3658.73"/>
</g>
<!-- Universität Zu Köln&#45;&gt;Universiteit Leiden -->
<g id="edge50" class="edge"><title>Universität Zu Köln&#45;&gt;Universiteit Leiden</title>
<path fill="none" stroke="black" stroke-width="1.6" d="M2605.37,-3549.29C2415.57,-3580.41 1850.31,-3673.08 1652.64,-3705.48"/>
<polygon fill="black" stroke="black" stroke-width="1.6" points="1644.64,-3706.8 1651.95,-3701.95 1648.54,-3705.85 1652.48,-3705.21 1652.53,-3705.5 1652.58,-3705.8 1648.63,-3706.44 1653.11,-3709.05 1644.64,-3706.8 1644.64,-3706.8"/>
</g>
<!-- Universität Zu Köln&#45;&gt;Université Catholique De Louvain -->
<g id="edge51" class="edge"><title>Universität Zu Köln&#45;&gt;Université Catholique De Louvain</title>
<path fill="none" stroke="black" stroke-width="0.7" d="M2657.53,-3520.91C2517.88,-3288.81 1075.56,-891.656 911.104,-618.33"/>
<polygon fill="black" stroke="black" stroke-width="0.7" points="906.823,-611.214 914.032,-616.213 908.885,-614.641 910.947,-618.069 910.947,-618.069 910.947,-618.069 908.885,-614.641 907.863,-619.925 906.823,-611.214 906.823,-611.214"/>
</g>
<!-- Universität Zu Köln&#45;&gt;Université De Caen -->
<g id="edge71" class="edge"><title>Universität Zu Köln&#45;&gt;Université De Caen</title>
<path fill="none" stroke="black" stroke-width="0.7" d="M2685.6,-3520.79C2785.26,-3415.58 3287.79,-2885.07 3401.54,-2764.99"/>
<polygon fill="black" stroke="black" stroke-width="0.7" points="3407.26,-2758.94 3404.38,-2767.22 3404.51,-2761.84 3401.76,-2764.75 3401.76,-2764.75 3401.76,-2764.75 3404.51,-2761.84 3399.15,-2762.27 3407.26,-2758.94 3407.26,-2758.94"/>
</g>
<!-- Université Catholique De Louvain&#45;&gt;Universiteit Leiden -->
<g id="edge52" class="edge"><title>Université Catholique De Louvain&#45;&gt;Universiteit Leiden</title>
<path fill="none" stroke="black" stroke-width="1.6" d="M899.897,-611.337C953.057,-852.843 1514.24,-3402.31 1577.65,-3690.38"/>
<polygon fill="black" stroke="black" stroke-width="1.6" points="1579.46,-3698.6 1574.22,-3691.56 1578.3,-3694.76 1577.44,-3690.85 1577.74,-3690.79 1578.03,-3690.72 1578.89,-3694.63 1581.25,-3690.01 1579.46,-3698.6 1579.46,-3698.6"/>
</g>
<!-- Université Catholique De Louvain&#45;&gt;Martin&#45;Luther&#45;Universität Halle&#45;Wittenberg -->
<g id="edge60" class="edge"><title>Université Catholique De Louvain&#45;&gt;Martin&#45;Luther&#45;Universität Halle&#45;Wittenberg</title>
<path fill="none" stroke="black" stroke-width="0.7" d="M874.533,-611.107C823.903,-654.112 696.478,-762.348 639.917,-810.391"/>
<polygon fill="black" stroke="black" stroke-width="0.7" points="633.702,-815.671 637.469,-807.748 636.75,-813.081 639.799,-810.491 639.799,-810.491 639.799,-810.491 636.75,-813.081 642.13,-813.235 633.702,-815.671 633.702,-815.671"/>
</g>
<!-- Université Catholique De Louvain&#45;&gt;Università Di Padova -->
<g id="edge59" class="edge"><title>Université Catholique De Louvain&#45;&gt;Università Di Padova</title>
<path fill="none" stroke="black" stroke-width="1.4" d="M951.527,-574.958C1084.56,-526.21 1418.76,-392.954 1539.28,-340.477"/>
<polygon fill="black" stroke="black" stroke-width="1.4" points="1546.9,-337.139 1541.02,-343.645 1543.32,-338.926 1539.65,-340.53 1539.57,-340.347 1539.49,-340.164 1543.16,-338.56 1538.13,-337.049 1546.9,-337.139 1546.9,-337.139"/>
</g>
<!-- Université Catholique De Louvain&#45;&gt;Universiteit Franeker -->
<g id="edge58" class="edge"><title>Université Catholique De Louvain&#45;&gt;Universiteit Franeker</title>
<path fill="none" stroke="black" stroke-width="0.7" d="M929.819,-574.988C990.506,-542.813 1117.36,-475.558 1183.17,-440.671"/>
<polygon fill="black" stroke="black" stroke-width="0.7" points="1190.5,-436.785 1185.12,-443.713 1186.96,-438.659 1183.43,-440.532 1183.43,-440.532 1183.43,-440.532 1186.96,-438.659 1181.74,-437.352 1190.5,-436.785 1190.5,-436.785"/>
</g>
<!-- Université Catholique De Louvain&#45;&gt;Université Catholique De Louvain -->
<g id="edge53" class="edge"><title>Université Catholique De Louvain&#45;&gt;Université Catholique De Louvain</title>
<path fill="none" stroke="black" stroke-width="0.7" d="M998.277,-598.585C1008.99,-597.493 1015.86,-595.629 1015.86,-592.992 1015.86,-591.097 1012.31,-589.601 1006.34,-588.504"/>
<polygon fill="black" stroke="black" stroke-width="0.7" points="998.277,-587.399 1006.69,-584.919 1002.24,-587.942 1006.2,-588.486 1006.2,-588.486 1006.2,-588.486 1002.24,-587.942 1005.71,-592.052 998.277,-587.399 998.277,-587.399"/>
</g>
<!-- Collège De France -->
<g id="node29" class="node"><title>Collège De France</title>
<polygon fill="none" stroke="black" points="1446.09,-4413.52 1327.09,-4413.52 1327.09,-4377.52 1446.09,-4377.52 1446.09,-4413.52"/>
<text text-anchor="middle" x="1386.59" y="-4391.82" font-family="Times,serif" font-size="14.00">Collège De France</text>
</g>
<!-- Collège De France&#45;&gt;Universiteit Leiden -->
<g id="edge64" class="edge"><title>Collège De France&#45;&gt;Universiteit Leiden</title>
<path fill="none" stroke="black" stroke-width="1.1" d="M1391.86,-4377.37C1419.06,-4283.58 1543.67,-3854.01 1575.86,-3743.05"/>
<polygon fill="black" stroke="black" stroke-width="1.1" points="1578.18,-3735.03 1579.41,-3743.72 1577.12,-3738.89 1576,-3742.73 1575.96,-3742.72 1575.91,-3742.7 1577.02,-3738.86 1572.5,-3741.71 1578.18,-3735.03 1578.18,-3735.03"/>
</g>
<!-- University Of Pavia -->
<g id="node30" class="node"><title>University Of Pavia</title>
<polygon fill="none" stroke="black" points="1260.58,-4367.92 1135.58,-4367.92 1135.58,-4331.92 1260.58,-4331.92 1260.58,-4367.92"/>
<text text-anchor="middle" x="1198.08" y="-4346.22" font-family="Times,serif" font-size="14.00">University Of Pavia</text>
</g>
<!-- University Of Pavia&#45;&gt;Universiteit Leiden -->
<g id="edge65" class="edge"><title>University Of Pavia&#45;&gt;Universiteit Leiden</title>
<path fill="none" stroke="black" stroke-width="0.7" d="M1209.2,-4331.65C1263.97,-4241.67 1505.04,-3845.65 1568.25,-3741.82"/>
<polygon fill="black" stroke="black" stroke-width="0.7" points="1572.49,-3734.86 1571.4,-3743.56 1570.41,-3738.28 1568.33,-3741.69 1568.33,-3741.69 1568.33,-3741.69 1570.41,-3738.28 1565.25,-3739.82 1572.49,-3734.86 1572.49,-3734.86"/>
</g>
<!-- Université De Caen&#45;&gt;Universiteit Leiden -->
<g id="edge74" class="edge"><title>Université De Caen&#45;&gt;Universiteit Leiden</title>
<path fill="none" stroke="black" stroke-width="1.1" d="M3390.13,-2758.99C3162.61,-2879.61 1873.5,-3563.06 1624.94,-3694.83"/>
<polygon fill="black" stroke="black" stroke-width="1.1" points="1617.55,-3698.75 1622.94,-3691.82 1621.06,-3696.83 1624.6,-3694.96 1624.62,-3695 1624.65,-3695.05 1621.11,-3696.92 1626.31,-3698.19 1617.55,-3698.75 1617.55,-3698.75"/>
</g>
<!-- Université De Caen&#45;&gt;Université D&#39;Angers -->
<g id="edge76" class="edge"><title>Université De Caen&#45;&gt;Université D&#39;Angers</title>
<path fill="none" stroke="black" stroke-width="0.7" d="M3430.67,-2722.33C3450.41,-2663.74 3511.66,-2481.98 3534.56,-2414.01"/>
<polygon fill="black" stroke="black" stroke-width="0.7" points="3537.15,-2406.3 3538.01,-2415.03 3535.88,-2410.09 3534.6,-2413.88 3534.6,-2413.88 3534.6,-2413.88 3535.88,-2410.09 3531.19,-2412.73 3537.15,-2406.3 3537.15,-2406.3"/>
</g>
<!-- Université De Caen&#45;&gt;Université De Poitiers -->
<g id="edge75" class="edge"><title>Université De Caen&#45;&gt;Université De Poitiers</title>
<path fill="none" stroke="black" stroke-width="0.7" d="M3413.58,-2758.86C3381.2,-2812.68 3285.28,-2972.1 3247.79,-3034.41"/>
<polygon fill="black" stroke="black" stroke-width="0.7" points="3243.51,-3041.52 3244.55,-3032.81 3245.57,-3038.09 3247.64,-3034.66 3247.64,-3034.66 3247.64,-3034.66 3245.57,-3038.09 3250.72,-3036.52 3243.51,-3041.52 3243.51,-3041.52"/>
</g>
<!-- Universität Erfurt&#45;&gt;Friedrich&#45;Schiller&#45;Universität Jena -->
<g id="edge115" class="edge"><title>Universität Erfurt&#45;&gt;Friedrich&#45;Schiller&#45;Universität Jena</title>
<path fill="none" stroke="black" stroke-width="0.7" d="M228.549,-1486.41C217.771,-1585.51 166.144,-2060.21 153.366,-2177.71"/>
<polygon fill="black" stroke="black" stroke-width="0.7" points="152.481,-2185.85 149.767,-2177.5 152.913,-2181.87 153.346,-2177.89 153.346,-2177.89 153.346,-2177.89 152.913,-2181.87 156.925,-2178.28 152.481,-2185.85 152.481,-2185.85"/>
</g>
<!-- Universität Erfurt&#45;&gt;Martin&#45;Luther&#45;Universität Halle&#45;Wittenberg -->
<g id="edge130" class="edge"><title>Universität Erfurt&#45;&gt;Martin&#45;Luther&#45;Universität Halle&#45;Wittenberg</title>
<path fill="none" stroke="black" stroke-width="0.7" d="M244.321,-1450.2C304.635,-1360.7 543.029,-964.66 599.978,-859.616"/>
<polygon fill="black" stroke="black" stroke-width="0.7" points="603.907,-852.286 603.301,-861.038 602.017,-855.812 600.128,-859.337 600.128,-859.337 600.128,-859.337 602.017,-855.812 596.955,-857.637 603.907,-852.286 603.907,-852.286"/>
</g>
<!-- Universität Erfurt&#45;&gt;Europa&#45;Universität Viadrina Frankfurt An Der Oder -->
<g id="edge131" class="edge"><title>Universität Erfurt&#45;&gt;Europa&#45;Universität Viadrina Frankfurt An Der Oder</title>
<path fill="none" stroke="black" stroke-width="0.7" d="M226.559,-1486.25C213.466,-1545.73 171.605,-1735.91 156.232,-1805.75"/>
<polygon fill="black" stroke="black" stroke-width="0.7" points="154.493,-1813.65 152.697,-1805.06 155.352,-1809.74 156.212,-1805.84 156.212,-1805.84 156.212,-1805.84 155.352,-1809.74 159.728,-1806.61 154.493,-1813.65 154.493,-1813.65"/>
</g>
<!-- Université Paris Iv&#45;Sorbonne -->
<g id="node34" class="node"><title>Université Paris Iv&#45;Sorbonne</title>
<polygon fill="none" stroke="black" points="1075.14,-4297.45 900.142,-4297.45 900.142,-4261.45 1075.14,-4261.45 1075.14,-4297.45"/>
<text text-anchor="middle" x="987.642" y="-4275.75" font-family="Times,serif" font-size="14.00">Université Paris Iv&#45;Sorbonne</text>
</g>
<!-- Université Paris Iv&#45;Sorbonne&#45;&gt;Universiteit Leiden -->
<g id="edge79" class="edge"><title>Université Paris Iv&#45;Sorbonne&#45;&gt;Universiteit Leiden</title>
<path fill="none" stroke="black" stroke-width="0.7" d="M1006.79,-4261.36C1094.69,-4178.37 1459.41,-3833.96 1558.52,-3740.38"/>
<polygon fill="black" stroke="black" stroke-width="0.7" points="1564.39,-3734.84 1561.04,-3742.95 1561.48,-3737.59 1558.57,-3740.33 1558.57,-3740.33 1558.57,-3740.33 1561.48,-3737.59 1556.1,-3737.71 1564.39,-3734.84 1564.39,-3734.84"/>
</g>
<!-- Philipps&#45;Universität Marburg -->
<g id="node36" class="node"><title>Philipps&#45;Universität Marburg</title>
<polygon fill="none" stroke="black" points="3321.02,-994.069 3144.02,-994.069 3144.02,-958.069 3321.02,-958.069 3321.02,-994.069"/>
<text text-anchor="middle" x="3232.52" y="-972.369" font-family="Times,serif" font-size="14.00">Philipps&#45;Universität Marburg</text>
</g>
<!-- Philipps&#45;Universität Marburg&#45;&gt;Universiteit Leiden -->
<g id="edge92" class="edge"><title>Philipps&#45;Universität Marburg&#45;&gt;Universiteit Leiden</title>
<path fill="none" stroke="black" stroke-width="0.7" d="M3221.56,-994.295C3087,-1217.93 1756.78,-3428.78 1598.78,-3691.37"/>
<polygon fill="black" stroke="black" stroke-width="0.7" points="1594.45,-3698.57 1595.49,-3689.86 1596.51,-3695.14 1598.57,-3691.72 1598.57,-3691.72 1598.57,-3691.72 1596.51,-3695.14 1601.66,-3693.57 1594.45,-3698.57 1594.45,-3698.57"/>
</g>
<!-- Philipps&#45;Universität Marburg&#45;&gt;University Of St. Andrews -->
<g id="edge93" class="edge"><title>Philipps&#45;Universität Marburg&#45;&gt;University Of St. Andrews</title>
<path fill="none" stroke="black" stroke-width="0.7" d="M3243.39,-994.133C3275.78,-1047.96 3371.7,-1207.38 3409.19,-1269.69"/>
<polygon fill="black" stroke="black" stroke-width="0.7" points="3413.46,-1276.79 3406.25,-1271.79 3411.4,-1273.36 3409.34,-1269.94 3409.34,-1269.94 3409.34,-1269.94 3411.4,-1273.36 3412.42,-1268.08 3413.46,-1276.79 3413.46,-1276.79"/>
</g>
<!-- Philipps&#45;Universität Marburg&#45;&gt;Universität Helmstedt -->
<g id="edge94" class="edge"><title>Philipps&#45;Universität Marburg&#45;&gt;Universität Helmstedt</title>
<path fill="none" stroke="black" stroke-width="0.7" d="M3211.1,-957.87C3123.66,-883.597 2793.84,-603.445 2695.94,-520.294"/>
<polygon fill="black" stroke="black" stroke-width="0.7" points="2689.84,-515.106 2698.26,-517.541 2692.89,-517.695 2695.93,-520.285 2695.93,-520.285 2695.93,-520.285 2692.89,-517.695 2693.6,-523.029 2689.84,-515.106 2689.84,-515.106"/>
</g>
<!-- Evangelischen Stift Tübingen -->
<g id="node37" class="node"><title>Evangelischen Stift Tübingen</title>
<polygon fill="none" stroke="black" points="2591.15,-4341.58 2413.15,-4341.58 2413.15,-4305.58 2591.15,-4305.58 2591.15,-4341.58"/>
<text text-anchor="middle" x="2502.15" y="-4319.88" font-family="Times,serif" font-size="14.00">Evangelischen Stift Tübingen</text>
</g>
<!-- Evangelischen Stift Tübingen&#45;&gt;Universität Altdorf -->
<g id="edge96" class="edge"><title>Evangelischen Stift Tübingen&#45;&gt;Universität Altdorf</title>
<path fill="none" stroke="black" stroke-width="0.7" d="M2497.06,-4305.27C2471.75,-4214.1 2359.38,-3809.38 2329.74,-3702.63"/>
<polygon fill="black" stroke="black" stroke-width="0.7" points="2327.6,-3694.91 2333.21,-3701.65 2328.67,-3698.76 2329.74,-3702.62 2329.74,-3702.62 2329.74,-3702.62 2328.67,-3698.76 2326.27,-3703.58 2327.6,-3694.91 2327.6,-3694.91"/>
</g>
<!-- Justus&#45;Liebig&#45;Universität Gießen -->
<g id="node38" class="node"><title>Justus&#45;Liebig&#45;Universität Gießen</title>
<polygon fill="none" stroke="black" points="959.487,-3845.92 762.487,-3845.92 762.487,-3809.92 959.487,-3809.92 959.487,-3845.92"/>
<text text-anchor="middle" x="860.987" y="-3824.22" font-family="Times,serif" font-size="14.00">Justus&#45;Liebig&#45;Universität Gießen</text>
</g>
<!-- Justus&#45;Liebig&#45;Universität Gießen&#45;&gt;Justus&#45;Liebig&#45;Universität Gießen -->
<g id="edge97" class="edge"><title>Justus&#45;Liebig&#45;Universität Gießen&#45;&gt;Justus&#45;Liebig&#45;Universität Gießen</title>
<path fill="none" stroke="black" stroke-width="0.7" d="M959.578,-3833.6C970.461,-3832.52 977.487,-3830.63 977.487,-3827.92 977.487,-3825.98 973.857,-3824.45 967.775,-3823.35"/>
<polygon fill="black" stroke="black" stroke-width="0.7" points="959.578,-3822.25 967.987,-3819.75 963.542,-3822.78 967.506,-3823.31 967.506,-3823.31 967.506,-3823.31 963.542,-3822.78 967.026,-3826.88 959.578,-3822.25 959.578,-3822.25"/>
</g>
<!-- Europa&#45;Universität Viadrina Frankfurt An Der Oder&#45;&gt;Martin&#45;Luther&#45;Universität Halle&#45;Wittenberg -->
<g id="edge101" class="edge"><title>Europa&#45;Universität Viadrina Frankfurt An Der Oder&#45;&gt;Martin&#45;Luther&#45;Universität Halle&#45;Wittenberg</title>
<path fill="none" stroke="black" stroke-width="0.7" d="M158.906,-1813.62C214.975,-1692.43 534.523,-1001.74 600.293,-859.578"/>
<polygon fill="black" stroke="black" stroke-width="0.7" points="603.747,-852.111 603.655,-860.883 602.068,-855.741 600.388,-859.371 600.388,-859.371 600.388,-859.371 602.068,-855.741 597.121,-857.86 603.747,-852.111 603.747,-852.111"/>
</g>
<!-- Università Di Pisa&#45;&gt;University Of Cambridge -->
<g id="edge120" class="edge"><title>Università Di Pisa&#45;&gt;University Of Cambridge</title>
<path fill="none" stroke="black" stroke-width="0.7" d="M2264.35,-349.554C2204.37,-339.721 2110.2,-324.283 2041.55,-313.027"/>
<polygon fill="black" stroke="black" stroke-width="0.7" points="2033.31,-311.676 2041.78,-309.418 2037.25,-312.323 2041.2,-312.97 2041.2,-312.97 2041.2,-312.97 2037.25,-312.323 2040.62,-316.523 2033.31,-311.676 2033.31,-311.676"/>
</g>
<!-- Università Di Pisa&#45;&gt;Università Di Padova -->
<g id="edge122" class="edge"><title>Università Di Pisa&#45;&gt;Università Di Padova</title>
<path fill="none" stroke="black" stroke-width="0.7" d="M2264.46,-352.09C2131.77,-341.173 1806.52,-323.396 1658.73,-318.821"/>
<polygon fill="black" stroke="black" stroke-width="0.7" points="1650.54,-318.576 1658.65,-315.217 1654.54,-318.696 1658.54,-318.815 1658.54,-318.815 1658.54,-318.815 1654.54,-318.696 1658.43,-322.414 1650.54,-318.576 1650.54,-318.576"/>
</g>
<!-- Università Di Pisa&#45;&gt;Universität Helmstedt -->
<g id="edge104" class="edge"><title>Università Di Pisa&#45;&gt;Universität Helmstedt</title>
<path fill="none" stroke="black" stroke-width="0.7" d="M2367.77,-377.111C2431.59,-402.538 2547.84,-448.859 2615.56,-475.839"/>
<polygon fill="black" stroke="black" stroke-width="0.7" points="2623.17,-478.87 2614.4,-479.253 2619.45,-477.389 2615.73,-475.909 2615.73,-475.909 2615.73,-475.909 2619.45,-477.389 2617.07,-472.565 2623.17,-478.87 2623.17,-478.87"/>
</g>
<!-- Università Di Pisa&#45;&gt;Università Di Pisa -->
<g id="edge121" class="edge"><title>Università Di Pisa&#45;&gt;Università Di Pisa</title>
<path fill="none" stroke="black" stroke-width="0.7" d="M2380.87,-365.451C2391.28,-364.625 2398.56,-362.507 2398.56,-359.097 2398.56,-356.646 2394.8,-354.862 2388.82,-353.746"/>
<polygon fill="black" stroke="black" stroke-width="0.7" points="2380.87,-352.743 2389.26,-350.173 2384.84,-353.244 2388.81,-353.745 2388.81,-353.745 2388.81,-353.745 2384.84,-353.244 2388.36,-357.316 2380.87,-352.743 2380.87,-352.743"/>
</g>
<!-- Università Di Bologna -->
<g id="node46" class="node"><title>Università Di Bologna</title>
<polygon fill="none" stroke="black" points="2430.55,-240.273 2290.55,-240.273 2290.55,-204.273 2430.55,-204.273 2430.55,-240.273"/>
<text text-anchor="middle" x="2360.55" y="-218.573" font-family="Times,serif" font-size="14.00">Università Di Bologna</text>
</g>
<!-- Università Di Pisa&#45;&gt;Università Di Bologna -->
<g id="edge134" class="edge"><title>Università Di Pisa&#45;&gt;Università Di Bologna</title>
<path fill="none" stroke="black" stroke-width="0.7" d="M2327.6,-340.928C2334.19,-317.211 2345.76,-275.542 2353.29,-248.428"/>
<polygon fill="black" stroke="black" stroke-width="0.7" points="2355.48,-240.517 2356.81,-249.188 2354.41,-244.371 2353.34,-248.225 2353.34,-248.225 2353.34,-248.225 2354.41,-244.371 2349.87,-247.262 2355.48,-240.517 2355.48,-240.517"/>
</g>
<!-- Universität Viadrina Frankfurt An Der Oder -->
<g id="node41" class="node"><title>Universität Viadrina Frankfurt An Der Oder</title>
<polygon fill="none" stroke="black" points="3671.82,-1665.84 3414.82,-1665.84 3414.82,-1629.84 3671.82,-1629.84 3671.82,-1665.84"/>
<text text-anchor="middle" x="3543.32" y="-1644.14" font-family="Times,serif" font-size="14.00">Universität Viadrina Frankfurt An Der Oder</text>
</g>
<!-- Universität Viadrina Frankfurt An Der Oder&#45;&gt;Universiteit Leiden -->
<g id="edge105" class="edge"><title>Universität Viadrina Frankfurt An Der Oder&#45;&gt;Universiteit Leiden</title>
<path fill="none" stroke="black" stroke-width="0.7" d="M3526.08,-1666.04C3346,-1856.14 1811.92,-3475.65 1606.23,-3692.79"/>
<polygon fill="black" stroke="black" stroke-width="0.7" points="1600.54,-3698.8 1603.43,-3690.52 1603.29,-3695.9 1606.04,-3692.99 1606.04,-3692.99 1606.04,-3692.99 1603.29,-3695.9 1608.65,-3695.47 1600.54,-3698.8 1600.54,-3698.8"/>
</g>
<!-- Universität Viadrina Frankfurt An Der Oder&#45;&gt;University Of St. Andrews -->
<g id="edge106" class="edge"><title>Universität Viadrina Frankfurt An Der Oder&#45;&gt;University Of St. Andrews</title>
<path fill="none" stroke="black" stroke-width="0.7" d="M3537.09,-1629.37C3517.35,-1570.78 3456.11,-1389.02 3433.21,-1321.05"/>
<polygon fill="black" stroke="black" stroke-width="0.7" points="3430.61,-1313.34 3436.58,-1319.77 3431.89,-1317.13 3433.17,-1320.92 3433.17,-1320.92 3433.17,-1320.92 3431.89,-1317.13 3429.75,-1322.07 3430.61,-1313.34 3430.61,-1313.34"/>
</g>
<!-- Universität Viadrina Frankfurt An Der Oder&#45;&gt;Universität Helmstedt -->
<g id="edge107" class="edge"><title>Universität Viadrina Frankfurt An Der Oder&#45;&gt;Universität Helmstedt</title>
<path fill="none" stroke="black" stroke-width="0.7" d="M3529.57,-1629.76C3428.78,-1497.16 2804.35,-675.737 2687.29,-521.75"/>
<polygon fill="black" stroke="black" stroke-width="0.7" points="2682.1,-514.927 2689.81,-519.117 2684.52,-518.112 2686.94,-521.296 2686.94,-521.296 2686.94,-521.296 2684.52,-518.112 2684.08,-523.475 2682.1,-514.927 2682.1,-514.927"/>
</g>
<!-- Universität Breslau -->
<g id="node42" class="node"><title>Universität Breslau</title>
<polygon fill="none" stroke="black" points="3037.51,-723.802 2915.51,-723.802 2915.51,-687.802 3037.51,-687.802 3037.51,-723.802"/>
<text text-anchor="middle" x="2976.51" y="-702.102" font-family="Times,serif" font-size="14.00">Universität Breslau</text>
</g>
<!-- Universität Breslau&#45;&gt;Universiteit Leiden -->
<g id="edge108" class="edge"><title>Universität Breslau&#45;&gt;Universiteit Leiden</title>
<path fill="none" stroke="black" stroke-width="0.7" d="M2968.16,-723.865C2859.46,-958.814 1724.79,-3411.36 1595.45,-3690.92"/>
<polygon fill="black" stroke="black" stroke-width="0.7" points="1591.92,-3698.55 1592.01,-3689.78 1593.6,-3694.92 1595.28,-3691.29 1595.28,-3691.29 1595.28,-3691.29 1593.6,-3694.92 1598.55,-3692.8 1591.92,-3698.55 1591.92,-3698.55"/>
</g>
<!-- Universität Breslau&#45;&gt;University Of St. Andrews -->
<g id="edge109" class="edge"><title>Universität Breslau&#45;&gt;University Of St. Andrews</title>
<path fill="none" stroke="black" stroke-width="0.7" d="M2990.41,-724.083C3055.59,-809.829 3330.99,-1172.1 3405.69,-1270.37"/>
<polygon fill="black" stroke="black" stroke-width="0.7" points="3410.71,-1276.98 3403.01,-1272.79 3408.29,-1273.8 3405.87,-1270.62 3405.87,-1270.62 3405.87,-1270.62 3408.29,-1273.8 3408.74,-1268.44 3410.71,-1276.98 3410.71,-1276.98"/>
</g>
<!-- Universität Breslau&#45;&gt;Universität Helmstedt -->
<g id="edge110" class="edge"><title>Universität Breslau&#45;&gt;Universität Helmstedt</title>
<path fill="none" stroke="black" stroke-width="0.7" d="M2949.71,-687.628C2893.6,-649.584 2763.88,-561.63 2702.17,-519.795"/>
<polygon fill="black" stroke="black" stroke-width="0.7" points="2695.35,-515.169 2703.99,-516.679 2698.66,-517.414 2701.97,-519.659 2701.97,-519.659 2701.97,-519.659 2698.66,-517.414 2699.95,-522.639 2695.35,-515.169 2695.35,-515.169"/>
</g>
<!-- Collège Saint&#45;Guillaume À Strasbourg -->
<g id="node43" class="node"><title>Collège Saint&#45;Guillaume À Strasbourg</title>
<polygon fill="none" stroke="black" points="852.641,-4184.66 624.641,-4184.66 624.641,-4148.66 852.641,-4148.66 852.641,-4184.66"/>
<text text-anchor="middle" x="738.641" y="-4162.96" font-family="Times,serif" font-size="14.00">Collège Saint&#45;Guillaume À Strasbourg</text>
</g>
<!-- Collège Saint&#45;Guillaume À Strasbourg&#45;&gt;Universiteit Leiden -->
<g id="edge119" class="edge"><title>Collège Saint&#45;Guillaume À Strasbourg&#45;&gt;Universiteit Leiden</title>
<path fill="none" stroke="black" stroke-width="0.7" d="M772.542,-4148.61C906.178,-4077.45 1396.29,-3816.49 1542.21,-3738.79"/>
<polygon fill="black" stroke="black" stroke-width="0.7" points="1549.3,-3735.01 1543.94,-3741.95 1545.77,-3736.89 1542.24,-3738.77 1542.24,-3738.77 1542.24,-3738.77 1545.77,-3736.89 1540.55,-3735.6 1549.3,-3735.01 1549.3,-3735.01"/>
</g>
<!-- Università Di Messina -->
<g id="node45" class="node"><title>Università Di Messina</title>
<polygon fill="none" stroke="black" points="2487.26,-36 2347.26,-36 2347.26,2.55795e-13 2487.26,2.55795e-13 2487.26,-36"/>
<text text-anchor="middle" x="2417.26" y="-14.3" font-family="Times,serif" font-size="14.00">Università Di Messina</text>
</g>
<!-- Università Di Messina&#45;&gt;Università Di Bologna -->
<g id="edge128" class="edge"><title>Università Di Messina&#45;&gt;Università Di Bologna</title>
<path fill="none" stroke="black" stroke-width="0.7" d="M2412.23,-36.1278C2402.14,-72.4693 2379.41,-154.339 2367.75,-196.342"/>
<polygon fill="black" stroke="black" stroke-width="0.7" points="2365.57,-204.185 2364.24,-195.514 2366.64,-200.331 2367.71,-196.477 2367.71,-196.477 2367.71,-196.477 2366.64,-200.331 2371.18,-197.44 2365.57,-204.185 2365.57,-204.185"/>
</g>
</g>
</svg>
