<?xml version="1.0" encoding="UTF-8" standalone="no"?>
<!DOCTYPE svg PUBLIC "-//W3C//DTD SVG 1.1//EN"
 "http://www.w3.org/Graphics/SVG/1.1/DTD/svg11.dtd">
<!-- Generated by graphviz version 2.38.0 (20140413.2041)
 -->
<!-- Title: transition Pages: 1 -->
<svg width="6617pt" height="5068pt"
 viewBox="0.00 0.00 6617.38 5068.21" xmlns="http://www.w3.org/2000/svg" xmlns:xlink="http://www.w3.org/1999/xlink">
<g id="graph0" class="graph" transform="scale(1 1) rotate(0) translate(4 5064.21)">
<title>transition</title>
<polygon fill="white" stroke="none" points="-4,4 -4,-5064.21 6613.38,-5064.21 6613.38,4 -4,4"/>
<text text-anchor="middle" x="3304.69" y="-5045.01" font-family="Times,serif" font-size="14.00">Hiring network of Mathematics Ph.D.&#39;s between 1910 and 1940 (with threshold .50)</text>
<!-- Harvard University -->
<g id="node1" class="node"><title>Harvard University</title>
<polygon fill="none" stroke="black" points="2958.95,-3099.46 2836.95,-3099.46 2836.95,-3063.46 2958.95,-3063.46 2958.95,-3099.46"/>
<text text-anchor="middle" x="2897.95" y="-3077.76" font-family="Times,serif" font-size="14.00">Harvard University</text>
</g>
<!-- Harvard University&#45;&gt;Harvard University -->
<g id="edge114" class="edge"><title>Harvard University&#45;&gt;Harvard University</title>
<path fill="none" stroke="black" stroke-width="4.5" d="M2959.23,-3087.76C2969.7,-3086.9 2976.95,-3084.8 2976.95,-3081.46 2976.95,-3079.06 2973.2,-3077.3 2967.21,-3076.18"/>
<polygon fill="black" stroke="black" stroke-width="4.5" points="2959.23,-3075.16 2967.81,-3071.16 2963.42,-3073.93 2967.39,-3074.44 2967.16,-3076.18 2966.94,-3077.91 2962.97,-3077.41 2966.52,-3081.2 2959.23,-3075.16 2959.23,-3075.16"/>
</g>
<!-- University Of Minnesota&#45;Minneapolis -->
<g id="node2" class="node"><title>University Of Minnesota&#45;Minneapolis</title>
<polygon fill="none" stroke="black" points="2157.72,-3365.53 1931.72,-3365.53 1931.72,-3329.53 2157.72,-3329.53 2157.72,-3365.53"/>
<text text-anchor="middle" x="2044.72" y="-3343.83" font-family="Times,serif" font-size="14.00">University Of Minnesota&#45;Minneapolis</text>
</g>
<!-- Harvard University&#45;&gt;University Of Minnesota&#45;Minneapolis -->
<g id="edge1" class="edge"><title>Harvard University&#45;&gt;University Of Minnesota&#45;Minneapolis</title>
<path fill="none" stroke="black" d="M2839.97,-3099.54C2686.81,-3147.3 2272.09,-3276.63 2110.46,-3327.03"/>
<polygon fill="black" stroke="black" points="2102.49,-3329.51 2109.06,-3323.69 2106.31,-3328.32 2110.13,-3327.13 2110.13,-3327.13 2110.13,-3327.13 2106.31,-3328.32 2111.2,-3330.56 2102.49,-3329.51 2102.49,-3329.51"/>
</g>
<!-- Princeton University -->
<g id="node3" class="node"><title>Princeton University</title>
<polygon fill="none" stroke="black" points="6485.99,-2920.77 6356.99,-2920.77 6356.99,-2884.77 6485.99,-2884.77 6485.99,-2920.77"/>
<text text-anchor="middle" x="6421.49" y="-2899.07" font-family="Times,serif" font-size="14.00">Princeton University</text>
</g>
<!-- Harvard University&#45;&gt;Princeton University -->
<g id="edge42" class="edge"><title>Harvard University&#45;&gt;Princeton University</title>
<path fill="none" stroke="black" d="M2959.21,-3080.3C3383.92,-3065.12 5886.94,-2938.24 6348.38,-2908.6"/>
<polygon fill="black" stroke="black" points="6356.65,-2908.06 6348.9,-2912.17 6352.66,-2908.32 6348.67,-2908.58 6348.67,-2908.58 6348.67,-2908.58 6352.66,-2908.32 6348.44,-2904.98 6356.65,-2908.06 6356.65,-2908.06"/>
</g>
<!-- Lehigh University -->
<g id="node5" class="node"><title>Lehigh University</title>
<polygon fill="none" stroke="black" points="1948.61,-3026.11 1832.61,-3026.11 1832.61,-2990.11 1948.61,-2990.11 1948.61,-3026.11"/>
<text text-anchor="middle" x="1890.61" y="-3004.41" font-family="Times,serif" font-size="14.00">Lehigh University</text>
</g>
<!-- Harvard University&#45;&gt;Lehigh University -->
<g id="edge3" class="edge"><title>Harvard University&#45;&gt;Lehigh University</title>
<path fill="none" stroke="black" d="M2836.83,-3077.01C2658.74,-3064.05 2141.25,-3026.37 1956.84,-3012.94"/>
<polygon fill="black" stroke="black" points="1948.84,-3012.35 1957.08,-3009.35 1952.83,-3012.65 1956.82,-3012.94 1956.82,-3012.94 1956.82,-3012.94 1952.83,-3012.65 1956.56,-3016.53 1948.84,-3012.35 1948.84,-3012.35"/>
</g>
<!-- Cornell University -->
<g id="node6" class="node"><title>Cornell University</title>
<polygon fill="none" stroke="black" points="6337.35,-2224.22 6219.35,-2224.22 6219.35,-2188.22 6337.35,-2188.22 6337.35,-2224.22"/>
<text text-anchor="middle" x="6278.35" y="-2202.52" font-family="Times,serif" font-size="14.00">Cornell University</text>
</g>
<!-- Harvard University&#45;&gt;Cornell University -->
<g id="edge71" class="edge"><title>Harvard University&#45;&gt;Cornell University</title>
<path fill="none" stroke="black" stroke-width="1.7" d="M2959.28,-3067.63C3375.1,-2966.5 5777.73,-2344.45 6211.3,-2225.72"/>
<polygon fill="black" stroke="black" stroke-width="1.7" points="6219.07,-2223.59 6212.3,-2229.18 6215.3,-2224.99 6211.44,-2226.05 6211.35,-2225.71 6211.26,-2225.37 6215.12,-2224.31 6210.4,-2222.24 6219.07,-2223.59 6219.07,-2223.59"/>
</g>
<!-- Brown University -->
<g id="node10" class="node"><title>Brown University</title>
<polygon fill="none" stroke="black" points="6442.33,-2565.22 6328.33,-2565.22 6328.33,-2529.22 6442.33,-2529.22 6442.33,-2565.22"/>
<text text-anchor="middle" x="6385.33" y="-2543.52" font-family="Times,serif" font-size="14.00">Brown University</text>
</g>
<!-- Harvard University&#45;&gt;Brown University -->
<g id="edge89" class="edge"><title>Harvard University&#45;&gt;Brown University</title>
<path fill="none" stroke="black" stroke-width="2.8" d="M2959.22,-3072.08C3383.7,-3007.05 5883.03,-2624.17 6320.13,-2557.21"/>
<polygon fill="black" stroke="black" stroke-width="2.8" points="6328.25,-2555.96 6320.89,-2560.73 6324.43,-2557.46 6320.48,-2558.06 6320.34,-2557.17 6320.21,-2556.28 6324.16,-2555.68 6319.8,-2553.61 6328.25,-2555.96 6328.25,-2555.96"/>
</g>
<!-- Bryn Mawr College -->
<g id="node11" class="node"><title>Bryn Mawr College</title>
<polygon fill="none" stroke="black" points="6341.35,-3617.32 6215.35,-3617.32 6215.35,-3581.32 6341.35,-3581.32 6341.35,-3617.32"/>
<text text-anchor="middle" x="6278.35" y="-3595.62" font-family="Times,serif" font-size="14.00">Bryn Mawr College</text>
</g>
<!-- Harvard University&#45;&gt;Bryn Mawr College -->
<g id="edge79" class="edge"><title>Harvard University&#45;&gt;Bryn Mawr College</title>
<path fill="none" stroke="black" stroke-width="2.1" d="M2959.14,-3090.84C3373.32,-3154.29 5763.08,-3520.39 6207.29,-3588.44"/>
<polygon fill="black" stroke="black" stroke-width="2.1" points="6215.25,-3589.66 6206.8,-3592 6211.22,-3589.59 6207.26,-3588.99 6207.35,-3588.44 6207.43,-3587.9 6211.38,-3588.51 6207.89,-3584.89 6215.25,-3589.66 6215.25,-3589.66"/>
</g>
<!-- University Of Cincinnati -->
<g id="node12" class="node"><title>University Of Cincinnati</title>
<polygon fill="none" stroke="black" points="4288.46,-4630.69 4136.46,-4630.69 4136.46,-4594.69 4288.46,-4594.69 4288.46,-4630.69"/>
<text text-anchor="middle" x="4212.46" y="-4608.99" font-family="Times,serif" font-size="14.00">University Of Cincinnati</text>
</g>
<!-- Harvard University&#45;&gt;University Of Cincinnati -->
<g id="edge8" class="edge"><title>Harvard University&#45;&gt;University Of Cincinnati</title>
<path fill="none" stroke="black" d="M2913.63,-3099.73C3050.04,-3258.63 4034.33,-4405.19 4191.36,-4588.11"/>
<polygon fill="black" stroke="black" points="4196.8,-4594.45 4188.86,-4590.72 4194.2,-4591.41 4191.59,-4588.38 4191.59,-4588.38 4191.59,-4588.38 4194.2,-4591.41 4194.32,-4586.03 4196.8,-4594.45 4196.8,-4594.45"/>
</g>
<!-- Columbia University -->
<g id="node15" class="node"><title>Columbia University</title>
<polygon fill="none" stroke="black" points="5655,-1421.81 5524,-1421.81 5524,-1385.81 5655,-1385.81 5655,-1421.81"/>
<text text-anchor="middle" x="5589.5" y="-1400.11" font-family="Times,serif" font-size="14.00">Columbia University</text>
</g>
<!-- Harvard University&#45;&gt;Columbia University -->
<g id="edge36" class="edge"><title>Harvard University&#45;&gt;Columbia University</title>
<path fill="none" stroke="black" d="M2927.26,-3063.19C3197.6,-2894.69 5253.65,-1613.15 5553.15,-1426.46"/>
<polygon fill="black" stroke="black" points="5560.3,-1422.01 5555.42,-1429.29 5556.91,-1424.12 5553.51,-1426.24 5553.51,-1426.24 5553.51,-1426.24 5556.91,-1424.12 5551.61,-1423.18 5560.3,-1422.01 5560.3,-1422.01"/>
</g>
<!-- University Of Illinois At Urbana&#45;Champaign -->
<g id="node17" class="node"><title>University Of Illinois At Urbana&#45;Champaign</title>
<polygon fill="none" stroke="black" points="6003.11,-4200.97 5741.11,-4200.97 5741.11,-4164.97 6003.11,-4164.97 6003.11,-4200.97"/>
<text text-anchor="middle" x="5872.11" y="-4179.27" font-family="Times,serif" font-size="14.00">University Of Illinois At Urbana&#45;Champaign</text>
</g>
<!-- Harvard University&#45;&gt;University Of Illinois At Urbana&#45;Champaign -->
<g id="edge76" class="edge"><title>Harvard University&#45;&gt;University Of Illinois At Urbana&#45;Champaign</title>
<path fill="none" stroke="black" stroke-width="2.1" d="M2946.78,-3099.55C3298.39,-3229.77 5440.37,-4023.07 5815.93,-4162.17"/>
<polygon fill="black" stroke="black" stroke-width="2.1" points="5823.43,-4164.94 5814.68,-4165.54 5819.49,-4164.07 5815.74,-4162.68 5815.93,-4162.17 5816.12,-4161.65 5819.87,-4163.04 5817.18,-4158.79 5823.43,-4164.94 5823.43,-4164.94"/>
</g>
<!-- University Of Cambridge -->
<g id="node20" class="node"><title>University Of Cambridge</title>
<polygon fill="none" stroke="black" points="3188.83,-2063.58 3032.83,-2063.58 3032.83,-2027.58 3188.83,-2027.58 3188.83,-2063.58"/>
<text text-anchor="middle" x="3110.83" y="-2041.88" font-family="Times,serif" font-size="14.00">University Of Cambridge</text>
</g>
<!-- Harvard University&#45;&gt;University Of Cambridge -->
<g id="edge21" class="edge"><title>Harvard University&#45;&gt;University Of Cambridge</title>
<path fill="none" stroke="black" d="M2901.74,-3063.04C2927.36,-2938.36 3075.31,-2218.43 3105.46,-2071.69"/>
<polygon fill="black" stroke="black" points="3107.12,-2063.61 3109.04,-2072.17 3106.32,-2067.53 3105.51,-2071.45 3105.51,-2071.45 3105.51,-2071.45 3106.32,-2067.53 3101.99,-2070.72 3107.12,-2063.61 3107.12,-2063.61"/>
</g>
<!-- University Of Virginia -->
<g id="node22" class="node"><title>University Of Virginia</title>
<polygon fill="none" stroke="black" points="3180.83,-3777.96 3040.83,-3777.96 3040.83,-3741.96 3180.83,-3741.96 3180.83,-3777.96"/>
<text text-anchor="middle" x="3110.83" y="-3756.26" font-family="Times,serif" font-size="14.00">University Of Virginia</text>
</g>
<!-- Harvard University&#45;&gt;University Of Virginia -->
<g id="edge15" class="edge"><title>Harvard University&#45;&gt;University Of Virginia</title>
<path fill="none" stroke="black" d="M2903.64,-3099.61C2933.09,-3193.47 3068.07,-3623.67 3102.71,-3734.08"/>
<polygon fill="black" stroke="black" points="3105.12,-3741.76 3099.29,-3735.2 3103.92,-3737.94 3102.72,-3734.12 3102.72,-3734.12 3102.72,-3734.12 3103.92,-3737.94 3106.16,-3733.04 3105.12,-3741.76 3105.12,-3741.76"/>
</g>
<!-- University Of Michigan -->
<g id="node25" class="node"><title>University Of Michigan</title>
<polygon fill="none" stroke="black" points="3388.99,-4071.29 3240.99,-4071.29 3240.99,-4035.29 3388.99,-4035.29 3388.99,-4071.29"/>
<text text-anchor="middle" x="3314.99" y="-4049.59" font-family="Times,serif" font-size="14.00">University Of Michigan</text>
</g>
<!-- Harvard University&#45;&gt;University Of Michigan -->
<g id="edge74" class="edge"><title>Harvard University&#45;&gt;University Of Michigan</title>
<path fill="none" stroke="black" stroke-width="2.1" d="M2905.73,-3099.58C2956.78,-3218.55 3243.79,-3887.37 3303.94,-4027.53"/>
<polygon fill="black" stroke="black" stroke-width="2.1" points="3307.1,-4034.91 3300.64,-4028.97 3305.02,-4031.45 3303.44,-4027.77 3303.95,-4027.55 3304.45,-4027.34 3306.03,-4031.01 3307.26,-4026.13 3307.1,-4034.91 3307.1,-4034.91"/>
</g>
<!-- Rice University -->
<g id="node34" class="node"><title>Rice University</title>
<polygon fill="none" stroke="black" points="3625.03,-1524.02 3523.03,-1524.02 3523.03,-1488.02 3625.03,-1488.02 3625.03,-1524.02"/>
<text text-anchor="middle" x="3574.03" y="-1502.32" font-family="Times,serif" font-size="14.00">Rice University</text>
</g>
<!-- Harvard University&#45;&gt;Rice University -->
<g id="edge97" class="edge"><title>Harvard University&#45;&gt;Rice University</title>
<path fill="none" stroke="black" stroke-width="2.9" d="M2905.78,-3063.23C2974.99,-2901.94 3481.81,-1720.9 3563.05,-1531.59"/>
<polygon fill="black" stroke="black" stroke-width="2.9" points="3566.29,-1524.05 3566.44,-1532.82 3565.58,-1528.1 3564.01,-1531.78 3563.13,-1531.4 3562.26,-1531.03 3563.84,-1527.35 3559.83,-1529.98 3566.29,-1524.05 3566.29,-1524.05"/>
</g>
<!-- Radcliffe College -->
<g id="node37" class="node"><title>Radcliffe College</title>
<polygon fill="none" stroke="black" points="1946.29,-2839.65 1833.29,-2839.65 1833.29,-2803.65 1946.29,-2803.65 1946.29,-2839.65"/>
<text text-anchor="middle" x="1889.79" y="-2817.95" font-family="Times,serif" font-size="14.00">Radcliffe College</text>
</g>
<!-- Harvard University&#45;&gt;Radcliffe College -->
<g id="edge33" class="edge"><title>Harvard University&#45;&gt;Radcliffe College</title>
<path fill="none" stroke="black" d="M2836.78,-3065.7C2658.02,-3019.63 2137.58,-2885.51 1954.45,-2838.32"/>
<polygon fill="black" stroke="black" points="1946.51,-2836.27 1955.16,-2834.78 1950.39,-2837.27 1954.26,-2838.27 1954.26,-2838.27 1954.26,-2838.27 1950.39,-2837.27 1953.36,-2841.75 1946.51,-2836.27 1946.51,-2836.27"/>
</g>
<!-- University Of Texas At Austin -->
<g id="node39" class="node"><title>University Of Texas At Austin</title>
<polygon fill="none" stroke="black" points="3062.39,-3449.54 2877.39,-3449.54 2877.39,-3413.54 3062.39,-3413.54 3062.39,-3449.54"/>
<text text-anchor="middle" x="2969.89" y="-3427.84" font-family="Times,serif" font-size="14.00">University Of Texas At Austin</text>
</g>
<!-- Harvard University&#45;&gt;University Of Texas At Austin -->
<g id="edge93" class="edge"><title>Harvard University&#45;&gt;University Of Texas At Austin</title>
<path fill="none" stroke="black" stroke-width="2.8" d="M2901.72,-3099.79C2913.64,-3157.8 2950.58,-3337.56 2964.51,-3405.33"/>
<polygon fill="black" stroke="black" stroke-width="2.8" points="2966.16,-3413.39 2961.03,-3406.28 2964.48,-3409.65 2963.67,-3405.73 2964.55,-3405.55 2965.43,-3405.37 2966.24,-3409.29 2968.08,-3404.83 2966.16,-3413.39 2966.16,-3413.39"/>
</g>
<!-- Massachusetts Institute Of Technology -->
<g id="node40" class="node"><title>Massachusetts Institute Of Technology</title>
<polygon fill="none" stroke="black" points="3012.95,-2742.08 2782.95,-2742.08 2782.95,-2706.08 3012.95,-2706.08 3012.95,-2742.08"/>
<text text-anchor="middle" x="2897.95" y="-2720.38" font-family="Times,serif" font-size="14.00">Massachusetts Institute Of Technology</text>
</g>
<!-- Harvard University&#45;&gt;Massachusetts Institute Of Technology -->
<g id="edge111" class="edge"><title>Harvard University&#45;&gt;Massachusetts Institute Of Technology</title>
<path fill="none" stroke="black" stroke-width="3.7" d="M2897.95,-3063.25C2897.95,-3004.46 2897.95,-2819.55 2897.95,-2750.46"/>
<polygon fill="black" stroke="black" stroke-width="3.7" points="2897.95,-2742.25 2902.11,-2750.25 2899.3,-2746.25 2899.3,-2750.25 2897.95,-2750.25 2896.6,-2750.25 2896.6,-2746.25 2893.79,-2750.25 2897.95,-2742.25 2897.95,-2742.25"/>
</g>
<!-- Yale University -->
<g id="node42" class="node"><title>Yale University</title>
<polygon fill="none" stroke="black" points="4263.96,-1210.85 4160.96,-1210.85 4160.96,-1174.85 4263.96,-1174.85 4263.96,-1210.85"/>
<text text-anchor="middle" x="4212.46" y="-1189.15" font-family="Times,serif" font-size="14.00">Yale University</text>
</g>
<!-- Harvard University&#45;&gt;Yale University -->
<g id="edge44" class="edge"><title>Harvard University&#45;&gt;Yale University</title>
<path fill="none" stroke="black" d="M2910.54,-3063.38C3035.43,-2883.94 4050.63,-1425.37 4195.32,-1217.48"/>
<polygon fill="black" stroke="black" points="4199.91,-1210.88 4198.3,-1219.5 4197.63,-1214.16 4195.34,-1217.45 4195.34,-1217.45 4195.34,-1217.45 4197.63,-1214.16 4192.39,-1215.39 4199.91,-1210.88 4199.91,-1210.88"/>
</g>
<!-- University Of Wisconsin&#45;Madison -->
<g id="node44" class="node"><title>University Of Wisconsin&#45;Madison</title>
<polygon fill="none" stroke="black" points="5025.66,-4666.7 4819.66,-4666.7 4819.66,-4630.7 5025.66,-4630.7 5025.66,-4666.7"/>
<text text-anchor="middle" x="4922.66" y="-4645" font-family="Times,serif" font-size="14.00">University Of Wisconsin&#45;Madison</text>
</g>
<!-- Harvard University&#45;&gt;University Of Wisconsin&#45;Madison -->
<g id="edge103" class="edge"><title>Harvard University&#45;&gt;University Of Wisconsin&#45;Madison</title>
<path fill="none" stroke="black" stroke-width="3.4" d="M2921.39,-3099.61C3129.48,-3260.68 4658.46,-4444.2 4892.61,-4625.44"/>
<polygon fill="black" stroke="black" stroke-width="3.4" points="4899.16,-4630.51 4890.49,-4628.64 4895.26,-4629.01 4892.09,-4626.56 4892.83,-4625.61 4893.56,-4624.67 4896.73,-4627.11 4895.17,-4622.59 4899.16,-4630.51 4899.16,-4630.51"/>
</g>
<!-- University Of California, Berkeley -->
<g id="node54" class="node"><title>University Of California, Berkeley</title>
<polygon fill="none" stroke="black" points="6207.91,-3929.8 6001.91,-3929.8 6001.91,-3893.8 6207.91,-3893.8 6207.91,-3929.8"/>
<text text-anchor="middle" x="6104.91" y="-3908.1" font-family="Times,serif" font-size="14.00">University Of California, Berkeley</text>
</g>
<!-- Harvard University&#45;&gt;University Of California, Berkeley -->
<g id="edge82" class="edge"><title>Harvard University&#45;&gt;University Of California, Berkeley</title>
<path fill="none" stroke="black" stroke-width="2.4" d="M2959.15,-3097.31C3357.74,-3200.51 5582.17,-3776.46 6027.35,-3891.72"/>
<polygon fill="black" stroke="black" stroke-width="2.4" points="6035.34,-3893.79 6026.7,-3895.27 6031.3,-3893.47 6027.42,-3892.46 6027.6,-3891.79 6027.78,-3891.11 6031.65,-3892.11 6028.5,-3888.3 6035.34,-3893.79 6035.34,-3893.79"/>
</g>
<!-- Princeton University&#45;&gt;Harvard University -->
<g id="edge68" class="edge"><title>Princeton University&#45;&gt;Harvard University</title>
<path fill="none" stroke="black" stroke-width="1.7" d="M6356.84,-2904.05C5921.11,-2919.82 3416.72,-3046.81 2967.08,-3075.89"/>
<polygon fill="black" stroke="black" stroke-width="1.7" points="2959.03,-3076.42 2966.78,-3072.31 2963,-3075.81 2966.99,-3075.55 2967.01,-3075.9 2967.03,-3076.25 2963.04,-3076.51 2967.24,-3079.49 2959.03,-3076.42 2959.03,-3076.42"/>
</g>
<!-- Princeton University&#45;&gt;Princeton University -->
<g id="edge107" class="edge"><title>Princeton University&#45;&gt;Princeton University</title>
<path fill="none" stroke="black" stroke-width="3.6" d="M6486.17,-2909.02C6496.73,-2908.12 6503.99,-2906.04 6503.99,-2902.77 6503.99,-2900.42 6500.24,-2898.68 6494.21,-2897.56"/>
<polygon fill="black" stroke="black" stroke-width="3.6" points="6486.17,-2896.52 6494.62,-2893.53 6490.3,-2895.75 6494.27,-2896.26 6494.1,-2897.55 6493.94,-2898.84 6489.97,-2898.33 6493.59,-2901.56 6486.17,-2896.52 6486.17,-2896.52"/>
</g>
<!-- Indiana University -->
<g id="node4" class="node"><title>Indiana University</title>
<polygon fill="none" stroke="black" points="6609.38,-2831.3 6491.38,-2831.3 6491.38,-2795.3 6609.38,-2795.3 6609.38,-2831.3"/>
<text text-anchor="middle" x="6550.38" y="-2809.6" font-family="Times,serif" font-size="14.00">Indiana University</text>
</g>
<!-- Princeton University&#45;&gt;Indiana University -->
<g id="edge2" class="edge"><title>Princeton University&#45;&gt;Indiana University</title>
<path fill="none" stroke="black" d="M6447.57,-2884.66C6467.75,-2870.66 6495.82,-2851.18 6517.53,-2836.11"/>
<polygon fill="black" stroke="black" points="6524.34,-2831.38 6519.82,-2838.9 6521.05,-2833.66 6517.76,-2835.94 6517.76,-2835.94 6517.76,-2835.94 6521.05,-2833.66 6515.71,-2832.99 6524.34,-2831.38 6524.34,-2831.38"/>
</g>
<!-- Princeton University&#45;&gt;Brown University -->
<g id="edge6" class="edge"><title>Princeton University&#45;&gt;Brown University</title>
<path fill="none" stroke="black" d="M6419.65,-2884.65C6413.7,-2826.16 6394.99,-2642.2 6388,-2573.47"/>
<polygon fill="black" stroke="black" points="6387.17,-2565.3 6391.56,-2572.89 6387.58,-2569.28 6387.98,-2573.26 6387.98,-2573.26 6387.98,-2573.26 6387.58,-2569.28 6384.4,-2573.62 6387.17,-2565.3 6387.17,-2565.3"/>
</g>
<!-- Princeton University&#45;&gt;Bryn Mawr College -->
<g id="edge7" class="edge"><title>Princeton University&#45;&gt;Bryn Mawr College</title>
<path fill="none" stroke="black" d="M6417.74,-2921.04C6398.07,-3016.75 6306.94,-3460.17 6283.73,-3573.1"/>
<polygon fill="black" stroke="black" points="6282.06,-3581.24 6280.15,-3572.68 6282.87,-3577.32 6283.67,-3573.4 6283.67,-3573.4 6283.67,-3573.4 6282.87,-3577.32 6287.2,-3574.13 6282.06,-3581.24 6282.06,-3581.24"/>
</g>
<!-- Princeton University&#45;&gt;Columbia University -->
<g id="edge28" class="edge"><title>Princeton University&#45;&gt;Columbia University</title>
<path fill="none" stroke="black" d="M6411.42,-2884.63C6324.69,-2728.37 5704.62,-1611.22 5603.44,-1428.93"/>
<polygon fill="black" stroke="black" points="5599.54,-1421.89 5606.57,-1427.14 5601.48,-1425.39 5603.42,-1428.89 5603.42,-1428.89 5603.42,-1428.89 5601.48,-1425.39 5600.27,-1430.63 5599.54,-1421.89 5599.54,-1421.89"/>
</g>
<!-- Princeton University&#45;&gt;University Of Illinois At Urbana&#45;Champaign -->
<g id="edge115" class="edge"><title>Princeton University&#45;&gt;University Of Illinois At Urbana&#45;Champaign</title>
<path fill="none" stroke="black" stroke-width="4.7" d="M6413.72,-2920.87C6353,-3062.37 5954.81,-3990.27 5883.15,-4157.25"/>
<polygon fill="black" stroke="black" stroke-width="4.7" points="5879.99,-4164.62 5878.28,-4155.18 5879.87,-4160.22 5881.44,-4156.54 5883.14,-4157.27 5884.84,-4158 5883.27,-4161.68 5888,-4159.35 5879.99,-4164.62 5879.99,-4164.62"/>
</g>
<!-- Princeton University&#45;&gt;University Of Cambridge -->
<g id="edge55" class="edge"><title>Princeton University&#45;&gt;University Of Cambridge</title>
<path fill="none" stroke="black" d="M6359.91,-2884.74C5954.57,-2773.39 3670.96,-2182.01 3196.98,-2065.47"/>
<polygon fill="black" stroke="black" points="3189.12,-2063.54 3197.75,-2061.95 3193,-2064.49 3196.89,-2065.44 3196.89,-2065.44 3196.89,-2065.44 3193,-2064.49 3196.03,-2068.94 3189.12,-2063.54 3189.12,-2063.54"/>
</g>
<!-- Princeton University&#45;&gt;University Of Michigan -->
<g id="edge54" class="edge"><title>Princeton University&#45;&gt;University Of Michigan</title>
<path fill="none" stroke="black" d="M6372.7,-2920.84C6011.62,-3054.57 3757.98,-3889.23 3371.4,-4032.4"/>
<polygon fill="black" stroke="black" points="3363.68,-4035.26 3369.93,-4029.1 3367.43,-4033.87 3371.18,-4032.48 3371.18,-4032.48 3371.18,-4032.48 3367.43,-4033.87 3372.43,-4035.86 3363.68,-4035.26 3363.68,-4035.26"/>
</g>
<!-- University Of Pennsylvania -->
<g id="node31" class="node"><title>University Of Pennsylvania</title>
<polygon fill="none" stroke="black" points="3657.53,-4317.52 3490.53,-4317.52 3490.53,-4281.52 3657.53,-4281.52 3657.53,-4317.52"/>
<text text-anchor="middle" x="3574.03" y="-4295.82" font-family="Times,serif" font-size="14.00">University Of Pennsylvania</text>
</g>
<!-- Princeton University&#45;&gt;University Of Pennsylvania -->
<g id="edge92" class="edge"><title>Princeton University&#45;&gt;University Of Pennsylvania</title>
<path fill="none" stroke="black" stroke-width="2.8" d="M6384.71,-2920.81C6078.43,-3071.05 3954.52,-4112.87 3618.7,-4277.6"/>
<polygon fill="black" stroke="black" stroke-width="2.8" points="3611.1,-4281.33 3616.7,-4274.58 3614.3,-4278.76 3617.89,-4277 3618.29,-4277.81 3618.68,-4278.62 3615.09,-4280.38 3619.87,-4281.04 3611.1,-4281.33 3611.1,-4281.33"/>
</g>
<!-- The University Of North Carolina At Chapel Hill -->
<g id="node33" class="node"><title>The University Of North Carolina At Chapel Hill</title>
<polygon fill="none" stroke="black" points="6528.33,-3276.32 6242.33,-3276.32 6242.33,-3240.32 6528.33,-3240.32 6528.33,-3276.32"/>
<text text-anchor="middle" x="6385.33" y="-3254.62" font-family="Times,serif" font-size="14.00">The University Of North Carolina At Chapel Hill</text>
</g>
<!-- Princeton University&#45;&gt;The University Of North Carolina At Chapel Hill -->
<g id="edge27" class="edge"><title>Princeton University&#45;&gt;The University Of North Carolina At Chapel Hill</title>
<path fill="none" stroke="black" d="M6419.65,-2920.89C6413.7,-2979.38 6394.99,-3163.34 6388,-3232.07"/>
<polygon fill="black" stroke="black" points="6387.17,-3240.24 6384.4,-3231.92 6387.58,-3236.26 6387.98,-3232.28 6387.98,-3232.28 6387.98,-3232.28 6387.58,-3236.26 6391.56,-3232.64 6387.17,-3240.24 6387.17,-3240.24"/>
</g>
<!-- Princeton University&#45;&gt;Massachusetts Institute Of Technology -->
<g id="edge105" class="edge"><title>Princeton University&#45;&gt;Massachusetts Institute Of Technology</title>
<path fill="none" stroke="black" stroke-width="3.4" d="M6356.94,-2899.5C5936.7,-2878.18 3589.11,-2759.13 3021.51,-2730.34"/>
<polygon fill="black" stroke="black" stroke-width="3.4" points="3013.28,-2729.92 3021.47,-2726.51 3017.34,-2728.93 3021.33,-2729.13 3021.27,-2730.33 3021.21,-2731.53 3017.22,-2731.33 3021.08,-2734.15 3013.28,-2729.92 3013.28,-2729.92"/>
</g>
<!-- Cornell University&#45;&gt;Harvard University -->
<g id="edge84" class="edge"><title>Cornell University&#45;&gt;Harvard University</title>
<path fill="none" stroke="black" stroke-width="2.4" d="M6219.19,-2219.53C5810.23,-2318.85 3406.52,-2941.16 2966.95,-3061.42"/>
<polygon fill="black" stroke="black" stroke-width="2.4" points="2959.08,-3063.58 2965.84,-3057.99 2962.75,-3061.85 2966.61,-3060.79 2966.79,-3061.47 2966.98,-3062.14 2963.12,-3063.2 2967.75,-3064.94 2959.08,-3063.58 2959.08,-3063.58"/>
</g>
<!-- University Of Nebraska&#45;Lincoln -->
<g id="node7" class="node"><title>University Of Nebraska&#45;Lincoln</title>
<polygon fill="none" stroke="black" points="6201.41,-1911.74 6008.41,-1911.74 6008.41,-1875.74 6201.41,-1875.74 6201.41,-1911.74"/>
<text text-anchor="middle" x="6104.91" y="-1890.04" font-family="Times,serif" font-size="14.00">University Of Nebraska&#45;Lincoln</text>
</g>
<!-- Cornell University&#45;&gt;University Of Nebraska&#45;Lincoln -->
<g id="edge4" class="edge"><title>Cornell University&#45;&gt;University Of Nebraska&#45;Lincoln</title>
<path fill="none" stroke="black" d="M6268.27,-2188.07C6238.87,-2135.1 6153.14,-1980.63 6119.08,-1919.28"/>
<polygon fill="black" stroke="black" points="6115.01,-1911.94 6122.04,-1917.19 6116.95,-1915.44 6118.89,-1918.93 6118.89,-1918.93 6118.89,-1918.93 6116.95,-1915.44 6115.74,-1920.68 6115.01,-1911.94 6115.01,-1911.94"/>
</g>
<!-- The Johns Hopkins University -->
<g id="node8" class="node"><title>The Johns Hopkins University</title>
<polygon fill="none" stroke="black" points="4656.73,-1156.74 4474.73,-1156.74 4474.73,-1120.74 4656.73,-1120.74 4656.73,-1156.74"/>
<text text-anchor="middle" x="4565.73" y="-1135.04" font-family="Times,serif" font-size="14.00">The Johns Hopkins University</text>
</g>
<!-- The Johns Hopkins University&#45;&gt;The Johns Hopkins University -->
<g id="edge62" class="edge"><title>The Johns Hopkins University&#45;&gt;The Johns Hopkins University</title>
<path fill="none" stroke="black" stroke-width="1.7" d="M4656.76,-1144.54C4667.63,-1143.48 4674.73,-1141.55 4674.73,-1138.74 4674.73,-1136.71 4671.06,-1135.15 4664.96,-1134.03"/>
<polygon fill="black" stroke="black" stroke-width="1.7" points="4656.76,-1132.93 4665.17,-1130.43 4660.78,-1133.12 4664.74,-1133.65 4664.69,-1134 4664.65,-1134.34 4660.68,-1133.81 4664.22,-1137.56 4656.76,-1132.93 4656.76,-1132.93"/>
</g>
<!-- University Of Missouri &#45; Columbia -->
<g id="node9" class="node"><title>University Of Missouri &#45; Columbia</title>
<polygon fill="none" stroke="black" points="5027.66,-1174.84 4817.66,-1174.84 4817.66,-1138.84 5027.66,-1138.84 5027.66,-1174.84"/>
<text text-anchor="middle" x="4922.66" y="-1153.14" font-family="Times,serif" font-size="14.00">University Of Missouri &#45; Columbia</text>
</g>
<!-- The Johns Hopkins University&#45;&gt;University Of Missouri &#45; Columbia -->
<g id="edge5" class="edge"><title>The Johns Hopkins University&#45;&gt;University Of Missouri &#45; Columbia</title>
<path fill="none" stroke="black" d="M4657.18,-1143.37C4703.55,-1145.72 4760.3,-1148.6 4809.41,-1151.09"/>
<polygon fill="black" stroke="black" points="4817.54,-1151.51 4809.36,-1154.7 4813.54,-1151.3 4809.55,-1151.1 4809.55,-1151.1 4809.55,-1151.1 4813.54,-1151.3 4809.73,-1147.5 4817.54,-1151.51 4817.54,-1151.51"/>
</g>
<!-- California Institute Of Technology -->
<g id="node13" class="node"><title>California Institute Of Technology</title>
<polygon fill="none" stroke="black" points="5975.11,-1640.57 5769.11,-1640.57 5769.11,-1604.57 5975.11,-1604.57 5975.11,-1640.57"/>
<text text-anchor="middle" x="5872.11" y="-1618.87" font-family="Times,serif" font-size="14.00">California Institute Of Technology</text>
</g>
<!-- The Johns Hopkins University&#45;&gt;California Institute Of Technology -->
<g id="edge9" class="edge"><title>The Johns Hopkins University&#45;&gt;California Institute Of Technology</title>
<path fill="none" stroke="black" d="M4614.56,-1156.82C4818.05,-1232.19 5598.2,-1521.12 5815.59,-1601.63"/>
<polygon fill="black" stroke="black" points="5823.39,-1604.52 5814.64,-1605.12 5819.64,-1603.13 5815.89,-1601.74 5815.89,-1601.74 5815.89,-1601.74 5819.64,-1603.13 5817.14,-1598.37 5823.39,-1604.52 5823.39,-1604.52"/>
</g>
<!-- St. Louis University -->
<g id="node14" class="node"><title>St. Louis University</title>
<polygon fill="none" stroke="black" points="3940.82,-1334.98 3813.82,-1334.98 3813.82,-1298.98 3940.82,-1298.98 3940.82,-1334.98"/>
<text text-anchor="middle" x="3877.32" y="-1313.28" font-family="Times,serif" font-size="14.00">St. Louis University</text>
</g>
<!-- The Johns Hopkins University&#45;&gt;St. Louis University -->
<g id="edge10" class="edge"><title>The Johns Hopkins University&#45;&gt;St. Louis University</title>
<path fill="none" stroke="black" d="M4495.93,-1156.81C4364.55,-1190.82 4081.83,-1264.03 3949.01,-1298.41"/>
<polygon fill="black" stroke="black" points="3941.25,-1300.42 3948.1,-1294.93 3945.13,-1299.42 3949,-1298.42 3949,-1298.42 3949,-1298.42 3945.13,-1299.42 3949.9,-1301.9 3941.25,-1300.42 3941.25,-1300.42"/>
</g>
<!-- The Johns Hopkins University&#45;&gt;Rice University -->
<g id="edge29" class="edge"><title>The Johns Hopkins University&#45;&gt;Rice University</title>
<path fill="none" stroke="black" d="M4516.89,-1156.82C4350.65,-1218.39 3807.33,-1419.62 3630.32,-1485.17"/>
<polygon fill="black" stroke="black" points="3622.67,-1488 3628.93,-1481.85 3626.43,-1486.61 3630.18,-1485.23 3630.18,-1485.23 3630.18,-1485.23 3626.43,-1486.61 3631.43,-1488.6 3622.67,-1488 3622.67,-1488"/>
</g>
<!-- The Johns Hopkins University&#45;&gt;Yale University -->
<g id="edge40" class="edge"><title>The Johns Hopkins University&#45;&gt;Yale University</title>
<path fill="none" stroke="black" d="M4474.29,-1152.74C4410.58,-1162.5 4327.41,-1175.24 4272.08,-1183.72"/>
<polygon fill="black" stroke="black" points="4264.13,-1184.94 4271.49,-1180.17 4268.08,-1184.33 4272.03,-1183.73 4272.03,-1183.73 4272.03,-1183.73 4268.08,-1184.33 4272.58,-1187.29 4264.13,-1184.94 4264.13,-1184.94"/>
</g>
<!-- University Of Washington -->
<g id="node16" class="node"><title>University Of Washington</title>
<polygon fill="none" stroke="black" points="5349.14,-1264.42 5188.14,-1264.42 5188.14,-1228.42 5349.14,-1228.42 5349.14,-1264.42"/>
<text text-anchor="middle" x="5268.64" y="-1242.72" font-family="Times,serif" font-size="14.00">University Of Washington</text>
</g>
<!-- University Of Missouri &#45; Columbia&#45;&gt;University Of Washington -->
<g id="edge24" class="edge"><title>University Of Missouri &#45; Columbia&#45;&gt;University Of Washington</title>
<path fill="none" stroke="black" d="M4992.25,-1174.86C5049.76,-1189.75 5131.34,-1210.87 5190.96,-1226.3"/>
<polygon fill="black" stroke="black" points="5198.85,-1228.35 5190.21,-1229.83 5194.98,-1227.35 5191.11,-1226.34 5191.11,-1226.34 5191.11,-1226.34 5194.98,-1227.35 5192.01,-1222.86 5198.85,-1228.35 5198.85,-1228.35"/>
</g>
<!-- California Institute Of Technology&#45;&gt;Princeton University -->
<g id="edge31" class="edge"><title>California Institute Of Technology&#45;&gt;Princeton University</title>
<path fill="none" stroke="black" d="M5879.88,-1640.66C5940.6,-1782.17 6338.79,-2710.06 6410.45,-2877.05"/>
<polygon fill="black" stroke="black" points="6413.62,-2884.42 6407.15,-2878.49 6412.04,-2880.74 6410.46,-2877.07 6410.46,-2877.07 6410.46,-2877.07 6412.04,-2880.74 6413.77,-2875.65 6413.62,-2884.42 6413.62,-2884.42"/>
</g>
<!-- California Institute Of Technology&#45;&gt;University Of Nebraska&#45;Lincoln -->
<g id="edge57" class="edge"><title>California Institute Of Technology&#45;&gt;University Of Nebraska&#45;Lincoln</title>
<path fill="none" stroke="black" stroke-width="1.7" d="M5887.75,-1640.78C5928.5,-1688.25 6037.99,-1815.79 6084.04,-1869.44"/>
<polygon fill="black" stroke="black" stroke-width="1.7" points="6089.34,-1875.6 6081.39,-1871.88 6086.47,-1872.8 6083.86,-1869.76 6084.13,-1869.53 6084.39,-1869.31 6087,-1872.34 6086.86,-1867.19 6089.34,-1875.6 6089.34,-1875.6"/>
</g>
<!-- California Institute Of Technology&#45;&gt;California Institute Of Technology -->
<g id="edge81" class="edge"><title>California Institute Of Technology&#45;&gt;California Institute Of Technology</title>
<path fill="none" stroke="black" stroke-width="2.1" d="M5975.38,-1628.16C5986.19,-1627.07 5993.11,-1625.2 5993.11,-1622.57 5993.11,-1620.67 5989.54,-1619.18 5983.51,-1618.08"/>
<polygon fill="black" stroke="black" stroke-width="2.1" points="5975.38,-1616.97 5983.8,-1614.48 5979.42,-1616.97 5983.39,-1617.51 5983.31,-1618.05 5983.24,-1618.6 5979.27,-1618.06 5982.83,-1621.62 5975.38,-1616.97 5975.38,-1616.97"/>
</g>
<!-- Columbia University&#45;&gt;California Institute Of Technology -->
<g id="edge102" class="edge"><title>Columbia University&#45;&gt;California Institute Of Technology</title>
<path fill="none" stroke="black" stroke-width="3.3" d="M5613.11,-1422.08C5664.36,-1461.75 5785.71,-1555.69 5842.21,-1599.42"/>
<polygon fill="black" stroke="black" stroke-width="3.3" points="5848.77,-1604.5 5840.17,-1602.54 5844.9,-1602.96 5841.74,-1600.51 5842.44,-1599.6 5843.15,-1598.69 5846.31,-1601.14 5844.72,-1596.67 5848.77,-1604.5 5848.77,-1604.5"/>
</g>
<!-- Columbia University&#45;&gt;Columbia University -->
<g id="edge88" class="edge"><title>Columbia University&#45;&gt;Columbia University</title>
<path fill="none" stroke="black" stroke-width="2.6" d="M5655.31,-1410.02C5665.81,-1409.11 5673,-1407.04 5673,-1403.81 5673,-1401.48 5669.29,-1399.76 5663.3,-1398.64"/>
<polygon fill="black" stroke="black" stroke-width="2.6" points="5655.31,-1397.59 5663.71,-1395.06 5659.38,-1397.32 5663.34,-1397.83 5663.24,-1398.63 5663.14,-1399.42 5659.17,-1398.9 5662.77,-1402.2 5655.31,-1397.59 5655.31,-1397.59"/>
</g>
<!-- Columbia University&#45;&gt;University Of Washington -->
<g id="edge11" class="edge"><title>Columbia University&#45;&gt;University Of Washington</title>
<path fill="none" stroke="black" d="M5552.69,-1385.75C5493.37,-1356.66 5376.85,-1299.5 5313.02,-1268.19"/>
<polygon fill="black" stroke="black" points="5305.51,-1264.5 5314.27,-1264.79 5309.1,-1266.26 5312.69,-1268.03 5312.69,-1268.03 5312.69,-1268.03 5309.1,-1266.26 5311.1,-1271.26 5305.51,-1264.5 5305.51,-1264.5"/>
</g>
<!-- University Of Illinois At Urbana&#45;Champaign&#45;&gt;University Of Illinois At Urbana&#45;Champaign -->
<g id="edge12" class="edge"><title>University Of Illinois At Urbana&#45;Champaign&#45;&gt;University Of Illinois At Urbana&#45;Champaign</title>
<path fill="none" stroke="black" d="M6003.37,-4188.19C6014.31,-4187.07 6021.11,-4185.33 6021.11,-4182.97 6021.11,-4181.28 6017.6,-4179.9 6011.56,-4178.85"/>
<polygon fill="black" stroke="black" points="6003.37,-4177.76 6011.78,-4175.25 6007.34,-4178.28 6011.3,-4178.81 6011.3,-4178.81 6011.3,-4178.81 6007.34,-4178.28 6010.82,-4182.38 6003.37,-4177.76 6003.37,-4177.76"/>
</g>
<!-- The George Washington University -->
<g id="node19" class="node"><title>The George Washington University</title>
<polygon fill="none" stroke="black" points="5695.5,-4419.73 5483.5,-4419.73 5483.5,-4383.73 5695.5,-4383.73 5695.5,-4419.73"/>
<text text-anchor="middle" x="5589.5" y="-4398.03" font-family="Times,serif" font-size="14.00">The George Washington University</text>
</g>
<!-- University Of Illinois At Urbana&#45;Champaign&#45;&gt;The George Washington University -->
<g id="edge18" class="edge"><title>University Of Illinois At Urbana&#45;Champaign&#45;&gt;The George Washington University</title>
<path fill="none" stroke="black" d="M5848.5,-4201.25C5797.26,-4240.92 5675.9,-4334.85 5619.4,-4378.58"/>
<polygon fill="black" stroke="black" points="5612.84,-4383.66 5616.97,-4375.92 5616.01,-4381.21 5619.17,-4378.77 5619.17,-4378.77 5619.17,-4378.77 5616.01,-4381.21 5621.37,-4381.61 5612.84,-4383.66 5612.84,-4383.66"/>
</g>
<!-- University Of Illinois At Urbana&#45;Champaign&#45;&gt;Massachusetts Institute Of Technology -->
<g id="edge65" class="edge"><title>University Of Illinois At Urbana&#45;Champaign&#45;&gt;Massachusetts Institute Of Technology</title>
<path fill="none" stroke="black" stroke-width="1.7" d="M5835.31,-4164.92C5520.59,-4010.54 3285,-2913.94 2942.05,-2745.71"/>
<polygon fill="black" stroke="black" stroke-width="1.7" points="2934.77,-2742.14 2943.54,-2742.43 2938.52,-2743.58 2942.11,-2745.35 2941.95,-2745.66 2941.8,-2745.98 2938.21,-2744.21 2940.37,-2748.89 2934.77,-2742.14 2934.77,-2742.14"/>
</g>
<!-- University Of Illinois At Urbana&#45;Champaign&#45;&gt;University Of Wisconsin&#45;Madison -->
<g id="edge58" class="edge"><title>University Of Illinois At Urbana&#45;Champaign&#45;&gt;University Of Wisconsin&#45;Madison</title>
<path fill="none" stroke="black" stroke-width="1.7" d="M5835.18,-4201.09C5686.04,-4274.25 5128.38,-4547.79 4966.79,-4627.05"/>
<polygon fill="black" stroke="black" stroke-width="1.7" points="4959.4,-4630.68 4965,-4623.92 4962.84,-4628.6 4966.43,-4626.84 4966.58,-4627.16 4966.74,-4627.47 4963.15,-4629.23 4968.17,-4630.39 4959.4,-4630.68 4959.4,-4630.68"/>
</g>
<!-- Marquette University -->
<g id="node53" class="node"><title>Marquette University</title>
<polygon fill="none" stroke="black" points="6107.58,-4228.77 5973.58,-4228.77 5973.58,-4192.77 6107.58,-4192.77 6107.58,-4228.77"/>
<text text-anchor="middle" x="6040.58" y="-4207.07" font-family="Times,serif" font-size="14.00">Marquette University</text>
</g>
<!-- University Of Illinois At Urbana&#45;Champaign&#45;&gt;Marquette University -->
<g id="edge66" class="edge"><title>University Of Illinois At Urbana&#45;Champaign&#45;&gt;Marquette University</title>
<path fill="none" stroke="black" stroke-width="1.7" d="M5981.66,-4201.05C5981.72,-4201.06 5981.78,-4201.07 5981.85,-4201.08"/>
<polygon fill="black" stroke="black" stroke-width="1.7" points="5982.03,-4201.11 5973.55,-4203.36 5978.03,-4200.8 5974.08,-4200.15 5974.14,-4199.81 5974.2,-4199.46 5978.14,-4200.11 5974.73,-4196.25 5982.03,-4201.11 5982.03,-4201.11"/>
</g>
<!-- University Of Kansas -->
<g id="node55" class="node"><title>University Of Kansas</title>
<polygon fill="none" stroke="black" points="5958.34,-4370.63 5824.34,-4370.63 5824.34,-4334.63 5958.34,-4334.63 5958.34,-4370.63"/>
<text text-anchor="middle" x="5891.34" y="-4348.93" font-family="Times,serif" font-size="14.00">University Of Kansas</text>
</g>
<!-- University Of Illinois At Urbana&#45;Champaign&#45;&gt;University Of Kansas -->
<g id="edge78" class="edge"><title>University Of Illinois At Urbana&#45;Champaign&#45;&gt;University Of Kansas</title>
<path fill="none" stroke="black" stroke-width="2.1" d="M5874.17,-4201.13C5877.58,-4231.23 5884.43,-4291.6 5888.37,-4326.35"/>
<polygon fill="black" stroke="black" stroke-width="2.1" points="5889.3,-4334.6 5884.82,-4327.06 5888.3,-4330.69 5887.85,-4326.72 5888.4,-4326.66 5888.95,-4326.59 5889.4,-4330.57 5891.98,-4326.25 5889.3,-4334.6 5889.3,-4334.6"/>
</g>
<!-- University Of Iowa -->
<g id="node18" class="node"><title>University Of Iowa</title>
<polygon fill="none" stroke="black" points="5329.64,-4577.12 5207.64,-4577.12 5207.64,-4541.12 5329.64,-4541.12 5329.64,-4577.12"/>
<text text-anchor="middle" x="5268.64" y="-4555.42" font-family="Times,serif" font-size="14.00">University Of Iowa</text>
</g>
<!-- University Of Iowa&#45;&gt;The George Washington University -->
<g id="edge13" class="edge"><title>University Of Iowa&#45;&gt;The George Washington University</title>
<path fill="none" stroke="black" d="M5305.44,-4541.07C5364.76,-4511.97 5481.29,-4454.81 5545.11,-4423.5"/>
<polygon fill="black" stroke="black" points="5552.63,-4419.82 5547.03,-4426.57 5549.04,-4421.58 5545.45,-4423.34 5545.45,-4423.34 5545.45,-4423.34 5549.04,-4421.58 5543.86,-4420.11 5552.63,-4419.82 5552.63,-4419.82"/>
</g>
<!-- University Of Cambridge&#45;&gt;Princeton University -->
<g id="edge70" class="edge"><title>University Of Cambridge&#45;&gt;Princeton University</title>
<path fill="none" stroke="black" stroke-width="1.7" d="M3172.41,-2063.61C3581.73,-2176.05 5906.32,-2777.98 6348.76,-2886.17"/>
<polygon fill="black" stroke="black" stroke-width="1.7" points="6356.7,-2888.11 6348.07,-2889.71 6352.73,-2887.5 6348.84,-2886.55 6348.93,-2886.21 6349.01,-2885.87 6352.9,-2886.82 6349.78,-2882.72 6356.7,-2888.11 6356.7,-2888.11"/>
</g>
<!-- University Of Cambridge&#45;&gt;University Of Cambridge -->
<g id="edge113" class="edge"><title>University Of Cambridge&#45;&gt;University Of Cambridge</title>
<path fill="none" stroke="black" stroke-width="4.4" d="M3189.18,-2051.57C3199.77,-2050.56 3206.83,-2048.57 3206.83,-2045.58 3206.83,-2043.43 3203.18,-2041.8 3197.2,-2040.67"/>
<polygon fill="black" stroke="black" stroke-width="4.4" points="3189.18,-2039.59 3197.77,-2035.76 3193.37,-2038.44 3197.33,-2038.98 3197.1,-2040.66 3196.88,-2042.35 3192.91,-2041.81 3196.44,-2045.57 3189.18,-2039.59 3189.18,-2039.59"/>
</g>
<!-- Queen&#39;S University Of Belfast -->
<g id="node21" class="node"><title>Queen&#39;S University Of Belfast</title>
<polygon fill="none" stroke="black" points="249.197,-1186.86 67.1972,-1186.86 67.1972,-1150.86 249.197,-1150.86 249.197,-1186.86"/>
<text text-anchor="middle" x="158.197" y="-1165.16" font-family="Times,serif" font-size="14.00">Queen&#39;S University Of Belfast</text>
</g>
<!-- University Of Cambridge&#45;&gt;Queen&#39;S University Of Belfast -->
<g id="edge14" class="edge"><title>University Of Cambridge&#45;&gt;Queen&#39;S University Of Belfast</title>
<path fill="none" stroke="black" d="M3050.17,-2027.57C2670.89,-1914.95 628.43,-1308.48 226.782,-1189.22"/>
<polygon fill="black" stroke="black" points="219.004,-1186.91 227.698,-1185.74 222.839,-1188.05 226.673,-1189.19 226.673,-1189.19 226.673,-1189.19 222.839,-1188.05 225.648,-1192.64 219.004,-1186.91 219.004,-1186.91"/>
</g>
<!-- University Of Toronto -->
<g id="node24" class="node"><title>University Of Toronto</title>
<polygon fill="none" stroke="black" points="316.539,-972.025 177.539,-972.025 177.539,-936.025 316.539,-936.025 316.539,-972.025"/>
<text text-anchor="middle" x="247.039" y="-950.325" font-family="Times,serif" font-size="14.00">University Of Toronto</text>
</g>
<!-- University Of Cambridge&#45;&gt;University Of Toronto -->
<g id="edge17" class="edge"><title>University Of Cambridge&#45;&gt;University Of Toronto</title>
<path fill="none" stroke="black" d="M3063.51,-2027.54C2724.31,-1898.26 665.753,-1113.62 301.954,-974.956"/>
<polygon fill="black" stroke="black" points="294.431,-972.089 303.189,-971.574 298.169,-973.514 301.907,-974.938 301.907,-974.938 301.907,-974.938 298.169,-973.514 300.625,-978.302 294.431,-972.089 294.431,-972.089"/>
</g>
<!-- University Of Oxford -->
<g id="node27" class="node"><title>University Of Oxford</title>
<polygon fill="none" stroke="black" points="3036.89,-2392 2902.89,-2392 2902.89,-2356 3036.89,-2356 3036.89,-2392"/>
<text text-anchor="middle" x="2969.89" y="-2370.3" font-family="Times,serif" font-size="14.00">University Of Oxford</text>
</g>
<!-- University Of Cambridge&#45;&gt;University Of Oxford -->
<g id="edge46" class="edge"><title>University Of Cambridge&#45;&gt;University Of Oxford</title>
<path fill="none" stroke="black" d="M3103.05,-2063.71C3079.42,-2118.77 3008.41,-2284.24 2980.93,-2348.29"/>
<polygon fill="black" stroke="black" points="2977.65,-2355.93 2977.49,-2347.16 2979.22,-2352.26 2980.8,-2348.58 2980.8,-2348.58 2980.8,-2348.58 2979.22,-2352.26 2984.11,-2350 2977.65,-2355.93 2977.65,-2355.93"/>
</g>
<!-- The Ohio State University -->
<g id="node41" class="node"><title>The Ohio State University</title>
<polygon fill="none" stroke="black" points="3394.99,-1770.25 3234.99,-1770.25 3234.99,-1734.25 3394.99,-1734.25 3394.99,-1770.25"/>
<text text-anchor="middle" x="3314.99" y="-1748.55" font-family="Times,serif" font-size="14.00">The Ohio State University</text>
</g>
<!-- University Of Cambridge&#45;&gt;The Ohio State University -->
<g id="edge48" class="edge"><title>University Of Cambridge&#45;&gt;The Ohio State University</title>
<path fill="none" stroke="black" d="M3123.6,-2027.23C3158.83,-1976.61 3257.45,-1834.93 3297.63,-1777.2"/>
<polygon fill="black" stroke="black" points="3302.23,-1770.59 3300.61,-1779.21 3299.94,-1773.87 3297.66,-1777.16 3297.66,-1777.16 3297.66,-1777.16 3299.94,-1773.87 3294.7,-1775.1 3302.23,-1770.59 3302.23,-1770.59"/>
</g>
<!-- Imperial College -->
<g id="node47" class="node"><title>Imperial College</title>
<polygon fill="none" stroke="black" points="384.411,-794.422 275.411,-794.422 275.411,-758.422 384.411,-758.422 384.411,-794.422"/>
<text text-anchor="middle" x="329.911" y="-772.722" font-family="Times,serif" font-size="14.00">Imperial College</text>
</g>
<!-- University Of Cambridge&#45;&gt;Imperial College -->
<g id="edge50" class="edge"><title>University Of Cambridge&#45;&gt;Imperial College</title>
<path fill="none" stroke="black" d="M3071.25,-2027.52C2760.52,-1885.7 716.221,-952.726 377.437,-798.112"/>
<polygon fill="black" stroke="black" points="369.753,-794.605 378.526,-794.651 373.392,-796.266 377.031,-797.926 377.031,-797.926 377.031,-797.926 373.392,-796.266 375.537,-801.202 369.753,-794.605 369.753,-794.605"/>
</g>
<!-- University Of Manchester -->
<g id="node49" class="node"><title>University Of Manchester</title>
<polygon fill="none" stroke="black" points="639.798,-574.003 480.798,-574.003 480.798,-538.003 639.798,-538.003 639.798,-574.003"/>
<text text-anchor="middle" x="560.298" y="-552.303" font-family="Times,serif" font-size="14.00">University Of Manchester</text>
</g>
<!-- University Of Cambridge&#45;&gt;University Of Manchester -->
<g id="edge69" class="edge"><title>University Of Cambridge&#45;&gt;University Of Manchester</title>
<path fill="none" stroke="black" stroke-width="1.7" d="M3079.96,-2027.55C2812.78,-1871.51 894.485,-751.177 598.582,-578.362"/>
<polygon fill="black" stroke="black" stroke-width="1.7" points="591.495,-574.223 600.218,-575.149 595.125,-575.938 598.579,-577.955 598.403,-578.257 598.226,-578.56 594.772,-576.542 596.587,-581.366 591.495,-574.223 591.495,-574.223"/>
</g>
<!-- The University Of Chicago -->
<g id="node23" class="node"><title>The University Of Chicago</title>
<polygon fill="none" stroke="black" points="4648.23,-4684.8 4483.23,-4684.8 4483.23,-4648.8 4648.23,-4648.8 4648.23,-4684.8"/>
<text text-anchor="middle" x="4565.73" y="-4663.1" font-family="Times,serif" font-size="14.00">The University Of Chicago</text>
</g>
<!-- The University Of Chicago&#45;&gt;Cornell University -->
<g id="edge25" class="edge"><title>The University Of Chicago&#45;&gt;Cornell University</title>
<path fill="none" stroke="black" d="M4578.29,-4648.76C4723.96,-4439.47 6090.78,-2475.7 6260.98,-2231.17"/>
<polygon fill="black" stroke="black" points="6265.66,-2224.44 6264.05,-2233.07 6263.38,-2227.73 6261.09,-2231.01 6261.09,-2231.01 6261.09,-2231.01 6263.38,-2227.73 6258.14,-2228.95 6265.66,-2224.44 6265.66,-2224.44"/>
</g>
<!-- The University Of Chicago&#45;&gt;Bryn Mawr College -->
<g id="edge91" class="edge"><title>The University Of Chicago&#45;&gt;Bryn Mawr College</title>
<path fill="none" stroke="black" stroke-width="2.8" d="M4594.73,-4648.72C4798.78,-4521.54 6016.81,-3762.34 6242.41,-3621.72"/>
<polygon fill="black" stroke="black" stroke-width="2.8" points="6249.41,-3617.36 6244.52,-3624.65 6246.49,-3620.24 6243.09,-3622.35 6242.62,-3621.59 6242.14,-3620.83 6245.54,-3618.71 6240.71,-3618.54 6249.41,-3617.36 6249.41,-3617.36"/>
</g>
<!-- The University Of Chicago&#45;&gt;University Of Cincinnati -->
<g id="edge60" class="edge"><title>The University Of Chicago&#45;&gt;University Of Cincinnati</title>
<path fill="none" stroke="black" stroke-width="1.7" d="M4482.9,-4654.12C4426.92,-4645.54 4353.23,-4634.25 4296.91,-4625.62"/>
<polygon fill="black" stroke="black" stroke-width="1.7" points="4288.73,-4624.37 4297.19,-4622.02 4292.74,-4624.63 4296.69,-4625.24 4296.64,-4625.58 4296.59,-4625.93 4292.64,-4625.32 4296.1,-4629.14 4288.73,-4624.37 4288.73,-4624.37"/>
</g>
<!-- The University Of Chicago&#45;&gt;University Of Washington -->
<g id="edge64" class="edge"><title>The University Of Chicago&#45;&gt;University Of Washington</title>
<path fill="none" stroke="black" stroke-width="1.7" d="M4569.51,-4648.4C4621.86,-4393.65 5201.11,-1575.01 5263.24,-1272.65"/>
<polygon fill="black" stroke="black" stroke-width="1.7" points="5264.93,-1264.45 5266.85,-1273.01 5264.47,-1268.43 5263.66,-1272.35 5263.32,-1272.28 5262.98,-1272.21 5263.78,-1268.29 5259.79,-1271.56 5264.93,-1264.45 5264.93,-1264.45"/>
</g>
<!-- The University Of Chicago&#45;&gt;University Of Illinois At Urbana&#45;Champaign -->
<g id="edge37" class="edge"><title>The University Of Chicago&#45;&gt;University Of Illinois At Urbana&#45;Champaign</title>
<path fill="none" stroke="black" d="M4614.56,-4648.72C4818.05,-4573.35 5598.2,-4284.42 5815.59,-4203.91"/>
<polygon fill="black" stroke="black" points="5823.39,-4201.02 5817.14,-4207.17 5819.64,-4202.41 5815.89,-4203.8 5815.89,-4203.8 5815.89,-4203.8 5819.64,-4202.41 5814.64,-4200.42 5823.39,-4201.02 5823.39,-4201.02"/>
</g>
<!-- The University Of Chicago&#45;&gt;University Of Iowa -->
<g id="edge98" class="edge"><title>The University Of Chicago&#45;&gt;University Of Iowa</title>
<path fill="none" stroke="black" stroke-width="3.1" d="M4648.43,-4654.14C4788.3,-4632.71 5069.05,-4589.7 5199.31,-4569.74"/>
<polygon fill="black" stroke="black" stroke-width="3.1" points="5207.29,-4568.52 5199.93,-4573.29 5203.5,-4570.16 5199.55,-4570.77 5199.39,-4569.73 5199.23,-4568.69 5203.18,-4568.09 5198.84,-4566.17 5207.29,-4568.52 5207.29,-4568.52"/>
</g>
<!-- The University Of Chicago&#45;&gt;University Of Virginia -->
<g id="edge16" class="edge"><title>The University Of Chicago&#45;&gt;University Of Virginia</title>
<path fill="none" stroke="black" d="M4536.67,-4648.69C4352.62,-4533.97 3350.28,-3909.21 3146.86,-3782.42"/>
<polygon fill="black" stroke="black" points="3139.96,-3778.12 3148.65,-3779.29 3143.36,-3780.23 3146.75,-3782.35 3146.75,-3782.35 3146.75,-3782.35 3143.36,-3780.23 3144.85,-3785.4 3139.96,-3778.12 3139.96,-3778.12"/>
</g>
<!-- The University Of Chicago&#45;&gt;The University Of Chicago -->
<g id="edge116" class="edge"><title>The University Of Chicago&#45;&gt;The University Of Chicago</title>
<path fill="none" stroke="black" stroke-width="5.1" d="M4648.52,-4672.72C4659.18,-4671.69 4666.23,-4669.72 4666.23,-4666.8 4666.23,-4664.71 4662.59,-4663.1 4656.58,-4661.98"/>
<polygon fill="black" stroke="black" stroke-width="5.1" points="4648.52,-4660.89 4657.22,-4656.28 4652.76,-4659.39 4656.73,-4659.93 4656.45,-4661.96 4656.18,-4663.99 4652.21,-4663.46 4655.68,-4667.65 4648.52,-4660.89 4648.52,-4660.89"/>
</g>
<!-- The University Of Chicago&#45;&gt;University Of Michigan -->
<g id="edge108" class="edge"><title>The University Of Chicago&#45;&gt;University Of Michigan</title>
<path fill="none" stroke="black" stroke-width="3.7" d="M4528.97,-4648.78C4348.31,-4560.15 3555.24,-4171.14 3359.02,-4074.89"/>
<polygon fill="black" stroke="black" stroke-width="3.7" points="3351.75,-4071.32 3360.77,-4071.11 3355.94,-4071.87 3359.53,-4073.63 3358.93,-4074.84 3358.34,-4076.06 3354.75,-4074.29 3357.1,-4078.58 3351.75,-4071.32 3351.75,-4071.32"/>
</g>
<!-- The University Of Chicago&#45;&gt;The University Of North Carolina At Chapel Hill -->
<g id="edge87" class="edge"><title>The University Of Chicago&#45;&gt;The University Of North Carolina At Chapel Hill</title>
<path fill="none" stroke="black" stroke-width="2.6" d="M4589.07,-4648.74C4783.8,-4498.01 6136.81,-3450.7 6355.51,-3281.41"/>
<polygon fill="black" stroke="black" stroke-width="2.6" points="6361.94,-3276.43 6357.82,-3284.18 6359.27,-3279.51 6356.1,-3281.96 6355.61,-3281.33 6355.13,-3280.7 6358.29,-3278.25 6353.41,-3278.48 6361.94,-3276.43 6361.94,-3276.43"/>
</g>
<!-- The Louisiana State University -->
<g id="node38" class="node"><title>The Louisiana State University</title>
<polygon fill="none" stroke="black" points="4650.37,-4849.59 4464.37,-4849.59 4464.37,-4813.59 4650.37,-4813.59 4650.37,-4849.59"/>
<text text-anchor="middle" x="4557.37" y="-4827.89" font-family="Times,serif" font-size="14.00">The Louisiana State University</text>
</g>
<!-- The University Of Chicago&#45;&gt;The Louisiana State University -->
<g id="edge34" class="edge"><title>The University Of Chicago&#45;&gt;The Louisiana State University</title>
<path fill="none" stroke="black" d="M4564.8,-4685.07C4563.32,-4714.35 4560.4,-4771.9 4558.69,-4805.5"/>
<polygon fill="black" stroke="black" points="4558.29,-4813.5 4555.1,-4805.32 4558.49,-4809.5 4558.69,-4805.51 4558.69,-4805.51 4558.69,-4805.51 4558.49,-4809.5 4562.29,-4805.69 4558.29,-4813.5 4558.29,-4813.5"/>
</g>
<!-- The University Of Chicago&#45;&gt;University Of Texas At Austin -->
<g id="edge35" class="edge"><title>The University Of Chicago&#45;&gt;University Of Texas At Austin</title>
<path fill="none" stroke="black" d="M4545.14,-4648.68C4375.78,-4509.27 3214.34,-3610.1 3002.88,-3454.45"/>
<polygon fill="black" stroke="black" points="2996.33,-3449.64 3004.91,-3451.47 2999.55,-3452.01 3002.78,-3454.37 3002.78,-3454.37 3002.78,-3454.37 2999.55,-3452.01 3000.65,-3457.28 2996.33,-3449.64 2996.33,-3449.64"/>
</g>
<!-- The University Of Chicago&#45;&gt;The Ohio State University -->
<g id="edge104" class="edge"><title>The University Of Chicago&#45;&gt;The Ohio State University</title>
<path fill="none" stroke="black" stroke-width="3.4" d="M4557.9,-4648.57C4458.47,-4416.85 3442.67,-2049.77 3325.91,-1777.69"/>
<polygon fill="black" stroke="black" stroke-width="3.4" points="3322.72,-1770.26 3329.39,-1776.1 3325.4,-1773.46 3326.98,-1777.14 3325.88,-1777.61 3324.77,-1778.08 3323.2,-1774.41 3322.36,-1779.12 3322.72,-1770.26 3322.72,-1770.26"/>
</g>
<!-- Iowa State University -->
<g id="node43" class="node"><title>Iowa State University</title>
<polygon fill="none" stroke="black" points="3944.82,-4506.56 3809.82,-4506.56 3809.82,-4470.56 3944.82,-4470.56 3944.82,-4506.56"/>
<text text-anchor="middle" x="3877.32" y="-4484.86" font-family="Times,serif" font-size="14.00">Iowa State University</text>
</g>
<!-- The University Of Chicago&#45;&gt;Iowa State University -->
<g id="edge72" class="edge"><title>The University Of Chicago&#45;&gt;Iowa State University</title>
<path fill="none" stroke="black" stroke-width="2.1" d="M4495.93,-4648.73C4365.81,-4615.04 4087.22,-4542.91 3952.86,-4508.12"/>
<polygon fill="black" stroke="black" stroke-width="2.1" points="3945.01,-4506.09 3953.65,-4504.61 3949.02,-4506.56 3952.89,-4507.56 3952.75,-4508.09 3952.61,-4508.63 3948.74,-4507.62 3951.85,-4511.58 3945.01,-4506.09 3945.01,-4506.09"/>
</g>
<!-- The University Of Chicago&#45;&gt;University Of Wisconsin&#45;Madison -->
<g id="edge109" class="edge"><title>The University Of Chicago&#45;&gt;University Of Wisconsin&#45;Madison</title>
<path fill="none" stroke="black" stroke-width="3.7" d="M4648.51,-4662.61C4696.99,-4660.15 4758.85,-4657.01 4811.53,-4654.34"/>
<polygon fill="black" stroke="black" stroke-width="3.7" points="4819.57,-4653.93 4811.79,-4658.49 4815.64,-4655.48 4811.65,-4655.68 4811.58,-4654.34 4811.51,-4652.99 4815.5,-4652.79 4811.37,-4650.18 4819.57,-4653.93 4819.57,-4653.93"/>
</g>
<!-- The University Of Chicago&#45;&gt;University Of California, Berkeley -->
<g id="edge94" class="edge"><title>The University Of Chicago&#45;&gt;University Of California, Berkeley</title>
<path fill="none" stroke="black" stroke-width="2.8" d="M4602.63,-4648.7C4810.57,-4546.7 5834.6,-4044.39 6060.68,-3933.49"/>
<polygon fill="black" stroke="black" stroke-width="2.8" points="6068.07,-3929.87 6062.48,-3936.62 6064.88,-3932.44 6061.29,-3934.2 6060.89,-3933.39 6060.49,-3932.58 6064.09,-3930.82 6059.3,-3930.16 6068.07,-3929.87 6068.07,-3929.87"/>
</g>
<!-- University Of Toronto&#45;&gt;University Of Toronto -->
<g id="edge80" class="edge"><title>University Of Toronto&#45;&gt;University Of Toronto</title>
<path fill="none" stroke="black" stroke-width="2.1" d="M316.712,-960.18C327.33,-959.241 334.539,-957.189 334.539,-954.025 334.539,-951.751 330.815,-950.051 324.777,-948.927"/>
<polygon fill="black" stroke="black" stroke-width="2.1" points="316.712,-947.87 325.112,-945.34 320.75,-947.844 324.716,-948.364 324.644,-948.909 324.573,-949.455 320.607,-948.935 324.177,-952.479 316.712,-947.87 316.712,-947.87"/>
</g>
<!-- University Of Michigan&#45;&gt;St. Louis University -->
<g id="edge61" class="edge"><title>University Of Michigan&#45;&gt;St. Louis University</title>
<path fill="none" stroke="black" stroke-width="1.7" d="M3318.73,-4035.09C3364.57,-3812.04 3817.33,-1608.91 3871.94,-1343.17"/>
<polygon fill="black" stroke="black" stroke-width="1.7" points="3873.58,-1335.2 3875.49,-1343.76 3873.11,-1339.19 3872.31,-1343.11 3871.97,-1343.04 3871.62,-1342.96 3872.43,-1339.05 3868.44,-1342.31 3873.58,-1335.2 3873.58,-1335.2"/>
</g>
<!-- University Of Michigan&#45;&gt;University Of Michigan -->
<g id="edge112" class="edge"><title>University Of Michigan&#45;&gt;University Of Michigan</title>
<path fill="none" stroke="black" stroke-width="3.9" d="M3389.35,-4059.35C3399.91,-4058.37 3406.99,-4056.35 3406.99,-4053.29 3406.99,-4051.09 3403.33,-4049.43 3397.36,-4048.31"/>
<polygon fill="black" stroke="black" stroke-width="3.9" points="3389.35,-4047.23 3397.87,-4043.95 3393.51,-4046.33 3397.48,-4046.86 3397.28,-4048.3 3397.09,-4049.73 3393.13,-4049.2 3396.7,-4052.64 3389.35,-4047.23 3389.35,-4047.23"/>
</g>
<!-- Purdue University -->
<g id="node26" class="node"><title>Purdue University</title>
<polygon fill="none" stroke="black" points="2867.4,-4832.36 2751.4,-4832.36 2751.4,-4796.36 2867.4,-4796.36 2867.4,-4832.36"/>
<text text-anchor="middle" x="2809.4" y="-4810.66" font-family="Times,serif" font-size="14.00">Purdue University</text>
</g>
<!-- University Of Michigan&#45;&gt;Purdue University -->
<g id="edge19" class="edge"><title>University Of Michigan&#45;&gt;Purdue University</title>
<path fill="none" stroke="black" d="M3302.99,-4071.35C3235.62,-4172.78 2904.57,-4671.1 2826.1,-4789.22"/>
<polygon fill="black" stroke="black" points="2821.51,-4796.13 2822.94,-4787.48 2823.72,-4792.8 2825.93,-4789.47 2825.93,-4789.47 2825.93,-4789.47 2823.72,-4792.8 2828.93,-4791.46 2821.51,-4796.13 2821.51,-4796.13"/>
</g>
<!-- University Of Michigan&#45;&gt;The Ohio State University -->
<g id="edge47" class="edge"><title>University Of Michigan&#45;&gt;The Ohio State University</title>
<path fill="none" stroke="black" d="M3314.99,-4035.1C3314.99,-3833.54 3314.99,-2019.77 3314.99,-1778.68"/>
<polygon fill="black" stroke="black" points="3314.99,-1770.47 3318.59,-1778.47 3314.99,-1774.47 3314.99,-1778.47 3314.99,-1778.47 3314.99,-1778.47 3314.99,-1774.47 3311.39,-1778.47 3314.99,-1770.47 3314.99,-1770.47"/>
</g>
<!-- University Of Michigan&#45;&gt;Iowa State University -->
<g id="edge41" class="edge"><title>University Of Michigan&#45;&gt;Iowa State University</title>
<path fill="none" stroke="black" d="M3338.44,-4071.44C3427.84,-4140.64 3747.34,-4387.95 3847.24,-4465.28"/>
<polygon fill="black" stroke="black" points="3853.77,-4470.34 3845.24,-4468.29 3850.61,-4467.89 3847.45,-4465.44 3847.45,-4465.44 3847.45,-4465.44 3850.61,-4467.89 3849.65,-4462.59 3853.77,-4470.34 3853.77,-4470.34"/>
</g>
<!-- University Of Kentucky -->
<g id="node50" class="node"><title>University Of Kentucky</title>
<polygon fill="none" stroke="black" points="2742.22,-4685.17 2594.22,-4685.17 2594.22,-4649.17 2742.22,-4649.17 2742.22,-4685.17"/>
<text text-anchor="middle" x="2668.22" y="-4663.47" font-family="Times,serif" font-size="14.00">University Of Kentucky</text>
</g>
<!-- University Of Michigan&#45;&gt;University Of Kentucky -->
<g id="edge52" class="edge"><title>University Of Michigan&#45;&gt;University Of Kentucky</title>
<path fill="none" stroke="black" d="M3295.99,-4071.33C3203.21,-4159.39 2798.12,-4543.88 2693.14,-4643.52"/>
<polygon fill="black" stroke="black" points="2687.23,-4649.13 2690.55,-4641.01 2690.13,-4646.38 2693.03,-4643.62 2693.03,-4643.62 2693.03,-4643.62 2690.13,-4646.38 2695.51,-4646.23 2687.23,-4649.13 2687.23,-4649.13"/>
</g>
<!-- The Pennsylvania State University -->
<g id="node51" class="node"><title>The Pennsylvania State University</title>
<polygon fill="none" stroke="black" points="2614.64,-4491.92 2409.64,-4491.92 2409.64,-4455.92 2614.64,-4455.92 2614.64,-4491.92"/>
<text text-anchor="middle" x="2512.14" y="-4470.22" font-family="Times,serif" font-size="14.00">The Pennsylvania State University</text>
</g>
<!-- University Of Michigan&#45;&gt;The Pennsylvania State University -->
<g id="edge53" class="edge"><title>University Of Michigan&#45;&gt;The Pennsylvania State University</title>
<path fill="none" stroke="black" d="M3280.5,-4071.36C3151.05,-4139.18 2694.5,-4378.38 2553.76,-4452.11"/>
<polygon fill="black" stroke="black" points="2546.51,-4455.91 2551.93,-4449.01 2550.06,-4454.05 2553.6,-4452.2 2553.6,-4452.2 2553.6,-4452.2 2550.06,-4454.05 2555.27,-4455.39 2546.51,-4455.91 2546.51,-4455.91"/>
</g>
<!-- University Of Oxford&#45;&gt;University Of Oxford -->
<g id="edge56" class="edge"><title>University Of Oxford&#45;&gt;University Of Oxford</title>
<path fill="none" stroke="black" d="M3037.23,-2380.19C3047.73,-2379.27 3054.89,-2377.2 3054.89,-2374 3054.89,-2371.7 3051.19,-2369.99 3045.21,-2368.87"/>
<polygon fill="black" stroke="black" points="3037.23,-2367.82 3045.63,-2365.29 3041.19,-2368.34 3045.16,-2368.86 3045.16,-2368.86 3045.16,-2368.86 3041.19,-2368.34 3044.69,-2372.43 3037.23,-2367.82 3037.23,-2367.82"/>
</g>
<!-- University Of London, University Of Cambridge -->
<g id="node28" class="node"><title>University Of London, University Of Cambridge</title>
<polygon fill="none" stroke="black" points="284,-1504.75 -5.68434e-14,-1504.75 -5.68434e-14,-1468.75 284,-1468.75 284,-1504.75"/>
<text text-anchor="middle" x="142" y="-1483.05" font-family="Times,serif" font-size="14.00">University Of London, University Of Cambridge</text>
</g>
<!-- University Of Oxford&#45;&gt;University Of London, University Of Cambridge -->
<g id="edge20" class="edge"><title>University Of Oxford&#45;&gt;University Of London, University Of Cambridge</title>
<path fill="none" stroke="black" d="M2912.44,-2355.98C2550.68,-2242.48 590.624,-1627.5 207.108,-1507.18"/>
<polygon fill="black" stroke="black" points="199.413,-1504.76 208.124,-1503.72 203.23,-1505.96 207.047,-1507.16 207.047,-1507.16 207.047,-1507.16 203.23,-1505.96 205.969,-1510.59 199.413,-1504.76 199.413,-1504.76"/>
</g>
<!-- University Of Oxford&#45;&gt;Massachusetts Institute Of Technology -->
<g id="edge38" class="edge"><title>University Of Oxford&#45;&gt;Massachusetts Institute Of Technology</title>
<path fill="none" stroke="black" d="M2966.13,-2392.33C2954.2,-2450.35 2917.26,-2630.1 2903.34,-2697.87"/>
<polygon fill="black" stroke="black" points="2901.68,-2705.93 2899.76,-2697.37 2902.48,-2702.01 2903.29,-2698.09 2903.29,-2698.09 2903.29,-2698.09 2902.48,-2702.01 2906.82,-2698.82 2901.68,-2705.93 2901.68,-2705.93"/>
</g>
<!-- University Of Edinburgh -->
<g id="node29" class="node"><title>University Of Edinburgh</title>
<polygon fill="none" stroke="black" points="721.903,-245.884 569.903,-245.884 569.903,-209.884 721.903,-209.884 721.903,-245.884"/>
<text text-anchor="middle" x="645.903" y="-224.184" font-family="Times,serif" font-size="14.00">University Of Edinburgh</text>
</g>
<!-- University Of Edinburgh&#45;&gt;University Of Cambridge -->
<g id="edge22" class="edge"><title>University Of Edinburgh&#45;&gt;University Of Cambridge</title>
<path fill="none" stroke="black" d="M670.699,-246.169C910.323,-422.874 2811.71,-1825 3079.52,-2022.49"/>
<polygon fill="black" stroke="black" points="3086.26,-2027.46 3077.68,-2025.61 3083.04,-2025.09 3079.82,-2022.71 3079.82,-2022.71 3079.82,-2022.71 3083.04,-2025.09 3081.96,-2019.82 3086.26,-2027.46 3086.26,-2027.46"/>
</g>
<!-- University Of Edinburgh&#45;&gt;University Of Edinburgh -->
<g id="edge96" class="edge"><title>University Of Edinburgh&#45;&gt;University Of Edinburgh</title>
<path fill="none" stroke="black" stroke-width="2.9" d="M722.25,-233.907C732.831,-232.915 739.903,-230.907 739.903,-227.884 739.903,-225.711 736.25,-224.062 730.266,-222.939"/>
<polygon fill="black" stroke="black" stroke-width="2.9" points="722.25,-221.861 730.659,-219.359 726.341,-221.452 730.305,-221.985 730.179,-222.927 730.052,-223.869 726.088,-223.335 729.699,-226.495 722.25,-221.861 722.25,-221.861"/>
</g>
<!-- University Of Newcastle&#45;Upon Tyne -->
<g id="node30" class="node"><title>University Of Newcastle&#45;Upon Tyne</title>
<polygon fill="none" stroke="black" points="903.167,-36 685.167,-36 685.167,-0 903.167,-0 903.167,-36"/>
<text text-anchor="middle" x="794.167" y="-14.3" font-family="Times,serif" font-size="14.00">University Of Newcastle&#45;Upon Tyne</text>
</g>
<!-- University Of Newcastle&#45;Upon Tyne&#45;&gt;University Of Cambridge -->
<g id="edge23" class="edge"><title>University Of Newcastle&#45;Upon Tyne&#45;&gt;University Of Cambridge</title>
<path fill="none" stroke="black" d="M814.902,-36.1479C1029.41,-223.887 2840.87,-1809.31 3083.91,-2022.02"/>
<polygon fill="black" stroke="black" points="3090,-2027.35 3081.61,-2024.79 3086.99,-2024.72 3083.98,-2022.08 3083.98,-2022.08 3083.98,-2022.08 3086.99,-2024.72 3086.35,-2019.37 3090,-2027.35 3090,-2027.35"/>
</g>
<!-- University Of Pennsylvania&#45;&gt;The Johns Hopkins University -->
<g id="edge106" class="edge"><title>University Of Pennsylvania&#45;&gt;The Johns Hopkins University</title>
<path fill="none" stroke="black" stroke-width="3.6" d="M3579.73,-4281.35C3655.72,-4039.15 4467.41,-1452.09 4557.6,-1164.64"/>
<polygon fill="black" stroke="black" stroke-width="3.6" points="4560.05,-1156.82 4561.52,-1165.66 4560.1,-1161.02 4558.9,-1164.84 4557.66,-1164.45 4556.42,-1164.06 4557.62,-1160.24 4553.8,-1163.24 4560.05,-1156.82 4560.05,-1156.82"/>
</g>
<!-- University Of Pennsylvania&#45;&gt;University Of Michigan -->
<g id="edge73" class="edge"><title>University Of Pennsylvania&#45;&gt;University Of Michigan</title>
<path fill="none" stroke="black" stroke-width="2.1" d="M3554.98,-4281.41C3508.95,-4237.66 3391.66,-4126.16 3340.03,-4077.09"/>
<polygon fill="black" stroke="black" stroke-width="2.1" points="3334.07,-4071.42 3342.35,-4074.32 3337.35,-4073.78 3340.25,-4076.54 3339.87,-4076.93 3339.49,-4077.33 3336.59,-4074.58 3337.39,-4079.54 3334.07,-4071.42 3334.07,-4071.42"/>
</g>
<!-- University Of Pennsylvania&#45;&gt;University Of Pennsylvania -->
<g id="edge110" class="edge"><title>University Of Pennsylvania&#45;&gt;University Of Pennsylvania</title>
<path fill="none" stroke="black" stroke-width="3.7" d="M3657.65,-4305.43C3668.41,-4304.41 3675.53,-4302.44 3675.53,-4299.52 3675.53,-4297.42 3671.85,-4295.81 3665.79,-4294.69"/>
<polygon fill="black" stroke="black" stroke-width="3.7" points="3657.65,-4293.6 3666.13,-4290.54 3661.79,-4292.8 3665.75,-4293.33 3665.58,-4294.66 3665.4,-4296 3661.43,-4295.47 3665.02,-4298.79 3657.65,-4293.6 3657.65,-4293.6"/>
</g>
<!-- New York University -->
<g id="node32" class="node"><title>New York University</title>
<polygon fill="none" stroke="black" points="3197.1,-5037.21 3063.1,-5037.21 3063.1,-5001.21 3197.1,-5001.21 3197.1,-5037.21"/>
<text text-anchor="middle" x="3130.1" y="-5015.51" font-family="Times,serif" font-size="14.00">New York University</text>
</g>
<!-- University Of Pennsylvania&#45;&gt;New York University -->
<g id="edge26" class="edge"><title>University Of Pennsylvania&#45;&gt;New York University</title>
<path fill="none" stroke="black" d="M3562.83,-4317.67C3502.43,-4415.58 3215.62,-4880.57 3145.56,-4994.14"/>
<polygon fill="black" stroke="black" points="3141.27,-5001.1 3142.4,-4992.41 3143.37,-4997.7 3145.47,-4994.3 3145.47,-4994.3 3145.47,-4994.3 3143.37,-4997.7 3148.53,-4996.19 3141.27,-5001.1 3141.27,-5001.1"/>
</g>
<!-- Duke University -->
<g id="node36" class="node"><title>Duke University</title>
<polygon fill="none" stroke="black" points="3031.72,-4919.01 2924.72,-4919.01 2924.72,-4883.01 3031.72,-4883.01 3031.72,-4919.01"/>
<text text-anchor="middle" x="2978.22" y="-4897.31" font-family="Times,serif" font-size="14.00">Duke University</text>
</g>
<!-- University Of Pennsylvania&#45;&gt;Duke University -->
<g id="edge32" class="edge"><title>University Of Pennsylvania&#45;&gt;Duke University</title>
<path fill="none" stroke="black" d="M3556.19,-4317.52C3470.38,-4404.16 3100.02,-4778.05 3002.06,-4876.94"/>
<polygon fill="black" stroke="black" points="2996.27,-4882.78 2999.34,-4874.57 2999.09,-4879.94 3001.9,-4877.1 3001.9,-4877.1 3001.9,-4877.1 2999.09,-4879.94 3004.46,-4879.63 2996.27,-4882.78 2996.27,-4882.78"/>
</g>
<!-- Rice University&#45;&gt;California Institute Of Technology -->
<g id="edge100" class="edge"><title>Rice University&#45;&gt;California Institute Of Technology</title>
<path fill="none" stroke="black" stroke-width="3.2" d="M3625.25,-1508.62C3914.8,-1523.3 5348.32,-1596 5760.86,-1616.93"/>
<polygon fill="black" stroke="black" stroke-width="3.2" points="5768.94,-1617.33 5760.77,-1620.52 5764.89,-1618.23 5760.9,-1618.03 5760.95,-1616.93 5761.01,-1615.83 5765,-1616.03 5761.13,-1613.33 5768.94,-1617.33 5768.94,-1617.33"/>
</g>
<!-- Rice University&#45;&gt;The Ohio State University -->
<g id="edge75" class="edge"><title>Rice University&#45;&gt;The Ohio State University</title>
<path fill="none" stroke="black" stroke-width="2.1" d="M3554.98,-1524.13C3508.95,-1567.88 3391.66,-1679.38 3340.03,-1728.45"/>
<polygon fill="black" stroke="black" stroke-width="2.1" points="3334.07,-1734.12 3337.39,-1726 3336.59,-1730.96 3339.49,-1728.21 3339.87,-1728.61 3340.25,-1729 3337.35,-1731.76 3342.35,-1731.21 3334.07,-1734.12 3334.07,-1734.12"/>
</g>
<!-- University College London -->
<g id="node35" class="node"><title>University College London</title>
<polygon fill="none" stroke="black" points="1863.52,-3410.45 1698.52,-3410.45 1698.52,-3374.45 1863.52,-3374.45 1863.52,-3410.45"/>
<text text-anchor="middle" x="1781.02" y="-3388.75" font-family="Times,serif" font-size="14.00">University College London</text>
</g>
<!-- University College London&#45;&gt;University Of Minnesota&#45;Minneapolis -->
<g id="edge30" class="edge"><title>University College London&#45;&gt;University Of Minnesota&#45;Minneapolis</title>
<path fill="none" stroke="black" d="M1863.73,-3378.36C1885.08,-3374.72 1908.43,-3370.74 1931.06,-3366.89"/>
<polygon fill="black" stroke="black" points="1939.03,-3365.53 1931.74,-3370.42 1935.08,-3366.2 1931.14,-3366.88 1931.14,-3366.88 1931.14,-3366.88 1935.08,-3366.2 1930.53,-3363.33 1939.03,-3365.53 1939.03,-3365.53"/>
</g>
<!-- University Of Texas At Austin&#45;&gt;The Johns Hopkins University -->
<g id="edge85" class="edge"><title>University Of Texas At Austin&#45;&gt;The Johns Hopkins University</title>
<path fill="none" stroke="black" stroke-width="2.6" d="M2982.5,-3413.41C3122.57,-3212.17 4385.17,-1398.15 4548.38,-1163.66"/>
<polygon fill="black" stroke="black" stroke-width="2.6" points="4553.09,-1156.89 4551.48,-1165.51 4551.46,-1160.63 4549.18,-1163.91 4548.52,-1163.46 4547.87,-1163 4550.15,-1159.71 4545.57,-1161.4 4553.09,-1156.89 4553.09,-1156.89"/>
</g>
<!-- University Of Texas At Austin&#45;&gt;University Of Virginia -->
<g id="edge77" class="edge"><title>University Of Texas At Austin&#45;&gt;University Of Virginia</title>
<path fill="none" stroke="black" stroke-width="2.1" d="M2977.67,-3449.66C3001.3,-3504.73 3072.31,-3670.19 3099.79,-3734.24"/>
<polygon fill="black" stroke="black" stroke-width="2.1" points="3103.08,-3741.89 3096.61,-3735.96 3100.99,-3738.43 3099.42,-3734.76 3099.92,-3734.54 3100.43,-3734.32 3102,-3738 3103.23,-3733.12 3103.08,-3741.89 3103.08,-3741.89"/>
</g>
<!-- University Of Texas At Austin&#45;&gt;The University Of Chicago -->
<g id="edge86" class="edge"><title>University Of Texas At Austin&#45;&gt;The University Of Chicago</title>
<path fill="none" stroke="black" stroke-width="2.6" d="M2990.48,-3449.66C3159.84,-3589.07 4321.28,-4488.24 4532.74,-4643.89"/>
<polygon fill="black" stroke="black" stroke-width="2.6" points="4539.29,-4648.7 4530.71,-4646.87 4535.59,-4646.98 4532.37,-4644.61 4532.84,-4643.97 4533.32,-4643.32 4536.54,-4645.69 4534.97,-4641.06 4539.29,-4648.7 4539.29,-4648.7"/>
</g>
<!-- University Of Texas At Austin&#45;&gt;University Of Michigan -->
<g id="edge90" class="edge"><title>University Of Texas At Austin&#45;&gt;University Of Michigan</title>
<path fill="none" stroke="black" stroke-width="2.8" d="M2980.03,-3449.81C3029.29,-3538.55 3243.53,-3924.54 3300.85,-4027.81"/>
<polygon fill="black" stroke="black" stroke-width="2.8" points="3304.85,-4035.02 3297.82,-4029.77 3302.12,-4031.96 3300.18,-4028.46 3300.97,-4028.02 3301.76,-4027.59 3303.7,-4031.08 3304.12,-4026.28 3304.85,-4035.02 3304.85,-4035.02"/>
</g>
<!-- Massachusetts Institute Of Technology&#45;&gt;California Institute Of Technology -->
<g id="edge45" class="edge"><title>Massachusetts Institute Of Technology&#45;&gt;California Institute Of Technology</title>
<path fill="none" stroke="black" d="M2946.78,-2705.99C3298.39,-2575.77 5440.37,-1782.47 5815.93,-1643.37"/>
<polygon fill="black" stroke="black" points="5823.43,-1640.6 5817.18,-1646.75 5819.68,-1641.98 5815.93,-1643.37 5815.93,-1643.37 5815.93,-1643.37 5819.68,-1641.98 5814.68,-1640 5823.43,-1640.6 5823.43,-1640.6"/>
</g>
<!-- Massachusetts Institute Of Technology&#45;&gt;Massachusetts Institute Of Technology -->
<g id="edge99" class="edge"><title>Massachusetts Institute Of Technology&#45;&gt;Massachusetts Institute Of Technology</title>
<path fill="none" stroke="black" stroke-width="3.1" d="M3013.33,-2729.49C3024.13,-2728.38 3030.95,-2726.57 3030.95,-2724.08 3030.95,-2722.28 3027.43,-2720.85 3021.43,-2719.77"/>
<polygon fill="black" stroke="black" stroke-width="3.1" points="3013.33,-2718.66 3021.74,-2716.18 3017.43,-2718.16 3021.4,-2718.7 3021.25,-2719.74 3021.11,-2720.78 3017.15,-2720.24 3020.77,-2723.31 3013.33,-2718.66 3013.33,-2718.66"/>
</g>
<!-- Stanford University -->
<g id="node46" class="node"><title>Stanford University</title>
<polygon fill="none" stroke="black" points="2190.2,-2663.8 2066.2,-2663.8 2066.2,-2627.8 2190.2,-2627.8 2190.2,-2663.8"/>
<text text-anchor="middle" x="2128.2" y="-2642.1" font-family="Times,serif" font-size="14.00">Stanford University</text>
</g>
<!-- Massachusetts Institute Of Technology&#45;&gt;Stanford University -->
<g id="edge49" class="edge"><title>Massachusetts Institute Of Technology&#45;&gt;Stanford University</title>
<path fill="none" stroke="black" d="M2782.71,-2712.36C2621.06,-2695.92 2331.88,-2666.51 2198.78,-2652.98"/>
<polygon fill="black" stroke="black" points="2190.63,-2652.15 2198.95,-2649.38 2194.61,-2652.55 2198.58,-2652.96 2198.58,-2652.96 2198.58,-2652.96 2194.61,-2652.55 2198.22,-2656.54 2190.63,-2652.15 2190.63,-2652.15"/>
</g>
<!-- The Ohio State University&#45;&gt;The Ohio State University -->
<g id="edge39" class="edge"><title>The Ohio State University&#45;&gt;The Ohio State University</title>
<path fill="none" stroke="black" d="M3395.35,-1758.2C3405.96,-1757.19 3412.99,-1755.2 3412.99,-1752.25 3412.99,-1750.13 3409.36,-1748.5 3403.38,-1747.38"/>
<polygon fill="black" stroke="black" points="3395.35,-1746.3 3403.76,-1743.8 3399.32,-1746.83 3403.28,-1747.37 3403.28,-1747.37 3403.28,-1747.37 3399.32,-1746.83 3402.8,-1750.94 3395.35,-1746.3 3395.35,-1746.3"/>
</g>
<!-- University Of Wisconsin&#45;Madison&#45;&gt;University Of Wisconsin&#45;Madison -->
<g id="edge59" class="edge"><title>University Of Wisconsin&#45;Madison&#45;&gt;University Of Wisconsin&#45;Madison</title>
<path fill="none" stroke="black" stroke-width="1.7" d="M5025.93,-4654.3C5036.73,-4653.2 5043.66,-4651.34 5043.66,-4648.7 5043.66,-4646.81 5040.08,-4645.31 5034.06,-4644.21"/>
<polygon fill="black" stroke="black" stroke-width="1.7" points="5025.93,-4643.11 5034.34,-4640.62 5029.94,-4643.3 5033.9,-4643.84 5033.86,-4644.19 5033.81,-4644.53 5029.84,-4644 5033.37,-4647.75 5025.93,-4643.11 5025.93,-4643.11"/>
</g>
<!-- The University Of Rochester -->
<g id="node45" class="node"><title>The University Of Rochester</title>
<polygon fill="none" stroke="black" points="5143.4,-4803.8 4969.4,-4803.8 4969.4,-4767.8 5143.4,-4767.8 5143.4,-4803.8"/>
<text text-anchor="middle" x="5056.4" y="-4782.1" font-family="Times,serif" font-size="14.00">The University Of Rochester</text>
</g>
<!-- University Of Wisconsin&#45;Madison&#45;&gt;The University Of Rochester -->
<g id="edge43" class="edge"><title>University Of Wisconsin&#45;Madison&#45;&gt;The University Of Rochester</title>
<path fill="none" stroke="black" d="M4940.42,-4666.91C4964.2,-4691.29 5006.45,-4734.6 5032.86,-4761.67"/>
<polygon fill="black" stroke="black" points="5038.56,-4767.52 5030.4,-4764.31 5035.77,-4764.66 5032.98,-4761.8 5032.98,-4761.8 5032.98,-4761.8 5035.77,-4764.66 5035.55,-4759.28 5038.56,-4767.52 5038.56,-4767.52"/>
</g>
<!-- Northwestern University -->
<g id="node52" class="node"><title>Northwestern University</title>
<polygon fill="none" stroke="black" points="4900.14,-4838.6 4749.14,-4838.6 4749.14,-4802.6 4900.14,-4802.6 4900.14,-4838.6"/>
<text text-anchor="middle" x="4824.64" y="-4816.9" font-family="Times,serif" font-size="14.00">Northwestern University</text>
</g>
<!-- University Of Wisconsin&#45;Madison&#45;&gt;Northwestern University -->
<g id="edge63" class="edge"><title>University Of Wisconsin&#45;Madison&#45;&gt;Northwestern University</title>
<path fill="none" stroke="black" stroke-width="1.7" d="M4912.35,-4666.77C4894.78,-4697.6 4858.97,-4760.39 4838.97,-4795.47"/>
<polygon fill="black" stroke="black" stroke-width="1.7" points="4834.95,-4802.51 4835.79,-4793.78 4836.63,-4798.86 4838.61,-4795.39 4838.92,-4795.56 4839.22,-4795.74 4837.24,-4799.21 4842.04,-4797.35 4834.95,-4802.51 4834.95,-4802.51"/>
</g>
<!-- University Of Leeds -->
<g id="node48" class="node"><title>University Of Leeds</title>
<polygon fill="none" stroke="black" points="437.326,-466.85 309.326,-466.85 309.326,-430.85 437.326,-430.85 437.326,-466.85"/>
<text text-anchor="middle" x="373.326" y="-445.15" font-family="Times,serif" font-size="14.00">University Of Leeds</text>
</g>
<!-- University Of Leeds&#45;&gt;University Of Manchester -->
<g id="edge51" class="edge"><title>University Of Leeds&#45;&gt;University Of Manchester</title>
<path fill="none" stroke="black" d="M405.043,-467.027C437.239,-485.478 487.126,-514.069 521.622,-533.838"/>
<polygon fill="black" stroke="black" points="528.737,-537.916 520.006,-537.061 525.267,-535.927 521.796,-533.938 521.796,-533.938 521.796,-533.938 525.267,-535.927 523.586,-530.815 528.737,-537.916 528.737,-537.916"/>
</g>
<!-- University Of California, Berkeley&#45;&gt;Princeton University -->
<g id="edge67" class="edge"><title>University Of California, Berkeley&#45;&gt;Princeton University</title>
<path fill="none" stroke="black" stroke-width="1.7" d="M6110.67,-3893.43C6149.08,-3770.99 6367.83,-3073.79 6413.24,-2929.07"/>
<polygon fill="black" stroke="black" stroke-width="1.7" points="6415.74,-2921.09 6416.78,-2929.8 6414.88,-2925.01 6413.68,-2928.83 6413.35,-2928.72 6413.01,-2928.62 6414.21,-2924.8 6409.91,-2927.64 6415.74,-2921.09 6415.74,-2921.09"/>
</g>
<!-- University Of California, Berkeley&#45;&gt;University Of Illinois At Urbana&#45;Champaign -->
<g id="edge95" class="edge"><title>University Of California, Berkeley&#45;&gt;University Of Illinois At Urbana&#45;Champaign</title>
<path fill="none" stroke="black" stroke-width="2.9" d="M6089.27,-3930.01C6048.52,-3977.49 5939.02,-4105.03 5892.97,-4158.67"/>
<polygon fill="black" stroke="black" stroke-width="2.9" points="5887.68,-4164.84 5890.16,-4156.42 5889.56,-4161.18 5892.17,-4158.15 5892.89,-4158.77 5893.61,-4159.39 5891.01,-4162.42 5895.62,-4161.11 5887.68,-4164.84 5887.68,-4164.84"/>
</g>
<!-- University Of California, Berkeley&#45;&gt;University Of California, Berkeley -->
<g id="edge83" class="edge"><title>University Of California, Berkeley&#45;&gt;University Of California, Berkeley</title>
<path fill="none" stroke="black" stroke-width="2.4" d="M6208.18,-3917.39C6218.98,-3916.3 6225.91,-3914.44 6225.91,-3911.8 6225.91,-3909.91 6222.33,-3908.41 6216.3,-3907.31"/>
<polygon fill="black" stroke="black" stroke-width="2.4" points="6208.18,-3906.21 6216.59,-3903.72 6212.23,-3906.05 6216.2,-3906.59 6216.1,-3907.29 6216.01,-3907.98 6212.05,-3907.44 6215.62,-3910.85 6208.18,-3906.21 6208.18,-3906.21"/>
</g>
<!-- Clark University -->
<g id="node56" class="node"><title>Clark University</title>
<polygon fill="none" stroke="black" points="6603.61,-3015.73 6496.61,-3015.73 6496.61,-2979.73 6603.61,-2979.73 6603.61,-3015.73"/>
<text text-anchor="middle" x="6550.11" y="-2994.03" font-family="Times,serif" font-size="14.00">Clark University</text>
</g>
<!-- Clark University&#45;&gt;Princeton University -->
<g id="edge101" class="edge"><title>Clark University&#45;&gt;Princeton University</title>
<path fill="none" stroke="black" stroke-width="3.3" d="M6525.62,-2979.65C6504.88,-2964.33 6475.03,-2942.29 6452.6,-2925.74"/>
<polygon fill="black" stroke="black" stroke-width="3.3" points="6445.9,-2920.79 6454.54,-2922.55 6449.8,-2922.24 6453.01,-2924.61 6452.33,-2925.54 6451.65,-2926.46 6448.43,-2924.09 6450.13,-2928.53 6445.9,-2920.79 6445.9,-2920.79"/>
</g>
</g>
</svg>
