<?xml version="1.0" encoding="UTF-8" standalone="no"?>
<!DOCTYPE svg PUBLIC "-//W3C//DTD SVG 1.1//EN"
 "http://www.w3.org/Graphics/SVG/1.1/DTD/svg11.dtd">
<!-- Generated by graphviz version 2.38.0 (20140413.2041)
 -->
<!-- Title: transition Pages: 1 -->
<svg width="8pt" height="8pt"
 viewBox="0.00 0.00 8.00 8.00" xmlns="http://www.w3.org/2000/svg" xmlns:xlink="http://www.w3.org/1999/xlink">
<g id="graph0" class="graph" transform="scale(1 1) rotate(0) translate(4 4)">
<title>transition</title>
<polygon fill="white" stroke="none" points="-4,4 -4,-4 4,-4 4,4 -4,4"/>
<text text-anchor="middle" x="0" y="3.7" font-family="Times,serif" font-size="14.00">Flow of Mathematics Ph.D.&#39;s prior to 1930 (with threshold 2.00)</text>
<!-- The University Of Chicago -->
<g id="node1" class="node"><title>The University Of Chicago</title>
<polygon fill="none" stroke="black" points="82.5,-18 -82.5,-18 -82.5,18 82.5,18 82.5,-18"/>
<text text-anchor="middle" x="0" y="3.7" font-family="Times,serif" font-size="14.00">The University Of Chicago</text>
</g>
<!-- University Of Pennsylvania -->
<g id="node2" class="node"><title>University Of Pennsylvania</title>
<polygon fill="none" stroke="black" points="83.5,-18 -83.5,-18 -83.5,18 83.5,18 83.5,-18"/>
<text text-anchor="middle" x="0" y="3.7" font-family="Times,serif" font-size="14.00">University Of Pennsylvania</text>
</g>
<!-- University Of Missouri &#45; Columbia -->
<g id="node6" class="node"><title>University Of Missouri &#45; Columbia</title>
<polygon fill="none" stroke="black" points="105,-18 -105,-18 -105,18 105,18 105,-18"/>
<text text-anchor="middle" x="0" y="3.7" font-family="Times,serif" font-size="14.00">University Of Missouri &#45; Columbia</text>
</g>
<!-- Bryn Mawr College -->
<g id="node7" class="node"><title>Bryn Mawr College</title>
<polygon fill="none" stroke="black" points="63,-18 -63,-18 -63,18 63,18 63,-18"/>
<text text-anchor="middle" x="0" y="3.7" font-family="Times,serif" font-size="14.00">Bryn Mawr College</text>
</g>
<!-- University Of Wisconsin&#45;Madison -->
<g id="node9" class="node"><title>University Of Wisconsin&#45;Madison</title>
<polygon fill="none" stroke="black" points="103,-18 -103,-18 -103,18 103,18 103,-18"/>
<text text-anchor="middle" x="0" y="3.7" font-family="Times,serif" font-size="14.00">University Of Wisconsin&#45;Madison</text>
</g>
<!-- Princeton University -->
<g id="node16" class="node"><title>Princeton University</title>
<polygon fill="none" stroke="black" points="64.5,-18 -64.5,-18 -64.5,18 64.5,18 64.5,-18"/>
<text text-anchor="middle" x="0" y="3.7" font-family="Times,serif" font-size="14.00">Princeton University</text>
</g>
<!-- Harvard University -->
<g id="node22" class="node"><title>Harvard University</title>
<polygon fill="none" stroke="black" points="61,-18 -61,-18 -61,18 61,18 61,-18"/>
<text text-anchor="middle" x="0" y="3.7" font-family="Times,serif" font-size="14.00">Harvard University</text>
</g>
<!-- University Of Iowa -->
<g id="node24" class="node"><title>University Of Iowa</title>
<polygon fill="none" stroke="black" points="61,-18 -61,-18 -61,18 61,18 61,-18"/>
<text text-anchor="middle" x="0" y="3.7" font-family="Times,serif" font-size="14.00">University Of Iowa</text>
</g>
<!-- University Of Texas At Austin -->
<g id="node72" class="node"><title>University Of Texas At Austin</title>
<polygon fill="none" stroke="black" points="92.5,-18 -92.5,-18 -92.5,18 92.5,18 92.5,-18"/>
<text text-anchor="middle" x="0" y="3.7" font-family="Times,serif" font-size="14.00">University Of Texas At Austin</text>
</g>
<!-- University Of California, Berkeley -->
<g id="node116" class="node"><title>University Of California, Berkeley</title>
<polygon fill="none" stroke="black" points="103,-18 -103,-18 -103,18 103,18 103,-18"/>
<text text-anchor="middle" x="0" y="3.7" font-family="Times,serif" font-size="14.00">University Of California, Berkeley</text>
</g>
<!-- The Johns Hopkins University -->
<g id="node3" class="node"><title>The Johns Hopkins University</title>
<polygon fill="none" stroke="black" points="91,-18 -91,-18 -91,18 91,18 91,-18"/>
<text text-anchor="middle" x="0" y="3.7" font-family="Times,serif" font-size="14.00">The Johns Hopkins University</text>
</g>
<!-- University Of Nebraska&#45;Lincoln -->
<g id="node4" class="node"><title>University Of Nebraska&#45;Lincoln</title>
<polygon fill="none" stroke="black" points="96.5,-18 -96.5,-18 -96.5,18 96.5,18 96.5,-18"/>
<text text-anchor="middle" x="0" y="3.7" font-family="Times,serif" font-size="14.00">University Of Nebraska&#45;Lincoln</text>
</g>
<!-- Clark University -->
<g id="node46" class="node"><title>Clark University</title>
<polygon fill="none" stroke="black" points="53.5,-18 -53.5,-18 -53.5,18 53.5,18 53.5,-18"/>
<text text-anchor="middle" x="0" y="3.7" font-family="Times,serif" font-size="14.00">Clark University</text>
</g>
<!-- University Of Illinois At Urbana&#45;Champaign -->
<g id="node74" class="node"><title>University Of Illinois At Urbana&#45;Champaign</title>
<polygon fill="none" stroke="black" points="131,-18 -131,-18 -131,18 131,18 131,-18"/>
<text text-anchor="middle" x="0" y="3.7" font-family="Times,serif" font-size="14.00">University Of Illinois At Urbana&#45;Champaign</text>
</g>
<!-- Yale University -->
<g id="node5" class="node"><title>Yale University</title>
<polygon fill="none" stroke="black" points="51.5,-18 -51.5,-18 -51.5,18 51.5,18 51.5,-18"/>
<text text-anchor="middle" x="0" y="3.7" font-family="Times,serif" font-size="14.00">Yale University</text>
</g>
<!-- Northwestern University -->
<g id="node8" class="node"><title>Northwestern University</title>
<polygon fill="none" stroke="black" points="75.5,-18 -75.5,-18 -75.5,18 75.5,18 75.5,-18"/>
<text text-anchor="middle" x="0" y="3.7" font-family="Times,serif" font-size="14.00">Northwestern University</text>
</g>
<!-- University Of Cambridge -->
<g id="node10" class="node"><title>University Of Cambridge</title>
<polygon fill="none" stroke="black" points="78,-18 -78,-18 -78,18 78,18 78,-18"/>
<text text-anchor="middle" x="0" y="3.7" font-family="Times,serif" font-size="14.00">University Of Cambridge</text>
</g>
<!-- University Of Edinburgh -->
<g id="node11" class="node"><title>University Of Edinburgh</title>
<polygon fill="none" stroke="black" points="76,-18 -76,-18 -76,18 76,18 76,-18"/>
<text text-anchor="middle" x="0" y="3.7" font-family="Times,serif" font-size="14.00">University Of Edinburgh</text>
</g>
<!-- University Of Oxford -->
<g id="node45" class="node"><title>University Of Oxford</title>
<polygon fill="none" stroke="black" points="67,-18 -67,-18 -67,18 67,18 67,-18"/>
<text text-anchor="middle" x="0" y="3.7" font-family="Times,serif" font-size="14.00">University Of Oxford</text>
</g>
<!-- E?tv?s Lor?nd University -->
<g id="node12" class="node"><title>E?tv?s Lor?nd University</title>
<polygon fill="none" stroke="black" points="78,-18 -78,-18 -78,18 78,18 78,-18"/>
<text text-anchor="middle" x="0" y="3.7" font-family="Times,serif" font-size="14.00">E?tv?s Lor?nd University</text>
</g>
<!-- Stockholm University -->
<g id="node13" class="node"><title>Stockholm University</title>
<polygon fill="none" stroke="black" points="68.5,-18 -68.5,-18 -68.5,18 68.5,18 68.5,-18"/>
<text text-anchor="middle" x="0" y="3.7" font-family="Times,serif" font-size="14.00">Stockholm University</text>
</g>
<!-- Eidgen?ssische Technische Hochschule Z?rich -->
<g id="node87" class="node"><title>Eidgen?ssische Technische Hochschule Z?rich</title>
<polygon fill="none" stroke="black" points="135.5,-18 -135.5,-18 -135.5,18 135.5,18 135.5,-18"/>
<text text-anchor="middle" x="0" y="3.7" font-family="Times,serif" font-size="14.00">Eidgen?ssische Technische Hochschule Z?rich</text>
</g>
<!-- Friedrich&#45;Alexander&#45;Universit?t Erlangen&#45;N?rnberg -->
<g id="node14" class="node"><title>Friedrich&#45;Alexander&#45;Universit?t Erlangen&#45;N?rnberg</title>
<polygon fill="none" stroke="black" points="149.5,-18 -149.5,-18 -149.5,18 149.5,18 149.5,-18"/>
<text text-anchor="middle" x="0" y="3.7" font-family="Times,serif" font-size="14.00">Friedrich&#45;Alexander&#45;Universit?t Erlangen&#45;N?rnberg</text>
</g>
<!-- Universit?t K?nigsberg -->
<g id="node15" class="node"><title>Universit?t K?nigsberg</title>
<polygon fill="none" stroke="black" points="71.5,-18 -71.5,-18 -71.5,18 71.5,18 71.5,-18"/>
<text text-anchor="middle" x="0" y="3.7" font-family="Times,serif" font-size="14.00">Universit?t K?nigsberg</text>
</g>
<!-- Universit?t Berlin -->
<g id="node19" class="node"><title>Universit?t Berlin</title>
<polygon fill="none" stroke="black" points="57,-18 -57,-18 -57,18 57,18 57,-18"/>
<text text-anchor="middle" x="0" y="3.7" font-family="Times,serif" font-size="14.00">Universit?t Berlin</text>
</g>
<!-- Humboldt&#45;Universit?t Zu Berlin -->
<g id="node25" class="node"><title>Humboldt&#45;Universit?t Zu Berlin</title>
<polygon fill="none" stroke="black" points="96.5,-18 -96.5,-18 -96.5,18 96.5,18 96.5,-18"/>
<text text-anchor="middle" x="0" y="3.7" font-family="Times,serif" font-size="14.00">Humboldt&#45;Universit?t Zu Berlin</text>
</g>
<!-- Ludwig&#45;Maximilians&#45;Universit?t M?nchen -->
<g id="node34" class="node"><title>Ludwig&#45;Maximilians&#45;Universit?t M?nchen</title>
<polygon fill="none" stroke="black" points="126,-18 -126,-18 -126,18 126,18 126,-18"/>
<text text-anchor="middle" x="0" y="3.7" font-family="Times,serif" font-size="14.00">Ludwig&#45;Maximilians&#45;Universit?t M?nchen</text>
</g>
<!-- Martin&#45;Luther&#45;Universit?t Halle&#45;Wittenberg -->
<g id="node38" class="node"><title>Martin&#45;Luther&#45;Universit?t Halle&#45;Wittenberg</title>
<polygon fill="none" stroke="black" points="129,-18 -129,-18 -129,18 129,18 129,-18"/>
<text text-anchor="middle" x="0" y="3.7" font-family="Times,serif" font-size="14.00">Martin&#45;Luther&#45;Universit?t Halle&#45;Wittenberg</text>
</g>
<!-- Justus&#45;Liebig&#45;Universit?t Gie?en -->
<g id="node39" class="node"><title>Justus&#45;Liebig&#45;Universit?t Gie?en</title>
<polygon fill="none" stroke="black" points="98,-18 -98,-18 -98,18 98,18 98,-18"/>
<text text-anchor="middle" x="0" y="3.7" font-family="Times,serif" font-size="14.00">Justus&#45;Liebig&#45;Universit?t Gie?en</text>
</g>
<!-- Technische Universit?t M?nchen -->
<g id="node41" class="node"><title>Technische Universit?t M?nchen</title>
<polygon fill="none" stroke="black" points="98.5,-18 -98.5,-18 -98.5,18 98.5,18 98.5,-18"/>
<text text-anchor="middle" x="0" y="3.7" font-family="Times,serif" font-size="14.00">Technische Universit?t M?nchen</text>
</g>
<!-- Georg&#45;August&#45;Universit?t G?ttingen -->
<g id="node67" class="node"><title>Georg&#45;August&#45;Universit?t G?ttingen</title>
<polygon fill="none" stroke="black" points="107.5,-18 -107.5,-18 -107.5,18 107.5,18 107.5,-18"/>
<text text-anchor="middle" x="0" y="3.7" font-family="Times,serif" font-size="14.00">Georg&#45;August&#45;Universit?t G?ttingen</text>
</g>
<!-- Universit?t Leipzig -->
<g id="node28" class="node"><title>Universit?t Leipzig</title>
<polygon fill="none" stroke="black" points="61,-18 -61,-18 -61,18 61,18 61,-18"/>
<text text-anchor="middle" x="0" y="3.7" font-family="Times,serif" font-size="14.00">Universit?t Leipzig</text>
</g>
<!-- Ruprecht&#45;Karls&#45;Universit?t Heidelberg -->
<g id="node60" class="node"><title>Ruprecht&#45;Karls&#45;Universit?t Heidelberg</title>
<polygon fill="none" stroke="black" points="114,-18 -114,-18 -114,18 114,18 114,-18"/>
<text text-anchor="middle" x="0" y="3.7" font-family="Times,serif" font-size="14.00">Ruprecht&#45;Karls&#45;Universit?t Heidelberg</text>
</g>
<!-- Universit?t Breslau -->
<g id="node79" class="node"><title>Universit?t Breslau</title>
<polygon fill="none" stroke="black" points="61,-18 -61,-18 -61,18 61,18 61,-18"/>
<text text-anchor="middle" x="0" y="3.7" font-family="Times,serif" font-size="14.00">Universit?t Breslau</text>
</g>
<!-- Technische Universit?t Wien -->
<g id="node85" class="node"><title>Technische Universit?t Wien</title>
<polygon fill="none" stroke="black" points="88,-18 -88,-18 -88,18 88,18 88,-18"/>
<text text-anchor="middle" x="0" y="3.7" font-family="Times,serif" font-size="14.00">Technische Universit?t Wien</text>
</g>
<!-- Massachusetts Institute Of Technology -->
<g id="node23" class="node"><title>Massachusetts Institute Of Technology</title>
<polygon fill="none" stroke="black" points="115,-18 -115,-18 -115,18 115,18 115,-18"/>
<text text-anchor="middle" x="0" y="3.7" font-family="Times,serif" font-size="14.00">Massachusetts Institute Of Technology</text>
</g>
<!-- Cumberland University -->
<g id="node17" class="node"><title>Cumberland University</title>
<polygon fill="none" stroke="black" points="72.5,-18 -72.5,-18 -72.5,18 72.5,18 72.5,-18"/>
<text text-anchor="middle" x="0" y="3.7" font-family="Times,serif" font-size="14.00">Cumberland University</text>
</g>
<!-- Cornell University -->
<g id="node18" class="node"><title>Cornell University</title>
<polygon fill="none" stroke="black" points="59,-18 -59,-18 -59,18 59,18 59,-18"/>
<text text-anchor="middle" x="0" y="3.7" font-family="Times,serif" font-size="14.00">Cornell University</text>
</g>
<!-- University Of Cincinnati -->
<g id="node20" class="node"><title>University Of Cincinnati</title>
<polygon fill="none" stroke="black" points="76,-18 -76,-18 -76,18 76,18 76,-18"/>
<text text-anchor="middle" x="0" y="3.7" font-family="Times,serif" font-size="14.00">University Of Cincinnati</text>
</g>
<!-- Rheinische Friedrich&#45;Wilhelms&#45;Universit?t Bonn -->
<g id="node26" class="node"><title>Rheinische Friedrich&#45;Wilhelms&#45;Universit?t Bonn</title>
<polygon fill="none" stroke="black" points="143,-18 -143,-18 -143,18 143,18 143,-18"/>
<text text-anchor="middle" x="0" y="3.7" font-family="Times,serif" font-size="14.00">Rheinische Friedrich&#45;Wilhelms&#45;Universit?t Bonn</text>
</g>
<!-- Christian&#45;Albrechts&#45;Universit?t Zu Kiel -->
<g id="node27" class="node"><title>Christian&#45;Albrechts&#45;Universit?t Zu Kiel</title>
<polygon fill="none" stroke="black" points="116.5,-18 -116.5,-18 -116.5,18 116.5,18 116.5,-18"/>
<text text-anchor="middle" x="0" y="3.7" font-family="Times,serif" font-size="14.00">Christian&#45;Albrechts&#45;Universit?t Zu Kiel</text>
</g>
<!-- Universit?t Z?rich -->
<g id="node33" class="node"><title>Universit?t Z?rich</title>
<polygon fill="none" stroke="black" points="58,-18 -58,-18 -58,18 58,18 58,-18"/>
<text text-anchor="middle" x="0" y="3.7" font-family="Times,serif" font-size="14.00">Universit?t Z?rich</text>
</g>
<!-- Westf?lische Wilhelms&#45;Universit?t M?nster -->
<g id="node35" class="node"><title>Westf?lische Wilhelms&#45;Universit?t M?nster</title>
<polygon fill="none" stroke="black" points="129,-18 -129,-18 -129,18 129,18 129,-18"/>
<text text-anchor="middle" x="0" y="3.7" font-family="Times,serif" font-size="14.00">Westf?lische Wilhelms&#45;Universit?t M?nster</text>
</g>
<!-- Bayerische Julius&#45;Maximilians&#45;Universit?t W?rzburg -->
<g id="node36" class="node"><title>Bayerische Julius&#45;Maximilians&#45;Universit?t W?rzburg</title>
<polygon fill="none" stroke="black" points="154.5,-18 -154.5,-18 -154.5,18 154.5,18 154.5,-18"/>
<text text-anchor="middle" x="0" y="3.7" font-family="Times,serif" font-size="14.00">Bayerische Julius&#45;Maximilians&#45;Universit?t W?rzburg</text>
</g>
<!-- Universit?t Wien -->
<g id="node48" class="node"><title>Universit?t Wien</title>
<polygon fill="none" stroke="black" points="55,-18 -55,-18 -55,18 55,18 55,-18"/>
<text text-anchor="middle" x="0" y="3.7" font-family="Times,serif" font-size="14.00">Universit?t Wien</text>
</g>
<!-- Philipps&#45;Universit?t Marburg -->
<g id="node56" class="node"><title>Philipps&#45;Universit?t Marburg</title>
<polygon fill="none" stroke="black" points="88.5,-18 -88.5,-18 -88.5,18 88.5,18 88.5,-18"/>
<text text-anchor="middle" x="0" y="3.7" font-family="Times,serif" font-size="14.00">Philipps&#45;Universit?t Marburg</text>
</g>
<!-- Friedrich&#45;Schiller&#45;Universit?t Jena -->
<g id="node64" class="node"><title>Friedrich&#45;Schiller&#45;Universit?t Jena</title>
<polygon fill="none" stroke="black" points="102.5,-18 -102.5,-18 -102.5,18 102.5,18 102.5,-18"/>
<text text-anchor="middle" x="0" y="3.7" font-family="Times,serif" font-size="14.00">Friedrich&#45;Schiller&#45;Universit?t Jena</text>
</g>
<!-- Universit?t Stra?burg -->
<g id="node76" class="node"><title>Universit?t Stra?burg</title>
<polygon fill="none" stroke="black" points="66.5,-18 -66.5,-18 -66.5,18 66.5,18 66.5,-18"/>
<text text-anchor="middle" x="0" y="3.7" font-family="Times,serif" font-size="14.00">Universit?t Stra?burg</text>
</g>
<!-- Ernst&#45;Moritz&#45;Arndt&#45;Universit?t Greifswald -->
<g id="node78" class="node"><title>Ernst&#45;Moritz&#45;Arndt&#45;Universit?t Greifswald</title>
<polygon fill="none" stroke="black" points="125.5,-18 -125.5,-18 -125.5,18 125.5,18 125.5,-18"/>
<text text-anchor="middle" x="0" y="3.7" font-family="Times,serif" font-size="14.00">Ernst&#45;Moritz&#45;Arndt&#45;Universit?t Greifswald</text>
</g>
<!-- Eberhard&#45;Karls&#45;Universit?t T?bingen -->
<g id="node91" class="node"><title>Eberhard&#45;Karls&#45;Universit?t T?bingen</title>
<polygon fill="none" stroke="black" points="109.5,-18 -109.5,-18 -109.5,18 109.5,18 109.5,-18"/>
<text text-anchor="middle" x="0" y="3.7" font-family="Times,serif" font-size="14.00">Eberhard&#45;Karls&#45;Universit?t T?bingen</text>
</g>
<!-- Albert&#45;Ludwigs&#45;Universit?t Freiburg Im Breisgau -->
<g id="node96" class="node"><title>Albert&#45;Ludwigs&#45;Universit?t Freiburg Im Breisgau</title>
<polygon fill="none" stroke="black" points="144.5,-18 -144.5,-18 -144.5,18 144.5,18 144.5,-18"/>
<text text-anchor="middle" x="0" y="3.7" font-family="Times,serif" font-size="14.00">Albert&#45;Ludwigs&#45;Universit?t Freiburg Im Breisgau</text>
</g>
<!-- University Of Pavia -->
<g id="node21" class="node"><title>University Of Pavia</title>
<polygon fill="none" stroke="black" points="62.5,-18 -62.5,-18 -62.5,18 62.5,18 62.5,-18"/>
<text text-anchor="middle" x="0" y="3.7" font-family="Times,serif" font-size="14.00">University Of Pavia</text>
</g>
<!-- Rice University -->
<g id="node32" class="node"><title>Rice University</title>
<polygon fill="none" stroke="black" points="51,-18 -51,-18 -51,18 51,18 51,-18"/>
<text text-anchor="middle" x="0" y="3.7" font-family="Times,serif" font-size="14.00">Rice University</text>
</g>
<!-- University Of Michigan -->
<g id="node77" class="node"><title>University Of Michigan</title>
<polygon fill="none" stroke="black" points="74,-18 -74,-18 -74,18 74,18 74,-18"/>
<text text-anchor="middle" x="0" y="3.7" font-family="Times,serif" font-size="14.00">University Of Michigan</text>
</g>
<!-- Universit?t Rostock -->
<g id="node30" class="node"><title>Universit?t Rostock</title>
<polygon fill="none" stroke="black" points="62.5,-18 -62.5,-18 -62.5,18 62.5,18 62.5,-18"/>
<text text-anchor="middle" x="0" y="3.7" font-family="Times,serif" font-size="14.00">Universit?t Rostock</text>
</g>
<!-- Acad?mie Royale Des Sciences De Paris -->
<g id="node31" class="node"><title>Acad?mie Royale Des Sciences De Paris</title>
<polygon fill="none" stroke="black" points="120,-18 -120,-18 -120,18 120,18 120,-18"/>
<text text-anchor="middle" x="0" y="3.7" font-family="Times,serif" font-size="14.00">Acad?mie Royale Des Sciences De Paris</text>
</g>
<!-- Technische Universit?t Dresden -->
<g id="node37" class="node"><title>Technische Universit?t Dresden</title>
<polygon fill="none" stroke="black" points="95.5,-18 -95.5,-18 -95.5,18 95.5,18 95.5,-18"/>
<text text-anchor="middle" x="0" y="3.7" font-family="Times,serif" font-size="14.00">Technische Universit?t Dresden</text>
</g>
<!-- Uniwersytet Jagiello?ski -->
<g id="node97" class="node"><title>Uniwersytet Jagiello?ski</title>
<polygon fill="none" stroke="black" points="75,-18 -75,-18 -75,18 75,18 75,-18"/>
<text text-anchor="middle" x="0" y="3.7" font-family="Times,serif" font-size="14.00">Uniwersytet Jagiello?ski</text>
</g>
<!-- Universit?t Innsbruck -->
<g id="node29" class="node"><title>Universit?t Innsbruck</title>
<polygon fill="none" stroke="black" points="67,-18 -67,-18 -67,18 67,18 67,-18"/>
<text text-anchor="middle" x="0" y="3.7" font-family="Times,serif" font-size="14.00">Universit?t Innsbruck</text>
</g>
<!-- Technical University Of Gdansk -->
<g id="node98" class="node"><title>Technical University Of Gdansk</title>
<polygon fill="none" stroke="black" points="97,-18 -97,-18 -97,18 97,18 97,-18"/>
<text text-anchor="middle" x="0" y="3.7" font-family="Times,serif" font-size="14.00">Technical University Of Gdansk</text>
</g>
<!-- Universit?t Altdorf -->
<g id="node89" class="node"><title>Universit?t Altdorf</title>
<polygon fill="none" stroke="black" points="60,-18 -60,-18 -60,18 60,18 60,-18"/>
<text text-anchor="middle" x="0" y="3.7" font-family="Times,serif" font-size="14.00">Universit?t Altdorf</text>
</g>
<!-- Universiteit Van Amsterdam -->
<g id="node49" class="node"><title>Universiteit Van Amsterdam</title>
<polygon fill="none" stroke="black" points="87.5,-18 -87.5,-18 -87.5,18 87.5,18 87.5,-18"/>
<text text-anchor="middle" x="0" y="3.7" font-family="Times,serif" font-size="14.00">Universiteit Van Amsterdam</text>
</g>
<!-- Technical University In Berlin -->
<g id="node40" class="node"><title>Technical University In Berlin</title>
<polygon fill="none" stroke="black" points="91.5,-18 -91.5,-18 -91.5,18 91.5,18 91.5,-18"/>
<text text-anchor="middle" x="0" y="3.7" font-family="Times,serif" font-size="14.00">Technical University In Berlin</text>
</g>
<!-- Technische Universit?t Darmstadt -->
<g id="node42" class="node"><title>Technische Universit?t Darmstadt</title>
<polygon fill="none" stroke="black" points="101.5,-18 -101.5,-18 -101.5,18 101.5,18 101.5,-18"/>
<text text-anchor="middle" x="0" y="3.7" font-family="Times,serif" font-size="14.00">Technische Universit?t Darmstadt</text>
</g>
<!-- Tartu University -->
<g id="node43" class="node"><title>Tartu University</title>
<polygon fill="none" stroke="black" points="53.5,-18 -53.5,-18 -53.5,18 53.5,18 53.5,-18"/>
<text text-anchor="middle" x="0" y="3.7" font-family="Times,serif" font-size="14.00">Tartu University</text>
</g>
<!-- Universit?t Erfurt -->
<g id="node44" class="node"><title>Universit?t Erfurt</title>
<polygon fill="none" stroke="black" points="56.5,-18 -56.5,-18 -56.5,18 56.5,18 56.5,-18"/>
<text text-anchor="middle" x="0" y="3.7" font-family="Times,serif" font-size="14.00">Universit?t Erfurt</text>
</g>
<!-- Columbia University -->
<g id="node47" class="node"><title>Columbia University</title>
<polygon fill="none" stroke="black" points="65.5,-18 -65.5,-18 -65.5,18 65.5,18 65.5,-18"/>
<text text-anchor="middle" x="0" y="3.7" font-family="Times,serif" font-size="14.00">Columbia University</text>
</g>
<!-- California Institute Of Technology -->
<g id="node102" class="node"><title>California Institute Of Technology</title>
<polygon fill="none" stroke="black" points="103,-18 -103,-18 -103,18 103,18 103,-18"/>
<text text-anchor="middle" x="0" y="3.7" font-family="Times,serif" font-size="14.00">California Institute Of Technology</text>
</g>
<!-- Universiteit Leiden -->
<g id="node54" class="node"><title>Universiteit Leiden</title>
<polygon fill="none" stroke="black" points="61,-18 -61,-18 -61,18 61,18 61,-18"/>
<text text-anchor="middle" x="0" y="3.7" font-family="Times,serif" font-size="14.00">Universiteit Leiden</text>
</g>
<!-- Charles University -->
<g id="node63" class="node"><title>Charles University</title>
<polygon fill="none" stroke="black" points="59.5,-18 -59.5,-18 -59.5,18 59.5,18 59.5,-18"/>
<text text-anchor="middle" x="0" y="3.7" font-family="Times,serif" font-size="14.00">Charles University</text>
</g>
<!-- University Of Lw?w -->
<g id="node84" class="node"><title>University Of Lw?w</title>
<polygon fill="none" stroke="black" points="64.5,-18 -64.5,-18 -64.5,18 64.5,18 64.5,-18"/>
<text text-anchor="middle" x="0" y="3.7" font-family="Times,serif" font-size="14.00">University Of Lw?w</text>
</g>
<!-- Technische Universit?t Graz -->
<g id="node99" class="node"><title>Technische Universit?t Graz</title>
<polygon fill="none" stroke="black" points="86,-18 -86,-18 -86,18 86,18 86,-18"/>
<text text-anchor="middle" x="0" y="3.7" font-family="Times,serif" font-size="14.00">Technische Universit?t Graz</text>
</g>
<!-- Universit?t Hamburg -->
<g id="node104" class="node"><title>Universit?t Hamburg</title>
<polygon fill="none" stroke="black" points="66,-18 -66,-18 -66,18 66,18 66,-18"/>
<text text-anchor="middle" x="0" y="3.7" font-family="Times,serif" font-size="14.00">Universit?t Hamburg</text>
</g>
<!-- Universit?t Graz -->
<g id="node109" class="node"><title>Universit?t Graz</title>
<polygon fill="none" stroke="black" points="53.5,-18 -53.5,-18 -53.5,18 53.5,18 53.5,-18"/>
<text text-anchor="middle" x="0" y="3.7" font-family="Times,serif" font-size="14.00">Universit?t Graz</text>
</g>
<!-- Rijksuniversiteit Groningen -->
<g id="node50" class="node"><title>Rijksuniversiteit Groningen</title>
<polygon fill="none" stroke="black" points="83.5,-18 -83.5,-18 -83.5,18 83.5,18 83.5,-18"/>
<text text-anchor="middle" x="0" y="3.7" font-family="Times,serif" font-size="14.00">Rijksuniversiteit Groningen</text>
</g>
<!-- Universiteit Utrecht -->
<g id="node51" class="node"><title>Universiteit Utrecht</title>
<polygon fill="none" stroke="black" points="62.5,-18 -62.5,-18 -62.5,18 62.5,18 62.5,-18"/>
<text text-anchor="middle" x="0" y="3.7" font-family="Times,serif" font-size="14.00">Universiteit Utrecht</text>
</g>
<!-- Technische Universiteit Delft -->
<g id="node88" class="node"><title>Technische Universiteit Delft</title>
<polygon fill="none" stroke="black" points="88.5,-18 -88.5,-18 -88.5,18 88.5,18 88.5,-18"/>
<text text-anchor="middle" x="0" y="3.7" font-family="Times,serif" font-size="14.00">Technische Universiteit Delft</text>
</g>
<!-- Universit? Catholique De Louvain -->
<g id="node52" class="node"><title>Universit? Catholique De Louvain</title>
<polygon fill="none" stroke="black" points="102,-18 -102,-18 -102,18 102,18 102,-18"/>
<text text-anchor="middle" x="0" y="3.7" font-family="Times,serif" font-size="14.00">Universit? Catholique De Louvain</text>
</g>
<!-- Universit? Di Padova -->
<g id="node53" class="node"><title>Universit? Di Padova</title>
<polygon fill="none" stroke="black" points="67,-18 -67,-18 -67,18 67,18 67,-18"/>
<text text-anchor="middle" x="0" y="3.7" font-family="Times,serif" font-size="14.00">Universit? Di Padova</text>
</g>
<!-- Universit?t Basel -->
<g id="node57" class="node"><title>Universit?t Basel</title>
<polygon fill="none" stroke="black" points="55,-18 -55,-18 -55,18 55,18 55,-18"/>
<text text-anchor="middle" x="0" y="3.7" font-family="Times,serif" font-size="14.00">Universit?t Basel</text>
</g>
<!-- Universit? Di Firenze -->
<g id="node59" class="node"><title>Universit? Di Firenze</title>
<polygon fill="none" stroke="black" points="67,-18 -67,-18 -67,18 67,18 67,-18"/>
<text text-anchor="middle" x="0" y="3.7" font-family="Times,serif" font-size="14.00">Universit? Di Firenze</text>
</g>
<!-- Universit? De Paris -->
<g id="node71" class="node"><title>Universit? De Paris</title>
<polygon fill="none" stroke="black" points="61.5,-18 -61.5,-18 -61.5,18 61.5,18 61.5,-18"/>
<text text-anchor="middle" x="0" y="3.7" font-family="Times,serif" font-size="14.00">Universit? De Paris</text>
</g>
<!-- Universit? Di Roma -->
<g id="node92" class="node"><title>Universit? Di Roma</title>
<polygon fill="none" stroke="black" points="63.5,-18 -63.5,-18 -63.5,18 63.5,18 63.5,-18"/>
<text text-anchor="middle" x="0" y="3.7" font-family="Times,serif" font-size="14.00">Universit? Di Roma</text>
</g>
<!-- Universit? D&#39;Angers -->
<g id="node55" class="node"><title>Universit? D&#39;Angers</title>
<polygon fill="none" stroke="black" points="64,-18 -64,-18 -64,18 64,18 64,-18"/>
<text text-anchor="middle" x="0" y="3.7" font-family="Times,serif" font-size="14.00">Universit? D&#39;Angers</text>
</g>
<!-- Universiteit Franeker -->
<g id="node58" class="node"><title>Universiteit Franeker</title>
<polygon fill="none" stroke="black" points="66,-18 -66,-18 -66,18 66,18 66,-18"/>
<text text-anchor="middle" x="0" y="3.7" font-family="Times,serif" font-size="14.00">Universiteit Franeker</text>
</g>
<!-- Universiteit Harderwijk -->
<g id="node61" class="node"><title>Universiteit Harderwijk</title>
<polygon fill="none" stroke="black" points="73,-18 -73,-18 -73,18 73,18 73,-18"/>
<text text-anchor="middle" x="0" y="3.7" font-family="Times,serif" font-size="14.00">Universiteit Harderwijk</text>
</g>
<!-- Uppsala Universitet -->
<g id="node62" class="node"><title>Uppsala Universitet</title>
<polygon fill="none" stroke="black" points="62.5,-18 -62.5,-18 -62.5,18 62.5,18 62.5,-18"/>
<text text-anchor="middle" x="0" y="3.7" font-family="Times,serif" font-size="14.00">Uppsala Universitet</text>
</g>
<!-- Universidad Complutense De Madrid -->
<g id="node65" class="node"><title>Universidad Complutense De Madrid</title>
<polygon fill="none" stroke="black" points="111,-18 -111,-18 -111,18 111,18 111,-18"/>
<text text-anchor="middle" x="0" y="3.7" font-family="Times,serif" font-size="14.00">Universidad Complutense De Madrid</text>
</g>
<!-- University Complutense De Madrid -->
<g id="node66" class="node"><title>University Complutense De Madrid</title>
<polygon fill="none" stroke="black" points="106.5,-18 -106.5,-18 -106.5,18 106.5,18 106.5,-18"/>
<text text-anchor="middle" x="0" y="3.7" font-family="Times,serif" font-size="14.00">University Complutense De Madrid</text>
</g>
<!-- Technische Universit?t Berlin -->
<g id="node80" class="node"><title>Technische Universit?t Berlin</title>
<polygon fill="none" stroke="black" points="89.5,-18 -89.5,-18 -89.5,18 89.5,18 89.5,-18"/>
<text text-anchor="middle" x="0" y="3.7" font-family="Times,serif" font-size="14.00">Technische Universit?t Berlin</text>
</g>
<!-- University Of Minnesota&#45;Minneapolis -->
<g id="node94" class="node"><title>University Of Minnesota&#45;Minneapolis</title>
<polygon fill="none" stroke="black" points="113,-18 -113,-18 -113,18 113,18 113,-18"/>
<text text-anchor="middle" x="0" y="3.7" font-family="Times,serif" font-size="14.00">University Of Minnesota&#45;Minneapolis</text>
</g>
<!-- Rheinisch&#45;Westf?lische Technische Hochschule Aachen -->
<g id="node110" class="node"><title>Rheinisch&#45;Westf?lische Technische Hochschule Aachen</title>
<polygon fill="none" stroke="black" points="161.5,-18 -161.5,-18 -161.5,18 161.5,18 161.5,-18"/>
<text text-anchor="middle" x="0" y="3.7" font-family="Times,serif" font-size="14.00">Rheinisch&#45;Westf?lische Technische Hochschule Aachen</text>
</g>
<!-- Johann Wolfgang Goethe&#45;Universit?t Frankfurt Am Main -->
<g id="node114" class="node"><title>Johann Wolfgang Goethe&#45;Universit?t Frankfurt Am Main</title>
<polygon fill="none" stroke="black" points="166.5,-18 -166.5,-18 -166.5,18 166.5,18 166.5,-18"/>
<text text-anchor="middle" x="0" y="3.7" font-family="Times,serif" font-size="14.00">Johann Wolfgang Goethe&#45;Universit?t Frankfurt Am Main</text>
</g>
<!-- ?cole Normale Sup?rieure Paris -->
<g id="node68" class="node"><title>?cole Normale Sup?rieure Paris</title>
<polygon fill="none" stroke="black" points="95,-18 -95,-18 -95,18 95,18 95,-18"/>
<text text-anchor="middle" x="0" y="3.7" font-family="Times,serif" font-size="14.00">?cole Normale Sup?rieure Paris</text>
</g>
<!-- ?cole Normale Sup?rieure -->
<g id="node69" class="node"><title>?cole Normale Sup?rieure</title>
<polygon fill="none" stroke="black" points="79.5,-18 -79.5,-18 -79.5,18 79.5,18 79.5,-18"/>
<text text-anchor="middle" x="0" y="3.7" font-family="Times,serif" font-size="14.00">?cole Normale Sup?rieure</text>
</g>
<!-- Universit? Paris Iv&#45;Sorbonne -->
<g id="node105" class="node"><title>Universit? Paris Iv&#45;Sorbonne</title>
<polygon fill="none" stroke="black" points="87.5,-18 -87.5,-18 -87.5,18 87.5,18 87.5,-18"/>
<text text-anchor="middle" x="0" y="3.7" font-family="Times,serif" font-size="14.00">Universit? Paris Iv&#45;Sorbonne</text>
</g>
<!-- Universit? Di Pisa -->
<g id="node70" class="node"><title>Universit? Di Pisa</title>
<polygon fill="none" stroke="black" points="58,-18 -58,-18 -58,18 58,18 58,-18"/>
<text text-anchor="middle" x="0" y="3.7" font-family="Times,serif" font-size="14.00">Universit? Di Pisa</text>
</g>
<!-- Scuola Normale Superiore Di Pisa -->
<g id="node107" class="node"><title>Scuola Normale Superiore Di Pisa</title>
<polygon fill="none" stroke="black" points="102.5,-18 -102.5,-18 -102.5,18 102.5,18 102.5,-18"/>
<text text-anchor="middle" x="0" y="3.7" font-family="Times,serif" font-size="14.00">Scuola Normale Superiore Di Pisa</text>
</g>
<!-- University Of Kansas -->
<g id="node73" class="node"><title>University Of Kansas</title>
<polygon fill="none" stroke="black" points="67,-18 -67,-18 -67,18 67,18 67,-18"/>
<text text-anchor="middle" x="0" y="3.7" font-family="Times,serif" font-size="14.00">University Of Kansas</text>
</g>
<!-- Purdue University -->
<g id="node75" class="node"><title>Purdue University</title>
<polygon fill="none" stroke="black" points="58,-18 -58,-18 -58,18 58,18 58,-18"/>
<text text-anchor="middle" x="0" y="3.7" font-family="Times,serif" font-size="14.00">Purdue University</text>
</g>
<!-- Technische Hochschule Breslau -->
<g id="node81" class="node"><title>Technische Hochschule Breslau</title>
<polygon fill="none" stroke="black" points="95.5,-18 -95.5,-18 -95.5,18 95.5,18 95.5,-18"/>
<text text-anchor="middle" x="0" y="3.7" font-family="Times,serif" font-size="14.00">Technische Hochschule Breslau</text>
</g>
<!-- St. Petersburg State University -->
<g id="node82" class="node"><title>St. Petersburg State University</title>
<polygon fill="none" stroke="black" points="92.5,-18 -92.5,-18 -92.5,18 92.5,18 92.5,-18"/>
<text text-anchor="middle" x="0" y="3.7" font-family="Times,serif" font-size="14.00">St. Petersburg State University</text>
</g>
<!-- Kiev State University -->
<g id="node83" class="node"><title>Kiev State University</title>
<polygon fill="none" stroke="black" points="67,-18 -67,-18 -67,18 67,18 67,-18"/>
<text text-anchor="middle" x="0" y="3.7" font-family="Times,serif" font-size="14.00">Kiev State University</text>
</g>
<!-- Uniwersytet Warszawski -->
<g id="node95" class="node"><title>Uniwersytet Warszawski</title>
<polygon fill="none" stroke="black" points="76.5,-18 -76.5,-18 -76.5,18 76.5,18 76.5,-18"/>
<text text-anchor="middle" x="0" y="3.7" font-family="Times,serif" font-size="14.00">Uniwersytet Warszawski</text>
</g>
<!-- Universit? De Fribourg -->
<g id="node86" class="node"><title>Universit? De Fribourg</title>
<polygon fill="none" stroke="black" points="71.5,-18 -71.5,-18 -71.5,18 71.5,18 71.5,-18"/>
<text text-anchor="middle" x="0" y="3.7" font-family="Times,serif" font-size="14.00">Universit? De Fribourg</text>
</g>
<!-- Universit?t Helmstedt -->
<g id="node90" class="node"><title>Universit?t Helmstedt</title>
<polygon fill="none" stroke="black" points="68.5,-18 -68.5,-18 -68.5,18 68.5,18 68.5,-18"/>
<text text-anchor="middle" x="0" y="3.7" font-family="Times,serif" font-size="14.00">Universit?t Helmstedt</text>
</g>
<!-- Europa&#45;Universit?t Viadrina Frankfurt An Der Oder -->
<g id="node93" class="node"><title>Europa&#45;Universit?t Viadrina Frankfurt An Der Oder</title>
<polygon fill="none" stroke="black" points="150.5,-18 -150.5,-18 -150.5,18 150.5,18 150.5,-18"/>
<text text-anchor="middle" x="0" y="3.7" font-family="Times,serif" font-size="14.00">Europa&#45;Universit?t Viadrina Frankfurt An Der Oder</text>
</g>
<!-- Universit? De Li?ge -->
<g id="node100" class="node"><title>Universit? De Li?ge</title>
<polygon fill="none" stroke="black" points="63.5,-18 -63.5,-18 -63.5,18 63.5,18 63.5,-18"/>
<text text-anchor="middle" x="0" y="3.7" font-family="Times,serif" font-size="14.00">Universit? De Li?ge</text>
</g>
<!-- Athenaeum Illustre Amsterdam -->
<g id="node101" class="node"><title>Athenaeum Illustre Amsterdam</title>
<polygon fill="none" stroke="black" points="95,-18 -95,-18 -95,18 95,18 95,-18"/>
<text text-anchor="middle" x="0" y="3.7" font-family="Times,serif" font-size="14.00">Athenaeum Illustre Amsterdam</text>
</g>
<!-- Georg&#45;August&#45;Universit?t G?ttingen And Universidad Complutense De Madrid -->
<g id="node103" class="node"><title>Georg&#45;August&#45;Universit?t G?ttingen And Universidad Complutense De Madrid</title>
<polygon fill="none" stroke="black" points="226,-18 -226,-18 -226,18 226,18 226,-18"/>
<text text-anchor="middle" x="0" y="3.7" font-family="Times,serif" font-size="14.00">Georg&#45;August&#45;Universit?t G?ttingen And Universidad Complutense De Madrid</text>
</g>
<!-- University Of Belgrade -->
<g id="node106" class="node"><title>University Of Belgrade</title>
<polygon fill="none" stroke="black" points="72,-18 -72,-18 -72,18 72,18 72,-18"/>
<text text-anchor="middle" x="0" y="3.7" font-family="Times,serif" font-size="14.00">University Of Belgrade</text>
</g>
<!-- Technische Universit?t Karlsruhe -->
<g id="node108" class="node"><title>Technische Universit?t Karlsruhe</title>
<polygon fill="none" stroke="black" points="99.5,-18 -99.5,-18 -99.5,18 99.5,18 99.5,-18"/>
<text text-anchor="middle" x="0" y="3.7" font-family="Times,serif" font-size="14.00">Technische Universit?t Karlsruhe</text>
</g>
<!-- Rensselaer Polytechnic Institute -->
<g id="node111" class="node"><title>Rensselaer Polytechnic Institute</title>
<polygon fill="none" stroke="black" points="95.5,-18 -95.5,-18 -95.5,18 95.5,18 95.5,-18"/>
<text text-anchor="middle" x="0" y="3.7" font-family="Times,serif" font-size="14.00">Rensselaer Polytechnic Institute</text>
</g>
<!-- Trinity College, Dublin -->
<g id="node112" class="node"><title>Trinity College, Dublin</title>
<polygon fill="none" stroke="black" points="72.5,-18 -72.5,-18 -72.5,18 72.5,18 72.5,-18"/>
<text text-anchor="middle" x="0" y="3.7" font-family="Times,serif" font-size="14.00">Trinity College, Dublin</text>
</g>
<!-- University Of Prague -->
<g id="node113" class="node"><title>University Of Prague</title>
<polygon fill="none" stroke="black" points="66.5,-18 -66.5,-18 -66.5,18 66.5,18 66.5,-18"/>
<text text-anchor="middle" x="0" y="3.7" font-family="Times,serif" font-size="14.00">University Of Prague</text>
</g>
<!-- University Of Christiania -->
<g id="node115" class="node"><title>University Of Christiania</title>
<polygon fill="none" stroke="black" points="77.5,-18 -77.5,-18 -77.5,18 77.5,18 77.5,-18"/>
<text text-anchor="middle" x="0" y="3.7" font-family="Times,serif" font-size="14.00">University Of Christiania</text>
</g>
<!-- Universit?t Bern -->
<g id="node117" class="node"><title>Universit?t Bern</title>
<polygon fill="none" stroke="black" points="53.5,-18 -53.5,-18 -53.5,18 53.5,18 53.5,-18"/>
<text text-anchor="middle" x="0" y="3.7" font-family="Times,serif" font-size="14.00">Universit?t Bern</text>
</g>
<!-- Helsingin Yliopisto -->
<g id="node118" class="node"><title>Helsingin Yliopisto</title>
<polygon fill="none" stroke="black" points="61.5,-18 -61.5,-18 -61.5,18 61.5,18 61.5,-18"/>
<text text-anchor="middle" x="0" y="3.7" font-family="Times,serif" font-size="14.00">Helsingin Yliopisto</text>
</g>
<!-- Moscow State University -->
<g id="node119" class="node"><title>Moscow State University</title>
<polygon fill="none" stroke="black" points="77.5,-18 -77.5,-18 -77.5,18 77.5,18 77.5,-18"/>
<text text-anchor="middle" x="0" y="3.7" font-family="Times,serif" font-size="14.00">Moscow State University</text>
</g>
</g>
</svg>
