<?xml version="1.0" encoding="UTF-8" standalone="no"?>
<!DOCTYPE svg PUBLIC "-//W3C//DTD SVG 1.1//EN"
 "http://www.w3.org/Graphics/SVG/1.1/DTD/svg11.dtd">
<!-- Generated by graphviz version 2.38.0 (20140413.2041)
 -->
<!-- Title: transition Pages: 1 -->
<svg width="3221pt" height="2665pt"
 viewBox="0.00 0.00 3220.71 2665.25" xmlns="http://www.w3.org/2000/svg" xmlns:xlink="http://www.w3.org/1999/xlink">
<g id="graph0" class="graph" transform="scale(1 1) rotate(0) translate(4 2661.25)">
<title>transition</title>
<polygon fill="white" stroke="none" points="-4,4 -4,-2661.25 3216.71,-2661.25 3216.71,4 -4,4"/>
<text text-anchor="middle" x="1606.35" y="-2642.05" font-family="Times,serif" font-size="14.00">Hiring network of Mathematics Ph.D.&#39;s between 1800 and 1910 (with threshold .50)</text>
<!-- University Of Cambridge -->
<g id="node1" class="node"><title>University Of Cambridge</title>
<polygon fill="none" stroke="black" points="1915.02,-1335.14 1759.02,-1335.14 1759.02,-1299.14 1915.02,-1299.14 1915.02,-1335.14"/>
<text text-anchor="middle" x="1837.02" y="-1313.44" font-family="Times,serif" font-size="14.00">University Of Cambridge</text>
</g>
<!-- University Of Cambridge&#45;&gt;University Of Cambridge -->
<g id="edge38" class="edge"><title>University Of Cambridge&#45;&gt;University Of Cambridge</title>
<path fill="none" stroke="black" stroke-width="4.3" d="M1915.36,-1323.13C1925.96,-1322.13 1933.02,-1320.13 1933.02,-1317.14 1933.02,-1315 1929.37,-1313.36 1923.39,-1312.24"/>
<polygon fill="black" stroke="black" stroke-width="4.3" points="1915.36,-1311.16 1923.94,-1307.43 1919.55,-1310.06 1923.51,-1310.59 1923.29,-1312.23 1923.07,-1313.86 1919.11,-1313.33 1922.64,-1317.02 1915.36,-1311.16 1915.36,-1311.16"/>
</g>
<!-- University Of Edinburgh -->
<g id="node2" class="node"><title>University Of Edinburgh</title>
<polygon fill="none" stroke="black" points="3212.71,-1335.14 3060.71,-1335.14 3060.71,-1299.14 3212.71,-1299.14 3212.71,-1335.14"/>
<text text-anchor="middle" x="3136.71" y="-1313.44" font-family="Times,serif" font-size="14.00">University Of Edinburgh</text>
</g>
<!-- University Of Cambridge&#45;&gt;University Of Edinburgh -->
<g id="edge1" class="edge"><title>University Of Cambridge&#45;&gt;University Of Edinburgh</title>
<path fill="none" stroke="black" d="M1915.39,-1317.14C2145.09,-1317.14 2815.38,-1317.14 3052.44,-1317.14"/>
<polygon fill="black" stroke="black" points="3060.69,-1317.14 3052.69,-1320.75 3056.69,-1317.14 3052.69,-1317.15 3052.69,-1317.15 3052.69,-1317.15 3056.69,-1317.14 3052.69,-1313.55 3060.69,-1317.14 3060.69,-1317.14"/>
</g>
<!-- University Of Oxford -->
<g id="node5" class="node"><title>University Of Oxford</title>
<polygon fill="none" stroke="black" points="2830.88,-2246.26 2696.88,-2246.26 2696.88,-2210.26 2830.88,-2210.26 2830.88,-2246.26"/>
<text text-anchor="middle" x="2763.88" y="-2224.56" font-family="Times,serif" font-size="14.00">University Of Oxford</text>
</g>
<!-- University Of Cambridge&#45;&gt;University Of Oxford -->
<g id="edge3" class="edge"><title>University Of Cambridge&#45;&gt;University Of Oxford</title>
<path fill="none" stroke="black" d="M1852.5,-1335.16C1960.21,-1449.73 2596.32,-2075.23 2736.56,-2204.79"/>
<polygon fill="black" stroke="black" points="2742.49,-2210.24 2734.16,-2207.47 2739.54,-2207.53 2736.6,-2204.82 2736.6,-2204.82 2736.6,-2204.82 2739.54,-2207.53 2739.04,-2202.17 2742.49,-2210.24 2742.49,-2210.24"/>
</g>
<!-- Haverford College -->
<g id="node8" class="node"><title>Haverford College</title>
<polygon fill="none" stroke="black" points="1935.29,-2634.25 1817.29,-2634.25 1817.29,-2598.25 1935.29,-2598.25 1935.29,-2634.25"/>
<text text-anchor="middle" x="1876.29" y="-2612.55" font-family="Times,serif" font-size="14.00">Haverford College</text>
</g>
<!-- University Of Cambridge&#45;&gt;Haverford College -->
<g id="edge5" class="edge"><title>University Of Cambridge&#45;&gt;Haverford College</title>
<path fill="none" stroke="black" d="M1837.57,-1335.51C1841.91,-1479.04 1870.35,-2419.88 1875.49,-2589.92"/>
<polygon fill="black" stroke="black" points="1875.74,-2598.09 1871.9,-2590.2 1875.62,-2594.09 1875.5,-2590.09 1875.5,-2590.09 1875.5,-2590.09 1875.62,-2594.09 1879.1,-2589.98 1875.74,-2598.09 1875.74,-2598.09"/>
</g>
<!-- The Johns Hopkins University -->
<g id="node11" class="node"><title>The Johns Hopkins University</title>
<polygon fill="none" stroke="black" points="963.835,-1090.35 781.835,-1090.35 781.835,-1054.35 963.835,-1054.35 963.835,-1090.35"/>
<text text-anchor="middle" x="872.835" y="-1068.65" font-family="Times,serif" font-size="14.00">The Johns Hopkins University</text>
</g>
<!-- University Of Cambridge&#45;&gt;The Johns Hopkins University -->
<g id="edge37" class="edge"><title>University Of Cambridge&#45;&gt;The Johns Hopkins University</title>
<path fill="none" stroke="black" stroke-width="3.8" d="M1766.12,-1299.14C1590.42,-1254.54 1135.83,-1139.12 951.861,-1092.42"/>
<polygon fill="black" stroke="black" stroke-width="3.8" points="943.837,-1090.38 952.643,-1088.2 948.059,-1090.01 951.936,-1090.99 951.591,-1092.35 951.247,-1093.71 947.37,-1092.72 950.539,-1096.49 943.837,-1090.38 943.837,-1090.38"/>
</g>
<!-- University Of London -->
<g id="node17" class="node"><title>University Of London</title>
<polygon fill="none" stroke="black" points="1943.29,-36 1806.29,-36 1806.29,-0 1943.29,-0 1943.29,-36"/>
<text text-anchor="middle" x="1874.79" y="-14.3" font-family="Times,serif" font-size="14.00">University Of London</text>
</g>
<!-- University Of Cambridge&#45;&gt;University Of London -->
<g id="edge12" class="edge"><title>University Of Cambridge&#45;&gt;University Of London</title>
<path fill="none" stroke="black" d="M1839.31,-1298.83C1850.02,-1155.49 1877.49,-214.617 1876.11,-44.3831"/>
<polygon fill="black" stroke="black" points="1876.02,-36.2107 1879.71,-44.1669 1876.06,-40.2104 1876.11,-44.2101 1876.11,-44.2101 1876.11,-44.2101 1876.06,-40.2104 1872.51,-44.2533 1876.02,-36.2107 1876.02,-36.2107"/>
</g>
<!-- Bryn Mawr College -->
<g id="node25" class="node"><title>Bryn Mawr College</title>
<polygon fill="none" stroke="black" points="2829.68,-426.889 2703.68,-426.889 2703.68,-390.889 2829.68,-390.889 2829.68,-426.889"/>
<text text-anchor="middle" x="2766.68" y="-405.189" font-family="Times,serif" font-size="14.00">Bryn Mawr College</text>
</g>
<!-- University Of Cambridge&#45;&gt;Bryn Mawr College -->
<g id="edge28" class="edge"><title>University Of Cambridge&#45;&gt;Bryn Mawr College</title>
<path fill="none" stroke="black" stroke-width="2.1" d="M1855.59,-1299C1972.73,-1184.56 2608.62,-563.313 2742.09,-432.91"/>
<polygon fill="black" stroke="black" stroke-width="2.1" points="2748.07,-427.075 2744.86,-435.241 2745.59,-430.264 2742.73,-433.059 2742.34,-432.666 2741.96,-432.273 2744.82,-429.477 2739.83,-430.091 2748.07,-427.075 2748.07,-427.075"/>
</g>
<!-- Harvard University -->
<g id="node3" class="node"><title>Harvard University</title>
<polygon fill="none" stroke="black" points="463.967,-944.22 341.967,-944.22 341.967,-908.22 463.967,-908.22 463.967,-944.22"/>
<text text-anchor="middle" x="402.967" y="-922.52" font-family="Times,serif" font-size="14.00">Harvard University</text>
</g>
<!-- Harvard University&#45;&gt;Harvard University -->
<g id="edge34" class="edge"><title>Harvard University&#45;&gt;Harvard University</title>
<path fill="none" stroke="black" stroke-width="3.1" d="M464.246,-932.521C474.715,-931.66 481.967,-929.56 481.967,-926.22 481.967,-923.819 478.221,-922.059 472.226,-920.939"/>
<polygon fill="black" stroke="black" stroke-width="3.1" points="464.246,-919.918 472.638,-917.363 468.347,-919.384 472.315,-919.892 472.182,-920.933 472.048,-921.975 468.081,-921.467 471.725,-924.504 464.246,-919.918 464.246,-919.918"/>
</g>
<!-- Cumberland University -->
<g id="node4" class="node"><title>Cumberland University</title>
<polygon fill="none" stroke="black" points="951.551,-1582.38 806.551,-1582.38 806.551,-1546.38 951.551,-1546.38 951.551,-1582.38"/>
<text text-anchor="middle" x="879.051" y="-1560.68" font-family="Times,serif" font-size="14.00">Cumberland University</text>
</g>
<!-- Harvard University&#45;&gt;Cumberland University -->
<g id="edge2" class="edge"><title>Harvard University&#45;&gt;Cumberland University</title>
<path fill="none" stroke="black" d="M416.449,-944.291C483.679,-1034.41 782.571,-1435.06 860.447,-1539.44"/>
<polygon fill="black" stroke="black" points="865.46,-1546.16 857.791,-1541.9 863.068,-1542.96 860.676,-1539.75 860.676,-1539.75 860.676,-1539.75 863.068,-1542.96 863.562,-1537.6 865.46,-1546.16 865.46,-1546.16"/>
</g>
<!-- Clark University -->
<g id="node19" class="node"><title>Clark University</title>
<polygon fill="none" stroke="black" points="715.142,-940.952 608.142,-940.952 608.142,-904.952 715.142,-904.952 715.142,-940.952"/>
<text text-anchor="middle" x="661.642" y="-919.252" font-family="Times,serif" font-size="14.00">Clark University</text>
</g>
<!-- Harvard University&#45;&gt;Clark University -->
<g id="edge16" class="edge"><title>Harvard University&#45;&gt;Clark University</title>
<path fill="none" stroke="black" d="M464.27,-925.445C505.168,-924.929 558.755,-924.252 599.771,-923.733"/>
<polygon fill="black" stroke="black" points="607.799,-923.632 599.845,-927.333 603.799,-923.683 599.8,-923.733 599.8,-923.733 599.8,-923.733 603.799,-923.683 599.754,-920.133 607.799,-923.632 607.799,-923.632"/>
</g>
<!-- Cornell University -->
<g id="node9" class="node"><title>Cornell University</title>
<polygon fill="none" stroke="black" points="260.832,-1590.94 142.832,-1590.94 142.832,-1554.94 260.832,-1554.94 260.832,-1590.94"/>
<text text-anchor="middle" x="201.832" y="-1569.24" font-family="Times,serif" font-size="14.00">Cornell University</text>
</g>
<!-- Cumberland University&#45;&gt;Cornell University -->
<g id="edge29" class="edge"><title>Cumberland University&#45;&gt;Cornell University</title>
<path fill="none" stroke="black" stroke-width="2.1" d="M806.255,-1565.3C674.214,-1566.97 397.078,-1570.47 269.162,-1572.09"/>
<polygon fill="black" stroke="black" stroke-width="2.1" points="260.955,-1572.19 268.909,-1568.49 264.948,-1571.59 268.948,-1571.54 268.955,-1572.09 268.962,-1572.64 264.962,-1572.69 269,-1575.69 260.955,-1572.19 260.955,-1572.19"/>
</g>
<!-- Stanford University -->
<g id="node13" class="node"><title>Stanford University</title>
<polygon fill="none" stroke="black" points="733.7,-1737.07 609.7,-1737.07 609.7,-1701.07 733.7,-1701.07 733.7,-1737.07"/>
<text text-anchor="middle" x="671.7" y="-1715.37" font-family="Times,serif" font-size="14.00">Stanford University</text>
</g>
<!-- Cumberland University&#45;&gt;Stanford University -->
<g id="edge9" class="edge"><title>Cumberland University&#45;&gt;Stanford University</title>
<path fill="none" stroke="black" d="M854.859,-1582.43C817.113,-1610.59 744.237,-1664.96 702.693,-1695.95"/>
<polygon fill="black" stroke="black" points="696.058,-1700.9 700.317,-1693.23 699.264,-1698.51 702.47,-1696.11 702.47,-1696.11 702.47,-1696.11 699.264,-1698.51 704.622,-1699 696.058,-1700.9 696.058,-1700.9"/>
</g>
<!-- University Of Oxford&#45;&gt;University Of Cambridge -->
<g id="edge23" class="edge"><title>University Of Oxford&#45;&gt;University Of Cambridge</title>
<path fill="none" stroke="black" stroke-width="1.7" d="M2748.4,-2210.25C2640.69,-2095.67 2004.58,-1470.17 1864.33,-1340.61"/>
<polygon fill="black" stroke="black" stroke-width="1.7" points="1858.41,-1335.16 1866.73,-1337.93 1861.59,-1337.61 1864.54,-1340.32 1864.3,-1340.58 1864.06,-1340.84 1861.12,-1338.13 1861.86,-1343.23 1858.41,-1335.16 1858.41,-1335.16"/>
</g>
<!-- University Of Oxford&#45;&gt;University Of Oxford -->
<g id="edge24" class="edge"><title>University Of Oxford&#45;&gt;University Of Oxford</title>
<path fill="none" stroke="black" stroke-width="1.7" d="M2831.22,-2234.44C2841.72,-2233.52 2848.88,-2231.46 2848.88,-2228.26 2848.88,-2225.96 2845.18,-2224.25 2839.2,-2223.12"/>
<polygon fill="black" stroke="black" stroke-width="1.7" points="2831.22,-2222.07 2839.62,-2219.55 2835.23,-2222.25 2839.2,-2222.77 2839.15,-2223.11 2839.1,-2223.46 2835.14,-2222.94 2838.68,-2226.68 2831.22,-2222.07 2831.22,-2222.07"/>
</g>
<!-- Northwestern University -->
<g id="node6" class="node"><title>Northwestern University</title>
<polygon fill="none" stroke="black" points="924.945,-337.102 773.945,-337.102 773.945,-301.102 924.945,-301.102 924.945,-337.102"/>
<text text-anchor="middle" x="849.445" y="-315.402" font-family="Times,serif" font-size="14.00">Northwestern University</text>
</g>
<!-- University Of Wisconsin&#45;Madison -->
<g id="node7" class="node"><title>University Of Wisconsin&#45;Madison</title>
<polygon fill="none" stroke="black" points="878.052,-576.301 672.052,-576.301 672.052,-540.301 878.052,-540.301 878.052,-576.301"/>
<text text-anchor="middle" x="775.052" y="-554.601" font-family="Times,serif" font-size="14.00">University Of Wisconsin&#45;Madison</text>
</g>
<!-- Northwestern University&#45;&gt;University Of Wisconsin&#45;Madison -->
<g id="edge4" class="edge"><title>Northwestern University&#45;&gt;University Of Wisconsin&#45;Madison</title>
<path fill="none" stroke="black" d="M843.731,-337.475C830.609,-379.668 798.284,-483.602 783.133,-532.316"/>
<polygon fill="black" stroke="black" points="780.684,-540.193 779.622,-531.485 781.871,-536.374 783.059,-532.554 783.059,-532.554 783.059,-532.554 781.871,-536.374 786.497,-533.623 780.684,-540.193 780.684,-540.193"/>
</g>
<!-- The Ohio State University -->
<g id="node10" class="node"><title>The Ohio State University</title>
<polygon fill="none" stroke="black" points="160,-1681.83 -2.84217e-14,-1681.83 -2.84217e-14,-1645.83 160,-1645.83 160,-1681.83"/>
<text text-anchor="middle" x="80" y="-1660.13" font-family="Times,serif" font-size="14.00">The Ohio State University</text>
</g>
<!-- Cornell University&#45;&gt;The Ohio State University -->
<g id="edge6" class="edge"><title>Cornell University&#45;&gt;The Ohio State University</title>
<path fill="none" stroke="black" d="M177.47,-1591.11C158.297,-1605.42 131.456,-1625.44 110.793,-1640.85"/>
<polygon fill="black" stroke="black" points="104.32,-1645.68 108.579,-1638.01 107.526,-1643.29 110.732,-1640.9 110.732,-1640.9 110.732,-1640.9 107.526,-1643.29 112.884,-1643.79 104.32,-1645.68 104.32,-1645.68"/>
</g>
<!-- Columbia University -->
<g id="node16" class="node"><title>Columbia University</title>
<polygon fill="none" stroke="black" points="261.116,-1098.91 130.116,-1098.91 130.116,-1062.91 261.116,-1062.91 261.116,-1098.91"/>
<text text-anchor="middle" x="195.616" y="-1077.21" font-family="Times,serif" font-size="14.00">Columbia University</text>
</g>
<!-- Cornell University&#45;&gt;Columbia University -->
<g id="edge11" class="edge"><title>Cornell University&#45;&gt;Columbia University</title>
<path fill="none" stroke="black" d="M201.604,-1554.84C200.66,-1480.18 197.068,-1195.81 195.95,-1107.34"/>
<polygon fill="black" stroke="black" points="195.847,-1099.17 199.548,-1107.12 195.897,-1103.17 195.948,-1107.17 195.948,-1107.17 195.948,-1107.17 195.897,-1103.17 192.348,-1107.21 195.847,-1099.17 195.847,-1099.17"/>
</g>
<!-- The Johns Hopkins University&#45;&gt;Harvard University -->
<g id="edge25" class="edge"><title>The Johns Hopkins University&#45;&gt;Harvard University</title>
<path fill="none" stroke="black" stroke-width="1.7" d="M814.749,-1054.29C726.951,-1026.98 560.94,-975.351 468.787,-946.69"/>
<polygon fill="black" stroke="black" stroke-width="1.7" points="460.921,-944.244 469.629,-943.182 464.844,-945.098 468.664,-946.286 468.56,-946.62 468.456,-946.954 464.637,-945.766 467.491,-950.057 460.921,-944.244 460.921,-944.244"/>
</g>
<!-- The Johns Hopkins University&#45;&gt;The Johns Hopkins University -->
<g id="edge8" class="edge"><title>The Johns Hopkins University&#45;&gt;The Johns Hopkins University</title>
<path fill="none" stroke="black" d="M963.872,-1078.15C974.738,-1077.1 981.835,-1075.17 981.835,-1072.35 981.835,-1070.33 978.169,-1068.76 972.072,-1067.65"/>
<polygon fill="black" stroke="black" points="963.872,-1066.55 972.279,-1064.05 967.837,-1067.08 971.801,-1067.61 971.801,-1067.61 971.801,-1067.61 967.837,-1067.08 971.323,-1071.18 963.872,-1066.55 963.872,-1066.55"/>
</g>
<!-- University Of California, Berkeley -->
<g id="node12" class="node"><title>University Of California, Berkeley</title>
<polygon fill="none" stroke="black" points="1172.58,-779.071 966.584,-779.071 966.584,-743.071 1172.58,-743.071 1172.58,-779.071"/>
<text text-anchor="middle" x="1069.58" y="-757.371" font-family="Times,serif" font-size="14.00">University Of California, Berkeley</text>
</g>
<!-- The Johns Hopkins University&#45;&gt;University Of California, Berkeley -->
<g id="edge7" class="edge"><title>The Johns Hopkins University&#45;&gt;University Of California, Berkeley</title>
<path fill="none" stroke="black" d="M884.263,-1054.27C917.679,-1001.4 1015.27,-847.006 1053.73,-786.147"/>
<polygon fill="black" stroke="black" points="1058.12,-779.202 1056.89,-787.888 1055.99,-782.583 1053.85,-785.964 1053.85,-785.964 1053.85,-785.964 1055.99,-782.583 1050.81,-784.041 1058.12,-779.202 1058.12,-779.202"/>
</g>
<!-- The Johns Hopkins University&#45;&gt;Clark University -->
<g id="edge30" class="edge"><title>The Johns Hopkins University&#45;&gt;Clark University</title>
<path fill="none" stroke="black" stroke-width="2.4" d="M847.36,-1054.33C808.908,-1027.13 736.072,-975.605 693.946,-945.804"/>
<polygon fill="black" stroke="black" stroke-width="2.4" points="687.207,-941.037 695.817,-942.718 690.877,-942.776 694.142,-945.086 693.738,-945.657 693.334,-946.229 690.068,-943.919 691.659,-948.596 687.207,-941.037 687.207,-941.037"/>
</g>
<!-- University Of Nebraska&#45;Lincoln -->
<g id="node24" class="node"><title>University Of Nebraska&#45;Lincoln</title>
<polygon fill="none" stroke="black" points="1326.69,-996.247 1133.69,-996.247 1133.69,-960.247 1326.69,-960.247 1326.69,-996.247"/>
<text text-anchor="middle" x="1230.19" y="-974.547" font-family="Times,serif" font-size="14.00">University Of Nebraska&#45;Lincoln</text>
</g>
<!-- The Johns Hopkins University&#45;&gt;University Of Nebraska&#45;Lincoln -->
<g id="edge26" class="edge"><title>The Johns Hopkins University&#45;&gt;University Of Nebraska&#45;Lincoln</title>
<path fill="none" stroke="black" stroke-width="2.1" d="M941.313,-1054.32C1002.05,-1038.33 1090.65,-1014.99 1153.69,-998.391"/>
<polygon fill="black" stroke="black" stroke-width="2.1" points="1161.64,-996.299 1154.82,-1001.82 1157.91,-997.85 1154.04,-998.869 1153.9,-998.337 1153.76,-997.805 1157.63,-996.786 1152.98,-994.855 1161.64,-996.299 1161.64,-996.299"/>
</g>
<!-- Dartmouth College -->
<g id="node14" class="node"><title>Dartmouth College</title>
<polygon fill="none" stroke="black" points="1562.52,-1656.14 1440.52,-1656.14 1440.52,-1620.14 1562.52,-1620.14 1562.52,-1656.14"/>
<text text-anchor="middle" x="1501.52" y="-1634.44" font-family="Times,serif" font-size="14.00">Dartmouth College</text>
</g>
<!-- Princeton University -->
<g id="node15" class="node"><title>Princeton University</title>
<polygon fill="none" stroke="black" points="1763.52,-1656.14 1634.52,-1656.14 1634.52,-1620.14 1763.52,-1620.14 1763.52,-1656.14"/>
<text text-anchor="middle" x="1699.02" y="-1634.44" font-family="Times,serif" font-size="14.00">Princeton University</text>
</g>
<!-- Dartmouth College&#45;&gt;Princeton University -->
<g id="edge10" class="edge"><title>Dartmouth College&#45;&gt;Princeton University</title>
<path fill="none" stroke="black" d="M1562.65,-1638.14C1582.76,-1638.14 1605.3,-1638.14 1626.19,-1638.14"/>
<polygon fill="black" stroke="black" points="1634.41,-1638.14 1626.41,-1641.75 1630.41,-1638.14 1626.41,-1638.15 1626.41,-1638.15 1626.41,-1638.15 1630.41,-1638.14 1626.41,-1634.55 1634.41,-1638.14 1634.41,-1638.14"/>
</g>
<!-- Columbia University&#45;&gt;Columbia University -->
<g id="edge15" class="edge"><title>Columbia University&#45;&gt;Columbia University</title>
<path fill="none" stroke="black" d="M261.424,-1087.12C271.927,-1086.21 279.116,-1084.14 279.116,-1080.91 279.116,-1078.58 275.402,-1076.86 269.413,-1075.74"/>
<polygon fill="black" stroke="black" points="261.424,-1074.69 269.822,-1072.16 265.39,-1075.21 269.356,-1075.73 269.356,-1075.73 269.356,-1075.73 265.39,-1075.21 268.89,-1079.3 261.424,-1074.69 261.424,-1074.69"/>
</g>
<!-- The University Of Chicago -->
<g id="node23" class="node"><title>The University Of Chicago</title>
<polygon fill="none" stroke="black" points="201.289,-1345.93 36.2894,-1345.93 36.2894,-1309.93 201.289,-1309.93 201.289,-1345.93"/>
<text text-anchor="middle" x="118.789" y="-1324.23" font-family="Times,serif" font-size="14.00">The University Of Chicago</text>
</g>
<!-- Columbia University&#45;&gt;The University Of Chicago -->
<g id="edge22" class="edge"><title>Columbia University&#45;&gt;The University Of Chicago</title>
<path fill="none" stroke="black" d="M189.967,-1099.07C176.509,-1142.35 142.512,-1251.66 126.88,-1301.92"/>
<polygon fill="black" stroke="black" points="124.447,-1309.74 123.385,-1301.03 125.635,-1305.92 126.823,-1302.1 126.823,-1302.1 126.823,-1302.1 125.635,-1305.92 130.26,-1303.17 124.447,-1309.74 124.447,-1309.74"/>
</g>
<!-- University Of London&#45;&gt;University Of Cambridge -->
<g id="edge13" class="edge"><title>University Of London&#45;&gt;University Of Cambridge</title>
<path fill="none" stroke="black" d="M1872.49,-36.3138C1861.78,-179.659 1834.32,-1120.53 1835.69,-1290.76"/>
<polygon fill="black" stroke="black" points="1835.79,-1298.93 1832.09,-1290.98 1835.74,-1294.93 1835.69,-1290.93 1835.69,-1290.93 1835.69,-1290.93 1835.74,-1294.93 1839.29,-1290.89 1835.79,-1298.93 1835.79,-1298.93"/>
</g>
<!-- Yale University -->
<g id="node18" class="node"><title>Yale University</title>
<polygon fill="none" stroke="black" points="464.525,-1740.34 361.525,-1740.34 361.525,-1704.34 464.525,-1704.34 464.525,-1740.34"/>
<text text-anchor="middle" x="413.025" y="-1718.64" font-family="Times,serif" font-size="14.00">Yale University</text>
</g>
<!-- Yale University&#45;&gt;Cornell University -->
<g id="edge14" class="edge"><title>Yale University&#45;&gt;Cornell University</title>
<path fill="none" stroke="black" d="M387.55,-1704.32C349.099,-1677.12 276.262,-1625.59 234.136,-1595.79"/>
<polygon fill="black" stroke="black" points="227.397,-1591.02 236.007,-1592.7 230.663,-1593.33 233.928,-1595.64 233.928,-1595.64 233.928,-1595.64 230.663,-1593.33 231.849,-1598.58 227.397,-1591.02 227.397,-1591.02"/>
</g>
<!-- Yale University&#45;&gt;Stanford University -->
<g id="edge21" class="edge"><title>Yale University&#45;&gt;Stanford University</title>
<path fill="none" stroke="black" d="M464.75,-1721.68C503.948,-1721.19 558.24,-1720.5 601.38,-1719.96"/>
<polygon fill="black" stroke="black" points="609.575,-1719.85 601.621,-1723.56 605.575,-1719.91 601.575,-1719.96 601.575,-1719.96 601.575,-1719.96 605.575,-1719.91 601.53,-1716.36 609.575,-1719.85 609.575,-1719.85"/>
</g>
<!-- Yale University&#45;&gt;Yale University -->
<g id="edge36" class="edge"><title>Yale University&#45;&gt;Yale University</title>
<path fill="none" stroke="black" stroke-width="3.4" d="M464.55,-1728.83C475.025,-1728.12 482.525,-1725.96 482.525,-1722.34 482.525,-1719.74 478.65,-1717.89 472.582,-1716.79"/>
<polygon fill="black" stroke="black" stroke-width="3.4" points="464.55,-1715.85 472.942,-1712.98 468.663,-1715.12 472.636,-1715.59 472.496,-1716.78 472.356,-1717.97 468.383,-1717.5 472.05,-1720.58 464.55,-1715.85 464.55,-1715.85"/>
</g>
<!-- Yale University&#45;&gt;The University Of Chicago -->
<g id="edge35" class="edge"><title>Yale University&#45;&gt;The University Of Chicago</title>
<path fill="none" stroke="black" stroke-width="3.4" d="M399.424,-1704.11C351.686,-1640.12 191.727,-1425.7 137.188,-1352.59"/>
<polygon fill="black" stroke="black" stroke-width="3.4" points="132.247,-1345.97 140.096,-1350.1 135.6,-1348.46 137.992,-1351.67 137.03,-1352.38 136.068,-1353.1 133.677,-1349.89 133.964,-1354.67 132.247,-1345.97 132.247,-1345.97"/>
</g>
<!-- Clark University&#45;&gt;University Of Wisconsin&#45;Madison -->
<g id="edge27" class="edge"><title>Clark University&#45;&gt;University Of Wisconsin&#45;Madison</title>
<path fill="none" stroke="black" stroke-width="2.1" d="M667.266,-904.869C685.82,-845.212 745.144,-654.466 766.929,-584.42"/>
<polygon fill="black" stroke="black" stroke-width="2.1" points="769.394,-576.493 770.456,-585.201 768.731,-580.476 767.543,-584.296 767.018,-584.132 766.493,-583.969 767.681,-580.149 763.58,-583.063 769.394,-576.493 769.394,-576.493"/>
</g>
<!-- Rensselaer Polytechnic Institute -->
<g id="node20" class="node"><title>Rensselaer Polytechnic Institute</title>
<polygon fill="none" stroke="black" points="1051.38,-1335.36 860.378,-1335.36 860.378,-1299.36 1051.38,-1299.36 1051.38,-1335.36"/>
<text text-anchor="middle" x="955.878" y="-1313.66" font-family="Times,serif" font-size="14.00">Rensselaer Polytechnic Institute</text>
</g>
<!-- Rensselaer Polytechnic Institute&#45;&gt;The Johns Hopkins University -->
<g id="edge33" class="edge"><title>Rensselaer Polytechnic Institute&#45;&gt;The Johns Hopkins University</title>
<path fill="none" stroke="black" stroke-width="2.9" d="M949.771,-1299.34C935.224,-1256.42 898.477,-1148.01 881.58,-1098.16"/>
<polygon fill="black" stroke="black" stroke-width="2.9" points="878.95,-1090.4 884.928,-1096.82 881.134,-1093.88 882.418,-1097.67 881.518,-1097.97 880.618,-1098.28 879.334,-1094.49 878.109,-1099.13 878.95,-1090.4 878.95,-1090.4"/>
</g>
<!-- Rensselaer Polytechnic Institute&#45;&gt;Yale University -->
<g id="edge20" class="edge"><title>Rensselaer Polytechnic Institute&#45;&gt;Yale University</title>
<path fill="none" stroke="black" d="M931.498,-1335.55C843.454,-1401.23 541.977,-1626.14 444.032,-1699.21"/>
<polygon fill="black" stroke="black" points="437.338,-1704.2 441.597,-1696.53 440.544,-1701.81 443.75,-1699.42 443.75,-1699.42 443.75,-1699.42 440.544,-1701.81 445.903,-1702.3 437.338,-1704.2 437.338,-1704.2"/>
</g>
<!-- University Of Maryland College Park -->
<g id="node21" class="node"><title>University Of Maryland College Park</title>
<polygon fill="none" stroke="black" points="1466.96,-1330.31 1243.96,-1330.31 1243.96,-1294.31 1466.96,-1294.31 1466.96,-1330.31"/>
<text text-anchor="middle" x="1355.46" y="-1308.61" font-family="Times,serif" font-size="14.00">University Of Maryland College Park</text>
</g>
<!-- Rensselaer Polytechnic Institute&#45;&gt;University Of Maryland College Park -->
<g id="edge17" class="edge"><title>Rensselaer Polytechnic Institute&#45;&gt;University Of Maryland College Park</title>
<path fill="none" stroke="black" d="M1051.59,-1316.15C1106.83,-1315.45 1176.79,-1314.57 1235.66,-1313.82"/>
<polygon fill="black" stroke="black" points="1243.89,-1313.72 1235.94,-1317.42 1239.89,-1313.77 1235.89,-1313.82 1235.89,-1313.82 1235.89,-1313.82 1239.89,-1313.77 1235.85,-1310.22 1243.89,-1313.72 1243.89,-1313.72"/>
</g>
<!-- University Of Michigan -->
<g id="node22" class="node"><title>University Of Michigan</title>
<polygon fill="none" stroke="black" points="1686.94,-1327.06 1538.94,-1327.06 1538.94,-1291.06 1686.94,-1291.06 1686.94,-1327.06"/>
<text text-anchor="middle" x="1612.94" y="-1305.36" font-family="Times,serif" font-size="14.00">University Of Michigan</text>
</g>
<!-- University Of Maryland College Park&#45;&gt;University Of Michigan -->
<g id="edge18" class="edge"><title>University Of Maryland College Park&#45;&gt;University Of Michigan</title>
<path fill="none" stroke="black" d="M1467.27,-1310.9C1488.51,-1310.63 1510.36,-1310.35 1530.48,-1310.1"/>
<polygon fill="black" stroke="black" points="1538.69,-1309.99 1530.74,-1313.7 1534.69,-1310.05 1530.69,-1310.1 1530.69,-1310.1 1530.69,-1310.1 1534.69,-1310.05 1530.65,-1306.5 1538.69,-1309.99 1538.69,-1309.99"/>
</g>
<!-- University Of Michigan&#45;&gt;University Of Michigan -->
<g id="edge19" class="edge"><title>University Of Michigan&#45;&gt;University Of Michigan</title>
<path fill="none" stroke="black" d="M1687.3,-1315.11C1697.86,-1314.13 1704.94,-1312.11 1704.94,-1309.06 1704.94,-1306.86 1701.28,-1305.2 1695.3,-1304.07"/>
<polygon fill="black" stroke="black" points="1687.3,-1303 1695.71,-1300.49 1691.27,-1303.53 1695.23,-1304.06 1695.23,-1304.06 1695.23,-1304.06 1691.27,-1303.53 1694.75,-1307.63 1687.3,-1303 1687.3,-1303"/>
</g>
<!-- The University Of Chicago&#45;&gt;The University Of Chicago -->
<g id="edge31" class="edge"><title>The University Of Chicago&#45;&gt;The University Of Chicago</title>
<path fill="none" stroke="black" stroke-width="2.8" d="M201.586,-1333.85C212.246,-1332.82 219.289,-1330.85 219.289,-1327.93 219.289,-1325.84 215.651,-1324.23 209.646,-1323.11"/>
<polygon fill="black" stroke="black" stroke-width="2.8" points="201.586,-1322.02 209.996,-1319.52 205.67,-1321.66 209.634,-1322.2 209.514,-1323.09 209.393,-1323.98 205.429,-1323.44 209.031,-1326.66 201.586,-1322.02 201.586,-1322.02"/>
</g>
<!-- University Of Pennsylvania -->
<g id="node26" class="node"><title>University Of Pennsylvania</title>
<polygon fill="none" stroke="black" points="1786.52,-1116.14 1619.52,-1116.14 1619.52,-1080.14 1786.52,-1080.14 1786.52,-1116.14"/>
<text text-anchor="middle" x="1703.02" y="-1094.44" font-family="Times,serif" font-size="14.00">University Of Pennsylvania</text>
</g>
<!-- University Of Pennsylvania&#45;&gt;University Of Pennsylvania -->
<g id="edge32" class="edge"><title>University Of Pennsylvania&#45;&gt;University Of Pennsylvania</title>
<path fill="none" stroke="black" stroke-width="2.8" d="M1786.64,-1104.06C1797.4,-1103.03 1804.52,-1101.06 1804.52,-1098.14 1804.52,-1096.05 1800.84,-1094.44 1794.78,-1093.32"/>
<polygon fill="black" stroke="black" stroke-width="2.8" points="1786.64,-1092.23 1795.04,-1089.72 1790.72,-1091.87 1794.68,-1092.4 1794.57,-1093.29 1794.45,-1094.18 1790.48,-1093.65 1794.09,-1096.86 1786.64,-1092.23 1786.64,-1092.23"/>
</g>
</g>
</svg>
