<?xml version="1.0" encoding="UTF-8" standalone="no"?>
<!DOCTYPE svg PUBLIC "-//W3C//DTD SVG 1.1//EN"
 "http://www.w3.org/Graphics/SVG/1.1/DTD/svg11.dtd">
<!-- Generated by graphviz version 2.38.0 (20140413.2041)
 -->
<!-- Title: transition Pages: 1 -->
<svg width="5469pt" height="2928pt"
 viewBox="0.00 0.00 5468.98 2927.74" xmlns="http://www.w3.org/2000/svg" xmlns:xlink="http://www.w3.org/1999/xlink">
<g id="graph0" class="graph" transform="scale(1 1) rotate(0) translate(4 2923.74)">
<title>transition</title>
<polygon fill="white" stroke="none" points="-4,4 -4,-2923.74 5464.98,-2923.74 5464.98,4 -4,4"/>
<text text-anchor="middle" x="2730.49" y="-2904.54" font-family="Times,serif" font-size="14.00">Hiring network of Mathematics Ph.D.&#39;s between 1940 and 1985 (with threshold 4.30)</text>
<!-- The University Of Chicago -->
<g id="node1" class="node"><title>The University Of Chicago</title>
<polygon fill="none" stroke="black" points="2946.58,-1500.09 2781.58,-1500.09 2781.58,-1464.09 2946.58,-1464.09 2946.58,-1500.09"/>
<text text-anchor="middle" x="2864.08" y="-1478.39" font-family="Times,serif" font-size="14.00">The University Of Chicago</text>
</g>
<!-- The University Of Chicago&#45;&gt;The University Of Chicago -->
<g id="edge92" class="edge"><title>The University Of Chicago&#45;&gt;The University Of Chicago</title>
<path fill="none" stroke="black" stroke-width="5" d="M2946.88,-1488.01C2957.54,-1486.98 2964.58,-1485.01 2964.58,-1482.09 2964.58,-1479.99 2960.94,-1478.38 2954.94,-1477.26"/>
<polygon fill="black" stroke="black" stroke-width="5" points="2946.88,-1476.17 2955.56,-1471.67 2951.11,-1474.73 2955.07,-1475.26 2954.8,-1477.25 2954.54,-1479.23 2950.57,-1478.69 2954.05,-1482.82 2946.88,-1476.17 2946.88,-1476.17"/>
</g>
<!-- Washington University In St. Louis -->
<g id="node2" class="node"><title>Washington University In St. Louis</title>
<polygon fill="none" stroke="black" points="4905.39,-616.264 4693.39,-616.264 4693.39,-580.264 4905.39,-580.264 4905.39,-616.264"/>
<text text-anchor="middle" x="4799.39" y="-594.564" font-family="Times,serif" font-size="14.00">Washington University In St. Louis</text>
</g>
<!-- The University Of Chicago&#45;&gt;Washington University In St. Louis -->
<g id="edge1" class="edge"><title>The University Of Chicago&#45;&gt;Washington University In St. Louis</title>
<path fill="none" stroke="black" stroke-width="4.3" d="M2903.62,-1464.04C3150.98,-1351.07 4483.91,-742.341 4752.29,-619.774"/>
<polygon fill="black" stroke="black" stroke-width="4.3" points="4759.92,-616.29 4754.65,-624.014 4756.96,-619.453 4753.33,-621.114 4752.64,-619.613 4751.96,-618.113 4755.59,-616.451 4750.63,-615.213 4759.92,-616.29 4759.92,-616.29"/>
</g>
<!-- University Of California, Berkeley -->
<g id="node4" class="node"><title>University Of California, Berkeley</title>
<polygon fill="none" stroke="black" points="5120.37,-2132.35 4914.37,-2132.35 4914.37,-2096.35 5120.37,-2096.35 5120.37,-2132.35"/>
<text text-anchor="middle" x="5017.37" y="-2110.65" font-family="Times,serif" font-size="14.00">University Of California, Berkeley</text>
</g>
<!-- The University Of Chicago&#45;&gt;University Of California, Berkeley -->
<g id="edge123" class="edge"><title>The University Of Chicago&#45;&gt;University Of California, Berkeley</title>
<path fill="none" stroke="black" stroke-width="5.8" d="M2917.46,-1500.17C3207.42,-1591.33 4592.69,-1998.23 4938.85,-2094.14"/>
<polygon fill="black" stroke="black" stroke-width="5.8" points="4946.58,-2096.28 4937.13,-2100.44 4942.09,-2097.53 4938.23,-2096.46 4938.87,-2094.15 4939.51,-2091.84 4943.37,-2092.9 4940.61,-2087.86 4946.58,-2096.28 4946.58,-2096.28"/>
</g>
<!-- Princeton University -->
<g id="node5" class="node"><title>Princeton University</title>
<polygon fill="none" stroke="black" points="4264.48,-2657.66 4135.48,-2657.66 4135.48,-2621.66 4264.48,-2621.66 4264.48,-2657.66"/>
<text text-anchor="middle" x="4199.98" y="-2635.96" font-family="Times,serif" font-size="14.00">Princeton University</text>
</g>
<!-- The University Of Chicago&#45;&gt;Princeton University -->
<g id="edge100" class="edge"><title>The University Of Chicago&#45;&gt;Princeton University</title>
<path fill="none" stroke="black" stroke-width="5.1" d="M2882.31,-1500.25C3026.86,-1634.1 3986.17,-2465.5 4169.69,-2616.26"/>
<polygon fill="black" stroke="black" stroke-width="5.1" points="4176.13,-2621.53 4166.31,-2620.91 4171.74,-2620.59 4168.64,-2618.05 4169.94,-2616.47 4171.24,-2614.88 4174.33,-2617.41 4173.57,-2612.03 4176.13,-2621.53 4176.13,-2621.53"/>
</g>
<!-- University Of California, Los Angeles -->
<g id="node7" class="node"><title>University Of California, Los Angeles</title>
<polygon fill="none" stroke="black" points="3162.73,-2132.35 2936.73,-2132.35 2936.73,-2096.35 3162.73,-2096.35 3162.73,-2132.35"/>
<text text-anchor="middle" x="3049.73" y="-2110.65" font-family="Times,serif" font-size="14.00">University Of California, Los Angeles</text>
</g>
<!-- The University Of Chicago&#45;&gt;University Of California, Los Angeles -->
<g id="edge4" class="edge"><title>The University Of Chicago&#45;&gt;University Of California, Los Angeles</title>
<path fill="none" stroke="black" stroke-width="4.3" d="M2869.44,-1500.33C2895.74,-1589.93 3011.25,-1983.32 3042.12,-2088.45"/>
<polygon fill="black" stroke="black" stroke-width="4.3" points="3044.44,-2096.34 3037.54,-2090.03 3041.73,-2092.97 3040.6,-2089.13 3042.19,-2088.67 3043.77,-2088.2 3044.9,-2092.04 3046.83,-2087.3 3044.44,-2096.34 3044.44,-2096.34"/>
</g>
<!-- Cornell University -->
<g id="node9" class="node"><title>Cornell University</title>
<polygon fill="none" stroke="black" points="3108.73,-867.827 2990.73,-867.827 2990.73,-831.827 3108.73,-831.827 3108.73,-867.827"/>
<text text-anchor="middle" x="3049.73" y="-846.127" font-family="Times,serif" font-size="14.00">Cornell University</text>
</g>
<!-- The University Of Chicago&#45;&gt;Cornell University -->
<g id="edge105" class="edge"><title>The University Of Chicago&#45;&gt;Cornell University</title>
<path fill="none" stroke="black" stroke-width="5.3" d="M2869.44,-1463.85C2895.74,-1374.25 3011.25,-980.858 3042.12,-875.733"/>
<polygon fill="black" stroke="black" stroke-width="5.3" points="3044.44,-867.838 3047.91,-877.194 3045.38,-872.282 3044.25,-876.12 3042.19,-875.514 3040.12,-874.909 3041.25,-871.071 3036.47,-873.834 3044.44,-867.838 3044.44,-867.838"/>
</g>
<!-- University Of Virginia -->
<g id="node12" class="node"><title>University Of Virginia</title>
<polygon fill="none" stroke="black" points="1840.04,-1500.09 1700.04,-1500.09 1700.04,-1464.09 1840.04,-1464.09 1840.04,-1500.09"/>
<text text-anchor="middle" x="1770.04" y="-1478.39" font-family="Times,serif" font-size="14.00">University Of Virginia</text>
</g>
<!-- The University Of Chicago&#45;&gt;University Of Virginia -->
<g id="edge7" class="edge"><title>The University Of Chicago&#45;&gt;University Of Virginia</title>
<path fill="none" stroke="black" stroke-width="4.4" d="M2781.4,-1482.09C2576.66,-1482.09 2048.21,-1482.09 1848.26,-1482.09"/>
<polygon fill="black" stroke="black" stroke-width="4.4" points="1840.13,-1482.09 1848.13,-1477.14 1844.13,-1480.39 1848.13,-1480.39 1848.13,-1482.09 1848.13,-1483.79 1844.13,-1483.79 1848.13,-1487.04 1840.13,-1482.09 1840.13,-1482.09"/>
</g>
<!-- University Of Illinois At Urbana&#45;Champaign -->
<g id="node18" class="node"><title>University Of Illinois At Urbana&#45;Champaign</title>
<polygon fill="none" stroke="black" points="5286.65,-1829.57 5024.65,-1829.57 5024.65,-1793.57 5286.65,-1793.57 5286.65,-1829.57"/>
<text text-anchor="middle" x="5155.65" y="-1807.87" font-family="Times,serif" font-size="14.00">University Of Illinois At Urbana&#45;Champaign</text>
</g>
<!-- The University Of Chicago&#45;&gt;University Of Illinois At Urbana&#45;Champaign -->
<g id="edge14" class="edge"><title>The University Of Chicago&#45;&gt;University Of Illinois At Urbana&#45;Champaign</title>
<path fill="none" stroke="black" stroke-width="4.4" d="M2946.65,-1493.96C3288.95,-1543.18 4598.32,-1731.44 5022.31,-1792.4"/>
<polygon fill="black" stroke="black" stroke-width="4.4" points="5030.32,-1793.55 5021.7,-1797.31 5026.12,-1794.66 5022.16,-1794.09 5022.41,-1792.41 5022.65,-1790.73 5026.61,-1791.3 5023.11,-1787.51 5030.32,-1793.55 5030.32,-1793.55"/>
</g>
<!-- Massachusetts Institute Of Technology -->
<g id="node24" class="node"><title>Massachusetts Institute Of Technology</title>
<polygon fill="none" stroke="black" points="3026.45,-1170.61 2796.45,-1170.61 2796.45,-1134.61 3026.45,-1134.61 3026.45,-1170.61"/>
<text text-anchor="middle" x="2911.45" y="-1148.91" font-family="Times,serif" font-size="14.00">Massachusetts Institute Of Technology</text>
</g>
<!-- The University Of Chicago&#45;&gt;Massachusetts Institute Of Technology -->
<g id="edge94" class="edge"><title>The University Of Chicago&#45;&gt;Massachusetts Institute Of Technology</title>
<path fill="none" stroke="black" stroke-width="5" d="M2866.69,-1463.91C2874.62,-1408.78 2898.41,-1243.34 2907.69,-1178.8"/>
<polygon fill="black" stroke="black" stroke-width="5" points="2908.85,-1170.74 2913.27,-1179.46 2910.26,-1174.98 2909.69,-1178.94 2907.71,-1178.66 2905.73,-1178.37 2906.3,-1174.41 2902.14,-1177.86 2908.85,-1170.74 2908.85,-1170.74"/>
</g>
<!-- The Johns Hopkins University -->
<g id="node3" class="node"><title>The Johns Hopkins University</title>
<polygon fill="none" stroke="black" points="5177.58,-2358.32 4995.58,-2358.32 4995.58,-2322.32 5177.58,-2322.32 5177.58,-2358.32"/>
<text text-anchor="middle" x="5086.58" y="-2336.62" font-family="Times,serif" font-size="14.00">The Johns Hopkins University</text>
</g>
<!-- The Johns Hopkins University&#45;&gt;University Of California, Berkeley -->
<g id="edge2" class="edge"><title>The Johns Hopkins University&#45;&gt;University Of California, Berkeley</title>
<path fill="none" stroke="black" stroke-width="4.3" d="M5081.04,-2322.21C5068.81,-2282.3 5039.51,-2186.63 5025.33,-2140.33"/>
<polygon fill="black" stroke="black" stroke-width="4.3" points="5022.94,-2132.55 5029.91,-2138.78 5025.69,-2135.89 5026.87,-2139.72 5025.29,-2140.2 5023.71,-2140.68 5022.54,-2136.86 5020.66,-2141.62 5022.94,-2132.55 5022.94,-2132.55"/>
</g>
<!-- University Of California, Berkeley&#45;&gt;The University Of Chicago -->
<g id="edge89" class="edge"><title>University Of California, Berkeley&#45;&gt;The University Of Chicago</title>
<path fill="none" stroke="black" stroke-width="5" d="M4963.99,-2096.27C4674.03,-2005.11 3288.76,-1598.21 2942.6,-1502.3"/>
<polygon fill="black" stroke="black" stroke-width="5" points="2934.87,-1500.16 2944.08,-1496.87 2939.26,-1499.3 2943.11,-1500.37 2942.58,-1502.29 2942.04,-1504.22 2938.19,-1503.16 2941.08,-1507.72 2934.87,-1500.16 2934.87,-1500.16"/>
</g>
<!-- University Of California, Berkeley&#45;&gt;University Of California, Berkeley -->
<g id="edge133" class="edge"><title>University Of California, Berkeley&#45;&gt;University Of California, Berkeley</title>
<path fill="none" stroke="black" stroke-width="6.4" d="M5120.64,-2119.95C5131.45,-2118.85 5138.37,-2116.99 5138.37,-2114.35 5138.37,-2112.46 5134.79,-2110.96 5128.77,-2109.87"/>
<polygon fill="black" stroke="black" stroke-width="6.4" points="5120.64,-2108.76 5129.54,-2102.7 5124.97,-2106.62 5128.93,-2107.16 5128.57,-2109.84 5128.21,-2112.51 5124.24,-2111.98 5127.6,-2116.97 5120.64,-2108.76 5120.64,-2108.76"/>
</g>
<!-- University Of California, Berkeley&#45;&gt;Princeton University -->
<g id="edge28" class="edge"><title>University Of California, Berkeley&#45;&gt;Princeton University</title>
<path fill="none" stroke="black" stroke-width="4.4" d="M4984.05,-2132.41C4850.82,-2211.81 4357.69,-2528.73 4230.2,-2616.88"/>
<polygon fill="black" stroke="black" stroke-width="4.4" points="4223.37,-2621.63 4227.11,-2613 4225.68,-2617.95 4228.97,-2615.67 4229.94,-2617.07 4230.91,-2618.46 4227.63,-2620.75 4232.76,-2621.13 4223.37,-2621.63 4223.37,-2621.63"/>
</g>
<!-- University Of Maryland College Park -->
<g id="node6" class="node"><title>University Of Maryland College Park</title>
<polygon fill="none" stroke="black" points="4910.89,-2383.92 4687.89,-2383.92 4687.89,-2347.92 4910.89,-2347.92 4910.89,-2383.92"/>
<text text-anchor="middle" x="4799.39" y="-2362.22" font-family="Times,serif" font-size="14.00">University Of Maryland College Park</text>
</g>
<!-- University Of California, Berkeley&#45;&gt;University Of Maryland College Park -->
<g id="edge53" class="edge"><title>University Of California, Berkeley&#45;&gt;University Of Maryland College Park</title>
<path fill="none" stroke="black" stroke-width="4.6" d="M5001.69,-2132.45C4963.22,-2176.85 4864.09,-2291.25 4820.5,-2341.56"/>
<polygon fill="black" stroke="black" stroke-width="4.6" points="4815.22,-2347.65 4816.55,-2338.22 4816.48,-2343.45 4819.1,-2340.43 4820.46,-2341.61 4821.82,-2342.78 4819.2,-2345.81 4824.37,-2344.99 4815.22,-2347.65 4815.22,-2347.65"/>
</g>
<!-- University Of California, Berkeley&#45;&gt;University Of California, Los Angeles -->
<g id="edge102" class="edge"><title>University Of California, Berkeley&#45;&gt;University Of California, Los Angeles</title>
<path fill="none" stroke="black" stroke-width="5.2" d="M4914.35,-2111.13C4580.54,-2106.51 3529.56,-2106.43 3170.99,-2110.89"/>
<polygon fill="black" stroke="black" stroke-width="5.2" points="3162.91,-2110.99 3170.83,-2105.04 3166.88,-2108.84 3170.88,-2108.79 3170.91,-2110.89 3170.93,-2112.99 3166.93,-2113.04 3170.98,-2116.74 3162.91,-2110.99 3162.91,-2110.99"/>
</g>
<!-- Stanford University -->
<g id="node11" class="node"><title>Stanford University</title>
<polygon fill="none" stroke="black" points="3329.71,-2383.92 3205.71,-2383.92 3205.71,-2347.92 3329.71,-2347.92 3329.71,-2383.92"/>
<text text-anchor="middle" x="3267.71" y="-2362.22" font-family="Times,serif" font-size="14.00">Stanford University</text>
</g>
<!-- University Of California, Berkeley&#45;&gt;Stanford University -->
<g id="edge117" class="edge"><title>University Of California, Berkeley&#45;&gt;Stanford University</title>
<path fill="none" stroke="black" stroke-width="5.5" d="M4914.29,-2125.75C4592.26,-2167.36 3610.29,-2308.72 3338.24,-2352.87"/>
<polygon fill="black" stroke="black" stroke-width="5.5" points="3330.01,-2354.21 3336.91,-2346.82 3333.6,-2351.35 3337.55,-2350.7 3337.91,-2352.92 3338.27,-2355.14 3334.32,-2355.79 3338.9,-2359.03 3330.01,-2354.21 3330.01,-2354.21"/>
</g>
<!-- University Of Michigan -->
<g id="node13" class="node"><title>University Of Michigan</title>
<polygon fill="none" stroke="black" points="3341.71,-616.264 3193.71,-616.264 3193.71,-580.264 3341.71,-580.264 3341.71,-616.264"/>
<text text-anchor="middle" x="3267.71" y="-594.564" font-family="Times,serif" font-size="14.00">University Of Michigan</text>
</g>
<!-- University Of California, Berkeley&#45;&gt;University Of Michigan -->
<g id="edge8" class="edge"><title>University Of California, Berkeley&#45;&gt;University Of Michigan</title>
<path fill="none" stroke="black" stroke-width="4.4" d="M4998.76,-2096.13C4826.51,-1937.9 3513.01,-799.611 3297.55,-621.622"/>
<polygon fill="black" stroke="black" stroke-width="4.4" points="3291.21,-616.402 3300.54,-617.665 3295.38,-617.632 3298.47,-620.174 3297.39,-621.487 3296.31,-622.799 3293.22,-620.257 3294.24,-625.308 3291.21,-616.402 3291.21,-616.402"/>
</g>
<!-- Harvard University -->
<g id="node20" class="node"><title>Harvard University</title>
<polygon fill="none" stroke="black" points="4580.37,-436.303 4458.37,-436.303 4458.37,-400.303 4580.37,-400.303 4580.37,-436.303"/>
<text text-anchor="middle" x="4519.37" y="-414.603" font-family="Times,serif" font-size="14.00">Harvard University</text>
</g>
<!-- University Of California, Berkeley&#45;&gt;Harvard University -->
<g id="edge60" class="edge"><title>University Of California, Berkeley&#45;&gt;Harvard University</title>
<path fill="none" stroke="black" stroke-width="4.6" d="M5013.66,-2096.31C4971.53,-1928.46 4593.96,-642.224 4528.81,-443.932"/>
<polygon fill="black" stroke="black" stroke-width="4.6" points="4526.28,-436.319 4533.71,-442.281 4529.25,-439.548 4530.51,-443.344 4528.8,-443.912 4527.09,-444.479 4525.83,-440.683 4523.89,-445.542 4526.28,-436.319 4526.28,-436.319"/>
</g>
<!-- University Of California, Berkeley&#45;&gt;Massachusetts Institute Of Technology -->
<g id="edge82" class="edge"><title>University Of California, Berkeley&#45;&gt;Massachusetts Institute Of Technology</title>
<path fill="none" stroke="black" stroke-width="4.9" d="M4982.5,-2096.32C4736.27,-1976.92 3260.91,-1303.02 2963.62,-1173.94"/>
<polygon fill="black" stroke="black" stroke-width="4.9" points="2956,-1170.63 2965.53,-1168.75 2960.44,-1170.43 2964.11,-1172.02 2963.34,-1173.81 2962.56,-1175.6 2958.89,-1174.01 2961.15,-1178.87 2956,-1170.63 2956,-1170.63"/>
</g>
<!-- University Of Wisconsin&#45;Madison -->
<g id="node25" class="node"><title>University Of Wisconsin&#45;Madison</title>
<polygon fill="none" stroke="black" points="5258.65,-1170.61 5052.65,-1170.61 5052.65,-1134.61 5258.65,-1134.61 5258.65,-1170.61"/>
<text text-anchor="middle" x="5155.65" y="-1148.91" font-family="Times,serif" font-size="14.00">University Of Wisconsin&#45;Madison</text>
</g>
<!-- University Of California, Berkeley&#45;&gt;University Of Wisconsin&#45;Madison -->
<g id="edge86" class="edge"><title>University Of California, Berkeley&#45;&gt;University Of Wisconsin&#45;Madison</title>
<path fill="none" stroke="black" stroke-width="5" d="M5020.01,-2096C5037.07,-1977.34 5131.71,-1319.1 5151.87,-1178.89"/>
<polygon fill="black" stroke="black" stroke-width="5" points="5153.04,-1170.77 5157.47,-1179.49 5154.45,-1175.01 5153.88,-1178.97 5151.9,-1178.69 5149.92,-1178.4 5150.49,-1174.44 5146.33,-1177.89 5153.04,-1170.77 5153.04,-1170.77"/>
</g>
<!-- University Of California, Santa Barbara -->
<g id="node36" class="node"><title>University Of California, Santa Barbara</title>
<polygon fill="none" stroke="black" points="5356.94,-2124.64 5122.94,-2124.64 5122.94,-2088.64 5356.94,-2088.64 5356.94,-2124.64"/>
<text text-anchor="middle" x="5239.94" y="-2102.94" font-family="Times,serif" font-size="14.00">University Of California, Santa Barbara</text>
</g>
<!-- University Of California, Berkeley&#45;&gt;University Of California, Santa Barbara -->
<g id="edge43" class="edge"><title>University Of California, Berkeley&#45;&gt;University Of California, Santa Barbara</title>
<path fill="none" stroke="black" stroke-width="4.5" d="M5120.51,-2110.78C5120.61,-2110.78 5120.71,-2110.77 5120.81,-2110.77"/>
<polygon fill="black" stroke="black" stroke-width="4.5" points="5122.9,-2110.7 5115.08,-2116.04 5118.96,-2112.59 5114.97,-2112.72 5114.91,-2110.98 5114.84,-2109.23 5118.84,-2109.09 5114.73,-2105.92 5122.9,-2110.7 5122.9,-2110.7"/>
</g>
<!-- Princeton University&#45;&gt;The University Of Chicago -->
<g id="edge114" class="edge"><title>Princeton University&#45;&gt;The University Of Chicago</title>
<path fill="none" stroke="black" stroke-width="5.4" d="M4181.75,-2621.5C4037.2,-2487.65 3077.9,-1656.25 2894.38,-1505.49"/>
<polygon fill="black" stroke="black" stroke-width="5.4" points="2887.93,-1500.22 2897.97,-1500.58 2892.42,-1501.05 2895.52,-1503.58 2894.12,-1505.28 2892.73,-1506.99 2889.63,-1504.45 2890.27,-1509.98 2887.93,-1500.22 2887.93,-1500.22"/>
</g>
<!-- Princeton University&#45;&gt;University Of California, Berkeley -->
<g id="edge129" class="edge"><title>Princeton University&#45;&gt;University Of California, Berkeley</title>
<path fill="none" stroke="black" stroke-width="6.3" d="M4233.3,-2621.6C4366.53,-2542.2 4859.66,-2225.29 4987.15,-2137.13"/>
<polygon fill="black" stroke="black" stroke-width="6.3" points="4993.98,-2132.38 4991.46,-2142.76 4992.21,-2136.84 4988.93,-2139.12 4987.42,-2136.95 4985.9,-2134.77 4989.19,-2132.49 4983.37,-2131.13 4993.98,-2132.38 4993.98,-2132.38"/>
</g>
<!-- Princeton University&#45;&gt;Princeton University -->
<g id="edge131" class="edge"><title>Princeton University&#45;&gt;Princeton University</title>
<path fill="none" stroke="black" stroke-width="6.3" d="M4264.66,-2645.9C4275.22,-2645.01 4282.48,-2642.93 4282.48,-2639.66 4282.48,-2637.31 4278.73,-2635.57 4272.7,-2634.45"/>
<polygon fill="black" stroke="black" stroke-width="6.3" points="4264.66,-2633.41 4273.5,-2627.41 4268.97,-2631.3 4272.94,-2631.81 4272.6,-2634.43 4272.26,-2637.06 4268.29,-2636.55 4271.69,-2641.46 4264.66,-2633.41 4264.66,-2633.41"/>
</g>
<!-- Princeton University&#45;&gt;University Of Maryland College Park -->
<g id="edge3" class="edge"><title>Princeton University&#45;&gt;University Of Maryland College Park</title>
<path fill="none" stroke="black" stroke-width="4.3" d="M4239.78,-2621.48C4346.34,-2572.82 4637.83,-2439.7 4752.33,-2387.41"/>
<polygon fill="black" stroke="black" stroke-width="4.3" points="4759.61,-2384.08 4754.34,-2391.81 4756.66,-2387.25 4753.02,-2388.91 4752.33,-2387.41 4751.65,-2385.91 4755.29,-2384.24 4750.32,-2383.01 4759.61,-2384.08 4759.61,-2384.08"/>
</g>
<!-- Columbia University -->
<g id="node8" class="node"><title>Columbia University</title>
<polygon fill="none" stroke="black" points="4584.87,-2563.88 4453.87,-2563.88 4453.87,-2527.88 4584.87,-2527.88 4584.87,-2563.88"/>
<text text-anchor="middle" x="4519.37" y="-2542.18" font-family="Times,serif" font-size="14.00">Columbia University</text>
</g>
<!-- Princeton University&#45;&gt;Columbia University -->
<g id="edge22" class="edge"><title>Princeton University&#45;&gt;Columbia University</title>
<path fill="none" stroke="black" stroke-width="4.4" d="M4261.56,-2621.58C4315.58,-2605.72 4394.04,-2582.68 4450.2,-2566.19"/>
<polygon fill="black" stroke="black" stroke-width="4.4" points="4457.97,-2563.9 4451.69,-2570.91 4454.62,-2566.66 4450.78,-2567.79 4450.3,-2566.16 4449.82,-2564.53 4453.66,-2563.4 4448.9,-2561.41 4457.97,-2563.9 4457.97,-2563.9"/>
</g>
<!-- Princeton University&#45;&gt;Stanford University -->
<g id="edge121" class="edge"><title>Princeton University&#45;&gt;Stanford University</title>
<path fill="none" stroke="black" stroke-width="5.7" d="M4138.45,-2621.59C3971.76,-2572.65 3512.24,-2437.72 3336.92,-2386.24"/>
<polygon fill="black" stroke="black" stroke-width="5.7" points="3329.04,-2383.92 3338.52,-2380.03 3333.54,-2382.8 3337.38,-2383.92 3336.71,-2386.18 3336.05,-2388.43 3332.21,-2387.31 3334.91,-2392.33 3329.04,-2383.92 3329.04,-2383.92"/>
</g>
<!-- Yale University -->
<g id="node17" class="node"><title>Yale University</title>
<polygon fill="none" stroke="black" points="4251.48,-342.523 4148.48,-342.523 4148.48,-306.523 4251.48,-306.523 4251.48,-342.523"/>
<text text-anchor="middle" x="4199.98" y="-320.823" font-family="Times,serif" font-size="14.00">Yale University</text>
</g>
<!-- Princeton University&#45;&gt;Yale University -->
<g id="edge95" class="edge"><title>Princeton University&#45;&gt;Yale University</title>
<path fill="none" stroke="black" stroke-width="5.1" d="M4199.98,-2621.36C4199.98,-2418.45 4199.98,-591.799 4199.98,-350.741"/>
<polygon fill="black" stroke="black" stroke-width="5.1" points="4199.98,-342.537 4205.72,-350.537 4202.03,-346.537 4202.03,-350.537 4199.98,-350.537 4197.93,-350.537 4197.93,-346.537 4194.25,-350.537 4199.98,-342.537 4199.98,-342.537"/>
</g>
<!-- Princeton University&#45;&gt;University Of Illinois At Urbana&#45;Champaign -->
<g id="edge12" class="edge"><title>Princeton University&#45;&gt;University Of Illinois At Urbana&#45;Champaign</title>
<path fill="none" stroke="black" stroke-width="4.4" d="M4220.83,-2621.59C4345.1,-2513.91 4987.52,-1957.26 5128.34,-1835.23"/>
<polygon fill="black" stroke="black" stroke-width="4.4" points="5134.67,-1829.75 5131.86,-1838.73 5132.76,-1833.65 5129.73,-1836.27 5128.62,-1834.99 5127.51,-1833.7 5130.53,-1831.09 5125.38,-1831.25 5134.67,-1829.75 5134.67,-1829.75"/>
</g>
<!-- California Institute Of Technology -->
<g id="node19" class="node"><title>California Institute Of Technology</title>
<polygon fill="none" stroke="black" points="3014.45,-1829.57 2808.45,-1829.57 2808.45,-1793.57 3014.45,-1793.57 3014.45,-1829.57"/>
<text text-anchor="middle" x="2911.45" y="-1807.87" font-family="Times,serif" font-size="14.00">California Institute Of Technology</text>
</g>
<!-- Princeton University&#45;&gt;California Institute Of Technology -->
<g id="edge96" class="edge"><title>Princeton University&#45;&gt;California Institute Of Technology</title>
<path fill="none" stroke="black" stroke-width="5.1" d="M4171.87,-2621.59C4003.72,-2513.53 3132.04,-1953.33 2946.29,-1833.96"/>
<polygon fill="black" stroke="black" stroke-width="5.1" points="2939.47,-1829.57 2949.3,-1829.07 2943.94,-1830.01 2947.31,-1832.17 2946.2,-1833.9 2945.09,-1835.62 2941.72,-1833.46 2943.1,-1838.72 2939.47,-1829.57 2939.47,-1829.57"/>
</g>
<!-- Princeton University&#45;&gt;Harvard University -->
<g id="edge122" class="edge"><title>Princeton University&#45;&gt;Harvard University</title>
<path fill="none" stroke="black" stroke-width="5.7" d="M4202.6,-2621.45C4231.01,-2423.84 4481.79,-679.658 4515.6,-444.492"/>
<polygon fill="black" stroke="black" stroke-width="5.7" points="4516.75,-436.47 4521.96,-445.301 4518.51,-440.764 4517.94,-444.723 4515.61,-444.389 4513.29,-444.054 4513.86,-440.095 4509.27,-443.476 4516.75,-436.47 4516.75,-436.47"/>
</g>
<!-- Brown University -->
<g id="node21" class="node"><title>Brown University</title>
<polygon fill="none" stroke="black" points="3604.73,-436.303 3490.73,-436.303 3490.73,-400.303 3604.73,-400.303 3604.73,-436.303"/>
<text text-anchor="middle" x="3547.73" y="-414.603" font-family="Times,serif" font-size="14.00">Brown University</text>
</g>
<!-- Princeton University&#45;&gt;Brown University -->
<g id="edge17" class="edge"><title>Princeton University&#45;&gt;Brown University</title>
<path fill="none" stroke="black" stroke-width="4.4" d="M4196.03,-2621.4C4145.3,-2423.4 3632.78,-677.591 3556.99,-444.078"/>
<polygon fill="black" stroke="black" stroke-width="4.4" points="3554.48,-436.414 3561.68,-442.476 3557.34,-439.686 3558.59,-443.488 3556.97,-444.017 3555.36,-444.546 3554.11,-440.745 3552.27,-445.558 3554.48,-436.414 3554.48,-436.414"/>
</g>
<!-- Princeton University&#45;&gt;Massachusetts Institute Of Technology -->
<g id="edge126" class="edge"><title>Princeton University&#45;&gt;Massachusetts Institute Of Technology</title>
<path fill="none" stroke="black" stroke-width="6" d="M4184.16,-2621.39C4048.91,-2465.31 3088.74,-1357.21 2932.82,-1177.27"/>
<polygon fill="black" stroke="black" stroke-width="6" points="2927.41,-1171.03 2937.75,-1172.66 2931.92,-1172.42 2934.54,-1175.44 2932.65,-1177.08 2930.76,-1178.72 2928.14,-1175.69 2927.55,-1181.5 2927.41,-1171.03 2927.41,-1171.03"/>
</g>
<!-- University Of Toronto -->
<g id="node29" class="node"><title>University Of Toronto</title>
<polygon fill="none" stroke="black" points="5086.87,-867.827 4947.87,-867.827 4947.87,-831.827 5086.87,-831.827 5086.87,-867.827"/>
<text text-anchor="middle" x="5017.37" y="-846.127" font-family="Times,serif" font-size="14.00">University Of Toronto</text>
</g>
<!-- Princeton University&#45;&gt;University Of Toronto -->
<g id="edge88" class="edge"><title>Princeton University&#45;&gt;University Of Toronto</title>
<path fill="none" stroke="black" stroke-width="5" d="M4208.21,-2621.65C4287.31,-2448.43 4912.57,-1079.31 5005.77,-875.232"/>
<polygon fill="black" stroke="black" stroke-width="5" points="5009.1,-867.942 5010.89,-877.556 5009.26,-872.412 5007.59,-876.05 5005.77,-875.219 5003.96,-874.389 5005.62,-870.75 5000.66,-872.883 5009.1,-867.942 5009.1,-867.942"/>
</g>
<!-- University Of Pennsylvania -->
<g id="node33" class="node"><title>University Of Pennsylvania</title>
<polygon fill="none" stroke="black" points="4305.61,-2811.57 4138.61,-2811.57 4138.61,-2775.57 4305.61,-2775.57 4305.61,-2811.57"/>
<text text-anchor="middle" x="4222.11" y="-2789.87" font-family="Times,serif" font-size="14.00">University Of Pennsylvania</text>
</g>
<!-- Princeton University&#45;&gt;University Of Pennsylvania -->
<g id="edge35" class="edge"><title>Princeton University&#45;&gt;University Of Pennsylvania</title>
<path fill="none" stroke="black" stroke-width="4.5" d="M4202.61,-2657.92C4206.5,-2685 4213.83,-2735.94 4218.31,-2767.11"/>
<polygon fill="black" stroke="black" stroke-width="4.5" points="4219.49,-2775.34 4213.34,-2768.14 4217.19,-2771.63 4216.62,-2767.67 4218.35,-2767.42 4220.08,-2767.17 4220.65,-2771.13 4223.36,-2766.7 4219.49,-2775.34 4219.49,-2775.34"/>
</g>
<!-- New York University -->
<g id="node43" class="node"><title>New York University</title>
<polygon fill="none" stroke="black" points="3614.73,-2563.88 3480.73,-2563.88 3480.73,-2527.88 3614.73,-2527.88 3614.73,-2563.88"/>
<text text-anchor="middle" x="3547.73" y="-2542.18" font-family="Times,serif" font-size="14.00">New York University</text>
</g>
<!-- Princeton University&#45;&gt;New York University -->
<g id="edge111" class="edge"><title>Princeton University&#45;&gt;New York University</title>
<path fill="none" stroke="black" stroke-width="5.4" d="M4135.36,-2630.37C4013.85,-2612.89 3751.96,-2575.24 3622.84,-2556.68"/>
<polygon fill="black" stroke="black" stroke-width="5.4" points="3614.9,-2555.54 3623.69,-2550.66 3619.18,-2553.93 3623.13,-2554.5 3622.82,-2556.67 3622.51,-2558.85 3618.55,-2558.28 3621.96,-2562.69 3614.9,-2555.54 3614.9,-2555.54"/>
</g>
<!-- University Of California, Los Angeles&#45;&gt;University Of California, Berkeley -->
<g id="edge40" class="edge"><title>University Of California, Los Angeles&#45;&gt;University Of California, Berkeley</title>
<path fill="none" stroke="black" stroke-width="4.5" d="M3162.94,-2117.72C3510.81,-2122.24 4561.36,-2122.23 4906.31,-2117.69"/>
<polygon fill="black" stroke="black" stroke-width="4.5" points="4914.33,-2117.58 4906.4,-2122.75 4910.35,-2119.38 4906.35,-2119.44 4906.33,-2117.69 4906.3,-2115.94 4910.3,-2115.88 4906.26,-2112.63 4914.33,-2117.58 4914.33,-2117.58"/>
</g>
<!-- University Of California, Los Angeles&#45;&gt;University Of California, Los Angeles -->
<g id="edge39" class="edge"><title>University Of California, Los Angeles&#45;&gt;University Of California, Los Angeles</title>
<path fill="none" stroke="black" stroke-width="4.5" d="M3162.92,-2119.81C3173.82,-2118.7 3180.73,-2116.89 3180.73,-2114.35 3180.73,-2112.53 3177.16,-2111.08 3171.1,-2110"/>
<polygon fill="black" stroke="black" stroke-width="4.5" points="3162.92,-2108.9 3171.52,-2104.95 3167.12,-2107.7 3171.08,-2108.23 3170.85,-2109.96 3170.61,-2111.7 3166.65,-2111.16 3170.17,-2114.98 3162.92,-2108.9 3162.92,-2108.9"/>
</g>
<!-- University Of California, Los Angeles&#45;&gt;Massachusetts Institute Of Technology -->
<g id="edge62" class="edge"><title>University Of California, Los Angeles&#45;&gt;Massachusetts Institute Of Technology</title>
<path fill="none" stroke="black" stroke-width="4.7" d="M3049.14,-2096.14C3038.38,-1977.89 2943.88,-1319.67 2917.7,-1179.05"/>
<polygon fill="black" stroke="black" stroke-width="4.7" points="2916.15,-1170.91 2922.84,-1177.77 2918.71,-1174.49 2919.46,-1178.42 2917.65,-1178.76 2915.83,-1179.11 2915.08,-1175.18 2912.45,-1179.75 2916.15,-1170.91 2916.15,-1170.91"/>
</g>
<!-- Columbia University&#45;&gt;University Of California, Berkeley -->
<g id="edge68" class="edge"><title>Columbia University&#45;&gt;University Of California, Berkeley</title>
<path fill="none" stroke="black" stroke-width="4.8" d="M4540.45,-2527.61C4619.92,-2458.75 4901.36,-2214.87 4990.26,-2137.85"/>
<polygon fill="black" stroke="black" stroke-width="4.8" points="4996.56,-2132.38 4994.05,-2141.7 4994.78,-2136.44 4991.76,-2139.06 4990.52,-2137.62 4989.27,-2136.19 4992.3,-2133.57 4986.98,-2133.54 4996.56,-2132.38 4996.56,-2132.38"/>
</g>
<!-- Columbia University&#45;&gt;University Of Maryland College Park -->
<g id="edge76" class="edge"><title>Columbia University&#45;&gt;University Of Maryland College Park</title>
<path fill="none" stroke="black" stroke-width="4.8" d="M4547.5,-2527.8C4598.97,-2494.72 4708.17,-2424.54 4764.37,-2388.43"/>
<polygon fill="black" stroke="black" stroke-width="4.8" points="4771.28,-2383.98 4767.47,-2392.85 4768.94,-2387.75 4765.57,-2389.91 4764.55,-2388.31 4763.52,-2386.71 4766.88,-2384.55 4761.63,-2383.77 4771.28,-2383.98 4771.28,-2383.98"/>
</g>
<!-- Columbia University&#45;&gt;Columbia University -->
<g id="edge87" class="edge"><title>Columbia University&#45;&gt;Columbia University</title>
<path fill="none" stroke="black" stroke-width="5" d="M4585.17,-2552.09C4595.68,-2551.18 4602.87,-2549.11 4602.87,-2545.88 4602.87,-2543.55 4599.15,-2541.83 4593.16,-2540.71"/>
<polygon fill="black" stroke="black" stroke-width="5" points="4585.17,-2539.66 4593.83,-2535.12 4589.4,-2538.2 4593.36,-2538.71 4593.11,-2540.7 4592.85,-2542.68 4588.88,-2542.16 4592.38,-2546.28 4585.17,-2539.66 4585.17,-2539.66"/>
</g>
<!-- Columbia University&#45;&gt;Cornell University -->
<g id="edge5" class="edge"><title>Columbia University&#45;&gt;Cornell University</title>
<path fill="none" stroke="black" stroke-width="4.3" d="M4503.61,-2527.69C4357.37,-2358.93 3238.76,-1067.98 3070.81,-874.154"/>
<polygon fill="black" stroke="black" stroke-width="4.3" points="3065.46,-867.977 3074.35,-870.855 3069.32,-869.919 3071.94,-872.942 3070.69,-874.023 3069.45,-875.104 3066.83,-872.08 3067.04,-877.191 3065.46,-867.977 3065.46,-867.977"/>
</g>
<!-- Columbia University&#45;&gt;Stanford University -->
<g id="edge110" class="edge"><title>Columbia University&#45;&gt;Stanford University</title>
<path fill="none" stroke="black" stroke-width="5.4" d="M4453.83,-2536.46C4239.31,-2505.61 3559.19,-2407.83 3337.98,-2376.02"/>
<polygon fill="black" stroke="black" stroke-width="5.4" points="3329.99,-2374.87 3338.77,-2370 3334.26,-2373.26 3338.22,-2373.83 3337.91,-2376.01 3337.59,-2378.19 3333.63,-2377.62 3337.04,-2382.02 3329.99,-2374.87 3329.99,-2374.87"/>
</g>
<!-- Brandeis University -->
<g id="node30" class="node"><title>Brandeis University</title>
<polygon fill="none" stroke="black" points="4637.74,-2686.22 4512.74,-2686.22 4512.74,-2650.22 4637.74,-2650.22 4637.74,-2686.22"/>
<text text-anchor="middle" x="4575.24" y="-2664.52" font-family="Times,serif" font-size="14.00">Brandeis University</text>
</g>
<!-- Columbia University&#45;&gt;Brandeis University -->
<g id="edge29" class="edge"><title>Columbia University&#45;&gt;Brandeis University</title>
<path fill="none" stroke="black" stroke-width="4.5" d="M4527.61,-2563.93C4537.1,-2584.71 4552.76,-2619 4563.52,-2642.56"/>
<polygon fill="black" stroke="black" stroke-width="4.5" points="4566.96,-2650.1 4559.03,-2644.92 4563.71,-2647.19 4562.05,-2643.55 4563.64,-2642.82 4565.23,-2642.09 4566.89,-2645.73 4568.24,-2640.72 4566.96,-2650.1 4566.96,-2650.1"/>
</g>
<!-- Cornell University&#45;&gt;Cornell University -->
<g id="edge72" class="edge"><title>Cornell University&#45;&gt;Cornell University</title>
<path fill="none" stroke="black" stroke-width="4.8" d="M3108.81,-856.181C3119.36,-855.355 3126.73,-853.237 3126.73,-849.827 3126.73,-847.376 3122.92,-845.592 3116.86,-844.476"/>
<polygon fill="black" stroke="black" stroke-width="4.8" points="3108.81,-843.473 3117.41,-839.103 3113.01,-842.082 3116.98,-842.577 3116.75,-844.462 3116.51,-846.347 3112.54,-845.853 3116.08,-849.821 3108.81,-843.473 3108.81,-843.473"/>
</g>
<!-- Cornell University&#45;&gt;Brown University -->
<g id="edge52" class="edge"><title>Cornell University&#45;&gt;Brown University</title>
<path fill="none" stroke="black" stroke-width="4.6" d="M3070.81,-831.56C3150.28,-762.7 3431.73,-518.823 3520.62,-441.797"/>
<polygon fill="black" stroke="black" stroke-width="4.6" points="3526.93,-436.334 3524.27,-445.484 3525.08,-440.313 3522.06,-442.933 3520.88,-441.573 3519.7,-440.212 3522.72,-437.593 3517.49,-437.662 3526.93,-436.334 3526.93,-436.334"/>
</g>
<!-- Cornell University&#45;&gt;Massachusetts Institute Of Technology -->
<g id="edge49" class="edge"><title>Cornell University&#45;&gt;Massachusetts Institute Of Technology</title>
<path fill="none" stroke="black" stroke-width="4.6" d="M3041.49,-867.861C3018.01,-919.278 2950.66,-1066.75 2923.26,-1126.75"/>
<polygon fill="black" stroke="black" stroke-width="4.6" points="2919.82,-1134.29 2918.43,-1124.86 2919.84,-1129.9 2921.5,-1126.27 2923.14,-1127.01 2924.78,-1127.76 2923.12,-1131.4 2927.85,-1129.16 2919.82,-1134.29 2919.82,-1134.29"/>
</g>
<!-- Carnegie Mellon University -->
<g id="node10" class="node"><title>Carnegie Mellon University</title>
<polygon fill="none" stroke="black" points="3049.98,-2578.11 2879.98,-2578.11 2879.98,-2542.11 3049.98,-2542.11 3049.98,-2578.11"/>
<text text-anchor="middle" x="2964.98" y="-2556.41" font-family="Times,serif" font-size="14.00">Carnegie Mellon University</text>
</g>
<!-- Carnegie Mellon University&#45;&gt;Carnegie Mellon University -->
<g id="edge19" class="edge"><title>Carnegie Mellon University&#45;&gt;Carnegie Mellon University</title>
<path fill="none" stroke="black" stroke-width="4.4" d="M3050.23,-2565.99C3060.94,-2564.95 3067.98,-2563 3067.98,-2560.11 3067.98,-2558.04 3064.34,-2556.45 3058.32,-2555.33"/>
<polygon fill="black" stroke="black" stroke-width="4.4" points="3050.23,-2554.23 3058.82,-2550.4 3054.42,-2553.09 3058.39,-2553.62 3058.16,-2555.31 3057.93,-2556.99 3053.97,-2556.46 3057.5,-2560.21 3050.23,-2554.23 3050.23,-2554.23"/>
</g>
<!-- Carnegie Mellon University&#45;&gt;Stanford University -->
<g id="edge6" class="edge"><title>Carnegie Mellon University&#45;&gt;Stanford University</title>
<path fill="none" stroke="black" stroke-width="4.3" d="M3001.53,-2541.97C3062.83,-2506.36 3184.9,-2427.96 3239.84,-2388.84"/>
<polygon fill="black" stroke="black" stroke-width="4.3" points="3246.51,-2384.04 3242.84,-2392.64 3244.22,-2387.72 3240.98,-2390.05 3240.01,-2388.71 3239.05,-2387.37 3242.3,-2385.04 3237.19,-2384.79 3246.51,-2384.04 3246.51,-2384.04"/>
</g>
<!-- Rensselaer Polytechnic Institute -->
<g id="node35" class="node"><title>Rensselaer Polytechnic Institute</title>
<polygon fill="none" stroke="black" points="2882.73,-2757.44 2691.73,-2757.44 2691.73,-2721.44 2882.73,-2721.44 2882.73,-2757.44"/>
<text text-anchor="middle" x="2787.23" y="-2735.74" font-family="Times,serif" font-size="14.00">Rensselaer Polytechnic Institute</text>
</g>
<!-- Carnegie Mellon University&#45;&gt;Rensselaer Polytechnic Institute -->
<g id="edge41" class="edge"><title>Carnegie Mellon University&#45;&gt;Rensselaer Polytechnic Institute</title>
<path fill="none" stroke="black" stroke-width="4.5" d="M2946.96,-2578.29C2914.75,-2610.79 2847.32,-2678.81 2811.23,-2715.22"/>
<polygon fill="black" stroke="black" stroke-width="4.5" points="2805.3,-2721.21 2807.33,-2711.97 2806.87,-2717.14 2809.69,-2714.3 2810.93,-2715.53 2812.17,-2716.76 2809.36,-2719.6 2814.52,-2719.09 2805.3,-2721.21 2805.3,-2721.21"/>
</g>
<!-- Stanford University&#45;&gt;University Of California, Berkeley -->
<g id="edge120" class="edge"><title>Stanford University&#45;&gt;University Of California, Berkeley</title>
<path fill="none" stroke="black" stroke-width="5.7" d="M3329.85,-2359.71C3587.68,-2327.81 4575.23,-2186.09 4907.53,-2133.68"/>
<polygon fill="black" stroke="black" stroke-width="5.7" points="4915.73,-2132.39 4908.83,-2139.97 4912.15,-2135.33 4908.2,-2135.96 4907.83,-2133.63 4907.46,-2131.31 4911.41,-2130.69 4906.83,-2127.3 4915.73,-2132.39 4915.73,-2132.39"/>
</g>
<!-- Stanford University&#45;&gt;University Of California, Los Angeles -->
<g id="edge106" class="edge"><title>Stanford University&#45;&gt;University Of California, Los Angeles</title>
<path fill="none" stroke="black" stroke-width="5.3" d="M3252.03,-2347.83C3213.56,-2303.42 3114.43,-2189.03 3070.84,-2138.71"/>
<polygon fill="black" stroke="black" stroke-width="5.3" points="3065.56,-2132.62 3075.3,-2134.76 3069.8,-2134.23 3072.42,-2137.26 3070.8,-2138.67 3069.17,-2140.07 3066.55,-2137.05 3066.29,-2142.57 3065.56,-2132.62 3065.56,-2132.62"/>
</g>
<!-- Stanford University&#45;&gt;Carnegie Mellon University -->
<g id="edge16" class="edge"><title>Stanford University&#45;&gt;Carnegie Mellon University</title>
<path fill="none" stroke="black" stroke-width="4.4" d="M3231.16,-2384.06C3169.87,-2419.67 3047.79,-2498.07 2992.85,-2537.19"/>
<polygon fill="black" stroke="black" stroke-width="4.4" points="2986.18,-2541.99 2989.79,-2533.3 2988.44,-2538.27 2991.69,-2535.94 2992.68,-2537.32 2993.67,-2538.7 2990.42,-2541.03 2995.57,-2541.33 2986.18,-2541.99 2986.18,-2541.99"/>
</g>
<!-- Stanford University&#45;&gt;Stanford University -->
<g id="edge125" class="edge"><title>Stanford University&#45;&gt;Stanford University</title>
<path fill="none" stroke="black" stroke-width="6" d="M3329.76,-2372.22C3340.37,-2371.36 3347.71,-2369.26 3347.71,-2365.92 3347.71,-2363.52 3343.92,-2361.76 3337.85,-2360.64"/>
<polygon fill="black" stroke="black" stroke-width="6" points="3329.76,-2359.62 3338.55,-2353.92 3334.05,-2357.64 3338.01,-2358.14 3337.7,-2360.62 3337.39,-2363.1 3333.42,-2362.6 3336.86,-2367.32 3329.76,-2359.62 3329.76,-2359.62"/>
</g>
<!-- Stanford University&#45;&gt;Massachusetts Institute Of Technology -->
<g id="edge79" class="edge"><title>Stanford University&#45;&gt;Massachusetts Institute Of Technology</title>
<path fill="none" stroke="black" stroke-width="4.9" d="M3264.25,-2347.79C3230.84,-2210.98 2975.68,-1341.53 2921.42,-1178.82"/>
<polygon fill="black" stroke="black" stroke-width="4.9" points="2918.7,-1170.78 2926.48,-1176.59 2921.83,-1173.94 2923.11,-1177.73 2921.26,-1178.36 2919.41,-1178.98 2918.13,-1175.19 2916.04,-1180.12 2918.7,-1170.78 2918.7,-1170.78"/>
</g>
<!-- Stanford University&#45;&gt;University Of Wisconsin&#45;Madison -->
<g id="edge71" class="edge"><title>Stanford University&#45;&gt;University Of Wisconsin&#45;Madison</title>
<path fill="none" stroke="black" stroke-width="4.8" d="M3295.86,-2347.82C3510.15,-2210.11 4881.69,-1328.67 5120.28,-1175.34"/>
<polygon fill="black" stroke="black" stroke-width="4.8" points="5127.33,-1170.81 5123.52,-1179.68 5125,-1174.57 5121.63,-1176.73 5120.6,-1175.14 5119.58,-1173.54 5122.94,-1171.37 5117.68,-1170.59 5127.33,-1170.81 5127.33,-1170.81"/>
</g>
<!-- Oregon State University -->
<g id="node40" class="node"><title>Oregon State University</title>
<polygon fill="none" stroke="black" points="3230.65,-2896.74 3081.65,-2896.74 3081.65,-2860.74 3230.65,-2860.74 3230.65,-2896.74"/>
<text text-anchor="middle" x="3156.15" y="-2875.04" font-family="Times,serif" font-size="14.00">Oregon State University</text>
</g>
<!-- Stanford University&#45;&gt;Oregon State University -->
<g id="edge51" class="edge"><title>Stanford University&#45;&gt;Oregon State University</title>
<path fill="none" stroke="black" stroke-width="4.6" d="M3263.74,-2384.17C3246.91,-2461.51 3181.46,-2762.38 3161.78,-2852.86"/>
<polygon fill="black" stroke="black" stroke-width="4.6" points="3160.07,-2860.71 3156.72,-2851.79 3159.16,-2856.42 3160.01,-2852.51 3161.77,-2852.89 3163.53,-2853.27 3162.68,-2857.18 3166.83,-2853.99 3160.07,-2860.71 3160.07,-2860.71"/>
</g>
<!-- University Of Michigan&#45;&gt;University Of California, Berkeley -->
<g id="edge112" class="edge"><title>University Of Michigan&#45;&gt;University Of California, Berkeley</title>
<path fill="none" stroke="black" stroke-width="5.4" d="M3286.32,-616.486C3458.57,-774.717 4772.07,-1913.01 4987.53,-2091"/>
<polygon fill="black" stroke="black" stroke-width="5.4" points="4993.87,-2096.22 4983.83,-2095.82 4989.38,-2095.37 4986.29,-2092.83 4987.69,-2091.13 4989.09,-2089.43 4992.18,-2091.97 4991.55,-2086.44 4993.87,-2096.22 4993.87,-2096.22"/>
</g>
<!-- University Of Michigan&#45;&gt;Cornell University -->
<g id="edge18" class="edge"><title>University Of Michigan&#45;&gt;Cornell University</title>
<path fill="none" stroke="black" stroke-width="4.4" d="M3252.03,-616.355C3213.56,-660.759 3114.43,-775.155 3070.84,-825.468"/>
<polygon fill="black" stroke="black" stroke-width="4.4" points="3065.56,-831.561 3067.05,-822.273 3066.89,-827.425 3069.51,-824.402 3070.8,-825.515 3072.08,-826.628 3069.46,-829.651 3074.54,-828.757 3065.56,-831.561 3065.56,-831.561"/>
</g>
<!-- University Of Michigan&#45;&gt;University Of Michigan -->
<g id="edge116" class="edge"><title>University Of Michigan&#45;&gt;University Of Michigan</title>
<path fill="none" stroke="black" stroke-width="5.5" d="M3342.07,-604.321C3352.63,-603.341 3359.71,-601.322 3359.71,-598.264 3359.71,-596.065 3356.05,-594.404 3350.07,-593.279"/>
<polygon fill="black" stroke="black" stroke-width="5.5" points="3342.07,-592.206 3350.82,-587.137 3346.33,-590.508 3350.3,-591.04 3350,-593.27 3349.7,-595.5 3345.74,-594.968 3349.18,-599.402 3342.07,-592.206 3342.07,-592.206"/>
</g>
<!-- Purdue University -->
<g id="node15" class="node"><title>Purdue University</title>
<polygon fill="none" stroke="black" points="3925.12,-342.523 3809.12,-342.523 3809.12,-306.523 3925.12,-306.523 3925.12,-342.523"/>
<text text-anchor="middle" x="3867.12" y="-320.823" font-family="Times,serif" font-size="14.00">Purdue University</text>
</g>
<!-- University Of Michigan&#45;&gt;Purdue University -->
<g id="edge48" class="edge"><title>University Of Michigan&#45;&gt;Purdue University</title>
<path fill="none" stroke="black" stroke-width="4.6" d="M3307.5,-580.091C3414.07,-531.424 3705.56,-398.303 3820.06,-346.015"/>
<polygon fill="black" stroke="black" stroke-width="4.6" points="3827.34,-342.69 3822.21,-350.721 3824.45,-345.989 3820.81,-347.651 3820.06,-346.013 3819.31,-344.376 3822.95,-342.714 3817.91,-341.306 3827.34,-342.69 3827.34,-342.69"/>
</g>
<!-- University Of Michigan&#45;&gt;University Of Wisconsin&#45;Madison -->
<g id="edge77" class="edge"><title>University Of Michigan&#45;&gt;University Of Wisconsin&#45;Madison</title>
<path fill="none" stroke="black" stroke-width="4.8" d="M3320.48,-616.305C3584.25,-699.573 4759.47,-1044.81 5076.58,-1132.42"/>
<polygon fill="black" stroke="black" stroke-width="4.8" points="5084.36,-1134.57 5075.22,-1137.65 5080,-1135.34 5076.15,-1134.28 5076.65,-1132.44 5077.16,-1130.61 5081.01,-1131.68 5078.09,-1127.24 5084.36,-1134.57 5084.36,-1134.57"/>
</g>
<!-- Michigan State University -->
<g id="node45" class="node"><title>Michigan State University</title>
<polygon fill="none" stroke="black" points="3248.34,-501.012 3087.34,-501.012 3087.34,-465.012 3248.34,-465.012 3248.34,-501.012"/>
<text text-anchor="middle" x="3167.84" y="-479.312" font-family="Times,serif" font-size="14.00">Michigan State University</text>
</g>
<!-- University Of Michigan&#45;&gt;Michigan State University -->
<g id="edge69" class="edge"><title>University Of Michigan&#45;&gt;Michigan State University</title>
<path fill="none" stroke="black" stroke-width="4.8" d="M3252.11,-580.255C3235.13,-560.664 3207.89,-529.232 3189,-507.428"/>
<polygon fill="black" stroke="black" stroke-width="4.8" points="3183.67,-501.274 3192.99,-503.783 3187.72,-503.052 3190.34,-506.075 3188.91,-507.32 3187.47,-508.564 3184.85,-505.541 3184.83,-510.856 3183.67,-501.274 3183.67,-501.274"/>
</g>
<!-- The Ohio State University -->
<g id="node14" class="node"><title>The Ohio State University</title>
<polygon fill="none" stroke="black" points="3925.49,-192.071 3765.49,-192.071 3765.49,-156.071 3925.49,-156.071 3925.49,-192.071"/>
<text text-anchor="middle" x="3845.49" y="-170.371" font-family="Times,serif" font-size="14.00">The Ohio State University</text>
</g>
<!-- The Ohio State University&#45;&gt;The Ohio State University -->
<g id="edge70" class="edge"><title>The Ohio State University&#45;&gt;The Ohio State University</title>
<path fill="none" stroke="black" stroke-width="4.8" d="M3925.84,-180.023C3936.45,-179.008 3943.49,-177.024 3943.49,-174.071 3943.49,-171.948 3939.85,-170.326 3933.87,-169.205"/>
<polygon fill="black" stroke="black" stroke-width="4.8" points="3925.84,-168.118 3934.5,-163.84 3930.06,-166.772 3934.03,-167.309 3933.77,-169.192 3933.52,-171.074 3929.55,-170.538 3933.05,-174.543 3925.84,-168.118 3925.84,-168.118"/>
</g>
<!-- The Ohio State University&#45;&gt;Purdue University -->
<g id="edge9" class="edge"><title>The Ohio State University&#45;&gt;Purdue University</title>
<path fill="none" stroke="black" stroke-width="4.4" d="M3848.09,-192.219C3851.89,-218.651 3858.97,-267.892 3863.34,-298.276"/>
<polygon fill="black" stroke="black" stroke-width="4.4" points="3864.5,-306.311 3858.46,-299.097 3862.25,-302.594 3861.68,-298.634 3863.36,-298.392 3865.04,-298.15 3865.61,-302.11 3868.26,-297.688 3864.5,-306.311 3864.5,-306.311"/>
</g>
<!-- Purdue University&#45;&gt;Brown University -->
<g id="edge55" class="edge"><title>Purdue University&#45;&gt;Brown University</title>
<path fill="none" stroke="black" stroke-width="4.6" d="M3808.91,-341.615C3753.49,-357.887 3670.23,-382.335 3612.68,-399.233"/>
<polygon fill="black" stroke="black" stroke-width="4.6" points="3604.74,-401.565 3610.95,-394.346 3608.07,-398.711 3611.91,-397.584 3612.41,-399.311 3612.92,-401.038 3609.08,-402.165 3613.87,-404.277 3604.74,-401.565 3604.74,-401.565"/>
</g>
<!-- University Of Texas At Austin -->
<g id="node16" class="node"><title>University Of Texas At Austin</title>
<polygon fill="none" stroke="black" points="5295.52,-1500.09 5110.52,-1500.09 5110.52,-1464.09 5295.52,-1464.09 5295.52,-1500.09"/>
<text text-anchor="middle" x="5203.02" y="-1478.39" font-family="Times,serif" font-size="14.00">University Of Texas At Austin</text>
</g>
<!-- University Of Texas At Austin&#45;&gt;University Of Texas At Austin -->
<g id="edge10" class="edge"><title>University Of Texas At Austin&#45;&gt;University Of Texas At Austin</title>
<path fill="none" stroke="black" stroke-width="4.4" d="M5295.72,-1487.85C5306.51,-1486.79 5313.52,-1484.87 5313.52,-1482.09 5313.52,-1480.09 5309.9,-1478.54 5303.85,-1477.43"/>
<polygon fill="black" stroke="black" stroke-width="4.4" points="5295.72,-1476.33 5304.31,-1472.5 5299.91,-1475.18 5303.88,-1475.72 5303.65,-1477.4 5303.42,-1479.09 5299.46,-1478.55 5302.99,-1482.31 5295.72,-1476.33 5295.72,-1476.33"/>
</g>
<!-- University Of Texas At Austin&#45;&gt;University Of Wisconsin&#45;Madison -->
<g id="edge78" class="edge"><title>University Of Texas At Austin&#45;&gt;University Of Wisconsin&#45;Madison</title>
<path fill="none" stroke="black" stroke-width="4.9" d="M5200.41,-1463.91C5192.48,-1408.78 5168.69,-1243.34 5159.41,-1178.8"/>
<polygon fill="black" stroke="black" stroke-width="4.9" points="5158.26,-1170.74 5164.85,-1177.87 5160.75,-1174.42 5161.32,-1178.38 5159.39,-1178.66 5157.46,-1178.94 5156.89,-1174.98 5153.94,-1179.44 5158.26,-1170.74 5158.26,-1170.74"/>
</g>
<!-- Texas Tech University -->
<g id="node31" class="node"><title>Texas Tech University</title>
<polygon fill="none" stroke="black" points="5419.18,-1276.65 5279.18,-1276.65 5279.18,-1240.65 5419.18,-1240.65 5419.18,-1276.65"/>
<text text-anchor="middle" x="5349.18" y="-1254.95" font-family="Times,serif" font-size="14.00">Texas Tech University</text>
</g>
<!-- University Of Texas At Austin&#45;&gt;Texas Tech University -->
<g id="edge30" class="edge"><title>University Of Texas At Austin&#45;&gt;Texas Tech University</title>
<path fill="none" stroke="black" stroke-width="4.5" d="M5214.98,-1463.81C5241.06,-1423.93 5303.08,-1329.12 5332.78,-1283.72"/>
<polygon fill="black" stroke="black" stroke-width="4.5" points="5337.26,-1276.87 5337.12,-1286.34 5336.53,-1281.18 5334.35,-1284.53 5332.88,-1283.57 5331.42,-1282.61 5333.61,-1279.26 5328.64,-1280.8 5337.26,-1276.87 5337.26,-1276.87"/>
</g>
<!-- The Louisiana State University -->
<g id="node32" class="node"><title>The Louisiana State University</title>
<polygon fill="none" stroke="black" points="5460.98,-1510.59 5274.98,-1510.59 5274.98,-1474.59 5460.98,-1474.59 5460.98,-1510.59"/>
<text text-anchor="middle" x="5367.98" y="-1488.89" font-family="Times,serif" font-size="14.00">The Louisiana State University</text>
</g>
<!-- University Of Texas At Austin&#45;&gt;The Louisiana State University -->
<g id="edge34" class="edge"><title>University Of Texas At Austin&#45;&gt;The Louisiana State University</title>
<path fill="none" stroke="black" stroke-width="4.5" d="M5295.63,-1487.98C5295.7,-1487.99 5295.77,-1487.99 5295.85,-1488"/>
<polygon fill="black" stroke="black" stroke-width="4.5" points="5296.07,-1488.01 5287.76,-1492.55 5291.96,-1489.5 5287.97,-1489.25 5288.08,-1487.5 5288.19,-1485.75 5292.19,-1486.01 5288.41,-1482.45 5296.07,-1488.01 5296.07,-1488.01"/>
</g>
<!-- Auburn University -->
<g id="node39" class="node"><title>Auburn University</title>
<polygon fill="none" stroke="black" points="5406.88,-1733.88 5287.88,-1733.88 5287.88,-1697.88 5406.88,-1697.88 5406.88,-1733.88"/>
<text text-anchor="middle" x="5347.38" y="-1712.18" font-family="Times,serif" font-size="14.00">Auburn University</text>
</g>
<!-- University Of Texas At Austin&#45;&gt;Auburn University -->
<g id="edge47" class="edge"><title>University Of Texas At Austin&#45;&gt;Auburn University</title>
<path fill="none" stroke="black" stroke-width="4.6" d="M5214.35,-1500.44C5240.02,-1542 5302.65,-1643.43 5331.88,-1690.77"/>
<polygon fill="black" stroke="black" stroke-width="4.6" points="5336.11,-1697.62 5327.5,-1693.53 5332.47,-1695.16 5330.37,-1691.76 5331.9,-1690.81 5333.44,-1689.87 5335.54,-1693.27 5336.31,-1688.09 5336.11,-1697.62 5336.11,-1697.62"/>
</g>
<!-- Yale University&#45;&gt;Yale University -->
<g id="edge11" class="edge"><title>Yale University&#45;&gt;Yale University</title>
<path fill="none" stroke="black" stroke-width="4.4" d="M4251.51,-331.016C4261.98,-330.309 4269.48,-328.144 4269.48,-324.523 4269.48,-321.921 4265.61,-320.071 4259.54,-318.973"/>
<polygon fill="black" stroke="black" stroke-width="4.4" points="4251.51,-318.031 4260.03,-314.047 4255.68,-316.809 4259.65,-317.275 4259.45,-318.963 4259.26,-320.652 4255.28,-320.186 4258.88,-323.88 4251.51,-318.031 4251.51,-318.031"/>
</g>
<!-- Yale University&#45;&gt;Harvard University -->
<g id="edge66" class="edge"><title>Yale University&#45;&gt;Harvard University</title>
<path fill="none" stroke="black" stroke-width="4.8" d="M4251.65,-339.695C4305.64,-355.546 4390.62,-380.5 4450.33,-398.031"/>
<polygon fill="black" stroke="black" stroke-width="4.8" points="4458.21,-400.346 4449.02,-403.274 4453.84,-401.042 4450,-399.915 4450.54,-398.092 4451.07,-396.269 4454.91,-397.396 4452.06,-392.911 4458.21,-400.346 4458.21,-400.346"/>
</g>
<!-- Yale University&#45;&gt;Massachusetts Institute Of Technology -->
<g id="edge67" class="edge"><title>Yale University&#45;&gt;Massachusetts Institute Of Technology</title>
<path fill="none" stroke="black" stroke-width="4.8" d="M4171.87,-342.589C4003.72,-450.651 3132.04,-1010.85 2946.29,-1130.22"/>
<polygon fill="black" stroke="black" stroke-width="4.8" points="2939.47,-1134.61 2943.28,-1125.74 2941.81,-1130.85 2945.17,-1128.68 2946.2,-1130.28 2947.22,-1131.88 2943.86,-1134.04 2949.12,-1134.83 2939.47,-1134.61 2939.47,-1134.61"/>
</g>
<!-- University Of Illinois At Urbana&#45;Champaign&#45;&gt;University Of California, Berkeley -->
<g id="edge107" class="edge"><title>University Of Illinois At Urbana&#45;Champaign&#45;&gt;University Of California, Berkeley</title>
<path fill="none" stroke="black" stroke-width="5.3" d="M5147.41,-1829.6C5123.93,-1881.02 5056.58,-2028.5 5029.18,-2088.5"/>
<polygon fill="black" stroke="black" stroke-width="5.3" points="5025.74,-2096.03 5023.64,-2086.28 5025.44,-2091.5 5027.11,-2087.86 5029.06,-2088.75 5031.02,-2089.65 5029.36,-2093.29 5034.49,-2091.23 5025.74,-2096.03 5025.74,-2096.03"/>
</g>
<!-- University Of Illinois At Urbana&#45;Champaign&#45;&gt;University Of Texas At Austin -->
<g id="edge33" class="edge"><title>University Of Illinois At Urbana&#45;Champaign&#45;&gt;University Of Texas At Austin</title>
<path fill="none" stroke="black" stroke-width="4.5" d="M5158.26,-1793.38C5166.19,-1738.26 5189.98,-1572.82 5199.25,-1508.28"/>
<polygon fill="black" stroke="black" stroke-width="4.5" points="5200.41,-1500.22 5204.29,-1508.86 5201.58,-1504.43 5201.01,-1508.39 5199.28,-1508.14 5197.54,-1507.89 5198.11,-1503.93 5194.26,-1507.42 5200.41,-1500.22 5200.41,-1500.22"/>
</g>
<!-- University Of Illinois At Urbana&#45;Champaign&#45;&gt;University Of Illinois At Urbana&#45;Champaign -->
<g id="edge91" class="edge"><title>University Of Illinois At Urbana&#45;Champaign&#45;&gt;University Of Illinois At Urbana&#45;Champaign</title>
<path fill="none" stroke="black" stroke-width="5" d="M5286.91,-1816.79C5297.84,-1815.66 5304.65,-1813.92 5304.65,-1811.57 5304.65,-1809.88 5301.13,-1808.5 5295.1,-1807.44"/>
<polygon fill="black" stroke="black" stroke-width="5" points="5286.91,-1806.35 5295.58,-1801.83 5291.14,-1804.9 5295.1,-1805.43 5294.84,-1807.41 5294.57,-1809.39 5290.61,-1808.86 5294.09,-1812.99 5286.91,-1806.35 5286.91,-1806.35"/>
</g>
<!-- California Institute Of Technology&#45;&gt;University Of California, Los Angeles -->
<g id="edge73" class="edge"><title>California Institute Of Technology&#45;&gt;University Of California, Los Angeles</title>
<path fill="none" stroke="black" stroke-width="4.8" d="M2919.69,-1829.6C2943.17,-1881.02 3010.52,-2028.5 3037.92,-2088.5"/>
<polygon fill="black" stroke="black" stroke-width="4.8" points="3041.36,-2096.03 3033.13,-2091 3037.97,-2093.18 3036.31,-2089.54 3038.04,-2088.75 3039.77,-2087.97 3041.43,-2091.6 3042.95,-2086.51 3041.36,-2096.03 3041.36,-2096.03"/>
</g>
<!-- California Institute Of Technology&#45;&gt;Stanford University -->
<g id="edge113" class="edge"><title>California Institute Of Technology&#45;&gt;Stanford University</title>
<path fill="none" stroke="black" stroke-width="5.4" d="M2923.1,-1829.7C2975.64,-1911.44 3190.56,-2245.88 3251.52,-2340.73"/>
<polygon fill="black" stroke="black" stroke-width="5.4" points="3255.97,-2347.65 3246.53,-2344.2 3251.95,-2345.47 3249.79,-2342.11 3251.64,-2340.92 3253.49,-2339.73 3255.66,-2343.09 3256.75,-2337.63 3255.97,-2347.65 3255.97,-2347.65"/>
</g>
<!-- California Institute Of Technology&#45;&gt;University Of Michigan -->
<g id="edge50" class="edge"><title>California Institute Of Technology&#45;&gt;University Of Michigan</title>
<path fill="none" stroke="black" stroke-width="4.6" d="M2916.76,-1793.48C2956.9,-1656.78 3212.2,-787.328 3260,-624.514"/>
<polygon fill="black" stroke="black" stroke-width="4.6" points="3262.37,-616.461 3265.08,-625.595 3262.97,-620.806 3261.84,-624.644 3260.11,-624.137 3258.39,-623.63 3259.51,-619.792 3255.15,-622.679 3262.37,-616.461 3262.37,-616.461"/>
</g>
<!-- California Institute Of Technology&#45;&gt;University Of Texas At Austin -->
<g id="edge38" class="edge"><title>California Institute Of Technology&#45;&gt;University Of Texas At Austin</title>
<path fill="none" stroke="black" stroke-width="4.5" d="M3014.74,-1796.72C3396.49,-1741.83 4725.1,-1550.81 5102.4,-1496.56"/>
<polygon fill="black" stroke="black" stroke-width="4.5" points="5110.33,-1495.42 5103.13,-1501.57 5106.62,-1497.72 5102.66,-1498.29 5102.41,-1496.56 5102.16,-1494.82 5106.12,-1494.26 5101.69,-1491.55 5110.33,-1495.42 5110.33,-1495.42"/>
</g>
<!-- California Institute Of Technology&#45;&gt;California Institute Of Technology -->
<g id="edge128" class="edge"><title>California Institute Of Technology&#45;&gt;California Institute Of Technology</title>
<path fill="none" stroke="black" stroke-width="6.2" d="M3014.72,-1817.16C3025.53,-1816.07 3032.45,-1814.21 3032.45,-1811.57 3032.45,-1809.67 3028.87,-1808.18 3022.85,-1807.08"/>
<polygon fill="black" stroke="black" stroke-width="6.2" points="3014.72,-1805.98 3023.59,-1800.14 3019.04,-1803.94 3023,-1804.48 3022.65,-1807.05 3022.3,-1809.63 3018.34,-1809.09 3021.71,-1813.96 3014.72,-1805.98 3014.72,-1805.98"/>
</g>
<!-- California Institute Of Technology&#45;&gt;Harvard University -->
<g id="edge13" class="edge"><title>California Institute Of Technology&#45;&gt;Harvard University</title>
<path fill="none" stroke="black" stroke-width="4.4" d="M2932.37,-1793.44C3105.26,-1643.63 4296.37,-611.533 4492.16,-441.88"/>
<polygon fill="black" stroke="black" stroke-width="4.4" points="4498.44,-436.435 4495.64,-445.415 4496.53,-440.339 4493.51,-442.959 4492.39,-441.674 4491.28,-440.389 4494.3,-437.77 4489.15,-437.933 4498.44,-436.435 4498.44,-436.435"/>
</g>
<!-- California Institute Of Technology&#45;&gt;Massachusetts Institute Of Technology -->
<g id="edge44" class="edge"><title>California Institute Of Technology&#45;&gt;Massachusetts Institute Of Technology</title>
<path fill="none" stroke="black" stroke-width="4.5" d="M2913.87,-1793.26C2919.49,-1701.07 2919.64,-1287.92 2914.31,-1179"/>
<polygon fill="black" stroke="black" stroke-width="4.5" points="2913.87,-1170.84 2919.36,-1178.55 2915.83,-1174.73 2916.05,-1178.73 2914.3,-1178.82 2912.56,-1178.92 2912.34,-1174.93 2909.25,-1179.1 2913.87,-1170.84 2913.87,-1170.84"/>
</g>
<!-- Harvard University&#45;&gt;The University Of Chicago -->
<g id="edge104" class="edge"><title>Harvard University&#45;&gt;The University Of Chicago</title>
<path fill="none" stroke="black" stroke-width="5.3" d="M4491.33,-436.32C4294.22,-562.994 3118.12,-1318.83 2899.16,-1459.55"/>
<polygon fill="black" stroke="black" stroke-width="5.3" points="2892.37,-1463.91 2895.87,-1454.57 2894.57,-1459.94 2897.94,-1457.78 2899.1,-1459.59 2900.26,-1461.39 2896.9,-1463.56 2902.32,-1464.6 2892.37,-1463.91 2892.37,-1463.91"/>
</g>
<!-- Harvard University&#45;&gt;Washington University In St. Louis -->
<g id="edge15" class="edge"><title>Harvard University&#45;&gt;Washington University In St. Louis</title>
<path fill="none" stroke="black" stroke-width="4.4" d="M4547.5,-436.382C4598.97,-469.461 4708.17,-539.641 4764.37,-575.755"/>
<polygon fill="black" stroke="black" stroke-width="4.4" points="4771.28,-580.196 4761.87,-580.035 4766.99,-579.464 4763.63,-577.301 4764.55,-575.871 4765.47,-574.441 4768.83,-576.604 4767.22,-571.707 4771.28,-580.196 4771.28,-580.196"/>
</g>
<!-- Harvard University&#45;&gt;University Of California, Berkeley -->
<g id="edge115" class="edge"><title>Harvard University&#45;&gt;University Of California, Berkeley</title>
<path fill="none" stroke="black" stroke-width="5.5" d="M4523.08,-436.35C4565.21,-604.196 4942.77,-1890.43 5007.93,-2088.72"/>
<polygon fill="black" stroke="black" stroke-width="5.5" points="5010.46,-2096.34 5002.06,-2090.69 5007.06,-2093.25 5005.8,-2089.45 5007.94,-2088.74 5010.07,-2088.04 5011.33,-2091.83 5013.81,-2086.79 5010.46,-2096.34 5010.46,-2096.34"/>
</g>
<!-- Harvard University&#45;&gt;Stanford University -->
<g id="edge85" class="edge"><title>Harvard University&#45;&gt;Stanford University</title>
<path fill="none" stroke="black" stroke-width="4.9" d="M4507.77,-436.34C4390.56,-618.728 3421.06,-2127.31 3283.84,-2340.83"/>
<polygon fill="black" stroke="black" stroke-width="4.9" points="3279.31,-2347.87 3279,-2338.16 3279.83,-2343.45 3281.99,-2340.09 3283.63,-2341.14 3285.27,-2342.19 3283.11,-2345.56 3288.27,-2344.12 3279.31,-2347.87 3279.31,-2347.87"/>
</g>
<!-- Harvard University&#45;&gt;University Of Michigan -->
<g id="edge42" class="edge"><title>Harvard University&#45;&gt;University Of Michigan</title>
<path fill="none" stroke="black" stroke-width="4.5" d="M4458.15,-427.104C4252.24,-456.709 3584.52,-552.714 3350.03,-586.427"/>
<polygon fill="black" stroke="black" stroke-width="4.5" points="3341.88,-587.6 3349.07,-581.451 3345.59,-585.299 3349.55,-584.729 3349.79,-586.461 3350.04,-588.194 3346.08,-588.763 3350.51,-591.472 3341.88,-587.6 3341.88,-587.6"/>
</g>
<!-- Harvard University&#45;&gt;Purdue University -->
<g id="edge56" class="edge"><title>Harvard University&#45;&gt;Purdue University</title>
<path fill="none" stroke="black" stroke-width="4.6" d="M4458.3,-409.522C4335.74,-391.901 4060.69,-352.356 3933.7,-334.097"/>
<polygon fill="black" stroke="black" stroke-width="4.6" points="3925.56,-332.926 3934.21,-328.942 3929.77,-331.713 3933.73,-332.283 3933.48,-334.064 3933.22,-335.846 3929.26,-335.277 3932.74,-339.187 3925.56,-332.926 3925.56,-332.926"/>
</g>
<!-- Harvard University&#45;&gt;Harvard University -->
<g id="edge130" class="edge"><title>Harvard University&#45;&gt;Harvard University</title>
<path fill="none" stroke="black" stroke-width="6.3" d="M4580.64,-424.604C4591.11,-423.743 4598.37,-421.642 4598.37,-418.303 4598.37,-415.902 4594.62,-414.142 4588.62,-413.022"/>
<polygon fill="black" stroke="black" stroke-width="6.3" points="4580.64,-412.001 4589.48,-405.986 4584.95,-409.88 4588.92,-410.388 4588.58,-413.016 4588.24,-415.645 4584.28,-415.137 4587.68,-420.046 4580.64,-412.001 4580.64,-412.001"/>
</g>
<!-- Harvard University&#45;&gt;Brown University -->
<g id="edge84" class="edge"><title>Harvard University&#45;&gt;Brown University</title>
<path fill="none" stroke="black" stroke-width="4.9" d="M4458.22,-418.303C4284.87,-418.303 3791.29,-418.303 3612.99,-418.303"/>
<polygon fill="black" stroke="black" stroke-width="4.9" points="3604.74,-418.303 3612.74,-412.79 3608.74,-416.353 3612.74,-416.353 3612.74,-418.303 3612.74,-420.253 3608.74,-420.253 3612.74,-423.815 3604.74,-418.303 3604.74,-418.303"/>
</g>
<!-- Harvard University&#45;&gt;Massachusetts Institute Of Technology -->
<g id="edge124" class="edge"><title>Harvard University&#45;&gt;Massachusetts Institute Of Technology</title>
<path fill="none" stroke="black" stroke-width="5.9" d="M4479.62,-436.454C4259.91,-536.792 3195.39,-1022.94 2958.31,-1131.21"/>
<polygon fill="black" stroke="black" stroke-width="5.9" points="2950.89,-1134.6 2955.41,-1125.24 2953.51,-1130.71 2957.14,-1129.05 2958.16,-1131.28 2959.18,-1133.51 2955.54,-1135.17 2960.92,-1137.32 2950.89,-1134.6 2950.89,-1134.6"/>
</g>
<!-- Harvard University&#45;&gt;University Of Wisconsin&#45;Madison -->
<g id="edge83" class="edge"><title>Harvard University&#45;&gt;University Of Wisconsin&#45;Madison</title>
<path fill="none" stroke="black" stroke-width="4.9" d="M4535.09,-436.454C4621.3,-535.946 5036.2,-1014.77 5134.66,-1128.39"/>
<polygon fill="black" stroke="black" stroke-width="4.9" points="5139.9,-1134.44 5130.5,-1132 5135.81,-1132.69 5133.19,-1129.67 5134.66,-1128.39 5136.14,-1127.12 5138.75,-1130.14 5138.83,-1124.78 5139.9,-1134.44 5139.9,-1134.44"/>
</g>
<!-- University Of Washington -->
<g id="node48" class="node"><title>University Of Washington</title>
<polygon fill="none" stroke="black" points="4663.22,-297.584 4502.22,-297.584 4502.22,-261.584 4663.22,-261.584 4663.22,-297.584"/>
<text text-anchor="middle" x="4582.72" y="-275.884" font-family="Times,serif" font-size="14.00">University Of Washington</text>
</g>
<!-- Harvard University&#45;&gt;University Of Washington -->
<g id="edge90" class="edge"><title>Harvard University&#45;&gt;University Of Washington</title>
<path fill="none" stroke="black" stroke-width="5" d="M4527.65,-400.167C4538.75,-375.867 4558.5,-332.612 4571.09,-305.052"/>
<polygon fill="black" stroke="black" stroke-width="5" points="4574.43,-297.723 4576.23,-307.337 4574.59,-302.193 4572.93,-305.831 4571.11,-305 4569.29,-304.169 4570.95,-300.531 4565.99,-302.664 4574.43,-297.723 4574.43,-297.723"/>
</g>
<!-- Brown University&#45;&gt;Princeton University -->
<g id="edge37" class="edge"><title>Brown University&#45;&gt;Princeton University</title>
<path fill="none" stroke="black" stroke-width="4.5" d="M3551.69,-436.563C3602.42,-634.56 4114.94,-2380.37 4190.73,-2613.88"/>
<polygon fill="black" stroke="black" stroke-width="4.5" points="4193.24,-2621.55 4185.93,-2615.52 4190.33,-2618.29 4189.08,-2614.49 4190.75,-2613.94 4192.41,-2613.4 4193.65,-2617.2 4195.56,-2612.37 4193.24,-2621.55 4193.24,-2621.55"/>
</g>
<!-- Brown University&#45;&gt;Stanford University -->
<g id="edge45" class="edge"><title>Brown University&#45;&gt;Stanford University</title>
<path fill="none" stroke="black" stroke-width="4.5" d="M3545.14,-436.34C3518.96,-618.457 3302.66,-2122.84 3271.46,-2339.87"/>
<polygon fill="black" stroke="black" stroke-width="4.5" points="3270.3,-2347.87 3266.43,-2339.23 3269.14,-2343.66 3269.71,-2339.7 3271.44,-2339.95 3273.18,-2340.2 3272.61,-2344.16 3276.45,-2340.67 3270.3,-2347.87 3270.3,-2347.87"/>
</g>
<!-- Brown University&#45;&gt;Massachusetts Institute Of Technology -->
<g id="edge21" class="edge"><title>Brown University&#45;&gt;Massachusetts Institute Of Technology</title>
<path fill="none" stroke="black" stroke-width="4.4" d="M3532.01,-436.454C3445.8,-535.946 3030.9,-1014.77 2932.44,-1128.39"/>
<polygon fill="black" stroke="black" stroke-width="4.4" points="2927.2,-1134.44 2928.7,-1125.15 2928.53,-1130.3 2931.15,-1127.28 2932.44,-1128.39 2933.72,-1129.51 2931.1,-1132.53 2936.18,-1131.63 2927.2,-1134.44 2927.2,-1134.44"/>
</g>
<!-- Case Western Reserve University -->
<g id="node42" class="node"><title>Case Western Reserve University</title>
<polygon fill="none" stroke="black" points="3576.28,-279.846 3376.28,-279.846 3376.28,-243.846 3576.28,-243.846 3576.28,-279.846"/>
<text text-anchor="middle" x="3476.28" y="-258.146" font-family="Times,serif" font-size="14.00">Case Western Reserve University</text>
</g>
<!-- Brown University&#45;&gt;Case Western Reserve University -->
<g id="edge58" class="edge"><title>Brown University&#45;&gt;Case Western Reserve University</title>
<path fill="none" stroke="black" stroke-width="4.6" d="M3539.4,-400.049C3526.71,-372.256 3502.49,-319.224 3488.02,-287.548"/>
<polygon fill="black" stroke="black" stroke-width="4.6" points="3484.57,-279.983 3492.6,-285.111 3487.87,-282.874 3489.53,-286.513 3487.89,-287.26 3486.25,-288.008 3484.59,-284.37 3483.18,-289.41 3484.57,-279.983 3484.57,-279.983"/>
</g>
<!-- Iowa State University -->
<g id="node22" class="node"><title>Iowa State University</title>
<polygon fill="none" stroke="black" points="895.58,-943.228 760.58,-943.228 760.58,-907.228 895.58,-907.228 895.58,-943.228"/>
<text text-anchor="middle" x="828.08" y="-921.528" font-family="Times,serif" font-size="14.00">Iowa State University</text>
</g>
<!-- Iowa State University&#45;&gt;Iowa State University -->
<g id="edge108" class="edge"><title>Iowa State University&#45;&gt;Iowa State University</title>
<path fill="none" stroke="black" stroke-width="5.4" d="M895.813,-931.414C906.377,-930.49 913.58,-928.428 913.58,-925.228 913.58,-922.929 909.859,-921.217 903.843,-920.093"/>
<polygon fill="black" stroke="black" stroke-width="5.4" points="895.813,-919.042 904.533,-914.056 900.064,-917.38 904.031,-917.898 903.745,-920.08 903.46,-922.261 899.494,-921.743 902.957,-926.103 895.813,-919.042 895.813,-919.042"/>
</g>
<!-- Oklahoma State University -->
<g id="node23" class="node"><title>Oklahoma State University</title>
<polygon fill="none" stroke="black" points="1125.85,-850.233 960.852,-850.233 960.852,-814.233 1125.85,-814.233 1125.85,-850.233"/>
<text text-anchor="middle" x="1043.35" y="-828.533" font-family="Times,serif" font-size="14.00">Oklahoma State University</text>
</g>
<!-- Iowa State University&#45;&gt;Oklahoma State University -->
<g id="edge20" class="edge"><title>Iowa State University&#45;&gt;Oklahoma State University</title>
<path fill="none" stroke="black" stroke-width="4.4" d="M869.842,-907.188C905.228,-891.901 956.05,-869.947 993.55,-853.747"/>
<polygon fill="black" stroke="black" stroke-width="4.4" points="1001.34,-850.382 995.958,-858.099 998.341,-853.529 994.669,-855.115 993.995,-853.555 993.321,-851.994 996.993,-850.408 992.032,-849.011 1001.34,-850.382 1001.34,-850.382"/>
</g>
<!-- North Carolina State University -->
<g id="node49" class="node"><title>North Carolina State University</title>
<polygon fill="none" stroke="black" points="707.807,-1036.22 517.807,-1036.22 517.807,-1000.22 707.807,-1000.22 707.807,-1036.22"/>
<text text-anchor="middle" x="612.807" y="-1014.52" font-family="Times,serif" font-size="14.00">North Carolina State University</text>
</g>
<!-- Iowa State University&#45;&gt;North Carolina State University -->
<g id="edge93" class="edge"><title>Iowa State University&#45;&gt;North Carolina State University</title>
<path fill="none" stroke="black" stroke-width="5" d="M786.318,-943.269C750.931,-958.556 700.11,-980.51 662.61,-996.71"/>
<polygon fill="black" stroke="black" stroke-width="5" points="654.82,-1000.07 659.933,-991.738 657.699,-996.652 661.371,-995.066 662.164,-996.902 662.957,-998.738 659.285,-1000.32 664.395,-1002.07 654.82,-1000.07 654.82,-1000.07"/>
</g>
<!-- Oklahoma State University&#45;&gt;Oklahoma State University -->
<g id="edge59" class="edge"><title>Oklahoma State University&#45;&gt;Oklahoma State University</title>
<path fill="none" stroke="black" stroke-width="4.6" d="M1126.15,-838.149C1136.81,-837.123 1143.85,-835.151 1143.85,-832.233 1143.85,-830.136 1140.21,-828.527 1134.21,-827.407"/>
<polygon fill="black" stroke="black" stroke-width="4.6" points="1126.15,-826.317 1134.77,-822.261 1130.35,-825.07 1134.32,-825.606 1134.08,-827.39 1133.83,-829.173 1129.87,-828.637 1133.38,-832.518 1126.15,-826.317 1126.15,-826.317"/>
</g>
<!-- Massachusetts Institute Of Technology&#45;&gt;University Of California, Berkeley -->
<g id="edge97" class="edge"><title>Massachusetts Institute Of Technology&#45;&gt;University Of California, Berkeley</title>
<path fill="none" stroke="black" stroke-width="5.1" d="M2946.32,-1170.65C3192.55,-1290.04 4667.91,-1963.95 4965.2,-2093.03"/>
<polygon fill="black" stroke="black" stroke-width="5.1" points="4972.83,-2096.33 4963.21,-2098.42 4968.34,-2096.63 4964.67,-2095.04 4965.49,-2093.15 4966.3,-2091.27 4969.97,-2092.86 4967.77,-2087.89 4972.83,-2096.33 4972.83,-2096.33"/>
</g>
<!-- Massachusetts Institute Of Technology&#45;&gt;University Of California, Los Angeles -->
<g id="edge25" class="edge"><title>Massachusetts Institute Of Technology&#45;&gt;University Of California, Los Angeles</title>
<path fill="none" stroke="black" stroke-width="4.4" d="M2912.04,-1170.83C2922.8,-1289.08 3017.3,-1947.3 3043.48,-2087.92"/>
<polygon fill="black" stroke="black" stroke-width="4.4" points="3045.03,-2096.06 3038.67,-2089.13 3042.61,-2092.45 3041.86,-2088.52 3043.53,-2088.2 3045.2,-2087.88 3045.95,-2091.81 3048.4,-2087.27 3045.03,-2096.06 3045.03,-2096.06"/>
</g>
<!-- Massachusetts Institute Of Technology&#45;&gt;Stanford University -->
<g id="edge118" class="edge"><title>Massachusetts Institute Of Technology&#45;&gt;Stanford University</title>
<path fill="none" stroke="black" stroke-width="5.6" d="M2914.91,-1170.74C2948.32,-1307.55 3203.48,-2176.99 3257.74,-2339.71"/>
<polygon fill="black" stroke="black" stroke-width="5.6" points="3260.46,-2347.75 3251.93,-2342.19 3257,-2344.7 3255.72,-2340.91 3257.9,-2340.17 3260.08,-2339.44 3261.36,-2343.23 3263.87,-2338.16 3260.46,-2347.75 3260.46,-2347.75"/>
</g>
<!-- Massachusetts Institute Of Technology&#45;&gt;University Of Michigan -->
<g id="edge81" class="edge"><title>Massachusetts Institute Of Technology&#45;&gt;University Of Michigan</title>
<path fill="none" stroke="black" stroke-width="4.9" d="M2923.1,-1134.48C2975.64,-1052.74 3190.56,-718.306 3251.52,-623.451"/>
<polygon fill="black" stroke="black" stroke-width="4.9" points="3255.97,-616.534 3256.28,-626.244 3255.45,-620.953 3253.28,-624.318 3251.64,-623.264 3250,-622.21 3252.16,-618.845 3247.01,-620.284 3255.97,-616.534 3255.97,-616.534"/>
</g>
<!-- Massachusetts Institute Of Technology&#45;&gt;California Institute Of Technology -->
<g id="edge63" class="edge"><title>Massachusetts Institute Of Technology&#45;&gt;California Institute Of Technology</title>
<path fill="none" stroke="black" stroke-width="4.7" d="M2909.03,-1170.92C2903.41,-1263.11 2903.26,-1676.26 2908.59,-1785.18"/>
<polygon fill="black" stroke="black" stroke-width="4.7" points="2909.04,-1793.34 2903.32,-1785.64 2906.97,-1789.45 2906.75,-1785.46 2908.6,-1785.36 2910.45,-1785.26 2910.66,-1789.25 2913.88,-1785.07 2909.04,-1793.34 2909.04,-1793.34"/>
</g>
<!-- Massachusetts Institute Of Technology&#45;&gt;Massachusetts Institute Of Technology -->
<g id="edge134" class="edge"><title>Massachusetts Institute Of Technology&#45;&gt;Massachusetts Institute Of Technology</title>
<path fill="none" stroke="black" stroke-width="6.6" d="M3026.83,-1158.02C3037.63,-1156.91 3044.45,-1155.11 3044.45,-1152.61 3044.45,-1150.82 3040.93,-1149.38 3034.93,-1148.3"/>
<polygon fill="black" stroke="black" stroke-width="6.6" points="3026.83,-1147.2 3035.76,-1140.92 3031.17,-1144.97 3035.13,-1145.5 3034.76,-1148.28 3034.38,-1151.05 3030.41,-1150.51 3033.75,-1155.64 3026.83,-1147.2 3026.83,-1147.2"/>
</g>
<!-- Massachusetts Institute Of Technology&#45;&gt;University Of Wisconsin&#45;Madison -->
<g id="edge31" class="edge"><title>Massachusetts Institute Of Technology&#45;&gt;University Of Wisconsin&#45;Madison</title>
<path fill="none" stroke="black" stroke-width="4.5" d="M3026.6,-1152.61C3413.45,-1152.61 4663.43,-1152.61 5044.4,-1152.61"/>
<polygon fill="black" stroke="black" stroke-width="4.5" points="5052.42,-1152.61 5044.42,-1157.68 5048.42,-1154.36 5044.42,-1154.36 5044.42,-1152.61 5044.42,-1150.86 5048.42,-1150.86 5044.42,-1147.55 5052.42,-1152.61 5052.42,-1152.61"/>
</g>
<!-- University Of Wisconsin&#45;Madison&#45;&gt;University Of California, Los Angeles -->
<g id="edge61" class="edge"><title>University Of Wisconsin&#45;Madison&#45;&gt;University Of California, Los Angeles</title>
<path fill="none" stroke="black" stroke-width="4.6" d="M5115.92,-1170.75C4854.4,-1290.19 3381.42,-1962.88 3097.2,-2092.68"/>
<polygon fill="black" stroke="black" stroke-width="4.6" points="3089.53,-2096.18 3094.65,-2088.15 3092.42,-2092.88 3096.06,-2091.22 3096.8,-2092.86 3097.55,-2094.49 3093.91,-2096.15 3098.95,-2097.56 3089.53,-2096.18 3089.53,-2096.18"/>
</g>
<!-- University Of Wisconsin&#45;Madison&#45;&gt;University Of Michigan -->
<g id="edge32" class="edge"><title>University Of Wisconsin&#45;Madison&#45;&gt;University Of Michigan</title>
<path fill="none" stroke="black" stroke-width="4.5" d="M5102.88,-1134.57C4839.11,-1051.3 3663.89,-706.066 3346.78,-618.451"/>
<polygon fill="black" stroke="black" stroke-width="4.5" points="3338.99,-616.306 3348.05,-613.552 3343.32,-615.682 3347.17,-616.745 3346.71,-618.432 3346.24,-620.119 3342.39,-619.056 3345.36,-623.313 3338.99,-616.306 3338.99,-616.306"/>
</g>
<!-- University Of Wisconsin&#45;Madison&#45;&gt;University Of Wisconsin&#45;Madison -->
<g id="edge23" class="edge"><title>University Of Wisconsin&#45;Madison&#45;&gt;University Of Wisconsin&#45;Madison</title>
<path fill="none" stroke="black" stroke-width="4.4" d="M5258.92,-1158.21C5269.73,-1157.11 5276.65,-1155.25 5276.65,-1152.61 5276.65,-1150.72 5273.07,-1149.22 5267.05,-1148.12"/>
<polygon fill="black" stroke="black" stroke-width="4.4" points="5258.92,-1147.02 5267.51,-1143.19 5263.11,-1145.87 5267.08,-1146.41 5266.85,-1148.1 5266.62,-1149.78 5262.66,-1149.24 5266.18,-1153 5258.92,-1147.02 5258.92,-1147.02"/>
</g>
<!-- University Of Missouri &#45; Columbia -->
<g id="node26" class="node"><title>University Of Missouri &#45; Columbia</title>
<polygon fill="none" stroke="black" points="2465.55,-2104.09 2255.55,-2104.09 2255.55,-2068.09 2465.55,-2068.09 2465.55,-2104.09"/>
<text text-anchor="middle" x="2360.55" y="-2082.39" font-family="Times,serif" font-size="14.00">University Of Missouri &#45; Columbia</text>
</g>
<!-- University Of Iowa -->
<g id="node27" class="node"><title>University Of Iowa</title>
<polygon fill="none" stroke="black" points="2659.55,-2104.09 2537.55,-2104.09 2537.55,-2068.09 2659.55,-2068.09 2659.55,-2104.09"/>
<text text-anchor="middle" x="2598.55" y="-2082.39" font-family="Times,serif" font-size="14.00">University Of Iowa</text>
</g>
<!-- University Of Missouri &#45; Columbia&#45;&gt;University Of Iowa -->
<g id="edge24" class="edge"><title>University Of Missouri &#45; Columbia&#45;&gt;University Of Iowa</title>
<path fill="none" stroke="black" stroke-width="4.4" d="M2465.63,-2086.09C2487.19,-2086.09 2509.37,-2086.09 2529.29,-2086.09"/>
<polygon fill="black" stroke="black" stroke-width="4.4" points="2537.38,-2086.09 2529.38,-2091.04 2533.38,-2087.79 2529.38,-2087.79 2529.38,-2086.09 2529.38,-2084.39 2533.38,-2084.39 2529.38,-2081.14 2537.38,-2086.09 2537.38,-2086.09"/>
</g>
<!-- University Of Cambridge -->
<g id="node28" class="node"><title>University Of Cambridge</title>
<polygon fill="none" stroke="black" points="715.925,-503.045 559.925,-503.045 559.925,-467.045 715.925,-467.045 715.925,-503.045"/>
<text text-anchor="middle" x="637.925" y="-481.345" font-family="Times,serif" font-size="14.00">University Of Cambridge</text>
</g>
<!-- University Of Cambridge&#45;&gt;Iowa State University -->
<g id="edge80" class="edge"><title>University Of Cambridge&#45;&gt;Iowa State University</title>
<path fill="none" stroke="black" stroke-width="4.9" d="M645.734,-503.121C675.463,-571.941 781.665,-817.783 816.744,-898.987"/>
<polygon fill="black" stroke="black" stroke-width="4.9" points="820.1,-906.757 811.867,-901.599 816.724,-903.858 815.138,-900.186 816.928,-899.413 818.718,-898.64 820.304,-902.312 821.988,-897.227 820.1,-906.757 820.1,-906.757"/>
</g>
<!-- University Of Cambridge&#45;&gt;Massachusetts Institute Of Technology -->
<g id="edge26" class="edge"><title>University Of Cambridge&#45;&gt;Massachusetts Institute Of Technology</title>
<path fill="none" stroke="black" stroke-width="4.4" d="M699.325,-503.073C1020.24,-597.304 2502.95,-1032.67 2842.19,-1132.27"/>
<polygon fill="black" stroke="black" stroke-width="4.4" points="2849.98,-1134.56 2840.91,-1137.06 2845.67,-1135.07 2841.83,-1133.94 2842.31,-1132.31 2842.79,-1130.68 2846.63,-1131.81 2843.7,-1127.56 2849.98,-1134.56 2849.98,-1134.56"/>
</g>
<!-- University Of Cambridge&#45;&gt;University Of Cambridge -->
<g id="edge135" class="edge"><title>University Of Cambridge&#45;&gt;University Of Cambridge</title>
<path fill="none" stroke="black" stroke-width="6.9" d="M716.272,-491.033C726.869,-490.029 733.925,-488.033 733.925,-485.045 733.925,-482.897 730.28,-481.262 724.295,-480.139"/>
<polygon fill="black" stroke="black" stroke-width="6.9" points="716.272,-479.057 725.238,-472.434 720.631,-476.668 724.595,-477.203 724.2,-480.126 723.806,-483.05 719.842,-482.515 723.162,-487.819 716.272,-479.057 716.272,-479.057"/>
</g>
<!-- University Of London -->
<g id="node37" class="node"><title>University Of London</title>
<polygon fill="none" stroke="black" points="317.808,-520.302 180.808,-520.302 180.808,-484.302 317.808,-484.302 317.808,-520.302"/>
<text text-anchor="middle" x="249.308" y="-498.602" font-family="Times,serif" font-size="14.00">University Of London</text>
</g>
<!-- University Of Cambridge&#45;&gt;University Of London -->
<g id="edge98" class="edge"><title>University Of Cambridge&#45;&gt;University Of London</title>
<path fill="none" stroke="black" stroke-width="5.1" d="M559.75,-488.516C491.701,-491.538 393.635,-495.893 326.02,-498.895"/>
<polygon fill="black" stroke="black" stroke-width="5.1" points="317.929,-499.255 325.667,-493.168 321.834,-497.029 325.83,-496.852 325.921,-498.9 326.012,-500.948 322.016,-501.125 326.176,-504.631 317.929,-499.255 317.929,-499.255"/>
</g>
<!-- University Of Oxford -->
<g id="node50" class="node"><title>University Of Oxford</title>
<polygon fill="none" stroke="black" points="596.347,-36 462.347,-36 462.347,-0 596.347,-0 596.347,-36"/>
<text text-anchor="middle" x="529.347" y="-14.3" font-family="Times,serif" font-size="14.00">University Of Oxford</text>
</g>
<!-- University Of Cambridge&#45;&gt;University Of Oxford -->
<g id="edge109" class="edge"><title>University Of Cambridge&#45;&gt;University Of Oxford</title>
<path fill="none" stroke="black" stroke-width="5.4" d="M633.735,-467.022C617.026,-395.151 555.107,-128.808 535.407,-44.0681"/>
<polygon fill="black" stroke="black" stroke-width="5.4" points="533.582,-36.2207 541.311,-42.6373 536.631,-39.6187 537.537,-43.5148 535.394,-44.0129 533.251,-44.5111 532.345,-40.615 529.477,-45.3886 533.582,-36.2207 533.582,-36.2207"/>
</g>
<!-- University Of Warwick -->
<g id="node51" class="node"><title>University Of Warwick</title>
<polygon fill="none" stroke="black" points="1108.87,-235.544 962.874,-235.544 962.874,-199.544 1108.87,-199.544 1108.87,-235.544"/>
<text text-anchor="middle" x="1035.87" y="-213.844" font-family="Times,serif" font-size="14.00">University Of Warwick</text>
</g>
<!-- University Of Cambridge&#45;&gt;University Of Warwick -->
<g id="edge119" class="edge"><title>University Of Cambridge&#45;&gt;University Of Warwick</title>
<path fill="none" stroke="black" stroke-width="5.6" d="M664.965,-466.869C735.522,-419.441 925.084,-292.018 1002.37,-240.063"/>
<polygon fill="black" stroke="black" stroke-width="5.6" points="1009.06,-235.569 1005.93,-245.261 1007.02,-239.71 1003.7,-241.941 1002.42,-240.032 1001.14,-238.124 1004.46,-235.892 998.905,-234.804 1009.06,-235.569 1009.06,-235.569"/>
</g>
<!-- University Of Toronto&#45;&gt;University Of Wisconsin&#45;Madison -->
<g id="edge27" class="edge"><title>University Of Toronto&#45;&gt;University Of Wisconsin&#45;Madison</title>
<path fill="none" stroke="black" stroke-width="4.4" d="M5025.61,-867.861C5049.09,-919.278 5116.44,-1066.75 5143.84,-1126.75"/>
<polygon fill="black" stroke="black" stroke-width="4.4" points="5147.28,-1134.29 5139.46,-1129.07 5144.07,-1131.36 5142.41,-1127.72 5143.96,-1127.01 5145.5,-1126.31 5147.17,-1129.95 5148.46,-1124.96 5147.28,-1134.29 5147.28,-1134.29"/>
</g>
<!-- University Of Toronto&#45;&gt;University Of Toronto -->
<g id="edge57" class="edge"><title>University Of Toronto&#45;&gt;University Of Toronto</title>
<path fill="none" stroke="black" stroke-width="4.6" d="M5087.04,-855.982C5097.66,-855.043 5104.87,-852.991 5104.87,-849.827 5104.87,-847.553 5101.15,-845.853 5095.11,-844.728"/>
<polygon fill="black" stroke="black" stroke-width="4.6" points="5087.04,-843.672 5095.65,-839.58 5091.24,-842.407 5095.21,-842.926 5094.98,-844.711 5094.74,-846.496 5090.78,-845.976 5094.3,-849.842 5087.04,-843.672 5087.04,-843.672"/>
</g>
<!-- Polytechnic University -->
<g id="node34" class="node"><title>Polytechnic University</title>
<polygon fill="none" stroke="black" points="3937.62,-2657.66 3796.62,-2657.66 3796.62,-2621.66 3937.62,-2621.66 3937.62,-2657.66"/>
<text text-anchor="middle" x="3867.12" y="-2635.96" font-family="Times,serif" font-size="14.00">Polytechnic University</text>
</g>
<!-- Polytechnic University&#45;&gt;Princeton University -->
<g id="edge36" class="edge"><title>Polytechnic University&#45;&gt;Princeton University</title>
<path fill="none" stroke="black" stroke-width="4.5" d="M3937.71,-2639.66C3993.46,-2639.66 4070.97,-2639.66 4127.27,-2639.66"/>
<polygon fill="black" stroke="black" stroke-width="4.5" points="4135.41,-2639.66 4127.41,-2644.72 4131.41,-2641.41 4127.41,-2641.41 4127.41,-2639.66 4127.41,-2637.91 4131.41,-2637.91 4127.41,-2634.59 4135.41,-2639.66 4135.41,-2639.66"/>
</g>
<!-- University Of London&#45;&gt;University Of London -->
<g id="edge103" class="edge"><title>University Of London&#45;&gt;University Of London</title>
<path fill="none" stroke="black" stroke-width="5.2" d="M317.833,-508.488C328.521,-507.563 335.808,-505.501 335.808,-502.302 335.808,-500.002 332.044,-498.29 325.958,-497.166"/>
<polygon fill="black" stroke="black" stroke-width="5.2" points="317.833,-496.116 326.517,-491.34 322.07,-494.546 326.037,-495.059 325.767,-497.141 325.498,-499.224 321.531,-498.711 325.017,-502.943 317.833,-496.116 317.833,-496.116"/>
</g>
<!-- Imperial College -->
<g id="node38" class="node"><title>Imperial College</title>
<polygon fill="none" stroke="black" points="109,-528.952 -1.13687e-13,-528.952 -1.13687e-13,-492.952 109,-492.952 109,-528.952"/>
<text text-anchor="middle" x="54.5" y="-507.252" font-family="Times,serif" font-size="14.00">Imperial College</text>
</g>
<!-- University Of London&#45;&gt;Imperial College -->
<g id="edge46" class="edge"><title>University Of London&#45;&gt;Imperial College</title>
<path fill="none" stroke="black" stroke-width="4.5" d="M180.626,-505.352C160.022,-506.267 137.536,-507.265 117.33,-508.162"/>
<polygon fill="black" stroke="black" stroke-width="4.5" points="109.119,-508.527 116.887,-503.114 113.038,-506.601 117.034,-506.424 117.111,-508.172 117.189,-509.92 113.193,-510.098 117.336,-513.229 109.119,-508.527 109.119,-508.527"/>
</g>
<!-- Rice University -->
<g id="node41" class="node"><title>Rice University</title>
<polygon fill="none" stroke="black" points="2357.55,-788.09 2255.55,-788.09 2255.55,-752.09 2357.55,-752.09 2357.55,-788.09"/>
<text text-anchor="middle" x="2306.55" y="-766.39" font-family="Times,serif" font-size="14.00">Rice University</text>
</g>
<!-- Rice University&#45;&gt;Rice University -->
<g id="edge54" class="edge"><title>Rice University&#45;&gt;Rice University</title>
<path fill="none" stroke="black" stroke-width="4.6" d="M2357.7,-776.583C2368.1,-775.876 2375.55,-773.711 2375.55,-770.09 2375.55,-767.488 2371.7,-765.638 2365.68,-764.54"/>
<polygon fill="black" stroke="black" stroke-width="4.6" points="2357.7,-763.598 2366.26,-759.398 2361.89,-762.28 2365.86,-762.749 2365.65,-764.537 2365.44,-766.325 2361.47,-765.855 2365.04,-769.676 2357.7,-763.598 2357.7,-763.598"/>
</g>
<!-- New York University&#45;&gt;California Institute Of Technology -->
<g id="edge64" class="edge"><title>New York University&#45;&gt;California Institute Of Technology</title>
<path fill="none" stroke="black" stroke-width="4.7" d="M3532.01,-2527.73C3445.8,-2428.24 3030.9,-1949.41 2932.44,-1835.79"/>
<polygon fill="black" stroke="black" stroke-width="4.7" points="2927.2,-1829.74 2936.43,-1832.33 2931.22,-1831.55 2933.84,-1834.58 2932.44,-1835.79 2931.04,-1837 2928.42,-1833.98 2928.44,-1839.25 2927.2,-1829.74 2927.2,-1829.74"/>
</g>
<!-- New York University&#45;&gt;Polytechnic University -->
<g id="edge101" class="edge"><title>New York University&#45;&gt;Polytechnic University</title>
<path fill="none" stroke="black" stroke-width="5.2" d="M3609.31,-2563.96C3663.33,-2579.82 3741.8,-2602.86 3797.95,-2619.35"/>
<polygon fill="black" stroke="black" stroke-width="5.2" points="3805.73,-2621.63 3796.4,-2624.99 3801.3,-2622.52 3797.46,-2621.39 3798.05,-2619.38 3798.64,-2617.36 3802.48,-2618.49 3799.7,-2613.76 3805.73,-2621.63 3805.73,-2621.63"/>
</g>
<!-- New York University&#45;&gt;New York University -->
<g id="edge132" class="edge"><title>New York University&#45;&gt;New York University</title>
<path fill="none" stroke="black" stroke-width="6.3" d="M3615.07,-2552.06C3625.57,-2551.14 3632.73,-2549.08 3632.73,-2545.88 3632.73,-2543.58 3629.04,-2541.87 3623.06,-2540.74"/>
<polygon fill="black" stroke="black" stroke-width="6.3" points="3615.07,-2539.69 3623.93,-2533.71 3619.38,-2537.59 3623.35,-2538.11 3623,-2540.74 3622.66,-2543.36 3618.69,-2542.84 3622.08,-2547.76 3615.07,-2539.69 3615.07,-2539.69"/>
</g>
<!-- Adelphi University -->
<g id="node47" class="node"><title>Adelphi University</title>
<polygon fill="none" stroke="black" points="3482.18,-2839.89 3361.18,-2839.89 3361.18,-2803.89 3482.18,-2803.89 3482.18,-2839.89"/>
<text text-anchor="middle" x="3421.68" y="-2818.19" font-family="Times,serif" font-size="14.00">Adelphi University</text>
</g>
<!-- New York University&#45;&gt;Adelphi University -->
<g id="edge75" class="edge"><title>New York University&#45;&gt;Adelphi University</title>
<path fill="none" stroke="black" stroke-width="4.8" d="M3539.46,-2563.99C3517.7,-2611.66 3458.75,-2740.73 3433.46,-2796.1"/>
<polygon fill="black" stroke="black" stroke-width="4.8" points="3429.99,-2803.71 3428.4,-2794.19 3429.92,-2799.28 3431.58,-2795.65 3433.31,-2796.44 3435.04,-2797.22 3433.38,-2800.86 3438.22,-2798.68 3429.99,-2803.71 3429.99,-2803.71"/>
</g>
<!-- The University Of North Carolina At Chapel Hill -->
<g id="node44" class="node"><title>The University Of North Carolina At Chapel Hill</title>
<polygon fill="none" stroke="black" points="2353.55,-1352.09 2067.55,-1352.09 2067.55,-1316.09 2353.55,-1316.09 2353.55,-1352.09"/>
<text text-anchor="middle" x="2210.55" y="-1330.39" font-family="Times,serif" font-size="14.00">The University Of North Carolina At Chapel Hill</text>
</g>
<!-- The University Of North Carolina At Chapel Hill&#45;&gt;The University Of North Carolina At Chapel Hill -->
<g id="edge65" class="edge"><title>The University Of North Carolina At Chapel Hill&#45;&gt;The University Of North Carolina At Chapel Hill</title>
<path fill="none" stroke="black" stroke-width="4.7" d="M2353.68,-1339.18C2364.74,-1338.05 2371.55,-1336.36 2371.55,-1334.09 2371.55,-1332.46 2368.03,-1331.13 2361.95,-1330.09"/>
<polygon fill="black" stroke="black" stroke-width="4.7" points="2353.68,-1329 2362.3,-1324.8 2357.89,-1327.69 2361.86,-1328.21 2361.62,-1330.04 2361.38,-1331.88 2357.41,-1331.36 2360.93,-1335.29 2353.68,-1329 2353.68,-1329"/>
</g>
<!-- University Of Waterloo -->
<g id="node46" class="node"><title>University Of Waterloo</title>
<polygon fill="none" stroke="black" points="2777.55,-788.09 2631.55,-788.09 2631.55,-752.09 2777.55,-752.09 2777.55,-788.09"/>
<text text-anchor="middle" x="2704.55" y="-766.39" font-family="Times,serif" font-size="14.00">University Of Waterloo</text>
</g>
<!-- University Of Waterloo&#45;&gt;University Of Waterloo -->
<g id="edge74" class="edge"><title>University Of Waterloo&#45;&gt;University Of Waterloo</title>
<path fill="none" stroke="black" stroke-width="4.8" d="M2777.74,-776.181C2788.38,-775.214 2795.55,-773.184 2795.55,-770.09 2795.55,-767.867 2791.85,-766.193 2785.81,-765.068"/>
<polygon fill="black" stroke="black" stroke-width="4.8" points="2777.74,-764 2786.38,-759.696 2781.96,-762.641 2785.92,-763.165 2785.67,-765.049 2785.42,-766.933 2781.46,-766.408 2784.96,-770.402 2777.74,-764 2777.74,-764"/>
</g>
<!-- North Carolina State University&#45;&gt;North Carolina State University -->
<g id="edge99" class="edge"><title>North Carolina State University&#45;&gt;North Carolina State University</title>
<path fill="none" stroke="black" stroke-width="5.1" d="M708.023,-1023.94C718.814,-1022.87 725.807,-1020.97 725.807,-1018.22 725.807,-1016.25 722.195,-1014.71 716.156,-1013.61"/>
<polygon fill="black" stroke="black" stroke-width="5.1" points="708.023,-1012.5 716.721,-1007.89 712.262,-1011.01 716.226,-1011.55 715.951,-1013.58 715.675,-1015.61 711.712,-1015.07 715.18,-1019.26 708.023,-1012.5 708.023,-1012.5"/>
</g>
<!-- University Of Oxford&#45;&gt;University Of Oxford -->
<g id="edge127" class="edge"><title>University Of Oxford&#45;&gt;University Of Oxford</title>
<path fill="none" stroke="black" stroke-width="6.2" d="M596.684,-24.186C607.186,-23.2612 614.347,-21.1992 614.347,-18 614.347,-15.7006 610.648,-13.9886 604.667,-12.8642"/>
<polygon fill="black" stroke="black" stroke-width="6.2" points="596.684,-11.814 605.525,-5.94199 600.988,-9.75792 604.954,-10.2796 604.615,-12.8574 604.276,-15.4352 600.31,-14.9135 603.705,-19.7729 596.684,-11.814 596.684,-11.814"/>
</g>
</g>
</svg>
